G04 #@! TF.GenerationSoftware,KiCad,Pcbnew,6.0.7-f9a2dced07~116~ubuntu22.04.1*
G04 #@! TF.CreationDate,2022-09-02T22:13:25-04:00*
G04 #@! TF.ProjectId,mikrokosmos-ii-panel,6d696b72-6f6b-46f7-936d-6f732d69692d,rev?*
G04 #@! TF.SameCoordinates,Original*
G04 #@! TF.FileFunction,Legend,Bot*
G04 #@! TF.FilePolarity,Positive*
%FSLAX46Y46*%
G04 Gerber Fmt 4.6, Leading zero omitted, Abs format (unit mm)*
G04 Created by KiCad (PCBNEW 6.0.7-f9a2dced07~116~ubuntu22.04.1) date 2022-09-02 22:13:25*
%MOMM*%
%LPD*%
G01*
G04 APERTURE LIST*
G04 APERTURE END LIST*
G04 #@! TO.C,GRAF5*
G36*
X26379513Y-164297410D02*
G01*
X26383491Y-164305057D01*
X26362563Y-164314360D01*
X26349103Y-164312525D01*
X26345612Y-164297410D01*
X26349339Y-164294367D01*
X26379513Y-164297410D01*
G37*
G36*
X29570934Y-127023318D02*
G01*
X29582702Y-127032470D01*
X29555572Y-127038679D01*
X29529784Y-127036881D01*
X29522202Y-127025325D01*
X29531197Y-127020287D01*
X29570934Y-127023318D01*
G37*
G36*
X26967699Y-118426746D02*
G01*
X26947348Y-118446893D01*
X26925568Y-118458880D01*
X26883784Y-118471539D01*
X26876146Y-118467039D01*
X26896497Y-118446893D01*
X26918277Y-118434905D01*
X26960060Y-118422246D01*
X26967699Y-118426746D01*
G37*
G36*
X30803537Y-150999912D02*
G01*
X30807515Y-151007560D01*
X30786587Y-151016862D01*
X30773127Y-151015028D01*
X30769636Y-150999912D01*
X30773363Y-150996869D01*
X30803537Y-150999912D01*
G37*
G36*
X27959290Y-48786506D02*
G01*
X27938939Y-48806652D01*
X27917159Y-48818640D01*
X27875376Y-48831299D01*
X27867737Y-48826799D01*
X27888088Y-48806652D01*
X27909868Y-48794665D01*
X27951652Y-48782006D01*
X27959290Y-48786506D01*
G37*
G36*
X21809404Y-159341571D02*
G01*
X21807607Y-159367359D01*
X21796050Y-159374941D01*
X21791012Y-159365946D01*
X21794043Y-159326209D01*
X21803195Y-159314441D01*
X21809404Y-159341571D01*
G37*
G36*
X35286887Y-155529875D02*
G01*
X35298984Y-155564449D01*
X35308738Y-155618864D01*
X35303692Y-155633880D01*
X35286887Y-155606152D01*
X35274790Y-155571578D01*
X35265036Y-155517163D01*
X35270082Y-155502147D01*
X35286887Y-155529875D01*
G37*
G36*
X31643915Y-151335459D02*
G01*
X31698661Y-151359136D01*
X31759425Y-151389681D01*
X31808712Y-151418393D01*
X31829029Y-151436568D01*
X31821247Y-151437088D01*
X31780012Y-151422493D01*
X31715173Y-151393118D01*
X31674641Y-151372445D01*
X31625911Y-151343556D01*
X31611007Y-151328111D01*
X31612681Y-151327354D01*
X31643915Y-151335459D01*
G37*
G36*
X35510759Y-158860606D02*
G01*
X35510794Y-158866627D01*
X35507385Y-158906430D01*
X35499038Y-158905585D01*
X35494374Y-158884693D01*
X35498096Y-158829308D01*
X35499354Y-158824937D01*
X35507093Y-158821173D01*
X35510759Y-158860606D01*
G37*
G36*
X26731565Y-49989166D02*
G01*
X26713434Y-50060126D01*
X26707065Y-50079810D01*
X26687030Y-50128888D01*
X26673587Y-50143169D01*
X26672095Y-50139613D01*
X26676094Y-50101696D01*
X26693093Y-50039785D01*
X26695102Y-50033762D01*
X26719346Y-49972931D01*
X26732518Y-49959083D01*
X26731565Y-49989166D01*
G37*
G36*
X30317404Y-51725972D02*
G01*
X30285872Y-51784043D01*
X30268956Y-51810873D01*
X30198018Y-51904156D01*
X30102684Y-52012528D01*
X29994508Y-52123899D01*
X29885042Y-52226178D01*
X29785842Y-52307276D01*
X29776455Y-52314178D01*
X29704210Y-52366274D01*
X29650706Y-52403100D01*
X29626933Y-52417063D01*
X29624617Y-52416995D01*
X29619068Y-52406991D01*
X29651490Y-52377974D01*
X29725075Y-52327016D01*
X29729650Y-52323974D01*
X29856887Y-52226409D01*
X29991997Y-52102399D01*
X30117892Y-51968762D01*
X30217485Y-51842318D01*
X30260284Y-51781625D01*
X30302268Y-51726759D01*
X30322089Y-51707543D01*
X30317404Y-51725972D01*
G37*
G36*
X35082353Y-154983324D02*
G01*
X35105928Y-155030860D01*
X35131186Y-155090965D01*
X35150930Y-155146616D01*
X35157964Y-155180790D01*
X35154097Y-155180080D01*
X35135324Y-155148256D01*
X35106582Y-155087581D01*
X35090681Y-155049873D01*
X35070538Y-154992670D01*
X35067057Y-154965755D01*
X35067658Y-154965379D01*
X35082353Y-154983324D01*
G37*
G36*
X29252586Y-52578090D02*
G01*
X29256564Y-52585738D01*
X29235636Y-52595041D01*
X29222176Y-52593206D01*
X29218686Y-52578090D01*
X29222412Y-52575047D01*
X29252586Y-52578090D01*
G37*
G36*
X28797047Y-118122888D02*
G01*
X28835631Y-118125235D01*
X28839221Y-118127756D01*
X28798685Y-118129758D01*
X28717715Y-118131078D01*
X28600000Y-118131554D01*
X28500673Y-118131229D01*
X28412886Y-118130048D01*
X28364876Y-118128155D01*
X28360335Y-118125715D01*
X28402953Y-118122888D01*
X28515276Y-118119887D01*
X28663764Y-118119635D01*
X28797047Y-118122888D01*
G37*
G36*
X32148048Y-148648968D02*
G01*
X32111503Y-148763465D01*
X32002947Y-148987577D01*
X31855066Y-149190974D01*
X31674479Y-149367706D01*
X31467809Y-149511822D01*
X31241677Y-149617370D01*
X31002703Y-149678401D01*
X30993740Y-149679659D01*
X30871241Y-149684581D01*
X30723923Y-149674102D01*
X30572704Y-149650526D01*
X30438501Y-149616163D01*
X30419686Y-149609808D01*
X30197619Y-149507128D01*
X29995420Y-149363555D01*
X29819241Y-149186306D01*
X29675233Y-148982599D01*
X29569546Y-148759652D01*
X29508331Y-148524682D01*
X29494577Y-148371926D01*
X29503862Y-148241459D01*
X29782039Y-148241459D01*
X29784007Y-148448534D01*
X29827771Y-148650768D01*
X29912248Y-148842251D01*
X30036358Y-149017075D01*
X30199019Y-149169330D01*
X30399149Y-149293108D01*
X30438059Y-149311852D01*
X30519044Y-149345650D01*
X30595792Y-149366152D01*
X30686660Y-149377391D01*
X30810007Y-149383404D01*
X30861640Y-149384864D01*
X30969890Y-149384746D01*
X31051210Y-149376973D01*
X31122814Y-149359149D01*
X31201912Y-149328880D01*
X31381149Y-149239546D01*
X31555900Y-149111338D01*
X31697305Y-148951921D01*
X31813120Y-148754000D01*
X31845053Y-148684720D01*
X31870586Y-148614870D01*
X31884916Y-148544246D01*
X31891200Y-148456165D01*
X31892593Y-148333945D01*
X31891387Y-148214081D01*
X31885480Y-148127008D01*
X31871477Y-148057173D01*
X31845979Y-147987700D01*
X31805589Y-147901713D01*
X31747517Y-147796597D01*
X31609596Y-147615913D01*
X31446061Y-147472300D01*
X31262914Y-147366829D01*
X31066160Y-147300572D01*
X30861800Y-147274601D01*
X30655838Y-147289988D01*
X30454277Y-147347805D01*
X30263119Y-147449126D01*
X30088367Y-147595021D01*
X30037722Y-147650273D01*
X29907815Y-147836419D01*
X29822948Y-148035451D01*
X29782039Y-148241459D01*
X29503862Y-148241459D01*
X29511640Y-148132159D01*
X29572866Y-147900778D01*
X29674152Y-147683325D01*
X29811396Y-147485338D01*
X29980495Y-147312361D01*
X30177349Y-147169933D01*
X30397854Y-147063596D01*
X30637909Y-146998891D01*
X30692742Y-146991005D01*
X30928441Y-146987235D01*
X31161139Y-147028982D01*
X31384608Y-147112099D01*
X31592620Y-147232438D01*
X31778948Y-147385850D01*
X31937363Y-147568188D01*
X32061637Y-147775303D01*
X32145544Y-148003049D01*
X32166222Y-148104709D01*
X32182531Y-148291571D01*
X32181183Y-148333945D01*
X32176505Y-148481020D01*
X32148048Y-148648968D01*
G37*
G36*
X21716552Y-148992075D02*
G01*
X21622383Y-149179897D01*
X21492728Y-149345169D01*
X21332621Y-149481426D01*
X21147099Y-149582204D01*
X20941195Y-149641039D01*
X20900412Y-149647190D01*
X20787563Y-149659905D01*
X20686337Y-149666343D01*
X20565566Y-149669315D01*
X20565566Y-148855776D01*
X20845128Y-148855776D01*
X20845562Y-149026404D01*
X20847727Y-149156047D01*
X20852804Y-149249639D01*
X20861973Y-149312113D01*
X20876414Y-149348405D01*
X20897308Y-149363449D01*
X20925835Y-149362179D01*
X20963176Y-149349530D01*
X21010511Y-149330435D01*
X21073109Y-149303362D01*
X21240780Y-149198701D01*
X21369151Y-149063950D01*
X21455981Y-148901932D01*
X21499029Y-148715467D01*
X21502134Y-148654187D01*
X21479080Y-148482323D01*
X21414322Y-148317424D01*
X21314242Y-148169753D01*
X21185222Y-148049570D01*
X21033643Y-147967137D01*
X20971961Y-147944935D01*
X20905303Y-147923320D01*
X20869717Y-147914961D01*
X20864287Y-147927956D01*
X20857742Y-147987319D01*
X20852449Y-148091603D01*
X20848524Y-148237369D01*
X20846085Y-148421176D01*
X20845245Y-148639585D01*
X20845128Y-148855776D01*
X20565566Y-148855776D01*
X20565566Y-146999645D01*
X20845245Y-146999645D01*
X20845245Y-147629507D01*
X20953478Y-147645738D01*
X21043392Y-147664794D01*
X21226816Y-147739014D01*
X21394317Y-147853193D01*
X21539525Y-148000209D01*
X21656070Y-148172942D01*
X21737581Y-148364273D01*
X21777691Y-148567080D01*
X21778293Y-148574633D01*
X21775278Y-148654187D01*
X21770200Y-148788165D01*
X21716552Y-148992075D01*
G37*
G36*
X32481032Y-124916491D02*
G01*
X32464665Y-124955801D01*
X32445158Y-124987162D01*
X32424738Y-125006652D01*
X32422872Y-124995112D01*
X32439239Y-124955801D01*
X32458746Y-124924441D01*
X32479167Y-124904951D01*
X32481032Y-124916491D01*
G37*
G36*
X29112759Y-97757849D02*
G01*
X29172072Y-97776022D01*
X29198944Y-97791353D01*
X29184785Y-97797873D01*
X29155109Y-97794194D01*
X29095796Y-97776022D01*
X29068925Y-97760690D01*
X29083083Y-97754170D01*
X29112759Y-97757849D01*
G37*
G36*
X34774545Y-154332874D02*
G01*
X34801917Y-154378221D01*
X34839479Y-154447079D01*
X34880468Y-154526290D01*
X34918119Y-154602694D01*
X34945670Y-154663130D01*
X34956357Y-154694439D01*
X34955329Y-154703128D01*
X34947622Y-154700266D01*
X34929130Y-154670797D01*
X34896056Y-154608338D01*
X34844603Y-154506502D01*
X34830419Y-154477863D01*
X34792924Y-154398426D01*
X34769603Y-154342998D01*
X34765027Y-154322168D01*
X34774545Y-154332874D01*
G37*
G36*
X31418327Y-151231778D02*
G01*
X31473073Y-151258404D01*
X31474976Y-151259498D01*
X31510870Y-151284426D01*
X31511211Y-151294740D01*
X31476968Y-151285030D01*
X31422222Y-151258404D01*
X31420319Y-151257310D01*
X31384426Y-151232382D01*
X31384084Y-151222068D01*
X31418327Y-151231778D01*
G37*
G36*
X35412007Y-155985414D02*
G01*
X35410209Y-156011202D01*
X35398653Y-156018785D01*
X35393615Y-156009790D01*
X35396646Y-155970053D01*
X35405798Y-155958285D01*
X35412007Y-155985414D01*
G37*
G36*
X29928479Y-150771195D02*
G01*
X29932792Y-150780023D01*
X29896697Y-150784019D01*
X29861721Y-150780475D01*
X29864915Y-150771195D01*
X29876424Y-150767837D01*
X29928479Y-150771195D01*
G37*
G36*
X24531932Y-120722468D02*
G01*
X24519219Y-120735181D01*
X24506507Y-120722468D01*
X24519219Y-120709755D01*
X24531932Y-120722468D01*
G37*
G36*
X24303103Y-121319966D02*
G01*
X24301268Y-121333426D01*
X24286153Y-121336916D01*
X24283110Y-121333189D01*
X24286153Y-121303015D01*
X24293801Y-121299038D01*
X24303103Y-121319966D01*
G37*
G36*
X35103283Y-160299733D02*
G01*
X35079354Y-160359617D01*
X35055796Y-160401750D01*
X35039226Y-160413912D01*
X35038659Y-160413144D01*
X35043832Y-160383574D01*
X35067763Y-160331172D01*
X35088221Y-160296283D01*
X35105704Y-160277307D01*
X35103283Y-160299733D01*
G37*
G36*
X25294695Y-151487233D02*
G01*
X25281982Y-151499946D01*
X25269269Y-151487233D01*
X25281982Y-151474520D01*
X25294695Y-151487233D01*
G37*
G36*
X36609009Y-149643890D02*
G01*
X36329330Y-149643890D01*
X36329330Y-147406452D01*
X36609009Y-147406452D01*
X36609009Y-149643890D01*
G37*
G36*
X24224820Y-121610239D02*
G01*
X24223022Y-121636027D01*
X24211466Y-121643610D01*
X24206427Y-121634615D01*
X24209459Y-121594878D01*
X24218610Y-121583109D01*
X24224820Y-121610239D01*
G37*
G36*
X22547917Y-161172501D02*
G01*
X22574174Y-161212458D01*
X22588503Y-161244623D01*
X22588676Y-161263309D01*
X22575006Y-161252415D01*
X22548749Y-161212458D01*
X22534420Y-161180293D01*
X22534247Y-161161607D01*
X22547917Y-161172501D01*
G37*
G36*
X29774337Y-126972467D02*
G01*
X29786106Y-126981619D01*
X29758976Y-126987828D01*
X29733188Y-126986030D01*
X29725605Y-126974474D01*
X29734600Y-126969436D01*
X29774337Y-126972467D01*
G37*
G36*
X30506907Y-100343990D02*
G01*
X30505072Y-100357450D01*
X30489957Y-100360940D01*
X30486914Y-100357213D01*
X30489957Y-100327039D01*
X30497604Y-100323062D01*
X30506907Y-100343990D01*
G37*
G36*
X34880080Y-160792939D02*
G01*
X34867368Y-160805651D01*
X34854655Y-160792939D01*
X34867368Y-160780226D01*
X34880080Y-160792939D01*
G37*
G36*
X21595950Y-157473227D02*
G01*
X21597327Y-157550717D01*
X21597840Y-157665611D01*
X21597583Y-157754234D01*
X21596440Y-157844175D01*
X21594540Y-157895035D01*
X21592054Y-157902891D01*
X21589153Y-157863820D01*
X21586061Y-157753990D01*
X21585857Y-157612309D01*
X21589088Y-157482439D01*
X21591283Y-157444792D01*
X21593878Y-157436724D01*
X21595950Y-157473227D01*
G37*
G36*
X32846046Y-121091137D02*
G01*
X32844211Y-121104597D01*
X32829096Y-121108087D01*
X32826053Y-121104360D01*
X32829096Y-121074186D01*
X32836743Y-121070209D01*
X32846046Y-121091137D01*
G37*
G36*
X22040240Y-160093739D02*
G01*
X22052228Y-160115519D01*
X22064887Y-160157303D01*
X22060387Y-160164941D01*
X22040240Y-160144590D01*
X22028253Y-160122810D01*
X22015594Y-160081027D01*
X22020094Y-160073388D01*
X22040240Y-160093739D01*
G37*
G36*
X28147110Y-101648743D02*
G01*
X28158878Y-101657895D01*
X28131749Y-101664104D01*
X28105961Y-101662307D01*
X28098378Y-101650751D01*
X28107373Y-101645712D01*
X28147110Y-101648743D01*
G37*
G36*
X30470604Y-49967780D02*
G01*
X30495113Y-50014360D01*
X30495496Y-50015200D01*
X30519671Y-50079847D01*
X30529251Y-50128774D01*
X30528121Y-50135208D01*
X30515706Y-50124986D01*
X30494194Y-50077924D01*
X30487721Y-50060757D01*
X30466823Y-49996866D01*
X30461146Y-49963912D01*
X30470604Y-49967780D01*
G37*
G36*
X30579169Y-51044090D02*
G01*
X30575625Y-51079066D01*
X30566345Y-51075871D01*
X30562986Y-51064363D01*
X30566345Y-51012308D01*
X30575173Y-51007995D01*
X30579169Y-51044090D01*
G37*
G36*
X35357598Y-159542915D02*
G01*
X35348635Y-159596127D01*
X35333809Y-159639982D01*
X35320734Y-159652979D01*
X35317878Y-159627547D01*
X35326841Y-159574334D01*
X35341667Y-159530479D01*
X35354742Y-159517483D01*
X35357598Y-159542915D01*
G37*
G36*
X31345946Y-151207553D02*
G01*
X31333233Y-151220266D01*
X31320521Y-151207553D01*
X31333233Y-151194840D01*
X31345946Y-151207553D01*
G37*
G36*
X33091126Y-122215731D02*
G01*
X33093028Y-122273419D01*
X33092196Y-122320607D01*
X33088358Y-122353920D01*
X33082403Y-122343689D01*
X33077873Y-122291754D01*
X33082056Y-122216561D01*
X33086570Y-122198857D01*
X33091126Y-122215731D01*
G37*
G36*
X27906673Y-118175019D02*
G01*
X27911045Y-118176277D01*
X27914809Y-118184015D01*
X27875376Y-118187682D01*
X27869354Y-118187717D01*
X27829552Y-118184308D01*
X27830397Y-118175961D01*
X27851289Y-118171296D01*
X27906673Y-118175019D01*
G37*
G36*
X26303237Y-164271984D02*
G01*
X26307214Y-164279632D01*
X26286286Y-164288935D01*
X26272826Y-164287100D01*
X26269336Y-164271984D01*
X26273063Y-164268941D01*
X26303237Y-164271984D01*
G37*
G36*
X31879880Y-151461807D02*
G01*
X31867167Y-151474520D01*
X31854455Y-151461807D01*
X31867167Y-151449095D01*
X31879880Y-151461807D01*
G37*
G36*
X24142001Y-121985621D02*
G01*
X24144652Y-122031877D01*
X24144406Y-122049128D01*
X24140394Y-122084285D01*
X24133024Y-122076372D01*
X24129070Y-122051868D01*
X24133024Y-121987383D01*
X24135401Y-121980169D01*
X24142001Y-121985621D01*
G37*
G36*
X27460623Y-126972467D02*
G01*
X27472392Y-126981619D01*
X27445262Y-126987828D01*
X27419474Y-126986030D01*
X27411891Y-126974474D01*
X27420886Y-126969436D01*
X27460623Y-126972467D01*
G37*
G36*
X30131882Y-164500925D02*
G01*
X30136195Y-164509753D01*
X30100100Y-164513749D01*
X30065124Y-164510205D01*
X30068319Y-164500925D01*
X30079827Y-164497566D01*
X30131882Y-164500925D01*
G37*
G36*
X21758553Y-159112742D02*
G01*
X21756756Y-159138530D01*
X21745200Y-159146113D01*
X21740161Y-159137117D01*
X21743192Y-159097380D01*
X21752344Y-159085612D01*
X21758553Y-159112742D01*
G37*
G36*
X28987738Y-97733757D02*
G01*
X28992051Y-97742586D01*
X28955956Y-97746582D01*
X28920980Y-97743038D01*
X28924174Y-97733757D01*
X28935683Y-97730399D01*
X28987738Y-97733757D01*
G37*
G36*
X28275826Y-97733757D02*
G01*
X28280139Y-97742586D01*
X28244044Y-97746582D01*
X28209068Y-97743038D01*
X28212262Y-97733757D01*
X28223771Y-97730399D01*
X28275826Y-97733757D01*
G37*
G36*
X27507769Y-98026959D02*
G01*
X27468569Y-98058156D01*
X27425488Y-98094306D01*
X27354397Y-98160169D01*
X27267898Y-98244291D01*
X27176176Y-98336959D01*
X27171905Y-98341360D01*
X27088799Y-98426483D01*
X27019712Y-98496365D01*
X26971738Y-98543887D01*
X26951973Y-98561930D01*
X26951351Y-98561618D01*
X26963134Y-98539459D01*
X26994705Y-98492840D01*
X27035008Y-98443835D01*
X27104341Y-98370117D01*
X27189518Y-98285616D01*
X27280388Y-98199885D01*
X27366801Y-98122476D01*
X27438607Y-98062939D01*
X27485656Y-98030827D01*
X27503966Y-98022702D01*
X27507769Y-98026959D01*
G37*
G36*
X25216946Y-147004499D02*
G01*
X25330897Y-147006029D01*
X25408230Y-147008430D01*
X25441832Y-147011640D01*
X25452814Y-147019870D01*
X25467400Y-147067183D01*
X25467655Y-147158270D01*
X25459960Y-147292038D01*
X24999524Y-147304750D01*
X24539088Y-147317463D01*
X25033120Y-148334480D01*
X25098387Y-148468915D01*
X25201762Y-148682159D01*
X25299072Y-148883265D01*
X25387619Y-149066635D01*
X25464704Y-149226674D01*
X25527630Y-149357782D01*
X25573697Y-149454363D01*
X25600207Y-149510819D01*
X25673261Y-149670140D01*
X24994539Y-149663371D01*
X24315816Y-149656602D01*
X24308208Y-149510984D01*
X24300600Y-149365367D01*
X25212094Y-149351497D01*
X24645945Y-148181928D01*
X24079796Y-147012358D01*
X24744055Y-147005568D01*
X24907648Y-147004298D01*
X25073492Y-147003901D01*
X25216946Y-147004499D01*
G37*
G36*
X25229340Y-151527090D02*
G01*
X25173924Y-151561679D01*
X25158396Y-151570090D01*
X25112226Y-151594076D01*
X25094303Y-151599074D01*
X25091291Y-151589587D01*
X25091618Y-151588301D01*
X25116102Y-151567876D01*
X25167568Y-151538084D01*
X25211095Y-151517763D01*
X25241287Y-151510806D01*
X25229340Y-151527090D01*
G37*
G36*
X26937063Y-98611132D02*
G01*
X26929214Y-98622427D01*
X26907709Y-98640486D01*
X26904154Y-98640239D01*
X26898555Y-98625521D01*
X26925851Y-98599920D01*
X26940059Y-98593734D01*
X26937063Y-98611132D01*
G37*
G36*
X26665661Y-50215645D02*
G01*
X26663863Y-50241433D01*
X26652307Y-50249015D01*
X26647268Y-50240020D01*
X26650299Y-50200283D01*
X26659451Y-50188515D01*
X26665661Y-50215645D01*
G37*
G36*
X26888817Y-51716507D02*
G01*
X26924433Y-51760723D01*
X26982515Y-51842318D01*
X26985702Y-51846915D01*
X27086643Y-51973956D01*
X27213219Y-52107532D01*
X27348342Y-52230825D01*
X27474925Y-52327016D01*
X27514297Y-52353768D01*
X27563682Y-52390292D01*
X27582983Y-52409166D01*
X27566779Y-52414617D01*
X27522109Y-52389152D01*
X27455424Y-52338649D01*
X27373175Y-52269101D01*
X27281814Y-52186505D01*
X27187793Y-52096856D01*
X27097562Y-52006148D01*
X27017573Y-51920377D01*
X26954278Y-51845537D01*
X26914128Y-51787625D01*
X26891580Y-51745486D01*
X26877316Y-51710988D01*
X26888817Y-51716507D01*
G37*
G36*
X30579169Y-99352398D02*
G01*
X30575625Y-99387374D01*
X30566345Y-99384180D01*
X30562986Y-99372671D01*
X30566345Y-99320616D01*
X30575173Y-99316303D01*
X30579169Y-99352398D01*
G37*
G36*
X26760894Y-150898210D02*
G01*
X26764872Y-150905858D01*
X26743944Y-150915161D01*
X26730484Y-150913326D01*
X26726994Y-150898210D01*
X26730720Y-150895168D01*
X26760894Y-150898210D01*
G37*
G36*
X27507769Y-49006739D02*
G01*
X27468569Y-49037936D01*
X27425488Y-49074086D01*
X27354397Y-49139949D01*
X27267898Y-49224071D01*
X27176176Y-49316739D01*
X27171905Y-49321140D01*
X27088799Y-49406263D01*
X27019712Y-49476145D01*
X26971738Y-49523667D01*
X26951973Y-49541709D01*
X26951351Y-49541398D01*
X26963134Y-49519239D01*
X26994705Y-49472620D01*
X27035008Y-49423614D01*
X27104341Y-49349896D01*
X27189518Y-49265396D01*
X27280388Y-49179665D01*
X27366801Y-49102255D01*
X27438607Y-49042719D01*
X27485656Y-49010607D01*
X27503966Y-49002482D01*
X27507769Y-49006739D01*
G37*
G36*
X30231995Y-164474969D02*
G01*
X30243763Y-164484121D01*
X30216633Y-164490331D01*
X30190845Y-164488533D01*
X30183263Y-164476977D01*
X30192258Y-164471938D01*
X30231995Y-164474969D01*
G37*
G36*
X25960256Y-164140293D02*
G01*
X26006607Y-164161807D01*
X26023868Y-164175962D01*
X26019320Y-164186454D01*
X26002107Y-164183322D01*
X25955756Y-164161807D01*
X25938495Y-164147652D01*
X25943043Y-164137161D01*
X25960256Y-164140293D01*
G37*
G36*
X31435672Y-164061924D02*
G01*
X31433834Y-164072946D01*
X31396797Y-164098244D01*
X31346861Y-164122906D01*
X31307808Y-164134580D01*
X31307071Y-164134564D01*
X31308909Y-164123542D01*
X31345946Y-164098244D01*
X31395882Y-164073582D01*
X31434935Y-164061908D01*
X31435672Y-164061924D01*
G37*
G36*
X29388188Y-101551697D02*
G01*
X29375476Y-101564410D01*
X29362763Y-101551697D01*
X29375476Y-101538985D01*
X29388188Y-101551697D01*
G37*
G36*
X26794795Y-126748294D02*
G01*
X26782082Y-126761007D01*
X26769370Y-126748294D01*
X26782082Y-126735581D01*
X26794795Y-126748294D01*
G37*
G36*
X24734504Y-124915844D02*
G01*
X24760761Y-124955801D01*
X24775090Y-124987966D01*
X24775263Y-125006652D01*
X24761593Y-124995759D01*
X24735336Y-124955801D01*
X24721006Y-124923637D01*
X24720834Y-124904951D01*
X24734504Y-124915844D01*
G37*
G36*
X26430364Y-150999912D02*
G01*
X26434342Y-151007560D01*
X26413414Y-151016862D01*
X26399953Y-151015028D01*
X26396463Y-150999912D01*
X26400190Y-150996869D01*
X26430364Y-150999912D01*
G37*
G36*
X27462212Y-150745769D02*
G01*
X27466525Y-150754598D01*
X27430431Y-150758594D01*
X27395455Y-150755050D01*
X27398649Y-150745769D01*
X27410158Y-150742411D01*
X27462212Y-150745769D01*
G37*
G36*
X21938539Y-159788634D02*
G01*
X21936704Y-159802094D01*
X21921588Y-159805585D01*
X21918546Y-159801858D01*
X21921588Y-159771684D01*
X21929236Y-159767706D01*
X21938539Y-159788634D01*
G37*
G36*
X29578081Y-52443694D02*
G01*
X29521672Y-52478796D01*
X29465585Y-52505826D01*
X29428445Y-52517746D01*
X29422989Y-52517841D01*
X29414456Y-52512249D01*
X29441304Y-52493577D01*
X29508959Y-52457781D01*
X29555520Y-52436324D01*
X29588534Y-52428166D01*
X29578081Y-52443694D01*
G37*
G36*
X24824029Y-120186339D02*
G01*
X24822140Y-120189487D01*
X24776622Y-120265762D01*
X24729512Y-120345248D01*
X24719662Y-120361567D01*
X24686784Y-120410416D01*
X24667634Y-120430076D01*
X24666795Y-120429901D01*
X24671592Y-120407901D01*
X24696602Y-120358284D01*
X24734124Y-120294260D01*
X24776455Y-120229037D01*
X24815895Y-120175821D01*
X24868497Y-120112258D01*
X24824029Y-120186339D01*
G37*
G36*
X28147110Y-52628523D02*
G01*
X28158878Y-52637675D01*
X28131749Y-52643884D01*
X28105961Y-52642086D01*
X28098378Y-52630530D01*
X28107373Y-52625492D01*
X28147110Y-52628523D01*
G37*
G36*
X24597519Y-120568958D02*
G01*
X24579115Y-120614410D01*
X24559563Y-120656222D01*
X24539086Y-120683544D01*
X24531932Y-120663764D01*
X24540686Y-120639545D01*
X24570483Y-120593844D01*
X24593407Y-120565797D01*
X24597519Y-120568958D01*
G37*
G36*
X32795195Y-124294740D02*
G01*
X32793360Y-124308200D01*
X32778245Y-124311691D01*
X32775202Y-124307964D01*
X32778245Y-124277790D01*
X32785893Y-124273812D01*
X32795195Y-124294740D01*
G37*
G36*
X26901264Y-164449544D02*
G01*
X26913033Y-164458696D01*
X26885903Y-164464905D01*
X26860115Y-164463107D01*
X26852532Y-164451551D01*
X26861527Y-164446513D01*
X26901264Y-164449544D01*
G37*
G36*
X21731121Y-156330776D02*
G01*
X21727577Y-156365752D01*
X21718297Y-156362558D01*
X21714938Y-156351049D01*
X21718297Y-156298995D01*
X21727125Y-156294682D01*
X21731121Y-156330776D01*
G37*
G36*
X21809404Y-155985414D02*
G01*
X21807607Y-156011202D01*
X21796050Y-156018785D01*
X21791012Y-156009790D01*
X21794043Y-155970053D01*
X21803195Y-155958285D01*
X21809404Y-155985414D01*
G37*
G36*
X28733484Y-97706426D02*
G01*
X28764064Y-97709972D01*
X28749903Y-97712981D01*
X28693720Y-97715016D01*
X28600000Y-97715764D01*
X28508670Y-97715061D01*
X28451244Y-97713061D01*
X28435698Y-97710078D01*
X28466517Y-97706426D01*
X28502576Y-97704454D01*
X28621839Y-97702662D01*
X28733484Y-97706426D01*
G37*
G36*
X27562325Y-126997892D02*
G01*
X27574094Y-127007044D01*
X27546964Y-127013254D01*
X27521176Y-127011456D01*
X27513593Y-126999900D01*
X27522588Y-126994861D01*
X27562325Y-126997892D01*
G37*
G36*
X29087851Y-101648743D02*
G01*
X29099619Y-101657895D01*
X29072489Y-101664104D01*
X29046701Y-101662307D01*
X29039118Y-101650751D01*
X29048114Y-101645712D01*
X29087851Y-101648743D01*
G37*
G36*
X32606489Y-120558688D02*
G01*
X32628611Y-120587518D01*
X32657572Y-120638122D01*
X32682742Y-120690698D01*
X32693494Y-120725443D01*
X32693461Y-120727544D01*
X32687520Y-120735219D01*
X32668539Y-120707858D01*
X32632511Y-120639835D01*
X32625579Y-120625844D01*
X32605019Y-120576956D01*
X32603199Y-120557203D01*
X32606489Y-120558688D01*
G37*
G36*
X24115951Y-122215731D02*
G01*
X24117853Y-122273419D01*
X24117021Y-122320607D01*
X24113183Y-122353920D01*
X24107228Y-122343689D01*
X24102698Y-122291754D01*
X24106881Y-122216561D01*
X24111395Y-122198857D01*
X24115951Y-122215731D01*
G37*
G36*
X30125526Y-166549493D02*
G01*
X30030180Y-166564388D01*
X29958550Y-166577152D01*
X29706392Y-166651075D01*
X29485097Y-166765304D01*
X29294889Y-166919699D01*
X29135992Y-167114122D01*
X29054808Y-167250321D01*
X28995706Y-167388939D01*
X28957395Y-167539677D01*
X28936721Y-167715018D01*
X28930531Y-167927449D01*
X28930531Y-168255301D01*
X30125526Y-168255301D01*
X30125526Y-168865511D01*
X28930531Y-168865511D01*
X28930531Y-169068915D01*
X30100100Y-169068915D01*
X30100100Y-169679801D01*
X29241992Y-169673107D01*
X28383884Y-169666412D01*
X28376882Y-169265962D01*
X28369880Y-168865511D01*
X28193193Y-168865511D01*
X28193193Y-168255301D01*
X28363266Y-168255301D01*
X28378992Y-167880276D01*
X28394486Y-167640700D01*
X28421733Y-167431481D01*
X28463194Y-167248261D01*
X28521654Y-167078815D01*
X28599902Y-166910915D01*
X28759248Y-166649854D01*
X28949230Y-166424875D01*
X29166225Y-166242979D01*
X29410236Y-166104162D01*
X29681269Y-166008421D01*
X29979330Y-165955752D01*
X30125526Y-165941143D01*
X30125526Y-166549493D01*
G37*
G36*
X34930931Y-160691237D02*
G01*
X34918218Y-160703950D01*
X34905506Y-160691237D01*
X34918218Y-160678524D01*
X34930931Y-160691237D01*
G37*
G36*
X26448277Y-126580495D02*
G01*
X26507686Y-126606500D01*
X26580416Y-126640547D01*
X26652796Y-126676130D01*
X26711156Y-126706744D01*
X26741825Y-126725882D01*
X26742374Y-126726408D01*
X26734744Y-126735581D01*
X26731548Y-126735177D01*
X26693468Y-126720886D01*
X26630491Y-126691498D01*
X26556806Y-126654342D01*
X26486604Y-126616751D01*
X26434076Y-126586055D01*
X26413414Y-126569584D01*
X26415859Y-126569039D01*
X26448277Y-126580495D01*
G37*
G36*
X29252586Y-101598311D02*
G01*
X29256564Y-101605958D01*
X29235636Y-101615261D01*
X29222176Y-101613426D01*
X29218686Y-101598311D01*
X29222412Y-101595268D01*
X29252586Y-101598311D01*
G37*
G36*
X30054017Y-150796091D02*
G01*
X30065785Y-150805242D01*
X30038656Y-150811452D01*
X30012867Y-150809654D01*
X30005285Y-150798098D01*
X30014280Y-150793060D01*
X30054017Y-150796091D01*
G37*
G36*
X29355923Y-118175019D02*
G01*
X29360294Y-118176277D01*
X29364058Y-118184015D01*
X29324625Y-118187682D01*
X29318604Y-118187717D01*
X29278801Y-118184308D01*
X29279646Y-118175961D01*
X29300538Y-118171296D01*
X29355923Y-118175019D01*
G37*
G36*
X30333696Y-164449544D02*
G01*
X30345465Y-164458696D01*
X30318335Y-164464905D01*
X30292547Y-164463107D01*
X30284964Y-164451551D01*
X30293960Y-164446513D01*
X30333696Y-164449544D01*
G37*
G36*
X22294495Y-160691237D02*
G01*
X22281782Y-160703950D01*
X22269069Y-160691237D01*
X22281782Y-160678524D01*
X22294495Y-160691237D01*
G37*
G36*
X27981315Y-101598311D02*
G01*
X27985293Y-101605958D01*
X27964365Y-101615261D01*
X27950904Y-101613426D01*
X27947414Y-101598311D01*
X27951141Y-101595268D01*
X27981315Y-101598311D01*
G37*
G36*
X26757361Y-51465951D02*
G01*
X26781839Y-51502736D01*
X26815095Y-51565869D01*
X26834331Y-51607133D01*
X26855389Y-51659322D01*
X26858545Y-51679725D01*
X26856650Y-51679113D01*
X26836149Y-51652842D01*
X26806540Y-51600472D01*
X26776525Y-51539496D01*
X26754806Y-51487408D01*
X26750088Y-51461703D01*
X26757361Y-51465951D01*
G37*
G36*
X30555751Y-50215645D02*
G01*
X30553953Y-50241433D01*
X30542397Y-50249015D01*
X30537358Y-50240020D01*
X30540389Y-50200283D01*
X30549541Y-50188515D01*
X30555751Y-50215645D01*
G37*
G36*
X29672635Y-126997892D02*
G01*
X29684404Y-127007044D01*
X29657274Y-127013254D01*
X29631486Y-127011456D01*
X29623903Y-126999900D01*
X29632898Y-126994861D01*
X29672635Y-126997892D01*
G37*
G36*
X29725075Y-164577201D02*
G01*
X29729388Y-164586029D01*
X29693293Y-164590025D01*
X29658318Y-164586481D01*
X29661512Y-164577201D01*
X29673021Y-164573843D01*
X29725075Y-164577201D01*
G37*
G36*
X27180944Y-150796091D02*
G01*
X27192712Y-150805242D01*
X27165582Y-150811452D01*
X27139794Y-150809654D01*
X27132212Y-150798098D01*
X27141207Y-150793060D01*
X27180944Y-150796091D01*
G37*
G36*
X24633634Y-120519065D02*
G01*
X24620921Y-120531777D01*
X24608208Y-120519065D01*
X24620921Y-120506352D01*
X24633634Y-120519065D01*
G37*
G36*
X22243644Y-149669315D02*
G01*
X21963964Y-149669315D01*
X21963964Y-146999645D01*
X22243644Y-146999645D01*
X22243644Y-149669315D01*
G37*
G36*
X27511474Y-118251546D02*
G01*
X27523243Y-118260698D01*
X27496113Y-118266907D01*
X27470325Y-118265109D01*
X27462742Y-118253553D01*
X27471737Y-118248515D01*
X27511474Y-118251546D01*
G37*
G36*
X20014695Y-198751073D02*
G01*
X20056328Y-198789875D01*
X20066853Y-198825247D01*
X20059940Y-198884674D01*
X20029104Y-198974209D01*
X20021901Y-198993151D01*
X19996905Y-199062239D01*
X19959108Y-199168979D01*
X19910478Y-199307659D01*
X19852981Y-199472566D01*
X19788584Y-199657990D01*
X19719255Y-199858217D01*
X19646962Y-200067536D01*
X19573670Y-200280235D01*
X19501347Y-200490602D01*
X19431961Y-200692925D01*
X19367478Y-200881491D01*
X19309866Y-201050589D01*
X19261092Y-201194507D01*
X19223123Y-201307533D01*
X19197926Y-201383955D01*
X19187468Y-201418061D01*
X19192752Y-201431732D01*
X19228376Y-201477223D01*
X19292052Y-201545774D01*
X19377557Y-201630810D01*
X19478667Y-201725754D01*
X19580352Y-201820423D01*
X19681432Y-201921089D01*
X19749373Y-201999971D01*
X19788102Y-202062482D01*
X19801546Y-202114036D01*
X19793630Y-202160049D01*
X19768386Y-202192305D01*
X19718601Y-202192733D01*
X19651602Y-202150608D01*
X19570828Y-202067359D01*
X19558442Y-202053108D01*
X19496407Y-201987625D01*
X19406205Y-201897693D01*
X19295264Y-201790521D01*
X19171014Y-201673312D01*
X19040883Y-201553275D01*
X18620521Y-201170077D01*
X18613627Y-201671448D01*
X18606733Y-202172818D01*
X17590791Y-202172818D01*
X17590791Y-198765811D01*
X18607808Y-198765811D01*
X18608176Y-200939685D01*
X18814547Y-201125953D01*
X18879912Y-201183080D01*
X18959078Y-201246075D01*
X19015902Y-201283260D01*
X19043457Y-201289682D01*
X19045507Y-201286213D01*
X19062278Y-201244878D01*
X19093070Y-201161316D01*
X19136273Y-201040147D01*
X19190275Y-200885992D01*
X19253465Y-200703475D01*
X19324230Y-200497214D01*
X19400960Y-200271834D01*
X19482042Y-200031954D01*
X19506400Y-199959675D01*
X19586234Y-199723365D01*
X19661057Y-199502739D01*
X19729276Y-199302444D01*
X19789297Y-199127128D01*
X19839525Y-198981436D01*
X19878366Y-198870015D01*
X19904225Y-198797512D01*
X19915510Y-198768575D01*
X19917946Y-198764967D01*
X19960981Y-198741623D01*
X20014695Y-198751073D01*
G37*
G36*
X25345546Y-151461807D02*
G01*
X25332833Y-151474520D01*
X25320120Y-151461807D01*
X25332833Y-151449095D01*
X25345546Y-151461807D01*
G37*
G36*
X26277811Y-151050763D02*
G01*
X26281789Y-151058411D01*
X26260861Y-151067713D01*
X26247401Y-151065878D01*
X26243911Y-151050763D01*
X26247637Y-151047720D01*
X26277811Y-151050763D01*
G37*
G36*
X25879480Y-151207553D02*
G01*
X25866767Y-151220266D01*
X25854054Y-151207553D01*
X25866767Y-151194840D01*
X25879480Y-151207553D01*
G37*
G36*
X22740909Y-161493282D02*
G01*
X22764865Y-161517563D01*
X22769601Y-161526565D01*
X22767866Y-161542989D01*
X22763396Y-161541845D01*
X22739440Y-161517563D01*
X22734704Y-161508561D01*
X22736439Y-161492138D01*
X22740909Y-161493282D01*
G37*
G36*
X35261462Y-155440886D02*
G01*
X35259627Y-155454347D01*
X35244511Y-155457837D01*
X35241468Y-155454110D01*
X35244511Y-155423936D01*
X35252159Y-155419958D01*
X35261462Y-155440886D01*
G37*
G36*
X28045408Y-48763858D02*
G01*
X28057177Y-48773010D01*
X28030047Y-48779220D01*
X28004259Y-48777422D01*
X27996676Y-48765866D01*
X28005671Y-48760827D01*
X28045408Y-48763858D01*
G37*
G36*
X24952654Y-203631684D02*
G01*
X24969253Y-203669941D01*
X25001843Y-203748628D01*
X25048423Y-203862805D01*
X25106990Y-204007532D01*
X25175543Y-204177867D01*
X25252079Y-204368869D01*
X25334596Y-204575598D01*
X25366235Y-204654900D01*
X25447171Y-204856737D01*
X25521727Y-205041214D01*
X25587848Y-205203342D01*
X25643482Y-205338133D01*
X25686576Y-205440601D01*
X25715075Y-205505756D01*
X25726927Y-205528612D01*
X25731188Y-205519820D01*
X25747710Y-205469271D01*
X25774621Y-205378863D01*
X25810274Y-205254382D01*
X25853021Y-205101612D01*
X25901213Y-204926338D01*
X25953203Y-204734346D01*
X25979968Y-204634862D01*
X26032417Y-204440386D01*
X26081236Y-204259969D01*
X26124519Y-204100620D01*
X26160360Y-203969354D01*
X26186851Y-203873182D01*
X26202086Y-203819115D01*
X26237406Y-203698344D01*
X26773320Y-203698344D01*
X26846198Y-203698373D01*
X27006788Y-203698900D01*
X27125026Y-203700495D01*
X27207083Y-203703682D01*
X27259127Y-203708985D01*
X27287329Y-203716930D01*
X27297858Y-203728039D01*
X27296885Y-203742838D01*
X27291179Y-203762754D01*
X27272094Y-203828846D01*
X27240893Y-203936679D01*
X27198739Y-204082243D01*
X27146795Y-204261527D01*
X27086221Y-204470521D01*
X27018182Y-204705213D01*
X26943839Y-204961592D01*
X26864354Y-205235649D01*
X26780889Y-205523373D01*
X26760329Y-205594239D01*
X26666497Y-205917440D01*
X26585546Y-206195605D01*
X26516439Y-206431907D01*
X26458144Y-206629519D01*
X26409625Y-206791617D01*
X26369848Y-206921374D01*
X26337777Y-207021964D01*
X26312380Y-207096561D01*
X26292620Y-207148338D01*
X26277463Y-207180471D01*
X26265875Y-207196131D01*
X26256821Y-207198495D01*
X26249267Y-207190735D01*
X26242177Y-207176025D01*
X26240356Y-207171691D01*
X26219507Y-207121980D01*
X26181825Y-207032065D01*
X26129679Y-206907599D01*
X26065436Y-206754237D01*
X25991466Y-206577634D01*
X25910138Y-206383445D01*
X25823820Y-206177323D01*
X25803156Y-206128010D01*
X25719015Y-205927925D01*
X25641073Y-205743687D01*
X25571555Y-205580479D01*
X25512685Y-205443483D01*
X25466688Y-205337883D01*
X25435787Y-205268861D01*
X25422209Y-205241600D01*
X25418956Y-205243453D01*
X25397615Y-205279521D01*
X25358563Y-205357872D01*
X25303258Y-205475245D01*
X25233162Y-205628375D01*
X25149736Y-205813999D01*
X25054439Y-206028853D01*
X24948731Y-206269674D01*
X24834074Y-206533199D01*
X24711928Y-206816164D01*
X24583752Y-207115306D01*
X24561783Y-207163996D01*
X24535155Y-207214287D01*
X24520703Y-207229720D01*
X24520688Y-207229704D01*
X24512155Y-207203717D01*
X24491228Y-207133036D01*
X24459118Y-207021925D01*
X24417033Y-206874649D01*
X24366186Y-206695475D01*
X24307786Y-206488666D01*
X24243045Y-206258489D01*
X24173171Y-206009209D01*
X24099377Y-205745091D01*
X24033874Y-205511330D01*
X23958920Y-205246373D01*
X23886929Y-204994491D01*
X23819405Y-204760820D01*
X23757854Y-204550496D01*
X23703779Y-204368655D01*
X23658685Y-204220434D01*
X23624076Y-204110967D01*
X23601458Y-204045392D01*
X23568258Y-203955771D01*
X23531645Y-203838769D01*
X23517941Y-203757661D01*
X23526459Y-203706862D01*
X23556509Y-203680787D01*
X23556814Y-203680670D01*
X23584631Y-203673234D01*
X23610223Y-203676010D01*
X23635088Y-203692900D01*
X23660720Y-203727807D01*
X23688616Y-203784631D01*
X23720272Y-203867275D01*
X23757183Y-203979640D01*
X23800847Y-204125628D01*
X23852758Y-204309142D01*
X23914413Y-204534082D01*
X23987308Y-204804350D01*
X24004981Y-204870040D01*
X24045655Y-205020260D01*
X24081156Y-205150046D01*
X24109502Y-205252222D01*
X24128709Y-205319615D01*
X24136792Y-205345049D01*
X24137033Y-205344984D01*
X24150757Y-205320111D01*
X24183324Y-205254635D01*
X24232337Y-205153559D01*
X24295399Y-205021884D01*
X24370114Y-204864614D01*
X24454083Y-204686751D01*
X24544911Y-204493298D01*
X24553197Y-204475604D01*
X24643558Y-204282714D01*
X24726730Y-204105301D01*
X24800317Y-203948462D01*
X24861927Y-203817293D01*
X24909166Y-203716892D01*
X24939639Y-203652356D01*
X24950953Y-203628780D01*
X24952654Y-203631684D01*
G37*
G36*
X35261462Y-159864911D02*
G01*
X35259627Y-159878371D01*
X35244511Y-159881861D01*
X35241468Y-159878134D01*
X35244511Y-159847960D01*
X35252159Y-159843983D01*
X35261462Y-159864911D01*
G37*
G36*
X35460851Y-156203649D02*
G01*
X35457306Y-156238625D01*
X35448026Y-156235431D01*
X35444668Y-156223922D01*
X35448026Y-156171867D01*
X35456855Y-156167555D01*
X35460851Y-156203649D01*
G37*
G36*
X30266835Y-98590779D02*
G01*
X30290791Y-98615061D01*
X30295527Y-98624063D01*
X30293792Y-98640486D01*
X30289322Y-98639342D01*
X30265366Y-98615061D01*
X30260630Y-98606059D01*
X30262364Y-98589635D01*
X30266835Y-98590779D01*
G37*
G36*
X17107708Y-196680927D02*
G01*
X17107708Y-194697743D01*
X28445868Y-194697743D01*
X29056027Y-194697743D01*
X29063199Y-193275761D01*
X29064349Y-193051203D01*
X29065871Y-192780493D01*
X29067457Y-192553531D01*
X29069275Y-192366190D01*
X29071490Y-192214342D01*
X29074270Y-192093860D01*
X29077782Y-192000616D01*
X29082193Y-191930483D01*
X29087669Y-191879333D01*
X29094376Y-191843039D01*
X29102483Y-191817473D01*
X29112155Y-191798509D01*
X29123559Y-191782017D01*
X29140077Y-191760536D01*
X29241627Y-191662530D01*
X29355988Y-191610709D01*
X29491045Y-191601194D01*
X29518881Y-191603639D01*
X29644814Y-191633650D01*
X29740763Y-191697551D01*
X29818700Y-191802707D01*
X29825243Y-191814513D01*
X29835591Y-191836353D01*
X29844260Y-191862602D01*
X29851398Y-191897483D01*
X29857154Y-191945218D01*
X29861676Y-192010028D01*
X29865114Y-192096135D01*
X29867614Y-192207761D01*
X29869327Y-192349129D01*
X29870401Y-192524460D01*
X29870983Y-192737976D01*
X29871224Y-192993899D01*
X29871271Y-193296450D01*
X29871271Y-194697743D01*
X32642643Y-194697743D01*
X32642643Y-194087533D01*
X31956156Y-194087533D01*
X31956156Y-190960206D01*
X31345946Y-190960206D01*
X31345946Y-194087533D01*
X30659460Y-194087533D01*
X30659460Y-194697743D01*
X30483049Y-194697743D01*
X30468769Y-191735681D01*
X30389712Y-191568846D01*
X30363290Y-191516886D01*
X30239937Y-191337289D01*
X30085691Y-191188894D01*
X29907763Y-191075579D01*
X29713360Y-191001220D01*
X29509693Y-190969695D01*
X29303970Y-190984882D01*
X29107428Y-191045755D01*
X28919531Y-191147218D01*
X28752399Y-191280978D01*
X28615805Y-191439195D01*
X28519523Y-191614031D01*
X28460160Y-191761107D01*
X28455132Y-192794232D01*
X28445868Y-194697743D01*
X17107708Y-194697743D01*
X17107708Y-192792014D01*
X24561115Y-192792014D01*
X24565340Y-193017756D01*
X24592670Y-193220864D01*
X24626300Y-193343757D01*
X24693574Y-193521349D01*
X24779579Y-193703352D01*
X24875514Y-193871539D01*
X24972579Y-194007684D01*
X25084691Y-194130607D01*
X25315317Y-194327948D01*
X25577153Y-194491161D01*
X25861937Y-194614608D01*
X25876280Y-194619512D01*
X25975483Y-194648713D01*
X26076625Y-194668036D01*
X26195987Y-194679887D01*
X26349850Y-194686670D01*
X26382296Y-194687541D01*
X26539309Y-194688985D01*
X26664360Y-194683035D01*
X26773282Y-194667598D01*
X26881911Y-194640580D01*
X27006082Y-194599887D01*
X27107644Y-194560409D01*
X27364174Y-194425486D01*
X27600138Y-194250805D01*
X27809590Y-194042815D01*
X27986584Y-193807967D01*
X28125176Y-193552711D01*
X28219420Y-193283499D01*
X28237007Y-193203053D01*
X28262157Y-193005650D01*
X28269196Y-192794232D01*
X28257920Y-192589232D01*
X28228125Y-192411079D01*
X28146527Y-192161522D01*
X28012087Y-191895249D01*
X27838135Y-191652723D01*
X27629592Y-191438898D01*
X27391382Y-191258730D01*
X27128425Y-191117176D01*
X26845646Y-191019190D01*
X26841843Y-191018227D01*
X26687712Y-190991558D01*
X26505235Y-190978449D01*
X26313757Y-190978876D01*
X26132624Y-190992814D01*
X25981181Y-191020241D01*
X25882857Y-191048909D01*
X25601324Y-191164691D01*
X25343298Y-191321794D01*
X25113490Y-191515810D01*
X24916607Y-191742332D01*
X24757361Y-191996950D01*
X24640459Y-192275258D01*
X24617873Y-192353891D01*
X24578969Y-192563953D01*
X24561115Y-192792014D01*
X17107708Y-192792014D01*
X17107708Y-182890738D01*
X21614472Y-182890738D01*
X21654660Y-183484604D01*
X21744032Y-184066754D01*
X21882271Y-184635952D01*
X22069060Y-185190964D01*
X22304081Y-185730552D01*
X22587018Y-186253481D01*
X22844733Y-186654655D01*
X23201985Y-187128621D01*
X23594082Y-187567194D01*
X24018773Y-187968894D01*
X24473804Y-188332239D01*
X24956924Y-188655750D01*
X25465879Y-188937945D01*
X25998418Y-189177345D01*
X26552287Y-189372468D01*
X27125234Y-189521834D01*
X27715006Y-189623963D01*
X27799969Y-189633987D01*
X28010808Y-189652400D01*
X28246021Y-189665954D01*
X28490658Y-189674233D01*
X28729770Y-189676823D01*
X28948405Y-189673309D01*
X29131614Y-189663275D01*
X29133604Y-189663109D01*
X29735174Y-189587679D01*
X30321877Y-189463991D01*
X30891998Y-189292722D01*
X31443820Y-189074551D01*
X31975630Y-188810155D01*
X32485712Y-188500211D01*
X32972351Y-188145399D01*
X32979957Y-188139331D01*
X33129101Y-188013150D01*
X33297876Y-187859108D01*
X33476405Y-187687156D01*
X33654806Y-187507246D01*
X33823200Y-187329326D01*
X33971707Y-187163349D01*
X34090449Y-187019265D01*
X34268899Y-186779860D01*
X34601925Y-186273797D01*
X34886358Y-185752854D01*
X35122322Y-185216692D01*
X35309939Y-184664971D01*
X35449333Y-184097352D01*
X35540629Y-183513494D01*
X35583949Y-182913059D01*
X35588476Y-182612611D01*
X35575616Y-182207687D01*
X35538657Y-181813950D01*
X35476127Y-181410883D01*
X35406585Y-181077001D01*
X35250088Y-180515755D01*
X35049230Y-179975232D01*
X34806122Y-179457398D01*
X34522880Y-178964216D01*
X34201616Y-178497652D01*
X33844444Y-178059670D01*
X33453477Y-177652235D01*
X33030829Y-177277311D01*
X32578614Y-176936864D01*
X32098944Y-176632857D01*
X31593935Y-176367256D01*
X31065698Y-176142024D01*
X30516348Y-175959128D01*
X29947999Y-175820530D01*
X29362763Y-175728197D01*
X29263039Y-175718783D01*
X29079562Y-175707991D01*
X28867364Y-175701222D01*
X28639636Y-175698479D01*
X28409569Y-175699766D01*
X28190353Y-175705085D01*
X27995179Y-175714440D01*
X27837237Y-175727834D01*
X27267302Y-175816824D01*
X26695882Y-175955179D01*
X26139773Y-176139691D01*
X25602120Y-176368702D01*
X25086068Y-176640549D01*
X24594762Y-176953574D01*
X24131346Y-177306114D01*
X23698966Y-177696511D01*
X23300765Y-178123103D01*
X23299369Y-178124735D01*
X22924730Y-178600505D01*
X22596269Y-179097378D01*
X22314351Y-179614409D01*
X22079345Y-180150651D01*
X21891617Y-180705158D01*
X21751534Y-181276982D01*
X21659463Y-181865177D01*
X21615771Y-182468797D01*
X21614472Y-182890738D01*
X17107708Y-182890738D01*
X17107708Y-171687733D01*
X40092292Y-171687733D01*
X40092292Y-196680927D01*
X17107708Y-196680927D01*
G37*
G36*
X26258591Y-118778626D02*
G01*
X26206985Y-118818048D01*
X26113145Y-118885460D01*
X25977118Y-118980826D01*
X25907076Y-119032109D01*
X25755795Y-119155206D01*
X25591002Y-119302179D01*
X25423679Y-119462347D01*
X25264808Y-119625029D01*
X25125371Y-119779544D01*
X25016350Y-119915211D01*
X24958231Y-119992598D01*
X24908366Y-120055513D01*
X24875669Y-120093040D01*
X24863717Y-120101541D01*
X24876088Y-120077377D01*
X24916358Y-120016913D01*
X24972081Y-119939613D01*
X25145815Y-119724974D01*
X25347208Y-119506680D01*
X25565927Y-119294428D01*
X25791641Y-119097916D01*
X26014017Y-118926839D01*
X26222723Y-118790896D01*
X26234923Y-118783892D01*
X26267919Y-118767229D01*
X26258591Y-118778626D01*
G37*
G36*
X32606938Y-124680947D02*
G01*
X32594699Y-124717376D01*
X32566367Y-124777823D01*
X32550769Y-124807322D01*
X32519843Y-124859050D01*
X32501770Y-124879525D01*
X32500370Y-124874700D01*
X32512609Y-124838271D01*
X32540941Y-124777823D01*
X32556539Y-124748325D01*
X32587465Y-124696597D01*
X32605538Y-124676122D01*
X32606938Y-124680947D01*
G37*
G36*
X31574775Y-151309255D02*
G01*
X31562062Y-151321968D01*
X31549350Y-151309255D01*
X31562062Y-151296542D01*
X31574775Y-151309255D01*
G37*
G36*
X29445099Y-150693775D02*
G01*
X29457610Y-150697100D01*
X29450140Y-150702842D01*
X29400901Y-150705345D01*
X29373966Y-150705017D01*
X29337454Y-150701161D01*
X29343397Y-150694288D01*
X29378850Y-150689681D01*
X29445099Y-150693775D01*
G37*
G36*
X30562525Y-150923218D02*
G01*
X30574294Y-150932370D01*
X30547164Y-150938579D01*
X30521376Y-150936781D01*
X30513793Y-150925225D01*
X30522788Y-150920187D01*
X30562525Y-150923218D01*
G37*
G36*
X27647453Y-101459082D02*
G01*
X27699586Y-101482146D01*
X27751283Y-101508421D01*
X27784268Y-101529505D01*
X27785007Y-101530212D01*
X27776649Y-101538985D01*
X27770519Y-101538187D01*
X27729300Y-101522715D01*
X27675340Y-101495555D01*
X27628442Y-101467338D01*
X27608409Y-101448690D01*
X27613163Y-101447627D01*
X27647453Y-101459082D01*
G37*
G36*
X26665661Y-100176606D02*
G01*
X26663863Y-100202394D01*
X26652307Y-100209976D01*
X26647268Y-100200981D01*
X26650299Y-100161244D01*
X26659451Y-100149476D01*
X26665661Y-100176606D01*
G37*
G36*
X27282128Y-126920812D02*
G01*
X27341442Y-126938985D01*
X27368313Y-126954316D01*
X27354154Y-126960836D01*
X27324479Y-126957157D01*
X27265165Y-126938985D01*
X27238294Y-126923653D01*
X27252453Y-126917133D01*
X27282128Y-126920812D01*
G37*
G36*
X26637286Y-51031377D02*
G01*
X26637321Y-51037398D01*
X26633912Y-51077201D01*
X26625565Y-51076355D01*
X26620901Y-51055464D01*
X26624623Y-51000079D01*
X26625881Y-50995708D01*
X26633620Y-50991943D01*
X26637286Y-51031377D01*
G37*
G36*
X28720771Y-150642218D02*
G01*
X28746776Y-150645294D01*
X28738760Y-150648628D01*
X28688264Y-150650901D01*
X28600000Y-150651741D01*
X28528473Y-150651228D01*
X28469067Y-150649245D01*
X28451081Y-150646118D01*
X28479229Y-150642218D01*
X28502092Y-150640706D01*
X28614153Y-150638335D01*
X28720771Y-150642218D01*
G37*
G36*
X27116850Y-126871183D02*
G01*
X27120828Y-126878831D01*
X27099900Y-126888134D01*
X27086440Y-126886299D01*
X27082950Y-126871183D01*
X27086676Y-126868141D01*
X27116850Y-126871183D01*
G37*
G36*
X27841737Y-101542895D02*
G01*
X27888088Y-101564410D01*
X27905349Y-101578565D01*
X27900801Y-101589057D01*
X27883588Y-101585925D01*
X27837237Y-101564410D01*
X27819977Y-101550255D01*
X27824525Y-101539763D01*
X27841737Y-101542895D01*
G37*
G36*
X28147274Y-97755621D02*
G01*
X28155661Y-97761432D01*
X28116917Y-97776022D01*
X28057844Y-97791559D01*
X28015756Y-97796902D01*
X28002257Y-97791723D01*
X28027928Y-97776022D01*
X28062847Y-97764507D01*
X28129630Y-97754918D01*
X28147274Y-97755621D01*
G37*
G36*
X38057951Y-206045590D02*
G01*
X37962771Y-206308127D01*
X37833748Y-206541272D01*
X37672990Y-206741864D01*
X37482603Y-206906742D01*
X37264693Y-207032747D01*
X37021368Y-207116718D01*
X36776577Y-207153322D01*
X36526827Y-207144306D01*
X36286583Y-207089976D01*
X36060116Y-206993150D01*
X35851697Y-206856648D01*
X35665597Y-206683286D01*
X35506086Y-206475884D01*
X35377437Y-206237259D01*
X35283919Y-205970230D01*
X35268327Y-205903137D01*
X35240463Y-205709760D01*
X35228194Y-205492989D01*
X35231505Y-205270654D01*
X35250382Y-205060589D01*
X35284809Y-204880626D01*
X35309414Y-204798436D01*
X36486285Y-204798436D01*
X36486836Y-205083489D01*
X36488040Y-205416184D01*
X36494595Y-206965511D01*
X36710711Y-206970634D01*
X36724272Y-206970892D01*
X36843413Y-206968370D01*
X36951428Y-206958513D01*
X37028529Y-206943041D01*
X37175023Y-206885523D01*
X37387513Y-206758999D01*
X37573103Y-206591976D01*
X37729114Y-206387574D01*
X37852868Y-206148915D01*
X37941688Y-205879118D01*
X37947982Y-205851894D01*
X37973361Y-205680975D01*
X37984336Y-205483093D01*
X37981078Y-205276593D01*
X37963762Y-205079821D01*
X37932559Y-204911125D01*
X37857894Y-204684611D01*
X37738485Y-204448945D01*
X37587042Y-204245122D01*
X37407192Y-204077115D01*
X37202565Y-203948899D01*
X36976789Y-203864446D01*
X36882101Y-203844935D01*
X36767280Y-203831120D01*
X36657687Y-203826403D01*
X36568142Y-203831357D01*
X36513465Y-203846553D01*
X36511603Y-203848363D01*
X36505063Y-203867706D01*
X36499591Y-203909041D01*
X36495136Y-203975575D01*
X36491645Y-204070514D01*
X36489066Y-204197063D01*
X36487348Y-204358429D01*
X36486438Y-204557818D01*
X36486285Y-204798436D01*
X35309414Y-204798436D01*
X35323712Y-204750677D01*
X35435349Y-204482078D01*
X35579396Y-204243696D01*
X35752394Y-204040736D01*
X35950884Y-203878400D01*
X36008715Y-203842135D01*
X36230652Y-203739641D01*
X36468934Y-203680392D01*
X36715397Y-203664400D01*
X36961882Y-203691678D01*
X37200227Y-203762239D01*
X37422270Y-203876096D01*
X37535806Y-203961574D01*
X37675079Y-204096370D01*
X37801667Y-204249474D01*
X37900498Y-204404241D01*
X37939335Y-204480132D01*
X38031894Y-204699947D01*
X38093777Y-204924038D01*
X38128199Y-205166413D01*
X38138373Y-205441078D01*
X38138359Y-205444977D01*
X38135771Y-205483093D01*
X38117183Y-205756819D01*
X38057951Y-206045590D01*
G37*
G36*
X35176355Y-160076957D02*
G01*
X35173512Y-160109615D01*
X35156935Y-160167191D01*
X35153422Y-160176988D01*
X35132388Y-160224781D01*
X35118567Y-160239000D01*
X35117739Y-160237649D01*
X35120582Y-160204991D01*
X35137160Y-160147415D01*
X35140672Y-160137618D01*
X35161706Y-160089825D01*
X35175527Y-160075606D01*
X35176355Y-160076957D01*
G37*
G36*
X32933415Y-200871446D02*
G01*
X32900351Y-201039912D01*
X32828093Y-201258963D01*
X32705743Y-201512179D01*
X32552959Y-201730012D01*
X32372328Y-201909990D01*
X32166432Y-202049641D01*
X31937858Y-202146495D01*
X31689189Y-202198078D01*
X31488689Y-202206682D01*
X31227946Y-202176400D01*
X30982938Y-202100064D01*
X30821977Y-202014233D01*
X31294707Y-202014233D01*
X31352108Y-202029615D01*
X31375063Y-202034124D01*
X31449397Y-202041208D01*
X31536637Y-202043182D01*
X31557894Y-202042690D01*
X31793682Y-202010860D01*
X32013546Y-201932847D01*
X32214262Y-201811527D01*
X32392605Y-201649777D01*
X32545350Y-201450474D01*
X32669275Y-201216494D01*
X32761154Y-200950713D01*
X32784546Y-200829098D01*
X32800716Y-200662052D01*
X32806608Y-200477393D01*
X32802200Y-200291971D01*
X32787469Y-200122634D01*
X32762395Y-199986232D01*
X32691783Y-199770498D01*
X32570430Y-199523487D01*
X32416192Y-199311509D01*
X32231169Y-199137336D01*
X32017464Y-199003743D01*
X31998331Y-198994308D01*
X31909449Y-198952445D01*
X31838782Y-198926378D01*
X31769063Y-198912377D01*
X31683029Y-198906711D01*
X31563416Y-198905651D01*
X31307808Y-198905651D01*
X31301257Y-200459942D01*
X31294707Y-202014233D01*
X30821977Y-202014233D01*
X30757814Y-201980019D01*
X30556725Y-201818611D01*
X30383822Y-201618185D01*
X30243255Y-201381085D01*
X30170819Y-201217144D01*
X30108482Y-201029198D01*
X30070532Y-200837253D01*
X30054215Y-200626566D01*
X30056779Y-200382396D01*
X30057454Y-200366654D01*
X30070945Y-200164184D01*
X30094136Y-199995139D01*
X30130836Y-199843522D01*
X30184851Y-199693334D01*
X30259989Y-199528574D01*
X30282332Y-199485117D01*
X30402811Y-199296763D01*
X30550236Y-199123748D01*
X30713544Y-198977781D01*
X30881671Y-198870571D01*
X30945772Y-198840125D01*
X31192439Y-198754992D01*
X31438534Y-198717901D01*
X31680012Y-198726785D01*
X31912828Y-198779577D01*
X32132939Y-198874210D01*
X32336300Y-199008618D01*
X32518867Y-199180735D01*
X32676596Y-199388492D01*
X32805441Y-199629825D01*
X32901360Y-199902666D01*
X32930375Y-200044535D01*
X32951459Y-200240906D01*
X32958984Y-200455287D01*
X32958367Y-200477393D01*
X32952965Y-200671019D01*
X32933415Y-200871446D01*
G37*
G36*
X27002966Y-164474969D02*
G01*
X27014734Y-164484121D01*
X26987604Y-164490331D01*
X26961816Y-164488533D01*
X26954234Y-164476977D01*
X26963229Y-164471938D01*
X27002966Y-164474969D01*
G37*
G36*
X27822141Y-48843110D02*
G01*
X27779124Y-48870217D01*
X27710110Y-48908354D01*
X27655976Y-48936932D01*
X27597959Y-48966985D01*
X27568866Y-48980117D01*
X27558723Y-48980509D01*
X27557558Y-48972346D01*
X27566198Y-48963322D01*
X27608141Y-48937007D01*
X27671068Y-48902897D01*
X27739408Y-48868940D01*
X27797588Y-48843084D01*
X27830036Y-48833277D01*
X27822141Y-48843110D01*
G37*
G36*
X35437432Y-159239869D02*
G01*
X35435635Y-159265657D01*
X35424078Y-159273240D01*
X35419040Y-159264244D01*
X35422071Y-159224508D01*
X35431223Y-159212739D01*
X35437432Y-159239869D01*
G37*
G36*
X34798490Y-203686422D02*
G01*
X34857214Y-203734128D01*
X34880080Y-203799142D01*
X34862969Y-203845192D01*
X34810374Y-203863094D01*
X34727606Y-203847114D01*
X34614457Y-203830009D01*
X34495286Y-203858908D01*
X34379836Y-203933864D01*
X34270909Y-204052421D01*
X34171311Y-204212125D01*
X34083844Y-204410523D01*
X34053716Y-204493428D01*
X34018769Y-204599150D01*
X34002533Y-204667547D01*
X34003831Y-204704373D01*
X34021488Y-204715381D01*
X34056375Y-204724562D01*
X34123431Y-204750790D01*
X34206306Y-204788088D01*
X34270015Y-204821367D01*
X34446482Y-204949211D01*
X34592780Y-205110516D01*
X34707308Y-205298528D01*
X34788465Y-205506490D01*
X34834653Y-205727649D01*
X34844270Y-205955249D01*
X34815716Y-206182535D01*
X34747392Y-206402753D01*
X34637697Y-206609147D01*
X34611578Y-206646553D01*
X34461198Y-206809778D01*
X34276026Y-206940013D01*
X34061967Y-207033784D01*
X33824925Y-207087615D01*
X33823898Y-207087744D01*
X33776703Y-207090543D01*
X33686430Y-207093318D01*
X33560507Y-207095938D01*
X33406359Y-207098270D01*
X33231412Y-207100182D01*
X33043093Y-207101541D01*
X32337538Y-207105351D01*
X32337538Y-203698344D01*
X33354555Y-203698344D01*
X33354555Y-206952798D01*
X33500751Y-206952606D01*
X33550701Y-206951935D01*
X33816847Y-206925585D01*
X34051685Y-206862245D01*
X34253289Y-206763759D01*
X34419733Y-206631970D01*
X34549093Y-206468721D01*
X34639444Y-206275857D01*
X34688860Y-206055220D01*
X34695416Y-205808654D01*
X34691924Y-205762781D01*
X34649353Y-205530861D01*
X34568204Y-205324602D01*
X34450822Y-205148744D01*
X34299552Y-205008029D01*
X34169752Y-204930791D01*
X33996305Y-204875201D01*
X33799500Y-204861106D01*
X33728224Y-204862239D01*
X33640200Y-204857967D01*
X33588496Y-204842727D01*
X33564089Y-204812929D01*
X33557958Y-204764983D01*
X33557998Y-204759692D01*
X33565279Y-204715300D01*
X33592334Y-204687558D01*
X33649519Y-204670652D01*
X33747191Y-204658769D01*
X33751876Y-204658305D01*
X33785865Y-204650919D01*
X33813123Y-204631141D01*
X33839566Y-204590082D01*
X33871108Y-204518853D01*
X33913664Y-204408563D01*
X33986825Y-204227463D01*
X34061546Y-204074582D01*
X34138141Y-203953634D01*
X34221849Y-203855213D01*
X34277945Y-203803196D01*
X34408763Y-203719101D01*
X34556469Y-203675781D01*
X34732068Y-203669223D01*
X34798490Y-203686422D01*
G37*
G36*
X30481482Y-100420266D02*
G01*
X30479647Y-100433726D01*
X30464531Y-100437216D01*
X30461488Y-100433490D01*
X30464531Y-100403316D01*
X30472179Y-100399338D01*
X30481482Y-100420266D01*
G37*
G36*
X35312313Y-159712358D02*
G01*
X35310478Y-159725818D01*
X35295362Y-159729308D01*
X35292319Y-159725582D01*
X35295362Y-159695408D01*
X35303010Y-159691430D01*
X35312313Y-159712358D01*
G37*
G36*
X29176310Y-52603516D02*
G01*
X29180288Y-52611163D01*
X29159360Y-52620466D01*
X29145899Y-52618631D01*
X29142409Y-52603516D01*
X29146136Y-52600473D01*
X29176310Y-52603516D01*
G37*
G36*
X35583084Y-157013122D02*
G01*
X35585067Y-157068114D01*
X35584326Y-157105426D01*
X35580336Y-157137370D01*
X35574049Y-157125321D01*
X35569842Y-157084996D01*
X35574049Y-157010907D01*
X35578013Y-156998027D01*
X35583084Y-157013122D01*
G37*
G36*
X26888817Y-100736727D02*
G01*
X26924433Y-100780944D01*
X26982515Y-100862538D01*
X26985702Y-100867135D01*
X27086643Y-100994176D01*
X27213219Y-101127752D01*
X27348342Y-101251046D01*
X27474925Y-101347236D01*
X27514297Y-101373988D01*
X27563682Y-101410512D01*
X27582983Y-101429386D01*
X27566779Y-101434837D01*
X27522109Y-101409372D01*
X27455424Y-101358869D01*
X27373175Y-101289322D01*
X27281814Y-101206726D01*
X27187793Y-101117076D01*
X27097562Y-101026368D01*
X27017573Y-100940597D01*
X26954278Y-100865757D01*
X26914128Y-100807845D01*
X26891580Y-100765706D01*
X26877316Y-100731208D01*
X26888817Y-100736727D01*
G37*
G36*
X26604538Y-99553659D02*
G01*
X26606700Y-99605423D01*
X26607531Y-99695641D01*
X26606972Y-99776893D01*
X26605008Y-99837275D01*
X26601958Y-99856602D01*
X26598163Y-99829977D01*
X26595992Y-99793543D01*
X26594310Y-99682849D01*
X26598043Y-99575723D01*
X26601384Y-99544648D01*
X26604538Y-99553659D01*
G37*
G36*
X34592859Y-161297386D02*
G01*
X34569464Y-161339585D01*
X34540635Y-161389808D01*
X34514430Y-161434931D01*
X34505424Y-161448295D01*
X34483591Y-161466712D01*
X34480110Y-161463285D01*
X34490658Y-161432907D01*
X34521008Y-161382700D01*
X34563082Y-161326872D01*
X34589318Y-161296343D01*
X34592859Y-161297386D01*
G37*
G36*
X26571890Y-191604402D02*
G01*
X26800623Y-191655240D01*
X27010975Y-191747381D01*
X27198932Y-191875735D01*
X27360481Y-192035215D01*
X27491610Y-192220730D01*
X27588305Y-192427192D01*
X27646555Y-192649512D01*
X27662346Y-192882600D01*
X27631665Y-193121367D01*
X27566203Y-193315604D01*
X27452456Y-193516775D01*
X27302010Y-193697685D01*
X27122057Y-193851169D01*
X26919789Y-193970061D01*
X26702397Y-194047197D01*
X26701328Y-194047455D01*
X26457948Y-194081029D01*
X26218329Y-194064946D01*
X25986738Y-194000394D01*
X25767437Y-193888558D01*
X25564693Y-193730627D01*
X25499462Y-193665107D01*
X25352216Y-193471891D01*
X25248059Y-193260621D01*
X25187101Y-193037553D01*
X25169450Y-192808945D01*
X25195215Y-192581056D01*
X25264504Y-192360144D01*
X25377425Y-192152465D01*
X25534087Y-191964278D01*
X25543220Y-191955327D01*
X25738738Y-191795286D01*
X25948520Y-191683254D01*
X26177044Y-191617387D01*
X26428790Y-191595841D01*
X26571890Y-191604402D01*
G37*
G36*
X24989590Y-163653299D02*
G01*
X25020950Y-163672806D01*
X25040441Y-163693226D01*
X25028901Y-163695091D01*
X24989590Y-163678724D01*
X24958229Y-163659217D01*
X24938739Y-163638797D01*
X24950279Y-163636932D01*
X24989590Y-163653299D01*
G37*
G36*
X30854388Y-164297410D02*
G01*
X30858366Y-164305057D01*
X30837438Y-164314360D01*
X30823977Y-164312525D01*
X30820487Y-164297410D01*
X30824214Y-164294367D01*
X30854388Y-164297410D01*
G37*
G36*
X27538489Y-164577201D02*
G01*
X27542802Y-164586029D01*
X27506707Y-164590025D01*
X27471731Y-164586481D01*
X27474925Y-164577201D01*
X27486434Y-164573843D01*
X27538489Y-164577201D01*
G37*
G36*
X28720771Y-52678054D02*
G01*
X28746776Y-52681130D01*
X28738760Y-52684464D01*
X28688264Y-52686736D01*
X28600000Y-52687577D01*
X28528473Y-52687064D01*
X28469067Y-52685081D01*
X28451081Y-52681954D01*
X28479229Y-52678054D01*
X28502092Y-52676542D01*
X28614153Y-52674171D01*
X28720771Y-52678054D01*
G37*
G36*
X34829229Y-160894640D02*
G01*
X34816517Y-160907353D01*
X34803804Y-160894640D01*
X34816517Y-160881928D01*
X34829229Y-160894640D01*
G37*
G36*
X26582916Y-150949061D02*
G01*
X26586894Y-150956709D01*
X26565966Y-150966012D01*
X26552506Y-150964177D01*
X26549016Y-150949061D01*
X26552742Y-150946018D01*
X26582916Y-150949061D01*
G37*
G36*
X28015215Y-169679125D02*
G01*
X27481281Y-169679125D01*
X27481281Y-165941587D01*
X28015215Y-165941587D01*
X28015215Y-169679125D01*
G37*
G36*
X27258809Y-164526350D02*
G01*
X27263122Y-164535179D01*
X27227027Y-164539174D01*
X27192051Y-164535630D01*
X27195245Y-164526350D01*
X27206754Y-164522992D01*
X27258809Y-164526350D01*
G37*
G36*
X34981782Y-154741687D02*
G01*
X34969069Y-154754400D01*
X34956357Y-154741687D01*
X34969069Y-154728975D01*
X34981782Y-154741687D01*
G37*
G36*
X29087851Y-52628523D02*
G01*
X29099619Y-52637675D01*
X29072489Y-52643884D01*
X29046701Y-52642086D01*
X29039118Y-52630530D01*
X29048114Y-52625492D01*
X29087851Y-52628523D01*
G37*
G36*
X25029225Y-151638383D02*
G01*
X25002677Y-151658991D01*
X24972153Y-151676717D01*
X24964164Y-151666105D01*
X24978032Y-151651692D01*
X25021372Y-151626565D01*
X25052802Y-151611681D01*
X25061982Y-151611012D01*
X25029225Y-151638383D01*
G37*
G36*
X34854655Y-160843789D02*
G01*
X34841942Y-160856502D01*
X34829229Y-160843789D01*
X34841942Y-160831077D01*
X34854655Y-160843789D01*
G37*
G36*
X24277678Y-123849795D02*
G01*
X24289775Y-123884369D01*
X24299529Y-123938784D01*
X24294483Y-123953800D01*
X24277678Y-123926072D01*
X24265581Y-123891498D01*
X24255827Y-123837083D01*
X24260873Y-123822067D01*
X24277678Y-123849795D01*
G37*
G36*
X31824161Y-203689425D02*
G01*
X31850372Y-203710430D01*
X31869697Y-203748446D01*
X31868588Y-203804961D01*
X31846437Y-203889046D01*
X31802633Y-204009777D01*
X31778126Y-204075222D01*
X31737692Y-204187210D01*
X31687358Y-204329539D01*
X31629020Y-204496610D01*
X31564574Y-204682823D01*
X31495918Y-204882581D01*
X31424949Y-205090282D01*
X31353564Y-205300330D01*
X31283659Y-205507124D01*
X31217131Y-205705065D01*
X31155878Y-205888555D01*
X31101796Y-206051994D01*
X31056783Y-206189784D01*
X31022734Y-206296326D01*
X31001548Y-206366019D01*
X30995121Y-206393266D01*
X30999423Y-206399130D01*
X31033663Y-206434475D01*
X31096053Y-206494441D01*
X31179685Y-206572458D01*
X31277648Y-206661954D01*
X31334821Y-206714190D01*
X31455216Y-206829469D01*
X31539546Y-206920420D01*
X31591198Y-206991416D01*
X31613558Y-207046828D01*
X31610013Y-207091028D01*
X31577128Y-207128427D01*
X31522751Y-207127702D01*
X31454629Y-207088184D01*
X31379430Y-207012154D01*
X31372414Y-207003840D01*
X31321232Y-206949043D01*
X31244459Y-206872337D01*
X31148318Y-206779436D01*
X31039034Y-206676058D01*
X30922832Y-206567919D01*
X30805934Y-206460733D01*
X30694565Y-206360219D01*
X30594950Y-206272090D01*
X30513312Y-206202065D01*
X30455876Y-206155857D01*
X30428865Y-206139185D01*
X30421815Y-206158261D01*
X30415014Y-206222233D01*
X30409772Y-206325116D01*
X30406399Y-206460573D01*
X30405205Y-206622268D01*
X30405205Y-207105351D01*
X29388188Y-207105351D01*
X29388188Y-203698344D01*
X30405205Y-203698344D01*
X30405205Y-205873610D01*
X30626447Y-206073654D01*
X30689892Y-206129937D01*
X30779762Y-206203598D01*
X30836098Y-206239635D01*
X30859146Y-206238223D01*
X30866271Y-206217055D01*
X30888640Y-206151244D01*
X30924393Y-206046316D01*
X30971830Y-205907258D01*
X31029247Y-205739056D01*
X31094944Y-205546698D01*
X31167219Y-205335168D01*
X31244369Y-205109455D01*
X31301761Y-204941180D01*
X31377369Y-204718243D01*
X31447558Y-204509882D01*
X31510470Y-204321679D01*
X31564252Y-204159220D01*
X31607046Y-204028088D01*
X31636997Y-203933869D01*
X31652249Y-203882145D01*
X31677655Y-203801760D01*
X31721762Y-203719866D01*
X31771738Y-203681143D01*
X31824161Y-203689425D01*
G37*
G36*
X30040774Y-126896609D02*
G01*
X30044752Y-126904256D01*
X30023824Y-126913559D01*
X30010364Y-126911724D01*
X30006874Y-126896609D01*
X30010600Y-126893566D01*
X30040774Y-126896609D01*
G37*
G36*
X29305556Y-127074011D02*
G01*
X29312770Y-127076388D01*
X29307318Y-127082988D01*
X29261061Y-127085638D01*
X29243811Y-127085392D01*
X29208654Y-127081380D01*
X29216567Y-127074011D01*
X29241071Y-127070057D01*
X29305556Y-127074011D01*
G37*
G36*
X33066325Y-121985621D02*
G01*
X33068976Y-122031877D01*
X33068730Y-122049128D01*
X33064718Y-122084285D01*
X33057349Y-122076372D01*
X33053395Y-122051868D01*
X33057349Y-121987383D01*
X33059726Y-121980169D01*
X33066325Y-121985621D01*
G37*
G36*
X26128660Y-151098418D02*
G01*
X26108308Y-151118564D01*
X26086529Y-151130551D01*
X26044745Y-151143211D01*
X26037107Y-151138711D01*
X26057458Y-151118564D01*
X26079238Y-151106577D01*
X26121021Y-151093917D01*
X26128660Y-151098418D01*
G37*
G36*
X25091275Y-163719244D02*
G01*
X25142142Y-163742288D01*
X25149164Y-163745973D01*
X25198301Y-163775461D01*
X25218419Y-163794445D01*
X25217915Y-163795644D01*
X25193009Y-163790758D01*
X25142142Y-163767713D01*
X25135121Y-163764028D01*
X25085983Y-163734540D01*
X25065866Y-163715557D01*
X25066369Y-163714357D01*
X25091275Y-163719244D01*
G37*
G36*
X35337738Y-155695141D02*
G01*
X35335903Y-155708601D01*
X35320788Y-155712091D01*
X35317745Y-155708365D01*
X35320788Y-155678190D01*
X35328435Y-155674213D01*
X35337738Y-155695141D01*
G37*
G36*
X30930664Y-164271984D02*
G01*
X30934642Y-164279632D01*
X30913714Y-164288935D01*
X30900254Y-164287100D01*
X30896764Y-164271984D01*
X30900490Y-164268941D01*
X30930664Y-164271984D01*
G37*
G36*
X26001532Y-151149269D02*
G01*
X25981181Y-151169415D01*
X25959401Y-151181402D01*
X25917618Y-151194062D01*
X25909979Y-151189561D01*
X25930331Y-151169415D01*
X25952111Y-151157428D01*
X25993894Y-151144768D01*
X26001532Y-151149269D01*
G37*
G36*
X26665661Y-51156385D02*
G01*
X26663863Y-51182173D01*
X26652307Y-51189756D01*
X26647268Y-51180761D01*
X26650299Y-51141024D01*
X26659451Y-51129256D01*
X26665661Y-51156385D01*
G37*
G36*
X29982632Y-118326124D02*
G01*
X30036537Y-118345191D01*
X30064454Y-118361180D01*
X30049249Y-118368440D01*
X30027250Y-118366272D01*
X29972973Y-118345191D01*
X29962689Y-118337969D01*
X29954819Y-118323717D01*
X29982632Y-118326124D01*
G37*
G36*
X33066325Y-123180616D02*
G01*
X33068976Y-123226872D01*
X33068730Y-123244123D01*
X33064718Y-123279280D01*
X33057349Y-123271367D01*
X33053395Y-123246863D01*
X33057349Y-123182378D01*
X33059726Y-123175164D01*
X33066325Y-123180616D01*
G37*
G36*
X21650309Y-156767603D02*
G01*
X21652960Y-156813859D01*
X21652714Y-156831110D01*
X21648702Y-156866267D01*
X21641333Y-156858354D01*
X21637379Y-156833850D01*
X21641333Y-156769365D01*
X21643710Y-156762151D01*
X21650309Y-156767603D01*
G37*
G36*
X32393669Y-125070216D02*
G01*
X32355850Y-125131560D01*
X32291118Y-125223063D01*
X32208109Y-125333012D01*
X32114604Y-125451348D01*
X32018388Y-125568013D01*
X31927244Y-125672949D01*
X31762417Y-125842678D01*
X31565197Y-126022823D01*
X31353831Y-126197025D01*
X31144372Y-126351375D01*
X31102621Y-126379965D01*
X31025495Y-126431951D01*
X30970449Y-126467901D01*
X30947325Y-126481327D01*
X30946453Y-126481316D01*
X30940232Y-126474466D01*
X30962921Y-126452360D01*
X31019292Y-126411155D01*
X31114117Y-126347010D01*
X31180635Y-126301651D01*
X31477260Y-126072935D01*
X31763681Y-125810877D01*
X32026462Y-125528556D01*
X32252170Y-125239051D01*
X32290653Y-125184631D01*
X32354689Y-125096822D01*
X32393915Y-125047634D01*
X32407264Y-125038341D01*
X32393669Y-125070216D01*
G37*
G36*
X27818168Y-127049273D02*
G01*
X27822481Y-127058102D01*
X27786387Y-127062097D01*
X27751411Y-127058553D01*
X27754605Y-127049273D01*
X27766114Y-127045915D01*
X27818168Y-127049273D01*
G37*
G36*
X24250245Y-123745975D02*
G01*
X24248447Y-123771763D01*
X24236891Y-123779346D01*
X24231853Y-123770351D01*
X24234884Y-123730614D01*
X24244036Y-123718845D01*
X24250245Y-123745975D01*
G37*
G36*
X30182733Y-150822046D02*
G01*
X30187046Y-150830874D01*
X30150951Y-150834870D01*
X30115975Y-150831326D01*
X30119169Y-150822046D01*
X30130678Y-150818688D01*
X30182733Y-150822046D01*
G37*
G36*
X32131011Y-163720587D02*
G01*
X32097398Y-163745070D01*
X32038789Y-163778695D01*
X31984351Y-163807279D01*
X31946668Y-163825561D01*
X31932742Y-163828020D01*
X31930731Y-163819081D01*
X31935128Y-163813297D01*
X31971424Y-163788579D01*
X32032433Y-163755001D01*
X32063319Y-163739842D01*
X32114086Y-163718464D01*
X32134134Y-163715738D01*
X32131011Y-163720587D01*
G37*
G36*
X32945741Y-121406836D02*
G01*
X32943943Y-121432624D01*
X32932387Y-121440207D01*
X32927348Y-121431211D01*
X32930379Y-121391475D01*
X32939531Y-121379706D01*
X32945741Y-121406836D01*
G37*
G36*
X30450314Y-51469713D02*
G01*
X30436082Y-51511870D01*
X30406462Y-51575560D01*
X30390043Y-51606904D01*
X30355753Y-51664394D01*
X30341785Y-51675963D01*
X30350661Y-51642743D01*
X30384906Y-51565869D01*
X30405578Y-51525337D01*
X30434468Y-51476607D01*
X30449913Y-51461703D01*
X30450314Y-51469713D01*
G37*
G36*
X22393805Y-160893541D02*
G01*
X22422551Y-160939715D01*
X22459760Y-161009055D01*
X22485957Y-161063151D01*
X22508028Y-161115816D01*
X22511467Y-161136182D01*
X22500290Y-161124569D01*
X22471543Y-161078394D01*
X22434335Y-161009055D01*
X22408138Y-160954958D01*
X22386067Y-160902294D01*
X22382627Y-160881928D01*
X22393805Y-160893541D01*
G37*
G36*
X26604538Y-50549374D02*
G01*
X26606811Y-50599870D01*
X26607651Y-50688134D01*
X26607138Y-50759661D01*
X26605155Y-50819067D01*
X26602028Y-50837053D01*
X26598128Y-50808905D01*
X26596616Y-50786042D01*
X26594246Y-50673981D01*
X26598128Y-50567363D01*
X26601205Y-50541358D01*
X26604538Y-50549374D01*
G37*
G36*
X31981566Y-151515039D02*
G01*
X32032433Y-151538084D01*
X32039454Y-151541769D01*
X32088592Y-151571257D01*
X32108709Y-151590240D01*
X32108206Y-151591440D01*
X32083300Y-151586553D01*
X32032433Y-151563509D01*
X32025411Y-151559824D01*
X31976274Y-151530336D01*
X31956156Y-151511352D01*
X31956659Y-151510153D01*
X31981566Y-151515039D01*
G37*
G36*
X26693093Y-51247493D02*
G01*
X26691258Y-51260953D01*
X26676143Y-51264443D01*
X26673100Y-51260717D01*
X26676143Y-51230543D01*
X26683791Y-51226565D01*
X26693093Y-51247493D01*
G37*
G36*
X32844598Y-124156490D02*
G01*
X32830193Y-124204768D01*
X32819780Y-124225116D01*
X32802436Y-124234180D01*
X32800673Y-124218008D01*
X32817517Y-124175877D01*
X32838683Y-124146858D01*
X32844598Y-124156490D01*
G37*
G36*
X35361156Y-155782011D02*
G01*
X35359358Y-155807799D01*
X35347802Y-155815382D01*
X35342764Y-155806387D01*
X35345795Y-155766650D01*
X35354947Y-155754881D01*
X35361156Y-155782011D01*
G37*
G36*
X32871472Y-124091337D02*
G01*
X32869637Y-124104797D01*
X32854521Y-124108287D01*
X32851478Y-124104561D01*
X32854521Y-124074387D01*
X32862169Y-124070409D01*
X32871472Y-124091337D01*
G37*
G36*
X31040841Y-151082288D02*
G01*
X31088173Y-151097806D01*
X31142543Y-151122854D01*
X31147416Y-151125957D01*
X31155381Y-151136875D01*
X31117117Y-151129415D01*
X31069785Y-151113896D01*
X31015416Y-151088849D01*
X31010542Y-151085746D01*
X31002577Y-151074828D01*
X31040841Y-151082288D01*
G37*
G36*
X27167701Y-118353666D02*
G01*
X27171679Y-118361313D01*
X27150751Y-118370616D01*
X27137291Y-118368781D01*
X27133801Y-118353666D01*
X27137527Y-118350623D01*
X27167701Y-118353666D01*
G37*
G36*
X21705695Y-158847894D02*
G01*
X21702151Y-158882869D01*
X21692871Y-158879675D01*
X21689513Y-158868166D01*
X21692871Y-158816112D01*
X21701700Y-158811799D01*
X21705695Y-158847894D01*
G37*
G36*
X24224820Y-123644273D02*
G01*
X24223022Y-123670061D01*
X24211466Y-123677644D01*
X24206427Y-123668649D01*
X24209459Y-123628912D01*
X24218610Y-123617143D01*
X24224820Y-123644273D01*
G37*
G36*
X28986886Y-164651542D02*
G01*
X29017961Y-164654883D01*
X29008949Y-164658037D01*
X28957185Y-164660199D01*
X28866967Y-164661030D01*
X28785715Y-164660471D01*
X28725334Y-164658507D01*
X28706006Y-164655457D01*
X28732631Y-164651662D01*
X28769065Y-164649491D01*
X28879760Y-164647809D01*
X28986886Y-164651542D01*
G37*
G36*
X30317404Y-100746192D02*
G01*
X30285872Y-100804263D01*
X30268956Y-100831094D01*
X30198018Y-100924377D01*
X30102684Y-101032748D01*
X29994508Y-101144119D01*
X29885042Y-101246398D01*
X29785842Y-101327496D01*
X29776455Y-101334398D01*
X29704210Y-101386494D01*
X29650706Y-101423320D01*
X29626933Y-101437283D01*
X29624617Y-101437215D01*
X29619068Y-101427211D01*
X29651490Y-101398194D01*
X29725075Y-101347236D01*
X29729650Y-101344194D01*
X29856887Y-101246629D01*
X29991997Y-101122619D01*
X30117892Y-100988982D01*
X30217485Y-100862538D01*
X30260284Y-100801845D01*
X30302268Y-100746979D01*
X30322089Y-100727763D01*
X30317404Y-100746192D01*
G37*
G36*
X21783979Y-159239869D02*
G01*
X21782181Y-159265657D01*
X21770625Y-159273240D01*
X21765587Y-159264244D01*
X21768618Y-159224508D01*
X21777770Y-159212739D01*
X21783979Y-159239869D01*
G37*
G36*
X32996592Y-121610239D02*
G01*
X32994794Y-121636027D01*
X32983238Y-121643610D01*
X32978199Y-121634615D01*
X32981230Y-121594878D01*
X32990382Y-121583109D01*
X32996592Y-121610239D01*
G37*
G36*
X30323825Y-98674096D02*
G01*
X30349908Y-98715355D01*
X30384242Y-98777710D01*
X30418759Y-98845653D01*
X30445387Y-98903675D01*
X30456056Y-98936271D01*
X30453070Y-98946913D01*
X30440385Y-98933006D01*
X30413939Y-98885965D01*
X30369698Y-98799395D01*
X30340970Y-98739496D01*
X30318895Y-98686372D01*
X30315360Y-98665912D01*
X30323825Y-98674096D01*
G37*
G36*
X24328529Y-124015061D02*
G01*
X24326694Y-124028521D01*
X24311578Y-124032011D01*
X24308536Y-124028284D01*
X24311578Y-123998110D01*
X24319226Y-123994133D01*
X24328529Y-124015061D01*
G37*
G36*
X22091091Y-160220866D02*
G01*
X22089256Y-160234327D01*
X22074141Y-160237817D01*
X22071098Y-160234090D01*
X22074141Y-160203916D01*
X22081789Y-160199938D01*
X22091091Y-160220866D01*
G37*
G36*
X29964498Y-126922034D02*
G01*
X29968476Y-126929682D01*
X29947548Y-126938985D01*
X29934088Y-126937150D01*
X29930597Y-126922034D01*
X29934324Y-126918991D01*
X29964498Y-126922034D01*
G37*
G36*
X22319920Y-160742088D02*
G01*
X22307207Y-160754800D01*
X22294495Y-160742088D01*
X22307207Y-160729375D01*
X22319920Y-160742088D01*
G37*
G36*
X26952115Y-150846941D02*
G01*
X26963883Y-150856093D01*
X26936754Y-150862303D01*
X26910966Y-150860505D01*
X26903383Y-150848949D01*
X26912378Y-150843910D01*
X26952115Y-150846941D01*
G37*
G36*
X21989390Y-159941187D02*
G01*
X21987555Y-159954647D01*
X21972439Y-159958137D01*
X21969396Y-159954411D01*
X21972439Y-159924237D01*
X21980087Y-159920259D01*
X21989390Y-159941187D01*
G37*
G36*
X24171962Y-123404850D02*
G01*
X24168417Y-123439826D01*
X24159137Y-123436632D01*
X24155779Y-123425123D01*
X24159137Y-123373069D01*
X24167966Y-123368756D01*
X24171962Y-123404850D01*
G37*
G36*
X22345346Y-160792939D02*
G01*
X22332633Y-160805651D01*
X22319920Y-160792939D01*
X22332633Y-160780226D01*
X22345346Y-160792939D01*
G37*
G36*
X24600389Y-124680511D02*
G01*
X24625370Y-124716804D01*
X24659059Y-124777823D01*
X24674216Y-124808715D01*
X24695560Y-124859478D01*
X24698231Y-124879525D01*
X24692305Y-124875136D01*
X24667323Y-124838843D01*
X24633634Y-124777823D01*
X24618477Y-124746932D01*
X24597133Y-124696169D01*
X24594462Y-124676122D01*
X24600389Y-124680511D01*
G37*
G36*
X26743944Y-51400046D02*
G01*
X26742109Y-51413506D01*
X26726994Y-51416996D01*
X26723951Y-51413269D01*
X26726994Y-51383095D01*
X26734641Y-51379118D01*
X26743944Y-51400046D01*
G37*
G36*
X22031410Y-155220701D02*
G01*
X22028567Y-155253359D01*
X22011990Y-155310934D01*
X22008477Y-155320732D01*
X21987443Y-155368524D01*
X21973623Y-155382744D01*
X21972794Y-155381393D01*
X21975637Y-155348735D01*
X21992215Y-155291159D01*
X21995728Y-155281361D01*
X22016761Y-155233569D01*
X22030582Y-155219350D01*
X22031410Y-155220701D01*
G37*
G36*
X22014815Y-160017463D02*
G01*
X22012980Y-160030923D01*
X21997865Y-160034413D01*
X21994822Y-160030687D01*
X21997865Y-160000513D01*
X22005512Y-159996535D01*
X22014815Y-160017463D01*
G37*
G36*
X29176310Y-101623736D02*
G01*
X29180288Y-101631384D01*
X29159360Y-101640686D01*
X29145899Y-101638851D01*
X29142409Y-101623736D01*
X29146136Y-101620693D01*
X29176310Y-101623736D01*
G37*
G36*
X28267381Y-148637258D02*
G01*
X28185047Y-148868694D01*
X28056753Y-149088009D01*
X27883377Y-149290554D01*
X27829297Y-149340009D01*
X27678004Y-149452115D01*
X27507746Y-149549716D01*
X27334983Y-149624063D01*
X27176176Y-149666408D01*
X27162411Y-149668593D01*
X27035898Y-149685311D01*
X26933198Y-149689173D01*
X26830954Y-149679677D01*
X26705806Y-149656325D01*
X26586802Y-149625549D01*
X26348906Y-149526901D01*
X26134547Y-149386301D01*
X25948459Y-149207908D01*
X25795369Y-148995882D01*
X25680011Y-148754383D01*
X25674583Y-148739347D01*
X25628873Y-148549427D01*
X25613151Y-148339288D01*
X25617867Y-148270392D01*
X25892161Y-148270392D01*
X25901666Y-148474216D01*
X25955589Y-148675105D01*
X26049811Y-148865749D01*
X26180211Y-149038837D01*
X26342671Y-149187059D01*
X26533070Y-149303103D01*
X26540281Y-149306547D01*
X26622162Y-149341194D01*
X26701126Y-149362756D01*
X26795078Y-149374817D01*
X26921922Y-149380962D01*
X26976596Y-149382004D01*
X27085457Y-149380784D01*
X27174014Y-149375534D01*
X27227027Y-149366953D01*
X27314750Y-149333330D01*
X27503544Y-149230557D01*
X27675130Y-149096749D01*
X27818311Y-148941457D01*
X27921892Y-148774230D01*
X27930078Y-148756378D01*
X27997421Y-148545586D01*
X28018640Y-148325087D01*
X27993727Y-148105233D01*
X27922671Y-147896378D01*
X27892324Y-147839624D01*
X27795097Y-147703250D01*
X27671110Y-147569956D01*
X27534871Y-147454348D01*
X27400885Y-147371030D01*
X27350552Y-147348225D01*
X27144755Y-147287105D01*
X26936512Y-147271913D01*
X26731685Y-147299468D01*
X26536135Y-147366589D01*
X26355721Y-147470093D01*
X26196304Y-147606800D01*
X26063744Y-147773530D01*
X25963902Y-147967099D01*
X25902639Y-148184328D01*
X25892161Y-148270392D01*
X25617867Y-148270392D01*
X25627599Y-148128227D01*
X25672394Y-147935544D01*
X25715948Y-147823760D01*
X25836402Y-147606208D01*
X25991438Y-147414239D01*
X26174881Y-147252055D01*
X26380557Y-147123856D01*
X26602289Y-147033844D01*
X26833904Y-146986220D01*
X27069225Y-146985185D01*
X27184887Y-147001894D01*
X27429623Y-147073107D01*
X27654542Y-147188976D01*
X27855549Y-147346561D01*
X28028549Y-147542922D01*
X28169447Y-147775121D01*
X28229851Y-147916715D01*
X28290661Y-148156620D01*
X28299176Y-148325087D01*
X28302879Y-148398351D01*
X28267381Y-148637258D01*
G37*
G36*
X29328862Y-101572885D02*
G01*
X29332840Y-101580533D01*
X29311912Y-101589835D01*
X29298452Y-101588001D01*
X29294962Y-101572885D01*
X29298688Y-101569842D01*
X29328862Y-101572885D01*
G37*
G36*
X25650651Y-151309255D02*
G01*
X25637938Y-151321968D01*
X25625225Y-151309255D01*
X25637938Y-151296542D01*
X25650651Y-151309255D01*
G37*
G36*
X25591236Y-151328363D02*
G01*
X25558568Y-151351107D01*
X25498098Y-151385531D01*
X25484031Y-151393064D01*
X25418256Y-151427947D01*
X25384738Y-151443951D01*
X25372600Y-151445470D01*
X25370971Y-151436899D01*
X25370971Y-151436883D01*
X25391462Y-151418963D01*
X25441208Y-151389710D01*
X25502854Y-151358040D01*
X25559047Y-151332870D01*
X25592431Y-151323116D01*
X25591236Y-151328363D01*
G37*
G36*
X24926026Y-151696228D02*
G01*
X24905269Y-151712913D01*
X24848371Y-151753879D01*
X24766685Y-151810365D01*
X24670168Y-151875396D01*
X24403131Y-152066599D01*
X24103258Y-152309357D01*
X23804627Y-152577878D01*
X23518626Y-152861367D01*
X23256643Y-153149029D01*
X23030066Y-153430068D01*
X22977776Y-153499588D01*
X22900986Y-153599877D01*
X22845966Y-153669243D01*
X22814467Y-153705737D01*
X22808242Y-153707410D01*
X22829042Y-153672315D01*
X22878620Y-153598501D01*
X23045735Y-153372275D01*
X23274842Y-153097860D01*
X23532481Y-152819798D01*
X23809108Y-152547431D01*
X24095177Y-152290100D01*
X24381142Y-152057145D01*
X24657456Y-151857907D01*
X24665930Y-151852247D01*
X24787326Y-151771744D01*
X24870573Y-151717973D01*
X24919133Y-151688852D01*
X24936464Y-151682298D01*
X24926026Y-151696228D01*
G37*
G36*
X26163659Y-164216569D02*
G01*
X26210010Y-164238084D01*
X26227271Y-164252239D01*
X26222723Y-164262730D01*
X26205510Y-164259598D01*
X26159159Y-164238084D01*
X26141899Y-164223929D01*
X26146447Y-164213437D01*
X26163659Y-164216569D01*
G37*
G36*
X26637286Y-100051597D02*
G01*
X26637321Y-100057618D01*
X26633912Y-100097421D01*
X26625565Y-100096576D01*
X26620901Y-100075684D01*
X26624623Y-100020299D01*
X26625881Y-100015928D01*
X26633620Y-100012164D01*
X26637286Y-100051597D01*
G37*
G36*
X27647453Y-52438862D02*
G01*
X27699586Y-52461926D01*
X27751283Y-52488200D01*
X27784268Y-52509285D01*
X27785007Y-52509992D01*
X27776649Y-52518764D01*
X27770519Y-52517967D01*
X27729300Y-52502494D01*
X27675340Y-52475335D01*
X27628442Y-52447117D01*
X27608409Y-52428470D01*
X27613163Y-52427407D01*
X27647453Y-52438862D01*
G37*
G36*
X35707913Y-168179487D02*
G01*
X35657540Y-168378628D01*
X35549582Y-168657887D01*
X35405905Y-168911055D01*
X35230213Y-169134308D01*
X35026211Y-169323825D01*
X34797602Y-169475783D01*
X34548091Y-169586358D01*
X34281382Y-169651729D01*
X34155182Y-169664709D01*
X33894445Y-169653672D01*
X33631342Y-169592367D01*
X33367267Y-169481054D01*
X33215519Y-169386113D01*
X33049639Y-169250003D01*
X32891749Y-169090325D01*
X32754339Y-168919787D01*
X32649898Y-168751097D01*
X32623027Y-168697869D01*
X32541717Y-168520266D01*
X32485376Y-168359406D01*
X32450040Y-168198596D01*
X32431744Y-168021144D01*
X32426527Y-167810356D01*
X32426821Y-167758445D01*
X32951184Y-167758445D01*
X32958495Y-167940837D01*
X32983221Y-168116313D01*
X33023872Y-168263950D01*
X33108878Y-168444789D01*
X33241386Y-168638358D01*
X33401703Y-168803069D01*
X33582624Y-168931719D01*
X33776945Y-169017102D01*
X33854085Y-169037696D01*
X34070571Y-169062404D01*
X34282653Y-169040838D01*
X34485132Y-168976321D01*
X34672808Y-168872177D01*
X34840479Y-168731730D01*
X34982945Y-168558304D01*
X35095006Y-168355221D01*
X35171461Y-168125807D01*
X35203723Y-167923407D01*
X35203031Y-167692491D01*
X35164238Y-167473191D01*
X35091338Y-167269046D01*
X34988320Y-167083590D01*
X34859177Y-166920360D01*
X34707900Y-166782894D01*
X34538481Y-166674727D01*
X34354911Y-166599395D01*
X34161182Y-166560436D01*
X33961286Y-166561386D01*
X33759213Y-166605781D01*
X33558957Y-166697158D01*
X33465688Y-166758975D01*
X33295654Y-166913213D01*
X33152057Y-167100758D01*
X33041870Y-167311645D01*
X32972066Y-167535909D01*
X32962775Y-167590057D01*
X32951184Y-167758445D01*
X32426821Y-167758445D01*
X32426875Y-167748948D01*
X32435248Y-167548850D01*
X32457773Y-167377560D01*
X32498414Y-167218386D01*
X32561134Y-167054635D01*
X32649898Y-166869615D01*
X32688899Y-166798570D01*
X32840168Y-166583290D01*
X33026535Y-166388581D01*
X33238795Y-166222004D01*
X33467741Y-166091124D01*
X33704169Y-166003503D01*
X33804870Y-165983498D01*
X33968902Y-165968326D01*
X34146168Y-165966797D01*
X34316122Y-165978882D01*
X34458217Y-166004551D01*
X34626423Y-166061339D01*
X34863859Y-166183669D01*
X35083224Y-166346961D01*
X35279485Y-166545867D01*
X35447609Y-166775036D01*
X35582566Y-167029118D01*
X35679324Y-167302764D01*
X35683598Y-167319072D01*
X35721051Y-167523783D01*
X35738077Y-167750413D01*
X35734913Y-167923407D01*
X35733942Y-167976476D01*
X35707913Y-168179487D01*
G37*
G36*
X26757361Y-100486171D02*
G01*
X26781839Y-100522957D01*
X26815095Y-100586089D01*
X26834331Y-100627354D01*
X26855389Y-100679542D01*
X26858545Y-100699946D01*
X26856650Y-100699333D01*
X26836149Y-100673063D01*
X26806540Y-100620692D01*
X26776525Y-100559716D01*
X26754806Y-100507628D01*
X26750088Y-100481923D01*
X26757361Y-100486171D01*
G37*
G36*
X30579169Y-50332178D02*
G01*
X30575625Y-50367154D01*
X30566345Y-50363960D01*
X30562986Y-50352451D01*
X30566345Y-50300396D01*
X30575173Y-50296083D01*
X30579169Y-50332178D01*
G37*
G36*
X35605359Y-157473227D02*
G01*
X35606737Y-157550717D01*
X35607249Y-157665611D01*
X35606992Y-157754234D01*
X35605850Y-157844175D01*
X35603949Y-157895035D01*
X35601463Y-157902891D01*
X35598563Y-157863820D01*
X35595471Y-157753990D01*
X35595267Y-157612309D01*
X35598498Y-157482439D01*
X35600693Y-157444792D01*
X35603287Y-157436724D01*
X35605359Y-157473227D01*
G37*
G36*
X34994622Y-154793639D02*
G01*
X35019920Y-154830676D01*
X35044582Y-154880613D01*
X35056256Y-154919665D01*
X35056240Y-154920402D01*
X35045218Y-154918564D01*
X35019920Y-154881527D01*
X34995258Y-154831591D01*
X34983584Y-154792538D01*
X34983600Y-154791801D01*
X34994622Y-154793639D01*
G37*
G36*
X28057591Y-52603516D02*
G01*
X28061569Y-52611163D01*
X28040641Y-52620466D01*
X28027181Y-52618631D01*
X28023691Y-52603516D01*
X28027417Y-52600473D01*
X28057591Y-52603516D01*
G37*
G36*
X34880080Y-147304750D02*
G01*
X34041041Y-147304750D01*
X34041041Y-148470082D01*
X34040761Y-148674469D01*
X34039765Y-148900159D01*
X34038122Y-149105795D01*
X34035910Y-149286243D01*
X34033208Y-149436371D01*
X34030095Y-149551046D01*
X34026649Y-149625135D01*
X34022949Y-149653507D01*
X34008579Y-149659338D01*
X33953802Y-149665097D01*
X33876753Y-149664101D01*
X33748649Y-149656602D01*
X33748649Y-147012358D01*
X34314365Y-147005515D01*
X34880080Y-146998672D01*
X34880080Y-147304750D01*
G37*
G36*
X31344490Y-13163654D02*
G01*
X31274330Y-13452948D01*
X31170406Y-13711614D01*
X31034701Y-13937104D01*
X30869203Y-14126869D01*
X30675896Y-14278363D01*
X30456765Y-14389036D01*
X30213796Y-14456342D01*
X30090774Y-14469158D01*
X29891990Y-14461549D01*
X29688893Y-14425271D01*
X29498740Y-14363789D01*
X29338786Y-14280568D01*
X29220757Y-14193150D01*
X29025194Y-14001265D01*
X28864880Y-13776308D01*
X28741510Y-13522138D01*
X28703711Y-13397438D01*
X29799368Y-13397438D01*
X29799711Y-13627137D01*
X29800824Y-13816433D01*
X29802759Y-13968531D01*
X29805567Y-14086637D01*
X29809302Y-14173958D01*
X29814014Y-14233699D01*
X29819755Y-14269067D01*
X29826578Y-14283268D01*
X29832321Y-14286162D01*
X29886962Y-14296730D01*
X29972898Y-14300833D01*
X30074193Y-14298710D01*
X30174910Y-14290601D01*
X30259113Y-14276746D01*
X30435212Y-14217184D01*
X30629727Y-14104247D01*
X30804155Y-13949281D01*
X30955087Y-13756041D01*
X31079114Y-13528286D01*
X31172828Y-13269772D01*
X31187633Y-13211202D01*
X31218623Y-13017508D01*
X31232519Y-12799963D01*
X31229338Y-12576391D01*
X31209097Y-12364620D01*
X31171812Y-12182473D01*
X31163697Y-12154617D01*
X31066376Y-11896947D01*
X30940132Y-11673288D01*
X30788003Y-11486256D01*
X30613026Y-11338469D01*
X30418238Y-11232544D01*
X30206677Y-11171097D01*
X29981379Y-11156745D01*
X29807708Y-11164310D01*
X29801153Y-12713637D01*
X29800783Y-12804003D01*
X29799743Y-13124128D01*
X29799368Y-13397438D01*
X28703711Y-13397438D01*
X28656781Y-13242613D01*
X28612389Y-12941593D01*
X28610031Y-12622935D01*
X28616141Y-12540472D01*
X28662725Y-12232795D01*
X28743762Y-11951897D01*
X28857081Y-11700677D01*
X29000513Y-11482031D01*
X29171888Y-11298856D01*
X29369037Y-11154049D01*
X29589790Y-11050509D01*
X29831978Y-10991131D01*
X29873465Y-10985930D01*
X30110762Y-10985166D01*
X30343128Y-11031552D01*
X30564371Y-11121986D01*
X30768301Y-11253363D01*
X30948726Y-11422580D01*
X31099455Y-11626532D01*
X31192792Y-11805339D01*
X31289048Y-12071453D01*
X31351987Y-12361327D01*
X31379610Y-12665020D01*
X31375359Y-12799963D01*
X31369920Y-12972590D01*
X31344490Y-13163654D01*
G37*
G36*
X31549350Y-164021968D02*
G01*
X31536637Y-164034680D01*
X31523924Y-164021968D01*
X31536637Y-164009255D01*
X31549350Y-164021968D01*
G37*
G36*
X27767318Y-118201225D02*
G01*
X27771630Y-118210054D01*
X27735536Y-118214049D01*
X27700560Y-118210505D01*
X27703754Y-118201225D01*
X27715263Y-118197867D01*
X27767318Y-118201225D01*
G37*
G36*
X26638228Y-99352398D02*
G01*
X26634684Y-99387374D01*
X26625404Y-99384180D01*
X26622046Y-99372671D01*
X26625404Y-99320616D01*
X26634232Y-99316303D01*
X26638228Y-99352398D01*
G37*
G36*
X35462858Y-159112742D02*
G01*
X35461060Y-159138530D01*
X35449504Y-159146113D01*
X35444466Y-159137117D01*
X35447497Y-159097380D01*
X35456648Y-159085612D01*
X35462858Y-159112742D01*
G37*
G36*
X27421955Y-118277390D02*
G01*
X27425933Y-118285037D01*
X27405005Y-118294340D01*
X27391545Y-118292505D01*
X27388055Y-118277390D01*
X27391781Y-118274347D01*
X27421955Y-118277390D01*
G37*
G36*
X35558017Y-158471106D02*
G01*
X35560668Y-158517363D01*
X35560422Y-158534614D01*
X35556410Y-158569771D01*
X35549040Y-158561857D01*
X35545086Y-158537353D01*
X35549040Y-158472868D01*
X35551417Y-158465655D01*
X35558017Y-158471106D01*
G37*
G36*
X32996592Y-123644273D02*
G01*
X32994794Y-123670061D01*
X32983238Y-123677644D01*
X32978199Y-123668649D01*
X32981230Y-123628912D01*
X32990382Y-123617143D01*
X32996592Y-123644273D01*
G37*
G36*
X34667618Y-161173147D02*
G01*
X34651251Y-161212458D01*
X34631744Y-161243819D01*
X34611324Y-161263309D01*
X34609459Y-161251769D01*
X34625826Y-161212458D01*
X34645333Y-161181098D01*
X34665753Y-161161607D01*
X34667618Y-161173147D01*
G37*
G36*
X26833670Y-118474136D02*
G01*
X26831832Y-118485158D01*
X26794795Y-118510456D01*
X26744859Y-118535118D01*
X26705806Y-118546792D01*
X26705069Y-118546776D01*
X26706907Y-118535754D01*
X26743944Y-118510456D01*
X26793880Y-118485794D01*
X26832933Y-118474120D01*
X26833670Y-118474136D01*
G37*
G36*
X28057591Y-101623736D02*
G01*
X28061569Y-101631384D01*
X28040641Y-101640686D01*
X28027181Y-101638851D01*
X28023691Y-101623736D01*
X28027417Y-101620693D01*
X28057591Y-101623736D01*
G37*
G36*
X30450314Y-100489933D02*
G01*
X30436082Y-100532091D01*
X30406462Y-100595780D01*
X30390043Y-100627124D01*
X30355753Y-100684615D01*
X30341785Y-100696183D01*
X30350661Y-100662963D01*
X30384906Y-100586089D01*
X30405578Y-100545557D01*
X30434468Y-100496827D01*
X30449913Y-100481923D01*
X30450314Y-100489933D01*
G37*
G36*
X29278012Y-97809922D02*
G01*
X29281989Y-97817570D01*
X29261061Y-97826872D01*
X29247601Y-97825038D01*
X29244111Y-97809922D01*
X29247838Y-97806879D01*
X29278012Y-97809922D01*
G37*
G36*
X25309507Y-163846754D02*
G01*
X25358287Y-163867078D01*
X25428851Y-163899292D01*
X25508449Y-163937291D01*
X25584333Y-163974970D01*
X25643753Y-164006224D01*
X25673957Y-164024948D01*
X25674473Y-164025442D01*
X25666966Y-164034680D01*
X25648446Y-164029178D01*
X25595188Y-164005872D01*
X25522103Y-163970482D01*
X25442352Y-163929771D01*
X25369093Y-163890503D01*
X25315488Y-163859442D01*
X25294695Y-163843350D01*
X25309507Y-163846754D01*
G37*
G36*
X37778579Y-169679125D02*
G01*
X37244645Y-169679125D01*
X37244645Y-165941587D01*
X37778579Y-165941587D01*
X37778579Y-169679125D01*
G37*
G36*
X33020010Y-121726772D02*
G01*
X33016466Y-121761748D01*
X33007185Y-121758554D01*
X33003827Y-121747045D01*
X33007185Y-121694991D01*
X33016014Y-121690678D01*
X33020010Y-121726772D01*
G37*
G36*
X21705695Y-156457904D02*
G01*
X21702151Y-156492879D01*
X21692871Y-156489685D01*
X21689513Y-156478176D01*
X21692871Y-156426122D01*
X21701700Y-156421809D01*
X21705695Y-156457904D01*
G37*
G36*
X24197387Y-121726772D02*
G01*
X24193843Y-121761748D01*
X24184563Y-121758554D01*
X24181205Y-121747045D01*
X24184563Y-121694991D01*
X24193391Y-121690678D01*
X24197387Y-121726772D01*
G37*
G36*
X30481482Y-51400046D02*
G01*
X30479647Y-51413506D01*
X30464531Y-51416996D01*
X30461488Y-51413269D01*
X30464531Y-51383095D01*
X30472179Y-51379118D01*
X30481482Y-51400046D01*
G37*
G36*
X29363763Y-97844778D02*
G01*
X29425932Y-97872383D01*
X29499193Y-97908071D01*
X29569237Y-97944706D01*
X29621757Y-97975150D01*
X29642443Y-97992266D01*
X29642061Y-97992904D01*
X29616203Y-97985869D01*
X29557762Y-97961088D01*
X29477994Y-97923282D01*
X29466968Y-97917814D01*
X29390728Y-97878033D01*
X29339148Y-97847650D01*
X29322869Y-97832866D01*
X29326994Y-97832393D01*
X29363763Y-97844778D01*
G37*
G36*
X22745729Y-153815579D02*
G01*
X22734246Y-153844226D01*
X22703103Y-153896292D01*
X22665958Y-153955630D01*
X22612981Y-154044056D01*
X22558578Y-154137833D01*
X22545535Y-154160523D01*
X22499898Y-154235931D01*
X22468059Y-154282577D01*
X22453316Y-154296876D01*
X22458970Y-154275248D01*
X22488321Y-154214110D01*
X22493989Y-154203273D01*
X22534761Y-154130562D01*
X22585382Y-154046134D01*
X22638744Y-153961108D01*
X22687742Y-153886606D01*
X22725268Y-153833749D01*
X22744216Y-153813659D01*
X22745729Y-153815579D01*
G37*
G36*
X32758324Y-124387564D02*
G01*
X32727075Y-124458824D01*
X32717718Y-124477729D01*
X32690293Y-124524511D01*
X32674386Y-124538362D01*
X32673617Y-124531958D01*
X32686703Y-124492066D01*
X32715957Y-124430623D01*
X32724654Y-124414393D01*
X32755975Y-124362462D01*
X32767578Y-124354481D01*
X32758324Y-124387564D01*
G37*
G36*
X23540341Y-169068915D02*
G01*
X24150551Y-169068915D01*
X24150551Y-169679784D01*
X23267017Y-169673098D01*
X22383484Y-169666412D01*
X22376320Y-169367663D01*
X22369157Y-169068915D01*
X23006407Y-169068915D01*
X23006407Y-165941587D01*
X23540341Y-165941587D01*
X23540341Y-169068915D01*
G37*
G36*
X26667668Y-118561307D02*
G01*
X26654955Y-118574020D01*
X26642242Y-118561307D01*
X26654955Y-118548594D01*
X26667668Y-118561307D01*
G37*
G36*
X29114569Y-127098980D02*
G01*
X29127079Y-127102305D01*
X29119609Y-127108047D01*
X29070371Y-127110551D01*
X29043436Y-127110222D01*
X29006923Y-127106366D01*
X29012867Y-127099493D01*
X29048319Y-127094887D01*
X29114569Y-127098980D01*
G37*
G36*
X32591792Y-120519065D02*
G01*
X32579079Y-120531777D01*
X32566367Y-120519065D01*
X32579079Y-120506352D01*
X32591792Y-120519065D01*
G37*
G36*
X24582783Y-124637984D02*
G01*
X24570070Y-124650696D01*
X24557358Y-124637984D01*
X24570070Y-124625271D01*
X24582783Y-124637984D01*
G37*
G36*
X24659059Y-120468214D02*
G01*
X24646347Y-120480927D01*
X24633634Y-120468214D01*
X24646347Y-120455501D01*
X24659059Y-120468214D01*
G37*
G36*
X35180896Y-155237483D02*
G01*
X35199055Y-155274584D01*
X35221462Y-155339185D01*
X35223654Y-155347588D01*
X35228490Y-155379119D01*
X35214900Y-155364610D01*
X35196741Y-155327509D01*
X35174334Y-155262909D01*
X35172142Y-155254505D01*
X35167306Y-155222974D01*
X35180896Y-155237483D01*
G37*
G36*
X32871472Y-121167413D02*
G01*
X32869637Y-121180873D01*
X32854521Y-121184363D01*
X32851478Y-121180637D01*
X32854521Y-121150463D01*
X32862169Y-121146485D01*
X32871472Y-121167413D01*
G37*
G36*
X29578081Y-101463914D02*
G01*
X29521672Y-101499016D01*
X29465585Y-101526047D01*
X29428445Y-101537967D01*
X29422989Y-101538061D01*
X29414456Y-101532470D01*
X29441304Y-101513797D01*
X29508959Y-101478002D01*
X29555520Y-101456544D01*
X29588534Y-101448386D01*
X29578081Y-101463914D01*
G37*
G36*
X24802020Y-125044714D02*
G01*
X24832665Y-125081499D01*
X24882310Y-125147481D01*
X24947831Y-125239051D01*
X24994505Y-125303891D01*
X25229690Y-125592923D01*
X25498938Y-125871839D01*
X25788814Y-126127562D01*
X26085884Y-126347010D01*
X26113927Y-126365793D01*
X26188924Y-126417539D01*
X26241218Y-126455938D01*
X26260861Y-126473782D01*
X26246381Y-126473175D01*
X26196558Y-126446174D01*
X26116142Y-126394156D01*
X26010245Y-126320452D01*
X25883982Y-126228391D01*
X25870687Y-126218443D01*
X25681010Y-126063627D01*
X25483896Y-125881447D01*
X25289478Y-125682732D01*
X25107892Y-125478308D01*
X24949270Y-125279002D01*
X24823746Y-125095641D01*
X24810216Y-125073166D01*
X24793496Y-125040733D01*
X24802020Y-125044714D01*
G37*
G36*
X29265561Y-48785138D02*
G01*
X29311912Y-48806652D01*
X29329173Y-48820807D01*
X29324625Y-48831299D01*
X29307412Y-48828167D01*
X29261061Y-48806652D01*
X29243800Y-48792497D01*
X29248349Y-48782006D01*
X29265561Y-48785138D01*
G37*
G36*
X29203912Y-138244973D02*
G01*
X29122892Y-138504719D01*
X29042993Y-138760889D01*
X28965678Y-139008800D01*
X28892406Y-139243766D01*
X28824641Y-139461105D01*
X28763842Y-139656132D01*
X28711472Y-139824162D01*
X28622073Y-140111041D01*
X28352757Y-140103842D01*
X28083440Y-140096642D01*
X27782108Y-139130476D01*
X27767154Y-139082519D01*
X27699851Y-138866505D01*
X27636282Y-138662178D01*
X27578349Y-138475682D01*
X27527959Y-138313157D01*
X27487015Y-138180745D01*
X27457423Y-138084587D01*
X27441087Y-138030826D01*
X27401397Y-137897343D01*
X28021727Y-137897343D01*
X28179548Y-138393188D01*
X28226380Y-138539110D01*
X28280138Y-138702102D01*
X28320884Y-138819062D01*
X28349230Y-138891645D01*
X28365788Y-138921501D01*
X28371171Y-138910286D01*
X28371375Y-138908992D01*
X28381011Y-138874824D01*
X28403389Y-138800969D01*
X28436181Y-138694960D01*
X28477061Y-138564329D01*
X28523700Y-138416609D01*
X28531273Y-138392698D01*
X28577227Y-138246552D01*
X28617039Y-138118187D01*
X28648373Y-138015267D01*
X28668889Y-137945454D01*
X28676253Y-137916412D01*
X28675538Y-137915148D01*
X28644058Y-137908187D01*
X28572818Y-137902531D01*
X28471304Y-137898732D01*
X28349002Y-137897343D01*
X28021727Y-137897343D01*
X27401397Y-137897343D01*
X27049049Y-137897343D01*
X27049049Y-137261707D01*
X27128046Y-137261707D01*
X27139945Y-137261545D01*
X27187890Y-137252319D01*
X27193579Y-137226622D01*
X27176466Y-137178155D01*
X27148986Y-137095537D01*
X27114754Y-136989997D01*
X27076980Y-136871720D01*
X27038874Y-136750887D01*
X27003647Y-136637682D01*
X26974510Y-136542288D01*
X26954673Y-136474887D01*
X26947348Y-136445663D01*
X26947461Y-136445041D01*
X26974318Y-136436358D01*
X27041644Y-136429318D01*
X27139716Y-136424628D01*
X27258809Y-136422996D01*
X27570270Y-136423323D01*
X27826886Y-137248995D01*
X28877618Y-137262733D01*
X29010448Y-136842701D01*
X29143278Y-136422668D01*
X29772996Y-136422668D01*
X29754793Y-136479875D01*
X29754325Y-136481354D01*
X29742459Y-136519231D01*
X29717101Y-136600374D01*
X29679714Y-136720098D01*
X29631758Y-136873719D01*
X29574695Y-137056552D01*
X29509985Y-137263915D01*
X29439091Y-137491123D01*
X29363473Y-137733491D01*
X29306407Y-137916412D01*
X29284593Y-137986336D01*
X29203912Y-138244973D01*
G37*
G36*
X35486276Y-156330776D02*
G01*
X35482732Y-156365752D01*
X35473452Y-156362558D01*
X35470094Y-156351049D01*
X35473452Y-156298995D01*
X35482280Y-156294682D01*
X35486276Y-156330776D01*
G37*
G36*
X27638601Y-118226121D02*
G01*
X27650370Y-118235272D01*
X27623240Y-118241482D01*
X27597452Y-118239684D01*
X27589869Y-118228128D01*
X27598864Y-118223090D01*
X27638601Y-118226121D01*
G37*
G36*
X26665661Y-99235865D02*
G01*
X26663863Y-99261653D01*
X26652307Y-99269236D01*
X26647268Y-99260240D01*
X26650299Y-99220504D01*
X26659451Y-99208735D01*
X26665661Y-99235865D01*
G37*
G36*
X22212593Y-154807841D02*
G01*
X22188663Y-154867726D01*
X22165105Y-154909858D01*
X22148535Y-154922021D01*
X22147968Y-154921252D01*
X22153142Y-154891682D01*
X22177073Y-154839280D01*
X22197530Y-154804392D01*
X22215013Y-154785416D01*
X22212593Y-154807841D01*
G37*
G36*
X28173828Y-127098980D02*
G01*
X28186339Y-127102305D01*
X28178868Y-127108047D01*
X28129630Y-127110551D01*
X28102695Y-127110222D01*
X28066183Y-127106366D01*
X28072126Y-127099493D01*
X28107579Y-127094887D01*
X28173828Y-127098980D01*
G37*
G36*
X29496246Y-118201225D02*
G01*
X29500559Y-118210054D01*
X29464465Y-118214049D01*
X29429489Y-118210505D01*
X29432683Y-118201225D01*
X29444192Y-118197867D01*
X29496246Y-118201225D01*
G37*
G36*
X26565966Y-118612158D02*
G01*
X26553253Y-118624870D01*
X26540541Y-118612158D01*
X26553253Y-118599445D01*
X26565966Y-118612158D01*
G37*
G36*
X32945741Y-123847677D02*
G01*
X32943943Y-123873465D01*
X32932387Y-123881047D01*
X32927348Y-123872052D01*
X32930379Y-123832315D01*
X32939531Y-123820547D01*
X32945741Y-123847677D01*
G37*
G36*
X22638198Y-161326872D02*
G01*
X22667891Y-161367360D01*
X22704567Y-161428574D01*
X22729532Y-161479425D01*
X22688128Y-161428574D01*
X22658436Y-161388086D01*
X22621760Y-161326872D01*
X22596795Y-161276022D01*
X22638198Y-161326872D01*
G37*
G36*
X21650309Y-158471106D02*
G01*
X21652960Y-158517363D01*
X21652714Y-158534614D01*
X21648702Y-158569771D01*
X21641333Y-158561857D01*
X21637379Y-158537353D01*
X21641333Y-158472868D01*
X21643710Y-158465655D01*
X21650309Y-158471106D01*
G37*
G36*
X29811945Y-118277390D02*
G01*
X29815923Y-118285037D01*
X29794995Y-118294340D01*
X29781535Y-118292505D01*
X29778045Y-118277390D01*
X29781771Y-118274347D01*
X29811945Y-118277390D01*
G37*
G36*
X34140244Y-161962508D02*
G01*
X34096491Y-162019075D01*
X33817141Y-162348488D01*
X33500751Y-162674626D01*
X33158444Y-162987226D01*
X32801345Y-163276024D01*
X32440580Y-163530755D01*
X32431111Y-163536930D01*
X32330150Y-163602097D01*
X32245970Y-163655241D01*
X32187126Y-163691035D01*
X32162171Y-163704150D01*
X32159760Y-163703953D01*
X32160281Y-163696315D01*
X32185057Y-163675122D01*
X32238793Y-163637003D01*
X32326190Y-163578588D01*
X32451952Y-163496506D01*
X32762966Y-163280567D01*
X33154317Y-162968133D01*
X33522233Y-162628367D01*
X33853067Y-162273185D01*
X33867363Y-162256530D01*
X33953815Y-162156591D01*
X34031303Y-162068241D01*
X34091836Y-162000530D01*
X34127420Y-161962508D01*
X34178994Y-161911657D01*
X34140244Y-161962508D01*
G37*
G36*
X31223319Y-151147900D02*
G01*
X31269670Y-151169415D01*
X31286931Y-151183570D01*
X31282383Y-151194062D01*
X31265170Y-151190930D01*
X31218819Y-151169415D01*
X31201558Y-151155260D01*
X31206106Y-151144768D01*
X31223319Y-151147900D01*
G37*
G36*
X34457476Y-153814340D02*
G01*
X34480240Y-153841057D01*
X34520321Y-153898567D01*
X34570611Y-153975748D01*
X34624006Y-154061480D01*
X34673398Y-154144641D01*
X34711680Y-154214110D01*
X34721330Y-154233116D01*
X34744508Y-154284142D01*
X34744807Y-154296544D01*
X34725525Y-154273905D01*
X34689964Y-154219807D01*
X34641422Y-154137833D01*
X34591284Y-154051297D01*
X34537769Y-153961745D01*
X34496897Y-153896292D01*
X34485627Y-153878600D01*
X34459794Y-153832246D01*
X34455785Y-153813659D01*
X34457476Y-153814340D01*
G37*
G36*
X21963964Y-159864911D02*
G01*
X21962129Y-159878371D01*
X21947014Y-159881861D01*
X21943971Y-159878134D01*
X21947014Y-159847960D01*
X21954661Y-159843983D01*
X21963964Y-159864911D01*
G37*
G36*
X22140494Y-154972106D02*
G01*
X22126088Y-155020384D01*
X22115675Y-155040731D01*
X22098332Y-155049796D01*
X22096569Y-155033623D01*
X22113413Y-154991492D01*
X22134579Y-154962473D01*
X22140494Y-154972106D01*
G37*
G36*
X24328529Y-121243689D02*
G01*
X24326694Y-121257149D01*
X24311578Y-121260640D01*
X24308536Y-121256913D01*
X24311578Y-121226739D01*
X24319226Y-121222761D01*
X24328529Y-121243689D01*
G37*
G36*
X26621584Y-164373268D02*
G01*
X26633353Y-164382420D01*
X26606223Y-164388629D01*
X26580435Y-164386831D01*
X26572852Y-164375275D01*
X26581847Y-164370237D01*
X26621584Y-164373268D01*
G37*
G36*
X27406729Y-198717618D02*
G01*
X27425060Y-198755201D01*
X27459459Y-198833308D01*
X27507831Y-198946933D01*
X27568076Y-199091072D01*
X27638099Y-199260719D01*
X27715801Y-199450869D01*
X27799086Y-199656518D01*
X27879434Y-199854765D01*
X27973435Y-200083218D01*
X28050402Y-200265563D01*
X28110734Y-200402695D01*
X28154827Y-200495510D01*
X28183078Y-200544903D01*
X28195884Y-200551769D01*
X28204357Y-200523917D01*
X28225034Y-200451138D01*
X28255872Y-200340358D01*
X28295241Y-200197496D01*
X28341510Y-200028475D01*
X28393049Y-199839215D01*
X28448226Y-199635637D01*
X28683437Y-198765811D01*
X29213791Y-198765811D01*
X29263630Y-198765896D01*
X29416802Y-198767271D01*
X29549012Y-198770125D01*
X29652788Y-198774190D01*
X29720657Y-198779198D01*
X29745149Y-198784880D01*
X29742978Y-198796229D01*
X29728731Y-198851278D01*
X29702375Y-198947169D01*
X29665287Y-199079180D01*
X29618842Y-199242589D01*
X29564420Y-199432676D01*
X29503396Y-199644718D01*
X29437149Y-199873994D01*
X29367055Y-200115783D01*
X29294492Y-200365362D01*
X29220838Y-200618009D01*
X29147468Y-200869004D01*
X29075762Y-201113625D01*
X29007095Y-201347150D01*
X28942846Y-201564857D01*
X28884391Y-201762025D01*
X28833108Y-201933932D01*
X28790374Y-202075857D01*
X28757567Y-202183078D01*
X28736062Y-202250873D01*
X28727239Y-202274520D01*
X28722563Y-202267518D01*
X28700073Y-202221029D01*
X28661310Y-202135091D01*
X28608371Y-202014541D01*
X28543357Y-201864213D01*
X28468365Y-201688945D01*
X28385495Y-201493571D01*
X28296846Y-201282929D01*
X28247392Y-201165235D01*
X28161622Y-200962403D01*
X28082752Y-200777508D01*
X28012886Y-200615385D01*
X27954127Y-200480870D01*
X27908579Y-200378802D01*
X27878346Y-200314015D01*
X27865531Y-200291345D01*
X27859864Y-200299799D01*
X27835728Y-200348454D01*
X27795023Y-200436176D01*
X27739885Y-200558186D01*
X27672450Y-200709704D01*
X27594853Y-200885950D01*
X27509230Y-201082145D01*
X27417718Y-201293507D01*
X27360501Y-201425724D01*
X27272567Y-201627117D01*
X27191855Y-201809793D01*
X27120486Y-201969074D01*
X27060582Y-202100285D01*
X27014262Y-202198750D01*
X26983648Y-202259791D01*
X26970861Y-202278734D01*
X26962778Y-202255553D01*
X26942150Y-202187251D01*
X26910378Y-202078260D01*
X26868691Y-201932914D01*
X26818320Y-201755546D01*
X26760497Y-201550492D01*
X26696451Y-201322087D01*
X26627412Y-201074664D01*
X26554612Y-200812558D01*
X26495757Y-200601015D01*
X26421925Y-200337962D01*
X26351020Y-200087819D01*
X26284541Y-199855751D01*
X26223986Y-199646918D01*
X26170855Y-199466483D01*
X26126648Y-199319609D01*
X26092863Y-199211458D01*
X26070999Y-199147193D01*
X26031632Y-199042069D01*
X25994608Y-198936312D01*
X25974096Y-198863053D01*
X25968497Y-198813965D01*
X25976211Y-198780719D01*
X25995637Y-198754988D01*
X26038000Y-198729680D01*
X26087686Y-198743953D01*
X26133617Y-198805572D01*
X26173625Y-198912617D01*
X26201429Y-199009465D01*
X26237288Y-199131486D01*
X26272481Y-199248895D01*
X26291544Y-199313657D01*
X26324966Y-199431565D01*
X26365098Y-199576476D01*
X26408482Y-199735873D01*
X26451657Y-199897243D01*
X26490349Y-200041121D01*
X26526043Y-200169788D01*
X26555939Y-200273395D01*
X26577711Y-200343888D01*
X26589036Y-200373214D01*
X26589109Y-200373286D01*
X26603502Y-200354533D01*
X26636674Y-200294680D01*
X26686144Y-200198707D01*
X26749432Y-200071597D01*
X26824057Y-199918329D01*
X26907539Y-199743884D01*
X26997398Y-199553244D01*
X26997844Y-199552290D01*
X27087813Y-199360871D01*
X27171305Y-199184850D01*
X27245831Y-199029348D01*
X27308906Y-198899486D01*
X27358040Y-198800386D01*
X27390746Y-198737171D01*
X27404538Y-198714961D01*
X27406729Y-198717618D01*
G37*
G36*
X24500881Y-120788622D02*
G01*
X24476951Y-120848506D01*
X24453394Y-120890639D01*
X24436823Y-120902801D01*
X24436257Y-120902033D01*
X24441430Y-120872463D01*
X24465361Y-120820061D01*
X24485818Y-120785172D01*
X24503301Y-120766196D01*
X24500881Y-120788622D01*
G37*
G36*
X30977277Y-118790896D02*
G01*
X30989975Y-118798330D01*
X31183075Y-118925226D01*
X31389617Y-119083460D01*
X31599869Y-119263849D01*
X31804098Y-119457208D01*
X31992571Y-119654354D01*
X32155554Y-119846102D01*
X32283315Y-120023269D01*
X32340345Y-120112258D01*
X32281734Y-120037909D01*
X32238985Y-119984006D01*
X32021939Y-119721839D01*
X31818046Y-119497057D01*
X31620050Y-119302445D01*
X31420694Y-119130786D01*
X31212720Y-118974862D01*
X31184557Y-118955102D01*
X31059863Y-118866769D01*
X30977088Y-118806417D01*
X30935932Y-118773811D01*
X30936096Y-118768715D01*
X30977277Y-118790896D01*
G37*
G36*
X30266835Y-49570559D02*
G01*
X30290791Y-49594840D01*
X30295527Y-49603842D01*
X30293792Y-49620266D01*
X30289322Y-49619122D01*
X30265366Y-49594840D01*
X30260630Y-49585839D01*
X30262364Y-49569415D01*
X30266835Y-49570559D01*
G37*
G36*
X31134068Y-164195708D02*
G01*
X31138045Y-164203356D01*
X31117117Y-164212658D01*
X31103657Y-164210823D01*
X31100167Y-164195708D01*
X31103894Y-164192665D01*
X31134068Y-164195708D01*
G37*
G36*
X26718519Y-51323769D02*
G01*
X26716684Y-51337230D01*
X26701568Y-51340720D01*
X26698525Y-51336993D01*
X26701568Y-51306819D01*
X26709216Y-51302841D01*
X26718519Y-51323769D01*
G37*
G36*
X32286687Y-151690544D02*
G01*
X32345657Y-151726030D01*
X32443908Y-151791195D01*
X32563782Y-151874783D01*
X32695412Y-151969666D01*
X32828931Y-152068714D01*
X32954470Y-152164799D01*
X33062162Y-152250791D01*
X33190950Y-152360633D01*
X33401107Y-152554015D01*
X33614663Y-152765795D01*
X33822669Y-152986372D01*
X34016179Y-153206142D01*
X34186245Y-153415505D01*
X34323920Y-153604858D01*
X34336023Y-153622937D01*
X34373744Y-153681594D01*
X34382716Y-153700817D01*
X34364048Y-153681879D01*
X34318849Y-153626054D01*
X34248228Y-153534618D01*
X34153295Y-153408844D01*
X34038580Y-153261930D01*
X33783220Y-152967902D01*
X33495701Y-152673372D01*
X33186721Y-152388471D01*
X32866978Y-152123329D01*
X32547171Y-151888076D01*
X32543490Y-151885551D01*
X32412384Y-151794796D01*
X32320267Y-151729248D01*
X32268023Y-151689577D01*
X32256535Y-151676452D01*
X32286687Y-151690544D01*
G37*
G36*
X22854128Y-161660191D02*
G01*
X22892237Y-161707107D01*
X22942321Y-161774469D01*
X22984932Y-161836538D01*
X23009282Y-161877941D01*
X23008598Y-161887586D01*
X22989626Y-161869418D01*
X22952501Y-161823831D01*
X22909403Y-161765322D01*
X22869658Y-161707133D01*
X22842593Y-161662508D01*
X22837535Y-161644690D01*
X22854128Y-161660191D01*
G37*
G36*
X27302455Y-168253716D02*
G01*
X27272535Y-168531380D01*
X27197021Y-168790252D01*
X27077229Y-169026869D01*
X26914476Y-169237767D01*
X26779222Y-169368898D01*
X26591627Y-169505380D01*
X26391774Y-169598602D01*
X26171872Y-169652923D01*
X26081155Y-169663329D01*
X25964482Y-169671623D01*
X25847533Y-169675953D01*
X25650321Y-169679125D01*
X25656259Y-167983153D01*
X26184459Y-167983153D01*
X26184585Y-168215662D01*
X26184737Y-168316485D01*
X26185879Y-168505248D01*
X26188020Y-168674108D01*
X26191014Y-168816874D01*
X26194714Y-168927357D01*
X26198976Y-168999369D01*
X26203654Y-169026719D01*
X26211066Y-169029117D01*
X26258195Y-169018847D01*
X26327999Y-168984644D01*
X26408279Y-168933993D01*
X26486833Y-168874381D01*
X26551462Y-168813295D01*
X26599303Y-168756428D01*
X26686854Y-168615395D01*
X26739818Y-168457227D01*
X26763607Y-168268014D01*
X26765919Y-168213659D01*
X26764302Y-168104391D01*
X26749970Y-168014229D01*
X26720157Y-167921088D01*
X26652417Y-167773791D01*
X26536971Y-167611474D01*
X26394678Y-167491315D01*
X26359284Y-167468565D01*
X26309240Y-167437119D01*
X26269763Y-167417786D01*
X26239605Y-167414871D01*
X26217519Y-167432678D01*
X26202254Y-167475509D01*
X26192565Y-167547668D01*
X26187201Y-167653460D01*
X26184915Y-167797187D01*
X26184459Y-167983153D01*
X25656259Y-167983153D01*
X25656842Y-167816712D01*
X25663364Y-165954300D01*
X25923355Y-165947061D01*
X26183347Y-165939822D01*
X26190322Y-166365466D01*
X26197297Y-166791111D01*
X26295756Y-166811543D01*
X26309197Y-166814518D01*
X26455040Y-166865683D01*
X26611453Y-166949347D01*
X26763086Y-167056148D01*
X26894588Y-167176726D01*
X26931767Y-167218016D01*
X27090038Y-167438332D01*
X27206651Y-167683204D01*
X27278611Y-167945014D01*
X27302705Y-168213659D01*
X27302928Y-168216148D01*
X27302455Y-168253716D01*
G37*
G36*
X24451123Y-124372557D02*
G01*
X24481081Y-124421867D01*
X24490229Y-124439029D01*
X24518438Y-124499253D01*
X24529801Y-124536282D01*
X24528212Y-124539811D01*
X24511040Y-124522029D01*
X24481081Y-124472718D01*
X24471934Y-124455557D01*
X24443724Y-124395333D01*
X24432362Y-124358304D01*
X24433951Y-124354775D01*
X24451123Y-124372557D01*
G37*
G36*
X32896897Y-124015061D02*
G01*
X32895062Y-124028521D01*
X32879947Y-124032011D01*
X32876904Y-124028284D01*
X32879947Y-123998110D01*
X32887594Y-123994133D01*
X32896897Y-124015061D01*
G37*
G36*
X35386582Y-155883713D02*
G01*
X35384784Y-155909501D01*
X35373228Y-155917084D01*
X35368189Y-155908088D01*
X35371220Y-155868351D01*
X35380372Y-155856583D01*
X35386582Y-155883713D01*
G37*
G36*
X34905506Y-160742088D02*
G01*
X34892793Y-160754800D01*
X34880080Y-160742088D01*
X34892793Y-160729375D01*
X34905506Y-160742088D01*
G37*
G36*
X24353954Y-121167413D02*
G01*
X24352119Y-121180873D01*
X24337004Y-121184363D01*
X24333961Y-121180637D01*
X24337004Y-121150463D01*
X24344651Y-121146485D01*
X24353954Y-121167413D01*
G37*
G36*
X30003166Y-164525820D02*
G01*
X30014934Y-164534972D01*
X29987805Y-164541182D01*
X29962017Y-164539384D01*
X29954434Y-164527828D01*
X29963429Y-164522789D01*
X30003166Y-164525820D01*
G37*
G36*
X30523857Y-164399111D02*
G01*
X30527835Y-164406759D01*
X30506907Y-164416062D01*
X30493447Y-164414227D01*
X30489957Y-164399111D01*
X30493683Y-164396068D01*
X30523857Y-164399111D01*
G37*
G36*
X27882129Y-97828584D02*
G01*
X27864214Y-97843308D01*
X27812180Y-97874313D01*
X27735536Y-97915861D01*
X27732685Y-97917354D01*
X27644957Y-97963197D01*
X27592836Y-97989647D01*
X27567066Y-98000691D01*
X27558392Y-98000315D01*
X27557558Y-97992504D01*
X27558467Y-97990596D01*
X27586779Y-97970429D01*
X27644259Y-97937845D01*
X27716664Y-97900082D01*
X27789753Y-97864378D01*
X27849281Y-97837973D01*
X27881007Y-97828106D01*
X27882129Y-97828584D01*
G37*
G36*
X31061192Y-164217937D02*
G01*
X31040841Y-164238084D01*
X31019061Y-164250071D01*
X30977277Y-164262730D01*
X30969639Y-164258230D01*
X30989990Y-164238084D01*
X31011770Y-164226096D01*
X31053554Y-164213437D01*
X31061192Y-164217937D01*
G37*
G36*
X30778112Y-164322835D02*
G01*
X30782089Y-164330483D01*
X30761161Y-164339785D01*
X30747701Y-164337950D01*
X30744211Y-164322835D01*
X30747938Y-164319792D01*
X30778112Y-164322835D01*
G37*
G36*
X30650985Y-150949061D02*
G01*
X30654962Y-150956709D01*
X30634034Y-150966012D01*
X30620574Y-150964177D01*
X30617084Y-150949061D01*
X30620810Y-150946018D01*
X30650985Y-150949061D01*
G37*
G36*
X32971166Y-123745975D02*
G01*
X32969368Y-123771763D01*
X32957812Y-123779346D01*
X32952774Y-123770351D01*
X32955805Y-123730614D01*
X32964957Y-123718845D01*
X32971166Y-123745975D01*
G37*
G36*
X24142001Y-123180616D02*
G01*
X24144652Y-123226872D01*
X24144406Y-123244123D01*
X24140394Y-123279280D01*
X24133024Y-123271367D01*
X24129070Y-123246863D01*
X24133024Y-123182378D01*
X24135401Y-123175164D01*
X24142001Y-123180616D01*
G37*
G36*
X21731121Y-159000446D02*
G01*
X21727577Y-159035422D01*
X21718297Y-159032228D01*
X21714938Y-159020719D01*
X21718297Y-158968664D01*
X21727125Y-158964351D01*
X21731121Y-159000446D01*
G37*
G36*
X30401310Y-118483830D02*
G01*
X30456056Y-118510456D01*
X30457959Y-118511550D01*
X30493853Y-118536478D01*
X30494194Y-118546792D01*
X30459951Y-118537082D01*
X30405205Y-118510456D01*
X30403302Y-118509362D01*
X30367409Y-118484434D01*
X30367067Y-118474120D01*
X30401310Y-118483830D01*
G37*
G36*
X29105289Y-48737675D02*
G01*
X29172072Y-48755801D01*
X29197671Y-48771339D01*
X29184702Y-48776682D01*
X29142979Y-48771503D01*
X29083083Y-48755801D01*
X29060432Y-48748192D01*
X29042307Y-48737837D01*
X29070371Y-48734697D01*
X29105289Y-48737675D01*
G37*
G36*
X29445396Y-127049273D02*
G01*
X29449709Y-127058102D01*
X29413614Y-127062097D01*
X29378638Y-127058553D01*
X29381832Y-127049273D01*
X29393341Y-127045915D01*
X29445396Y-127049273D01*
G37*
G36*
X28746196Y-127123599D02*
G01*
X28754508Y-127124154D01*
X28780457Y-127127521D01*
X28760499Y-127130260D01*
X28698918Y-127132100D01*
X28600000Y-127132773D01*
X28582578Y-127132756D01*
X28489108Y-127131887D01*
X28433632Y-127129891D01*
X28420435Y-127127039D01*
X28453804Y-127123599D01*
X28503902Y-127121288D01*
X28629807Y-127119948D01*
X28746196Y-127123599D01*
G37*
G36*
X32566367Y-120468214D02*
G01*
X32553654Y-120480927D01*
X32540941Y-120468214D01*
X32553654Y-120455501D01*
X32566367Y-120468214D01*
G37*
G36*
X25269269Y-163818564D02*
G01*
X25256557Y-163831277D01*
X25243844Y-163818564D01*
X25256557Y-163805851D01*
X25269269Y-163818564D01*
G37*
G36*
X28962313Y-52654478D02*
G01*
X28966625Y-52663307D01*
X28930531Y-52667302D01*
X28895555Y-52663758D01*
X28898749Y-52654478D01*
X28910258Y-52651120D01*
X28962313Y-52654478D01*
G37*
G36*
X24275671Y-121406836D02*
G01*
X24273873Y-121432624D01*
X24262317Y-121440207D01*
X24257278Y-121431211D01*
X24260309Y-121391475D01*
X24269461Y-121379706D01*
X24275671Y-121406836D01*
G37*
G36*
X30956090Y-151050763D02*
G01*
X30960067Y-151058411D01*
X30939139Y-151067713D01*
X30925679Y-151065878D01*
X30922189Y-151050763D01*
X30925916Y-151047720D01*
X30956090Y-151050763D01*
G37*
G36*
X32795195Y-120964010D02*
G01*
X32807183Y-120985790D01*
X32819842Y-121027573D01*
X32815342Y-121035212D01*
X32795195Y-121014860D01*
X32783208Y-120993080D01*
X32770549Y-120951297D01*
X32775049Y-120943659D01*
X32795195Y-120964010D01*
G37*
G36*
X35412007Y-159341571D02*
G01*
X35410209Y-159367359D01*
X35398653Y-159374941D01*
X35393615Y-159365946D01*
X35396646Y-159326209D01*
X35405798Y-159314441D01*
X35412007Y-159341571D01*
G37*
G36*
X27837237Y-52531477D02*
G01*
X27824525Y-52544190D01*
X27811812Y-52531477D01*
X27824525Y-52518764D01*
X27837237Y-52531477D01*
G37*
G36*
X29901464Y-118302397D02*
G01*
X29913233Y-118311549D01*
X29886103Y-118317758D01*
X29860315Y-118315960D01*
X29852732Y-118304404D01*
X29861727Y-118299366D01*
X29901464Y-118302397D01*
G37*
G36*
X30604714Y-118590378D02*
G01*
X30659424Y-118613490D01*
X30735736Y-118650296D01*
X30735833Y-118650345D01*
X30812629Y-118690856D01*
X30867398Y-118723070D01*
X30888288Y-118740017D01*
X30888276Y-118740174D01*
X30866757Y-118735639D01*
X30812048Y-118712527D01*
X30735736Y-118675721D01*
X30735639Y-118675672D01*
X30658843Y-118635161D01*
X30604073Y-118602947D01*
X30583183Y-118586000D01*
X30583196Y-118585843D01*
X30604714Y-118590378D01*
G37*
G36*
X26616817Y-118586732D02*
G01*
X26604104Y-118599445D01*
X26591392Y-118586732D01*
X26604104Y-118574020D01*
X26616817Y-118586732D01*
G37*
G36*
X29635602Y-150719563D02*
G01*
X29639974Y-150720821D01*
X29643738Y-150728560D01*
X29604304Y-150732226D01*
X29598283Y-150732261D01*
X29558481Y-150728852D01*
X29559326Y-150720505D01*
X29580218Y-150715841D01*
X29635602Y-150719563D01*
G37*
G36*
X30911271Y-126495904D02*
G01*
X30877982Y-126519714D01*
X30813872Y-126558997D01*
X30729380Y-126607255D01*
X30701235Y-126622719D01*
X30617285Y-126667034D01*
X30553441Y-126698049D01*
X30521739Y-126709820D01*
X30515484Y-126709818D01*
X30507338Y-126707483D01*
X30516528Y-126698334D01*
X30549908Y-126678043D01*
X30614336Y-126642279D01*
X30716667Y-126586712D01*
X30758655Y-126564264D01*
X30838137Y-126523614D01*
X30893154Y-126498107D01*
X30913714Y-126492519D01*
X30911271Y-126495904D01*
G37*
G36*
X30555751Y-99235865D02*
G01*
X30553953Y-99261653D01*
X30542397Y-99269236D01*
X30537358Y-99260240D01*
X30540389Y-99220504D01*
X30549541Y-99208735D01*
X30555751Y-99235865D01*
G37*
G36*
X30578227Y-100051597D02*
G01*
X30578262Y-100057618D01*
X30574853Y-100097421D01*
X30566506Y-100096576D01*
X30561842Y-100075684D01*
X30565564Y-100020299D01*
X30566822Y-100015928D01*
X30574560Y-100012164D01*
X30578227Y-100051597D01*
G37*
G36*
X30999087Y-165946124D02*
G01*
X31247761Y-165947631D01*
X32197698Y-165954300D01*
X32204861Y-166253049D01*
X32212024Y-166551797D01*
X31689996Y-166551797D01*
X31647092Y-166551836D01*
X31494640Y-166552634D01*
X31362989Y-166554340D01*
X31259652Y-166556789D01*
X31192141Y-166559815D01*
X31167968Y-166563254D01*
X31169410Y-166567316D01*
X31186572Y-166608590D01*
X31221768Y-166691086D01*
X31273310Y-166810903D01*
X31339508Y-166964140D01*
X31418674Y-167146898D01*
X31509120Y-167355277D01*
X31609156Y-167585376D01*
X31717095Y-167833295D01*
X31831247Y-168095136D01*
X31873396Y-168191756D01*
X31986002Y-168449920D01*
X32092119Y-168693253D01*
X32190018Y-168917783D01*
X32277965Y-169119537D01*
X32354232Y-169294544D01*
X32417086Y-169438831D01*
X32464796Y-169548428D01*
X32495632Y-169619361D01*
X32507862Y-169647659D01*
X32508208Y-169648809D01*
X32499942Y-169657125D01*
X32469107Y-169663709D01*
X32411665Y-169668673D01*
X32323576Y-169672129D01*
X32200802Y-169674186D01*
X32039302Y-169674957D01*
X31835039Y-169674553D01*
X31583973Y-169673085D01*
X30646747Y-169666412D01*
X30639584Y-169367663D01*
X30632420Y-169068915D01*
X31141736Y-169068915D01*
X31173872Y-169068885D01*
X31325376Y-169067892D01*
X31456451Y-169065661D01*
X31559492Y-169062416D01*
X31626894Y-169058385D01*
X31651051Y-169053792D01*
X31649755Y-169049886D01*
X31632912Y-169008879D01*
X31597934Y-168926631D01*
X31546519Y-168807059D01*
X31480367Y-168654080D01*
X31401176Y-168471611D01*
X31310645Y-168263570D01*
X31210475Y-168033873D01*
X31102363Y-167786439D01*
X30988009Y-167525183D01*
X30948125Y-167434134D01*
X30835206Y-167176271D01*
X30728764Y-166933072D01*
X30630542Y-166708527D01*
X30542282Y-166506623D01*
X30465726Y-166331350D01*
X30402618Y-166186696D01*
X30354698Y-166076649D01*
X30323710Y-166005197D01*
X30311395Y-165976330D01*
X30312592Y-165968716D01*
X30328497Y-165960994D01*
X30364460Y-165954995D01*
X30424880Y-165950584D01*
X30514154Y-165947627D01*
X30636682Y-165945987D01*
X30796860Y-165945531D01*
X30999087Y-165946124D01*
G37*
G36*
X30130026Y-118374527D02*
G01*
X30176377Y-118396042D01*
X30193637Y-118410197D01*
X30189089Y-118420688D01*
X30171877Y-118417556D01*
X30125526Y-118396042D01*
X30108265Y-118381887D01*
X30112813Y-118371395D01*
X30130026Y-118374527D01*
G37*
G36*
X35536185Y-158708054D02*
G01*
X35536220Y-158714075D01*
X35532811Y-158753877D01*
X35524464Y-158753032D01*
X35519800Y-158732140D01*
X35523522Y-158676756D01*
X35524780Y-158672384D01*
X35532518Y-158668620D01*
X35536185Y-158708054D01*
G37*
G36*
X22103931Y-160285531D02*
G01*
X22129229Y-160322568D01*
X22153891Y-160372504D01*
X22165566Y-160411557D01*
X22165549Y-160412294D01*
X22154527Y-160410456D01*
X22129229Y-160373419D01*
X22104567Y-160323483D01*
X22092893Y-160284430D01*
X22092910Y-160283693D01*
X22103931Y-160285531D01*
G37*
G36*
X26977273Y-126815768D02*
G01*
X27023624Y-126837283D01*
X27040885Y-126851438D01*
X27036337Y-126861930D01*
X27019124Y-126858798D01*
X26972773Y-126837283D01*
X26955512Y-126823128D01*
X26960060Y-126812636D01*
X26977273Y-126815768D01*
G37*
G36*
X27729179Y-164601939D02*
G01*
X27736393Y-164604316D01*
X27730942Y-164610916D01*
X27684685Y-164613566D01*
X27667434Y-164613320D01*
X27632277Y-164609308D01*
X27640190Y-164601939D01*
X27664695Y-164597985D01*
X27729179Y-164601939D01*
G37*
G36*
X34411179Y-153738527D02*
G01*
X34435135Y-153762808D01*
X34439871Y-153771810D01*
X34438136Y-153788234D01*
X34433666Y-153787090D01*
X34409710Y-153762808D01*
X34404974Y-153753806D01*
X34406709Y-153737383D01*
X34411179Y-153738527D01*
G37*
G36*
X26850146Y-126764917D02*
G01*
X26896497Y-126786432D01*
X26913757Y-126800587D01*
X26909209Y-126811079D01*
X26891997Y-126807947D01*
X26845646Y-126786432D01*
X26828385Y-126772277D01*
X26832933Y-126761785D01*
X26850146Y-126764917D01*
G37*
G36*
X27626994Y-150719563D02*
G01*
X27631365Y-150720821D01*
X27635130Y-150728560D01*
X27595696Y-150732226D01*
X27589675Y-150732261D01*
X27549872Y-150728852D01*
X27550717Y-150720505D01*
X27571609Y-150715841D01*
X27626994Y-150719563D01*
G37*
G36*
X23896296Y-147297636D02*
G01*
X23753486Y-147312375D01*
X23606975Y-147341766D01*
X23421163Y-147421102D01*
X23251128Y-147541410D01*
X23104362Y-147697105D01*
X22988360Y-147882602D01*
X22981797Y-147895898D01*
X22945094Y-147972823D01*
X22919883Y-148036453D01*
X22903633Y-148099613D01*
X22893809Y-148175130D01*
X22887879Y-148275831D01*
X22883309Y-148414543D01*
X22873389Y-148754000D01*
X23896296Y-148754000D01*
X23896296Y-149033679D01*
X22879279Y-149033679D01*
X22879279Y-149364210D01*
X23870871Y-149364210D01*
X23870871Y-149669315D01*
X22599600Y-149669315D01*
X22599600Y-149033679D01*
X22421622Y-149033679D01*
X22421622Y-148754000D01*
X22599600Y-148754000D01*
X22599600Y-148454236D01*
X22605536Y-148254126D01*
X22627662Y-148065172D01*
X22668245Y-147902804D01*
X22729468Y-147755276D01*
X22754276Y-147708268D01*
X22898607Y-147498356D01*
X23079377Y-147319041D01*
X23290107Y-147174935D01*
X23524317Y-147070651D01*
X23775526Y-147010799D01*
X23896296Y-146993871D01*
X23896296Y-147297636D01*
G37*
G36*
X34467966Y-161499519D02*
G01*
X34451447Y-161535060D01*
X34415351Y-161587483D01*
X34405881Y-161599273D01*
X34383405Y-161619597D01*
X34385236Y-161602916D01*
X34412048Y-161555701D01*
X34444646Y-161510969D01*
X34464985Y-161492138D01*
X34467966Y-161499519D01*
G37*
G36*
X26506640Y-150974487D02*
G01*
X26510618Y-150982134D01*
X26489690Y-150991437D01*
X26476230Y-150989602D01*
X26472740Y-150974487D01*
X26476466Y-150971444D01*
X26506640Y-150974487D01*
G37*
G36*
X26354088Y-151025338D02*
G01*
X26358065Y-151032985D01*
X26337137Y-151042288D01*
X26323677Y-151040453D01*
X26320187Y-151025338D01*
X26323914Y-151022295D01*
X26354088Y-151025338D01*
G37*
G36*
X26850413Y-150872367D02*
G01*
X26862182Y-150881519D01*
X26835052Y-150887728D01*
X26809264Y-150885930D01*
X26801681Y-150874374D01*
X26810676Y-150869336D01*
X26850413Y-150872367D01*
G37*
G36*
X30596330Y-99553659D02*
G01*
X30598492Y-99605423D01*
X30599323Y-99695641D01*
X30598763Y-99776893D01*
X30596800Y-99837275D01*
X30593750Y-99856602D01*
X30589955Y-99829977D01*
X30587784Y-99793543D01*
X30586102Y-99682849D01*
X30589835Y-99575723D01*
X30593176Y-99544648D01*
X30596330Y-99553659D01*
G37*
G36*
X26532066Y-164348261D02*
G01*
X26536043Y-164355908D01*
X26515115Y-164365211D01*
X26501655Y-164363376D01*
X26498165Y-164348261D01*
X26501892Y-164345218D01*
X26532066Y-164348261D01*
G37*
G36*
X30473007Y-150898210D02*
G01*
X30476984Y-150905858D01*
X30456056Y-150915161D01*
X30442596Y-150913326D01*
X30439106Y-150898210D01*
X30442832Y-150895168D01*
X30473007Y-150898210D01*
G37*
G36*
X33020010Y-123531978D02*
G01*
X33016466Y-123566953D01*
X33007185Y-123563759D01*
X33003827Y-123552250D01*
X33007185Y-123500196D01*
X33016014Y-123495883D01*
X33020010Y-123531978D01*
G37*
G36*
X35236036Y-159941187D02*
G01*
X35234201Y-159954647D01*
X35219086Y-159958137D01*
X35216043Y-159954411D01*
X35219086Y-159924237D01*
X35226733Y-159920259D01*
X35236036Y-159941187D01*
G37*
G36*
X29876039Y-126947042D02*
G01*
X29887807Y-126956193D01*
X29860678Y-126962403D01*
X29834889Y-126960605D01*
X29827307Y-126949049D01*
X29836302Y-126944010D01*
X29876039Y-126947042D01*
G37*
G36*
X31886696Y-163858989D02*
G01*
X31833978Y-163890904D01*
X31759109Y-163931348D01*
X31756630Y-163932626D01*
X31670880Y-163974638D01*
X31607237Y-164001707D01*
X31573356Y-164010968D01*
X31576894Y-163999556D01*
X31583232Y-163994831D01*
X31624683Y-163971137D01*
X31689253Y-163938136D01*
X31763270Y-163902336D01*
X31833065Y-163870244D01*
X31884967Y-163848368D01*
X31905305Y-163843216D01*
X31886696Y-163858989D01*
G37*
G36*
X32922323Y-123938784D02*
G01*
X32920488Y-123952245D01*
X32905372Y-123955735D01*
X32902329Y-123952008D01*
X32905372Y-123921834D01*
X32913020Y-123917856D01*
X32922323Y-123938784D01*
G37*
G36*
X30557758Y-140134780D02*
G01*
X29972973Y-140134780D01*
X29972973Y-136422668D01*
X30557758Y-136422668D01*
X30557758Y-140134780D01*
G37*
G36*
X27333496Y-118302397D02*
G01*
X27345265Y-118311549D01*
X27318135Y-118317758D01*
X27292347Y-118315960D01*
X27284764Y-118304404D01*
X27293759Y-118299366D01*
X27333496Y-118302397D01*
G37*
G36*
X19542980Y-166250855D02*
G01*
X19550125Y-166547411D01*
X19479417Y-166560603D01*
X19470738Y-166562207D01*
X19393039Y-166575893D01*
X19307007Y-166590288D01*
X19208061Y-166614175D01*
X19036641Y-166686942D01*
X18866054Y-166794945D01*
X18709047Y-166930924D01*
X18583676Y-167075179D01*
X18464603Y-167268487D01*
X18384648Y-167482589D01*
X18341688Y-167723523D01*
X18333596Y-167997327D01*
X18340841Y-168242588D01*
X18945498Y-168249407D01*
X19550155Y-168256225D01*
X19542995Y-168554512D01*
X19535836Y-168852798D01*
X18931982Y-168859615D01*
X18328128Y-168866431D01*
X18328128Y-169068915D01*
X19523123Y-169068915D01*
X19523123Y-169679125D01*
X17794194Y-169679125D01*
X17794194Y-168868581D01*
X17698849Y-168860690D01*
X17603504Y-168852798D01*
X17596340Y-168554050D01*
X17589177Y-168255301D01*
X17794194Y-168255301D01*
X17794386Y-167956552D01*
X17795757Y-167856140D01*
X17801336Y-167715385D01*
X17810204Y-167587928D01*
X17821273Y-167492538D01*
X17855182Y-167328159D01*
X17946505Y-167053761D01*
X18074763Y-166800695D01*
X18235730Y-166573102D01*
X18425180Y-166375121D01*
X18638887Y-166210895D01*
X18872624Y-166084563D01*
X19122165Y-166000266D01*
X19383283Y-165962145D01*
X19535836Y-165954300D01*
X19542980Y-166250855D01*
G37*
G36*
X28147110Y-48738433D02*
G01*
X28158878Y-48747585D01*
X28131749Y-48753794D01*
X28105961Y-48751996D01*
X28098378Y-48740440D01*
X28107373Y-48735402D01*
X28147110Y-48738433D01*
G37*
G36*
X23231570Y-201067638D02*
G01*
X23136232Y-201335043D01*
X23005542Y-201577522D01*
X22840650Y-201788217D01*
X22718926Y-201904159D01*
X22513778Y-202047422D01*
X22288695Y-202144699D01*
X22040433Y-202197652D01*
X21877564Y-202208137D01*
X21618504Y-202186448D01*
X21373214Y-202118847D01*
X21145924Y-202008106D01*
X20940862Y-201856993D01*
X20762256Y-201668280D01*
X20614335Y-201444739D01*
X20501327Y-201189138D01*
X20444208Y-200983310D01*
X20402404Y-200708645D01*
X20392555Y-200450925D01*
X21658859Y-200450925D01*
X21658860Y-200483631D01*
X21658982Y-200802111D01*
X21659377Y-201073788D01*
X21660139Y-201302364D01*
X21661363Y-201491536D01*
X21663143Y-201645003D01*
X21665573Y-201766464D01*
X21668747Y-201859619D01*
X21672759Y-201928167D01*
X21677704Y-201975805D01*
X21683676Y-202006234D01*
X21690769Y-202023152D01*
X21699077Y-202030258D01*
X21720544Y-202035327D01*
X21787058Y-202041645D01*
X21870698Y-202042906D01*
X21971849Y-202036964D01*
X22211634Y-201989742D01*
X22430151Y-201898065D01*
X22625079Y-201764145D01*
X22794093Y-201590197D01*
X22934872Y-201378433D01*
X23045091Y-201131067D01*
X23122428Y-200850312D01*
X23137920Y-200754839D01*
X23152982Y-200553012D01*
X23150601Y-200337479D01*
X23131387Y-200128940D01*
X23095946Y-199948094D01*
X23028717Y-199747220D01*
X22907847Y-199507007D01*
X22753487Y-199300380D01*
X22568395Y-199130863D01*
X22355330Y-199001981D01*
X22292797Y-198972963D01*
X22204376Y-198937277D01*
X22123613Y-198915765D01*
X22031006Y-198903859D01*
X21907052Y-198896993D01*
X21658859Y-198887024D01*
X21658859Y-200450925D01*
X20392555Y-200450925D01*
X20391490Y-200423055D01*
X20411934Y-200143072D01*
X20464209Y-199885226D01*
X20536339Y-199675459D01*
X20660715Y-199426574D01*
X20815110Y-199210845D01*
X20995763Y-199030782D01*
X21198914Y-198888892D01*
X21420801Y-198787684D01*
X21657664Y-198729667D01*
X21905741Y-198717350D01*
X22161272Y-198753240D01*
X22319889Y-198801885D01*
X22545831Y-198913241D01*
X22750532Y-199065855D01*
X22928940Y-199254948D01*
X23076002Y-199475738D01*
X23186665Y-199723444D01*
X23236421Y-199885940D01*
X23293982Y-200184458D01*
X23311595Y-200485486D01*
X23306773Y-200553012D01*
X23290408Y-200782166D01*
X23231570Y-201067638D01*
G37*
G36*
X24379380Y-124167613D02*
G01*
X24391367Y-124189393D01*
X24404026Y-124231177D01*
X24399526Y-124238815D01*
X24379380Y-124218464D01*
X24367392Y-124196684D01*
X24354733Y-124154901D01*
X24359233Y-124147262D01*
X24379380Y-124167613D01*
G37*
G36*
X27664027Y-127023318D02*
G01*
X27675795Y-127032470D01*
X27648666Y-127038679D01*
X27622877Y-127036881D01*
X27615295Y-127025325D01*
X27624290Y-127020287D01*
X27664027Y-127023318D01*
G37*
G36*
X28301251Y-52654478D02*
G01*
X28305564Y-52663307D01*
X28269470Y-52667302D01*
X28234494Y-52663758D01*
X28237688Y-52654478D01*
X28249197Y-52651120D01*
X28301251Y-52654478D01*
G37*
G36*
X35515716Y-148853243D02*
G01*
X35795396Y-149239367D01*
X35796370Y-149240713D01*
X35884254Y-149363184D01*
X35960735Y-149471900D01*
X36021145Y-149560050D01*
X36060814Y-149620821D01*
X36075075Y-149647403D01*
X36055809Y-149657819D01*
X35998278Y-149666129D01*
X35915858Y-149669315D01*
X35756641Y-149669315D01*
X35578962Y-149423533D01*
X35508891Y-149328717D01*
X35446514Y-149248330D01*
X35399921Y-149192647D01*
X35375867Y-149170099D01*
X35375127Y-149169985D01*
X35349650Y-149188904D01*
X35302010Y-149241313D01*
X35238751Y-149319533D01*
X35166418Y-149415881D01*
X34982386Y-149669315D01*
X34815318Y-149669315D01*
X34785222Y-149669146D01*
X34706233Y-149665298D01*
X34669071Y-149655255D01*
X34666810Y-149637533D01*
X34685795Y-149609272D01*
X34729848Y-149546264D01*
X34793716Y-149456001D01*
X34872350Y-149345616D01*
X34960703Y-149222241D01*
X35236036Y-148838730D01*
X35236036Y-146999645D01*
X35515716Y-146999645D01*
X35515716Y-148853243D01*
G37*
G36*
X21963964Y-155440886D02*
G01*
X21962129Y-155454347D01*
X21947014Y-155457837D01*
X21943971Y-155454110D01*
X21947014Y-155423936D01*
X21954661Y-155419958D01*
X21963964Y-155440886D01*
G37*
G36*
X32973173Y-121497944D02*
G01*
X32971338Y-121511404D01*
X32956223Y-121514894D01*
X32953180Y-121511167D01*
X32956223Y-121480993D01*
X32963871Y-121477016D01*
X32973173Y-121497944D01*
G37*
G36*
X33045435Y-123404850D02*
G01*
X33041891Y-123439826D01*
X33032611Y-123436632D01*
X33029253Y-123425123D01*
X33032611Y-123373069D01*
X33041439Y-123368756D01*
X33045435Y-123404850D01*
G37*
G36*
X26743944Y-100420266D02*
G01*
X26742109Y-100433726D01*
X26726994Y-100437216D01*
X26723951Y-100433490D01*
X26726994Y-100403316D01*
X26734641Y-100399338D01*
X26743944Y-100420266D01*
G37*
G36*
X30532333Y-100267713D02*
G01*
X30530498Y-100281173D01*
X30515382Y-100284664D01*
X30512339Y-100280937D01*
X30515382Y-100250763D01*
X30523030Y-100246785D01*
X30532333Y-100267713D01*
G37*
G36*
X28962313Y-101674698D02*
G01*
X28966625Y-101683527D01*
X28930531Y-101687523D01*
X28895555Y-101683978D01*
X28898749Y-101674698D01*
X28910258Y-101671340D01*
X28962313Y-101674698D01*
G37*
G36*
X26693093Y-100267713D02*
G01*
X26691258Y-100281173D01*
X26676143Y-100284664D01*
X26673100Y-100280937D01*
X26676143Y-100250763D01*
X26683791Y-100246785D01*
X26693093Y-100267713D01*
G37*
G36*
X24430230Y-124294740D02*
G01*
X24428396Y-124308200D01*
X24413280Y-124311691D01*
X24410237Y-124307964D01*
X24413280Y-124277790D01*
X24420928Y-124273812D01*
X24430230Y-124294740D01*
G37*
G36*
X21862262Y-159547093D02*
G01*
X21874360Y-159581666D01*
X21884114Y-159636082D01*
X21879068Y-159651098D01*
X21862262Y-159623369D01*
X21850165Y-159588796D01*
X21840411Y-159534380D01*
X21845457Y-159519364D01*
X21862262Y-159547093D01*
G37*
G36*
X30727261Y-150974487D02*
G01*
X30731239Y-150982134D01*
X30710311Y-150991437D01*
X30696850Y-150989602D01*
X30693360Y-150974487D01*
X30697087Y-150971444D01*
X30727261Y-150974487D01*
G37*
G36*
X21758553Y-156188818D02*
G01*
X21756756Y-156214606D01*
X21745200Y-156222189D01*
X21740161Y-156213193D01*
X21743192Y-156173457D01*
X21752344Y-156161688D01*
X21758553Y-156188818D01*
G37*
G36*
X31930731Y-151487233D02*
G01*
X31918018Y-151499946D01*
X31905305Y-151487233D01*
X31918018Y-151474520D01*
X31930731Y-151487233D01*
G37*
G36*
X21834830Y-155883713D02*
G01*
X21833032Y-155909501D01*
X21821476Y-155917084D01*
X21816437Y-155908088D01*
X21819469Y-155868351D01*
X21828620Y-155856583D01*
X21834830Y-155883713D01*
G37*
G36*
X21679328Y-156623169D02*
G01*
X21679363Y-156629190D01*
X21675954Y-156668992D01*
X21667607Y-156668147D01*
X21662943Y-156647255D01*
X21666665Y-156591871D01*
X21667923Y-156587499D01*
X21675662Y-156583735D01*
X21679328Y-156623169D01*
G37*
G36*
X22089643Y-155099233D02*
G01*
X22075238Y-155147511D01*
X22064825Y-155167858D01*
X22047482Y-155176923D01*
X22045718Y-155160750D01*
X22062562Y-155118619D01*
X22083728Y-155089601D01*
X22089643Y-155099233D01*
G37*
G36*
X25816653Y-151222084D02*
G01*
X25814815Y-151233106D01*
X25777778Y-151258404D01*
X25727842Y-151283066D01*
X25688789Y-151294740D01*
X25688052Y-151294724D01*
X25689890Y-151283702D01*
X25726927Y-151258404D01*
X25776863Y-151233742D01*
X25815916Y-151222068D01*
X25816653Y-151222084D01*
G37*
G36*
X27949911Y-11975260D02*
G01*
X27859224Y-12222121D01*
X27762173Y-12486362D01*
X27660218Y-12764011D01*
X27595795Y-12939452D01*
X27496128Y-13210811D01*
X27401990Y-13467043D01*
X27314881Y-13704070D01*
X27236299Y-13917817D01*
X27167744Y-14104208D01*
X27110714Y-14259166D01*
X27066708Y-14378615D01*
X27037226Y-14458480D01*
X27023765Y-14494684D01*
X27015235Y-14512783D01*
X27005212Y-14519337D01*
X26992338Y-14508668D01*
X26974787Y-14476325D01*
X26950736Y-14417853D01*
X26918362Y-14328800D01*
X26875842Y-14204713D01*
X26821352Y-14041138D01*
X26753069Y-13833623D01*
X26701614Y-13676884D01*
X26617563Y-13421079D01*
X26527572Y-13147415D01*
X26437084Y-12872439D01*
X26351543Y-12612696D01*
X26276391Y-12384730D01*
X26041539Y-11672818D01*
X25950030Y-11680908D01*
X25872863Y-11671037D01*
X25843792Y-11647393D01*
X26190493Y-11647393D01*
X26389159Y-12266413D01*
X26436048Y-12411696D01*
X26486636Y-12566479D01*
X26530719Y-12699247D01*
X26566075Y-12803387D01*
X26590483Y-12872286D01*
X26601722Y-12899332D01*
X26609838Y-12901660D01*
X26628348Y-12877809D01*
X26635699Y-12857624D01*
X26659034Y-12793834D01*
X26695455Y-12694405D01*
X26742416Y-12566282D01*
X26797372Y-12416413D01*
X26857776Y-12251747D01*
X26903384Y-12126853D01*
X26958610Y-11973914D01*
X27005719Y-11841483D01*
X27042325Y-11736355D01*
X27066039Y-11665323D01*
X27074475Y-11635180D01*
X27070201Y-11630629D01*
X27028229Y-11621720D01*
X26949403Y-11615725D01*
X26843550Y-11612697D01*
X26720500Y-11612687D01*
X26590080Y-11615749D01*
X26462120Y-11621934D01*
X26346448Y-11631296D01*
X26190493Y-11647393D01*
X25843792Y-11647393D01*
X25826176Y-11633065D01*
X25814393Y-11580392D01*
X25840464Y-11526555D01*
X25907341Y-11485089D01*
X25913835Y-11482781D01*
X25949249Y-11465509D01*
X25964440Y-11440372D01*
X25958382Y-11398173D01*
X25930051Y-11329714D01*
X25878420Y-11225797D01*
X25848691Y-11151377D01*
X25838669Y-11073052D01*
X25857423Y-11019122D01*
X25903889Y-10999045D01*
X25906987Y-10999064D01*
X25938360Y-11003908D01*
X25964078Y-11023176D01*
X25989369Y-11065389D01*
X26019462Y-11139068D01*
X26059589Y-11252733D01*
X26125283Y-11443990D01*
X27146527Y-11457742D01*
X27228290Y-11241106D01*
X27310054Y-11024470D01*
X27805195Y-11024470D01*
X27968897Y-11024760D01*
X28096781Y-11026043D01*
X28186124Y-11028876D01*
X28243225Y-11033817D01*
X28274384Y-11041423D01*
X28285898Y-11052253D01*
X28284068Y-11066864D01*
X28278668Y-11081361D01*
X28256810Y-11140581D01*
X28219833Y-11241000D01*
X28169195Y-11378647D01*
X28106355Y-11549552D01*
X28074883Y-11635180D01*
X28032774Y-11749747D01*
X27949911Y-11975260D01*
G37*
G36*
X22370771Y-160843789D02*
G01*
X22358058Y-160856502D01*
X22345346Y-160843789D01*
X22358058Y-160831077D01*
X22370771Y-160843789D01*
G37*
G36*
X30699901Y-164348406D02*
G01*
X30672172Y-164365211D01*
X30637599Y-164377308D01*
X30583183Y-164387062D01*
X30568167Y-164382016D01*
X30595896Y-164365211D01*
X30630469Y-164353113D01*
X30684885Y-164343359D01*
X30699901Y-164348406D01*
G37*
G36*
X21860255Y-155782011D02*
G01*
X21858457Y-155807799D01*
X21846901Y-155815382D01*
X21841863Y-155806387D01*
X21844894Y-155766650D01*
X21854046Y-155754881D01*
X21860255Y-155782011D01*
G37*
G36*
X27905039Y-52552665D02*
G01*
X27909016Y-52560312D01*
X27888088Y-52569615D01*
X27874628Y-52567780D01*
X27871138Y-52552665D01*
X27874865Y-52549622D01*
X27905039Y-52552665D01*
G37*
G36*
X31498499Y-164047393D02*
G01*
X31485786Y-164060106D01*
X31473073Y-164047393D01*
X31485786Y-164034680D01*
X31498499Y-164047393D01*
G37*
G36*
X29714344Y-98030827D02*
G01*
X29754572Y-98057581D01*
X29824525Y-98114795D01*
X29910282Y-98191227D01*
X30001723Y-98277320D01*
X30088731Y-98363518D01*
X30161185Y-98440262D01*
X30208967Y-98497996D01*
X30213446Y-98504785D01*
X30208549Y-98507387D01*
X30174170Y-98478772D01*
X30114963Y-98423064D01*
X30035583Y-98344387D01*
X30034490Y-98343283D01*
X29940271Y-98249809D01*
X29851760Y-98164922D01*
X29778849Y-98097931D01*
X29731432Y-98058148D01*
X29706247Y-98039020D01*
X29688786Y-98021439D01*
X29714344Y-98030827D01*
G37*
G36*
X27957524Y-127073918D02*
G01*
X27961896Y-127075176D01*
X27965660Y-127082914D01*
X27926226Y-127086580D01*
X27920205Y-127086615D01*
X27880403Y-127083206D01*
X27881248Y-127074860D01*
X27902140Y-127070195D01*
X27957524Y-127073918D01*
G37*
G36*
X27335085Y-150771195D02*
G01*
X27339398Y-150780023D01*
X27303303Y-150784019D01*
X27268328Y-150780475D01*
X27271522Y-150771195D01*
X27283031Y-150767837D01*
X27335085Y-150771195D01*
G37*
G36*
X20698227Y-166643174D02*
G01*
X20742109Y-166726837D01*
X20830214Y-166893006D01*
X20910001Y-167041106D01*
X20978472Y-167165714D01*
X21032626Y-167261405D01*
X21069464Y-167322754D01*
X21085985Y-167344337D01*
X21090589Y-167339964D01*
X21116436Y-167299947D01*
X21161223Y-167222595D01*
X21221935Y-167113373D01*
X21295559Y-166977742D01*
X21379082Y-166821166D01*
X21469491Y-166649107D01*
X21831952Y-165954300D01*
X22139500Y-165947161D01*
X22144773Y-165947041D01*
X22262349Y-165945413D01*
X22358439Y-165946026D01*
X22423265Y-165948688D01*
X22447047Y-165953205D01*
X22441069Y-165966634D01*
X22414126Y-166020788D01*
X22367663Y-166112047D01*
X22304061Y-166235801D01*
X22225698Y-166387438D01*
X22134952Y-166562347D01*
X22034202Y-166755919D01*
X21925826Y-166963542D01*
X21847721Y-167113222D01*
X21744468Y-167311932D01*
X21650557Y-167493625D01*
X21568373Y-167653633D01*
X21500301Y-167787291D01*
X21448726Y-167889931D01*
X21416033Y-167956889D01*
X21404605Y-167983496D01*
X21404606Y-167983550D01*
X21416257Y-168010944D01*
X21448999Y-168078092D01*
X21500198Y-168179837D01*
X21567216Y-168311017D01*
X21647419Y-168466475D01*
X21738171Y-168641052D01*
X21836837Y-168829589D01*
X21838541Y-168832834D01*
X21936998Y-169020728D01*
X22027517Y-169194139D01*
X22107469Y-169347983D01*
X22174228Y-169477176D01*
X22225166Y-169576632D01*
X22257656Y-169641269D01*
X22269069Y-169666002D01*
X22269063Y-169666086D01*
X22244563Y-169671152D01*
X22179217Y-169675298D01*
X22082874Y-169678097D01*
X21965383Y-169679125D01*
X21661696Y-169679125D01*
X21491564Y-169354951D01*
X21487539Y-169347282D01*
X21412755Y-169205114D01*
X21334316Y-169056483D01*
X21261297Y-168918561D01*
X21202775Y-168808523D01*
X21084117Y-168586270D01*
X20797217Y-169132697D01*
X20510317Y-169679125D01*
X20206098Y-169679125D01*
X20088942Y-169677792D01*
X19993051Y-169674215D01*
X19928285Y-169668934D01*
X19904505Y-169662491D01*
X19904527Y-169662276D01*
X19916848Y-169634835D01*
X19950013Y-169567652D01*
X20001420Y-169465825D01*
X20068468Y-169334452D01*
X20148556Y-169178631D01*
X20239081Y-169003460D01*
X20337444Y-168814037D01*
X20770383Y-167982218D01*
X20262680Y-167006397D01*
X20196872Y-166879813D01*
X20093315Y-166680194D01*
X19998253Y-166496440D01*
X19914192Y-166333419D01*
X19843635Y-166196003D01*
X19789086Y-166089062D01*
X19753051Y-166017465D01*
X19738031Y-165986082D01*
X19734917Y-165975803D01*
X19738478Y-165960263D01*
X19761567Y-165950279D01*
X19812015Y-165944645D01*
X19897649Y-165942150D01*
X20026300Y-165941587D01*
X20331514Y-165941587D01*
X20698227Y-166643174D01*
G37*
G36*
X26337137Y-126506752D02*
G01*
X26368498Y-126526259D01*
X26387988Y-126546680D01*
X26376448Y-126548545D01*
X26337137Y-126532178D01*
X26305777Y-126512671D01*
X26286286Y-126492251D01*
X26297826Y-126490385D01*
X26337137Y-126506752D01*
G37*
G36*
X27131682Y-164500925D02*
G01*
X27135995Y-164509753D01*
X27099900Y-164513749D01*
X27064924Y-164510205D01*
X27068118Y-164500925D01*
X27079627Y-164497566D01*
X27131682Y-164500925D01*
G37*
G36*
X24379380Y-121091137D02*
G01*
X24377545Y-121104597D01*
X24362429Y-121108087D01*
X24359386Y-121104360D01*
X24362429Y-121074186D01*
X24370077Y-121070209D01*
X24379380Y-121091137D01*
G37*
G36*
X29328862Y-52552665D02*
G01*
X29332840Y-52560312D01*
X29311912Y-52569615D01*
X29298452Y-52567780D01*
X29294962Y-52552665D01*
X29298688Y-52549622D01*
X29328862Y-52552665D01*
G37*
G36*
X26672435Y-150923218D02*
G01*
X26684204Y-150932370D01*
X26657074Y-150938579D01*
X26631286Y-150936781D01*
X26623703Y-150925225D01*
X26632698Y-150920187D01*
X26672435Y-150923218D01*
G37*
G36*
X29723486Y-118251546D02*
G01*
X29735255Y-118260698D01*
X29708125Y-118266907D01*
X29682337Y-118265109D01*
X29674754Y-118253553D01*
X29683749Y-118248515D01*
X29723486Y-118251546D01*
G37*
G36*
X30596330Y-50533439D02*
G01*
X30598492Y-50585203D01*
X30599323Y-50675421D01*
X30598763Y-50756673D01*
X30596800Y-50817055D01*
X30593750Y-50836382D01*
X30589955Y-50809757D01*
X30587784Y-50773323D01*
X30586102Y-50662629D01*
X30589835Y-50555503D01*
X30593176Y-50524428D01*
X30596330Y-50533439D01*
G37*
G36*
X24428782Y-120952886D02*
G01*
X24414377Y-121001165D01*
X24403964Y-121021512D01*
X24386621Y-121030577D01*
X24384857Y-121014404D01*
X24401701Y-120972273D01*
X24422867Y-120943254D01*
X24428782Y-120952886D01*
G37*
G36*
X30555751Y-51156385D02*
G01*
X30553953Y-51182173D01*
X30542397Y-51189756D01*
X30537358Y-51180761D01*
X30540389Y-51141024D01*
X30549541Y-51129256D01*
X30555751Y-51156385D01*
G37*
G36*
X35511701Y-156457904D02*
G01*
X35508157Y-156492879D01*
X35498877Y-156489685D01*
X35495519Y-156478176D01*
X35498877Y-156426122D01*
X35507706Y-156421809D01*
X35511701Y-156457904D01*
G37*
G36*
X29463065Y-48869116D02*
G01*
X29585737Y-48936255D01*
X29723536Y-49028169D01*
X29865334Y-49136180D01*
X30000004Y-49251610D01*
X30116416Y-49365782D01*
X30203443Y-49470018D01*
X30208011Y-49477629D01*
X30195755Y-49472279D01*
X30154540Y-49436935D01*
X30089216Y-49375902D01*
X30004634Y-49293490D01*
X29937916Y-49228697D01*
X29802236Y-49107397D01*
X29678172Y-49013727D01*
X29553454Y-48938022D01*
X29501902Y-48909706D01*
X29434826Y-48871139D01*
X29398855Y-48847882D01*
X29400901Y-48844189D01*
X29463065Y-48869116D01*
G37*
G36*
X24353954Y-124091337D02*
G01*
X24352119Y-124104797D01*
X24337004Y-124108287D01*
X24333961Y-124104561D01*
X24337004Y-124074387D01*
X24344651Y-124070409D01*
X24353954Y-124091337D01*
G37*
G36*
X30435398Y-164424119D02*
G01*
X30447167Y-164433270D01*
X30420037Y-164439480D01*
X30394249Y-164437682D01*
X30386666Y-164426126D01*
X30395661Y-164421088D01*
X30435398Y-164424119D01*
G37*
G36*
X23089227Y-161979685D02*
G01*
X23143356Y-162038906D01*
X23229300Y-162136781D01*
X23346933Y-162273185D01*
X23357241Y-162285170D01*
X23652336Y-162602288D01*
X23981612Y-162912020D01*
X24329471Y-163200550D01*
X24680313Y-163454061D01*
X24722970Y-163482700D01*
X24806184Y-163539822D01*
X24869095Y-163584709D01*
X24900601Y-163609528D01*
X24907906Y-163621001D01*
X24883588Y-163610879D01*
X24829331Y-163578649D01*
X24751420Y-163528264D01*
X24656140Y-163463677D01*
X24549776Y-163388843D01*
X24328483Y-163222892D01*
X24058949Y-163002009D01*
X23796597Y-162767677D01*
X23551022Y-162528900D01*
X23331822Y-162294684D01*
X23148593Y-162074033D01*
X23118984Y-162035206D01*
X23076916Y-161977709D01*
X23067039Y-161959244D01*
X23089227Y-161979685D01*
G37*
G36*
X35536185Y-156623169D02*
G01*
X35536220Y-156629190D01*
X35532811Y-156668992D01*
X35524464Y-156668147D01*
X35519800Y-156647255D01*
X35523522Y-156591871D01*
X35524780Y-156587499D01*
X35532518Y-156583735D01*
X35536185Y-156623169D01*
G37*
G36*
X21913113Y-159712358D02*
G01*
X21911278Y-159725818D01*
X21896163Y-159729308D01*
X21893120Y-159725582D01*
X21896163Y-159695408D01*
X21903811Y-159691430D01*
X21913113Y-159712358D01*
G37*
G36*
X22791760Y-161569558D02*
G01*
X22815716Y-161593839D01*
X22820452Y-161602841D01*
X22818717Y-161619265D01*
X22814247Y-161618121D01*
X22790290Y-161593839D01*
X22785555Y-161584838D01*
X22787289Y-161568414D01*
X22791760Y-161569558D01*
G37*
G36*
X22188260Y-160476661D02*
G01*
X22218218Y-160525972D01*
X22227366Y-160543133D01*
X22255575Y-160603357D01*
X22266938Y-160640386D01*
X22265349Y-160643915D01*
X22248177Y-160626133D01*
X22218218Y-160576822D01*
X22209071Y-160559661D01*
X22180861Y-160499437D01*
X22169499Y-160462408D01*
X22171088Y-160458879D01*
X22188260Y-160476661D01*
G37*
G36*
X26099833Y-164195708D02*
G01*
X26103811Y-164203356D01*
X26082883Y-164212658D01*
X26069423Y-164210823D01*
X26065933Y-164195708D01*
X26069659Y-164192665D01*
X26099833Y-164195708D01*
G37*
G36*
X28301251Y-101674698D02*
G01*
X28305564Y-101683527D01*
X28269470Y-101687523D01*
X28234494Y-101683978D01*
X28237688Y-101674698D01*
X28249197Y-101671340D01*
X28301251Y-101674698D01*
G37*
G36*
X26455789Y-164322835D02*
G01*
X26459767Y-164330483D01*
X26438839Y-164339785D01*
X26425379Y-164337950D01*
X26421889Y-164322835D01*
X26425615Y-164319792D01*
X26455789Y-164322835D01*
G37*
G36*
X34793525Y-160937604D02*
G01*
X34781285Y-160974033D01*
X34752953Y-161034480D01*
X34737356Y-161063979D01*
X34706429Y-161115706D01*
X34688356Y-161136182D01*
X34686956Y-161131357D01*
X34699196Y-161094927D01*
X34727528Y-161034480D01*
X34743125Y-161004982D01*
X34774051Y-160953254D01*
X34792125Y-160932778D01*
X34793525Y-160937604D01*
G37*
G36*
X33091126Y-122927642D02*
G01*
X33093028Y-122985331D01*
X33092196Y-123032519D01*
X33088358Y-123065831D01*
X33082403Y-123055600D01*
X33077873Y-123003666D01*
X33082056Y-122928473D01*
X33086570Y-122910769D01*
X33091126Y-122927642D01*
G37*
G36*
X21932973Y-155525697D02*
G01*
X21924010Y-155578910D01*
X21909184Y-155622765D01*
X21896110Y-155635761D01*
X21893253Y-155610330D01*
X21902217Y-155557117D01*
X21917042Y-155513262D01*
X21930117Y-155500266D01*
X21932973Y-155525697D01*
G37*
G36*
X21887688Y-155695141D02*
G01*
X21885853Y-155708601D01*
X21870738Y-155712091D01*
X21867695Y-155708365D01*
X21870738Y-155678190D01*
X21878385Y-155674213D01*
X21887688Y-155695141D01*
G37*
G36*
X24252252Y-121497944D02*
G01*
X24250418Y-121511404D01*
X24235302Y-121514894D01*
X24232259Y-121511167D01*
X24235302Y-121480993D01*
X24242950Y-121477016D01*
X24252252Y-121497944D01*
G37*
G36*
X36512211Y-146983303D02*
G01*
X36583584Y-147025071D01*
X36587113Y-147028704D01*
X36628098Y-147105223D01*
X36625354Y-147191164D01*
X36579152Y-147271330D01*
X36560290Y-147289173D01*
X36481910Y-147327076D01*
X36401569Y-147318282D01*
X36331175Y-147263183D01*
X36293986Y-147198274D01*
X36278479Y-147136056D01*
X36278481Y-147135277D01*
X36300567Y-147059824D01*
X36356411Y-147005878D01*
X36431723Y-146978638D01*
X36512211Y-146983303D01*
G37*
G36*
X26638228Y-50332178D02*
G01*
X26634684Y-50367154D01*
X26625404Y-50363960D01*
X26622046Y-50352451D01*
X26625404Y-50300396D01*
X26634232Y-50296083D01*
X26638228Y-50332178D01*
G37*
G36*
X34363719Y-161645921D02*
G01*
X34352669Y-161671886D01*
X34320721Y-161720967D01*
X34312199Y-161732721D01*
X34275237Y-161778641D01*
X34253695Y-161797243D01*
X34252297Y-161796012D01*
X34263348Y-161770047D01*
X34295295Y-161720967D01*
X34303817Y-161709212D01*
X34340779Y-161663292D01*
X34362322Y-161644690D01*
X34363719Y-161645921D01*
G37*
G36*
X29178429Y-118149686D02*
G01*
X29185643Y-118152063D01*
X29180191Y-118158663D01*
X29133934Y-118161314D01*
X29116683Y-118161068D01*
X29081527Y-118157056D01*
X29089440Y-118149686D01*
X29113944Y-118145732D01*
X29178429Y-118149686D01*
G37*
G36*
X25799308Y-164071618D02*
G01*
X25854054Y-164098244D01*
X25855957Y-164099338D01*
X25891851Y-164124266D01*
X25892192Y-164134580D01*
X25857949Y-164124870D01*
X25803203Y-164098244D01*
X25801300Y-164097149D01*
X25765407Y-164072222D01*
X25765065Y-164061908D01*
X25799308Y-164071618D01*
G37*
G36*
X28701702Y-207105351D02*
G01*
X27684685Y-207105351D01*
X27684685Y-203698344D01*
X28701702Y-203698344D01*
X28701702Y-207105351D01*
G37*
G36*
X27955889Y-97809922D02*
G01*
X27959867Y-97817570D01*
X27938939Y-97826872D01*
X27925479Y-97825038D01*
X27921989Y-97809922D01*
X27925715Y-97806879D01*
X27955889Y-97809922D01*
G37*
G36*
X26731565Y-99009386D02*
G01*
X26713434Y-99080346D01*
X26707065Y-99100030D01*
X26687030Y-99149108D01*
X26673587Y-99163389D01*
X26672095Y-99159833D01*
X26676094Y-99121916D01*
X26693093Y-99060006D01*
X26695102Y-99053982D01*
X26719346Y-98993151D01*
X26732518Y-98979304D01*
X26731565Y-99009386D01*
G37*
G36*
X30555751Y-100176606D02*
G01*
X30553953Y-100202394D01*
X30542397Y-100209976D01*
X30537358Y-100200981D01*
X30540389Y-100161244D01*
X30549541Y-100149476D01*
X30555751Y-100176606D01*
G37*
G36*
X26912177Y-49614387D02*
G01*
X26890793Y-49662596D01*
X26852246Y-49738835D01*
X26837626Y-49766420D01*
X26794841Y-49843779D01*
X26763163Y-49895993D01*
X26748591Y-49912984D01*
X26748736Y-49904407D01*
X26765020Y-49861857D01*
X26796321Y-49796878D01*
X26835349Y-49723488D01*
X26874814Y-49655707D01*
X26907425Y-49607553D01*
X26913494Y-49601120D01*
X26912177Y-49614387D01*
G37*
G36*
X30530721Y-51239057D02*
G01*
X30529694Y-51257227D01*
X30516479Y-51310074D01*
X30506402Y-51330620D01*
X30490507Y-51341270D01*
X30489933Y-51319313D01*
X30504749Y-51270254D01*
X30522064Y-51236413D01*
X30530721Y-51239057D01*
G37*
G36*
X30481482Y-126722868D02*
G01*
X30468769Y-126735581D01*
X30456056Y-126722868D01*
X30468769Y-126710156D01*
X30481482Y-126722868D01*
G37*
G36*
X28733484Y-48686206D02*
G01*
X28764064Y-48689752D01*
X28749903Y-48692761D01*
X28693720Y-48694796D01*
X28600000Y-48695544D01*
X28508670Y-48694841D01*
X28451244Y-48692841D01*
X28435698Y-48689858D01*
X28466517Y-48686206D01*
X28502576Y-48684234D01*
X28621839Y-48682441D01*
X28733484Y-48686206D01*
G37*
G36*
X39596497Y-165954300D02*
G01*
X39603018Y-167816712D01*
X39609539Y-169679125D01*
X39075275Y-169679125D01*
X39075275Y-169549879D01*
X39073850Y-169501715D01*
X39066933Y-169447443D01*
X39056206Y-169430392D01*
X38850166Y-169526717D01*
X38643454Y-169599471D01*
X38432773Y-169645676D01*
X38198175Y-169670923D01*
X37956557Y-169686794D01*
X37956557Y-165941587D01*
X38490491Y-165941587D01*
X38490491Y-167479825D01*
X38490502Y-167565066D01*
X38490808Y-167883693D01*
X38491578Y-168155391D01*
X38492878Y-168383314D01*
X38494772Y-168570613D01*
X38497327Y-168720439D01*
X38500605Y-168835946D01*
X38504674Y-168920285D01*
X38509598Y-168976608D01*
X38515443Y-169008068D01*
X38522272Y-169017815D01*
X38571246Y-169006439D01*
X38653409Y-168971186D01*
X38751384Y-168919014D01*
X38851926Y-168857038D01*
X38941792Y-168792375D01*
X39075275Y-168686351D01*
X39075275Y-165939808D01*
X39596497Y-165954300D01*
G37*
G36*
X26279930Y-139322185D02*
G01*
X26264755Y-139322219D01*
X26105576Y-139322827D01*
X25991134Y-139324218D01*
X25915778Y-139327007D01*
X25873857Y-139331811D01*
X25859720Y-139339246D01*
X25867716Y-139349928D01*
X25892192Y-139364474D01*
X25916966Y-139377322D01*
X26064014Y-139438819D01*
X26229051Y-139489113D01*
X26384682Y-139519576D01*
X26527828Y-139537417D01*
X26535023Y-139839808D01*
X26542219Y-140142200D01*
X26386846Y-140125960D01*
X26248645Y-140106399D01*
X25956387Y-140031090D01*
X25678292Y-139914091D01*
X25420829Y-139759627D01*
X25190466Y-139571922D01*
X24993673Y-139355201D01*
X24836916Y-139113688D01*
X24806195Y-139053484D01*
X24696541Y-138772977D01*
X24635517Y-138483986D01*
X24625660Y-138253299D01*
X25232928Y-138253299D01*
X25237797Y-138428102D01*
X25258209Y-138582245D01*
X25299070Y-138716879D01*
X25365219Y-138847598D01*
X25461494Y-138989995D01*
X25470375Y-139001953D01*
X25527163Y-139073558D01*
X25573382Y-139124066D01*
X25599747Y-139143189D01*
X25602972Y-139141781D01*
X25614641Y-139107118D01*
X25622406Y-139032602D01*
X25625225Y-138927073D01*
X25625225Y-138710957D01*
X26133734Y-138710957D01*
X26133734Y-137061390D01*
X26015611Y-137101639D01*
X25856864Y-137174041D01*
X25681386Y-137295767D01*
X25521997Y-137449481D01*
X25388880Y-137625170D01*
X25292221Y-137812823D01*
X25277776Y-137851332D01*
X25255575Y-137926918D01*
X25242014Y-138009344D01*
X25235123Y-138113256D01*
X25232928Y-138253299D01*
X24625660Y-138253299D01*
X24623015Y-138191390D01*
X24658930Y-137900063D01*
X24743155Y-137614883D01*
X24875583Y-137340728D01*
X25009621Y-137139025D01*
X25192938Y-136933175D01*
X25408264Y-136759750D01*
X25663364Y-136611562D01*
X25817997Y-136541819D01*
X26028267Y-136473461D01*
X26248261Y-136435254D01*
X26496046Y-136423110D01*
X26743944Y-136422668D01*
X26743944Y-139321167D01*
X26279930Y-139322185D01*
G37*
G36*
X22792718Y-153758880D02*
G01*
X22784870Y-153770175D01*
X22763365Y-153788234D01*
X22759810Y-153787986D01*
X22754211Y-153773268D01*
X22781506Y-153747668D01*
X22795715Y-153741481D01*
X22792718Y-153758880D01*
G37*
G36*
X30282846Y-150846941D02*
G01*
X30294614Y-150856093D01*
X30267484Y-150862303D01*
X30241696Y-150860505D01*
X30234113Y-150848949D01*
X30243109Y-150843910D01*
X30282846Y-150846941D01*
G37*
G36*
X27094826Y-118375895D02*
G01*
X27074475Y-118396042D01*
X27052695Y-118408029D01*
X27010911Y-118420688D01*
X27003273Y-118416188D01*
X27023624Y-118396042D01*
X27045404Y-118384054D01*
X27087187Y-118371395D01*
X27094826Y-118375895D01*
G37*
G36*
X26710044Y-164399111D02*
G01*
X26714021Y-164406759D01*
X26693093Y-164416062D01*
X26679633Y-164414227D01*
X26676143Y-164399111D01*
X26679870Y-164396068D01*
X26710044Y-164399111D01*
G37*
G36*
X27981315Y-52578090D02*
G01*
X27985293Y-52585738D01*
X27964365Y-52595041D01*
X27950904Y-52593206D01*
X27947414Y-52578090D01*
X27951141Y-52575047D01*
X27981315Y-52578090D01*
G37*
G36*
X30470604Y-98988000D02*
G01*
X30495113Y-99034580D01*
X30495496Y-99035420D01*
X30519671Y-99100068D01*
X30529251Y-99148995D01*
X30528121Y-99155429D01*
X30515706Y-99145206D01*
X30494194Y-99098144D01*
X30487721Y-99080977D01*
X30466823Y-99017087D01*
X30461146Y-98984132D01*
X30470604Y-98988000D01*
G37*
G36*
X21783979Y-156087116D02*
G01*
X21782181Y-156112904D01*
X21770625Y-156120487D01*
X21765587Y-156111492D01*
X21768618Y-156071755D01*
X21777770Y-156059986D01*
X21783979Y-156087116D01*
G37*
G36*
X30418655Y-126737399D02*
G01*
X30416817Y-126748421D01*
X30379780Y-126773719D01*
X30329844Y-126798381D01*
X30290791Y-126810056D01*
X30290054Y-126810039D01*
X30291892Y-126799017D01*
X30328929Y-126773719D01*
X30378865Y-126749057D01*
X30417918Y-126737383D01*
X30418655Y-126737399D01*
G37*
G36*
X29178429Y-150668121D02*
G01*
X29194804Y-150673032D01*
X29171279Y-150677136D01*
X29108509Y-150678713D01*
X29051691Y-150677498D01*
X29022815Y-150673664D01*
X29038589Y-150668121D01*
X29096302Y-150663865D01*
X29178429Y-150668121D01*
G37*
G36*
X27193127Y-126896609D02*
G01*
X27197104Y-126904256D01*
X27176176Y-126913559D01*
X27162716Y-126911724D01*
X27159226Y-126896609D01*
X27162953Y-126893566D01*
X27193127Y-126896609D01*
G37*
G36*
X22243644Y-154741687D02*
G01*
X22230931Y-154754400D01*
X22218218Y-154741687D01*
X22230931Y-154728975D01*
X22243644Y-154741687D01*
G37*
G36*
X24918990Y-198746875D02*
G01*
X25133778Y-198814636D01*
X25322198Y-198919758D01*
X25480594Y-199058666D01*
X25605312Y-199227785D01*
X25692696Y-199423539D01*
X25739092Y-199642354D01*
X25740845Y-199880655D01*
X25728119Y-199984136D01*
X25697347Y-200121716D01*
X25648226Y-200255892D01*
X25577166Y-200392487D01*
X25480576Y-200537324D01*
X25354867Y-200696227D01*
X25196447Y-200875020D01*
X25001727Y-201079525D01*
X24941827Y-201141111D01*
X24788036Y-201302402D01*
X24667647Y-201435338D01*
X24577723Y-201544534D01*
X24515327Y-201634608D01*
X24477521Y-201710177D01*
X24461368Y-201775856D01*
X24463932Y-201836264D01*
X24482274Y-201896017D01*
X24492246Y-201917463D01*
X24554642Y-201991686D01*
X24648844Y-202032556D01*
X24777646Y-202040808D01*
X24943844Y-202017174D01*
X25060595Y-201986442D01*
X25192833Y-201927889D01*
X25319557Y-201838585D01*
X25344034Y-201819385D01*
X25422996Y-201774423D01*
X25478847Y-201774607D01*
X25511781Y-201819918D01*
X25515029Y-201856080D01*
X25486097Y-201924777D01*
X25419693Y-201995331D01*
X25323733Y-202062596D01*
X25206132Y-202121426D01*
X25074805Y-202166674D01*
X24937667Y-202193193D01*
X24733478Y-202202923D01*
X24504395Y-202177535D01*
X24300959Y-202112462D01*
X24126227Y-202009140D01*
X23983254Y-201869006D01*
X23875092Y-201693497D01*
X23866037Y-201673712D01*
X23836205Y-201597801D01*
X23818571Y-201523167D01*
X23810102Y-201432466D01*
X23807767Y-201308354D01*
X23807970Y-201270091D01*
X23814726Y-201134368D01*
X23833491Y-201010712D01*
X23867617Y-200893512D01*
X23920460Y-200777157D01*
X23995371Y-200656035D01*
X24095707Y-200524536D01*
X24224819Y-200377047D01*
X24386063Y-200207958D01*
X24582791Y-200011657D01*
X24697724Y-199897700D01*
X24821155Y-199772850D01*
X24930068Y-199660079D01*
X25018944Y-199565191D01*
X25082262Y-199493996D01*
X25114503Y-199452298D01*
X25145868Y-199383383D01*
X25167543Y-199265921D01*
X25156340Y-199151644D01*
X25112359Y-199058438D01*
X25083532Y-199026555D01*
X24975507Y-198953644D01*
X24838612Y-198909618D01*
X24681784Y-198893459D01*
X24513960Y-198904150D01*
X24344075Y-198940675D01*
X24181067Y-199002017D01*
X24033871Y-199087159D01*
X23911425Y-199195084D01*
X23883906Y-199219684D01*
X23822156Y-199245960D01*
X23766101Y-199240058D01*
X23732097Y-199201402D01*
X23726567Y-199149461D01*
X23756065Y-199068377D01*
X23825739Y-198987956D01*
X23929321Y-198911830D01*
X24060541Y-198843635D01*
X24213133Y-198787005D01*
X24380828Y-198745572D01*
X24557358Y-198722971D01*
X24681486Y-198720050D01*
X24918990Y-198746875D01*
G37*
G36*
X26201535Y-151076188D02*
G01*
X26205513Y-151083836D01*
X26184585Y-151093139D01*
X26171125Y-151091304D01*
X26167634Y-151076188D01*
X26171361Y-151073146D01*
X26201535Y-151076188D01*
G37*
G36*
X30323825Y-49653876D02*
G01*
X30349908Y-49695135D01*
X30384242Y-49757490D01*
X30418759Y-49825432D01*
X30445387Y-49883455D01*
X30456056Y-49916051D01*
X30453070Y-49926693D01*
X30440385Y-49912786D01*
X30413939Y-49865745D01*
X30369698Y-49779175D01*
X30340970Y-49719276D01*
X30318895Y-49666152D01*
X30315360Y-49645691D01*
X30323825Y-49653876D01*
G37*
G36*
X33557958Y-149671972D02*
G01*
X33424475Y-149664287D01*
X33290991Y-149656602D01*
X33283311Y-149537533D01*
X33275631Y-149418463D01*
X33105333Y-149502894D01*
X32969603Y-149564034D01*
X32839433Y-149607098D01*
X32696524Y-149636792D01*
X32521872Y-149658175D01*
X32337538Y-149675885D01*
X32337538Y-146999645D01*
X32617217Y-146999645D01*
X32617217Y-148181928D01*
X32617459Y-148364757D01*
X32618579Y-148604060D01*
X32620536Y-148818372D01*
X32623246Y-149003381D01*
X32626627Y-149154779D01*
X32630596Y-149268257D01*
X32635069Y-149339503D01*
X32639965Y-149364210D01*
X32654615Y-149363246D01*
X32730256Y-149345649D01*
X32830449Y-149310706D01*
X32939932Y-149264691D01*
X33043445Y-149213875D01*
X33125726Y-149164533D01*
X33265566Y-149066835D01*
X33278278Y-148039596D01*
X33290991Y-147012358D01*
X33424475Y-147004673D01*
X33557958Y-146996988D01*
X33557958Y-149671972D01*
G37*
G36*
X28987738Y-48713537D02*
G01*
X28992051Y-48722366D01*
X28955956Y-48726361D01*
X28920980Y-48722817D01*
X28924174Y-48713537D01*
X28935683Y-48710179D01*
X28987738Y-48713537D01*
G37*
G36*
X39532933Y-202172818D02*
G01*
X38515916Y-202172818D01*
X38515916Y-198765811D01*
X39532933Y-198765811D01*
X39532933Y-202172818D01*
G37*
G36*
X25726927Y-164047393D02*
G01*
X25714214Y-164060106D01*
X25701502Y-164047393D01*
X25714214Y-164034680D01*
X25726927Y-164047393D01*
G37*
G36*
X35558017Y-156767603D02*
G01*
X35560668Y-156813859D01*
X35560422Y-156831110D01*
X35556410Y-156866267D01*
X35549040Y-156858354D01*
X35545086Y-156833850D01*
X35549040Y-156769365D01*
X35551417Y-156762151D01*
X35558017Y-156767603D01*
G37*
G36*
X34611895Y-198755367D02*
G01*
X34820762Y-198829995D01*
X35002822Y-198941443D01*
X35154580Y-199086475D01*
X35272541Y-199261855D01*
X35353209Y-199464349D01*
X35393089Y-199690720D01*
X35388685Y-199937732D01*
X35371301Y-200047827D01*
X35336002Y-200173154D01*
X35281329Y-200300398D01*
X35203969Y-200434629D01*
X35100610Y-200580916D01*
X34967941Y-200744329D01*
X34802650Y-200929938D01*
X34601424Y-201142812D01*
X34550749Y-201195669D01*
X34435939Y-201318178D01*
X34333630Y-201431076D01*
X34249643Y-201527731D01*
X34189797Y-201601515D01*
X34159912Y-201645797D01*
X34130375Y-201724197D01*
X34119360Y-201838217D01*
X34151502Y-201930915D01*
X34223282Y-201997877D01*
X34331185Y-202034693D01*
X34471693Y-202036950D01*
X34607254Y-202015249D01*
X34797557Y-201951877D01*
X34951078Y-201853621D01*
X34998998Y-201815664D01*
X35077474Y-201772051D01*
X35131827Y-201770668D01*
X35160135Y-201811151D01*
X35160478Y-201893139D01*
X35135763Y-201945234D01*
X35069187Y-202008666D01*
X34971506Y-202070728D01*
X34852875Y-202126020D01*
X34723449Y-202169142D01*
X34593386Y-202194693D01*
X34537219Y-202200323D01*
X34295405Y-202200099D01*
X34078269Y-202159455D01*
X33888829Y-202081009D01*
X33730104Y-201967380D01*
X33605110Y-201821188D01*
X33516867Y-201645052D01*
X33468391Y-201441590D01*
X33462701Y-201213423D01*
X33474546Y-201096614D01*
X33496893Y-200981199D01*
X33532660Y-200871596D01*
X33585439Y-200762239D01*
X33658822Y-200647563D01*
X33756402Y-200522003D01*
X33881770Y-200379994D01*
X34038520Y-200215971D01*
X34230242Y-200024370D01*
X34301100Y-199954153D01*
X34446754Y-199806789D01*
X34570924Y-199676830D01*
X34669653Y-199568562D01*
X34738984Y-199486270D01*
X34774961Y-199434242D01*
X34802463Y-199370620D01*
X34826493Y-199240009D01*
X34802333Y-199123085D01*
X34731126Y-199023330D01*
X34614015Y-198944226D01*
X34599776Y-198937443D01*
X34535341Y-198911592D01*
X34470906Y-198898052D01*
X34389623Y-198894575D01*
X34274644Y-198898911D01*
X34159386Y-198909063D01*
X33959096Y-198951511D01*
X33787725Y-199026568D01*
X33636035Y-199137690D01*
X33620252Y-199151603D01*
X33527150Y-199219757D01*
X33455662Y-199245669D01*
X33407654Y-199229101D01*
X33384990Y-199169813D01*
X33389419Y-199121260D01*
X33433154Y-199041960D01*
X33515552Y-198962727D01*
X33629477Y-198887971D01*
X33767793Y-198822102D01*
X33923366Y-198769530D01*
X34089059Y-198734666D01*
X34127725Y-198729515D01*
X34379718Y-198720795D01*
X34611895Y-198755367D01*
G37*
G36*
X28161412Y-150668121D02*
G01*
X28177787Y-150673032D01*
X28154262Y-150677136D01*
X28091492Y-150678713D01*
X28034674Y-150677498D01*
X28005798Y-150673664D01*
X28021572Y-150668121D01*
X28079285Y-150663865D01*
X28161412Y-150668121D01*
G37*
G36*
X28720771Y-101698274D02*
G01*
X28746776Y-101701350D01*
X28738760Y-101704684D01*
X28688264Y-101706957D01*
X28600000Y-101707797D01*
X28528473Y-101707284D01*
X28469067Y-101705301D01*
X28451081Y-101702174D01*
X28479229Y-101698274D01*
X28502092Y-101696762D01*
X28614153Y-101694391D01*
X28720771Y-101698274D01*
G37*
G36*
X27944999Y-164626908D02*
G01*
X27957510Y-164630233D01*
X27950039Y-164635975D01*
X27900801Y-164638479D01*
X27873866Y-164638150D01*
X27837354Y-164634294D01*
X27843297Y-164627421D01*
X27878750Y-164622815D01*
X27944999Y-164626908D01*
G37*
G36*
X27843297Y-150693775D02*
G01*
X27855808Y-150697100D01*
X27848338Y-150702842D01*
X27799099Y-150705345D01*
X27772165Y-150705017D01*
X27735652Y-150701161D01*
X27741596Y-150694288D01*
X27777048Y-150689681D01*
X27843297Y-150693775D01*
G37*
G36*
X32706334Y-120774420D02*
G01*
X32731632Y-120811457D01*
X32756294Y-120861393D01*
X32767968Y-120900446D01*
X32767952Y-120901183D01*
X32756930Y-120899345D01*
X32731632Y-120862308D01*
X32706970Y-120812372D01*
X32695296Y-120773319D01*
X32695312Y-120772582D01*
X32706334Y-120774420D01*
G37*
G36*
X32668068Y-124587133D02*
G01*
X32655356Y-124599845D01*
X32642643Y-124587133D01*
X32655356Y-124574420D01*
X32668068Y-124587133D01*
G37*
G36*
X35486276Y-159000446D02*
G01*
X35482732Y-159035422D01*
X35473452Y-159032228D01*
X35470094Y-159020719D01*
X35473452Y-158968664D01*
X35482280Y-158964351D01*
X35486276Y-159000446D01*
G37*
G36*
X32184985Y-151627073D02*
G01*
X32216346Y-151646580D01*
X32235836Y-151667000D01*
X32224296Y-151668865D01*
X32184985Y-151652498D01*
X32153625Y-151632991D01*
X32134134Y-151612571D01*
X32145674Y-151610706D01*
X32184985Y-151627073D01*
G37*
G36*
X30384547Y-150872367D02*
G01*
X30396316Y-150881519D01*
X30369186Y-150887728D01*
X30343398Y-150885930D01*
X30335815Y-150874374D01*
X30344810Y-150869336D01*
X30384547Y-150872367D01*
G37*
G36*
X30247579Y-126817137D02*
G01*
X30227227Y-126837283D01*
X30205447Y-126849270D01*
X30163664Y-126861930D01*
X30156025Y-126857429D01*
X30176377Y-126837283D01*
X30198157Y-126825296D01*
X30239940Y-126812636D01*
X30247579Y-126817137D01*
G37*
G36*
X30879813Y-151025338D02*
G01*
X30883791Y-151032985D01*
X30862863Y-151042288D01*
X30849403Y-151040453D01*
X30845913Y-151025338D01*
X30849639Y-151022295D01*
X30879813Y-151025338D01*
G37*
G36*
X32922323Y-121319966D02*
G01*
X32920488Y-121333426D01*
X32905372Y-121336916D01*
X32902329Y-121333189D01*
X32905372Y-121303015D01*
X32913020Y-121299038D01*
X32922323Y-121319966D01*
G37*
G36*
X31352106Y-137958961D02*
G01*
X31358659Y-139495253D01*
X31498499Y-139446216D01*
X31502924Y-139444638D01*
X31596508Y-139403494D01*
X31706480Y-139344614D01*
X31809960Y-139280192D01*
X31981582Y-139163205D01*
X31981582Y-136422668D01*
X32591792Y-136422668D01*
X32591792Y-140134780D01*
X31981582Y-140134780D01*
X31981582Y-140017401D01*
X31981534Y-139969881D01*
X31976737Y-139931355D01*
X31958715Y-139915139D01*
X31918943Y-139920303D01*
X31848894Y-139945916D01*
X31740040Y-139991049D01*
X31711345Y-140002613D01*
X31480627Y-140073675D01*
X31225690Y-140118913D01*
X30965637Y-140134780D01*
X30735736Y-140134780D01*
X30735736Y-136422668D01*
X31345552Y-136422668D01*
X31352106Y-137958961D01*
G37*
G36*
X29343397Y-164626908D02*
G01*
X29355908Y-164630233D01*
X29348438Y-164635975D01*
X29299199Y-164638479D01*
X29272265Y-164638150D01*
X29235752Y-164634294D01*
X29241696Y-164627421D01*
X29277148Y-164622815D01*
X29343397Y-164626908D01*
G37*
G36*
X22435133Y-154325066D02*
G01*
X22423076Y-154359826D01*
X22394099Y-154425619D01*
X22352718Y-154511963D01*
X22336315Y-154544692D01*
X22294955Y-154623188D01*
X22264145Y-154675804D01*
X22249592Y-154692547D01*
X22253384Y-154673954D01*
X22274943Y-154621681D01*
X22308767Y-154549196D01*
X22348244Y-154469749D01*
X22386759Y-154396594D01*
X22417698Y-154342983D01*
X22434446Y-154322168D01*
X22435133Y-154325066D01*
G37*
G36*
X28452952Y-164651542D02*
G01*
X28484027Y-164654883D01*
X28475015Y-164658037D01*
X28423251Y-164660199D01*
X28333033Y-164661030D01*
X28251781Y-164660471D01*
X28191400Y-164658507D01*
X28172073Y-164655457D01*
X28198697Y-164651662D01*
X28235132Y-164649491D01*
X28345826Y-164647809D01*
X28452952Y-164651542D01*
G37*
G36*
X26718519Y-100343990D02*
G01*
X26716684Y-100357450D01*
X26701568Y-100360940D01*
X26698525Y-100357213D01*
X26701568Y-100327039D01*
X26709216Y-100323062D01*
X26718519Y-100343990D01*
G37*
G36*
X32384106Y-120175821D02*
G01*
X32392584Y-120186409D01*
X32442386Y-120256758D01*
X32490451Y-120334730D01*
X32491796Y-120337122D01*
X32525479Y-120403522D01*
X32531147Y-120428068D01*
X32511812Y-120409173D01*
X32470489Y-120345248D01*
X32468373Y-120341663D01*
X32420781Y-120261394D01*
X32375971Y-120186339D01*
X32331503Y-120112258D01*
X32384106Y-120175821D01*
G37*
G36*
X21624259Y-158192708D02*
G01*
X21626162Y-158250396D01*
X21625329Y-158297584D01*
X21621491Y-158330897D01*
X21615536Y-158320666D01*
X21611006Y-158268731D01*
X21615189Y-158193538D01*
X21619703Y-158175834D01*
X21624259Y-158192708D01*
G37*
G36*
X29596359Y-118226121D02*
G01*
X29608128Y-118235272D01*
X29580998Y-118241482D01*
X29555210Y-118239684D01*
X29547627Y-118228128D01*
X29556622Y-118223090D01*
X29596359Y-118226121D01*
G37*
G36*
X27385936Y-164551775D02*
G01*
X27390249Y-164560604D01*
X27354154Y-164564600D01*
X27319179Y-164561056D01*
X27322373Y-164551775D01*
X27333881Y-164548417D01*
X27385936Y-164551775D01*
G37*
G36*
X21679328Y-158708054D02*
G01*
X21679363Y-158714075D01*
X21675954Y-158753877D01*
X21667607Y-158753032D01*
X21662943Y-158732140D01*
X21666665Y-158676756D01*
X21667923Y-158672384D01*
X21675662Y-158668620D01*
X21679328Y-158708054D01*
G37*
G36*
X41109309Y-18041887D02*
G01*
X16090691Y-18041887D01*
X16090691Y-17253699D01*
X41109309Y-17253699D01*
X41109309Y-18041887D01*
G37*
G36*
X29801352Y-150745769D02*
G01*
X29805664Y-150754598D01*
X29769570Y-150758594D01*
X29734594Y-150755050D01*
X29737788Y-150745769D01*
X29749297Y-150742411D01*
X29801352Y-150745769D01*
G37*
G36*
X28275826Y-48713537D02*
G01*
X28280139Y-48722366D01*
X28244044Y-48726361D01*
X28209068Y-48722817D01*
X28212262Y-48713537D01*
X28223771Y-48710179D01*
X28275826Y-48713537D01*
G37*
G36*
X39225653Y-205170862D02*
G01*
X39354213Y-205174437D01*
X39462611Y-205181029D01*
X39540791Y-205190705D01*
X39578699Y-205203529D01*
X39602714Y-205242788D01*
X39604696Y-205300780D01*
X39572889Y-205343377D01*
X39564273Y-205345427D01*
X39512642Y-205349641D01*
X39424431Y-205353218D01*
X39309526Y-205356064D01*
X39177809Y-205358084D01*
X39039165Y-205359186D01*
X38903475Y-205359274D01*
X38780625Y-205358254D01*
X38680497Y-205356033D01*
X38612975Y-205352516D01*
X38599655Y-205345903D01*
X38581225Y-205306896D01*
X38577967Y-205253588D01*
X38593205Y-205209937D01*
X38593964Y-205209122D01*
X38632343Y-205195964D01*
X38710890Y-205185431D01*
X38819550Y-205177589D01*
X38948267Y-205172503D01*
X39086986Y-205170239D01*
X39225653Y-205170862D01*
G37*
G36*
X31264596Y-164141661D02*
G01*
X31244244Y-164161807D01*
X31222464Y-164173795D01*
X31180681Y-164186454D01*
X31173042Y-164181954D01*
X31193394Y-164161807D01*
X31215174Y-164149820D01*
X31256957Y-164137161D01*
X31264596Y-164141661D01*
G37*
G36*
X32896897Y-121243689D02*
G01*
X32895062Y-121257149D01*
X32879947Y-121260640D01*
X32876904Y-121256913D01*
X32879947Y-121226739D01*
X32887594Y-121222761D01*
X32896897Y-121243689D01*
G37*
G36*
X21624525Y-157013122D02*
G01*
X21626509Y-157068114D01*
X21625767Y-157105426D01*
X21621778Y-157137370D01*
X21615490Y-157125321D01*
X21611284Y-157084996D01*
X21615490Y-157010907D01*
X21619454Y-156998027D01*
X21624525Y-157013122D01*
G37*
G36*
X27243978Y-118328241D02*
G01*
X27247955Y-118335888D01*
X27227027Y-118345191D01*
X27213567Y-118343356D01*
X27210077Y-118328241D01*
X27213803Y-118325198D01*
X27243978Y-118328241D01*
G37*
G36*
X35582817Y-158192708D02*
G01*
X35584720Y-158250396D01*
X35583888Y-158297584D01*
X35580049Y-158330897D01*
X35574094Y-158320666D01*
X35569565Y-158268731D01*
X35573747Y-158193538D01*
X35578261Y-158175834D01*
X35582817Y-158192708D01*
G37*
G36*
X41109309Y-198231877D02*
G01*
X16090691Y-198231877D01*
X16090691Y-197443689D01*
X41109309Y-197443689D01*
X41109309Y-198231877D01*
G37*
G36*
X24171962Y-121853900D02*
G01*
X24168417Y-121888875D01*
X24159137Y-121885681D01*
X24155779Y-121874172D01*
X24159137Y-121822118D01*
X24167966Y-121817805D01*
X24171962Y-121853900D01*
G37*
G36*
X26799562Y-164424119D02*
G01*
X26811331Y-164433270D01*
X26784201Y-164439480D01*
X26758413Y-164437682D01*
X26750830Y-164426126D01*
X26759825Y-164421088D01*
X26799562Y-164424119D01*
G37*
G36*
X37854855Y-202172818D02*
G01*
X36837838Y-202172818D01*
X36837838Y-198765811D01*
X37854855Y-198765811D01*
X37854855Y-202172818D01*
G37*
G36*
X24557358Y-124587133D02*
G01*
X24544645Y-124599845D01*
X24531932Y-124587133D01*
X24544645Y-124574420D01*
X24557358Y-124587133D01*
G37*
G36*
X35210611Y-160017463D02*
G01*
X35208776Y-160030923D01*
X35193661Y-160034413D01*
X35190618Y-160030687D01*
X35193661Y-160000513D01*
X35201308Y-159996535D01*
X35210611Y-160017463D01*
G37*
G36*
X30557758Y-118561307D02*
G01*
X30545045Y-118574020D01*
X30532333Y-118561307D01*
X30545045Y-118548594D01*
X30557758Y-118561307D01*
G37*
G36*
X35386582Y-159443272D02*
G01*
X35384784Y-159469060D01*
X35373228Y-159476643D01*
X35368189Y-159467648D01*
X35371220Y-159427911D01*
X35380372Y-159416142D01*
X35386582Y-159443272D01*
G37*
G36*
X30257153Y-118425378D02*
G01*
X30303504Y-118446893D01*
X30320764Y-118461048D01*
X30316216Y-118471539D01*
X30299004Y-118468407D01*
X30252653Y-118446893D01*
X30235392Y-118432737D01*
X30239940Y-118422246D01*
X30257153Y-118425378D01*
G37*
G36*
X35437432Y-156087116D02*
G01*
X35435635Y-156112904D01*
X35424078Y-156120487D01*
X35419040Y-156111492D01*
X35422071Y-156071755D01*
X35431223Y-156059986D01*
X35437432Y-156087116D01*
G37*
G36*
X32642643Y-124637984D02*
G01*
X32629930Y-124650696D01*
X32617217Y-124637984D01*
X32629930Y-124625271D01*
X32642643Y-124637984D01*
G37*
G36*
X26881619Y-98682045D02*
G01*
X26861561Y-98732390D01*
X26827709Y-98805041D01*
X26794859Y-98868692D01*
X26765072Y-98919007D01*
X26749999Y-98934696D01*
X26752358Y-98917970D01*
X26771801Y-98869000D01*
X26802486Y-98803645D01*
X26836607Y-98737569D01*
X26866359Y-98686437D01*
X26883936Y-98665912D01*
X26881619Y-98682045D01*
G37*
G36*
X29388188Y-52531477D02*
G01*
X29375476Y-52544190D01*
X29362763Y-52531477D01*
X29375476Y-52518764D01*
X29388188Y-52531477D01*
G37*
G36*
X21834830Y-159443272D02*
G01*
X21833032Y-159469060D01*
X21821476Y-159476643D01*
X21816437Y-159467648D01*
X21819469Y-159427911D01*
X21828620Y-159416142D01*
X21834830Y-159443272D01*
G37*
G36*
X30117051Y-126871183D02*
G01*
X30121028Y-126878831D01*
X30100100Y-126888134D01*
X30086640Y-126886299D01*
X30083150Y-126871183D01*
X30086877Y-126868141D01*
X30117051Y-126871183D01*
G37*
G36*
X29559810Y-164601939D02*
G01*
X29567024Y-164604316D01*
X29561572Y-164610916D01*
X29515316Y-164613566D01*
X29498065Y-164613320D01*
X29462908Y-164609308D01*
X29470821Y-164601939D01*
X29495325Y-164597985D01*
X29559810Y-164601939D01*
G37*
G36*
X29877628Y-164551775D02*
G01*
X29881941Y-164560604D01*
X29845846Y-164564600D01*
X29810870Y-164561056D01*
X29814064Y-164551775D01*
X29825573Y-164548417D01*
X29877628Y-164551775D01*
G37*
G36*
X26511992Y-118641308D02*
G01*
X26478379Y-118665791D01*
X26419770Y-118699416D01*
X26365332Y-118728000D01*
X26327649Y-118746282D01*
X26313723Y-118748740D01*
X26311712Y-118739802D01*
X26316109Y-118734018D01*
X26352405Y-118709300D01*
X26413414Y-118675721D01*
X26444300Y-118660563D01*
X26495067Y-118639185D01*
X26515115Y-118636459D01*
X26511992Y-118641308D01*
G37*
G36*
X33045435Y-121853900D02*
G01*
X33041891Y-121888875D01*
X33032611Y-121885681D01*
X33029253Y-121874172D01*
X33032611Y-121822118D01*
X33041439Y-121817805D01*
X33045435Y-121853900D01*
G37*
G36*
X24115951Y-122927642D02*
G01*
X24117853Y-122985331D01*
X24117021Y-123032519D01*
X24113183Y-123065831D01*
X24107228Y-123055600D01*
X24102698Y-123003666D01*
X24106881Y-122928473D01*
X24111395Y-122910769D01*
X24115951Y-122927642D01*
G37*
G36*
X35286887Y-159788634D02*
G01*
X35285052Y-159802094D01*
X35269937Y-159805585D01*
X35266894Y-159801858D01*
X35269937Y-159771684D01*
X35277584Y-159767706D01*
X35286887Y-159788634D01*
G37*
G36*
X34222262Y-161854450D02*
G01*
X34198991Y-161881569D01*
X34177768Y-161898945D01*
X34173306Y-161898527D01*
X34173134Y-161881962D01*
X34212663Y-161844851D01*
X34231085Y-161830647D01*
X34244251Y-161824334D01*
X34222262Y-161854450D01*
G37*
G36*
X24197387Y-123531978D02*
G01*
X24193843Y-123566953D01*
X24184563Y-123563759D01*
X24181205Y-123552250D01*
X24184563Y-123500196D01*
X24193391Y-123495883D01*
X24197387Y-123531978D01*
G37*
G36*
X35021186Y-160491668D02*
G01*
X34989938Y-160562928D01*
X34980581Y-160581833D01*
X34953156Y-160628615D01*
X34937249Y-160642466D01*
X34936479Y-160636062D01*
X34949566Y-160596170D01*
X34978820Y-160534727D01*
X34987517Y-160518497D01*
X35018838Y-160466566D01*
X35030441Y-160458585D01*
X35021186Y-160491668D01*
G37*
G36*
X27080831Y-150822046D02*
G01*
X27085144Y-150830874D01*
X27049049Y-150834870D01*
X27014073Y-150831326D01*
X27017267Y-150822046D01*
X27028776Y-150818688D01*
X27080831Y-150822046D01*
G37*
G36*
X28110561Y-118149686D02*
G01*
X28117775Y-118152063D01*
X28112323Y-118158663D01*
X28066066Y-118161314D01*
X28048816Y-118161068D01*
X28013659Y-118157056D01*
X28021572Y-118149686D01*
X28046076Y-118145732D01*
X28110561Y-118149686D01*
G37*
G04 #@! TD*
M02*
