G04 #@! TF.GenerationSoftware,KiCad,Pcbnew,6.0.7-f9a2dced07~116~ubuntu22.04.1*
G04 #@! TF.CreationDate,2022-09-02T22:13:25-04:00*
G04 #@! TF.ProjectId,mikrokosmos-ii-panel,6d696b72-6f6b-46f7-936d-6f732d69692d,rev?*
G04 #@! TF.SameCoordinates,Original*
G04 #@! TF.FileFunction,Legend,Top*
G04 #@! TF.FilePolarity,Positive*
%FSLAX46Y46*%
G04 Gerber Fmt 4.6, Leading zero omitted, Abs format (unit mm)*
G04 Created by KiCad (PCBNEW 6.0.7-f9a2dced07~116~ubuntu22.04.1) date 2022-09-02 22:13:25*
%MOMM*%
%LPD*%
G01*
G04 APERTURE LIST*
G04 APERTURE END LIST*
G04 #@! TO.C,GRAF2*
G36*
X28697424Y-48541446D02*
G01*
X28733483Y-48543418D01*
X28764302Y-48547070D01*
X28748756Y-48550053D01*
X28691330Y-48552053D01*
X28600000Y-48552756D01*
X28506280Y-48552008D01*
X28450097Y-48549973D01*
X28435936Y-48546964D01*
X28466516Y-48543418D01*
X28578161Y-48539653D01*
X28697424Y-48541446D01*
G37*
G36*
X32888422Y-121211078D02*
G01*
X32891464Y-121241252D01*
X32888422Y-121244979D01*
X32873306Y-121241489D01*
X32871471Y-121228028D01*
X32880774Y-121207100D01*
X32888422Y-121211078D01*
G37*
G36*
X30549701Y-99077716D02*
G01*
X30552732Y-99117452D01*
X30547693Y-99126448D01*
X30536137Y-99118865D01*
X30534339Y-99093077D01*
X30540549Y-99065947D01*
X30549701Y-99077716D01*
G37*
G36*
X22090312Y-155081982D02*
G01*
X22077653Y-155123766D01*
X22065665Y-155145546D01*
X22045519Y-155165897D01*
X22041019Y-155158259D01*
X22053678Y-155116475D01*
X22065665Y-155094695D01*
X22085812Y-155074344D01*
X22090312Y-155081982D01*
G37*
G36*
X24294628Y-123906173D02*
G01*
X24297671Y-123936347D01*
X24294628Y-123940074D01*
X24279512Y-123936584D01*
X24277677Y-123923124D01*
X24286980Y-123902196D01*
X24294628Y-123906173D01*
G37*
G36*
X22451374Y-160988444D02*
G01*
X22482300Y-161040172D01*
X22497898Y-161069670D01*
X22526230Y-161130117D01*
X22538469Y-161166547D01*
X22537069Y-161171372D01*
X22518996Y-161150896D01*
X22488070Y-161099169D01*
X22472472Y-161069670D01*
X22444140Y-161009223D01*
X22431901Y-160972794D01*
X22433301Y-160967968D01*
X22451374Y-160988444D01*
G37*
G36*
X26765532Y-51333819D02*
G01*
X26794422Y-51382549D01*
X26815094Y-51423081D01*
X26849339Y-51499955D01*
X26858215Y-51533175D01*
X26844247Y-51521606D01*
X26809957Y-51464116D01*
X26793538Y-51432772D01*
X26763918Y-51369082D01*
X26749686Y-51326925D01*
X26750087Y-51318915D01*
X26765532Y-51333819D01*
G37*
G36*
X35208385Y-155295215D02*
G01*
X35230295Y-155347519D01*
X35248749Y-155399800D01*
X35270978Y-155473909D01*
X35282101Y-155525876D01*
X35281468Y-155540821D01*
X35268731Y-155524960D01*
X35247009Y-155472921D01*
X35228771Y-155419777D01*
X35207070Y-155345419D01*
X35195835Y-155293557D01*
X35196052Y-155278757D01*
X35208385Y-155295215D01*
G37*
G36*
X24294628Y-121287354D02*
G01*
X24297671Y-121317528D01*
X24294628Y-121321255D01*
X24279512Y-121317765D01*
X24277677Y-121304305D01*
X24286980Y-121283377D01*
X24294628Y-121287354D01*
G37*
G36*
X20712776Y-146983984D02*
G01*
X20949424Y-147007258D01*
X21166652Y-147075214D01*
X21359930Y-147185057D01*
X21524725Y-147333992D01*
X21656505Y-147519224D01*
X21692086Y-147588073D01*
X21731231Y-147675669D01*
X21755342Y-147748529D01*
X21767987Y-147824793D01*
X21772733Y-147922603D01*
X21773273Y-148001001D01*
X21771605Y-148120982D01*
X21764224Y-148208298D01*
X21747563Y-148281092D01*
X21718054Y-148357504D01*
X21692086Y-148413929D01*
X21574748Y-148606090D01*
X21422071Y-148768047D01*
X21241285Y-148893959D01*
X21039619Y-148977988D01*
X20972919Y-148994851D01*
X20845245Y-149022232D01*
X20845245Y-149628229D01*
X20565565Y-149628229D01*
X20565565Y-148712913D01*
X20845245Y-148712913D01*
X20909654Y-148712913D01*
X20969207Y-148701533D01*
X21049780Y-148672501D01*
X21096277Y-148650983D01*
X21246165Y-148547190D01*
X21374039Y-148400625D01*
X21435641Y-148299043D01*
X21468898Y-148221159D01*
X21486550Y-148134485D01*
X21492298Y-148019586D01*
X21492363Y-148001001D01*
X21471864Y-147811430D01*
X21408797Y-147647142D01*
X21300644Y-147502089D01*
X21273391Y-147474862D01*
X21188584Y-147408367D01*
X21086779Y-147349361D01*
X20985927Y-147306808D01*
X20903983Y-147289672D01*
X20902452Y-147289648D01*
X20845245Y-147289089D01*
X20845245Y-148712913D01*
X20565565Y-148712913D01*
X20565565Y-146983984D01*
X20712776Y-146983984D01*
G37*
G36*
X33015437Y-121679330D02*
G01*
X33018795Y-121731384D01*
X33015437Y-121742893D01*
X33006157Y-121746087D01*
X33002613Y-121711112D01*
X33006609Y-121675017D01*
X33015437Y-121679330D01*
G37*
G36*
X32642642Y-120605106D02*
G01*
X32629930Y-120617818D01*
X32617217Y-120605106D01*
X32629930Y-120592393D01*
X32642642Y-120605106D01*
G37*
G36*
X27981314Y-101455523D02*
G01*
X27977824Y-101470638D01*
X27964364Y-101472473D01*
X27943436Y-101463170D01*
X27947414Y-101455523D01*
X27977588Y-101452480D01*
X27981314Y-101455523D01*
G37*
G36*
X24557357Y-120655956D02*
G01*
X24544644Y-120668669D01*
X24531932Y-120655956D01*
X24544644Y-120643244D01*
X24557357Y-120655956D01*
G37*
G36*
X26150684Y-151085953D02*
G01*
X26147194Y-151101068D01*
X26133734Y-151102903D01*
X26112806Y-151093601D01*
X26116783Y-151085953D01*
X26146957Y-151082910D01*
X26150684Y-151085953D01*
G37*
G36*
X30292575Y-49464765D02*
G01*
X30325186Y-49512919D01*
X30364651Y-49580700D01*
X30403679Y-49654090D01*
X30434980Y-49719069D01*
X30451264Y-49761619D01*
X30451409Y-49770196D01*
X30436837Y-49753205D01*
X30405159Y-49700991D01*
X30362374Y-49623632D01*
X30347754Y-49596047D01*
X30309207Y-49519808D01*
X30287823Y-49471599D01*
X30286506Y-49458332D01*
X30292575Y-49464765D01*
G37*
G36*
X29903053Y-150755534D02*
G01*
X29906247Y-150764814D01*
X29871271Y-150768358D01*
X29835176Y-150764363D01*
X29839489Y-150755534D01*
X29891544Y-150752176D01*
X29903053Y-150755534D01*
G37*
G36*
X21700646Y-156419286D02*
G01*
X21701904Y-156423657D01*
X21705626Y-156479042D01*
X21700962Y-156499934D01*
X21692615Y-156500779D01*
X21689206Y-156460977D01*
X21689241Y-156454955D01*
X21692907Y-156415522D01*
X21700646Y-156419286D01*
G37*
G36*
X22649968Y-161346313D02*
G01*
X22685986Y-161393599D01*
X22737995Y-161466962D01*
X22796275Y-161552753D01*
X22991137Y-161824749D01*
X23217352Y-162106881D01*
X23464551Y-162387877D01*
X23722369Y-162656465D01*
X23980437Y-162901373D01*
X24228388Y-163111329D01*
X24233183Y-163115102D01*
X24336892Y-163197213D01*
X24405079Y-163253020D01*
X24442730Y-163286960D01*
X24454830Y-163303468D01*
X24449026Y-163307108D01*
X24427810Y-163292192D01*
X24375119Y-163251653D01*
X24299053Y-163191800D01*
X24213840Y-163123861D01*
X23931980Y-162882712D01*
X23650116Y-162613087D01*
X23377073Y-162324839D01*
X23121676Y-162027821D01*
X22892747Y-161731887D01*
X22699111Y-161446892D01*
X22670314Y-161400201D01*
X22638888Y-161345685D01*
X22633188Y-161329032D01*
X22649968Y-161346313D01*
G37*
G36*
X35506652Y-158809276D02*
G01*
X35507910Y-158813647D01*
X35511632Y-158869032D01*
X35506968Y-158889924D01*
X35498621Y-158890769D01*
X35495212Y-158850967D01*
X35495247Y-158844945D01*
X35498913Y-158805512D01*
X35506652Y-158809276D01*
G37*
G36*
X33093119Y-122912812D02*
G01*
X33097302Y-122988005D01*
X33092772Y-123039940D01*
X33086817Y-123050171D01*
X33082979Y-123016858D01*
X33082147Y-122969670D01*
X33084049Y-122911982D01*
X33088605Y-122895108D01*
X33093119Y-122912812D01*
G37*
G36*
X32591792Y-124724024D02*
G01*
X32579079Y-124736737D01*
X32566366Y-124724024D01*
X32579079Y-124711312D01*
X32591792Y-124724024D01*
G37*
G36*
X26732987Y-118513502D02*
G01*
X26716708Y-118528286D01*
X26665128Y-118558669D01*
X26588888Y-118598449D01*
X26577862Y-118603918D01*
X26498094Y-118641723D01*
X26439653Y-118666504D01*
X26413794Y-118673540D01*
X26413413Y-118672902D01*
X26434099Y-118655785D01*
X26486619Y-118625341D01*
X26556663Y-118588706D01*
X26629924Y-118553018D01*
X26692093Y-118525413D01*
X26728862Y-118513028D01*
X26732987Y-118513502D01*
G37*
G36*
X27837237Y-52388689D02*
G01*
X27824524Y-52401402D01*
X27811812Y-52388689D01*
X27824524Y-52375976D01*
X27837237Y-52388689D01*
G37*
G36*
X24407908Y-124236492D02*
G01*
X24424753Y-124278623D01*
X24422989Y-124294796D01*
X24405646Y-124285731D01*
X24395233Y-124265384D01*
X24380828Y-124217105D01*
X24386742Y-124207473D01*
X24407908Y-124236492D01*
G37*
G36*
X22243643Y-149628229D02*
G01*
X21963964Y-149628229D01*
X21963964Y-146983984D01*
X22243643Y-146983984D01*
X22243643Y-149628229D01*
G37*
G36*
X32837571Y-124135002D02*
G01*
X32840614Y-124165176D01*
X32837571Y-124168903D01*
X32822455Y-124165412D01*
X32820620Y-124151952D01*
X32829923Y-124131024D01*
X32837571Y-124135002D01*
G37*
G36*
X38462799Y-165972525D02*
G01*
X38721073Y-166034022D01*
X38924131Y-166117331D01*
X38995102Y-166152137D01*
X39046021Y-166174961D01*
X39061717Y-166180181D01*
X39069806Y-166157437D01*
X39074655Y-166099898D01*
X39075275Y-166065766D01*
X39075275Y-165951352D01*
X39609209Y-165951352D01*
X39609209Y-169663464D01*
X39075275Y-169663464D01*
X39075275Y-166919165D01*
X38941792Y-166819502D01*
X38798377Y-166722505D01*
X38657686Y-166645561D01*
X38547698Y-166601249D01*
X38490490Y-166583561D01*
X38490490Y-169663464D01*
X37956556Y-169663464D01*
X37956556Y-165951352D01*
X38192253Y-165951352D01*
X38462799Y-165972525D01*
G37*
G36*
X34803804Y-154370070D02*
G01*
X34791091Y-154382783D01*
X34778378Y-154370070D01*
X34791091Y-154357358D01*
X34803804Y-154370070D01*
G37*
G36*
X26150684Y-164205473D02*
G01*
X26147194Y-164220588D01*
X26133734Y-164222423D01*
X26112806Y-164213120D01*
X26116783Y-164205473D01*
X26146957Y-164202430D01*
X26150684Y-164205473D01*
G37*
G36*
X30837437Y-126528662D02*
G01*
X30816536Y-126544450D01*
X30762049Y-126575791D01*
X30686301Y-126616375D01*
X30601616Y-126659891D01*
X30520319Y-126700029D01*
X30454735Y-126730479D01*
X30417189Y-126744930D01*
X30414245Y-126745346D01*
X30406835Y-126736057D01*
X30407324Y-126735589D01*
X30437141Y-126717214D01*
X30497381Y-126685479D01*
X30576052Y-126646153D01*
X30661164Y-126605004D01*
X30740726Y-126567802D01*
X30802747Y-126540314D01*
X30835236Y-126528309D01*
X30837437Y-126528662D01*
G37*
G36*
X32965116Y-123714953D02*
G01*
X32968147Y-123754690D01*
X32963109Y-123763685D01*
X32951553Y-123756102D01*
X32949755Y-123730314D01*
X32955964Y-123703184D01*
X32965116Y-123714953D01*
G37*
G36*
X28736154Y-13219042D02*
G01*
X28757479Y-13286835D01*
X28790117Y-13394051D01*
X28832692Y-13535971D01*
X28883827Y-13707872D01*
X28942147Y-13905033D01*
X29006275Y-14122733D01*
X29074835Y-14356251D01*
X29146451Y-14600865D01*
X29219747Y-14851854D01*
X29293347Y-15104496D01*
X29365875Y-15354071D01*
X29435954Y-15595856D01*
X29502209Y-15825131D01*
X29563263Y-16037174D01*
X29617740Y-16227263D01*
X29664265Y-16390678D01*
X29701460Y-16522697D01*
X29727950Y-16618599D01*
X29742359Y-16673662D01*
X29744638Y-16685035D01*
X29720596Y-16690314D01*
X29654800Y-16694812D01*
X29556303Y-16698480D01*
X29434158Y-16701270D01*
X29297421Y-16703132D01*
X29155145Y-16704017D01*
X29016383Y-16703876D01*
X28890190Y-16702660D01*
X28785620Y-16700320D01*
X28711726Y-16696808D01*
X28677562Y-16692073D01*
X28676276Y-16690825D01*
X28669759Y-16661250D01*
X28651462Y-16589552D01*
X28623262Y-16482589D01*
X28587041Y-16347220D01*
X28544675Y-16190305D01*
X28498045Y-16018700D01*
X28449030Y-15839266D01*
X28399508Y-15658861D01*
X28351360Y-15484343D01*
X28306463Y-15322571D01*
X28266697Y-15180404D01*
X28233941Y-15064701D01*
X28210075Y-14982319D01*
X28196977Y-14940118D01*
X28195785Y-14937037D01*
X28173146Y-14886187D01*
X28152689Y-14937037D01*
X28138876Y-14971475D01*
X28108362Y-15047617D01*
X28063350Y-15159964D01*
X28006043Y-15303014D01*
X27938646Y-15471267D01*
X27863362Y-15659221D01*
X27782395Y-15861376D01*
X27770734Y-15890491D01*
X27409235Y-16793093D01*
X27234573Y-16424425D01*
X27165920Y-16279170D01*
X27083078Y-16103352D01*
X26993347Y-15912498D01*
X26904028Y-15722132D01*
X26832007Y-15568289D01*
X26764016Y-15425075D01*
X26702692Y-15300100D01*
X26651358Y-15199795D01*
X26613337Y-15130591D01*
X26591951Y-15098919D01*
X26588986Y-15097918D01*
X26578189Y-15126491D01*
X26556461Y-15196848D01*
X26525933Y-15301625D01*
X26488732Y-15433462D01*
X26446987Y-15584997D01*
X26429636Y-15648949D01*
X26354585Y-15924845D01*
X26290953Y-16154369D01*
X26237844Y-16340488D01*
X26194365Y-16486167D01*
X26159622Y-16594373D01*
X26132721Y-16668071D01*
X26112768Y-16710228D01*
X26107384Y-16717930D01*
X26055933Y-16752272D01*
X26006545Y-16737786D01*
X25982532Y-16706629D01*
X25972373Y-16675897D01*
X25972809Y-16633858D01*
X25985781Y-16572723D01*
X26013227Y-16484708D01*
X26057087Y-16362026D01*
X26090828Y-16271872D01*
X26109080Y-16217133D01*
X26139408Y-16118339D01*
X26180381Y-15980461D01*
X26230564Y-15808467D01*
X26288524Y-15607326D01*
X26352827Y-15382008D01*
X26422039Y-15137481D01*
X26494727Y-14878715D01*
X26552948Y-14670070D01*
X26625783Y-14409055D01*
X26694957Y-14162650D01*
X26759218Y-13935223D01*
X26817311Y-13731136D01*
X26867984Y-13554757D01*
X26909984Y-13410448D01*
X26942056Y-13302576D01*
X26962949Y-13235505D01*
X26971097Y-13213692D01*
X26984729Y-13231973D01*
X27016120Y-13292345D01*
X27063112Y-13390114D01*
X27123545Y-13520583D01*
X27195261Y-13679057D01*
X27276101Y-13860841D01*
X27363905Y-14061239D01*
X27415320Y-14179858D01*
X27506362Y-14390198D01*
X27591543Y-14586020D01*
X27668690Y-14762397D01*
X27735625Y-14914400D01*
X27790174Y-15037098D01*
X27830162Y-15125563D01*
X27853414Y-15174866D01*
X27858221Y-15183446D01*
X27871299Y-15164544D01*
X27901699Y-15103344D01*
X27947335Y-15004552D01*
X28006124Y-14872871D01*
X28075979Y-14713007D01*
X28154817Y-14529664D01*
X28240551Y-14327546D01*
X28294857Y-14198211D01*
X28383791Y-13986320D01*
X28466900Y-13789674D01*
X28542111Y-13613084D01*
X28607348Y-13461361D01*
X28660535Y-13339314D01*
X28699597Y-13251754D01*
X28722459Y-13203491D01*
X28727518Y-13195396D01*
X28736154Y-13219042D01*
G37*
G36*
X22155736Y-160400054D02*
G01*
X22187057Y-160451985D01*
X22195755Y-160468215D01*
X22225009Y-160529658D01*
X22238095Y-160569551D01*
X22237326Y-160575954D01*
X22221419Y-160562104D01*
X22193994Y-160515322D01*
X22184637Y-160496416D01*
X22153388Y-160425156D01*
X22144134Y-160392073D01*
X22155736Y-160400054D01*
G37*
G36*
X27801145Y-48705094D02*
G01*
X27765174Y-48728351D01*
X27698098Y-48766918D01*
X27646546Y-48795234D01*
X27521828Y-48870939D01*
X27397764Y-48964609D01*
X27262084Y-49085909D01*
X27195366Y-49150702D01*
X27110784Y-49233114D01*
X27045460Y-49294147D01*
X27004245Y-49329491D01*
X26991989Y-49334841D01*
X26996557Y-49327230D01*
X27083584Y-49222994D01*
X27199996Y-49108822D01*
X27334666Y-48993392D01*
X27476464Y-48885381D01*
X27614263Y-48793467D01*
X27736935Y-48726328D01*
X27799099Y-48701401D01*
X27801145Y-48705094D01*
G37*
G36*
X30523857Y-100107975D02*
G01*
X30526900Y-100138149D01*
X30523857Y-100141876D01*
X30508742Y-100138385D01*
X30506907Y-100124925D01*
X30516209Y-100103997D01*
X30523857Y-100107975D01*
G37*
G36*
X35481703Y-158953003D02*
G01*
X35485062Y-159005058D01*
X35481703Y-159016567D01*
X35472423Y-159019761D01*
X35468879Y-158984785D01*
X35472875Y-158948690D01*
X35481703Y-158953003D01*
G37*
G36*
X35532077Y-158656723D02*
G01*
X35533335Y-158661095D01*
X35537057Y-158716479D01*
X35532393Y-158737371D01*
X35524046Y-158738216D01*
X35520637Y-158698414D01*
X35520672Y-158692393D01*
X35524338Y-158652959D01*
X35532077Y-158656723D01*
G37*
G36*
X35532077Y-156571838D02*
G01*
X35533335Y-156576210D01*
X35537057Y-156631594D01*
X35532393Y-156652486D01*
X35524046Y-156653331D01*
X35520637Y-156613529D01*
X35520672Y-156607508D01*
X35524338Y-156568074D01*
X35532077Y-156571838D01*
G37*
G36*
X28697424Y-97561666D02*
G01*
X28733483Y-97563638D01*
X28764302Y-97567290D01*
X28748756Y-97570273D01*
X28691330Y-97572273D01*
X28600000Y-97572976D01*
X28506280Y-97572228D01*
X28450097Y-97570193D01*
X28435936Y-97567184D01*
X28466516Y-97563638D01*
X28578161Y-97559874D01*
X28697424Y-97561666D01*
G37*
G36*
X35355106Y-155750989D02*
G01*
X35358137Y-155790726D01*
X35353099Y-155799721D01*
X35341543Y-155792138D01*
X35339745Y-155766350D01*
X35345954Y-155739220D01*
X35355106Y-155750989D01*
G37*
G36*
X35283806Y-159772973D02*
G01*
X35274226Y-159821900D01*
X35250050Y-159886548D01*
X35249667Y-159887388D01*
X35226536Y-159931437D01*
X35214924Y-159940902D01*
X35214610Y-159938239D01*
X35223046Y-159899374D01*
X35243987Y-159836440D01*
X35248749Y-159823824D01*
X35270261Y-159776762D01*
X35282675Y-159766539D01*
X35283806Y-159772973D01*
G37*
G36*
X35329262Y-155662530D02*
G01*
X35332305Y-155692704D01*
X35329262Y-155696430D01*
X35314147Y-155692940D01*
X35312312Y-155679480D01*
X35321615Y-155658552D01*
X35329262Y-155662530D01*
G37*
G36*
X26610165Y-99432935D02*
G01*
X26613898Y-99540061D01*
X26612216Y-99650755D01*
X26610045Y-99687189D01*
X26606250Y-99713814D01*
X26603200Y-99694487D01*
X26601237Y-99634105D01*
X26600677Y-99552853D01*
X26601508Y-99462635D01*
X26603670Y-99410871D01*
X26606824Y-99401860D01*
X26610165Y-99432935D01*
G37*
G36*
X39532933Y-16704105D02*
G01*
X38515916Y-16704105D01*
X38515916Y-13297097D01*
X39532933Y-13297097D01*
X39532933Y-16704105D01*
G37*
G36*
X35405957Y-155954392D02*
G01*
X35408988Y-155994129D01*
X35403950Y-156003124D01*
X35392393Y-155995542D01*
X35390596Y-155969753D01*
X35396805Y-155942624D01*
X35405957Y-155954392D01*
G37*
G36*
X25942701Y-151165870D02*
G01*
X25906808Y-151190798D01*
X25904905Y-151191892D01*
X25850159Y-151218518D01*
X25815916Y-151228229D01*
X25816257Y-151217914D01*
X25852151Y-151192987D01*
X25854054Y-151191892D01*
X25908800Y-151165266D01*
X25943043Y-151155556D01*
X25942701Y-151165870D01*
G37*
G36*
X26921922Y-126786812D02*
G01*
X26977390Y-126804090D01*
X27023104Y-126824067D01*
X27045722Y-126839943D01*
X27036336Y-126845128D01*
X26997458Y-126834611D01*
X26938039Y-126809643D01*
X26934634Y-126808015D01*
X26889862Y-126785161D01*
X26889909Y-126779965D01*
X26921922Y-126786812D01*
G37*
G36*
X24626241Y-138275776D02*
G01*
X24635113Y-138060506D01*
X24666851Y-137868043D01*
X24726068Y-137679025D01*
X24816983Y-137474875D01*
X24873317Y-137369230D01*
X24933199Y-137276949D01*
X25006641Y-137184890D01*
X25103658Y-137079912D01*
X25166653Y-137015950D01*
X25284444Y-136901620D01*
X25383425Y-136815601D01*
X25477500Y-136747277D01*
X25580577Y-136686030D01*
X25639672Y-136654828D01*
X25922890Y-136531945D01*
X26212588Y-136448611D01*
X26394344Y-136418238D01*
X26540540Y-136401148D01*
X26540540Y-137017218D01*
X26456893Y-137017218D01*
X26347130Y-137028868D01*
X26213650Y-137060007D01*
X26076899Y-137104919D01*
X25961449Y-137155723D01*
X25841341Y-137218253D01*
X26292642Y-137219437D01*
X26743944Y-137220621D01*
X26743944Y-140119120D01*
X26457908Y-140117001D01*
X26323358Y-140112696D01*
X26189914Y-140102790D01*
X26076256Y-140088935D01*
X26021009Y-140078393D01*
X25782260Y-139998017D01*
X25544960Y-139876168D01*
X25321595Y-139721009D01*
X25124653Y-139540705D01*
X25028889Y-139429662D01*
X24858205Y-139177920D01*
X24736015Y-138918466D01*
X24659969Y-138644570D01*
X24627775Y-138350008D01*
X25222092Y-138350008D01*
X25235861Y-138513438D01*
X25241761Y-138545424D01*
X25300672Y-138736348D01*
X25393534Y-138923662D01*
X25511914Y-139094586D01*
X25647383Y-139236340D01*
X25746432Y-139310473D01*
X25813807Y-139348864D01*
X25898498Y-139392058D01*
X25985781Y-139433177D01*
X26060932Y-139465344D01*
X26109226Y-139481682D01*
X26114664Y-139482463D01*
X26119261Y-139458286D01*
X26123458Y-139389219D01*
X26127120Y-139281225D01*
X26130108Y-139140263D01*
X26132284Y-138972295D01*
X26133510Y-138783282D01*
X26133734Y-138657158D01*
X26133734Y-137830831D01*
X25625225Y-137830831D01*
X25625225Y-137614715D01*
X25622698Y-137517056D01*
X25615953Y-137442365D01*
X25606248Y-137402311D01*
X25601955Y-137398599D01*
X25570527Y-137419190D01*
X25522181Y-137473874D01*
X25464194Y-137552019D01*
X25403844Y-137642994D01*
X25348409Y-137736167D01*
X25305167Y-137820906D01*
X25292907Y-137850078D01*
X25252197Y-137996815D01*
X25228064Y-138170629D01*
X25222092Y-138350008D01*
X24627775Y-138350008D01*
X24627720Y-138349503D01*
X24626241Y-138275776D01*
G37*
G36*
X26659611Y-99077716D02*
G01*
X26662642Y-99117452D01*
X26657603Y-99126448D01*
X26646047Y-99118865D01*
X26644249Y-99093077D01*
X26650459Y-99065947D01*
X26659611Y-99077716D01*
G37*
G36*
X27040884Y-118391651D02*
G01*
X27023623Y-118405806D01*
X26977272Y-118427321D01*
X26960060Y-118430453D01*
X26955512Y-118419961D01*
X26972773Y-118405806D01*
X27019124Y-118384292D01*
X27036336Y-118381159D01*
X27040884Y-118391651D01*
G37*
G36*
X34765981Y-160987544D02*
G01*
X34741947Y-161038300D01*
X34704436Y-161108279D01*
X34660174Y-161185523D01*
X34615883Y-161258076D01*
X34578289Y-161313978D01*
X34567105Y-161328432D01*
X34518089Y-161387488D01*
X34555549Y-161323924D01*
X34587944Y-161267981D01*
X34634174Y-161187008D01*
X34675407Y-161114165D01*
X34718911Y-161039947D01*
X34752949Y-160987328D01*
X34769814Y-160967968D01*
X34765981Y-160987544D01*
G37*
G36*
X29153299Y-118134083D02*
G01*
X29159243Y-118140955D01*
X29122730Y-118144812D01*
X29095796Y-118145140D01*
X29046557Y-118142637D01*
X29039087Y-118136894D01*
X29051598Y-118133570D01*
X29117847Y-118129476D01*
X29153299Y-118134083D01*
G37*
G36*
X32681863Y-120710965D02*
G01*
X32713184Y-120762896D01*
X32721881Y-120779126D01*
X32751135Y-120840569D01*
X32764221Y-120880462D01*
X32763452Y-120886865D01*
X32747545Y-120873015D01*
X32720120Y-120826233D01*
X32710763Y-120807327D01*
X32679514Y-120736067D01*
X32670260Y-120702984D01*
X32681863Y-120710965D01*
G37*
G36*
X27222042Y-126890676D02*
G01*
X27239740Y-126897898D01*
X27268396Y-126915239D01*
X27252452Y-126921147D01*
X27198175Y-126909141D01*
X27176176Y-126897898D01*
X27156207Y-126878832D01*
X27174692Y-126876424D01*
X27222042Y-126890676D01*
G37*
G36*
X30879813Y-151009677D02*
G01*
X30876323Y-151024792D01*
X30862863Y-151026627D01*
X30841935Y-151017324D01*
X30845912Y-151009677D01*
X30876086Y-151006634D01*
X30879813Y-151009677D01*
G37*
G36*
X29714344Y-97888039D02*
G01*
X29761393Y-97920151D01*
X29833199Y-97979688D01*
X29919612Y-98057097D01*
X30010482Y-98142828D01*
X30095659Y-98227329D01*
X30164992Y-98301047D01*
X30205295Y-98350052D01*
X30236866Y-98396671D01*
X30248649Y-98418830D01*
X30248027Y-98419142D01*
X30228262Y-98401099D01*
X30180288Y-98353577D01*
X30111201Y-98283695D01*
X30028095Y-98198572D01*
X30023824Y-98194171D01*
X29932102Y-98101503D01*
X29845603Y-98017381D01*
X29774512Y-97951518D01*
X29731431Y-97915368D01*
X29692231Y-97884171D01*
X29696034Y-97879914D01*
X29714344Y-97888039D01*
G37*
G36*
X26684618Y-100107975D02*
G01*
X26687661Y-100138149D01*
X26684618Y-100141876D01*
X26669502Y-100138385D01*
X26667667Y-100124925D01*
X26676970Y-100103997D01*
X26684618Y-100107975D01*
G37*
G36*
X32939691Y-121375814D02*
G01*
X32942722Y-121415551D01*
X32937683Y-121424546D01*
X32926127Y-121416963D01*
X32924329Y-121391175D01*
X32930539Y-121364045D01*
X32939691Y-121375814D01*
G37*
G36*
X32254905Y-151659505D02*
G01*
X32304008Y-151690007D01*
X32351894Y-151724729D01*
X32384262Y-151752615D01*
X32388388Y-151762727D01*
X32360817Y-151750542D01*
X32308337Y-151719840D01*
X32293043Y-151710188D01*
X32239096Y-151672420D01*
X32212375Y-151647726D01*
X32217405Y-151642120D01*
X32254905Y-151659505D01*
G37*
G36*
X27269403Y-118312580D02*
G01*
X27265912Y-118327695D01*
X27252452Y-118329530D01*
X27231524Y-118320227D01*
X27235502Y-118312580D01*
X27265676Y-118309537D01*
X27269403Y-118312580D01*
G37*
G36*
X34500890Y-161435142D02*
G01*
X34481434Y-161472430D01*
X34422913Y-161566994D01*
X34336240Y-161690209D01*
X34228108Y-161833691D01*
X34105212Y-161989055D01*
X33974246Y-162147919D01*
X33841905Y-162301899D01*
X33714883Y-162442612D01*
X33662208Y-162498366D01*
X33464444Y-162696310D01*
X33257201Y-162889532D01*
X33050875Y-163068964D01*
X32855863Y-163225533D01*
X32697092Y-163340433D01*
X32638005Y-163379312D01*
X32611122Y-163394736D01*
X32620832Y-163384286D01*
X32627939Y-163378571D01*
X32676568Y-163340139D01*
X32754478Y-163278597D01*
X32851037Y-163202342D01*
X32955613Y-163119772D01*
X32958354Y-163117608D01*
X33300650Y-162826097D01*
X33634662Y-162500828D01*
X33947725Y-162155168D01*
X34227175Y-161802482D01*
X34297920Y-161703937D01*
X34387857Y-161576232D01*
X34451127Y-161488017D01*
X34489727Y-161436774D01*
X34505649Y-161419987D01*
X34500890Y-161435142D01*
G37*
G36*
X24499823Y-163323244D02*
G01*
X24548187Y-163351964D01*
X24595495Y-163383384D01*
X24658643Y-163428752D01*
X24700196Y-163462291D01*
X24709910Y-163473594D01*
X24707370Y-163481999D01*
X24693179Y-163477395D01*
X24657481Y-163454289D01*
X24590416Y-163407187D01*
X24589139Y-163406283D01*
X24528223Y-163360939D01*
X24489034Y-163327549D01*
X24481081Y-163317206D01*
X24499823Y-163323244D01*
G37*
G36*
X27233383Y-150780959D02*
G01*
X27236577Y-150790240D01*
X27201601Y-150793784D01*
X27165507Y-150789788D01*
X27169820Y-150780959D01*
X27221874Y-150777601D01*
X27233383Y-150780959D01*
G37*
G36*
X31087763Y-118848323D02*
G01*
X31115058Y-118873924D01*
X31109459Y-118888642D01*
X31105905Y-118888889D01*
X31084400Y-118870830D01*
X31076551Y-118859535D01*
X31073554Y-118842137D01*
X31087763Y-118848323D01*
G37*
G36*
X26659611Y-100018456D02*
G01*
X26662642Y-100058193D01*
X26657603Y-100067188D01*
X26646047Y-100059606D01*
X26644249Y-100033818D01*
X26650459Y-100006688D01*
X26659611Y-100018456D01*
G37*
G36*
X24608208Y-124673174D02*
G01*
X24595495Y-124685886D01*
X24582783Y-124673174D01*
X24595495Y-124660461D01*
X24608208Y-124673174D01*
G37*
G36*
X24167389Y-123357408D02*
G01*
X24170747Y-123409462D01*
X24167389Y-123420971D01*
X24158109Y-123424165D01*
X24154565Y-123389190D01*
X24158561Y-123353095D01*
X24167389Y-123357408D01*
G37*
G36*
X27652373Y-127009664D02*
G01*
X27644790Y-127021220D01*
X27619002Y-127023018D01*
X27591872Y-127016809D01*
X27603641Y-127007657D01*
X27643378Y-127004626D01*
X27652373Y-127009664D01*
G37*
G36*
X32888422Y-123982450D02*
G01*
X32891464Y-124012624D01*
X32888422Y-124016350D01*
X32873306Y-124012860D01*
X32871471Y-123999400D01*
X32880774Y-123978472D01*
X32888422Y-123982450D01*
G37*
G36*
X24142651Y-121971722D02*
G01*
X24146605Y-122036207D01*
X24142651Y-122060711D01*
X24135282Y-122068624D01*
X24131270Y-122033467D01*
X24131024Y-122016217D01*
X24133675Y-121969960D01*
X24140274Y-121964508D01*
X24142651Y-121971722D01*
G37*
G36*
X30498432Y-100184251D02*
G01*
X30501475Y-100214425D01*
X30498432Y-100218152D01*
X30483316Y-100214662D01*
X30481481Y-100201202D01*
X30490784Y-100180274D01*
X30498432Y-100184251D01*
G37*
G36*
X29496730Y-127033773D02*
G01*
X29497575Y-127042120D01*
X29457773Y-127045529D01*
X29451752Y-127045494D01*
X29412318Y-127041828D01*
X29416082Y-127034089D01*
X29420454Y-127032831D01*
X29475838Y-127029109D01*
X29496730Y-127033773D01*
G37*
G36*
X32495055Y-120332830D02*
G01*
X32524543Y-120381968D01*
X32528228Y-120388989D01*
X32551272Y-120439856D01*
X32556158Y-120464763D01*
X32554959Y-120465266D01*
X32535976Y-120445148D01*
X32506488Y-120396011D01*
X32502803Y-120388989D01*
X32479758Y-120338122D01*
X32474872Y-120313216D01*
X32476071Y-120312713D01*
X32495055Y-120332830D01*
G37*
G36*
X25116717Y-151571485D02*
G01*
X25097226Y-151591905D01*
X25065866Y-151611412D01*
X25026555Y-151627779D01*
X25015015Y-151625914D01*
X25034505Y-151605493D01*
X25065866Y-151585986D01*
X25105177Y-151569619D01*
X25116717Y-151571485D01*
G37*
G36*
X27513547Y-150730270D02*
G01*
X27514392Y-150738617D01*
X27474590Y-150742026D01*
X27468568Y-150741991D01*
X27429135Y-150738324D01*
X27432899Y-150730586D01*
X27437270Y-150729328D01*
X27492655Y-150725606D01*
X27513547Y-150730270D01*
G37*
G36*
X27106256Y-164485264D02*
G01*
X27109450Y-164494544D01*
X27074474Y-164498088D01*
X27038380Y-164494092D01*
X27042693Y-164485264D01*
X27094747Y-164481906D01*
X27106256Y-164485264D01*
G37*
G36*
X30042363Y-164512167D02*
G01*
X30034780Y-164523723D01*
X30008992Y-164525521D01*
X29981862Y-164519311D01*
X29993631Y-164510159D01*
X30033368Y-164507128D01*
X30042363Y-164512167D01*
G37*
G36*
X35176710Y-155204872D02*
G01*
X35179753Y-155235046D01*
X35176710Y-155238773D01*
X35161594Y-155235282D01*
X35159760Y-155221822D01*
X35169062Y-155200894D01*
X35176710Y-155204872D01*
G37*
G36*
X35137438Y-155102958D02*
G01*
X35154282Y-155145089D01*
X35152518Y-155161262D01*
X35135175Y-155152198D01*
X35124762Y-155131850D01*
X35110357Y-155083572D01*
X35116272Y-155073940D01*
X35137438Y-155102958D01*
G37*
G36*
X30042363Y-150782437D02*
G01*
X30034780Y-150793993D01*
X30008992Y-150795791D01*
X29981862Y-150789582D01*
X29993631Y-150780430D01*
X30033368Y-150777399D01*
X30042363Y-150782437D01*
G37*
G36*
X27447381Y-118261729D02*
G01*
X27443890Y-118276844D01*
X27430430Y-118278679D01*
X27409502Y-118269376D01*
X27413480Y-118261729D01*
X27443654Y-118258686D01*
X27447381Y-118261729D01*
G37*
G36*
X32862996Y-121134802D02*
G01*
X32866039Y-121164976D01*
X32862996Y-121168702D01*
X32847881Y-121165212D01*
X32846046Y-121151752D01*
X32855349Y-121130824D01*
X32862996Y-121134802D01*
G37*
G36*
X20925446Y-16379531D02*
G01*
X20906240Y-16360861D01*
X20803615Y-16252881D01*
X20724182Y-16149892D01*
X20653370Y-16031436D01*
X20607450Y-15941342D01*
X20531789Y-15778571D01*
X20476776Y-15636655D01*
X20439345Y-15501374D01*
X20416430Y-15358508D01*
X20404965Y-15193836D01*
X20401886Y-14993138D01*
X20401889Y-14987888D01*
X20405381Y-14785185D01*
X20417313Y-14619232D01*
X20440511Y-14476240D01*
X20477802Y-14342419D01*
X20532014Y-14203978D01*
X20586741Y-14086221D01*
X20654108Y-13964520D01*
X20736921Y-13850172D01*
X20846948Y-13727471D01*
X20883383Y-13690335D01*
X21070080Y-13523865D01*
X21256977Y-13403104D01*
X21453942Y-13323839D01*
X21670841Y-13281855D01*
X21862262Y-13272276D01*
X22116867Y-13290708D01*
X22343302Y-13348179D01*
X22549534Y-13447951D01*
X22743530Y-13593288D01*
X22818390Y-13663818D01*
X22990607Y-13870106D01*
X23129609Y-14110545D01*
X23231235Y-14377555D01*
X23251909Y-14453954D01*
X23276564Y-14593073D01*
X23292254Y-14765300D01*
X23298983Y-14955554D01*
X23296756Y-15148753D01*
X23285576Y-15329814D01*
X23265447Y-15483655D01*
X23251614Y-15547248D01*
X23155347Y-15831322D01*
X23023715Y-16080766D01*
X22854567Y-16299451D01*
X22805758Y-16350177D01*
X22649038Y-16491449D01*
X22495837Y-16595120D01*
X22330173Y-16670551D01*
X22181094Y-16716043D01*
X22021245Y-16743130D01*
X21839989Y-16751792D01*
X21660572Y-16742050D01*
X21511539Y-16715378D01*
X21297783Y-16639517D01*
X21182411Y-16573441D01*
X21658859Y-16573441D01*
X21716066Y-16585113D01*
X21801090Y-16591321D01*
X21916560Y-16585381D01*
X22044118Y-16569424D01*
X22165405Y-16545583D01*
X22239789Y-16524302D01*
X22454326Y-16423876D01*
X22647668Y-16280076D01*
X22816101Y-16097278D01*
X22955913Y-15879860D01*
X23063392Y-15632197D01*
X23101008Y-15509110D01*
X23123107Y-15390817D01*
X23137981Y-15237851D01*
X23145453Y-15065788D01*
X23145346Y-14890202D01*
X23137484Y-14726671D01*
X23121688Y-14590769D01*
X23111986Y-14542943D01*
X23055058Y-14365673D01*
X22972496Y-14181404D01*
X22873143Y-14006609D01*
X22765844Y-13857764D01*
X22712530Y-13798776D01*
X22554728Y-13666817D01*
X22373391Y-13559709D01*
X22180213Y-13481930D01*
X21986889Y-13437959D01*
X21805113Y-13432272D01*
X21766917Y-13436739D01*
X21658859Y-13452766D01*
X21658859Y-16573441D01*
X21182411Y-16573441D01*
X21107039Y-16530274D01*
X20925446Y-16379531D01*
G37*
G36*
X29776410Y-164561701D02*
G01*
X29777255Y-164570048D01*
X29737452Y-164573457D01*
X29731431Y-164573422D01*
X29691998Y-164569756D01*
X29695762Y-164562017D01*
X29700133Y-164560759D01*
X29755518Y-164557037D01*
X29776410Y-164561701D01*
G37*
G36*
X27905038Y-101430097D02*
G01*
X27901548Y-101445213D01*
X27888088Y-101447047D01*
X27867160Y-101437745D01*
X27871138Y-101430097D01*
X27901312Y-101427054D01*
X27905038Y-101430097D01*
G37*
G36*
X41109309Y-17899099D02*
G01*
X16090691Y-17899099D01*
X16090691Y-17110911D01*
X41109309Y-17110911D01*
X41109309Y-17899099D01*
G37*
G36*
X32553322Y-124781722D02*
G01*
X32532672Y-124829683D01*
X32528228Y-124838439D01*
X32498253Y-124889920D01*
X32477409Y-124914392D01*
X32476071Y-124914715D01*
X32477708Y-124895156D01*
X32498359Y-124847195D01*
X32502803Y-124838439D01*
X32532777Y-124786958D01*
X32553622Y-124762485D01*
X32554959Y-124762163D01*
X32553322Y-124781722D01*
G37*
G36*
X29776410Y-150730270D02*
G01*
X29777255Y-150738617D01*
X29737452Y-150742026D01*
X29731431Y-150741991D01*
X29691998Y-150738324D01*
X29695762Y-150730586D01*
X29700133Y-150729328D01*
X29755518Y-150725606D01*
X29776410Y-150730270D01*
G37*
G36*
X35431382Y-156056094D02*
G01*
X35434413Y-156095831D01*
X35429375Y-156104826D01*
X35417819Y-156097243D01*
X35416021Y-156071455D01*
X35422230Y-156044325D01*
X35431382Y-156056094D01*
G37*
G36*
X30201802Y-118396319D02*
G01*
X30254194Y-118413397D01*
X30309500Y-118436960D01*
X30353996Y-118460127D01*
X30373959Y-118476017D01*
X30367067Y-118479179D01*
X30330102Y-118468354D01*
X30267308Y-118442171D01*
X30239940Y-118429403D01*
X30193346Y-118404342D01*
X30185780Y-118393918D01*
X30201802Y-118396319D01*
G37*
G36*
X32456892Y-151787820D02*
G01*
X32506640Y-151818875D01*
X32528313Y-151840377D01*
X32537818Y-151862620D01*
X32517726Y-151853767D01*
X32464664Y-151812543D01*
X32426509Y-151779905D01*
X32427428Y-151774471D01*
X32456892Y-151787820D01*
G37*
G36*
X22119620Y-160289745D02*
G01*
X22136465Y-160331876D01*
X22134701Y-160348049D01*
X22117358Y-160338984D01*
X22106945Y-160318637D01*
X22092539Y-160270359D01*
X22098454Y-160260726D01*
X22119620Y-160289745D01*
G37*
G36*
X26735469Y-100260528D02*
G01*
X26738512Y-100290702D01*
X26735469Y-100294428D01*
X26720353Y-100290938D01*
X26718518Y-100277478D01*
X26727821Y-100256550D01*
X26735469Y-100260528D01*
G37*
G36*
X29098187Y-164635756D02*
G01*
X29101585Y-164636100D01*
X29125644Y-164640814D01*
X29103861Y-164644391D01*
X29041242Y-164646206D01*
X29019519Y-164646312D01*
X28945298Y-164645192D01*
X28908580Y-164642038D01*
X28915356Y-164637476D01*
X28923607Y-164636305D01*
X29007686Y-164632036D01*
X29098187Y-164635756D01*
G37*
G36*
X21650960Y-156753704D02*
G01*
X21654914Y-156818189D01*
X21650960Y-156842693D01*
X21643590Y-156850606D01*
X21639578Y-156815449D01*
X21639332Y-156798199D01*
X21641983Y-156751942D01*
X21648583Y-156746490D01*
X21650960Y-156753704D01*
G37*
G36*
X36541886Y-149343589D02*
G01*
X36601689Y-149396243D01*
X36631068Y-149467974D01*
X36625222Y-149545667D01*
X36579354Y-149616211D01*
X36567442Y-149626383D01*
X36486564Y-149671560D01*
X36413989Y-149668465D01*
X36340937Y-149616722D01*
X36340886Y-149616672D01*
X36291788Y-149539069D01*
X36285170Y-149458509D01*
X36316128Y-149387442D01*
X36379761Y-149338321D01*
X36456456Y-149323124D01*
X36541886Y-149343589D01*
G37*
G36*
X26881105Y-49523364D02*
G01*
X26859030Y-49576488D01*
X26830302Y-49636387D01*
X26786061Y-49722957D01*
X26759615Y-49769998D01*
X26746930Y-49783905D01*
X26743944Y-49773263D01*
X26754613Y-49740667D01*
X26781241Y-49682644D01*
X26815758Y-49614702D01*
X26850092Y-49552347D01*
X26876175Y-49511088D01*
X26884640Y-49502903D01*
X26881105Y-49523364D01*
G37*
G36*
X21599307Y-157429131D02*
G01*
X21601502Y-157466778D01*
X21604733Y-157596648D01*
X21604529Y-157738329D01*
X21601437Y-157848159D01*
X21598537Y-157887230D01*
X21596051Y-157879374D01*
X21594150Y-157828514D01*
X21593008Y-157738573D01*
X21592751Y-157649950D01*
X21593263Y-157535056D01*
X21594641Y-157457566D01*
X21596713Y-157421064D01*
X21599307Y-157429131D01*
G37*
G36*
X31210654Y-164157417D02*
G01*
X31193393Y-164171572D01*
X31147042Y-164193087D01*
X31129830Y-164196219D01*
X31125282Y-164185727D01*
X31142542Y-164171572D01*
X31188893Y-164150057D01*
X31206106Y-164146925D01*
X31210654Y-164157417D01*
G37*
G36*
X26787909Y-164410465D02*
G01*
X26780326Y-164422021D01*
X26754538Y-164423819D01*
X26727408Y-164417610D01*
X26739176Y-164408458D01*
X26778913Y-164405427D01*
X26787909Y-164410465D01*
G37*
G36*
X35158981Y-160141642D02*
G01*
X35146321Y-160183426D01*
X35134334Y-160205206D01*
X35114188Y-160225557D01*
X35109687Y-160217918D01*
X35122347Y-160176135D01*
X35134334Y-160154355D01*
X35154481Y-160134004D01*
X35158981Y-160141642D01*
G37*
G36*
X21828780Y-159412250D02*
G01*
X21831811Y-159451987D01*
X21826772Y-159460982D01*
X21815216Y-159453399D01*
X21813418Y-159427611D01*
X21819628Y-159400482D01*
X21828780Y-159412250D01*
G37*
G36*
X26633655Y-50869520D02*
G01*
X26637014Y-50921575D01*
X26633655Y-50933083D01*
X26624375Y-50936278D01*
X26620831Y-50901302D01*
X26624827Y-50865207D01*
X26633655Y-50869520D01*
G37*
G36*
X29350719Y-97695185D02*
G01*
X29410247Y-97721590D01*
X29483336Y-97757294D01*
X29555741Y-97795057D01*
X29613221Y-97827641D01*
X29641533Y-97847808D01*
X29642442Y-97849716D01*
X29641608Y-97857527D01*
X29632934Y-97857903D01*
X29607164Y-97846859D01*
X29555043Y-97820409D01*
X29467315Y-97774566D01*
X29464464Y-97773073D01*
X29387820Y-97731525D01*
X29335786Y-97700520D01*
X29317871Y-97685796D01*
X29318993Y-97685318D01*
X29350719Y-97695185D01*
G37*
G36*
X24320053Y-123982450D02*
G01*
X24323096Y-124012624D01*
X24320053Y-124016350D01*
X24304938Y-124012860D01*
X24303103Y-123999400D01*
X24312406Y-123978472D01*
X24320053Y-123982450D01*
G37*
G36*
X32862996Y-124058726D02*
G01*
X32866039Y-124088900D01*
X32862996Y-124092626D01*
X32847881Y-124089136D01*
X32846046Y-124075676D01*
X32855349Y-124054748D01*
X32862996Y-124058726D01*
G37*
G36*
X31083216Y-164205473D02*
G01*
X31079726Y-164220588D01*
X31066266Y-164222423D01*
X31045338Y-164213120D01*
X31049316Y-164205473D01*
X31079490Y-164202430D01*
X31083216Y-164205473D01*
G37*
G36*
X28160882Y-52487742D02*
G01*
X28153299Y-52499298D01*
X28127511Y-52501096D01*
X28100381Y-52494887D01*
X28112149Y-52485735D01*
X28151886Y-52482704D01*
X28160882Y-52487742D01*
G37*
G36*
X29290132Y-48651877D02*
G01*
X29311912Y-48663864D01*
X29332263Y-48684011D01*
X29324624Y-48688511D01*
X29282841Y-48675852D01*
X29261061Y-48663864D01*
X29240710Y-48643718D01*
X29248348Y-48639218D01*
X29290132Y-48651877D01*
G37*
G36*
X27233383Y-164510689D02*
G01*
X27236577Y-164519969D01*
X27201601Y-164523513D01*
X27165507Y-164519518D01*
X27169820Y-164510689D01*
X27221874Y-164507331D01*
X27233383Y-164510689D01*
G37*
G36*
X21897965Y-159694030D02*
G01*
X21918435Y-159741239D01*
X21946902Y-159817403D01*
X21952963Y-159834598D01*
X21981523Y-159921089D01*
X22000134Y-159986851D01*
X22005270Y-160019229D01*
X22004736Y-160020356D01*
X21992466Y-160003430D01*
X21969654Y-159949715D01*
X21941353Y-159871161D01*
X21914065Y-159785720D01*
X21895409Y-159718364D01*
X21889580Y-159685404D01*
X21897965Y-159694030D01*
G37*
G36*
X35558667Y-158457208D02*
G01*
X35562621Y-158521692D01*
X35558667Y-158546197D01*
X35551298Y-158554110D01*
X35547286Y-158518953D01*
X35547040Y-158501702D01*
X35549691Y-158455445D01*
X35556290Y-158449994D01*
X35558667Y-158457208D01*
G37*
G36*
X29278011Y-97667134D02*
G01*
X29274521Y-97682250D01*
X29261061Y-97684084D01*
X29240133Y-97674782D01*
X29244111Y-97667134D01*
X29274285Y-97664091D01*
X29278011Y-97667134D01*
G37*
G36*
X24450919Y-124354496D02*
G01*
X24471376Y-124389385D01*
X24495307Y-124441787D01*
X24500480Y-124471357D01*
X24499913Y-124472125D01*
X24483343Y-124459963D01*
X24459786Y-124417830D01*
X24435856Y-124357946D01*
X24433436Y-124335520D01*
X24450919Y-124354496D01*
G37*
G36*
X28135986Y-127083775D02*
G01*
X28143899Y-127091145D01*
X28108742Y-127095157D01*
X28091491Y-127095403D01*
X28045234Y-127092752D01*
X28039783Y-127086152D01*
X28046997Y-127083775D01*
X28111481Y-127079821D01*
X28135986Y-127083775D01*
G37*
G36*
X35380531Y-159412250D02*
G01*
X35383563Y-159451987D01*
X35378524Y-159460982D01*
X35366968Y-159453399D01*
X35365170Y-159427611D01*
X35371380Y-159400482D01*
X35380531Y-159412250D01*
G37*
G36*
X31383742Y-164081987D02*
G01*
X31347849Y-164106914D01*
X31345946Y-164108008D01*
X31291200Y-164134634D01*
X31256957Y-164144345D01*
X31257298Y-164134030D01*
X31293192Y-164109103D01*
X31295095Y-164108008D01*
X31349841Y-164081383D01*
X31384084Y-164071672D01*
X31383742Y-164081987D01*
G37*
G36*
X28275826Y-48570749D02*
G01*
X28279020Y-48580029D01*
X28244044Y-48583573D01*
X28207949Y-48579578D01*
X28212262Y-48570749D01*
X28264317Y-48567391D01*
X28275826Y-48570749D01*
G37*
G36*
X29137153Y-97621719D02*
G01*
X29172072Y-97633234D01*
X29197743Y-97648935D01*
X29184244Y-97654114D01*
X29142156Y-97648771D01*
X29083083Y-97633234D01*
X29044339Y-97618644D01*
X29052726Y-97612833D01*
X29070370Y-97612130D01*
X29137153Y-97621719D01*
G37*
G36*
X26794795Y-118494795D02*
G01*
X26782082Y-118507508D01*
X26769369Y-118494795D01*
X26782082Y-118482082D01*
X26794795Y-118494795D01*
G37*
G36*
X27345679Y-126931799D02*
G01*
X27342189Y-126946914D01*
X27328729Y-126948749D01*
X27307801Y-126939446D01*
X27311778Y-126931799D01*
X27341952Y-126928756D01*
X27345679Y-126931799D01*
G37*
G36*
X30100100Y-166536137D02*
G01*
X28930530Y-166536137D01*
X28930530Y-166764965D01*
X30125525Y-166764965D01*
X30125525Y-167375176D01*
X28930530Y-167375176D01*
X28930530Y-167690315D01*
X28933009Y-167851193D01*
X28941449Y-167975713D01*
X28957360Y-168078174D01*
X28981006Y-168168876D01*
X29075204Y-168392339D01*
X29209385Y-168591879D01*
X29377394Y-168762036D01*
X29573075Y-168897353D01*
X29790269Y-168992370D01*
X29955080Y-169032527D01*
X30125525Y-169060771D01*
X30125525Y-169663464D01*
X30030180Y-169659654D01*
X29942286Y-169654142D01*
X29861093Y-169646060D01*
X29858558Y-169645728D01*
X29611488Y-169588606D01*
X29369634Y-169486432D01*
X29142094Y-169344859D01*
X28937966Y-169169538D01*
X28767805Y-168968179D01*
X28637784Y-168767237D01*
X28538452Y-168570068D01*
X28466126Y-168365007D01*
X28417121Y-168140390D01*
X28387754Y-167884551D01*
X28379115Y-167737488D01*
X28363255Y-167375176D01*
X28193193Y-167375176D01*
X28193193Y-166764965D01*
X28371171Y-166764965D01*
X28371171Y-165951352D01*
X30100100Y-165951352D01*
X30100100Y-166536137D01*
G37*
G36*
X26659611Y-50998236D02*
G01*
X26662642Y-51037973D01*
X26657603Y-51046968D01*
X26646047Y-51039385D01*
X26644249Y-51013597D01*
X26650459Y-50986468D01*
X26659611Y-50998236D01*
G37*
G36*
X26733177Y-49854078D02*
G01*
X26712279Y-49917969D01*
X26705806Y-49935136D01*
X26684294Y-49982198D01*
X26671879Y-49992420D01*
X26670749Y-49985986D01*
X26680329Y-49937059D01*
X26704504Y-49872412D01*
X26704887Y-49871572D01*
X26729396Y-49824992D01*
X26738854Y-49821124D01*
X26733177Y-49854078D01*
G37*
G36*
X32767968Y-124342643D02*
G01*
X32756293Y-124381696D01*
X32731631Y-124431632D01*
X32706333Y-124468669D01*
X32695312Y-124470507D01*
X32695295Y-124469770D01*
X32706969Y-124430717D01*
X32731631Y-124380781D01*
X32756930Y-124343744D01*
X32767951Y-124341906D01*
X32767968Y-124342643D01*
G37*
G36*
X26684618Y-164383451D02*
G01*
X26681128Y-164398566D01*
X26667667Y-164400401D01*
X26646739Y-164391098D01*
X26650717Y-164383451D01*
X26680891Y-164380408D01*
X26684618Y-164383451D01*
G37*
G36*
X29591591Y-52285682D02*
G01*
X29571558Y-52304329D01*
X29524660Y-52332547D01*
X29470700Y-52359706D01*
X29429481Y-52375179D01*
X29423351Y-52375976D01*
X29414993Y-52367204D01*
X29415732Y-52366497D01*
X29448717Y-52345412D01*
X29500414Y-52319138D01*
X29552547Y-52296074D01*
X29586837Y-52284619D01*
X29591591Y-52285682D01*
G37*
G36*
X22243643Y-154726026D02*
G01*
X22230931Y-154738739D01*
X22218218Y-154726026D01*
X22230931Y-154713314D01*
X22243643Y-154726026D01*
G37*
G36*
X28275826Y-97590969D02*
G01*
X28279020Y-97600250D01*
X28244044Y-97603794D01*
X28207949Y-97599798D01*
X28212262Y-97590969D01*
X28264317Y-97587611D01*
X28275826Y-97590969D01*
G37*
G36*
X34880080Y-160777278D02*
G01*
X34867367Y-160789990D01*
X34854654Y-160777278D01*
X34867367Y-160764565D01*
X34880080Y-160777278D01*
G37*
G36*
X32913847Y-121287354D02*
G01*
X32916890Y-121317528D01*
X32913847Y-121321255D01*
X32898732Y-121317765D01*
X32896897Y-121304305D01*
X32906199Y-121283377D01*
X32913847Y-121287354D01*
G37*
G36*
X33015437Y-123484535D02*
G01*
X33018795Y-123536590D01*
X33015437Y-123548098D01*
X33006157Y-123551293D01*
X33002613Y-123516317D01*
X33006609Y-123480222D01*
X33015437Y-123484535D01*
G37*
G36*
X31296009Y-151167230D02*
G01*
X31345946Y-151191892D01*
X31382983Y-151217190D01*
X31384821Y-151228212D01*
X31384084Y-151228229D01*
X31345031Y-151216554D01*
X31295095Y-151191892D01*
X31258058Y-151166594D01*
X31256220Y-151155572D01*
X31256957Y-151155556D01*
X31296009Y-151167230D01*
G37*
G36*
X32433392Y-124990405D02*
G01*
X32425766Y-125003704D01*
X32339553Y-125138714D01*
X32226952Y-125295077D01*
X32098482Y-125459165D01*
X31964659Y-125617349D01*
X31882349Y-125707828D01*
X31776704Y-125814307D01*
X31651680Y-125931138D01*
X31516537Y-126050536D01*
X31380537Y-126164720D01*
X31252941Y-126265905D01*
X31143010Y-126346310D01*
X31062448Y-126396854D01*
X31009757Y-126424651D01*
X30998534Y-126428251D01*
X31025524Y-126407656D01*
X31040454Y-126396854D01*
X31399707Y-126120481D01*
X31716169Y-125841284D01*
X31987334Y-125561669D01*
X32210694Y-125284045D01*
X32235836Y-125248588D01*
X32331139Y-125113037D01*
X32398403Y-125019628D01*
X32437771Y-124968176D01*
X32449386Y-124958497D01*
X32433392Y-124990405D01*
G37*
G36*
X21879212Y-159603471D02*
G01*
X21882255Y-159633645D01*
X21879212Y-159637371D01*
X21864097Y-159633881D01*
X21862262Y-159620421D01*
X21871565Y-159599493D01*
X21879212Y-159603471D01*
G37*
G36*
X25851585Y-164083390D02*
G01*
X25916243Y-164109298D01*
X25968468Y-164132878D01*
X26032879Y-164165205D01*
X26068609Y-164187174D01*
X26070170Y-164193321D01*
X26034501Y-164183478D01*
X25969842Y-164157569D01*
X25917617Y-164133990D01*
X25853207Y-164101663D01*
X25817476Y-164079694D01*
X25815916Y-164073547D01*
X25851585Y-164083390D01*
G37*
G36*
X28131075Y-97617902D02*
G01*
X28104204Y-97633234D01*
X28044891Y-97651406D01*
X28015215Y-97655085D01*
X28001056Y-97648565D01*
X28027928Y-97633234D01*
X28087241Y-97615061D01*
X28116917Y-97611382D01*
X28131075Y-97617902D01*
G37*
G36*
X29598432Y-164587127D02*
G01*
X29599277Y-164595474D01*
X29559474Y-164598882D01*
X29553453Y-164598848D01*
X29514020Y-164595181D01*
X29517784Y-164587443D01*
X29522155Y-164586185D01*
X29577540Y-164582462D01*
X29598432Y-164587127D01*
G37*
G36*
X29101622Y-52487742D02*
G01*
X29094039Y-52499298D01*
X29068251Y-52501096D01*
X29041122Y-52494887D01*
X29052890Y-52485735D01*
X29092627Y-52482704D01*
X29101622Y-52487742D01*
G37*
G36*
X32628744Y-151914448D02*
G01*
X32681205Y-151948531D01*
X32693493Y-151956811D01*
X32966916Y-152159305D01*
X33249033Y-152400405D01*
X33532322Y-152671670D01*
X33809260Y-152964661D01*
X34072323Y-153270940D01*
X34313990Y-153582066D01*
X34526738Y-153889601D01*
X34703043Y-154185106D01*
X34737037Y-154249300D01*
X34767865Y-154311874D01*
X34774431Y-154332608D01*
X34758186Y-154313532D01*
X34720577Y-154256678D01*
X34663055Y-154164076D01*
X34591911Y-154045896D01*
X34290113Y-153585122D01*
X33946177Y-153143180D01*
X33567477Y-152728479D01*
X33161383Y-152349431D01*
X32958470Y-152182288D01*
X32853793Y-152099660D01*
X32756860Y-152023099D01*
X32678305Y-151961007D01*
X32628760Y-151921784D01*
X32627939Y-151921133D01*
X32609555Y-151904535D01*
X32628744Y-151914448D01*
G37*
G36*
X27644480Y-101313756D02*
G01*
X27691041Y-101335214D01*
X27758696Y-101371009D01*
X27785544Y-101389682D01*
X27777011Y-101395273D01*
X27771555Y-101395179D01*
X27734415Y-101383259D01*
X27678328Y-101356228D01*
X27621919Y-101321126D01*
X27611466Y-101305598D01*
X27644480Y-101313756D01*
G37*
G36*
X31083216Y-151085953D02*
G01*
X31079726Y-151101068D01*
X31066266Y-151102903D01*
X31045338Y-151093601D01*
X31049316Y-151085953D01*
X31079490Y-151082910D01*
X31083216Y-151085953D01*
G37*
G36*
X26595658Y-150936294D02*
G01*
X26560265Y-150955060D01*
X26540540Y-150963063D01*
X26471528Y-150985886D01*
X26418501Y-150997097D01*
X26413413Y-150997333D01*
X26409146Y-150989833D01*
X26444539Y-150971067D01*
X26464264Y-150963063D01*
X26533277Y-150940241D01*
X26586303Y-150929030D01*
X26591391Y-150928794D01*
X26595658Y-150936294D01*
G37*
G36*
X32837571Y-121058526D02*
G01*
X32840614Y-121088700D01*
X32837571Y-121092426D01*
X32822455Y-121088936D01*
X32820620Y-121075476D01*
X32829923Y-121054548D01*
X32837571Y-121058526D01*
G37*
G36*
X21777929Y-159208847D02*
G01*
X21780960Y-159248584D01*
X21775922Y-159257579D01*
X21764365Y-159249996D01*
X21762568Y-159224208D01*
X21768777Y-159197078D01*
X21777929Y-159208847D01*
G37*
G36*
X22269069Y-154675176D02*
G01*
X22256356Y-154687888D01*
X22243643Y-154675176D01*
X22256356Y-154662463D01*
X22269069Y-154675176D01*
G37*
G36*
X33066976Y-121971722D02*
G01*
X33070930Y-122036207D01*
X33066976Y-122060711D01*
X33059606Y-122068624D01*
X33055594Y-122033467D01*
X33055348Y-122016217D01*
X33057999Y-121969960D01*
X33064599Y-121964508D01*
X33066976Y-121971722D01*
G37*
G36*
X24192815Y-123484535D02*
G01*
X24196173Y-123536590D01*
X24192815Y-123548098D01*
X24183534Y-123551293D01*
X24179990Y-123516317D01*
X24183986Y-123480222D01*
X24192815Y-123484535D01*
G37*
G36*
X32642642Y-124622323D02*
G01*
X32629930Y-124635035D01*
X32617217Y-124622323D01*
X32629930Y-124609610D01*
X32642642Y-124622323D01*
G37*
G36*
X24557357Y-124571472D02*
G01*
X24544644Y-124584185D01*
X24531932Y-124571472D01*
X24544644Y-124558759D01*
X24557357Y-124571472D01*
G37*
G36*
X35584811Y-158177878D02*
G01*
X35588994Y-158253070D01*
X35584464Y-158305005D01*
X35578509Y-158315236D01*
X35574671Y-158281923D01*
X35573838Y-158234735D01*
X35575741Y-158177047D01*
X35580297Y-158160173D01*
X35584811Y-158177878D01*
G37*
G36*
X30372894Y-164435890D02*
G01*
X30365311Y-164447447D01*
X30339523Y-164449244D01*
X30312393Y-164443035D01*
X30324161Y-164433883D01*
X30363898Y-164430852D01*
X30372894Y-164435890D01*
G37*
G36*
X26633178Y-99873140D02*
G01*
X26634436Y-99877511D01*
X26638158Y-99932896D01*
X26633494Y-99953788D01*
X26625147Y-99954633D01*
X26621738Y-99914830D01*
X26621773Y-99908809D01*
X26625440Y-99869376D01*
X26633178Y-99873140D01*
G37*
G36*
X26074718Y-151114174D02*
G01*
X26057457Y-151128329D01*
X26011106Y-151149843D01*
X25993894Y-151152975D01*
X25989346Y-151142484D01*
X26006606Y-151128329D01*
X26052957Y-151106814D01*
X26070170Y-151103682D01*
X26074718Y-151114174D01*
G37*
G36*
X28259148Y-164635756D02*
G01*
X28262546Y-164636100D01*
X28286605Y-164640814D01*
X28264822Y-164644391D01*
X28202203Y-164646206D01*
X28180480Y-164646312D01*
X28106259Y-164645192D01*
X28069541Y-164642038D01*
X28076317Y-164637476D01*
X28084568Y-164636305D01*
X28168647Y-164632036D01*
X28259148Y-164635756D01*
G37*
G36*
X29786520Y-118261729D02*
G01*
X29783030Y-118276844D01*
X29769569Y-118278679D01*
X29748641Y-118269376D01*
X29752619Y-118261729D01*
X29782793Y-118258686D01*
X29786520Y-118261729D01*
G37*
G36*
X35176710Y-160061128D02*
G01*
X35179753Y-160091302D01*
X35176710Y-160095029D01*
X35161594Y-160091539D01*
X35159760Y-160078078D01*
X35169062Y-160057150D01*
X35176710Y-160061128D01*
G37*
G36*
X24633633Y-120503404D02*
G01*
X24620921Y-120516117D01*
X24608208Y-120503404D01*
X24620921Y-120490691D01*
X24633633Y-120503404D01*
G37*
G36*
X22421621Y-160929830D02*
G01*
X22408909Y-160942543D01*
X22396196Y-160929830D01*
X22408909Y-160917118D01*
X22421621Y-160929830D01*
G37*
G36*
X34803804Y-160929830D02*
G01*
X34791091Y-160942543D01*
X34778378Y-160929830D01*
X34791091Y-160917118D01*
X34803804Y-160929830D01*
G37*
G36*
X30480654Y-98850363D02*
G01*
X30504898Y-98911194D01*
X30506907Y-98917218D01*
X30523906Y-98979128D01*
X30527905Y-99017045D01*
X30526413Y-99020601D01*
X30512970Y-99006320D01*
X30492935Y-98957242D01*
X30486566Y-98937558D01*
X30468435Y-98866598D01*
X30467482Y-98836516D01*
X30480654Y-98850363D01*
G37*
G36*
X30040774Y-118338005D02*
G01*
X30037284Y-118353120D01*
X30023824Y-118354955D01*
X30002896Y-118345653D01*
X30006873Y-118338005D01*
X30037047Y-118334962D01*
X30040774Y-118338005D01*
G37*
G36*
X30443344Y-118493266D02*
G01*
X30503853Y-118520122D01*
X30580520Y-118557217D01*
X30660144Y-118597859D01*
X30729521Y-118635359D01*
X30775450Y-118663023D01*
X30786586Y-118673093D01*
X30786001Y-118680599D01*
X30778463Y-118681530D01*
X30755303Y-118672079D01*
X30707850Y-118648439D01*
X30627433Y-118606804D01*
X30583183Y-118583784D01*
X30499581Y-118539064D01*
X30439487Y-118504506D01*
X30411974Y-118485441D01*
X30412196Y-118483341D01*
X30443344Y-118493266D01*
G37*
G36*
X21700646Y-158809276D02*
G01*
X21701904Y-158813647D01*
X21705626Y-158869032D01*
X21700962Y-158889924D01*
X21692615Y-158890769D01*
X21689206Y-158850967D01*
X21689241Y-158844945D01*
X21692907Y-158805512D01*
X21700646Y-158809276D01*
G37*
G36*
X32547297Y-146991646D02*
G01*
X32813293Y-147034051D01*
X33062220Y-147119856D01*
X33167607Y-147172804D01*
X33278278Y-147234659D01*
X33278278Y-146983984D01*
X33557958Y-146983984D01*
X33557958Y-149628229D01*
X33278278Y-149628229D01*
X33278278Y-147598468D01*
X33178760Y-147519648D01*
X33072372Y-147447936D01*
X32945318Y-147380736D01*
X32817390Y-147327387D01*
X32708375Y-147297231D01*
X32707104Y-147297023D01*
X32617217Y-147282436D01*
X32617217Y-149628229D01*
X32337537Y-149628229D01*
X32337537Y-146976431D01*
X32547297Y-146991646D01*
G37*
G36*
X34484668Y-13276113D02*
G01*
X34606236Y-13283542D01*
X34697263Y-13296602D01*
X34778055Y-13320294D01*
X34868918Y-13359620D01*
X34915387Y-13382210D01*
X35046519Y-13457081D01*
X35129549Y-13529310D01*
X35166945Y-13601624D01*
X35166118Y-13659410D01*
X35137075Y-13695532D01*
X35084332Y-13701422D01*
X35024421Y-13677944D01*
X34992079Y-13650305D01*
X34909518Y-13584261D01*
X34790999Y-13522670D01*
X34651362Y-13472364D01*
X34553615Y-13448421D01*
X34397465Y-13432106D01*
X34275434Y-13450903D01*
X34188882Y-13504460D01*
X34155603Y-13551065D01*
X34128779Y-13614526D01*
X34118581Y-13676167D01*
X34127911Y-13741121D01*
X34159671Y-13814517D01*
X34216761Y-13901485D01*
X34302083Y-14007155D01*
X34418538Y-14136657D01*
X34569028Y-14295122D01*
X34586813Y-14313536D01*
X34786114Y-14523517D01*
X34950073Y-14705760D01*
X35082105Y-14865444D01*
X35185629Y-15007747D01*
X35264060Y-15137847D01*
X35320817Y-15260921D01*
X35359316Y-15382149D01*
X35382975Y-15506707D01*
X35385114Y-15523215D01*
X35393022Y-15766330D01*
X35356965Y-15992916D01*
X35279836Y-16198545D01*
X35164529Y-16378791D01*
X35013940Y-16529226D01*
X34830962Y-16645423D01*
X34618490Y-16722954D01*
X34597485Y-16728007D01*
X34473289Y-16745759D01*
X34320956Y-16751788D01*
X34161724Y-16746522D01*
X34016832Y-16730392D01*
X33942195Y-16714769D01*
X33787571Y-16662608D01*
X33648288Y-16595684D01*
X33531492Y-16519314D01*
X33444333Y-16438819D01*
X33393957Y-16359517D01*
X33384990Y-16300103D01*
X33407574Y-16242771D01*
X33454777Y-16227622D01*
X33523107Y-16254468D01*
X33596694Y-16311539D01*
X33674516Y-16371969D01*
X33775540Y-16436332D01*
X33863063Y-16483238D01*
X33958060Y-16524685D01*
X34044365Y-16550414D01*
X34142385Y-16565020D01*
X34259722Y-16572551D01*
X34381952Y-16575669D01*
X34470034Y-16571002D01*
X34540337Y-16556587D01*
X34608643Y-16530723D01*
X34725157Y-16456246D01*
X34798309Y-16358687D01*
X34826301Y-16244263D01*
X34807334Y-16119191D01*
X34757519Y-16016239D01*
X34720504Y-15968172D01*
X34652821Y-15890457D01*
X34560060Y-15789104D01*
X34447808Y-15670121D01*
X34321655Y-15539518D01*
X34191285Y-15407408D01*
X34022916Y-15236179D01*
X33878397Y-15084229D01*
X33761009Y-14955179D01*
X33674033Y-14852653D01*
X33620751Y-14780275D01*
X33615593Y-14771772D01*
X33524536Y-14573916D01*
X33472429Y-14367464D01*
X33458328Y-14160171D01*
X33481289Y-13959788D01*
X33540371Y-13774068D01*
X33634630Y-13610764D01*
X33763122Y-13477627D01*
X33774074Y-13469104D01*
X33949394Y-13364096D01*
X34148256Y-13299734D01*
X34374951Y-13274852D01*
X34484668Y-13276113D01*
G37*
G36*
X28015215Y-169663464D02*
G01*
X27481281Y-169663464D01*
X27481281Y-165951352D01*
X28015215Y-165951352D01*
X28015215Y-169663464D01*
G37*
G36*
X28987738Y-97590969D02*
G01*
X28990932Y-97600250D01*
X28955956Y-97603794D01*
X28919861Y-97599798D01*
X28924174Y-97590969D01*
X28976229Y-97587611D01*
X28987738Y-97590969D01*
G37*
G36*
X22141163Y-154954855D02*
G01*
X22128504Y-154996639D01*
X22116516Y-155018419D01*
X22096370Y-155038770D01*
X22091870Y-155031132D01*
X22104529Y-154989348D01*
X22116516Y-154967568D01*
X22136663Y-154947217D01*
X22141163Y-154954855D01*
G37*
G36*
X28057591Y-101480948D02*
G01*
X28054101Y-101496063D01*
X28040640Y-101497898D01*
X28019712Y-101488596D01*
X28023690Y-101480948D01*
X28053864Y-101477905D01*
X28057591Y-101480948D01*
G37*
G36*
X31470514Y-151243550D02*
G01*
X31533190Y-151272189D01*
X31574775Y-151293594D01*
X31634123Y-151327692D01*
X31664527Y-151349935D01*
X31663764Y-151354860D01*
X31628184Y-151343638D01*
X31565508Y-151314999D01*
X31523924Y-151293594D01*
X31464576Y-151259496D01*
X31434171Y-151237253D01*
X31434935Y-151232328D01*
X31470514Y-151243550D01*
G37*
G36*
X24531932Y-124520621D02*
G01*
X24519219Y-124533334D01*
X24506506Y-124520621D01*
X24519219Y-124507908D01*
X24531932Y-124520621D01*
G37*
G36*
X34834505Y-154428525D02*
G01*
X34863217Y-154477813D01*
X34893762Y-154538577D01*
X34917439Y-154593323D01*
X34925544Y-154624556D01*
X34924787Y-154626231D01*
X34909342Y-154611327D01*
X34880453Y-154562597D01*
X34859780Y-154522065D01*
X34830405Y-154457226D01*
X34815810Y-154415991D01*
X34816330Y-154408209D01*
X34834505Y-154428525D01*
G37*
G36*
X33040863Y-123357408D02*
G01*
X33044221Y-123409462D01*
X33040863Y-123420971D01*
X33031583Y-123424165D01*
X33028038Y-123389190D01*
X33032034Y-123353095D01*
X33040863Y-123357408D01*
G37*
G36*
X30601957Y-99432935D02*
G01*
X30605690Y-99540061D01*
X30604008Y-99650755D01*
X30601837Y-99687189D01*
X30598042Y-99713814D01*
X30594992Y-99694487D01*
X30593028Y-99634105D01*
X30592469Y-99552853D01*
X30593300Y-99462635D01*
X30595462Y-99410871D01*
X30598616Y-99401860D01*
X30601957Y-99432935D01*
G37*
G36*
X30112769Y-126858296D02*
G01*
X30075846Y-126879583D01*
X30061962Y-126886104D01*
X29997303Y-126910415D01*
X29947971Y-126920249D01*
X29947547Y-126920243D01*
X29943285Y-126912248D01*
X29978703Y-126893198D01*
X29998398Y-126885186D01*
X30068157Y-126861012D01*
X30108243Y-126852077D01*
X30112769Y-126858296D01*
G37*
G36*
X30523857Y-51087755D02*
G01*
X30526900Y-51117929D01*
X30523857Y-51121655D01*
X30508742Y-51118165D01*
X30506907Y-51104705D01*
X30516209Y-51083777D01*
X30523857Y-51087755D01*
G37*
G36*
X27448970Y-126958813D02*
G01*
X27441387Y-126970370D01*
X27415599Y-126972167D01*
X27388469Y-126965958D01*
X27400238Y-126956806D01*
X27439974Y-126953775D01*
X27448970Y-126958813D01*
G37*
G36*
X32473776Y-167320251D02*
G01*
X32563457Y-167048511D01*
X32689463Y-166794608D01*
X32848996Y-166563799D01*
X33039260Y-166361347D01*
X33257458Y-166192510D01*
X33500793Y-166062549D01*
X33602629Y-166023286D01*
X33686985Y-165996951D01*
X33767575Y-165979708D01*
X33858849Y-165969840D01*
X33975261Y-165965631D01*
X34091892Y-165965168D01*
X34232205Y-165966810D01*
X34335661Y-165971902D01*
X34416231Y-165982400D01*
X34487886Y-166000256D01*
X34564597Y-166027426D01*
X34579971Y-166033437D01*
X34846601Y-166165341D01*
X35084956Y-166338178D01*
X35291845Y-166548648D01*
X35464077Y-166793452D01*
X35598463Y-167069288D01*
X35609732Y-167098542D01*
X35695467Y-167380948D01*
X35736324Y-167659070D01*
X35736358Y-167921822D01*
X35714766Y-168132444D01*
X35675266Y-168319050D01*
X35612140Y-168502737D01*
X35529616Y-168684585D01*
X35373688Y-168948691D01*
X35185964Y-169175185D01*
X34968669Y-169362056D01*
X34724027Y-169507298D01*
X34532090Y-169585004D01*
X34386110Y-169620866D01*
X34213083Y-169643867D01*
X34035011Y-169652389D01*
X33873895Y-169644817D01*
X33821027Y-169637263D01*
X33560428Y-169565297D01*
X33316439Y-169448299D01*
X33093066Y-169290501D01*
X32894317Y-169096137D01*
X32724199Y-168869439D01*
X32586721Y-168614639D01*
X32485889Y-168335972D01*
X32450644Y-168189881D01*
X32414572Y-167896196D01*
X32416918Y-167817021D01*
X32948962Y-167817021D01*
X32970626Y-168047430D01*
X33031974Y-168272153D01*
X33134000Y-168484820D01*
X33277693Y-168679060D01*
X33283529Y-168685490D01*
X33458311Y-168846761D01*
X33645289Y-168959610D01*
X33848613Y-169025824D01*
X34072430Y-169047190D01*
X34120542Y-169046219D01*
X34241808Y-169038695D01*
X34334299Y-169023470D01*
X34420033Y-168995281D01*
X34514636Y-168952015D01*
X34717149Y-168825074D01*
X34889428Y-168661271D01*
X35027880Y-168467059D01*
X35128909Y-168248892D01*
X35188919Y-168013222D01*
X35204316Y-167766503D01*
X35201867Y-167718419D01*
X35170494Y-167485320D01*
X35107907Y-167283411D01*
X35008693Y-167100061D01*
X34867439Y-166922640D01*
X34855065Y-166909291D01*
X34673206Y-166746897D01*
X34477531Y-166631653D01*
X34271627Y-166564237D01*
X34059084Y-166545326D01*
X33843491Y-166575597D01*
X33628438Y-166655727D01*
X33596867Y-166671867D01*
X33401233Y-166802626D01*
X33239338Y-166965918D01*
X33112172Y-167155374D01*
X33020727Y-167364623D01*
X32965993Y-167587295D01*
X32948962Y-167817021D01*
X32416918Y-167817021D01*
X32423215Y-167604565D01*
X32473776Y-167320251D01*
G37*
G36*
X28962312Y-101531910D02*
G01*
X28965506Y-101541190D01*
X28930530Y-101544735D01*
X28894436Y-101540739D01*
X28898749Y-101531910D01*
X28950803Y-101528552D01*
X28962312Y-101531910D01*
G37*
G36*
X27877131Y-97690078D02*
G01*
X27860852Y-97704862D01*
X27809272Y-97735245D01*
X27733032Y-97775026D01*
X27722006Y-97780494D01*
X27642238Y-97818300D01*
X27583797Y-97843081D01*
X27557939Y-97850116D01*
X27557557Y-97849478D01*
X27578243Y-97832362D01*
X27630763Y-97801918D01*
X27700807Y-97765283D01*
X27774068Y-97729595D01*
X27836237Y-97701990D01*
X27873006Y-97689605D01*
X27877131Y-97690078D01*
G37*
G36*
X25447247Y-151395296D02*
G01*
X25434534Y-151408008D01*
X25421822Y-151395296D01*
X25434534Y-151382583D01*
X25447247Y-151395296D01*
G37*
G36*
X34829229Y-160878979D02*
G01*
X34816516Y-160891692D01*
X34803804Y-160878979D01*
X34816516Y-160866267D01*
X34829229Y-160878979D01*
G37*
G36*
X22001698Y-155306426D02*
G01*
X21984706Y-155368404D01*
X21957288Y-155452827D01*
X21952963Y-155465302D01*
X21923425Y-155545939D01*
X21901096Y-155599476D01*
X21890064Y-155616287D01*
X21889580Y-155614497D01*
X21895758Y-155578090D01*
X21913572Y-155514823D01*
X21938096Y-155439029D01*
X21964401Y-155365041D01*
X21987560Y-155307191D01*
X22002645Y-155279814D01*
X22004736Y-155279545D01*
X22001698Y-155306426D01*
G37*
G36*
X30964564Y-126451164D02*
G01*
X30945074Y-126471584D01*
X30913714Y-126491091D01*
X30874403Y-126507459D01*
X30862863Y-126505593D01*
X30882353Y-126485173D01*
X30913714Y-126465666D01*
X30953024Y-126449299D01*
X30964564Y-126451164D01*
G37*
G36*
X28962312Y-52511690D02*
G01*
X28965506Y-52520970D01*
X28930530Y-52524514D01*
X28894436Y-52520519D01*
X28898749Y-52511690D01*
X28950803Y-52508332D01*
X28962312Y-52511690D01*
G37*
G36*
X26735469Y-51240307D02*
G01*
X26738512Y-51270481D01*
X26735469Y-51274208D01*
X26720353Y-51270718D01*
X26718518Y-51257258D01*
X26727821Y-51236330D01*
X26735469Y-51240307D01*
G37*
G36*
X25167567Y-163752052D02*
G01*
X25154855Y-163764765D01*
X25142142Y-163752052D01*
X25154855Y-163739340D01*
X25167567Y-163752052D01*
G37*
G36*
X30549701Y-100018456D02*
G01*
X30552732Y-100058193D01*
X30547693Y-100067188D01*
X30536137Y-100059606D01*
X30534339Y-100033818D01*
X30540549Y-100006688D01*
X30549701Y-100018456D01*
G37*
G36*
X30320764Y-126782042D02*
G01*
X30303503Y-126796197D01*
X30257152Y-126817711D01*
X30239940Y-126820843D01*
X30235392Y-126810352D01*
X30252652Y-126796197D01*
X30299003Y-126774682D01*
X30316216Y-126771550D01*
X30320764Y-126782042D01*
G37*
G36*
X35108130Y-160268769D02*
G01*
X35095471Y-160310553D01*
X35083483Y-160332333D01*
X35063337Y-160352684D01*
X35058837Y-160345045D01*
X35071496Y-160303262D01*
X35083483Y-160281482D01*
X35103630Y-160261131D01*
X35108130Y-160268769D01*
G37*
G36*
X31722672Y-151373733D02*
G01*
X31777814Y-151397055D01*
X31856570Y-151434517D01*
X31879880Y-151446147D01*
X31963534Y-151489738D01*
X32026074Y-151525115D01*
X32056537Y-151545994D01*
X32057858Y-151548168D01*
X32057145Y-151555895D01*
X32048908Y-151556540D01*
X32023996Y-151546223D01*
X31973262Y-151521061D01*
X31887555Y-151477174D01*
X31873523Y-151469971D01*
X31791661Y-151426407D01*
X31731022Y-151391192D01*
X31702710Y-151370846D01*
X31701902Y-151369200D01*
X31722672Y-151373733D01*
G37*
G36*
X28688308Y-127104955D02*
G01*
X28784334Y-127107849D01*
X28824762Y-127110802D01*
X28818155Y-127113331D01*
X28768331Y-127115255D01*
X28679104Y-127116392D01*
X28600000Y-127116623D01*
X28486729Y-127116109D01*
X28410327Y-127114687D01*
X28374610Y-127112539D01*
X28383394Y-127109847D01*
X28415665Y-127107849D01*
X28544985Y-127104505D01*
X28688308Y-127104955D01*
G37*
G36*
X24244195Y-123714953D02*
G01*
X24247226Y-123754690D01*
X24242188Y-123763685D01*
X24230632Y-123756102D01*
X24228834Y-123730314D01*
X24235043Y-123703184D01*
X24244195Y-123714953D01*
G37*
G36*
X30498432Y-51164031D02*
G01*
X30501475Y-51194205D01*
X30498432Y-51197932D01*
X30483316Y-51194442D01*
X30481481Y-51180981D01*
X30490784Y-51160053D01*
X30498432Y-51164031D01*
G37*
G36*
X27644480Y-52293536D02*
G01*
X27691041Y-52314993D01*
X27758696Y-52350789D01*
X27785544Y-52369461D01*
X27777011Y-52375053D01*
X27771555Y-52374958D01*
X27734415Y-52363038D01*
X27678328Y-52336008D01*
X27621919Y-52300906D01*
X27611466Y-52285378D01*
X27644480Y-52293536D01*
G37*
G36*
X19787310Y-13312727D02*
G01*
X19803124Y-13369738D01*
X19795397Y-13403451D01*
X19768870Y-13447710D01*
X19718956Y-13507911D01*
X19641072Y-13589453D01*
X19530632Y-13697735D01*
X19497698Y-13729330D01*
X19395860Y-13828419D01*
X19308435Y-13916731D01*
X19241542Y-13987817D01*
X19201304Y-14035233D01*
X19192271Y-14051040D01*
X19200369Y-14081350D01*
X19223209Y-14153988D01*
X19258843Y-14263251D01*
X19305327Y-14403433D01*
X19360713Y-14568827D01*
X19423057Y-14753730D01*
X19490411Y-14952434D01*
X19560831Y-15159235D01*
X19632370Y-15368427D01*
X19703082Y-15574306D01*
X19771021Y-15771164D01*
X19834241Y-15953297D01*
X19890797Y-16115000D01*
X19938742Y-16250566D01*
X19976130Y-16354291D01*
X19996130Y-16407907D01*
X20039089Y-16520576D01*
X20065535Y-16595709D01*
X20076981Y-16643317D01*
X20074941Y-16673414D01*
X20060926Y-16696012D01*
X20042528Y-16715001D01*
X19994147Y-16750722D01*
X19954841Y-16742197D01*
X19931054Y-16718172D01*
X19916870Y-16687176D01*
X19888293Y-16612922D01*
X19847080Y-16500371D01*
X19794990Y-16354483D01*
X19733778Y-16180218D01*
X19665204Y-15982537D01*
X19591023Y-15766399D01*
X19523450Y-15567672D01*
X19424508Y-15275439D01*
X19340575Y-15027689D01*
X19270330Y-14820743D01*
X19212455Y-14650927D01*
X19165626Y-14514563D01*
X19128525Y-14407977D01*
X19099830Y-14327491D01*
X19078220Y-14269430D01*
X19062375Y-14230117D01*
X19050975Y-14205877D01*
X19042699Y-14193034D01*
X19036225Y-14187910D01*
X19030234Y-14186831D01*
X19027327Y-14186684D01*
X18998724Y-14201807D01*
X18941779Y-14244092D01*
X18865697Y-14306411D01*
X18806677Y-14357524D01*
X18611453Y-14530231D01*
X18609630Y-15617168D01*
X18607808Y-16704105D01*
X17590791Y-16704105D01*
X17590791Y-13297097D01*
X18607808Y-13297097D01*
X18607808Y-13792893D01*
X18608528Y-13945399D01*
X18610536Y-14078896D01*
X18613602Y-14185677D01*
X18617495Y-14258033D01*
X18621986Y-14288257D01*
X18622605Y-14288689D01*
X18647310Y-14272067D01*
X18702443Y-14226074D01*
X18781718Y-14156517D01*
X18878845Y-14069203D01*
X18987535Y-13969940D01*
X19101500Y-13864536D01*
X19214451Y-13758797D01*
X19320100Y-13658532D01*
X19412156Y-13569548D01*
X19484333Y-13497653D01*
X19521557Y-13458526D01*
X19589827Y-13385504D01*
X19648034Y-13326895D01*
X19685431Y-13293441D01*
X19689491Y-13290701D01*
X19744655Y-13281317D01*
X19787310Y-13312727D01*
G37*
G36*
X24752948Y-151796871D02*
G01*
X24691941Y-151843878D01*
X24599680Y-151911643D01*
X24519219Y-151969341D01*
X24118921Y-152280074D01*
X23731312Y-152631579D01*
X23366075Y-153013866D01*
X23032891Y-153416946D01*
X22796275Y-153747148D01*
X22731958Y-153841706D01*
X22679518Y-153915496D01*
X22642840Y-153963508D01*
X22625812Y-153980730D01*
X22632320Y-153962151D01*
X22638504Y-153950551D01*
X22681895Y-153879249D01*
X22749079Y-153778130D01*
X22832744Y-153657604D01*
X22925580Y-153528081D01*
X23020273Y-153399973D01*
X23083092Y-153317560D01*
X23265892Y-153095848D01*
X23476666Y-152864766D01*
X23706647Y-152632419D01*
X23947070Y-152406912D01*
X24189168Y-152196350D01*
X24424176Y-152008838D01*
X24643328Y-151852480D01*
X24722622Y-151801685D01*
X24770870Y-151773647D01*
X24780118Y-151772751D01*
X24752948Y-151796871D01*
G37*
G36*
X27956200Y-48649709D02*
G01*
X27938939Y-48663864D01*
X27892588Y-48685379D01*
X27875375Y-48688511D01*
X27870827Y-48678019D01*
X27888088Y-48663864D01*
X27934439Y-48642350D01*
X27951651Y-48639218D01*
X27956200Y-48649709D01*
G37*
G36*
X33066976Y-123166717D02*
G01*
X33070930Y-123231202D01*
X33066976Y-123255706D01*
X33059606Y-123263619D01*
X33055594Y-123228462D01*
X33055348Y-123211212D01*
X33057999Y-123164955D01*
X33064599Y-123159503D01*
X33066976Y-123166717D01*
G37*
G36*
X28694069Y-118104739D02*
G01*
X28758909Y-118107302D01*
X28794721Y-118110558D01*
X28783793Y-118113292D01*
X28730235Y-118115270D01*
X28638158Y-118116259D01*
X28600000Y-118116329D01*
X28496107Y-118115718D01*
X28429377Y-118114040D01*
X28403920Y-118111530D01*
X28423846Y-118108420D01*
X28441091Y-118107302D01*
X28561988Y-118103760D01*
X28694069Y-118104739D01*
G37*
G36*
X24582783Y-120605106D02*
G01*
X24570070Y-120617818D01*
X24557357Y-120605106D01*
X24570070Y-120592393D01*
X24582783Y-120605106D01*
G37*
G36*
X24889756Y-120071215D02*
G01*
X24856991Y-120126028D01*
X24847403Y-120141091D01*
X24796383Y-120217709D01*
X24759632Y-120267707D01*
X24740763Y-120287481D01*
X24743388Y-120273427D01*
X24771116Y-120221938D01*
X24777748Y-120210621D01*
X24828462Y-120134139D01*
X24882141Y-120064425D01*
X24898875Y-120049055D01*
X24889756Y-120071215D01*
G37*
G36*
X33093119Y-122200901D02*
G01*
X33097302Y-122276093D01*
X33092772Y-122328028D01*
X33086817Y-122338259D01*
X33082979Y-122304946D01*
X33082147Y-122257758D01*
X33084049Y-122200070D01*
X33088605Y-122183196D01*
X33093119Y-122200901D01*
G37*
G36*
X24664024Y-124782280D02*
G01*
X24693512Y-124831417D01*
X24697197Y-124838439D01*
X24720241Y-124889306D01*
X24725127Y-124914212D01*
X24723928Y-124914715D01*
X24704945Y-124894598D01*
X24675456Y-124845461D01*
X24671772Y-124838439D01*
X24648727Y-124787572D01*
X24643841Y-124762666D01*
X24645040Y-124762163D01*
X24664024Y-124782280D01*
G37*
G36*
X28250400Y-150652278D02*
G01*
X28269590Y-150657264D01*
X28243632Y-150660911D01*
X28178225Y-150662512D01*
X28167768Y-150662533D01*
X28097916Y-150661231D01*
X28066814Y-150657797D01*
X28080161Y-150652938D01*
X28085135Y-150652278D01*
X28174290Y-150648071D01*
X28250400Y-150652278D01*
G37*
G36*
X21828780Y-155852691D02*
G01*
X21831811Y-155892427D01*
X21826772Y-155901423D01*
X21815216Y-155893840D01*
X21813418Y-155868052D01*
X21819628Y-155840922D01*
X21828780Y-155852691D01*
G37*
G36*
X22381717Y-154428385D02*
G01*
X22360389Y-154479773D01*
X22342737Y-154516267D01*
X22302450Y-154594140D01*
X22279598Y-154632119D01*
X22270094Y-154636382D01*
X22269069Y-154627549D01*
X22279753Y-154594038D01*
X22305744Y-154538078D01*
X22337952Y-154476939D01*
X22367287Y-154427894D01*
X22384517Y-154408209D01*
X22381717Y-154428385D01*
G37*
G36*
X26608341Y-164358025D02*
G01*
X26604851Y-164373140D01*
X26591391Y-164374975D01*
X26570463Y-164365673D01*
X26574441Y-164358025D01*
X26604615Y-164354982D01*
X26608341Y-164358025D01*
G37*
G36*
X24429451Y-120935636D02*
G01*
X24416792Y-120977420D01*
X24404805Y-120999200D01*
X24384658Y-121019551D01*
X24380158Y-121011912D01*
X24392817Y-120970129D01*
X24404805Y-120948349D01*
X24424951Y-120927998D01*
X24429451Y-120935636D01*
G37*
G36*
X29402412Y-48700296D02*
G01*
X29460592Y-48726152D01*
X29528932Y-48760109D01*
X29591859Y-48794219D01*
X29633802Y-48820534D01*
X29642442Y-48829558D01*
X29641277Y-48837721D01*
X29631134Y-48837329D01*
X29602041Y-48824197D01*
X29544024Y-48794144D01*
X29489890Y-48765566D01*
X29420876Y-48727429D01*
X29377859Y-48700322D01*
X29369964Y-48690489D01*
X29402412Y-48700296D01*
G37*
G36*
X29711832Y-126984239D02*
G01*
X29704250Y-126995795D01*
X29678462Y-126997593D01*
X29651332Y-126991383D01*
X29663100Y-126982232D01*
X29702837Y-126979200D01*
X29711832Y-126984239D01*
G37*
G36*
X26765532Y-100354039D02*
G01*
X26794422Y-100402769D01*
X26815094Y-100443301D01*
X26849339Y-100520175D01*
X26858215Y-100553395D01*
X26844247Y-100541827D01*
X26809957Y-100484336D01*
X26793538Y-100452992D01*
X26763918Y-100389303D01*
X26749686Y-100347145D01*
X26750087Y-100339135D01*
X26765532Y-100354039D01*
G37*
G36*
X32798299Y-120956612D02*
G01*
X32815143Y-120998743D01*
X32813379Y-121014916D01*
X32796036Y-121005851D01*
X32785623Y-120985504D01*
X32771218Y-120937226D01*
X32777133Y-120927593D01*
X32798299Y-120956612D01*
G37*
G36*
X32350250Y-163574535D02*
G01*
X32289036Y-163617753D01*
X32248548Y-163640904D01*
X32197698Y-163665869D01*
X32248548Y-163624465D01*
X32309762Y-163581247D01*
X32350250Y-163558096D01*
X32401101Y-163533131D01*
X32350250Y-163574535D01*
G37*
G36*
X19523123Y-166535199D02*
G01*
X18340841Y-166548849D01*
X18333022Y-166656907D01*
X18325204Y-166764965D01*
X19550162Y-166764965D01*
X19535836Y-167362463D01*
X18321526Y-167376111D01*
X18334724Y-167712530D01*
X18343796Y-167880860D01*
X18357106Y-168010695D01*
X18376351Y-168114328D01*
X18402320Y-168201502D01*
X18507936Y-168426025D01*
X18652435Y-168623987D01*
X18829872Y-168790317D01*
X19034304Y-168919943D01*
X19259789Y-169007792D01*
X19378373Y-169034432D01*
X19548548Y-169063582D01*
X19548548Y-169663464D01*
X19440490Y-169660492D01*
X19348152Y-169654170D01*
X19241104Y-169641685D01*
X19198963Y-169635277D01*
X18957330Y-169570009D01*
X18725182Y-169459094D01*
X18507663Y-169307549D01*
X18309913Y-169120393D01*
X18137073Y-168902641D01*
X17994287Y-168659314D01*
X17886695Y-168395427D01*
X17868871Y-168337239D01*
X17843043Y-168230200D01*
X17824086Y-168107216D01*
X17810640Y-167956757D01*
X17801347Y-167767291D01*
X17801190Y-167762913D01*
X17787387Y-167375176D01*
X17590791Y-167375176D01*
X17590791Y-166764965D01*
X17794194Y-166764965D01*
X17794194Y-165951352D01*
X19523123Y-165951352D01*
X19523123Y-166535199D01*
G37*
G36*
X35506652Y-156419286D02*
G01*
X35507910Y-156423657D01*
X35511632Y-156479042D01*
X35506968Y-156499934D01*
X35498621Y-156500779D01*
X35495212Y-156460977D01*
X35495247Y-156454955D01*
X35498913Y-156415522D01*
X35506652Y-156419286D01*
G37*
G36*
X32965116Y-121477515D02*
G01*
X32968147Y-121517252D01*
X32963109Y-121526247D01*
X32951553Y-121518665D01*
X32949755Y-121492877D01*
X32955964Y-121465747D01*
X32965116Y-121477515D01*
G37*
G36*
X32531416Y-163454128D02*
G01*
X32529942Y-163456886D01*
X32502669Y-163483989D01*
X32461749Y-163511854D01*
X32426024Y-163529097D01*
X32413814Y-163527042D01*
X32432681Y-163507253D01*
X32478302Y-163474111D01*
X32480508Y-163472660D01*
X32520685Y-163450633D01*
X32531416Y-163454128D01*
G37*
G36*
X21675220Y-156571838D02*
G01*
X21676478Y-156576210D01*
X21680200Y-156631594D01*
X21675536Y-156652486D01*
X21667189Y-156653331D01*
X21663780Y-156613529D01*
X21663815Y-156607508D01*
X21667482Y-156568074D01*
X21675220Y-156571838D01*
G37*
G36*
X26889610Y-150858713D02*
G01*
X26882027Y-150870269D01*
X26856239Y-150872067D01*
X26829110Y-150865858D01*
X26840878Y-150856706D01*
X26880615Y-150853675D01*
X26889610Y-150858713D01*
G37*
G36*
X30574596Y-50157608D02*
G01*
X30577954Y-50209663D01*
X30574596Y-50221172D01*
X30565316Y-50224366D01*
X30561772Y-50189390D01*
X30565768Y-50153295D01*
X30574596Y-50157608D01*
G37*
G36*
X29598432Y-150704844D02*
G01*
X29599277Y-150713191D01*
X29559474Y-150716600D01*
X29553453Y-150716565D01*
X29514020Y-150712899D01*
X29517784Y-150705160D01*
X29522155Y-150703902D01*
X29577540Y-150700180D01*
X29598432Y-150704844D01*
G37*
G36*
X24768161Y-163504774D02*
G01*
X24800578Y-163522330D01*
X24864051Y-163561386D01*
X24924891Y-163603269D01*
X24971224Y-163639151D01*
X24991178Y-163660206D01*
X24989135Y-163662498D01*
X24962028Y-163649979D01*
X24908054Y-163617539D01*
X24874721Y-163595938D01*
X24802716Y-163546279D01*
X24758371Y-163511967D01*
X24745561Y-163496850D01*
X24768161Y-163504774D01*
G37*
G36*
X25396396Y-151419688D02*
G01*
X25375921Y-151437761D01*
X25324193Y-151468687D01*
X25294695Y-151484285D01*
X25234247Y-151512617D01*
X25197818Y-151524856D01*
X25192993Y-151523456D01*
X25213468Y-151505383D01*
X25265196Y-151474457D01*
X25294695Y-151458859D01*
X25355142Y-151430527D01*
X25391571Y-151418288D01*
X25396396Y-151419688D01*
G37*
G36*
X27691525Y-164587127D02*
G01*
X27692370Y-164595474D01*
X27652568Y-164598882D01*
X27646546Y-164598848D01*
X27607113Y-164595181D01*
X27610877Y-164587443D01*
X27615248Y-164586185D01*
X27670633Y-164582462D01*
X27691525Y-164587127D01*
G37*
G36*
X35380531Y-155852691D02*
G01*
X35383563Y-155892427D01*
X35378524Y-155901423D01*
X35366968Y-155893840D01*
X35365170Y-155868052D01*
X35371380Y-155840922D01*
X35380531Y-155852691D01*
G37*
G36*
X29252586Y-101455523D02*
G01*
X29249096Y-101470638D01*
X29235635Y-101472473D01*
X29214707Y-101463170D01*
X29218685Y-101455523D01*
X29248859Y-101452480D01*
X29252586Y-101455523D01*
G37*
G36*
X22031765Y-160061128D02*
G01*
X22034808Y-160091302D01*
X22031765Y-160095029D01*
X22016650Y-160091539D01*
X22014815Y-160078078D01*
X22024117Y-160057150D01*
X22031765Y-160061128D01*
G37*
G36*
X29252586Y-52435302D02*
G01*
X29249096Y-52450418D01*
X29235635Y-52452253D01*
X29214707Y-52442950D01*
X29218685Y-52435302D01*
X29248859Y-52432259D01*
X29252586Y-52435302D01*
G37*
G36*
X25028079Y-163673097D02*
G01*
X25059509Y-163687981D01*
X25102849Y-163713109D01*
X25116717Y-163727522D01*
X25108728Y-163738133D01*
X25078204Y-163720407D01*
X25051656Y-163699799D01*
X25018899Y-163672428D01*
X25028079Y-163673097D01*
G37*
G36*
X29714344Y-48867819D02*
G01*
X29761393Y-48899931D01*
X29833199Y-48959467D01*
X29919612Y-49036877D01*
X30010482Y-49122608D01*
X30095659Y-49207108D01*
X30164992Y-49280826D01*
X30205295Y-49329832D01*
X30236866Y-49376451D01*
X30248649Y-49398610D01*
X30248027Y-49398921D01*
X30228262Y-49380879D01*
X30180288Y-49333357D01*
X30111201Y-49263475D01*
X30028095Y-49178352D01*
X30023824Y-49173951D01*
X29932102Y-49081283D01*
X29845603Y-48997161D01*
X29774512Y-48931298D01*
X29731431Y-48895148D01*
X29692231Y-48863951D01*
X29696034Y-48859694D01*
X29714344Y-48867819D01*
G37*
G36*
X28161708Y-118134083D02*
G01*
X28167651Y-118140955D01*
X28131139Y-118144812D01*
X28104204Y-118145140D01*
X28054966Y-118142637D01*
X28047495Y-118136894D01*
X28060006Y-118133570D01*
X28126255Y-118129476D01*
X28161708Y-118134083D01*
G37*
G36*
X25758218Y-151242927D02*
G01*
X25715452Y-151270364D01*
X25650650Y-151306307D01*
X25573176Y-151345209D01*
X25512540Y-151371974D01*
X25485385Y-151380184D01*
X25492232Y-151369686D01*
X25534998Y-151342249D01*
X25599800Y-151306307D01*
X25677274Y-151267404D01*
X25737910Y-151240640D01*
X25765065Y-151232429D01*
X25758218Y-151242927D01*
G37*
G36*
X24722291Y-120332273D02*
G01*
X24701641Y-120380234D01*
X24697197Y-120388989D01*
X24667222Y-120440470D01*
X24646378Y-120464943D01*
X24645040Y-120465266D01*
X24646677Y-120445706D01*
X24667328Y-120397745D01*
X24671772Y-120388989D01*
X24701746Y-120337508D01*
X24722591Y-120313036D01*
X24723928Y-120312713D01*
X24722291Y-120332273D01*
G37*
G36*
X22580092Y-161216287D02*
G01*
X22599599Y-161247648D01*
X22615966Y-161286959D01*
X22614101Y-161298499D01*
X22593681Y-161279009D01*
X22574174Y-161247648D01*
X22557807Y-161208337D01*
X22559672Y-161196797D01*
X22580092Y-161216287D01*
G37*
G36*
X30333641Y-98543649D02*
G01*
X30363393Y-98594781D01*
X30397514Y-98660857D01*
X30428199Y-98726212D01*
X30447642Y-98775182D01*
X30450001Y-98791908D01*
X30434928Y-98776219D01*
X30405141Y-98725904D01*
X30372291Y-98662253D01*
X30338439Y-98589602D01*
X30318381Y-98539257D01*
X30316064Y-98523124D01*
X30333641Y-98543649D01*
G37*
G36*
X32990541Y-121579217D02*
G01*
X32993573Y-121618954D01*
X32988534Y-121627949D01*
X32976978Y-121620366D01*
X32975180Y-121594578D01*
X32981390Y-121567449D01*
X32990541Y-121579217D01*
G37*
G36*
X21803354Y-155954392D02*
G01*
X21806385Y-155994129D01*
X21801347Y-156003124D01*
X21789791Y-155995542D01*
X21787993Y-155969753D01*
X21794202Y-155942624D01*
X21803354Y-155954392D01*
G37*
G36*
X26248500Y-126450274D02*
G01*
X26279930Y-126465158D01*
X26323269Y-126490286D01*
X26337137Y-126504699D01*
X26329149Y-126515310D01*
X26298625Y-126497584D01*
X26272077Y-126476976D01*
X26239319Y-126449606D01*
X26248500Y-126450274D01*
G37*
G36*
X32668068Y-124571472D02*
G01*
X32655355Y-124584185D01*
X32642642Y-124571472D01*
X32655355Y-124558759D01*
X32668068Y-124571472D01*
G37*
G36*
X28057591Y-52460728D02*
G01*
X28054101Y-52475843D01*
X28040640Y-52477678D01*
X28019712Y-52468375D01*
X28023690Y-52460728D01*
X28053864Y-52457685D01*
X28057591Y-52460728D01*
G37*
G36*
X24117944Y-122912812D02*
G01*
X24122127Y-122988005D01*
X24117597Y-123039940D01*
X24111642Y-123050171D01*
X24107804Y-123016858D01*
X24106972Y-122969670D01*
X24108874Y-122911982D01*
X24113430Y-122895108D01*
X24117944Y-122912812D01*
G37*
G36*
X27550671Y-118237892D02*
G01*
X27543088Y-118249449D01*
X27517300Y-118251246D01*
X27490171Y-118245037D01*
X27501939Y-118235885D01*
X27541676Y-118232854D01*
X27550671Y-118237892D01*
G37*
G36*
X27792743Y-118185564D02*
G01*
X27795937Y-118194844D01*
X27760961Y-118198388D01*
X27724866Y-118194393D01*
X27729179Y-118185564D01*
X27781234Y-118182206D01*
X27792743Y-118185564D01*
G37*
G36*
X30656754Y-150937554D02*
G01*
X30725031Y-150959043D01*
X30735736Y-150963063D01*
X30782789Y-150984398D01*
X30793027Y-150996383D01*
X30786586Y-150997333D01*
X30738441Y-150988573D01*
X30670163Y-150967084D01*
X30659459Y-150963063D01*
X30612405Y-150941729D01*
X30602168Y-150929744D01*
X30608608Y-150928794D01*
X30656754Y-150937554D01*
G37*
G36*
X32146847Y-163702639D02*
G01*
X32103681Y-163730687D01*
X32033034Y-163770936D01*
X31942754Y-163819490D01*
X31840690Y-163872456D01*
X31734689Y-163925938D01*
X31632601Y-163976042D01*
X31542273Y-164018875D01*
X31471554Y-164050540D01*
X31428292Y-164067145D01*
X31420336Y-164064795D01*
X31424341Y-164061150D01*
X31449409Y-164047270D01*
X31512138Y-164014338D01*
X31604853Y-163966333D01*
X31719879Y-163907234D01*
X31816316Y-163857949D01*
X31937378Y-163796936D01*
X32036742Y-163748265D01*
X32108306Y-163714805D01*
X32145966Y-163699422D01*
X32146847Y-163702639D01*
G37*
G36*
X29597948Y-118210989D02*
G01*
X29601142Y-118220270D01*
X29566166Y-118223814D01*
X29530071Y-118219818D01*
X29534384Y-118210989D01*
X29586439Y-118207631D01*
X29597948Y-118210989D01*
G37*
G36*
X21751974Y-159080131D02*
G01*
X21755332Y-159132185D01*
X21751974Y-159143694D01*
X21742694Y-159146888D01*
X21739149Y-159111912D01*
X21743145Y-159075818D01*
X21751974Y-159080131D01*
G37*
G36*
X29964498Y-118312580D02*
G01*
X29961007Y-118327695D01*
X29947547Y-118329530D01*
X29926619Y-118320227D01*
X29930597Y-118312580D01*
X29960771Y-118309537D01*
X29964498Y-118312580D01*
G37*
G36*
X24269621Y-123816655D02*
G01*
X24272652Y-123856391D01*
X24267613Y-123865387D01*
X24256057Y-123857804D01*
X24254259Y-123832016D01*
X24260469Y-123804886D01*
X24269621Y-123816655D01*
G37*
G36*
X26889610Y-164435890D02*
G01*
X26882027Y-164447447D01*
X26856239Y-164449244D01*
X26829110Y-164443035D01*
X26840878Y-164433883D01*
X26880615Y-164430852D01*
X26889610Y-164435890D01*
G37*
G36*
X30274149Y-98457132D02*
G01*
X30301445Y-98482733D01*
X30295846Y-98497451D01*
X30292291Y-98497698D01*
X30270786Y-98479639D01*
X30262937Y-98468344D01*
X30259941Y-98450946D01*
X30274149Y-98457132D01*
G37*
G36*
X29711832Y-118237892D02*
G01*
X29704250Y-118249449D01*
X29678462Y-118251246D01*
X29651332Y-118245037D01*
X29663100Y-118235885D01*
X29702837Y-118232854D01*
X29711832Y-118237892D01*
G37*
G36*
X32096348Y-151570594D02*
G01*
X32127778Y-151585478D01*
X32171117Y-151610606D01*
X32184985Y-151625019D01*
X32176996Y-151635631D01*
X32146472Y-151617905D01*
X32119924Y-151597296D01*
X32087167Y-151569926D01*
X32096348Y-151570594D01*
G37*
G36*
X27905038Y-52409877D02*
G01*
X27901548Y-52424992D01*
X27888088Y-52426827D01*
X27867160Y-52417524D01*
X27871138Y-52409877D01*
X27901312Y-52406834D01*
X27905038Y-52409877D01*
G37*
G36*
X32693493Y-124520621D02*
G01*
X32680781Y-124533334D01*
X32668068Y-124520621D01*
X32680781Y-124507908D01*
X32693493Y-124520621D01*
G37*
G36*
X22534398Y-154148576D02*
G01*
X22513054Y-154199339D01*
X22497898Y-154230231D01*
X22464208Y-154291250D01*
X22439227Y-154327543D01*
X22433301Y-154331932D01*
X22435972Y-154311885D01*
X22457316Y-154261122D01*
X22472472Y-154230231D01*
X22506162Y-154169211D01*
X22531143Y-154132918D01*
X22537069Y-154128529D01*
X22534398Y-154148576D01*
G37*
G36*
X30193326Y-126830097D02*
G01*
X30189836Y-126845213D01*
X30176376Y-126847047D01*
X30155448Y-126837745D01*
X30159426Y-126830097D01*
X30189600Y-126827054D01*
X30193326Y-126830097D01*
G37*
G36*
X24531932Y-120706807D02*
G01*
X24519219Y-120719520D01*
X24506506Y-120706807D01*
X24519219Y-120694094D01*
X24531932Y-120706807D01*
G37*
G36*
X24582783Y-124622323D02*
G01*
X24570070Y-124635035D01*
X24557357Y-124622323D01*
X24570070Y-124609610D01*
X24582783Y-124622323D01*
G37*
G36*
X34956356Y-160624725D02*
G01*
X34943643Y-160637438D01*
X34930931Y-160624725D01*
X34943643Y-160612012D01*
X34956356Y-160624725D01*
G37*
G36*
X26365847Y-118708024D02*
G01*
X26328424Y-118734282D01*
X26259855Y-118780220D01*
X26155552Y-118849146D01*
X26091496Y-118891335D01*
X25979192Y-118969832D01*
X25848456Y-119068209D01*
X25718265Y-119171901D01*
X25639155Y-119238514D01*
X25537920Y-119328509D01*
X25445206Y-119416518D01*
X25352791Y-119511227D01*
X25252457Y-119621322D01*
X25135983Y-119755492D01*
X25019185Y-119893720D01*
X24979144Y-119939391D01*
X24968289Y-119946410D01*
X24985049Y-119918000D01*
X25092122Y-119774022D01*
X25231641Y-119614214D01*
X25395119Y-119446132D01*
X25574071Y-119277329D01*
X25760012Y-119115361D01*
X25944457Y-118967782D01*
X26118921Y-118842146D01*
X26274917Y-118746008D01*
X26337137Y-118714238D01*
X26365615Y-118701310D01*
X26376714Y-118698136D01*
X26365847Y-118708024D01*
G37*
G36*
X35303837Y-155586253D02*
G01*
X35306880Y-155616427D01*
X35303837Y-155620154D01*
X35288722Y-155616664D01*
X35286887Y-155603204D01*
X35296189Y-155582276D01*
X35303837Y-155586253D01*
G37*
G36*
X27106256Y-150806385D02*
G01*
X27109450Y-150815665D01*
X27074474Y-150819209D01*
X27038380Y-150815213D01*
X27042693Y-150806385D01*
X27094747Y-150803027D01*
X27106256Y-150806385D01*
G37*
G36*
X26913757Y-118442502D02*
G01*
X26896496Y-118456657D01*
X26850145Y-118478172D01*
X26832933Y-118481304D01*
X26828385Y-118470812D01*
X26845645Y-118456657D01*
X26891996Y-118435142D01*
X26909209Y-118432010D01*
X26913757Y-118442502D01*
G37*
G36*
X37778578Y-169663464D02*
G01*
X37244644Y-169663464D01*
X37244644Y-165951352D01*
X37778578Y-165951352D01*
X37778578Y-169663464D01*
G37*
G36*
X27945779Y-127059199D02*
G01*
X27946624Y-127067546D01*
X27906822Y-127070955D01*
X27900801Y-127070920D01*
X27861367Y-127067253D01*
X27865131Y-127059515D01*
X27869503Y-127058257D01*
X27924887Y-127054534D01*
X27945779Y-127059199D01*
G37*
G36*
X30157307Y-150806385D02*
G01*
X30160501Y-150815665D01*
X30125525Y-150819209D01*
X30089431Y-150815213D01*
X30093744Y-150806385D01*
X30145798Y-150803027D01*
X30157307Y-150806385D01*
G37*
G36*
X35608717Y-157429131D02*
G01*
X35610912Y-157466778D01*
X35614143Y-157596648D01*
X35613939Y-157738329D01*
X35610847Y-157848159D01*
X35607946Y-157887230D01*
X35605460Y-157879374D01*
X35603560Y-157828514D01*
X35602417Y-157738573D01*
X35602160Y-157649950D01*
X35602673Y-157535056D01*
X35604050Y-157457566D01*
X35606122Y-157421064D01*
X35608717Y-157429131D01*
G37*
G36*
X30549701Y-50998236D02*
G01*
X30552732Y-51037973D01*
X30547693Y-51046968D01*
X30536137Y-51039385D01*
X30534339Y-51013597D01*
X30540549Y-50986468D01*
X30549701Y-50998236D01*
G37*
G36*
X29591591Y-101305902D02*
G01*
X29571558Y-101324550D01*
X29524660Y-101352767D01*
X29470700Y-101379927D01*
X29429481Y-101395399D01*
X29423351Y-101396197D01*
X29414993Y-101387424D01*
X29415732Y-101386717D01*
X29448717Y-101365633D01*
X29500414Y-101339358D01*
X29552547Y-101316294D01*
X29586837Y-101304839D01*
X29591591Y-101305902D01*
G37*
G36*
X26787909Y-150884139D02*
G01*
X26780326Y-150895695D01*
X26754538Y-150897493D01*
X26727408Y-150891283D01*
X26739176Y-150882131D01*
X26778913Y-150879100D01*
X26787909Y-150884139D01*
G37*
G36*
X29388188Y-52388689D02*
G01*
X29375475Y-52401402D01*
X29362763Y-52388689D01*
X29375475Y-52375976D01*
X29388188Y-52388689D01*
G37*
G36*
X34854654Y-160828129D02*
G01*
X34841942Y-160840841D01*
X34829229Y-160828129D01*
X34841942Y-160815416D01*
X34854654Y-160828129D01*
G37*
G36*
X21879212Y-155662530D02*
G01*
X21882255Y-155692704D01*
X21879212Y-155696430D01*
X21864097Y-155692940D01*
X21862262Y-155679480D01*
X21871565Y-155658552D01*
X21879212Y-155662530D01*
G37*
G36*
X21675220Y-158656723D02*
G01*
X21676478Y-158661095D01*
X21680200Y-158716479D01*
X21675536Y-158737371D01*
X21667189Y-158738216D01*
X21663780Y-158698414D01*
X21663815Y-158692393D01*
X21667482Y-158652959D01*
X21675220Y-158656723D01*
G37*
G36*
X29176309Y-101480948D02*
G01*
X29172819Y-101496063D01*
X29159359Y-101497898D01*
X29138431Y-101488596D01*
X29142409Y-101480948D01*
X29172583Y-101477905D01*
X29176309Y-101480948D01*
G37*
G36*
X30117050Y-118363430D02*
G01*
X30113560Y-118378546D01*
X30100100Y-118380381D01*
X30079172Y-118371078D01*
X30083150Y-118363430D01*
X30113324Y-118360388D01*
X30117050Y-118363430D01*
G37*
G36*
X39599235Y-10184344D02*
G01*
X39602976Y-10242149D01*
X39590531Y-10274895D01*
X39559747Y-10281873D01*
X39488026Y-10288602D01*
X39385279Y-10294805D01*
X39261420Y-10300203D01*
X39126361Y-10304521D01*
X38990015Y-10307479D01*
X38862295Y-10308801D01*
X38753114Y-10308209D01*
X38672384Y-10305425D01*
X38635874Y-10301619D01*
X38592925Y-10270862D01*
X38573978Y-10212822D01*
X38581623Y-10160639D01*
X38592345Y-10146096D01*
X38616228Y-10135332D01*
X38659970Y-10127798D01*
X38730274Y-10122944D01*
X38833838Y-10120219D01*
X38977365Y-10119076D01*
X39090224Y-10118919D01*
X39582815Y-10118919D01*
X39599235Y-10184344D01*
G37*
G36*
X32617217Y-120554255D02*
G01*
X32604504Y-120566967D01*
X32591792Y-120554255D01*
X32604504Y-120541542D01*
X32617217Y-120554255D01*
G37*
G36*
X24370904Y-124135002D02*
G01*
X24373947Y-124165176D01*
X24370904Y-124168903D01*
X24355789Y-124165412D01*
X24353954Y-124151952D01*
X24363257Y-124131024D01*
X24370904Y-124135002D01*
G37*
G36*
X26991312Y-164461316D02*
G01*
X26983729Y-164472872D01*
X26957941Y-164474670D01*
X26930811Y-164468460D01*
X26942580Y-164459309D01*
X26982317Y-164456278D01*
X26991312Y-164461316D01*
G37*
G36*
X27360510Y-150755534D02*
G01*
X27363704Y-150764814D01*
X27328729Y-150768358D01*
X27292634Y-150764363D01*
X27296947Y-150755534D01*
X27349001Y-150752176D01*
X27360510Y-150755534D01*
G37*
G36*
X30557758Y-140119120D02*
G01*
X29972973Y-140119120D01*
X29972973Y-136407007D01*
X30557758Y-136407007D01*
X30557758Y-140119120D01*
G37*
G36*
X27907453Y-164611760D02*
G01*
X27913397Y-164618633D01*
X27876884Y-164622489D01*
X27849950Y-164622818D01*
X27800711Y-164620314D01*
X27793241Y-164614572D01*
X27805752Y-164611247D01*
X27872001Y-164607154D01*
X27907453Y-164611760D01*
G37*
G36*
X35456278Y-159080131D02*
G01*
X35459636Y-159132185D01*
X35456278Y-159143694D01*
X35446998Y-159146888D01*
X35443454Y-159111912D01*
X35447449Y-159075818D01*
X35456278Y-159080131D01*
G37*
G36*
X29407554Y-150678627D02*
G01*
X29413497Y-150685500D01*
X29376985Y-150689356D01*
X29350050Y-150689685D01*
X29300811Y-150687181D01*
X29293341Y-150681439D01*
X29305852Y-150678114D01*
X29372101Y-150674021D01*
X29407554Y-150678627D01*
G37*
G36*
X35055926Y-160395896D02*
G01*
X35044564Y-160432925D01*
X35016355Y-160493149D01*
X35007207Y-160510311D01*
X34977248Y-160559621D01*
X34960076Y-160577403D01*
X34958488Y-160573874D01*
X34969850Y-160536845D01*
X34998059Y-160476621D01*
X35007207Y-160459460D01*
X35037166Y-160410149D01*
X35054338Y-160392367D01*
X35055926Y-160395896D01*
G37*
G36*
X31788899Y-165951850D02*
G01*
X31984116Y-165953270D01*
X32156429Y-165955498D01*
X32300341Y-165958419D01*
X32410353Y-165961921D01*
X32480967Y-165965889D01*
X32506686Y-165970211D01*
X32506631Y-165970582D01*
X32495246Y-165995663D01*
X32465632Y-166062624D01*
X32419861Y-166166722D01*
X32360003Y-166303212D01*
X32288127Y-166467350D01*
X32206304Y-166654394D01*
X32116604Y-166859598D01*
X32021097Y-167078220D01*
X31921852Y-167305515D01*
X31820941Y-167536739D01*
X31720434Y-167767149D01*
X31622399Y-167992001D01*
X31528908Y-168206551D01*
X31442031Y-168406054D01*
X31363837Y-168585768D01*
X31296398Y-168740948D01*
X31241782Y-168866851D01*
X31202060Y-168958732D01*
X31179302Y-169011848D01*
X31175294Y-169021472D01*
X31181539Y-169032571D01*
X31213748Y-169040930D01*
X31276976Y-169046863D01*
X31376280Y-169050684D01*
X31516715Y-169052708D01*
X31686469Y-169053254D01*
X32210410Y-169053254D01*
X32210410Y-169663464D01*
X31254237Y-169663464D01*
X30999488Y-169663136D01*
X30791666Y-169662064D01*
X30626850Y-169660117D01*
X30501120Y-169657161D01*
X30410555Y-169653066D01*
X30351234Y-169647698D01*
X30319237Y-169640926D01*
X30310643Y-169632617D01*
X30310926Y-169631682D01*
X30323157Y-169603416D01*
X30354095Y-169532610D01*
X30401982Y-169423273D01*
X30465058Y-169279416D01*
X30541563Y-169105048D01*
X30629738Y-168904180D01*
X30727824Y-168680820D01*
X30834060Y-168438978D01*
X30946688Y-168182666D01*
X30977520Y-168112513D01*
X31091642Y-167852626D01*
X31199830Y-167605802D01*
X31300320Y-167376093D01*
X31391349Y-167167552D01*
X31471153Y-166984232D01*
X31537968Y-166830187D01*
X31590030Y-166709469D01*
X31625576Y-166626132D01*
X31642842Y-166584229D01*
X31644117Y-166580631D01*
X31645301Y-166565529D01*
X31634698Y-166554280D01*
X31606011Y-166546321D01*
X31552941Y-166541090D01*
X31469189Y-166538025D01*
X31348457Y-166536564D01*
X31184446Y-166536145D01*
X31145508Y-166536137D01*
X30634034Y-166536137D01*
X30634034Y-165951352D01*
X31576275Y-165951352D01*
X31788899Y-165951850D01*
G37*
G36*
X27116850Y-118363430D02*
G01*
X27113360Y-118378546D01*
X27099900Y-118380381D01*
X27078972Y-118371078D01*
X27082949Y-118363430D01*
X27113123Y-118360388D01*
X27116850Y-118363430D01*
G37*
G36*
X30445194Y-100364840D02*
G01*
X30423475Y-100416928D01*
X30393460Y-100477904D01*
X30363851Y-100530275D01*
X30343350Y-100556545D01*
X30341455Y-100557158D01*
X30344611Y-100536754D01*
X30365669Y-100484566D01*
X30384905Y-100443301D01*
X30418161Y-100380169D01*
X30442639Y-100343383D01*
X30449912Y-100339135D01*
X30445194Y-100364840D01*
G37*
G36*
X30308420Y-51602698D02*
G01*
X30285872Y-51644837D01*
X30245722Y-51702749D01*
X30182427Y-51777589D01*
X30102438Y-51863360D01*
X30012207Y-51954068D01*
X29918186Y-52043717D01*
X29826825Y-52126313D01*
X29744576Y-52195861D01*
X29677891Y-52246364D01*
X29633221Y-52271829D01*
X29617017Y-52266378D01*
X29636318Y-52247504D01*
X29685703Y-52210980D01*
X29725075Y-52184228D01*
X29851658Y-52088037D01*
X29986781Y-51964744D01*
X30113357Y-51831168D01*
X30214298Y-51704127D01*
X30217485Y-51699530D01*
X30275567Y-51617935D01*
X30311183Y-51573719D01*
X30322684Y-51568200D01*
X30308420Y-51602698D01*
G37*
G36*
X35456278Y-156156207D02*
G01*
X35459636Y-156208261D01*
X35456278Y-156219770D01*
X35446998Y-156222964D01*
X35443454Y-156187988D01*
X35447449Y-156151894D01*
X35456278Y-156156207D01*
G37*
G36*
X21650960Y-158457208D02*
G01*
X21654914Y-158521692D01*
X21650960Y-158546197D01*
X21643590Y-158554110D01*
X21639578Y-158518953D01*
X21639332Y-158501702D01*
X21641983Y-158455445D01*
X21648583Y-158449994D01*
X21650960Y-158457208D01*
G37*
G36*
X24345479Y-124058726D02*
G01*
X24348522Y-124088900D01*
X24345479Y-124092626D01*
X24330363Y-124089136D01*
X24328528Y-124075676D01*
X24337831Y-124054748D01*
X24345479Y-124058726D01*
G37*
G36*
X35202135Y-159984852D02*
G01*
X35205178Y-160015026D01*
X35202135Y-160018752D01*
X35187020Y-160015262D01*
X35185185Y-160001802D01*
X35194488Y-159980874D01*
X35202135Y-159984852D01*
G37*
G36*
X29176309Y-52460728D02*
G01*
X29172819Y-52475843D01*
X29159359Y-52477678D01*
X29138431Y-52468375D01*
X29142409Y-52460728D01*
X29172583Y-52457685D01*
X29176309Y-52460728D01*
G37*
G36*
X28301251Y-101531910D02*
G01*
X28304445Y-101541190D01*
X28269469Y-101544735D01*
X28233375Y-101540739D01*
X28237687Y-101531910D01*
X28289742Y-101528552D01*
X28301251Y-101531910D01*
G37*
G36*
X26659611Y-50057495D02*
G01*
X26662642Y-50097232D01*
X26657603Y-50106227D01*
X26646047Y-50098645D01*
X26644249Y-50072857D01*
X26650459Y-50045727D01*
X26659611Y-50057495D01*
G37*
G36*
X27955889Y-97667134D02*
G01*
X27952399Y-97682250D01*
X27938939Y-97684084D01*
X27918011Y-97674782D01*
X27921988Y-97667134D01*
X27952162Y-97664091D01*
X27955889Y-97667134D01*
G37*
G36*
X29101622Y-101507963D02*
G01*
X29094039Y-101519519D01*
X29068251Y-101521316D01*
X29041122Y-101515107D01*
X29052890Y-101505955D01*
X29092627Y-101502924D01*
X29101622Y-101507963D01*
G37*
G36*
X29610131Y-127009664D02*
G01*
X29602548Y-127021220D01*
X29576760Y-127023018D01*
X29549630Y-127016809D01*
X29561399Y-127007657D01*
X29601136Y-127004626D01*
X29610131Y-127009664D01*
G37*
G36*
X34905505Y-160726427D02*
G01*
X34892793Y-160739140D01*
X34880080Y-160726427D01*
X34892793Y-160713714D01*
X34905505Y-160726427D01*
G37*
G36*
X26710043Y-100184251D02*
G01*
X26713086Y-100214425D01*
X26710043Y-100218152D01*
X26694928Y-100214662D01*
X26693093Y-100201202D01*
X26702396Y-100180274D01*
X26710043Y-100184251D01*
G37*
G36*
X30480654Y-49830143D02*
G01*
X30504898Y-49890974D01*
X30506907Y-49896997D01*
X30523906Y-49958908D01*
X30527905Y-49996825D01*
X30526413Y-50000381D01*
X30512970Y-49986100D01*
X30492935Y-49937022D01*
X30486566Y-49917338D01*
X30468435Y-49846378D01*
X30467482Y-49816295D01*
X30480654Y-49830143D01*
G37*
G36*
X30574119Y-50852920D02*
G01*
X30575377Y-50857291D01*
X30579099Y-50912676D01*
X30574435Y-50933567D01*
X30566088Y-50934413D01*
X30562679Y-50894610D01*
X30562714Y-50888589D01*
X30566380Y-50849155D01*
X30574119Y-50852920D01*
G37*
G36*
X25976809Y-165955155D02*
G01*
X26111580Y-165959294D01*
X26209218Y-165965045D01*
X26283424Y-165975348D01*
X26347900Y-165993140D01*
X26416346Y-166021363D01*
X26502463Y-166062954D01*
X26520169Y-166071726D01*
X26736749Y-166206671D01*
X26923387Y-166379263D01*
X27076670Y-166583770D01*
X27193188Y-166814457D01*
X27269530Y-167065591D01*
X27302282Y-167331438D01*
X27303303Y-167387888D01*
X27291315Y-167590814D01*
X27252438Y-167781958D01*
X27182300Y-167978873D01*
X27125097Y-168103622D01*
X27003076Y-168302669D01*
X26846019Y-168480192D01*
X26662947Y-168628865D01*
X26462886Y-168741363D01*
X26254857Y-168810358D01*
X26254504Y-168810434D01*
X26184584Y-168825394D01*
X26184584Y-169663464D01*
X25650650Y-169663464D01*
X25650650Y-167243837D01*
X26184514Y-167243837D01*
X26184584Y-167383651D01*
X26185042Y-167579945D01*
X26186339Y-167759612D01*
X26188360Y-167916419D01*
X26190993Y-168044132D01*
X26194121Y-168136517D01*
X26197632Y-168187343D01*
X26199459Y-168195188D01*
X26238149Y-168200480D01*
X26303542Y-168175871D01*
X26385569Y-168126586D01*
X26474162Y-168057848D01*
X26488443Y-168045241D01*
X26615962Y-167899205D01*
X26704750Y-167730913D01*
X26755353Y-167548412D01*
X26768319Y-167359750D01*
X26744193Y-167172974D01*
X26683522Y-166996132D01*
X26586853Y-166837272D01*
X26454731Y-166704441D01*
X26394512Y-166661936D01*
X26337535Y-166625298D01*
X26291896Y-166598243D01*
X26256340Y-166585080D01*
X26229614Y-166590118D01*
X26210465Y-166617664D01*
X26197640Y-166672029D01*
X26189886Y-166757519D01*
X26185949Y-166878445D01*
X26184576Y-167039115D01*
X26184514Y-167243837D01*
X25650650Y-167243837D01*
X25650650Y-165946245D01*
X25976809Y-165955155D01*
G37*
G36*
X30601872Y-50424575D02*
G01*
X30605754Y-50531193D01*
X30603384Y-50643254D01*
X30601872Y-50666117D01*
X30597972Y-50694265D01*
X30594845Y-50676279D01*
X30592862Y-50616873D01*
X30592349Y-50545346D01*
X30593189Y-50457082D01*
X30595462Y-50406586D01*
X30598795Y-50398570D01*
X30601872Y-50424575D01*
G37*
G36*
X29470821Y-118185564D02*
G01*
X29474015Y-118194844D01*
X29439039Y-118198388D01*
X29402944Y-118194393D01*
X29407257Y-118185564D01*
X29459312Y-118182206D01*
X29470821Y-118185564D01*
G37*
G36*
X26733177Y-98874299D02*
G01*
X26712279Y-98938189D01*
X26705806Y-98955356D01*
X26684294Y-99002418D01*
X26671879Y-99012641D01*
X26670749Y-99006207D01*
X26680329Y-98957280D01*
X26704504Y-98892632D01*
X26704887Y-98891792D01*
X26729396Y-98845212D01*
X26738854Y-98841344D01*
X26733177Y-98874299D01*
G37*
G36*
X25167567Y-151547848D02*
G01*
X25154855Y-151560561D01*
X25142142Y-151547848D01*
X25154855Y-151535136D01*
X25167567Y-151547848D01*
G37*
G36*
X32591792Y-120503404D02*
G01*
X32579079Y-120516117D01*
X32566366Y-120503404D01*
X32579079Y-120490691D01*
X32591792Y-120503404D01*
G37*
G36*
X31171613Y-151116341D02*
G01*
X31193393Y-151128329D01*
X31213744Y-151148475D01*
X31206106Y-151152975D01*
X31164322Y-151140316D01*
X31142542Y-151128329D01*
X31122191Y-151108182D01*
X31129830Y-151103682D01*
X31171613Y-151116341D01*
G37*
G36*
X29328862Y-52409877D02*
G01*
X29325372Y-52424992D01*
X29311912Y-52426827D01*
X29290984Y-52417524D01*
X29294961Y-52409877D01*
X29325135Y-52406834D01*
X29328862Y-52409877D01*
G37*
G36*
X35329262Y-159603471D02*
G01*
X35332305Y-159633645D01*
X35329262Y-159637371D01*
X35314147Y-159633881D01*
X35312312Y-159620421D01*
X35321615Y-159599493D01*
X35329262Y-159603471D01*
G37*
G36*
X32990541Y-123613251D02*
G01*
X32993573Y-123652988D01*
X32988534Y-123661983D01*
X32976978Y-123654400D01*
X32975180Y-123628612D01*
X32981390Y-123601483D01*
X32990541Y-123613251D01*
G37*
G36*
X30445194Y-51344620D02*
G01*
X30423475Y-51396708D01*
X30393460Y-51457684D01*
X30363851Y-51510054D01*
X30343350Y-51536325D01*
X30341455Y-51536937D01*
X30344611Y-51516534D01*
X30365669Y-51464345D01*
X30384905Y-51423081D01*
X30418161Y-51359948D01*
X30442639Y-51323163D01*
X30449912Y-51318915D01*
X30445194Y-51344620D01*
G37*
G36*
X28301251Y-52511690D02*
G01*
X28304445Y-52520970D01*
X28269469Y-52524514D01*
X28233375Y-52520519D01*
X28237687Y-52511690D01*
X28289742Y-52508332D01*
X28301251Y-52511690D01*
G37*
G36*
X27767317Y-127033612D02*
G01*
X27770511Y-127042892D01*
X27735535Y-127046436D01*
X27699441Y-127042441D01*
X27703754Y-127033612D01*
X27755808Y-127030254D01*
X27767317Y-127033612D01*
G37*
G36*
X35584811Y-157008308D02*
G01*
X35588994Y-157083501D01*
X35584464Y-157135435D01*
X35578509Y-157145666D01*
X35574671Y-157112354D01*
X35573838Y-157065166D01*
X35575741Y-157007477D01*
X35580297Y-156990604D01*
X35584811Y-157008308D01*
G37*
G36*
X26467829Y-164312027D02*
G01*
X26502402Y-164324125D01*
X26530131Y-164340930D01*
X26515115Y-164345976D01*
X26460699Y-164336222D01*
X26426126Y-164324125D01*
X26398397Y-164307319D01*
X26413413Y-164302273D01*
X26467829Y-164312027D01*
G37*
G36*
X31008543Y-164232501D02*
G01*
X30992154Y-164244475D01*
X30941318Y-164265889D01*
X30870369Y-164291815D01*
X30793640Y-164317327D01*
X30725463Y-164337495D01*
X30680171Y-164347394D01*
X30673591Y-164347657D01*
X30682218Y-164339273D01*
X30729427Y-164318802D01*
X30805591Y-164290335D01*
X30822786Y-164284274D01*
X30909277Y-164255715D01*
X30975038Y-164237103D01*
X31007417Y-164231967D01*
X31008543Y-164232501D01*
G37*
G36*
X22269069Y-160624725D02*
G01*
X22256356Y-160637438D01*
X22243643Y-160624725D01*
X22256356Y-160612012D01*
X22269069Y-160624725D01*
G37*
G36*
X27513547Y-164561701D02*
G01*
X27514392Y-164570048D01*
X27474590Y-164573457D01*
X27468568Y-164573422D01*
X27429135Y-164569756D01*
X27432899Y-164562017D01*
X27437270Y-164560759D01*
X27492655Y-164557037D01*
X27513547Y-164561701D01*
G37*
G36*
X35431382Y-159208847D02*
G01*
X35434413Y-159248584D01*
X35429375Y-159257579D01*
X35417819Y-159249996D01*
X35416021Y-159224208D01*
X35422230Y-159197078D01*
X35431382Y-159208847D01*
G37*
G36*
X27116850Y-126855523D02*
G01*
X27113360Y-126870638D01*
X27099900Y-126872473D01*
X27078972Y-126863170D01*
X27082949Y-126855523D01*
X27113123Y-126852480D01*
X27116850Y-126855523D01*
G37*
G36*
X24150550Y-166536137D02*
G01*
X23540340Y-166536137D01*
X23540340Y-169663464D01*
X23006406Y-169663464D01*
X23006406Y-166536137D01*
X22370771Y-166536137D01*
X22370771Y-165951352D01*
X24150550Y-165951352D01*
X24150550Y-166536137D01*
G37*
G36*
X29380023Y-101407467D02*
G01*
X29362763Y-101421622D01*
X29316412Y-101443137D01*
X29299199Y-101446269D01*
X29294651Y-101435777D01*
X29311912Y-101421622D01*
X29358263Y-101400107D01*
X29375475Y-101396975D01*
X29380023Y-101407467D01*
G37*
G36*
X25912483Y-203796739D02*
G01*
X25966286Y-203801254D01*
X26044745Y-203813572D01*
X26513395Y-202375154D01*
X26597956Y-202116339D01*
X26678090Y-201872482D01*
X26752386Y-201647783D01*
X26819433Y-201446441D01*
X26877821Y-201272654D01*
X26926139Y-201130622D01*
X26962977Y-201024543D01*
X26986925Y-200958617D01*
X26996478Y-200937001D01*
X27007373Y-200960301D01*
X27034306Y-201027609D01*
X27075865Y-201135170D01*
X27130642Y-201279228D01*
X27197225Y-201456026D01*
X27274206Y-201661809D01*
X27360175Y-201892821D01*
X27453721Y-202145307D01*
X27553434Y-202415510D01*
X27646546Y-202668727D01*
X27750612Y-202952195D01*
X27849605Y-203221832D01*
X27942123Y-203473821D01*
X28026764Y-203704344D01*
X28102127Y-203909584D01*
X28166809Y-204085724D01*
X28219410Y-204228946D01*
X28258527Y-204335432D01*
X28282758Y-204401366D01*
X28290657Y-204422818D01*
X28269220Y-204429967D01*
X28203923Y-204436128D01*
X28101752Y-204440977D01*
X27969693Y-204444189D01*
X27814731Y-204445440D01*
X27803044Y-204445446D01*
X27306957Y-204445446D01*
X27253477Y-204299250D01*
X27219464Y-204207244D01*
X27188117Y-204124068D01*
X27172076Y-204082618D01*
X27144154Y-204012182D01*
X26634718Y-204019054D01*
X26125283Y-204025926D01*
X26059588Y-204217183D01*
X26025961Y-204311631D01*
X25996242Y-204389013D01*
X25975903Y-204435218D01*
X25973324Y-204439656D01*
X25931293Y-204466028D01*
X25875581Y-204468458D01*
X25845579Y-204453921D01*
X25830211Y-204410725D01*
X25832662Y-204350929D01*
X25851576Y-204305028D01*
X25852235Y-204304335D01*
X25874200Y-204268398D01*
X25905391Y-204201886D01*
X25927324Y-204148770D01*
X25978805Y-204017360D01*
X25903717Y-203991184D01*
X25844992Y-203960081D01*
X25824861Y-203912007D01*
X25828157Y-203860661D01*
X25842856Y-203832515D01*
X26191308Y-203832515D01*
X26270579Y-203842519D01*
X26346664Y-203848964D01*
X26449708Y-203853399D01*
X26569534Y-203855894D01*
X26695970Y-203856521D01*
X26818842Y-203855349D01*
X26927976Y-203852448D01*
X27013198Y-203847890D01*
X27064333Y-203841743D01*
X27074474Y-203836963D01*
X27066011Y-203807203D01*
X27042548Y-203737729D01*
X27006976Y-203636427D01*
X26962183Y-203511184D01*
X26911061Y-203369887D01*
X26856499Y-203220422D01*
X26801386Y-203070674D01*
X26748614Y-202928531D01*
X26701071Y-202801879D01*
X26661647Y-202698604D01*
X26633234Y-202626593D01*
X26619201Y-202594553D01*
X26611782Y-202589155D01*
X26601354Y-202598286D01*
X26586560Y-202625795D01*
X26566044Y-202675537D01*
X26538447Y-202751363D01*
X26502413Y-202857127D01*
X26456585Y-202996679D01*
X26399606Y-203173874D01*
X26330119Y-203392563D01*
X26261010Y-203611403D01*
X26191308Y-203832515D01*
X25842856Y-203832515D01*
X25853096Y-203812906D01*
X25912483Y-203796739D01*
G37*
G36*
X29101622Y-48597652D02*
G01*
X29094039Y-48609208D01*
X29068251Y-48611006D01*
X29041122Y-48604797D01*
X29052890Y-48595645D01*
X29092627Y-48592614D01*
X29101622Y-48597652D01*
G37*
G36*
X31205198Y-118931340D02*
G01*
X31218819Y-118940401D01*
X31403333Y-119077851D01*
X31600781Y-119248655D01*
X31801426Y-119442542D01*
X31995532Y-119649242D01*
X32173362Y-119858484D01*
X32325182Y-120060000D01*
X32421607Y-120209158D01*
X32453985Y-120267618D01*
X32460308Y-120287301D01*
X32443450Y-120271253D01*
X32406285Y-120222518D01*
X32351686Y-120144140D01*
X32330739Y-120112899D01*
X32123755Y-119830720D01*
X31883784Y-119553135D01*
X31624311Y-119294444D01*
X31358821Y-119068946D01*
X31314342Y-119035152D01*
X31233401Y-118973316D01*
X31178687Y-118928714D01*
X31153528Y-118904648D01*
X31161255Y-118904423D01*
X31205198Y-118931340D01*
G37*
G36*
X24218770Y-123613251D02*
G01*
X24221801Y-123652988D01*
X24216762Y-123661983D01*
X24205206Y-123654400D01*
X24203408Y-123628612D01*
X24209618Y-123601483D01*
X24218770Y-123613251D01*
G37*
G36*
X28697908Y-52533754D02*
G01*
X28720771Y-52535266D01*
X28748919Y-52539166D01*
X28730933Y-52542293D01*
X28671527Y-52544276D01*
X28600000Y-52544789D01*
X28511736Y-52543948D01*
X28461240Y-52541676D01*
X28453224Y-52538342D01*
X28479229Y-52535266D01*
X28585847Y-52531383D01*
X28697908Y-52533754D01*
G37*
G36*
X29114865Y-150652278D02*
G01*
X29134054Y-150657264D01*
X29108096Y-150660911D01*
X29042690Y-150662512D01*
X29032232Y-150662533D01*
X28962381Y-150661231D01*
X28931279Y-150657797D01*
X28944626Y-150652938D01*
X28949599Y-150652278D01*
X29038754Y-150648071D01*
X29114865Y-150652278D01*
G37*
G36*
X33040863Y-121806457D02*
G01*
X33044221Y-121858512D01*
X33040863Y-121870020D01*
X33031583Y-121873214D01*
X33028038Y-121838239D01*
X33032034Y-121802144D01*
X33040863Y-121806457D01*
G37*
G36*
X35086587Y-154975831D02*
G01*
X35103431Y-155017962D01*
X35101668Y-155034135D01*
X35084325Y-155025070D01*
X35073912Y-155004723D01*
X35059506Y-154956445D01*
X35065421Y-154946813D01*
X35086587Y-154975831D01*
G37*
G36*
X24269621Y-121375814D02*
G01*
X24272652Y-121415551D01*
X24267613Y-121424546D01*
X24256057Y-121416963D01*
X24254259Y-121391175D01*
X24260469Y-121364045D01*
X24269621Y-121375814D01*
G37*
G36*
X26383339Y-126534907D02*
G01*
X26438101Y-126558660D01*
X26515497Y-126594478D01*
X26604175Y-126636876D01*
X26692782Y-126680373D01*
X26769968Y-126719486D01*
X26824380Y-126748731D01*
X26843527Y-126760994D01*
X26847436Y-126772690D01*
X26810517Y-126761585D01*
X26736576Y-126729242D01*
X26629419Y-126677226D01*
X26585035Y-126654796D01*
X26490651Y-126605479D01*
X26416137Y-126564248D01*
X26371246Y-126536632D01*
X26362562Y-126528700D01*
X26383339Y-126534907D01*
G37*
G36*
X30473006Y-51240307D02*
G01*
X30476049Y-51270481D01*
X30473006Y-51274208D01*
X30457891Y-51270718D01*
X30456056Y-51257258D01*
X30465359Y-51236330D01*
X30473006Y-51240307D01*
G37*
G36*
X30855039Y-118708140D02*
G01*
X30875575Y-118718453D01*
X30934912Y-118752292D01*
X30991037Y-118789141D01*
X31031338Y-118819997D01*
X31043202Y-118835854D01*
X31040841Y-118836436D01*
X31013369Y-118824299D01*
X30959096Y-118793709D01*
X30932547Y-118777683D01*
X30862611Y-118732605D01*
X30824151Y-118703670D01*
X30820512Y-118694356D01*
X30855039Y-118708140D01*
G37*
G36*
X21726548Y-158953003D02*
G01*
X21729906Y-159005058D01*
X21726548Y-159016567D01*
X21717268Y-159019761D01*
X21713724Y-158984785D01*
X21717720Y-158948690D01*
X21726548Y-158953003D01*
G37*
G36*
X26695251Y-51127466D02*
G01*
X26710067Y-51176525D01*
X26709493Y-51198482D01*
X26693598Y-51187832D01*
X26683521Y-51167286D01*
X26670306Y-51114439D01*
X26669279Y-51096269D01*
X26677936Y-51093625D01*
X26695251Y-51127466D01*
G37*
G36*
X25666970Y-147939451D02*
G01*
X25765242Y-147709557D01*
X25910600Y-147493347D01*
X26020051Y-147371932D01*
X26225600Y-147198239D01*
X26446365Y-147071837D01*
X26678866Y-146993352D01*
X26919626Y-146963409D01*
X27165166Y-146982631D01*
X27412007Y-147051644D01*
X27527122Y-147101285D01*
X27718451Y-147217032D01*
X27896611Y-147369545D01*
X28048482Y-147545999D01*
X28149221Y-147709419D01*
X28221618Y-147866549D01*
X28267502Y-148004264D01*
X28291834Y-148143090D01*
X28299576Y-148303552D01*
X28299611Y-148331532D01*
X28275074Y-148581486D01*
X28202860Y-148815515D01*
X28082408Y-149034888D01*
X27913161Y-149240874D01*
X27888349Y-149265940D01*
X27683365Y-149434598D01*
X27454103Y-149559620D01*
X27305045Y-149613091D01*
X27181764Y-149637080D01*
X27029256Y-149649097D01*
X26867743Y-149649028D01*
X26717444Y-149636761D01*
X26614575Y-149616926D01*
X26410385Y-149537610D01*
X26210731Y-149417779D01*
X26027261Y-149266967D01*
X25871624Y-149094707D01*
X25758259Y-148916124D01*
X25661429Y-148671364D01*
X25614388Y-148424341D01*
X25614829Y-148372135D01*
X25891875Y-148372135D01*
X25926657Y-148579777D01*
X26004937Y-148776420D01*
X26123037Y-148956330D01*
X26277282Y-149113772D01*
X26463995Y-149243013D01*
X26654623Y-149329716D01*
X26820088Y-149366375D01*
X27006276Y-149370398D01*
X27195955Y-149342991D01*
X27371892Y-149285360D01*
X27386981Y-149278490D01*
X27581377Y-149162067D01*
X27743254Y-149013579D01*
X27870140Y-148839625D01*
X27959557Y-148646803D01*
X28009032Y-148441711D01*
X28016089Y-148230950D01*
X27978253Y-148021116D01*
X27917220Y-147864837D01*
X27800616Y-147679324D01*
X27650891Y-147521535D01*
X27475774Y-147395640D01*
X27282991Y-147305809D01*
X27080270Y-147256214D01*
X26875340Y-147251023D01*
X26799125Y-147261445D01*
X26578021Y-147326843D01*
X26378043Y-147434612D01*
X26204787Y-147579135D01*
X26063849Y-147754798D01*
X25960825Y-147955989D01*
X25904265Y-148159228D01*
X25891875Y-148372135D01*
X25614829Y-148372135D01*
X25616460Y-148179041D01*
X25666970Y-147939451D01*
G37*
G36*
X26235435Y-164238463D02*
G01*
X26290904Y-164255742D01*
X26336618Y-164275719D01*
X26359235Y-164291594D01*
X26349850Y-164296779D01*
X26310972Y-164286262D01*
X26251553Y-164261295D01*
X26248148Y-164259666D01*
X26203376Y-164236813D01*
X26203423Y-164231617D01*
X26235435Y-164238463D01*
G37*
G36*
X26610165Y-50412715D02*
G01*
X26613898Y-50519841D01*
X26612216Y-50630535D01*
X26610045Y-50666969D01*
X26606250Y-50693594D01*
X26603200Y-50674267D01*
X26601237Y-50613885D01*
X26600677Y-50532633D01*
X26601508Y-50442415D01*
X26603670Y-50390651D01*
X26606824Y-50381640D01*
X26610165Y-50412715D01*
G37*
G36*
X26587226Y-191594651D02*
G01*
X26811255Y-191649369D01*
X27021475Y-191743899D01*
X27211800Y-191874627D01*
X27376146Y-192037938D01*
X27508428Y-192230217D01*
X27602560Y-192447851D01*
X27620284Y-192509098D01*
X27648982Y-192675087D01*
X27657318Y-192858607D01*
X27644801Y-193033889D01*
X27631665Y-193105706D01*
X27572007Y-193282820D01*
X27478387Y-193462902D01*
X27362128Y-193625793D01*
X27303227Y-193690341D01*
X27114746Y-193846128D01*
X26903683Y-193962668D01*
X26677917Y-194037699D01*
X26445328Y-194068954D01*
X26213793Y-194054168D01*
X26113541Y-194032294D01*
X25878727Y-193944609D01*
X25670439Y-193817814D01*
X25492723Y-193657068D01*
X25349625Y-193467531D01*
X25245193Y-193254365D01*
X25183473Y-193022727D01*
X25167567Y-192826026D01*
X25192074Y-192589705D01*
X25262513Y-192364704D01*
X25374258Y-192156869D01*
X25522687Y-191972049D01*
X25703175Y-191816089D01*
X25911098Y-191694837D01*
X26122077Y-191619112D01*
X26355472Y-191583361D01*
X26587226Y-191594651D01*
G37*
G36*
X35558667Y-156753704D02*
G01*
X35562621Y-156818189D01*
X35558667Y-156842693D01*
X35551298Y-156850606D01*
X35547286Y-156815449D01*
X35547040Y-156798199D01*
X35549691Y-156751942D01*
X35556290Y-156746490D01*
X35558667Y-156753704D01*
G37*
G36*
X35515716Y-147792750D02*
G01*
X35515716Y-149628229D01*
X35236036Y-149628229D01*
X35236036Y-147804624D01*
X34961405Y-147425472D01*
X34872880Y-147303015D01*
X34794084Y-147193565D01*
X34730129Y-147104257D01*
X34686128Y-147042230D01*
X34667512Y-147015152D01*
X34669894Y-146997991D01*
X34707754Y-146988219D01*
X34787682Y-146984518D01*
X34821372Y-146984395D01*
X34994494Y-146984806D01*
X35159505Y-147215175D01*
X35228813Y-147310515D01*
X35289430Y-147391295D01*
X35334060Y-147447947D01*
X35353644Y-147469718D01*
X35378525Y-147465152D01*
X35423003Y-147423626D01*
X35489265Y-147342760D01*
X35566063Y-147238938D01*
X35749355Y-146983984D01*
X36100878Y-146983984D01*
X35515716Y-147792750D01*
G37*
G36*
X21751974Y-156156207D02*
G01*
X21755332Y-156208261D01*
X21751974Y-156219770D01*
X21742694Y-156222964D01*
X21739149Y-156187988D01*
X21743145Y-156151894D01*
X21751974Y-156156207D01*
G37*
G36*
X41109309Y-198089089D02*
G01*
X16090691Y-198089089D01*
X16090691Y-197300901D01*
X41109309Y-197300901D01*
X41109309Y-198089089D01*
G37*
G36*
X24142651Y-123166717D02*
G01*
X24146605Y-123231202D01*
X24142651Y-123255706D01*
X24135282Y-123263619D01*
X24131270Y-123228462D01*
X24131024Y-123211212D01*
X24133675Y-123164955D01*
X24140274Y-123159503D01*
X24142651Y-123166717D01*
G37*
G36*
X40092292Y-171672072D02*
G01*
X40092292Y-196690691D01*
X17107708Y-196690691D01*
X17107708Y-192752630D01*
X24559204Y-192752630D01*
X24569230Y-193036039D01*
X24624441Y-193317821D01*
X24726573Y-193592842D01*
X24760662Y-193661904D01*
X24926373Y-193930143D01*
X25124727Y-194159948D01*
X25356528Y-194351935D01*
X25622583Y-194506723D01*
X25923695Y-194624929D01*
X26070170Y-194666181D01*
X26113702Y-194670404D01*
X26196885Y-194672941D01*
X26308542Y-194673631D01*
X26437495Y-194672315D01*
X26464264Y-194671800D01*
X26612392Y-194667561D01*
X26723475Y-194660637D01*
X26811315Y-194649028D01*
X26889713Y-194630731D01*
X26972470Y-194603748D01*
X26998198Y-194594402D01*
X27292162Y-194461997D01*
X27550100Y-194294948D01*
X27770758Y-194094147D01*
X27873366Y-193972781D01*
X28041548Y-193715813D01*
X28162856Y-193447067D01*
X28238604Y-193171000D01*
X28270108Y-192892070D01*
X28258682Y-192614736D01*
X28214582Y-192389179D01*
X28447447Y-192389179D01*
X28447608Y-192701033D01*
X28448162Y-192966252D01*
X28449219Y-193189050D01*
X28450889Y-193373643D01*
X28453280Y-193524246D01*
X28456502Y-193645072D01*
X28460664Y-193740339D01*
X28465876Y-193814259D01*
X28472247Y-193871049D01*
X28479886Y-193914922D01*
X28487829Y-193946487D01*
X28573700Y-194151073D01*
X28703707Y-194334194D01*
X28873846Y-194490755D01*
X28964198Y-194552276D01*
X29088121Y-194617081D01*
X29215438Y-194656424D01*
X29362337Y-194673993D01*
X29502602Y-194674908D01*
X29630573Y-194668392D01*
X29727230Y-194654284D01*
X29811973Y-194628737D01*
X29877695Y-194600545D01*
X30048103Y-194496935D01*
X30204796Y-194356475D01*
X30333540Y-194193161D01*
X30386552Y-194100146D01*
X30468769Y-193933180D01*
X30480108Y-191580181D01*
X30659459Y-191580181D01*
X31345946Y-191580181D01*
X31345946Y-194682082D01*
X31956156Y-194682082D01*
X31956156Y-191580181D01*
X32642642Y-191580181D01*
X32642642Y-190969970D01*
X30659459Y-190969970D01*
X30659459Y-191580181D01*
X30480108Y-191580181D01*
X30483049Y-190969970D01*
X29871271Y-190969970D01*
X29871271Y-193784673D01*
X29814064Y-193868727D01*
X29729047Y-193971405D01*
X29636692Y-194031541D01*
X29522637Y-194056957D01*
X29464464Y-194059160D01*
X29331822Y-194044540D01*
X29230208Y-193996145D01*
X29147543Y-193907170D01*
X29121221Y-193865811D01*
X29110238Y-193845488D01*
X29100927Y-193822035D01*
X29093123Y-193791254D01*
X29086664Y-193748946D01*
X29081387Y-193690914D01*
X29077127Y-193612959D01*
X29073722Y-193510884D01*
X29071008Y-193380490D01*
X29068822Y-193217580D01*
X29067000Y-193017954D01*
X29065379Y-192777416D01*
X29063796Y-192491767D01*
X29063192Y-192374725D01*
X29056014Y-190969970D01*
X28447447Y-190969970D01*
X28447447Y-192389179D01*
X28214582Y-192389179D01*
X28205642Y-192343456D01*
X28112302Y-192082686D01*
X27979977Y-191836887D01*
X27809982Y-191610515D01*
X27603632Y-191408029D01*
X27362241Y-191233886D01*
X27087125Y-191092545D01*
X27015337Y-191063660D01*
X26932003Y-191032826D01*
X26862470Y-191011195D01*
X26794593Y-190997115D01*
X26716227Y-190988933D01*
X26615226Y-190984999D01*
X26479445Y-190983660D01*
X26426126Y-190983508D01*
X26249942Y-190985013D01*
X26110582Y-190992333D01*
X25994104Y-191008381D01*
X25886565Y-191036072D01*
X25774021Y-191078321D01*
X25642530Y-191138041D01*
X25608434Y-191154413D01*
X25350757Y-191305476D01*
X25126116Y-191490846D01*
X24936247Y-191705390D01*
X24782886Y-191943973D01*
X24667768Y-192201464D01*
X24592629Y-192472727D01*
X24559204Y-192752630D01*
X17107708Y-192752630D01*
X17107708Y-182593355D01*
X21619608Y-182593355D01*
X21620392Y-182846947D01*
X21626261Y-183092386D01*
X21637214Y-183318153D01*
X21653253Y-183512730D01*
X21667169Y-183622022D01*
X21784973Y-184233793D01*
X21945735Y-184818418D01*
X22149589Y-185376173D01*
X22396668Y-185907335D01*
X22687105Y-186412178D01*
X23021035Y-186890977D01*
X23398590Y-187344009D01*
X23550018Y-187505828D01*
X23817971Y-187772651D01*
X24078039Y-188007487D01*
X24345863Y-188223429D01*
X24637084Y-188433572D01*
X24747397Y-188508150D01*
X25249231Y-188811989D01*
X25775893Y-189072177D01*
X26324483Y-189287687D01*
X26892102Y-189457495D01*
X27475849Y-189580575D01*
X27964364Y-189645896D01*
X28105306Y-189655393D01*
X28284694Y-189660602D01*
X28490324Y-189661785D01*
X28709997Y-189659205D01*
X28931510Y-189653124D01*
X29142661Y-189643805D01*
X29331249Y-189631509D01*
X29485072Y-189616500D01*
X29515315Y-189612543D01*
X30108573Y-189505269D01*
X30683581Y-189351894D01*
X31238085Y-189153256D01*
X31769832Y-188910193D01*
X32276568Y-188623541D01*
X32413814Y-188535484D01*
X32898916Y-188186359D01*
X33349547Y-187801977D01*
X33763988Y-187384814D01*
X34140516Y-186937344D01*
X34477411Y-186462045D01*
X34772951Y-185961391D01*
X35025415Y-185437858D01*
X35233083Y-184893922D01*
X35394233Y-184332059D01*
X35423158Y-184206807D01*
X35470944Y-183981982D01*
X35508087Y-183783675D01*
X35535837Y-183599577D01*
X35555443Y-183417379D01*
X35568155Y-183224771D01*
X35575222Y-183009444D01*
X35577894Y-182759089D01*
X35578024Y-182681282D01*
X35576112Y-182405048D01*
X35569437Y-182167359D01*
X35556787Y-181956032D01*
X35536950Y-181758885D01*
X35508714Y-181563737D01*
X35470866Y-181358404D01*
X35424956Y-181143043D01*
X35272329Y-180575156D01*
X35072835Y-180024386D01*
X34828414Y-179493577D01*
X34541005Y-178985570D01*
X34212547Y-178503207D01*
X33844979Y-178049330D01*
X33440239Y-177626779D01*
X33000269Y-177238398D01*
X32527005Y-176887028D01*
X32515515Y-176879250D01*
X32023375Y-176574679D01*
X31513998Y-176314868D01*
X30983776Y-176098416D01*
X30429099Y-175923918D01*
X29846356Y-175789970D01*
X29604304Y-175747385D01*
X29457535Y-175729549D01*
X29270459Y-175715782D01*
X29053454Y-175706084D01*
X28816901Y-175700455D01*
X28571180Y-175698896D01*
X28326671Y-175701405D01*
X28093753Y-175707984D01*
X27882807Y-175718631D01*
X27704211Y-175733348D01*
X27595696Y-175747385D01*
X26990247Y-175869407D01*
X26407621Y-176036035D01*
X25849130Y-176246483D01*
X25316085Y-176499967D01*
X24809798Y-176795702D01*
X24331581Y-177132903D01*
X23882746Y-177510785D01*
X23464605Y-177928562D01*
X23078469Y-178385450D01*
X22987879Y-178504630D01*
X22655578Y-178990680D01*
X22369411Y-179494458D01*
X22128382Y-180018395D01*
X21931494Y-180564922D01*
X21777753Y-181136469D01*
X21667296Y-181727828D01*
X21647752Y-181898846D01*
X21633288Y-182107786D01*
X21623907Y-182343128D01*
X21619608Y-182593355D01*
X17107708Y-182593355D01*
X17107708Y-171672072D01*
X40092292Y-171672072D01*
G37*
G36*
X26342010Y-151019234D02*
G01*
X26337137Y-151022337D01*
X26282767Y-151047385D01*
X26235435Y-151062904D01*
X26197171Y-151070363D01*
X26205136Y-151059445D01*
X26210010Y-151056342D01*
X26264379Y-151031295D01*
X26311712Y-151015776D01*
X26349975Y-151008316D01*
X26342010Y-151019234D01*
G37*
G36*
X22068769Y-160162618D02*
G01*
X22085614Y-160204749D01*
X22083850Y-160220922D01*
X22066507Y-160211857D01*
X22056094Y-160191510D01*
X22041689Y-160143232D01*
X22047603Y-160133599D01*
X22068769Y-160162618D01*
G37*
G36*
X27837237Y-101408909D02*
G01*
X27824524Y-101421622D01*
X27811812Y-101408909D01*
X27824524Y-101396197D01*
X27837237Y-101408909D01*
G37*
G36*
X24117944Y-122200901D02*
G01*
X24122127Y-122276093D01*
X24117597Y-122328028D01*
X24111642Y-122338259D01*
X24107804Y-122304946D01*
X24106972Y-122257758D01*
X24108874Y-122200070D01*
X24113430Y-122183196D01*
X24117944Y-122200901D01*
G37*
G36*
X30379780Y-126758058D02*
G01*
X30367067Y-126770771D01*
X30354354Y-126758058D01*
X30367067Y-126745346D01*
X30379780Y-126758058D01*
G37*
G36*
X30372894Y-150858713D02*
G01*
X30365311Y-150870269D01*
X30339523Y-150872067D01*
X30312393Y-150865858D01*
X30324161Y-150856706D01*
X30363898Y-150853675D01*
X30372894Y-150858713D01*
G37*
G36*
X24608208Y-120554255D02*
G01*
X24595495Y-120566967D01*
X24582783Y-120554255D01*
X24595495Y-120541542D01*
X24608208Y-120554255D01*
G37*
G36*
X22613928Y-154020088D02*
G01*
X22599599Y-154052253D01*
X22573342Y-154092210D01*
X22559672Y-154103104D01*
X22559845Y-154084417D01*
X22574174Y-154052253D01*
X22600431Y-154012295D01*
X22614101Y-154001402D01*
X22613928Y-154020088D01*
G37*
G36*
X28697908Y-101553974D02*
G01*
X28720771Y-101555486D01*
X28748919Y-101559386D01*
X28730933Y-101562513D01*
X28671527Y-101564496D01*
X28600000Y-101565009D01*
X28511736Y-101564169D01*
X28461240Y-101561896D01*
X28453224Y-101558562D01*
X28479229Y-101555486D01*
X28585847Y-101551603D01*
X28697908Y-101553974D01*
G37*
G36*
X30574119Y-99873140D02*
G01*
X30575377Y-99877511D01*
X30579099Y-99932896D01*
X30574435Y-99953788D01*
X30566088Y-99954633D01*
X30562679Y-99914830D01*
X30562714Y-99908809D01*
X30566380Y-99869376D01*
X30574119Y-99873140D01*
G37*
G36*
X35355106Y-159513952D02*
G01*
X35358137Y-159553689D01*
X35353099Y-159562684D01*
X35341543Y-159555101D01*
X35339745Y-159529313D01*
X35345954Y-159502183D01*
X35355106Y-159513952D01*
G37*
G36*
X24192815Y-121679330D02*
G01*
X24196173Y-121731384D01*
X24192815Y-121742893D01*
X24183534Y-121746087D01*
X24179990Y-121711112D01*
X24183986Y-121675017D01*
X24192815Y-121679330D01*
G37*
G36*
X30625559Y-164358025D02*
G01*
X30622069Y-164373140D01*
X30608608Y-164374975D01*
X30587680Y-164365673D01*
X30591658Y-164358025D01*
X30621832Y-164354982D01*
X30625559Y-164358025D01*
G37*
G36*
X26881105Y-98543584D02*
G01*
X26859030Y-98596708D01*
X26830302Y-98656607D01*
X26786061Y-98743177D01*
X26759615Y-98790218D01*
X26746930Y-98804125D01*
X26743944Y-98793483D01*
X26754613Y-98760887D01*
X26781241Y-98702865D01*
X26815758Y-98634922D01*
X26850092Y-98572567D01*
X26876175Y-98531308D01*
X26884640Y-98523124D01*
X26881105Y-98543584D01*
G37*
G36*
X28622952Y-136430738D02*
G01*
X28659257Y-136552356D01*
X28674602Y-136602672D01*
X28702969Y-136694580D01*
X28742887Y-136823365D01*
X28792884Y-136984313D01*
X28851487Y-137172708D01*
X28917225Y-137383837D01*
X28988626Y-137612984D01*
X29064219Y-137855434D01*
X29142530Y-138106473D01*
X29222089Y-138361386D01*
X29301424Y-138615459D01*
X29379062Y-138863976D01*
X29453532Y-139102223D01*
X29523361Y-139325486D01*
X29587079Y-139529048D01*
X29643213Y-139708197D01*
X29690292Y-139858216D01*
X29726843Y-139974391D01*
X29751394Y-140052008D01*
X29762474Y-140086351D01*
X29762827Y-140087338D01*
X29756183Y-140101174D01*
X29719789Y-140110616D01*
X29647633Y-140116291D01*
X29533703Y-140118830D01*
X29458892Y-140119120D01*
X29142775Y-140119120D01*
X29009688Y-139699089D01*
X28876602Y-139279058D01*
X28351742Y-139285926D01*
X27826882Y-139292793D01*
X27699676Y-139705956D01*
X27572470Y-140119120D01*
X27259909Y-140119120D01*
X27140585Y-140117829D01*
X27042268Y-140114308D01*
X26974666Y-140109083D01*
X26947486Y-140102680D01*
X26947347Y-140102174D01*
X26954576Y-140074252D01*
X26974154Y-140008020D01*
X27002918Y-139913594D01*
X27037702Y-139801090D01*
X27075345Y-139680625D01*
X27112680Y-139562316D01*
X27146546Y-139456277D01*
X27173777Y-139372627D01*
X27191210Y-139321480D01*
X27193048Y-139316548D01*
X27189125Y-139290134D01*
X27144732Y-139280395D01*
X27128045Y-139280080D01*
X27049049Y-139280080D01*
X27049049Y-138669870D01*
X27393508Y-138669870D01*
X27406432Y-138628331D01*
X28040640Y-138628331D01*
X28046344Y-138645753D01*
X28068766Y-138657571D01*
X28115874Y-138664828D01*
X28195636Y-138668564D01*
X28316019Y-138669821D01*
X28358458Y-138669870D01*
X28508873Y-138667885D01*
X28610443Y-138661818D01*
X28665027Y-138651505D01*
X28676276Y-138641465D01*
X28668975Y-138610192D01*
X28648943Y-138540072D01*
X28618983Y-138440020D01*
X28581898Y-138318955D01*
X28540494Y-138185794D01*
X28497575Y-138049455D01*
X28455944Y-137918854D01*
X28418405Y-137802911D01*
X28387763Y-137710541D01*
X28366821Y-137650662D01*
X28358884Y-137632091D01*
X28348495Y-137651502D01*
X28326150Y-137710982D01*
X28294597Y-137801926D01*
X28256587Y-137915725D01*
X28214870Y-138043772D01*
X28172194Y-138177459D01*
X28131309Y-138308178D01*
X28094966Y-138427324D01*
X28065913Y-138526286D01*
X28046901Y-138596459D01*
X28040640Y-138628331D01*
X27406432Y-138628331D01*
X28085682Y-136445146D01*
X28622952Y-136430738D01*
G37*
G36*
X22216416Y-154776877D02*
G01*
X22204742Y-154815930D01*
X22180080Y-154865866D01*
X22154782Y-154902903D01*
X22143760Y-154904742D01*
X22143744Y-154904004D01*
X22155418Y-154864952D01*
X22180080Y-154815015D01*
X22205378Y-154777978D01*
X22216400Y-154776140D01*
X22216416Y-154776877D01*
G37*
G36*
X28987738Y-48570749D02*
G01*
X28990932Y-48580029D01*
X28955956Y-48583573D01*
X28919861Y-48579578D01*
X28924174Y-48570749D01*
X28976229Y-48567391D01*
X28987738Y-48570749D01*
G37*
G36*
X34970151Y-154730184D02*
G01*
X35001472Y-154782115D01*
X35010169Y-154798346D01*
X35039423Y-154859789D01*
X35052510Y-154899681D01*
X35051740Y-154906084D01*
X35035833Y-154892234D01*
X35008408Y-154845452D01*
X34999051Y-154826546D01*
X34967802Y-154755286D01*
X34958548Y-154722203D01*
X34970151Y-154730184D01*
G37*
G36*
X26897732Y-100604191D02*
G01*
X26939716Y-100659057D01*
X26982515Y-100719750D01*
X27082108Y-100846194D01*
X27208003Y-100979831D01*
X27343113Y-101103841D01*
X27470350Y-101201406D01*
X27474925Y-101204448D01*
X27548510Y-101255406D01*
X27580932Y-101284423D01*
X27575383Y-101294427D01*
X27573067Y-101294495D01*
X27549294Y-101280532D01*
X27495790Y-101243706D01*
X27423545Y-101191610D01*
X27414158Y-101184708D01*
X27314958Y-101103610D01*
X27205492Y-101001331D01*
X27097316Y-100889960D01*
X27001982Y-100781589D01*
X26931044Y-100688306D01*
X26914128Y-100661475D01*
X26882596Y-100603404D01*
X26877911Y-100584975D01*
X26897732Y-100604191D01*
G37*
G36*
X27981314Y-52435302D02*
G01*
X27977824Y-52450418D01*
X27964364Y-52452253D01*
X27943436Y-52442950D01*
X27947414Y-52435302D01*
X27977588Y-52432259D01*
X27981314Y-52435302D01*
G37*
G36*
X24345479Y-121134802D02*
G01*
X24348522Y-121164976D01*
X24345479Y-121168702D01*
X24330363Y-121165212D01*
X24328528Y-121151752D01*
X24337831Y-121130824D01*
X24345479Y-121134802D01*
G37*
G36*
X28157693Y-48595049D02*
G01*
X28139568Y-48605404D01*
X28116917Y-48613013D01*
X28057021Y-48628715D01*
X28015298Y-48633894D01*
X28002329Y-48628551D01*
X28027928Y-48613013D01*
X28094711Y-48594887D01*
X28129629Y-48591909D01*
X28157693Y-48595049D01*
G37*
G36*
X29813534Y-126958813D02*
G01*
X29805951Y-126970370D01*
X29780163Y-126972167D01*
X29753034Y-126965958D01*
X29764802Y-126956806D01*
X29804539Y-126953775D01*
X29813534Y-126958813D01*
G37*
G36*
X30549701Y-50057495D02*
G01*
X30552732Y-50097232D01*
X30547693Y-50106227D01*
X30536137Y-50098645D01*
X30534339Y-50072857D01*
X30540549Y-50045727D01*
X30549701Y-50057495D01*
G37*
G36*
X27665615Y-118210989D02*
G01*
X27668809Y-118220270D01*
X27633834Y-118223814D01*
X27597739Y-118219818D01*
X27602052Y-118210989D01*
X27654107Y-118207631D01*
X27665615Y-118210989D01*
G37*
G36*
X29344177Y-127059199D02*
G01*
X29345023Y-127067546D01*
X29305220Y-127070955D01*
X29299199Y-127070920D01*
X29259765Y-127067253D01*
X29263530Y-127059515D01*
X29267901Y-127058257D01*
X29323286Y-127054534D01*
X29344177Y-127059199D01*
G37*
G36*
X29520805Y-148045342D02*
G01*
X29565015Y-147886587D01*
X29670234Y-147660672D01*
X29817620Y-147454174D01*
X29999974Y-147274309D01*
X30210099Y-147128297D01*
X30417918Y-147031460D01*
X30584719Y-146989425D01*
X30777299Y-146971027D01*
X30976390Y-146976303D01*
X31162730Y-147005290D01*
X31248632Y-147029897D01*
X31476631Y-147133322D01*
X31678978Y-147273918D01*
X31852290Y-147445656D01*
X31993185Y-147642506D01*
X32098281Y-147858437D01*
X32164196Y-148087421D01*
X32187546Y-148323428D01*
X32164951Y-148560427D01*
X32148048Y-148633307D01*
X32061921Y-148863328D01*
X31933606Y-149077272D01*
X31770059Y-149267834D01*
X31578237Y-149427709D01*
X31365097Y-149549594D01*
X31224331Y-149603178D01*
X31035499Y-149642844D01*
X30828680Y-149655013D01*
X30623836Y-149639913D01*
X30440926Y-149597776D01*
X30430044Y-149594027D01*
X30196120Y-149486910D01*
X29990904Y-149343925D01*
X29817223Y-149170655D01*
X29677904Y-148972679D01*
X29575776Y-148755578D01*
X29513665Y-148524935D01*
X29494626Y-148289140D01*
X29776521Y-148289140D01*
X29794639Y-148499254D01*
X29856422Y-148701440D01*
X29958371Y-148889565D01*
X30096984Y-149057494D01*
X30268763Y-149199091D01*
X30470207Y-149308223D01*
X30518909Y-149327545D01*
X30605004Y-149353117D01*
X30700086Y-149366168D01*
X30821478Y-149368607D01*
X30878162Y-149367146D01*
X31000439Y-149360553D01*
X31091664Y-149347661D01*
X31171604Y-149324002D01*
X31260024Y-149285109D01*
X31276307Y-149277160D01*
X31458534Y-149162336D01*
X31623697Y-149010252D01*
X31758375Y-148834370D01*
X31809998Y-148741893D01*
X31848433Y-148659334D01*
X31872678Y-148591113D01*
X31885964Y-148520624D01*
X31891523Y-148431260D01*
X31892592Y-148317501D01*
X31891491Y-148197557D01*
X31885770Y-148111347D01*
X31871808Y-148041762D01*
X31845979Y-147971694D01*
X31804660Y-147884036D01*
X31797862Y-147870254D01*
X31674316Y-147670845D01*
X31521685Y-147507380D01*
X31345750Y-147382026D01*
X31152288Y-147296949D01*
X30947079Y-147254317D01*
X30735901Y-147256296D01*
X30524533Y-147305054D01*
X30413385Y-147351095D01*
X30202685Y-147477903D01*
X30032737Y-147635004D01*
X29903759Y-147822139D01*
X29815966Y-148039049D01*
X29805568Y-148077233D01*
X29776521Y-148289140D01*
X29494626Y-148289140D01*
X29494399Y-148286329D01*
X29520805Y-148045342D01*
G37*
G36*
X24320053Y-121211078D02*
G01*
X24323096Y-121241252D01*
X24320053Y-121244979D01*
X24304938Y-121241489D01*
X24303103Y-121228028D01*
X24312406Y-121207100D01*
X24320053Y-121211078D01*
G37*
G36*
X24633633Y-124724024D02*
G01*
X24620921Y-124736737D01*
X24608208Y-124724024D01*
X24620921Y-124711312D01*
X24633633Y-124724024D01*
G37*
G36*
X29889810Y-118288743D02*
G01*
X29882228Y-118300299D01*
X29856440Y-118302097D01*
X29829310Y-118295888D01*
X29841078Y-118286736D01*
X29880815Y-118283705D01*
X29889810Y-118288743D01*
G37*
G36*
X27945295Y-118160139D02*
G01*
X27948489Y-118169419D01*
X27913513Y-118172963D01*
X27877419Y-118168967D01*
X27881732Y-118160139D01*
X27933786Y-118156780D01*
X27945295Y-118160139D01*
G37*
G36*
X30474595Y-150884139D02*
G01*
X30467012Y-150895695D01*
X30441224Y-150897493D01*
X30414095Y-150891283D01*
X30425863Y-150882131D01*
X30465600Y-150879100D01*
X30474595Y-150884139D01*
G37*
G36*
X34956356Y-154675176D02*
G01*
X34943643Y-154687888D01*
X34930931Y-154675176D01*
X34943643Y-154662463D01*
X34956356Y-154675176D01*
G37*
G36*
X33093944Y-8370976D02*
G01*
X33337126Y-8375281D01*
X33536129Y-8380680D01*
X33697624Y-8388031D01*
X33828282Y-8398193D01*
X33934775Y-8412025D01*
X34023774Y-8430387D01*
X34101950Y-8454137D01*
X34175974Y-8484134D01*
X34249711Y-8519804D01*
X34416794Y-8631752D01*
X34565355Y-8783508D01*
X34688722Y-8965429D01*
X34780224Y-9167872D01*
X34829521Y-9357885D01*
X34846978Y-9591758D01*
X34823112Y-9822771D01*
X34761455Y-10043929D01*
X34665537Y-10248238D01*
X34538889Y-10428704D01*
X34385044Y-10578333D01*
X34207531Y-10690131D01*
X34142743Y-10718155D01*
X34071449Y-10747403D01*
X34020897Y-10771433D01*
X34009099Y-10778879D01*
X34006858Y-10810574D01*
X34021511Y-10877247D01*
X34049156Y-10967471D01*
X34085892Y-11069822D01*
X34127818Y-11172872D01*
X34171033Y-11265194D01*
X34182675Y-11287278D01*
X34282278Y-11442408D01*
X34388967Y-11550448D01*
X34508339Y-11615135D01*
X34645992Y-11640207D01*
X34710557Y-11639827D01*
X34796950Y-11636805D01*
X34845006Y-11641542D01*
X34867077Y-11657754D01*
X34875517Y-11689156D01*
X34875561Y-11689469D01*
X34860573Y-11742385D01*
X34806414Y-11783277D01*
X34723960Y-11809137D01*
X34624087Y-11816960D01*
X34517667Y-11803739D01*
X34489384Y-11796220D01*
X34358308Y-11738468D01*
X34240159Y-11645746D01*
X34132121Y-11514399D01*
X34031381Y-11340774D01*
X33935124Y-11121215D01*
X33902477Y-11034235D01*
X33824205Y-10818119D01*
X33697438Y-10805406D01*
X33620388Y-10794433D01*
X33580559Y-10776718D01*
X33564326Y-10744925D01*
X33562161Y-10732553D01*
X33563013Y-10680017D01*
X33588134Y-10645358D01*
X33644810Y-10625252D01*
X33740327Y-10616370D01*
X33819511Y-10615044D01*
X33936779Y-10611927D01*
X34024128Y-10600217D01*
X34102300Y-10575714D01*
X34173620Y-10543368D01*
X34341001Y-10433647D01*
X34480736Y-10285565D01*
X34589291Y-10105535D01*
X34663131Y-9899966D01*
X34698721Y-9675271D01*
X34701480Y-9586000D01*
X34679441Y-9344296D01*
X34615472Y-9130955D01*
X34509931Y-8946568D01*
X34363176Y-8791725D01*
X34175564Y-8667017D01*
X34132340Y-8645347D01*
X34032687Y-8602322D01*
X33937192Y-8573323D01*
X33826774Y-8553705D01*
X33701664Y-8540471D01*
X33588169Y-8532261D01*
X33490471Y-8528296D01*
X33421746Y-8528948D01*
X33399049Y-8531959D01*
X33390034Y-8537190D01*
X33382321Y-8549239D01*
X33375811Y-8571801D01*
X33370400Y-8608571D01*
X33365990Y-8663244D01*
X33362477Y-8739517D01*
X33359762Y-8841084D01*
X33357743Y-8971641D01*
X33356319Y-9134884D01*
X33355390Y-9334508D01*
X33354853Y-9574207D01*
X33354609Y-9857679D01*
X33354554Y-10158771D01*
X33354554Y-11771572D01*
X32337537Y-11771572D01*
X32337537Y-8359536D01*
X33093944Y-8370976D01*
G37*
G36*
X26633655Y-50157608D02*
G01*
X26637014Y-50209663D01*
X26633655Y-50221172D01*
X26624375Y-50224366D01*
X26620831Y-50189390D01*
X26624827Y-50153295D01*
X26633655Y-50157608D01*
G37*
G36*
X21726548Y-156283334D02*
G01*
X21729906Y-156335388D01*
X21726548Y-156346897D01*
X21717268Y-156350091D01*
X21713724Y-156315116D01*
X21717720Y-156279021D01*
X21726548Y-156283334D01*
G37*
G36*
X24244195Y-121477515D02*
G01*
X24247226Y-121517252D01*
X24242188Y-121526247D01*
X24230632Y-121518665D01*
X24228834Y-121492877D01*
X24235043Y-121465747D01*
X24244195Y-121477515D01*
G37*
G36*
X30549282Y-150907975D02*
G01*
X30545792Y-150923090D01*
X30532332Y-150924925D01*
X30511404Y-150915623D01*
X30515382Y-150907975D01*
X30545556Y-150904932D01*
X30549282Y-150907975D01*
G37*
G36*
X30574596Y-99177828D02*
G01*
X30577954Y-99229883D01*
X30574596Y-99241392D01*
X30565316Y-99244586D01*
X30561772Y-99209610D01*
X30565768Y-99173515D01*
X30574596Y-99177828D01*
G37*
G36*
X26684618Y-150907975D02*
G01*
X26681128Y-150923090D01*
X26667667Y-150924925D01*
X26646739Y-150915623D01*
X26650717Y-150907975D01*
X26680891Y-150904932D01*
X26684618Y-150907975D01*
G37*
G36*
X25498660Y-147346297D02*
G01*
X25444669Y-147458596D01*
X25372651Y-147607959D01*
X25286800Y-147785713D01*
X25191308Y-147983183D01*
X25090371Y-148191694D01*
X24988182Y-148402572D01*
X24930148Y-148522223D01*
X24535384Y-149335836D01*
X25004028Y-149342754D01*
X25472672Y-149349671D01*
X25472672Y-149628229D01*
X24786186Y-149628229D01*
X24605315Y-149627494D01*
X24442295Y-149625421D01*
X24303676Y-149622209D01*
X24196009Y-149618054D01*
X24125845Y-149613155D01*
X24099735Y-149607710D01*
X24099700Y-149607498D01*
X24110496Y-149581226D01*
X24141481Y-149513666D01*
X24190547Y-149409232D01*
X24255588Y-149272339D01*
X24334496Y-149107400D01*
X24425165Y-148918831D01*
X24525487Y-148711045D01*
X24633357Y-148488457D01*
X24659059Y-148435537D01*
X24768282Y-148210544D01*
X24870457Y-147999684D01*
X24963483Y-147807323D01*
X25045256Y-147637824D01*
X25113676Y-147495554D01*
X25166641Y-147384875D01*
X25202048Y-147310153D01*
X25217797Y-147275752D01*
X25218418Y-147273986D01*
X25194330Y-147270689D01*
X25127415Y-147267827D01*
X25025696Y-147265582D01*
X24897196Y-147264135D01*
X24760761Y-147263664D01*
X24303103Y-147263664D01*
X24303103Y-146983984D01*
X25672407Y-146983984D01*
X25498660Y-147346297D01*
G37*
G36*
X28622156Y-202424885D02*
G01*
X28679483Y-202141920D01*
X28772764Y-201879669D01*
X28899961Y-201642784D01*
X29059034Y-201435919D01*
X29247944Y-201263729D01*
X29455388Y-201135414D01*
X29556556Y-201086918D01*
X29636103Y-201055381D01*
X29711868Y-201036423D01*
X29801691Y-201025666D01*
X29923412Y-201018732D01*
X29932410Y-201018329D01*
X30069025Y-201014496D01*
X30173381Y-201018282D01*
X30263727Y-201031426D01*
X30358316Y-201055664D01*
X30374016Y-201060369D01*
X30603232Y-201155585D01*
X30806097Y-201292436D01*
X30980919Y-201468086D01*
X31126009Y-201679700D01*
X31239674Y-201924442D01*
X31320224Y-202199476D01*
X31365969Y-202501966D01*
X31376417Y-202741505D01*
X31357823Y-203059247D01*
X31302641Y-203354136D01*
X31212784Y-203622830D01*
X31090164Y-203861988D01*
X30936695Y-204068269D01*
X30754291Y-204238331D01*
X30544864Y-204368834D01*
X30412555Y-204424802D01*
X30268691Y-204461771D01*
X30099338Y-204483280D01*
X29924228Y-204488454D01*
X29763092Y-204476421D01*
X29670528Y-204457672D01*
X29458410Y-204376352D01*
X29266224Y-204254925D01*
X29121557Y-204126280D01*
X28941202Y-203908795D01*
X28798208Y-203657580D01*
X28693253Y-203374122D01*
X28627014Y-203059907D01*
X28623520Y-203034335D01*
X28603940Y-202740670D01*
X29794995Y-202740670D01*
X29795301Y-203016326D01*
X29796182Y-203276851D01*
X29797585Y-203517804D01*
X29799456Y-203734742D01*
X29801740Y-203923222D01*
X29804382Y-204078802D01*
X29807329Y-204197041D01*
X29810527Y-204273495D01*
X29813922Y-204303723D01*
X29814064Y-204303911D01*
X29846403Y-204311492D01*
X29916975Y-204315413D01*
X30013260Y-204315194D01*
X30064548Y-204313495D01*
X30187696Y-204305691D01*
X30280498Y-204291492D01*
X30363432Y-204266069D01*
X30456980Y-204224595D01*
X30471355Y-204217592D01*
X30662619Y-204096424D01*
X30834128Y-203932627D01*
X30981588Y-203732017D01*
X31100706Y-203500409D01*
X31185419Y-203250451D01*
X31210037Y-203115118D01*
X31224873Y-202946012D01*
X31229937Y-202759262D01*
X31225240Y-202570993D01*
X31210791Y-202397333D01*
X31186603Y-202254409D01*
X31184764Y-202246849D01*
X31111008Y-202022433D01*
X31007053Y-201809741D01*
X30879249Y-201617971D01*
X30733951Y-201456320D01*
X30577511Y-201333984D01*
X30538547Y-201311242D01*
X30384950Y-201242771D01*
X30219551Y-201194569D01*
X30057376Y-201169476D01*
X29913447Y-201170329D01*
X29852202Y-201181591D01*
X29794995Y-201196922D01*
X29794995Y-202740670D01*
X28603940Y-202740670D01*
X28602822Y-202723907D01*
X28622156Y-202424885D01*
G37*
G36*
X26897732Y-51583971D02*
G01*
X26939716Y-51638837D01*
X26982515Y-51699530D01*
X27082108Y-51825974D01*
X27208003Y-51959611D01*
X27343113Y-52083621D01*
X27470350Y-52181186D01*
X27474925Y-52184228D01*
X27548510Y-52235186D01*
X27580932Y-52264203D01*
X27575383Y-52274207D01*
X27573067Y-52274275D01*
X27549294Y-52260312D01*
X27495790Y-52223486D01*
X27423545Y-52171390D01*
X27414158Y-52164488D01*
X27314958Y-52083390D01*
X27205492Y-51981111D01*
X27097316Y-51869740D01*
X27001982Y-51761368D01*
X26931044Y-51668085D01*
X26914128Y-51641255D01*
X26882596Y-51583184D01*
X26877911Y-51564755D01*
X26897732Y-51583971D01*
G37*
G36*
X26991312Y-150833288D02*
G01*
X26983729Y-150844844D01*
X26957941Y-150846642D01*
X26930811Y-150840432D01*
X26942580Y-150831281D01*
X26982317Y-150828250D01*
X26991312Y-150833288D01*
G37*
G36*
X35288987Y-10604767D02*
G01*
X35250471Y-10401035D01*
X35232681Y-10173571D01*
X35230411Y-10055356D01*
X35235220Y-9834683D01*
X35254117Y-9647903D01*
X35290395Y-9479214D01*
X35347350Y-9312817D01*
X35418627Y-9152753D01*
X35552544Y-8928354D01*
X35720562Y-8733450D01*
X35916516Y-8571739D01*
X36134240Y-8446918D01*
X36367569Y-8362685D01*
X36610337Y-8322739D01*
X36799700Y-8324475D01*
X37064583Y-8370971D01*
X37304612Y-8461627D01*
X37518589Y-8595592D01*
X37705318Y-8772014D01*
X37863601Y-8990043D01*
X37943379Y-9138302D01*
X38029730Y-9340774D01*
X38088577Y-9536906D01*
X38123441Y-9743234D01*
X38137844Y-9976291D01*
X38138703Y-10055356D01*
X38124470Y-10351373D01*
X38078931Y-10617216D01*
X37999016Y-10865004D01*
X37881656Y-11106853D01*
X37864977Y-11135936D01*
X37788199Y-11246062D01*
X37684868Y-11364883D01*
X37568224Y-11479409D01*
X37451504Y-11576653D01*
X37347945Y-11643628D01*
X37347056Y-11644083D01*
X37110113Y-11741270D01*
X36864041Y-11798381D01*
X36619797Y-11813801D01*
X36388336Y-11785915D01*
X36386858Y-11785579D01*
X36162490Y-11709534D01*
X35949025Y-11589141D01*
X35754245Y-11430807D01*
X35585933Y-11240940D01*
X35451873Y-11025947D01*
X35443328Y-11008809D01*
X35360309Y-10820530D01*
X36486343Y-10820530D01*
X36486621Y-11038244D01*
X36487288Y-11227671D01*
X36488327Y-11384313D01*
X36489723Y-11503674D01*
X36491459Y-11581255D01*
X36493521Y-11612559D01*
X36493558Y-11612663D01*
X36525089Y-11630961D01*
X36594223Y-11641321D01*
X36688349Y-11643840D01*
X36794858Y-11638617D01*
X36901141Y-11625749D01*
X36981837Y-11608886D01*
X37208285Y-11522922D01*
X37412625Y-11393296D01*
X37591658Y-11223550D01*
X37742186Y-11017226D01*
X37861012Y-10777864D01*
X37933796Y-10554601D01*
X37959435Y-10418350D01*
X37977019Y-10250825D01*
X37985740Y-10071083D01*
X37984791Y-9898181D01*
X37973364Y-9751176D01*
X37969066Y-9722418D01*
X37903934Y-9457631D01*
X37803896Y-9217412D01*
X37672795Y-9005416D01*
X37514471Y-8825298D01*
X37332765Y-8680713D01*
X37131520Y-8575317D01*
X36914577Y-8512765D01*
X36685776Y-8496713D01*
X36681149Y-8496890D01*
X36494594Y-8504405D01*
X36488000Y-10042643D01*
X36487016Y-10318232D01*
X36486470Y-10579027D01*
X36486343Y-10820530D01*
X35360309Y-10820530D01*
X35352011Y-10801711D01*
X35288987Y-10604767D01*
G37*
G36*
X32617217Y-124673174D02*
G01*
X32604504Y-124685886D01*
X32591792Y-124673174D01*
X32604504Y-124660461D01*
X32617217Y-124673174D01*
G37*
G36*
X26939370Y-98463271D02*
G01*
X26934634Y-98472273D01*
X26910678Y-98496554D01*
X26906208Y-98497698D01*
X26904473Y-98481275D01*
X26909209Y-98472273D01*
X26933165Y-98447991D01*
X26937636Y-98446847D01*
X26939370Y-98463271D01*
G37*
G36*
X28701702Y-11771572D02*
G01*
X27684684Y-11771572D01*
X27684684Y-8364565D01*
X28701702Y-8364565D01*
X28701702Y-11771572D01*
G37*
G36*
X27907453Y-150678627D02*
G01*
X27913397Y-150685500D01*
X27876884Y-150689356D01*
X27849950Y-150689685D01*
X27800711Y-150687181D01*
X27793241Y-150681439D01*
X27805752Y-150678114D01*
X27872001Y-150674021D01*
X27907453Y-150678627D01*
G37*
G36*
X32913847Y-123906173D02*
G01*
X32916890Y-123936347D01*
X32913847Y-123940074D01*
X32898732Y-123936584D01*
X32896897Y-123923124D01*
X32906199Y-123902196D01*
X32913847Y-123906173D01*
G37*
G36*
X30968210Y-151040065D02*
G01*
X30989990Y-151052052D01*
X31010341Y-151072199D01*
X31002703Y-151076699D01*
X30960919Y-151064040D01*
X30939139Y-151052052D01*
X30918788Y-151031906D01*
X30926426Y-151027406D01*
X30968210Y-151040065D01*
G37*
G36*
X27360510Y-164536115D02*
G01*
X27363704Y-164545395D01*
X27328729Y-164548939D01*
X27292634Y-164544943D01*
X27296947Y-164536115D01*
X27349001Y-164532756D01*
X27360510Y-164536115D01*
G37*
G36*
X27372693Y-118288743D02*
G01*
X27365111Y-118300299D01*
X27339322Y-118302097D01*
X27312193Y-118295888D01*
X27323961Y-118286736D01*
X27363698Y-118283705D01*
X27372693Y-118288743D01*
G37*
G36*
X21625951Y-156995246D02*
G01*
X21630158Y-157069335D01*
X21625951Y-157109660D01*
X21619664Y-157121709D01*
X21615674Y-157089765D01*
X21614933Y-157052453D01*
X21616916Y-156997462D01*
X21621987Y-156982366D01*
X21625951Y-156995246D01*
G37*
G36*
X24951451Y-151675436D02*
G01*
X24890238Y-151718654D01*
X24849750Y-151741805D01*
X24798899Y-151766770D01*
X24849750Y-151725366D01*
X24910963Y-151682148D01*
X24951451Y-151658997D01*
X25002302Y-151634032D01*
X24951451Y-151675436D01*
G37*
G36*
X27691525Y-150704844D02*
G01*
X27692370Y-150713191D01*
X27652568Y-150716600D01*
X27646546Y-150716565D01*
X27607113Y-150712899D01*
X27610877Y-150705160D01*
X27615248Y-150703902D01*
X27670633Y-150700180D01*
X27691525Y-150704844D01*
G37*
G36*
X26633655Y-99177828D02*
G01*
X26637014Y-99229883D01*
X26633655Y-99241392D01*
X26624375Y-99244586D01*
X26620831Y-99209610D01*
X26624827Y-99173515D01*
X26633655Y-99177828D01*
G37*
G36*
X24757076Y-124962225D02*
G01*
X24790004Y-125003988D01*
X24850796Y-125087665D01*
X24939593Y-125213441D01*
X24964164Y-125248588D01*
X25155249Y-125494510D01*
X25386944Y-125745645D01*
X25650782Y-125993886D01*
X25938296Y-126231130D01*
X26162497Y-126395663D01*
X26200544Y-126425557D01*
X26207892Y-126438897D01*
X26207793Y-126438907D01*
X26181208Y-126425917D01*
X26125047Y-126390438D01*
X26050902Y-126339833D01*
X26042527Y-126333929D01*
X25763359Y-126119743D01*
X25495282Y-125881783D01*
X25246710Y-125628873D01*
X25026058Y-125369841D01*
X24841741Y-125113511D01*
X24774233Y-125003704D01*
X24751866Y-124962192D01*
X24757076Y-124962225D01*
G37*
G36*
X32939691Y-123816655D02*
G01*
X32942722Y-123856391D01*
X32937683Y-123865387D01*
X32926127Y-123857804D01*
X32924329Y-123832016D01*
X32930539Y-123804886D01*
X32939691Y-123816655D01*
G37*
G36*
X24504704Y-120757658D02*
G01*
X24493030Y-120796711D01*
X24468368Y-120846647D01*
X24443070Y-120883684D01*
X24432048Y-120885522D01*
X24432032Y-120884785D01*
X24443706Y-120845732D01*
X24468368Y-120795796D01*
X24493666Y-120758759D01*
X24504688Y-120756921D01*
X24504704Y-120757658D01*
G37*
G36*
X30157307Y-164485264D02*
G01*
X30160501Y-164494544D01*
X30125525Y-164498088D01*
X30089431Y-164494092D01*
X30093744Y-164485264D01*
X30145798Y-164481906D01*
X30157307Y-164485264D01*
G37*
G36*
X35303837Y-159679747D02*
G01*
X35306880Y-159709921D01*
X35303837Y-159713647D01*
X35288722Y-159710157D01*
X35286887Y-159696697D01*
X35296189Y-159675769D01*
X35303837Y-159679747D01*
G37*
G36*
X29407554Y-164611760D02*
G01*
X29413497Y-164618633D01*
X29376985Y-164622489D01*
X29350050Y-164622818D01*
X29300811Y-164620314D01*
X29293341Y-164614572D01*
X29305852Y-164611247D01*
X29372101Y-164607154D01*
X29407554Y-164611760D01*
G37*
G36*
X29903053Y-164536115D02*
G01*
X29906247Y-164545395D01*
X29871271Y-164548939D01*
X29835176Y-164544943D01*
X29839489Y-164536115D01*
X29891544Y-164532756D01*
X29903053Y-164536115D01*
G37*
G36*
X24167389Y-121806457D02*
G01*
X24170747Y-121858512D01*
X24167389Y-121870020D01*
X24158109Y-121873214D01*
X24154565Y-121838239D01*
X24158561Y-121802144D01*
X24167389Y-121806457D01*
G37*
G36*
X23870871Y-147263664D02*
G01*
X22879279Y-147263664D01*
X22879279Y-147619620D01*
X23896296Y-147619620D01*
X23896296Y-147899300D01*
X22873389Y-147899300D01*
X22883285Y-148237928D01*
X22888025Y-148377750D01*
X22894252Y-148479283D01*
X22904283Y-148555079D01*
X22920431Y-148617693D01*
X22945011Y-148679679D01*
X22977183Y-148747190D01*
X23090885Y-148928945D01*
X23237060Y-149085762D01*
X23406862Y-149210952D01*
X23591447Y-149297823D01*
X23756989Y-149337003D01*
X23896296Y-149354408D01*
X23896296Y-149628229D01*
X23788238Y-149627572D01*
X23706139Y-149618664D01*
X23601718Y-149596173D01*
X23514328Y-149570365D01*
X23283424Y-149467237D01*
X23077972Y-149322604D01*
X22949901Y-149198828D01*
X22819061Y-149039968D01*
X22722423Y-148879437D01*
X22656270Y-148706632D01*
X22616889Y-148510947D01*
X22600562Y-148281778D01*
X22599599Y-148199063D01*
X22599599Y-147899300D01*
X22421621Y-147899300D01*
X22421621Y-147761071D01*
X22422973Y-147681573D01*
X22432047Y-147639602D01*
X22456374Y-147621835D01*
X22503486Y-147614949D01*
X22504254Y-147614875D01*
X22586887Y-147606907D01*
X22594026Y-147295446D01*
X22601165Y-146983984D01*
X23870871Y-146983984D01*
X23870871Y-147263664D01*
G37*
G36*
X24370904Y-121058526D02*
G01*
X24373947Y-121088700D01*
X24370904Y-121092426D01*
X24355789Y-121088936D01*
X24353954Y-121075476D01*
X24363257Y-121054548D01*
X24370904Y-121058526D01*
G37*
G36*
X22421621Y-154370070D02*
G01*
X22408909Y-154382783D01*
X22396196Y-154370070D01*
X22408909Y-154357358D01*
X22421621Y-154370070D01*
G37*
G36*
X29203324Y-48623078D02*
G01*
X29195741Y-48634634D01*
X29169953Y-48636432D01*
X29142823Y-48630222D01*
X29154592Y-48621070D01*
X29194329Y-48618039D01*
X29203324Y-48623078D01*
G37*
G36*
X31034484Y-136414532D02*
G01*
X31271277Y-136437709D01*
X31502008Y-136480911D01*
X31711923Y-136540713D01*
X31881719Y-136611349D01*
X31981581Y-136662295D01*
X31981581Y-136407007D01*
X32591792Y-136407007D01*
X32591792Y-140119120D01*
X31981581Y-140119120D01*
X31981581Y-137402003D01*
X31872890Y-137312939D01*
X31795493Y-137257547D01*
X31698077Y-137198997D01*
X31594156Y-137144148D01*
X31497246Y-137099861D01*
X31420863Y-137072994D01*
X31390440Y-137068089D01*
X31381195Y-137070404D01*
X31373323Y-137079869D01*
X31366714Y-137100251D01*
X31361259Y-137135316D01*
X31356848Y-137188828D01*
X31353370Y-137264555D01*
X31350717Y-137366262D01*
X31348778Y-137497715D01*
X31347444Y-137662681D01*
X31346604Y-137864925D01*
X31346148Y-138108213D01*
X31345968Y-138396312D01*
X31345946Y-138593594D01*
X31345946Y-140119120D01*
X30735736Y-140119120D01*
X30735736Y-136399244D01*
X31034484Y-136414532D01*
G37*
G36*
X27550671Y-126984239D02*
G01*
X27543088Y-126995795D01*
X27517300Y-126997593D01*
X27490171Y-126991383D01*
X27501939Y-126982232D01*
X27541676Y-126979200D01*
X27550671Y-126984239D01*
G37*
G36*
X32819842Y-124215516D02*
G01*
X32807182Y-124257299D01*
X32795195Y-124279079D01*
X32775049Y-124299431D01*
X32770548Y-124291792D01*
X32783208Y-124250009D01*
X32795195Y-124228229D01*
X32815341Y-124207878D01*
X32819842Y-124215516D01*
G37*
G36*
X27493753Y-97896232D02*
G01*
X27468568Y-97915360D01*
X27421151Y-97955143D01*
X27348240Y-98022134D01*
X27259729Y-98107021D01*
X27165510Y-98200495D01*
X27164417Y-98201599D01*
X27085037Y-98280276D01*
X27025830Y-98335984D01*
X26991451Y-98364599D01*
X26986554Y-98361997D01*
X26991033Y-98355208D01*
X27038815Y-98297474D01*
X27111269Y-98220730D01*
X27198277Y-98134532D01*
X27289718Y-98048439D01*
X27375475Y-97972007D01*
X27445428Y-97914793D01*
X27485656Y-97888039D01*
X27511214Y-97878651D01*
X27493753Y-97896232D01*
G37*
G36*
X29888221Y-126931799D02*
G01*
X29884731Y-126946914D01*
X29871271Y-126948749D01*
X29850343Y-126939446D01*
X29854321Y-126931799D01*
X29884495Y-126928756D01*
X29888221Y-126931799D01*
G37*
G36*
X28160882Y-101507963D02*
G01*
X28153299Y-101519519D01*
X28127511Y-101521316D01*
X28100381Y-101515107D01*
X28112149Y-101505955D01*
X28151886Y-101502924D01*
X28160882Y-101507963D01*
G37*
G36*
X29318268Y-118160139D02*
G01*
X29321462Y-118169419D01*
X29286486Y-118172963D01*
X29250392Y-118168967D01*
X29254705Y-118160139D01*
X29306759Y-118156780D01*
X29318268Y-118160139D01*
G37*
G36*
X32668068Y-120655956D02*
G01*
X32655355Y-120668669D01*
X32642642Y-120655956D01*
X32655355Y-120643244D01*
X32668068Y-120655956D01*
G37*
G36*
X21803354Y-159310548D02*
G01*
X21806385Y-159350285D01*
X21801347Y-159359281D01*
X21789791Y-159351698D01*
X21787993Y-159325910D01*
X21794202Y-159298780D01*
X21803354Y-159310548D01*
G37*
G36*
X34041041Y-149348549D02*
G01*
X34880080Y-149348549D01*
X34880080Y-149628229D01*
X33735936Y-149628229D01*
X33735936Y-146983984D01*
X34041041Y-146983984D01*
X34041041Y-149348549D01*
G37*
G36*
X24541251Y-8276540D02*
G01*
X24571869Y-8343824D01*
X24618290Y-8448002D01*
X24678357Y-8584172D01*
X24749912Y-8747430D01*
X24830794Y-8932874D01*
X24918847Y-9135600D01*
X24967926Y-9248935D01*
X25058943Y-9458185D01*
X25144236Y-9652074D01*
X25221625Y-9825804D01*
X25288927Y-9974576D01*
X25343961Y-10093594D01*
X25384546Y-10178059D01*
X25408500Y-10223174D01*
X25413766Y-10229482D01*
X25427526Y-10205972D01*
X25458677Y-10140351D01*
X25505095Y-10037466D01*
X25564656Y-9902165D01*
X25635238Y-9739296D01*
X25714718Y-9553705D01*
X25800973Y-9350240D01*
X25852382Y-9228063D01*
X25960256Y-8972179D01*
X26050500Y-8760839D01*
X26124353Y-8591366D01*
X26183052Y-8461080D01*
X26227834Y-8367305D01*
X26259935Y-8307363D01*
X26280594Y-8278575D01*
X26291047Y-8278265D01*
X26291131Y-8278461D01*
X26301426Y-8310456D01*
X26324591Y-8387218D01*
X26359429Y-8504649D01*
X26404740Y-8658648D01*
X26459327Y-8845118D01*
X26521990Y-9059959D01*
X26591532Y-9299072D01*
X26666754Y-9558359D01*
X26746457Y-9833721D01*
X26795803Y-10004505D01*
X26877494Y-10287400D01*
X26955241Y-10556604D01*
X27027863Y-10808028D01*
X27094179Y-11037583D01*
X27153006Y-11241182D01*
X27203165Y-11414737D01*
X27243473Y-11554158D01*
X27272750Y-11655360D01*
X27289813Y-11714252D01*
X27293701Y-11727589D01*
X27295276Y-11742474D01*
X27285838Y-11753522D01*
X27259230Y-11761178D01*
X27209296Y-11765890D01*
X27129879Y-11768105D01*
X27014822Y-11768269D01*
X26857970Y-11766829D01*
X26768183Y-11765727D01*
X26229312Y-11758859D01*
X25986264Y-10862613D01*
X25930452Y-10658278D01*
X25878339Y-10470304D01*
X25831493Y-10304134D01*
X25791482Y-10165213D01*
X25759875Y-10058983D01*
X25738239Y-9990889D01*
X25728144Y-9966375D01*
X25728076Y-9966367D01*
X25715557Y-9989138D01*
X25686354Y-10054051D01*
X25642602Y-10156011D01*
X25586436Y-10289917D01*
X25519989Y-10450674D01*
X25445397Y-10633183D01*
X25364793Y-10832346D01*
X25347496Y-10875326D01*
X25265632Y-11078734D01*
X25189346Y-11267871D01*
X25120799Y-11437412D01*
X25062151Y-11582033D01*
X25015561Y-11696410D01*
X24983189Y-11775220D01*
X24967194Y-11813139D01*
X24966207Y-11815238D01*
X24951485Y-11802364D01*
X24918950Y-11749248D01*
X24871812Y-11661949D01*
X24813281Y-11546527D01*
X24746565Y-11409042D01*
X24710318Y-11332155D01*
X24581421Y-11056448D01*
X24472340Y-10823888D01*
X24381606Y-10631442D01*
X24307752Y-10476076D01*
X24249307Y-10354756D01*
X24204806Y-10264447D01*
X24172778Y-10202114D01*
X24151757Y-10164725D01*
X24140273Y-10149245D01*
X24137672Y-10148748D01*
X24128176Y-10175302D01*
X24107421Y-10243872D01*
X24077439Y-10347392D01*
X24040263Y-10478796D01*
X23997922Y-10631017D01*
X23974114Y-10717606D01*
X23902002Y-10980230D01*
X23841554Y-11197781D01*
X23791199Y-11374285D01*
X23749370Y-11513767D01*
X23714497Y-11620254D01*
X23685012Y-11697772D01*
X23659344Y-11750346D01*
X23635926Y-11782003D01*
X23613188Y-11796768D01*
X23589561Y-11798667D01*
X23563476Y-11791727D01*
X23556509Y-11789129D01*
X23528380Y-11766963D01*
X23518208Y-11724578D01*
X23526882Y-11655766D01*
X23555290Y-11554320D01*
X23604319Y-11414032D01*
X23613829Y-11388389D01*
X23638983Y-11314641D01*
X23675997Y-11197244D01*
X23723290Y-11041591D01*
X23779284Y-10853075D01*
X23842399Y-10637089D01*
X23911057Y-10399029D01*
X23983677Y-10144285D01*
X24058682Y-9878253D01*
X24113929Y-9680397D01*
X24186624Y-9419975D01*
X24255528Y-9175107D01*
X24319415Y-8950017D01*
X24377059Y-8748930D01*
X24427235Y-8576070D01*
X24468718Y-8435661D01*
X24500281Y-8331928D01*
X24520700Y-8269096D01*
X24528597Y-8251053D01*
X24541251Y-8276540D01*
G37*
G36*
X21777929Y-156056094D02*
G01*
X21780960Y-156095831D01*
X21775922Y-156104826D01*
X21764365Y-156097243D01*
X21762568Y-156071455D01*
X21768777Y-156044325D01*
X21777929Y-156056094D01*
G37*
G36*
X21854205Y-159513952D02*
G01*
X21857236Y-159553689D01*
X21852198Y-159562684D01*
X21840642Y-159555101D01*
X21838844Y-159529313D01*
X21845053Y-159502183D01*
X21854205Y-159513952D01*
G37*
G36*
X29153003Y-127083775D02*
G01*
X29160916Y-127091145D01*
X29125759Y-127095157D01*
X29108508Y-127095403D01*
X29062251Y-127092752D01*
X29056800Y-127086152D01*
X29064014Y-127083775D01*
X29128498Y-127079821D01*
X29153003Y-127083775D01*
G37*
G36*
X21854205Y-155750989D02*
G01*
X21857236Y-155790726D01*
X21852198Y-155799721D01*
X21840642Y-155792138D01*
X21838844Y-155766350D01*
X21845053Y-155739220D01*
X21854205Y-155750989D01*
G37*
G36*
X22031765Y-155204872D02*
G01*
X22034808Y-155235046D01*
X22031765Y-155238773D01*
X22016650Y-155235282D01*
X22014815Y-155221822D01*
X22024117Y-155200894D01*
X22031765Y-155204872D01*
G37*
G36*
X21625951Y-158190241D02*
G01*
X21630158Y-158264330D01*
X21625951Y-158304655D01*
X21619664Y-158316704D01*
X21615674Y-158284760D01*
X21614933Y-158247448D01*
X21616916Y-158192457D01*
X21621987Y-158177361D01*
X21625951Y-158190241D01*
G37*
G36*
X25213956Y-163783712D02*
G01*
X25269961Y-163808331D01*
X25350678Y-163845880D01*
X25445779Y-163891342D01*
X25544934Y-163939700D01*
X25637815Y-163985936D01*
X25714092Y-164025033D01*
X25763438Y-164051975D01*
X25775659Y-164060065D01*
X25779503Y-164071743D01*
X25740668Y-164059555D01*
X25660960Y-164024269D01*
X25542186Y-163966653D01*
X25466316Y-163928495D01*
X25360822Y-163873950D01*
X25274242Y-163827300D01*
X25215372Y-163793420D01*
X25193008Y-163777183D01*
X25192993Y-163777040D01*
X25213956Y-163783712D01*
G37*
G36*
X30271192Y-150833288D02*
G01*
X30263609Y-150844844D01*
X30237821Y-150846642D01*
X30210691Y-150840432D01*
X30222460Y-150831281D01*
X30262197Y-150828250D01*
X30271192Y-150833288D01*
G37*
G36*
X36609009Y-149246847D02*
G01*
X36329329Y-149246847D01*
X36329329Y-146983984D01*
X36609009Y-146983984D01*
X36609009Y-149246847D01*
G37*
G36*
X30271192Y-164461316D02*
G01*
X30263609Y-164472872D01*
X30237821Y-164474670D01*
X30210691Y-164468460D01*
X30222460Y-164459309D01*
X30262197Y-164456278D01*
X30271192Y-164461316D01*
G37*
G36*
X24760761Y-13285031D02*
G01*
X24900102Y-13287051D01*
X25003195Y-13293697D01*
X25084571Y-13306929D01*
X25158763Y-13328703D01*
X25199559Y-13344144D01*
X25316580Y-13401450D01*
X25414281Y-13469361D01*
X25484222Y-13540260D01*
X25517961Y-13606532D01*
X25519132Y-13632483D01*
X25493847Y-13685461D01*
X25442239Y-13699067D01*
X25369730Y-13673657D01*
X25290901Y-13617567D01*
X25139537Y-13520546D01*
X24958007Y-13460178D01*
X24765148Y-13439128D01*
X24674738Y-13439942D01*
X24617329Y-13449531D01*
X24575143Y-13474008D01*
X24530401Y-13519482D01*
X24529963Y-13519971D01*
X24486077Y-13578125D01*
X24462116Y-13636925D01*
X24460401Y-13700794D01*
X24483255Y-13774158D01*
X24533002Y-13861440D01*
X24611962Y-13967065D01*
X24722460Y-14095459D01*
X24866817Y-14251044D01*
X24970413Y-14359043D01*
X25166806Y-14565978D01*
X25327767Y-14745610D01*
X25456549Y-14903641D01*
X25556405Y-15045771D01*
X25630591Y-15177699D01*
X25682359Y-15305126D01*
X25714965Y-15433753D01*
X25731661Y-15569280D01*
X25735778Y-15699800D01*
X25732849Y-15837757D01*
X25722730Y-15941792D01*
X25703057Y-16028602D01*
X25680041Y-16093894D01*
X25572902Y-16299555D01*
X25429022Y-16470095D01*
X25248912Y-16605011D01*
X25080970Y-16686223D01*
X24955614Y-16720264D01*
X24798502Y-16741251D01*
X24627151Y-16748692D01*
X24459078Y-16742097D01*
X24311803Y-16720977D01*
X24264965Y-16709050D01*
X24121098Y-16657328D01*
X23987559Y-16592950D01*
X23872523Y-16521499D01*
X23784167Y-16448565D01*
X23730666Y-16379731D01*
X23718318Y-16335565D01*
X23731425Y-16259336D01*
X23770171Y-16226537D01*
X23833692Y-16237196D01*
X23921123Y-16291343D01*
X23964670Y-16326977D01*
X24111419Y-16437467D01*
X24260096Y-16511391D01*
X24426062Y-16554587D01*
X24610130Y-16572331D01*
X24731216Y-16575735D01*
X24816200Y-16572684D01*
X24879617Y-16561390D01*
X24936003Y-16540065D01*
X24957326Y-16529615D01*
X25075015Y-16447316D01*
X25145961Y-16345778D01*
X25169265Y-16227608D01*
X25144027Y-16095412D01*
X25123831Y-16046886D01*
X25094481Y-16004711D01*
X25033595Y-15932430D01*
X24946099Y-15835380D01*
X24836921Y-15718897D01*
X24710986Y-15588320D01*
X24573222Y-15448986D01*
X24557035Y-15432833D01*
X24390440Y-15265581D01*
X24256917Y-15128462D01*
X24152373Y-15016897D01*
X24072719Y-14926309D01*
X24013865Y-14852120D01*
X23971720Y-14789750D01*
X23953216Y-14756988D01*
X23856784Y-14529503D01*
X23805613Y-14307263D01*
X23798584Y-14094582D01*
X23834583Y-13895776D01*
X23912493Y-13715158D01*
X24031197Y-13557042D01*
X24189580Y-13425743D01*
X24315816Y-13355633D01*
X24387261Y-13324263D01*
X24450214Y-13303748D01*
X24518753Y-13291854D01*
X24606953Y-13286347D01*
X24728890Y-13284995D01*
X24760761Y-13285031D01*
G37*
G36*
X30525775Y-16326529D02*
G01*
X30363819Y-16125728D01*
X30257927Y-15941342D01*
X30188955Y-15790651D01*
X30138072Y-15659004D01*
X30102690Y-15533540D01*
X30080220Y-15401397D01*
X30068074Y-15249712D01*
X30063665Y-15065623D01*
X30063498Y-14975176D01*
X30064499Y-14814789D01*
X30067465Y-14693872D01*
X30073657Y-14601046D01*
X30084336Y-14524935D01*
X30100760Y-14454162D01*
X30124191Y-14377349D01*
X30132499Y-14352253D01*
X30245791Y-14082091D01*
X30392628Y-13845286D01*
X30570188Y-13644680D01*
X30775649Y-13483114D01*
X31006189Y-13363429D01*
X31168160Y-13309437D01*
X31306693Y-13284657D01*
X31470429Y-13273720D01*
X31639315Y-13276535D01*
X31793297Y-13293012D01*
X31881621Y-13312669D01*
X32134057Y-13412281D01*
X32355026Y-13551739D01*
X32544247Y-13730726D01*
X32701442Y-13948924D01*
X32826329Y-14206014D01*
X32914789Y-14485966D01*
X32940393Y-14634094D01*
X32954858Y-14815599D01*
X32958380Y-15014286D01*
X32951156Y-15213961D01*
X32933383Y-15398429D01*
X32905256Y-15551495D01*
X32901699Y-15565128D01*
X32803563Y-15847136D01*
X32671698Y-16096293D01*
X32508510Y-16309988D01*
X32316408Y-16485609D01*
X32097798Y-16620546D01*
X31855089Y-16712187D01*
X31840412Y-16716095D01*
X31701201Y-16740405D01*
X31537371Y-16750874D01*
X31370016Y-16747482D01*
X31220230Y-16730206D01*
X31160119Y-16716797D01*
X30931386Y-16628476D01*
X30823787Y-16561972D01*
X31307808Y-16561972D01*
X31371371Y-16580324D01*
X31450432Y-16589906D01*
X31561299Y-16586638D01*
X31687085Y-16572325D01*
X31810904Y-16548774D01*
X31898916Y-16523905D01*
X32112857Y-16424005D01*
X32305410Y-16280759D01*
X32472979Y-16098459D01*
X32611967Y-15881398D01*
X32718779Y-15633865D01*
X32759932Y-15496397D01*
X32791358Y-15321618D01*
X32806470Y-15117266D01*
X32805491Y-14901854D01*
X32788641Y-14693896D01*
X32756141Y-14511905D01*
X32747788Y-14480273D01*
X32653233Y-14221474D01*
X32525509Y-13992680D01*
X32368046Y-13798383D01*
X32184270Y-13643072D01*
X32047302Y-13562653D01*
X31891492Y-13498790D01*
X31728016Y-13454365D01*
X31571897Y-13432212D01*
X31438155Y-13435165D01*
X31404571Y-13441386D01*
X31307808Y-13464270D01*
X31307808Y-16561972D01*
X30823787Y-16561972D01*
X30717451Y-16496249D01*
X30525775Y-16326529D01*
G37*
G36*
X35481703Y-156283334D02*
G01*
X35485062Y-156335388D01*
X35481703Y-156346897D01*
X35472423Y-156350091D01*
X35468879Y-156315116D01*
X35472875Y-156279021D01*
X35481703Y-156283334D01*
G37*
G36*
X27193126Y-118338005D02*
G01*
X27189636Y-118353120D01*
X27176176Y-118354955D01*
X27155248Y-118345653D01*
X27159226Y-118338005D01*
X27189400Y-118334962D01*
X27193126Y-118338005D01*
G37*
G36*
X30473006Y-100260528D02*
G01*
X30476049Y-100290702D01*
X30473006Y-100294428D01*
X30457891Y-100290938D01*
X30456056Y-100277478D01*
X30465359Y-100256550D01*
X30473006Y-100260528D01*
G37*
G36*
X31592682Y-8368505D02*
G01*
X31597633Y-8374185D01*
X31613964Y-8409976D01*
X31606306Y-8454777D01*
X31571345Y-8513119D01*
X31505765Y-8589535D01*
X31406250Y-8688559D01*
X31287014Y-8798870D01*
X31186245Y-8891631D01*
X31100188Y-8973578D01*
X31035404Y-9038246D01*
X30998451Y-9079171D01*
X30992364Y-9089238D01*
X30999986Y-9116731D01*
X31022418Y-9186773D01*
X31057780Y-9293880D01*
X31104191Y-9432567D01*
X31159772Y-9597350D01*
X31222644Y-9782743D01*
X31290925Y-9983263D01*
X31362737Y-10193425D01*
X31436198Y-10407744D01*
X31509430Y-10620735D01*
X31580553Y-10826914D01*
X31647686Y-11020797D01*
X31708950Y-11196898D01*
X31762464Y-11349733D01*
X31806350Y-11473818D01*
X31838726Y-11563667D01*
X31857514Y-11613310D01*
X31877599Y-11686054D01*
X31865652Y-11737769D01*
X31864032Y-11740437D01*
X31816562Y-11782052D01*
X31759670Y-11790632D01*
X31713405Y-11764442D01*
X31706750Y-11754046D01*
X31687157Y-11705472D01*
X31661017Y-11626819D01*
X31639823Y-11555456D01*
X31623268Y-11501450D01*
X31593286Y-11408621D01*
X31551821Y-11282688D01*
X31500817Y-11129372D01*
X31442217Y-10954395D01*
X31377966Y-10763476D01*
X31310006Y-10562336D01*
X31240281Y-10356696D01*
X31170735Y-10152276D01*
X31103312Y-9954798D01*
X31039955Y-9769981D01*
X30982608Y-9603547D01*
X30933214Y-9461215D01*
X30893718Y-9348708D01*
X30866062Y-9271745D01*
X30852190Y-9236047D01*
X30851194Y-9234311D01*
X30826550Y-9237311D01*
X30775156Y-9271794D01*
X30694537Y-9339699D01*
X30582215Y-9442962D01*
X30571215Y-9453348D01*
X30405205Y-9610359D01*
X30405205Y-11771572D01*
X29388188Y-11771572D01*
X29388188Y-8364565D01*
X30405205Y-8364565D01*
X30405205Y-8847648D01*
X30406481Y-9039317D01*
X30410361Y-9181614D01*
X30416928Y-9275956D01*
X30426261Y-9323760D01*
X30432715Y-9330731D01*
X30460874Y-9314018D01*
X30519296Y-9267719D01*
X30601689Y-9197593D01*
X30701759Y-9109401D01*
X30813213Y-9008901D01*
X30929756Y-8901854D01*
X31045095Y-8794020D01*
X31152937Y-8691157D01*
X31246988Y-8599026D01*
X31320954Y-8523387D01*
X31352461Y-8489013D01*
X31437150Y-8400369D01*
X31501509Y-8352567D01*
X31551399Y-8342860D01*
X31592682Y-8368505D01*
G37*
G36*
X26939370Y-49443051D02*
G01*
X26934634Y-49452052D01*
X26910678Y-49476334D01*
X26906208Y-49477478D01*
X26904473Y-49461054D01*
X26909209Y-49452052D01*
X26933165Y-49427771D01*
X26937636Y-49426627D01*
X26939370Y-49443051D01*
G37*
G36*
X35405957Y-159310548D02*
G01*
X35408988Y-159350285D01*
X35403950Y-159359281D01*
X35392393Y-159351698D01*
X35390596Y-159325910D01*
X35396805Y-159298780D01*
X35405957Y-159310548D01*
G37*
G36*
X22290658Y-160688574D02*
G01*
X22319547Y-160737303D01*
X22340219Y-160777836D01*
X22374464Y-160854709D01*
X22383341Y-160887929D01*
X22369372Y-160876361D01*
X22335082Y-160818871D01*
X22318663Y-160787527D01*
X22289043Y-160723837D01*
X22274812Y-160681680D01*
X22275212Y-160673670D01*
X22290658Y-160688574D01*
G37*
G36*
X30308420Y-100622918D02*
G01*
X30285872Y-100665057D01*
X30245722Y-100722969D01*
X30182427Y-100797809D01*
X30102438Y-100883580D01*
X30012207Y-100974288D01*
X29918186Y-101063938D01*
X29826825Y-101146534D01*
X29744576Y-101216081D01*
X29677891Y-101266584D01*
X29633221Y-101292049D01*
X29617017Y-101286598D01*
X29636318Y-101267724D01*
X29685703Y-101231200D01*
X29725075Y-101204448D01*
X29851658Y-101108258D01*
X29986781Y-100984964D01*
X30113357Y-100851388D01*
X30214298Y-100724347D01*
X30217485Y-100719750D01*
X30275567Y-100638156D01*
X30311183Y-100593939D01*
X30322684Y-100588420D01*
X30308420Y-100622918D01*
G37*
G36*
X34930931Y-160675576D02*
G01*
X34918218Y-160688289D01*
X34905505Y-160675576D01*
X34918218Y-160662863D01*
X34930931Y-160675576D01*
G37*
G36*
X30546491Y-164385069D02*
G01*
X30519619Y-164400401D01*
X30460306Y-164418573D01*
X30430630Y-164422252D01*
X30416472Y-164415733D01*
X30443343Y-164400401D01*
X30502656Y-164382228D01*
X30532332Y-164378549D01*
X30546491Y-164385069D01*
G37*
G36*
X24218770Y-121579217D02*
G01*
X24221801Y-121618954D01*
X24216762Y-121627949D01*
X24205206Y-121620366D01*
X24203408Y-121594578D01*
X24209618Y-121567449D01*
X24218770Y-121579217D01*
G37*
G36*
X37854855Y-16704105D02*
G01*
X36837838Y-16704105D01*
X36837838Y-13297097D01*
X37854855Y-13297097D01*
X37854855Y-16704105D01*
G37*
G36*
X22215035Y-166059410D02*
G01*
X22189689Y-166108453D01*
X22144049Y-166196049D01*
X22081492Y-166315747D01*
X22005394Y-166461093D01*
X21919133Y-166625636D01*
X21826084Y-166802923D01*
X21782286Y-166886306D01*
X21690216Y-167062269D01*
X21606260Y-167224128D01*
X21533242Y-167366323D01*
X21473990Y-167483295D01*
X21431330Y-167569484D01*
X21408087Y-167619331D01*
X21404604Y-167629224D01*
X21416054Y-167656097D01*
X21448808Y-167723286D01*
X21500476Y-167826115D01*
X21568665Y-167959909D01*
X21650984Y-168119991D01*
X21745042Y-168301685D01*
X21848447Y-168500316D01*
X21925826Y-168648296D01*
X22034270Y-168855549D01*
X22135077Y-169048668D01*
X22225863Y-169223051D01*
X22304247Y-169374101D01*
X22367843Y-169497218D01*
X22414270Y-169587803D01*
X22441143Y-169641256D01*
X22447047Y-169654158D01*
X22423258Y-169657777D01*
X22358389Y-169659710D01*
X22262188Y-169659840D01*
X22144400Y-169658049D01*
X22137382Y-169657890D01*
X21827718Y-169650751D01*
X21466865Y-168956216D01*
X21376821Y-168784430D01*
X21293552Y-168628472D01*
X21220068Y-168493753D01*
X21159380Y-168385683D01*
X21114497Y-168309673D01*
X21088430Y-168271135D01*
X21083686Y-168267446D01*
X21066771Y-168290592D01*
X21029550Y-168353370D01*
X20975076Y-168450246D01*
X20906400Y-168575682D01*
X20826572Y-168724141D01*
X20738645Y-168890087D01*
X20700917Y-168961981D01*
X20340473Y-169650751D01*
X20033500Y-169657890D01*
X19915357Y-169659389D01*
X19818295Y-169658245D01*
X19752101Y-169654742D01*
X19726564Y-169649167D01*
X19726526Y-169648916D01*
X19737922Y-169623722D01*
X19770527Y-169558095D01*
X19821971Y-169456657D01*
X19889881Y-169324026D01*
X19971887Y-169164823D01*
X20065617Y-168983669D01*
X20168700Y-168785182D01*
X20248945Y-168631132D01*
X20771363Y-167629463D01*
X20344290Y-166811657D01*
X20246159Y-166623603D01*
X20155496Y-166449589D01*
X20074994Y-166294802D01*
X20007345Y-166164432D01*
X19955241Y-166063667D01*
X19921374Y-165997693D01*
X19908475Y-165971799D01*
X19928806Y-165963963D01*
X19990630Y-165958522D01*
X20084625Y-165955932D01*
X20201467Y-165956646D01*
X20213580Y-165956906D01*
X20527427Y-165964064D01*
X20795569Y-166477985D01*
X20873042Y-166625910D01*
X20943017Y-166758451D01*
X21001978Y-166869036D01*
X21046408Y-166951092D01*
X21072792Y-166998046D01*
X21078243Y-167006439D01*
X21093446Y-166989018D01*
X21128329Y-166932297D01*
X21179519Y-166842299D01*
X21243641Y-166725048D01*
X21317320Y-166586568D01*
X21369461Y-166486627D01*
X21646146Y-165952284D01*
X22270102Y-165951352D01*
X22215035Y-166059410D01*
G37*
G04 #@! TD*
M02*
