G04 #@! TF.GenerationSoftware,KiCad,Pcbnew,6.0.7-f9a2dced07~116~ubuntu22.04.1*
G04 #@! TF.CreationDate,2022-09-02T22:22:42-04:00*
G04 #@! TF.ProjectId,mikrokosmos-ii,6d696b72-6f6b-46f7-936d-6f732d69692e,rev?*
G04 #@! TF.SameCoordinates,Original*
G04 #@! TF.FileFunction,Legend,Top*
G04 #@! TF.FilePolarity,Positive*
%FSLAX46Y46*%
G04 Gerber Fmt 4.6, Leading zero omitted, Abs format (unit mm)*
G04 Created by KiCad (PCBNEW 6.0.7-f9a2dced07~116~ubuntu22.04.1) date 2022-09-02 22:22:42*
%MOMM*%
%LPD*%
G01*
G04 APERTURE LIST*
%ADD10C,0.150000*%
%ADD11C,0.120000*%
G04 APERTURE END LIST*
D10*
G04 #@! TO.C,RV1*
X95513285Y-126274428D02*
X95156142Y-126524428D01*
X95513285Y-126703000D02*
X94763285Y-126703000D01*
X94763285Y-126417285D01*
X94799000Y-126345857D01*
X94834714Y-126310142D01*
X94906142Y-126274428D01*
X95013285Y-126274428D01*
X95084714Y-126310142D01*
X95120428Y-126345857D01*
X95156142Y-126417285D01*
X95156142Y-126703000D01*
X94763285Y-126060142D02*
X95513285Y-125810142D01*
X94763285Y-125560142D01*
X95513285Y-124917285D02*
X95513285Y-125345857D01*
X95513285Y-125131571D02*
X94763285Y-125131571D01*
X94870428Y-125203000D01*
X94941857Y-125274428D01*
X94977571Y-125345857D01*
X100125000Y-115839285D02*
X100125000Y-115482142D01*
X100339285Y-115910714D02*
X99589285Y-115660714D01*
X100339285Y-115410714D01*
X99589285Y-114803571D02*
X99589285Y-115160714D01*
X99946428Y-115196428D01*
X99910714Y-115160714D01*
X99875000Y-115089285D01*
X99875000Y-114910714D01*
X99910714Y-114839285D01*
X99946428Y-114803571D01*
X100017857Y-114767857D01*
X100196428Y-114767857D01*
X100267857Y-114803571D01*
X100303571Y-114839285D01*
X100339285Y-114910714D01*
X100339285Y-115089285D01*
X100303571Y-115160714D01*
X100267857Y-115196428D01*
X100339285Y-114446428D02*
X99589285Y-114446428D01*
X100053571Y-114375000D02*
X100339285Y-114160714D01*
X99839285Y-114160714D02*
X100125000Y-114446428D01*
G04 #@! TO.C,TP2*
X93747285Y-41256428D02*
X93747285Y-40827857D01*
X94497285Y-41042142D02*
X93747285Y-41042142D01*
X94497285Y-40577857D02*
X93747285Y-40577857D01*
X93747285Y-40292142D01*
X93783000Y-40220714D01*
X93818714Y-40185000D01*
X93890142Y-40149285D01*
X93997285Y-40149285D01*
X94068714Y-40185000D01*
X94104428Y-40220714D01*
X94140142Y-40292142D01*
X94140142Y-40577857D01*
X93818714Y-39863571D02*
X93783000Y-39827857D01*
X93747285Y-39756428D01*
X93747285Y-39577857D01*
X93783000Y-39506428D01*
X93818714Y-39470714D01*
X93890142Y-39435000D01*
X93961571Y-39435000D01*
X94068714Y-39470714D01*
X94497285Y-39899285D01*
X94497285Y-39435000D01*
X92767000Y-40881428D02*
X92731285Y-40952857D01*
X92731285Y-41060000D01*
X92767000Y-41167142D01*
X92838428Y-41238571D01*
X92909857Y-41274285D01*
X93052714Y-41310000D01*
X93159857Y-41310000D01*
X93302714Y-41274285D01*
X93374142Y-41238571D01*
X93445571Y-41167142D01*
X93481285Y-41060000D01*
X93481285Y-40988571D01*
X93445571Y-40881428D01*
X93409857Y-40845714D01*
X93159857Y-40845714D01*
X93159857Y-40988571D01*
X93481285Y-40524285D02*
X92731285Y-40524285D01*
X93481285Y-40095714D01*
X92731285Y-40095714D01*
X93481285Y-39738571D02*
X92731285Y-39738571D01*
X92731285Y-39560000D01*
X92767000Y-39452857D01*
X92838428Y-39381428D01*
X92909857Y-39345714D01*
X93052714Y-39310000D01*
X93159857Y-39310000D01*
X93302714Y-39345714D01*
X93374142Y-39381428D01*
X93445571Y-39452857D01*
X93481285Y-39560000D01*
X93481285Y-39738571D01*
G04 #@! TO.C,TP3*
X93747285Y-45066428D02*
X93747285Y-44637857D01*
X94497285Y-44852142D02*
X93747285Y-44852142D01*
X94497285Y-44387857D02*
X93747285Y-44387857D01*
X93747285Y-44102142D01*
X93783000Y-44030714D01*
X93818714Y-43995000D01*
X93890142Y-43959285D01*
X93997285Y-43959285D01*
X94068714Y-43995000D01*
X94104428Y-44030714D01*
X94140142Y-44102142D01*
X94140142Y-44387857D01*
X93747285Y-43709285D02*
X93747285Y-43245000D01*
X94033000Y-43495000D01*
X94033000Y-43387857D01*
X94068714Y-43316428D01*
X94104428Y-43280714D01*
X94175857Y-43245000D01*
X94354428Y-43245000D01*
X94425857Y-43280714D01*
X94461571Y-43316428D01*
X94497285Y-43387857D01*
X94497285Y-43602142D01*
X94461571Y-43673571D01*
X94425857Y-43709285D01*
X93195571Y-45441428D02*
X93195571Y-44870000D01*
X93481285Y-44120000D02*
X93481285Y-44548571D01*
X93481285Y-44334285D02*
X92731285Y-44334285D01*
X92838428Y-44405714D01*
X92909857Y-44477142D01*
X92945571Y-44548571D01*
X92802714Y-43834285D02*
X92767000Y-43798571D01*
X92731285Y-43727142D01*
X92731285Y-43548571D01*
X92767000Y-43477142D01*
X92802714Y-43441428D01*
X92874142Y-43405714D01*
X92945571Y-43405714D01*
X93052714Y-43441428D01*
X93481285Y-43870000D01*
X93481285Y-43405714D01*
X92731285Y-43191428D02*
X93481285Y-42941428D01*
X92731285Y-42691428D01*
G04 #@! TO.C,TP1*
X93747285Y-37446428D02*
X93747285Y-37017857D01*
X94497285Y-37232142D02*
X93747285Y-37232142D01*
X94497285Y-36767857D02*
X93747285Y-36767857D01*
X93747285Y-36482142D01*
X93783000Y-36410714D01*
X93818714Y-36375000D01*
X93890142Y-36339285D01*
X93997285Y-36339285D01*
X94068714Y-36375000D01*
X94104428Y-36410714D01*
X94140142Y-36482142D01*
X94140142Y-36767857D01*
X94497285Y-35625000D02*
X94497285Y-36053571D01*
X94497285Y-35839285D02*
X93747285Y-35839285D01*
X93854428Y-35910714D01*
X93925857Y-35982142D01*
X93961571Y-36053571D01*
X93195571Y-37821428D02*
X93195571Y-37250000D01*
X93481285Y-37535714D02*
X92909857Y-37535714D01*
X93481285Y-36500000D02*
X93481285Y-36928571D01*
X93481285Y-36714285D02*
X92731285Y-36714285D01*
X92838428Y-36785714D01*
X92909857Y-36857142D01*
X92945571Y-36928571D01*
X92802714Y-36214285D02*
X92767000Y-36178571D01*
X92731285Y-36107142D01*
X92731285Y-35928571D01*
X92767000Y-35857142D01*
X92802714Y-35821428D01*
X92874142Y-35785714D01*
X92945571Y-35785714D01*
X93052714Y-35821428D01*
X93481285Y-36250000D01*
X93481285Y-35785714D01*
X92731285Y-35571428D02*
X93481285Y-35321428D01*
X92731285Y-35071428D01*
D11*
G04 #@! TO.C,RV1*
X109000000Y-124000000D02*
X91000000Y-124000000D01*
X96000000Y-100000000D02*
X99000000Y-100000000D01*
X106000000Y-100000000D02*
X109000000Y-100000000D01*
X109000000Y-100000000D02*
X109000000Y-124000000D01*
X91000000Y-124000000D02*
X91000000Y-100000000D01*
X101000000Y-100000000D02*
X104000000Y-100000000D01*
X91000000Y-100000000D02*
X94000000Y-100000000D01*
G04 #@! TO.C,TP2*
X92060000Y-39360000D02*
X92060000Y-41260000D01*
X90160000Y-41260000D02*
X90160000Y-39360000D01*
X92060000Y-41260000D02*
X90160000Y-41260000D01*
X90160000Y-39360000D02*
X92060000Y-39360000D01*
G04 #@! TO.C,TP3*
X92060000Y-44120000D02*
G75*
G03*
X92060000Y-44120000I-950000J0D01*
G01*
G04 #@! TO.C,TP1*
X92060000Y-36500000D02*
G75*
G03*
X92060000Y-36500000I-950000J0D01*
G01*
G04 #@! TD*
M02*
