G04 #@! TF.GenerationSoftware,KiCad,Pcbnew,6.0.7-f9a2dced07~116~ubuntu22.04.1*
G04 #@! TF.CreationDate,2022-09-02T22:22:42-04:00*
G04 #@! TF.ProjectId,mikrokosmos-ii,6d696b72-6f6b-46f7-936d-6f732d69692e,rev?*
G04 #@! TF.SameCoordinates,Original*
G04 #@! TF.FileFunction,Copper,L2,Bot*
G04 #@! TF.FilePolarity,Positive*
%FSLAX46Y46*%
G04 Gerber Fmt 4.6, Leading zero omitted, Abs format (unit mm)*
G04 Created by KiCad (PCBNEW 6.0.7-f9a2dced07~116~ubuntu22.04.1) date 2022-09-02 22:22:42*
%MOMM*%
%LPD*%
G01*
G04 APERTURE LIST*
G04 Aperture macros list*
%AMRoundRect*
0 Rectangle with rounded corners*
0 $1 Rounding radius*
0 $2 $3 $4 $5 $6 $7 $8 $9 X,Y pos of 4 corners*
0 Add a 4 corners polygon primitive as box body*
4,1,4,$2,$3,$4,$5,$6,$7,$8,$9,$2,$3,0*
0 Add four circle primitives for the rounded corners*
1,1,$1+$1,$2,$3*
1,1,$1+$1,$4,$5*
1,1,$1+$1,$6,$7*
1,1,$1+$1,$8,$9*
0 Add four rect primitives between the rounded corners*
20,1,$1+$1,$2,$3,$4,$5,0*
20,1,$1+$1,$4,$5,$6,$7,0*
20,1,$1+$1,$6,$7,$8,$9,0*
20,1,$1+$1,$8,$9,$2,$3,0*%
G04 Aperture macros list end*
G04 #@! TA.AperFunction,ComponentPad*
%ADD10C,2.340000*%
G04 #@! TD*
G04 #@! TA.AperFunction,ComponentPad*
%ADD11R,1.500000X1.500000*%
G04 #@! TD*
G04 #@! TA.AperFunction,ComponentPad*
%ADD12C,1.500000*%
G04 #@! TD*
G04 #@! TA.AperFunction,ComponentPad*
%ADD13C,1.600000*%
G04 #@! TD*
G04 #@! TA.AperFunction,ComponentPad*
%ADD14RoundRect,0.250000X0.620000X0.850000X-0.620000X0.850000X-0.620000X-0.850000X0.620000X-0.850000X0*%
G04 #@! TD*
G04 #@! TA.AperFunction,ComponentPad*
%ADD15O,1.740000X2.200000*%
G04 #@! TD*
G04 #@! TA.AperFunction,ComponentPad*
%ADD16R,2.200000X2.200000*%
G04 #@! TD*
G04 #@! TA.AperFunction,ComponentPad*
%ADD17O,2.200000X2.200000*%
G04 #@! TD*
G04 #@! TA.AperFunction,ComponentPad*
%ADD18O,1.600000X1.600000*%
G04 #@! TD*
G04 #@! TA.AperFunction,ComponentPad*
%ADD19R,1.600000X1.600000*%
G04 #@! TD*
G04 #@! TA.AperFunction,ComponentPad*
%ADD20R,1.727200X1.727200*%
G04 #@! TD*
G04 #@! TA.AperFunction,ComponentPad*
%ADD21O,1.727200X1.727200*%
G04 #@! TD*
G04 #@! TA.AperFunction,ComponentPad*
%ADD22R,2.400000X1.600000*%
G04 #@! TD*
G04 #@! TA.AperFunction,ComponentPad*
%ADD23O,2.400000X1.600000*%
G04 #@! TD*
G04 #@! TA.AperFunction,Conductor*
%ADD24C,0.250000*%
G04 #@! TD*
G04 #@! TA.AperFunction,Conductor*
%ADD25C,0.750000*%
G04 #@! TD*
G04 APERTURE END LIST*
D10*
G04 #@! TO.P,RV1,1,1*
G04 #@! TO.N,GND*
X105000000Y-99000000D03*
G04 #@! TO.P,RV1,2,2*
G04 #@! TO.N,Net-(R5-Pad2)*
X100000000Y-99000000D03*
G04 #@! TO.P,RV1,3,3*
G04 #@! TO.N,Net-(D3-Pad1)*
X95000000Y-99000000D03*
G04 #@! TD*
D11*
G04 #@! TO.P,TP2,1,1*
G04 #@! TO.N,GND*
X91110000Y-40310000D03*
G04 #@! TD*
D12*
G04 #@! TO.P,TP3,1,1*
G04 #@! TO.N,-12V*
X91110000Y-44120000D03*
G04 #@! TD*
G04 #@! TO.P,TP1,1,1*
G04 #@! TO.N,+12V*
X91110000Y-36500000D03*
G04 #@! TD*
D13*
G04 #@! TO.P,C7,1*
G04 #@! TO.N,Net-(C7-Pad1)*
X102580000Y-47930000D03*
G04 #@! TO.P,C7,2*
G04 #@! TO.N,GND*
X107580000Y-47930000D03*
G04 #@! TD*
D14*
G04 #@! TO.P,J6,1,Pin_1*
G04 #@! TO.N,GND*
X100000000Y-134210000D03*
D15*
G04 #@! TO.P,J6,2,Pin_2*
G04 #@! TO.N,/PREAMP_OUT*
X97460000Y-134210000D03*
G04 #@! TD*
D16*
G04 #@! TO.P,D2,1,K*
G04 #@! TO.N,/-12V_INLET*
X103810000Y-26340000D03*
D17*
G04 #@! TO.P,D2,2,A*
G04 #@! TO.N,-12V*
X103810000Y-16180000D03*
G04 #@! TD*
D13*
G04 #@! TO.P,R5,1*
G04 #@! TO.N,Net-(C8-Pad2)*
X107620000Y-84760000D03*
D18*
G04 #@! TO.P,R5,2*
G04 #@! TO.N,Net-(R5-Pad2)*
X107620000Y-94920000D03*
G04 #@! TD*
D13*
G04 #@! TO.P,C5,1*
G04 #@! TO.N,GND*
X98730000Y-65720000D03*
G04 #@! TO.P,C5,2*
G04 #@! TO.N,-12V*
X96230000Y-65720000D03*
G04 #@! TD*
G04 #@! TO.P,C3,1*
G04 #@! TO.N,Net-(C3-Pad1)*
X92420000Y-80960000D03*
G04 #@! TO.P,C3,2*
G04 #@! TO.N,/PIEZO_IN*
X97420000Y-80960000D03*
G04 #@! TD*
G04 #@! TO.P,R2,1*
G04 #@! TO.N,Net-(C3-Pad1)*
X92380000Y-77150000D03*
D18*
G04 #@! TO.P,R2,2*
G04 #@! TO.N,/PIEZO_IN*
X92380000Y-66990000D03*
G04 #@! TD*
D16*
G04 #@! TO.P,D3,1,K*
G04 #@! TO.N,Net-(D3-Pad1)*
X97460000Y-51740000D03*
D17*
G04 #@! TO.P,D3,2,A*
G04 #@! TO.N,Net-(C6-Pad1)*
X97460000Y-61900000D03*
G04 #@! TD*
D13*
G04 #@! TO.P,C4,1*
G04 #@! TO.N,+12V*
X103810000Y-80960000D03*
G04 #@! TO.P,C4,2*
G04 #@! TO.N,GND*
X101310000Y-80960000D03*
G04 #@! TD*
D19*
G04 #@! TO.P,C2,1*
G04 #@! TO.N,GND*
X106350000Y-40310000D03*
D13*
G04 #@! TO.P,C2,2*
G04 #@! TO.N,-12V*
X106350000Y-37810000D03*
G04 #@! TD*
G04 #@! TO.P,C8,1*
G04 #@! TO.N,Net-(C8-Pad1)*
X102580000Y-65720000D03*
G04 #@! TO.P,C8,2*
G04 #@! TO.N,Net-(C8-Pad2)*
X107580000Y-65720000D03*
G04 #@! TD*
G04 #@! TO.P,R7,1*
G04 #@! TO.N,Net-(C9-Pad2)*
X92380000Y-96190000D03*
D18*
G04 #@! TO.P,R7,2*
G04 #@! TO.N,GND*
X92380000Y-86030000D03*
G04 #@! TD*
D16*
G04 #@! TO.P,D1,1,K*
G04 #@! TO.N,+12V*
X108060000Y-26340000D03*
D17*
G04 #@! TO.P,D1,2,A*
G04 #@! TO.N,/+12V_INLET*
X108060000Y-16180000D03*
G04 #@! TD*
D13*
G04 #@! TO.P,C6,1*
G04 #@! TO.N,Net-(C6-Pad1)*
X97460000Y-47930000D03*
G04 #@! TO.P,C6,2*
G04 #@! TO.N,GND*
X92460000Y-47930000D03*
G04 #@! TD*
D20*
G04 #@! TO.P,J2,1,-12V*
G04 #@! TO.N,/-12V_INLET*
X94920000Y-30150000D03*
D21*
G04 #@! TO.P,J2,2,-12V*
X97460000Y-30150000D03*
G04 #@! TO.P,J2,3,GND*
G04 #@! TO.N,GND*
X94920000Y-27610000D03*
G04 #@! TO.P,J2,4,GND*
X97460000Y-27610000D03*
G04 #@! TO.P,J2,5,GND*
X94920000Y-25070000D03*
G04 #@! TO.P,J2,6,GND*
X97460000Y-25070000D03*
G04 #@! TO.P,J2,7,GND*
X94920000Y-22530000D03*
G04 #@! TO.P,J2,8,GND*
X97460000Y-22530000D03*
G04 #@! TO.P,J2,9,+12V*
G04 #@! TO.N,/+12V_INLET*
X94920000Y-19990000D03*
G04 #@! TO.P,J2,10,+12V*
X97460000Y-19990000D03*
G04 #@! TD*
D14*
G04 #@! TO.P,J4,1,Pin_1*
G04 #@! TO.N,GND*
X107620000Y-134210000D03*
D15*
G04 #@! TO.P,J4,2,Pin_2*
G04 #@! TO.N,/PIEZO_IN*
X105080000Y-134210000D03*
G04 #@! TD*
D13*
G04 #@! TO.P,R1,1*
G04 #@! TO.N,/PIEZO_IN*
X97460000Y-127860000D03*
D18*
G04 #@! TO.P,R1,2*
G04 #@! TO.N,GND*
X107620000Y-127860000D03*
G04 #@! TD*
D13*
G04 #@! TO.P,R3,1*
G04 #@! TO.N,Net-(D3-Pad1)*
X92380000Y-51750000D03*
D18*
G04 #@! TO.P,R3,2*
G04 #@! TO.N,Net-(C3-Pad1)*
X92380000Y-61910000D03*
G04 #@! TD*
D13*
G04 #@! TO.P,R8,1*
G04 #@! TO.N,/PREAMP_OUT*
X92380000Y-138020000D03*
D18*
G04 #@! TO.P,R8,2*
G04 #@! TO.N,Net-(C9-Pad2)*
X92380000Y-127860000D03*
G04 #@! TD*
D13*
G04 #@! TO.P,C9,1*
G04 #@! TO.N,Net-(C8-Pad1)*
X102540000Y-86030000D03*
G04 #@! TO.P,C9,2*
G04 #@! TO.N,Net-(C9-Pad2)*
X102540000Y-84030000D03*
G04 #@! TD*
G04 #@! TO.P,R6,1*
G04 #@! TO.N,Net-(C8-Pad1)*
X107620000Y-79680000D03*
D18*
G04 #@! TO.P,R6,2*
G04 #@! TO.N,Net-(C8-Pad2)*
X107620000Y-69520000D03*
G04 #@! TD*
D22*
G04 #@! TO.P,U1,1*
G04 #@! TO.N,Net-(C3-Pad1)*
X96200000Y-77140000D03*
D23*
G04 #@! TO.P,U1,2,-*
G04 #@! TO.N,/PIEZO_IN*
X96200000Y-74600000D03*
G04 #@! TO.P,U1,3,+*
G04 #@! TO.N,GND*
X96200000Y-72060000D03*
G04 #@! TO.P,U1,4,V-*
G04 #@! TO.N,-12V*
X96200000Y-69520000D03*
G04 #@! TO.P,U1,5,+*
G04 #@! TO.N,GND*
X103820000Y-69520000D03*
G04 #@! TO.P,U1,6,-*
G04 #@! TO.N,Net-(C8-Pad2)*
X103820000Y-72060000D03*
G04 #@! TO.P,U1,7*
G04 #@! TO.N,Net-(C8-Pad1)*
X103820000Y-74600000D03*
G04 #@! TO.P,U1,8,V+*
G04 #@! TO.N,+12V*
X103820000Y-77140000D03*
G04 #@! TD*
D13*
G04 #@! TO.P,R4,1*
G04 #@! TO.N,Net-(C7-Pad1)*
X107620000Y-61900000D03*
D18*
G04 #@! TO.P,R4,2*
G04 #@! TO.N,Net-(C6-Pad1)*
X107620000Y-51740000D03*
G04 #@! TD*
D19*
G04 #@! TO.P,C1,1*
G04 #@! TO.N,+12V*
X106350000Y-32690000D03*
D13*
G04 #@! TO.P,C1,2*
G04 #@! TO.N,GND*
X106350000Y-30190000D03*
G04 #@! TD*
D16*
G04 #@! TO.P,D4,1,K*
G04 #@! TO.N,Net-(C7-Pad1)*
X102540000Y-51740000D03*
D17*
G04 #@! TO.P,D4,2,A*
G04 #@! TO.N,Net-(D3-Pad1)*
X102540000Y-61900000D03*
G04 #@! TD*
D24*
G04 #@! TO.N,+12V*
X94920000Y-32690000D02*
X106350000Y-32690000D01*
X91110000Y-36500000D02*
X94920000Y-32690000D01*
G04 #@! TO.N,Net-(C3-Pad1)*
X92380000Y-77150000D02*
X96190000Y-77150000D01*
G04 #@! TO.N,Net-(C6-Pad1)*
X97460000Y-47930000D02*
X98584511Y-49054511D01*
X98584511Y-49054511D02*
X104934511Y-49054511D01*
X104934511Y-49054511D02*
X107620000Y-51740000D01*
G04 #@! TO.N,Net-(C8-Pad1)*
X103820000Y-74600000D02*
X107620000Y-78400000D01*
X107620000Y-78400000D02*
X107620000Y-79690000D01*
G04 #@! TO.N,Net-(C8-Pad2)*
X107620000Y-69520000D02*
X108745000Y-70645000D01*
X108745000Y-83635000D02*
X107620000Y-84760000D01*
X108745000Y-70645000D02*
X108745000Y-83635000D01*
X103820000Y-72060000D02*
X106350000Y-69530000D01*
X106350000Y-69530000D02*
X107620000Y-69530000D01*
G04 #@! TO.N,Net-(C9-Pad2)*
X92380000Y-94190000D02*
X102540000Y-84030000D01*
X92380000Y-96190000D02*
X92380000Y-94190000D01*
D25*
G04 #@! TO.N,/+12V_INLET*
X97460000Y-19990000D02*
X104250000Y-19990000D01*
X94920000Y-19990000D02*
X97460000Y-19990000D01*
X104250000Y-19990000D02*
X108060000Y-16180000D01*
G04 #@! TO.N,/-12V_INLET*
X100000000Y-30150000D02*
X103810000Y-26340000D01*
X94920000Y-30150000D02*
X97460000Y-30150000D01*
X97460000Y-30150000D02*
X100000000Y-30150000D01*
D24*
G04 #@! TO.N,Net-(D3-Pad1)*
X92380000Y-51750000D02*
X97450000Y-51750000D01*
G04 #@! TO.N,Net-(R5-Pad2)*
X104080000Y-94920000D02*
X107620000Y-94920000D01*
X100000000Y-99000000D02*
X104080000Y-94920000D01*
G04 #@! TD*
G04 #@! TA.AperFunction,Conductor*
G04 #@! TO.N,GND*
G36*
X103080669Y-14528502D02*
G01*
X103127162Y-14582158D01*
X103137266Y-14652432D01*
X103107772Y-14717012D01*
X103076803Y-14741250D01*
X103077498Y-14742384D01*
X102861624Y-14874672D01*
X102669102Y-15039102D01*
X102504672Y-15231624D01*
X102372384Y-15447498D01*
X102275495Y-15681409D01*
X102216391Y-15927597D01*
X102196526Y-16180000D01*
X102216391Y-16432403D01*
X102217545Y-16437210D01*
X102217546Y-16437216D01*
X102234153Y-16506389D01*
X102275495Y-16678591D01*
X102372384Y-16912502D01*
X102504672Y-17128376D01*
X102669102Y-17320898D01*
X102861624Y-17485328D01*
X103077498Y-17617616D01*
X103082068Y-17619509D01*
X103082072Y-17619511D01*
X103306836Y-17712611D01*
X103311409Y-17714505D01*
X103396032Y-17734821D01*
X103552784Y-17772454D01*
X103552790Y-17772455D01*
X103557597Y-17773609D01*
X103810000Y-17793474D01*
X104062403Y-17773609D01*
X104067210Y-17772455D01*
X104067216Y-17772454D01*
X104223968Y-17734821D01*
X104308591Y-17714505D01*
X104313164Y-17712611D01*
X104537928Y-17619511D01*
X104537932Y-17619509D01*
X104542502Y-17617616D01*
X104758376Y-17485328D01*
X104950898Y-17320898D01*
X105115328Y-17128376D01*
X105247616Y-16912502D01*
X105344505Y-16678591D01*
X105385847Y-16506389D01*
X105402454Y-16437216D01*
X105402455Y-16437210D01*
X105403609Y-16432403D01*
X105423474Y-16180000D01*
X105403609Y-15927597D01*
X105344505Y-15681409D01*
X105247616Y-15447498D01*
X105115328Y-15231624D01*
X104950898Y-15039102D01*
X104758376Y-14874672D01*
X104542502Y-14742384D01*
X104543640Y-14740527D01*
X104498630Y-14698012D01*
X104481568Y-14629096D01*
X104504473Y-14561896D01*
X104560074Y-14517747D01*
X104607452Y-14508500D01*
X107262548Y-14508500D01*
X107330669Y-14528502D01*
X107377162Y-14582158D01*
X107387266Y-14652432D01*
X107357772Y-14717012D01*
X107326803Y-14741250D01*
X107327498Y-14742384D01*
X107111624Y-14874672D01*
X106919102Y-15039102D01*
X106754672Y-15231624D01*
X106622384Y-15447498D01*
X106525495Y-15681409D01*
X106466391Y-15927597D01*
X106446526Y-16180000D01*
X106446914Y-16184930D01*
X106466002Y-16427467D01*
X106466003Y-16427474D01*
X106466391Y-16432403D01*
X106467547Y-16437218D01*
X106467682Y-16437780D01*
X106467671Y-16438000D01*
X106468321Y-16442104D01*
X106467459Y-16442241D01*
X106464132Y-16508688D01*
X106434257Y-16556285D01*
X103920947Y-19069595D01*
X103858635Y-19103621D01*
X103831852Y-19106500D01*
X98566993Y-19106500D01*
X98498872Y-19086498D01*
X98473800Y-19065300D01*
X98402455Y-18986893D01*
X98402453Y-18986892D01*
X98398977Y-18983071D01*
X98394926Y-18979872D01*
X98394922Y-18979868D01*
X98225966Y-18846434D01*
X98225962Y-18846432D01*
X98221911Y-18843232D01*
X98024383Y-18734191D01*
X97811698Y-18658876D01*
X97761297Y-18649898D01*
X97594657Y-18620214D01*
X97594653Y-18620214D01*
X97589569Y-18619308D01*
X97517574Y-18618429D01*
X97369129Y-18616615D01*
X97369127Y-18616615D01*
X97363959Y-18616552D01*
X97140929Y-18650680D01*
X96926468Y-18720777D01*
X96726335Y-18824960D01*
X96722202Y-18828063D01*
X96722199Y-18828065D01*
X96697734Y-18846434D01*
X96545905Y-18960430D01*
X96520617Y-18986893D01*
X96443538Y-19067551D01*
X96382014Y-19102981D01*
X96352444Y-19106500D01*
X96026993Y-19106500D01*
X95958872Y-19086498D01*
X95933800Y-19065300D01*
X95862455Y-18986893D01*
X95862453Y-18986892D01*
X95858977Y-18983071D01*
X95854926Y-18979872D01*
X95854922Y-18979868D01*
X95685966Y-18846434D01*
X95685962Y-18846432D01*
X95681911Y-18843232D01*
X95484383Y-18734191D01*
X95271698Y-18658876D01*
X95221297Y-18649898D01*
X95054657Y-18620214D01*
X95054653Y-18620214D01*
X95049569Y-18619308D01*
X94977574Y-18618429D01*
X94829129Y-18616615D01*
X94829127Y-18616615D01*
X94823959Y-18616552D01*
X94600929Y-18650680D01*
X94386468Y-18720777D01*
X94186335Y-18824960D01*
X94182202Y-18828063D01*
X94182199Y-18828065D01*
X94157734Y-18846434D01*
X94005905Y-18960430D01*
X94002333Y-18964168D01*
X93869069Y-19103621D01*
X93850024Y-19123550D01*
X93722878Y-19309940D01*
X93627881Y-19514593D01*
X93567585Y-19732013D01*
X93543609Y-19956362D01*
X93556597Y-20181614D01*
X93557734Y-20186660D01*
X93557735Y-20186666D01*
X93589095Y-20325821D01*
X93606200Y-20401720D01*
X93608142Y-20406502D01*
X93608143Y-20406506D01*
X93680392Y-20584434D01*
X93691086Y-20610769D01*
X93808975Y-20803147D01*
X93956702Y-20973687D01*
X94130299Y-21117810D01*
X94134751Y-21120412D01*
X94134756Y-21120415D01*
X94184555Y-21149515D01*
X94233278Y-21201154D01*
X94246349Y-21270937D01*
X94219617Y-21336709D01*
X94188131Y-21364920D01*
X94182471Y-21368485D01*
X94010373Y-21497700D01*
X94002666Y-21504543D01*
X93853984Y-21660129D01*
X93847498Y-21668139D01*
X93726232Y-21845908D01*
X93721134Y-21854882D01*
X93630530Y-22050071D01*
X93626967Y-22059758D01*
X93570536Y-22263239D01*
X93572233Y-22272609D01*
X93584610Y-22276000D01*
X98792367Y-22276000D01*
X98805898Y-22272027D01*
X98807203Y-22262947D01*
X98764133Y-22091477D01*
X98760813Y-22081726D01*
X98674999Y-21884365D01*
X98670133Y-21875290D01*
X98553239Y-21694601D01*
X98546947Y-21686430D01*
X98402113Y-21527260D01*
X98394580Y-21520234D01*
X98225691Y-21386855D01*
X98217104Y-21381150D01*
X98198082Y-21370649D01*
X98148111Y-21320216D01*
X98133340Y-21250773D01*
X98158457Y-21184368D01*
X98185801Y-21157768D01*
X98348667Y-21041596D01*
X98480474Y-20910249D01*
X98542845Y-20876333D01*
X98569413Y-20873500D01*
X104170543Y-20873500D01*
X104190255Y-20875051D01*
X104203507Y-20877150D01*
X104210094Y-20876805D01*
X104210098Y-20876805D01*
X104269850Y-20873673D01*
X104276445Y-20873500D01*
X104296306Y-20873500D01*
X104316069Y-20871423D01*
X104322628Y-20870907D01*
X104338427Y-20870079D01*
X104382377Y-20867776D01*
X104382381Y-20867775D01*
X104388971Y-20867430D01*
X104401929Y-20863958D01*
X104421372Y-20860355D01*
X104421795Y-20860311D01*
X104434702Y-20858954D01*
X104497894Y-20838422D01*
X104504196Y-20836556D01*
X104561985Y-20821071D01*
X104568363Y-20819362D01*
X104574242Y-20816366D01*
X104574251Y-20816363D01*
X104580317Y-20813272D01*
X104598579Y-20805708D01*
X104605043Y-20803608D01*
X104605051Y-20803605D01*
X104611331Y-20801564D01*
X104617050Y-20798262D01*
X104617055Y-20798260D01*
X104668867Y-20768346D01*
X104674637Y-20765213D01*
X104733839Y-20735047D01*
X104744259Y-20726609D01*
X104760552Y-20715411D01*
X104760903Y-20715209D01*
X104772169Y-20708704D01*
X104777075Y-20704287D01*
X104777080Y-20704283D01*
X104821538Y-20664253D01*
X104826554Y-20659969D01*
X104839409Y-20649559D01*
X104839412Y-20649556D01*
X104841986Y-20647472D01*
X104856031Y-20633427D01*
X104860816Y-20628886D01*
X104905274Y-20588856D01*
X104905275Y-20588855D01*
X104910185Y-20584434D01*
X104918075Y-20573574D01*
X104930912Y-20558546D01*
X107683715Y-17805743D01*
X107746027Y-17771717D01*
X107797802Y-17772271D01*
X107797896Y-17771679D01*
X107801909Y-17772315D01*
X107802219Y-17772318D01*
X107807597Y-17773609D01*
X107812526Y-17773997D01*
X107812533Y-17773998D01*
X108055070Y-17793086D01*
X108060000Y-17793474D01*
X108312403Y-17773609D01*
X108317210Y-17772455D01*
X108317216Y-17772454D01*
X108473968Y-17734821D01*
X108558591Y-17714505D01*
X108563164Y-17712611D01*
X108787928Y-17619511D01*
X108787932Y-17619509D01*
X108792502Y-17617616D01*
X109008376Y-17485328D01*
X109200898Y-17320898D01*
X109365328Y-17128376D01*
X109497616Y-16912502D01*
X109594505Y-16678591D01*
X109635847Y-16506389D01*
X109652454Y-16437216D01*
X109652455Y-16437210D01*
X109653609Y-16432403D01*
X109673474Y-16180000D01*
X109653609Y-15927597D01*
X109594505Y-15681409D01*
X109497616Y-15447498D01*
X109365328Y-15231624D01*
X109200898Y-15039102D01*
X109008376Y-14874672D01*
X108792502Y-14742384D01*
X108793640Y-14740527D01*
X108748630Y-14698012D01*
X108731568Y-14629096D01*
X108754473Y-14561896D01*
X108810074Y-14517747D01*
X108857452Y-14508500D01*
X109865500Y-14508500D01*
X109933621Y-14528502D01*
X109980114Y-14582158D01*
X109991500Y-14634500D01*
X109991500Y-139365500D01*
X109971498Y-139433621D01*
X109917842Y-139480114D01*
X109865500Y-139491500D01*
X92888882Y-139491500D01*
X92820761Y-139471498D01*
X92774268Y-139417842D01*
X92764164Y-139347568D01*
X92793658Y-139282988D01*
X92835632Y-139251305D01*
X93031762Y-139159849D01*
X93031767Y-139159846D01*
X93036749Y-139157523D01*
X93141611Y-139084098D01*
X93219789Y-139029357D01*
X93219792Y-139029355D01*
X93224300Y-139026198D01*
X93386198Y-138864300D01*
X93517523Y-138676749D01*
X93519846Y-138671767D01*
X93519849Y-138671762D01*
X93611961Y-138474225D01*
X93611961Y-138474224D01*
X93614284Y-138469243D01*
X93673543Y-138248087D01*
X93693498Y-138020000D01*
X93673543Y-137791913D01*
X93614284Y-137570757D01*
X93611961Y-137565775D01*
X93519849Y-137368238D01*
X93519846Y-137368233D01*
X93517523Y-137363251D01*
X93386198Y-137175700D01*
X93224300Y-137013802D01*
X93219792Y-137010645D01*
X93219789Y-137010643D01*
X93141611Y-136955902D01*
X93036749Y-136882477D01*
X93031767Y-136880154D01*
X93031762Y-136880151D01*
X92834225Y-136788039D01*
X92834224Y-136788039D01*
X92829243Y-136785716D01*
X92823935Y-136784294D01*
X92823933Y-136784293D01*
X92613402Y-136727881D01*
X92613400Y-136727881D01*
X92608087Y-136726457D01*
X92380000Y-136706502D01*
X92151913Y-136726457D01*
X92146600Y-136727881D01*
X92146598Y-136727881D01*
X91936067Y-136784293D01*
X91936065Y-136784294D01*
X91930757Y-136785716D01*
X91925776Y-136788039D01*
X91925775Y-136788039D01*
X91728238Y-136880151D01*
X91728233Y-136880154D01*
X91723251Y-136882477D01*
X91618389Y-136955902D01*
X91540211Y-137010643D01*
X91540208Y-137010645D01*
X91535700Y-137013802D01*
X91373802Y-137175700D01*
X91242477Y-137363251D01*
X91240154Y-137368233D01*
X91240151Y-137368238D01*
X91148039Y-137565775D01*
X91145716Y-137570757D01*
X91086457Y-137791913D01*
X91066502Y-138020000D01*
X91086457Y-138248087D01*
X91145716Y-138469243D01*
X91148039Y-138474224D01*
X91148039Y-138474225D01*
X91240151Y-138671762D01*
X91240154Y-138671767D01*
X91242477Y-138676749D01*
X91373802Y-138864300D01*
X91535700Y-139026198D01*
X91540208Y-139029355D01*
X91540211Y-139029357D01*
X91618389Y-139084098D01*
X91723251Y-139157523D01*
X91728233Y-139159846D01*
X91728238Y-139159849D01*
X91924368Y-139251305D01*
X91977653Y-139298222D01*
X91997114Y-139366499D01*
X91976572Y-139434459D01*
X91922550Y-139480525D01*
X91871118Y-139491500D01*
X90134500Y-139491500D01*
X90066379Y-139471498D01*
X90019886Y-139417842D01*
X90008500Y-139365500D01*
X90008500Y-134498738D01*
X96081500Y-134498738D01*
X96096295Y-134673102D01*
X96155067Y-134899540D01*
X96157259Y-134904406D01*
X96157260Y-134904409D01*
X96223864Y-135052264D01*
X96251150Y-135112837D01*
X96381798Y-135306896D01*
X96543276Y-135476168D01*
X96730965Y-135615813D01*
X96735716Y-135618229D01*
X96735720Y-135618231D01*
X96850197Y-135676434D01*
X96939500Y-135721838D01*
X97162917Y-135791210D01*
X97168204Y-135791911D01*
X97168205Y-135791911D01*
X97389545Y-135821248D01*
X97389549Y-135821248D01*
X97394829Y-135821948D01*
X97400158Y-135821748D01*
X97400160Y-135821748D01*
X97511716Y-135817560D01*
X97628604Y-135813172D01*
X97740813Y-135789628D01*
X97852332Y-135766229D01*
X97852335Y-135766228D01*
X97857559Y-135765132D01*
X98075146Y-135679203D01*
X98184860Y-135612627D01*
X98270583Y-135560609D01*
X98270586Y-135560607D01*
X98275144Y-135557841D01*
X98451834Y-135404517D01*
X98482761Y-135366799D01*
X98541421Y-135326804D01*
X98612391Y-135324873D01*
X98673139Y-135361617D01*
X98688220Y-135384157D01*
X98688906Y-135383732D01*
X98778063Y-135527807D01*
X98787099Y-135539208D01*
X98901829Y-135653739D01*
X98913240Y-135662751D01*
X99051243Y-135747816D01*
X99064424Y-135753963D01*
X99218710Y-135805138D01*
X99232086Y-135808005D01*
X99326438Y-135817672D01*
X99332854Y-135818000D01*
X99727885Y-135818000D01*
X99743124Y-135813525D01*
X99744329Y-135812135D01*
X99746000Y-135804452D01*
X99746000Y-135799884D01*
X100254000Y-135799884D01*
X100258475Y-135815123D01*
X100259865Y-135816328D01*
X100267548Y-135817999D01*
X100667095Y-135817999D01*
X100673614Y-135817662D01*
X100769206Y-135807743D01*
X100782600Y-135804851D01*
X100936784Y-135753412D01*
X100949962Y-135747239D01*
X101087807Y-135661937D01*
X101099208Y-135652901D01*
X101213739Y-135538171D01*
X101222751Y-135526760D01*
X101307816Y-135388757D01*
X101313963Y-135375576D01*
X101365138Y-135221290D01*
X101368005Y-135207914D01*
X101377672Y-135113562D01*
X101378000Y-135107146D01*
X101378000Y-134498738D01*
X103701500Y-134498738D01*
X103716295Y-134673102D01*
X103775067Y-134899540D01*
X103777259Y-134904406D01*
X103777260Y-134904409D01*
X103843864Y-135052264D01*
X103871150Y-135112837D01*
X104001798Y-135306896D01*
X104163276Y-135476168D01*
X104350965Y-135615813D01*
X104355716Y-135618229D01*
X104355720Y-135618231D01*
X104470197Y-135676434D01*
X104559500Y-135721838D01*
X104782917Y-135791210D01*
X104788204Y-135791911D01*
X104788205Y-135791911D01*
X105009545Y-135821248D01*
X105009549Y-135821248D01*
X105014829Y-135821948D01*
X105020158Y-135821748D01*
X105020160Y-135821748D01*
X105131716Y-135817560D01*
X105248604Y-135813172D01*
X105360813Y-135789628D01*
X105472332Y-135766229D01*
X105472335Y-135766228D01*
X105477559Y-135765132D01*
X105695146Y-135679203D01*
X105804860Y-135612627D01*
X105890583Y-135560609D01*
X105890586Y-135560607D01*
X105895144Y-135557841D01*
X106071834Y-135404517D01*
X106102761Y-135366799D01*
X106161421Y-135326804D01*
X106232391Y-135324873D01*
X106293139Y-135361617D01*
X106308220Y-135384157D01*
X106308906Y-135383732D01*
X106398063Y-135527807D01*
X106407099Y-135539208D01*
X106521829Y-135653739D01*
X106533240Y-135662751D01*
X106671243Y-135747816D01*
X106684424Y-135753963D01*
X106838710Y-135805138D01*
X106852086Y-135808005D01*
X106946438Y-135817672D01*
X106952854Y-135818000D01*
X107347885Y-135818000D01*
X107363124Y-135813525D01*
X107364329Y-135812135D01*
X107366000Y-135804452D01*
X107366000Y-135799884D01*
X107874000Y-135799884D01*
X107878475Y-135815123D01*
X107879865Y-135816328D01*
X107887548Y-135817999D01*
X108287095Y-135817999D01*
X108293614Y-135817662D01*
X108389206Y-135807743D01*
X108402600Y-135804851D01*
X108556784Y-135753412D01*
X108569962Y-135747239D01*
X108707807Y-135661937D01*
X108719208Y-135652901D01*
X108833739Y-135538171D01*
X108842751Y-135526760D01*
X108927816Y-135388757D01*
X108933963Y-135375576D01*
X108985138Y-135221290D01*
X108988005Y-135207914D01*
X108997672Y-135113562D01*
X108998000Y-135107145D01*
X108998000Y-134482115D01*
X108993525Y-134466876D01*
X108992135Y-134465671D01*
X108984452Y-134464000D01*
X107892115Y-134464000D01*
X107876876Y-134468475D01*
X107875671Y-134469865D01*
X107874000Y-134477548D01*
X107874000Y-135799884D01*
X107366000Y-135799884D01*
X107366000Y-133937885D01*
X107874000Y-133937885D01*
X107878475Y-133953124D01*
X107879865Y-133954329D01*
X107887548Y-133956000D01*
X108979884Y-133956000D01*
X108995123Y-133951525D01*
X108996328Y-133950135D01*
X108997999Y-133942452D01*
X108997999Y-133312905D01*
X108997662Y-133306386D01*
X108987743Y-133210794D01*
X108984851Y-133197400D01*
X108933412Y-133043216D01*
X108927239Y-133030038D01*
X108841937Y-132892193D01*
X108832901Y-132880792D01*
X108718171Y-132766261D01*
X108706760Y-132757249D01*
X108568757Y-132672184D01*
X108555576Y-132666037D01*
X108401290Y-132614862D01*
X108387914Y-132611995D01*
X108293562Y-132602328D01*
X108287145Y-132602000D01*
X107892115Y-132602000D01*
X107876876Y-132606475D01*
X107875671Y-132607865D01*
X107874000Y-132615548D01*
X107874000Y-133937885D01*
X107366000Y-133937885D01*
X107366000Y-132620116D01*
X107361525Y-132604877D01*
X107360135Y-132603672D01*
X107352452Y-132602001D01*
X106952905Y-132602001D01*
X106946386Y-132602338D01*
X106850794Y-132612257D01*
X106837400Y-132615149D01*
X106683216Y-132666588D01*
X106670038Y-132672761D01*
X106532193Y-132758063D01*
X106520792Y-132767099D01*
X106406261Y-132881829D01*
X106397249Y-132893240D01*
X106308342Y-133037475D01*
X106306245Y-133036183D01*
X106267044Y-133080692D01*
X106198764Y-133100144D01*
X106130807Y-133079593D01*
X106108614Y-133061122D01*
X105996724Y-132943832D01*
X105809035Y-132804187D01*
X105804284Y-132801771D01*
X105804280Y-132801769D01*
X105605256Y-132700580D01*
X105605255Y-132700580D01*
X105600500Y-132698162D01*
X105377083Y-132628790D01*
X105371796Y-132628089D01*
X105371795Y-132628089D01*
X105150455Y-132598752D01*
X105150451Y-132598752D01*
X105145171Y-132598052D01*
X105139842Y-132598252D01*
X105139840Y-132598252D01*
X105028283Y-132602440D01*
X104911396Y-132606828D01*
X104827411Y-132624450D01*
X104687668Y-132653771D01*
X104687665Y-132653772D01*
X104682441Y-132654868D01*
X104464854Y-132740797D01*
X104460290Y-132743566D01*
X104460291Y-132743566D01*
X104269417Y-132859391D01*
X104269414Y-132859393D01*
X104264856Y-132862159D01*
X104088166Y-133015483D01*
X103939835Y-133196386D01*
X103824104Y-133399695D01*
X103744284Y-133619596D01*
X103702656Y-133849803D01*
X103701500Y-133874316D01*
X103701500Y-134498738D01*
X101378000Y-134498738D01*
X101378000Y-134482115D01*
X101373525Y-134466876D01*
X101372135Y-134465671D01*
X101364452Y-134464000D01*
X100272115Y-134464000D01*
X100256876Y-134468475D01*
X100255671Y-134469865D01*
X100254000Y-134477548D01*
X100254000Y-135799884D01*
X99746000Y-135799884D01*
X99746000Y-133937885D01*
X100254000Y-133937885D01*
X100258475Y-133953124D01*
X100259865Y-133954329D01*
X100267548Y-133956000D01*
X101359884Y-133956000D01*
X101375123Y-133951525D01*
X101376328Y-133950135D01*
X101377999Y-133942452D01*
X101377999Y-133312905D01*
X101377662Y-133306386D01*
X101367743Y-133210794D01*
X101364851Y-133197400D01*
X101313412Y-133043216D01*
X101307239Y-133030038D01*
X101221937Y-132892193D01*
X101212901Y-132880792D01*
X101098171Y-132766261D01*
X101086760Y-132757249D01*
X100948757Y-132672184D01*
X100935576Y-132666037D01*
X100781290Y-132614862D01*
X100767914Y-132611995D01*
X100673562Y-132602328D01*
X100667145Y-132602000D01*
X100272115Y-132602000D01*
X100256876Y-132606475D01*
X100255671Y-132607865D01*
X100254000Y-132615548D01*
X100254000Y-133937885D01*
X99746000Y-133937885D01*
X99746000Y-132620116D01*
X99741525Y-132604877D01*
X99740135Y-132603672D01*
X99732452Y-132602001D01*
X99332905Y-132602001D01*
X99326386Y-132602338D01*
X99230794Y-132612257D01*
X99217400Y-132615149D01*
X99063216Y-132666588D01*
X99050038Y-132672761D01*
X98912193Y-132758063D01*
X98900792Y-132767099D01*
X98786261Y-132881829D01*
X98777249Y-132893240D01*
X98688342Y-133037475D01*
X98686245Y-133036183D01*
X98647044Y-133080692D01*
X98578764Y-133100144D01*
X98510807Y-133079593D01*
X98488614Y-133061122D01*
X98376724Y-132943832D01*
X98189035Y-132804187D01*
X98184284Y-132801771D01*
X98184280Y-132801769D01*
X97985256Y-132700580D01*
X97985255Y-132700580D01*
X97980500Y-132698162D01*
X97757083Y-132628790D01*
X97751796Y-132628089D01*
X97751795Y-132628089D01*
X97530455Y-132598752D01*
X97530451Y-132598752D01*
X97525171Y-132598052D01*
X97519842Y-132598252D01*
X97519840Y-132598252D01*
X97408283Y-132602440D01*
X97291396Y-132606828D01*
X97207411Y-132624450D01*
X97067668Y-132653771D01*
X97067665Y-132653772D01*
X97062441Y-132654868D01*
X96844854Y-132740797D01*
X96840290Y-132743566D01*
X96840291Y-132743566D01*
X96649417Y-132859391D01*
X96649414Y-132859393D01*
X96644856Y-132862159D01*
X96468166Y-133015483D01*
X96319835Y-133196386D01*
X96204104Y-133399695D01*
X96124284Y-133619596D01*
X96082656Y-133849803D01*
X96081500Y-133874316D01*
X96081500Y-134498738D01*
X90008500Y-134498738D01*
X90008500Y-127860000D01*
X91066502Y-127860000D01*
X91086457Y-128088087D01*
X91087881Y-128093400D01*
X91087881Y-128093402D01*
X91097031Y-128127548D01*
X91145716Y-128309243D01*
X91148039Y-128314224D01*
X91148039Y-128314225D01*
X91240151Y-128511762D01*
X91240154Y-128511767D01*
X91242477Y-128516749D01*
X91373802Y-128704300D01*
X91535700Y-128866198D01*
X91540208Y-128869355D01*
X91540211Y-128869357D01*
X91618389Y-128924098D01*
X91723251Y-128997523D01*
X91728233Y-128999846D01*
X91728238Y-128999849D01*
X91924765Y-129091490D01*
X91930757Y-129094284D01*
X91936065Y-129095706D01*
X91936067Y-129095707D01*
X92146598Y-129152119D01*
X92146600Y-129152119D01*
X92151913Y-129153543D01*
X92380000Y-129173498D01*
X92608087Y-129153543D01*
X92613400Y-129152119D01*
X92613402Y-129152119D01*
X92823933Y-129095707D01*
X92823935Y-129095706D01*
X92829243Y-129094284D01*
X92835235Y-129091490D01*
X93031762Y-128999849D01*
X93031767Y-128999846D01*
X93036749Y-128997523D01*
X93141611Y-128924098D01*
X93219789Y-128869357D01*
X93219792Y-128869355D01*
X93224300Y-128866198D01*
X93386198Y-128704300D01*
X93517523Y-128516749D01*
X93519846Y-128511767D01*
X93519849Y-128511762D01*
X93611961Y-128314225D01*
X93611961Y-128314224D01*
X93614284Y-128309243D01*
X93662970Y-128127548D01*
X93672119Y-128093402D01*
X93672119Y-128093400D01*
X93673543Y-128088087D01*
X93693498Y-127860000D01*
X96146502Y-127860000D01*
X96166457Y-128088087D01*
X96167881Y-128093400D01*
X96167881Y-128093402D01*
X96177031Y-128127548D01*
X96225716Y-128309243D01*
X96228039Y-128314224D01*
X96228039Y-128314225D01*
X96320151Y-128511762D01*
X96320154Y-128511767D01*
X96322477Y-128516749D01*
X96453802Y-128704300D01*
X96615700Y-128866198D01*
X96620208Y-128869355D01*
X96620211Y-128869357D01*
X96698389Y-128924098D01*
X96803251Y-128997523D01*
X96808233Y-128999846D01*
X96808238Y-128999849D01*
X97004765Y-129091490D01*
X97010757Y-129094284D01*
X97016065Y-129095706D01*
X97016067Y-129095707D01*
X97226598Y-129152119D01*
X97226600Y-129152119D01*
X97231913Y-129153543D01*
X97460000Y-129173498D01*
X97688087Y-129153543D01*
X97693400Y-129152119D01*
X97693402Y-129152119D01*
X97903933Y-129095707D01*
X97903935Y-129095706D01*
X97909243Y-129094284D01*
X97915235Y-129091490D01*
X98111762Y-128999849D01*
X98111767Y-128999846D01*
X98116749Y-128997523D01*
X98221611Y-128924098D01*
X98299789Y-128869357D01*
X98299792Y-128869355D01*
X98304300Y-128866198D01*
X98466198Y-128704300D01*
X98597523Y-128516749D01*
X98599846Y-128511767D01*
X98599849Y-128511762D01*
X98691961Y-128314225D01*
X98691961Y-128314224D01*
X98694284Y-128309243D01*
X98742970Y-128127548D01*
X98743245Y-128126522D01*
X106337273Y-128126522D01*
X106384764Y-128303761D01*
X106388510Y-128314053D01*
X106480586Y-128511511D01*
X106486069Y-128521007D01*
X106611028Y-128699467D01*
X106618084Y-128707875D01*
X106772125Y-128861916D01*
X106780533Y-128868972D01*
X106958993Y-128993931D01*
X106968489Y-128999414D01*
X107165947Y-129091490D01*
X107176239Y-129095236D01*
X107348503Y-129141394D01*
X107362599Y-129141058D01*
X107366000Y-129133116D01*
X107366000Y-129127967D01*
X107874000Y-129127967D01*
X107877973Y-129141498D01*
X107886522Y-129142727D01*
X108063761Y-129095236D01*
X108074053Y-129091490D01*
X108271511Y-128999414D01*
X108281007Y-128993931D01*
X108459467Y-128868972D01*
X108467875Y-128861916D01*
X108621916Y-128707875D01*
X108628972Y-128699467D01*
X108753931Y-128521007D01*
X108759414Y-128511511D01*
X108851490Y-128314053D01*
X108855236Y-128303761D01*
X108901394Y-128131497D01*
X108901058Y-128117401D01*
X108893116Y-128114000D01*
X107892115Y-128114000D01*
X107876876Y-128118475D01*
X107875671Y-128119865D01*
X107874000Y-128127548D01*
X107874000Y-129127967D01*
X107366000Y-129127967D01*
X107366000Y-128132115D01*
X107361525Y-128116876D01*
X107360135Y-128115671D01*
X107352452Y-128114000D01*
X106352033Y-128114000D01*
X106338502Y-128117973D01*
X106337273Y-128126522D01*
X98743245Y-128126522D01*
X98752119Y-128093402D01*
X98752119Y-128093400D01*
X98753543Y-128088087D01*
X98773498Y-127860000D01*
X98753543Y-127631913D01*
X98743244Y-127593478D01*
X98741911Y-127588503D01*
X106338606Y-127588503D01*
X106338942Y-127602599D01*
X106346884Y-127606000D01*
X107347885Y-127606000D01*
X107363124Y-127601525D01*
X107364329Y-127600135D01*
X107366000Y-127592452D01*
X107366000Y-127587885D01*
X107874000Y-127587885D01*
X107878475Y-127603124D01*
X107879865Y-127604329D01*
X107887548Y-127606000D01*
X108887967Y-127606000D01*
X108901498Y-127602027D01*
X108902727Y-127593478D01*
X108855236Y-127416239D01*
X108851490Y-127405947D01*
X108759414Y-127208489D01*
X108753931Y-127198993D01*
X108628972Y-127020533D01*
X108621916Y-127012125D01*
X108467875Y-126858084D01*
X108459467Y-126851028D01*
X108281007Y-126726069D01*
X108271511Y-126720586D01*
X108074053Y-126628510D01*
X108063761Y-126624764D01*
X107891497Y-126578606D01*
X107877401Y-126578942D01*
X107874000Y-126586884D01*
X107874000Y-127587885D01*
X107366000Y-127587885D01*
X107366000Y-126592033D01*
X107362027Y-126578502D01*
X107353478Y-126577273D01*
X107176239Y-126624764D01*
X107165947Y-126628510D01*
X106968489Y-126720586D01*
X106958993Y-126726069D01*
X106780533Y-126851028D01*
X106772125Y-126858084D01*
X106618084Y-127012125D01*
X106611028Y-127020533D01*
X106486069Y-127198993D01*
X106480586Y-127208489D01*
X106388510Y-127405947D01*
X106384764Y-127416239D01*
X106338606Y-127588503D01*
X98741911Y-127588503D01*
X98695707Y-127416067D01*
X98695706Y-127416065D01*
X98694284Y-127410757D01*
X98599966Y-127208489D01*
X98599849Y-127208238D01*
X98599846Y-127208233D01*
X98597523Y-127203251D01*
X98466198Y-127015700D01*
X98304300Y-126853802D01*
X98299792Y-126850645D01*
X98299789Y-126850643D01*
X98221611Y-126795902D01*
X98116749Y-126722477D01*
X98111767Y-126720154D01*
X98111762Y-126720151D01*
X97914225Y-126628039D01*
X97914224Y-126628039D01*
X97909243Y-126625716D01*
X97903935Y-126624294D01*
X97903933Y-126624293D01*
X97693402Y-126567881D01*
X97693400Y-126567881D01*
X97688087Y-126566457D01*
X97460000Y-126546502D01*
X97231913Y-126566457D01*
X97226600Y-126567881D01*
X97226598Y-126567881D01*
X97016067Y-126624293D01*
X97016065Y-126624294D01*
X97010757Y-126625716D01*
X97005776Y-126628039D01*
X97005775Y-126628039D01*
X96808238Y-126720151D01*
X96808233Y-126720154D01*
X96803251Y-126722477D01*
X96698389Y-126795902D01*
X96620211Y-126850643D01*
X96620208Y-126850645D01*
X96615700Y-126853802D01*
X96453802Y-127015700D01*
X96322477Y-127203251D01*
X96320154Y-127208233D01*
X96320151Y-127208238D01*
X96320034Y-127208489D01*
X96225716Y-127410757D01*
X96224294Y-127416065D01*
X96224293Y-127416067D01*
X96176756Y-127593478D01*
X96166457Y-127631913D01*
X96146502Y-127860000D01*
X93693498Y-127860000D01*
X93673543Y-127631913D01*
X93663244Y-127593478D01*
X93615707Y-127416067D01*
X93615706Y-127416065D01*
X93614284Y-127410757D01*
X93519966Y-127208489D01*
X93519849Y-127208238D01*
X93519846Y-127208233D01*
X93517523Y-127203251D01*
X93386198Y-127015700D01*
X93224300Y-126853802D01*
X93219792Y-126850645D01*
X93219789Y-126850643D01*
X93141611Y-126795902D01*
X93036749Y-126722477D01*
X93031767Y-126720154D01*
X93031762Y-126720151D01*
X92834225Y-126628039D01*
X92834224Y-126628039D01*
X92829243Y-126625716D01*
X92823935Y-126624294D01*
X92823933Y-126624293D01*
X92613402Y-126567881D01*
X92613400Y-126567881D01*
X92608087Y-126566457D01*
X92380000Y-126546502D01*
X92151913Y-126566457D01*
X92146600Y-126567881D01*
X92146598Y-126567881D01*
X91936067Y-126624293D01*
X91936065Y-126624294D01*
X91930757Y-126625716D01*
X91925776Y-126628039D01*
X91925775Y-126628039D01*
X91728238Y-126720151D01*
X91728233Y-126720154D01*
X91723251Y-126722477D01*
X91618389Y-126795902D01*
X91540211Y-126850643D01*
X91540208Y-126850645D01*
X91535700Y-126853802D01*
X91373802Y-127015700D01*
X91242477Y-127203251D01*
X91240154Y-127208233D01*
X91240151Y-127208238D01*
X91240034Y-127208489D01*
X91145716Y-127410757D01*
X91144294Y-127416065D01*
X91144293Y-127416067D01*
X91096756Y-127593478D01*
X91086457Y-127631913D01*
X91066502Y-127860000D01*
X90008500Y-127860000D01*
X90008500Y-98955939D01*
X93317370Y-98955939D01*
X93317594Y-98960606D01*
X93317594Y-98960611D01*
X93323355Y-99080535D01*
X93329339Y-99205131D01*
X93378010Y-99449818D01*
X93462314Y-99684622D01*
X93580398Y-99904386D01*
X93729668Y-100104283D01*
X93906844Y-100279921D01*
X93910606Y-100282679D01*
X93910609Y-100282682D01*
X94022139Y-100364458D01*
X94108036Y-100427440D01*
X94112171Y-100429616D01*
X94112175Y-100429618D01*
X94227163Y-100490116D01*
X94328823Y-100543602D01*
X94459347Y-100589183D01*
X94558550Y-100623826D01*
X94564354Y-100625853D01*
X94568947Y-100626725D01*
X94804867Y-100671516D01*
X94804870Y-100671516D01*
X94809456Y-100672387D01*
X94934100Y-100677285D01*
X95054075Y-100681999D01*
X95054081Y-100681999D01*
X95058743Y-100682182D01*
X95148181Y-100672387D01*
X95302087Y-100655532D01*
X95302092Y-100655531D01*
X95306740Y-100655022D01*
X95313140Y-100653337D01*
X95543476Y-100592694D01*
X95543478Y-100592693D01*
X95547999Y-100591503D01*
X95553399Y-100589183D01*
X95772924Y-100494868D01*
X95772926Y-100494867D01*
X95777218Y-100493023D01*
X95879679Y-100429618D01*
X95985391Y-100364202D01*
X95985395Y-100364199D01*
X95989364Y-100361743D01*
X96179775Y-100200548D01*
X96261316Y-100107569D01*
X96341187Y-100016494D01*
X96341191Y-100016489D01*
X96344269Y-100012979D01*
X96360803Y-99987275D01*
X96476703Y-99807087D01*
X96479231Y-99803157D01*
X96581697Y-99575691D01*
X96583015Y-99571018D01*
X96648146Y-99340082D01*
X96648147Y-99340079D01*
X96649416Y-99335578D01*
X96680900Y-99088092D01*
X96680984Y-99084909D01*
X96682243Y-99036828D01*
X96683207Y-99000000D01*
X96679933Y-98955939D01*
X98317370Y-98955939D01*
X98317594Y-98960606D01*
X98317594Y-98960611D01*
X98323355Y-99080535D01*
X98329339Y-99205131D01*
X98378010Y-99449818D01*
X98462314Y-99684622D01*
X98580398Y-99904386D01*
X98729668Y-100104283D01*
X98906844Y-100279921D01*
X98910606Y-100282679D01*
X98910609Y-100282682D01*
X99022139Y-100364458D01*
X99108036Y-100427440D01*
X99112171Y-100429616D01*
X99112175Y-100429618D01*
X99227163Y-100490116D01*
X99328823Y-100543602D01*
X99459347Y-100589183D01*
X99558550Y-100623826D01*
X99564354Y-100625853D01*
X99568947Y-100626725D01*
X99804867Y-100671516D01*
X99804870Y-100671516D01*
X99809456Y-100672387D01*
X99934100Y-100677285D01*
X100054075Y-100681999D01*
X100054081Y-100681999D01*
X100058743Y-100682182D01*
X100148181Y-100672387D01*
X100302087Y-100655532D01*
X100302092Y-100655531D01*
X100306740Y-100655022D01*
X100313140Y-100653337D01*
X100543476Y-100592694D01*
X100543478Y-100592693D01*
X100547999Y-100591503D01*
X100553399Y-100589183D01*
X100772924Y-100494868D01*
X100772926Y-100494867D01*
X100777218Y-100493023D01*
X100879679Y-100429618D01*
X100985391Y-100364202D01*
X100985395Y-100364199D01*
X100989364Y-100361743D01*
X101000997Y-100351895D01*
X104012851Y-100351895D01*
X104021563Y-100363415D01*
X104104529Y-100424249D01*
X104112444Y-100429194D01*
X104324873Y-100540959D01*
X104333447Y-100544687D01*
X104560067Y-100623826D01*
X104569077Y-100626240D01*
X104804923Y-100671017D01*
X104814180Y-100672071D01*
X105054058Y-100681497D01*
X105063372Y-100681171D01*
X105301996Y-100655038D01*
X105311173Y-100653337D01*
X105543312Y-100592220D01*
X105552132Y-100589183D01*
X105772693Y-100494423D01*
X105780965Y-100490116D01*
X105984026Y-100364458D01*
X105990751Y-100354253D01*
X105984688Y-100343899D01*
X105012810Y-99372020D01*
X104998869Y-99364408D01*
X104997034Y-99364539D01*
X104990420Y-99368790D01*
X104019509Y-100339702D01*
X104012851Y-100351895D01*
X101000997Y-100351895D01*
X101179775Y-100200548D01*
X101261316Y-100107569D01*
X101341187Y-100016494D01*
X101341191Y-100016489D01*
X101344269Y-100012979D01*
X101360803Y-99987275D01*
X101476703Y-99807087D01*
X101479231Y-99803157D01*
X101581697Y-99575691D01*
X101583015Y-99571018D01*
X101648146Y-99340082D01*
X101648147Y-99340079D01*
X101649416Y-99335578D01*
X101680900Y-99088092D01*
X101680984Y-99084909D01*
X101682243Y-99036828D01*
X101683207Y-99000000D01*
X101680281Y-98960624D01*
X103318096Y-98960624D01*
X103329614Y-99200398D01*
X103330751Y-99209658D01*
X103377581Y-99445095D01*
X103380075Y-99454088D01*
X103461189Y-99680009D01*
X103464989Y-99688544D01*
X103578607Y-99899996D01*
X103583618Y-99907863D01*
X103636609Y-99978826D01*
X103647867Y-99987275D01*
X103660286Y-99980503D01*
X104627980Y-99012810D01*
X104634357Y-99001131D01*
X105364408Y-99001131D01*
X105364539Y-99002966D01*
X105368790Y-99009580D01*
X106342024Y-99982813D01*
X106354404Y-99989573D01*
X106362745Y-99983330D01*
X106476265Y-99806843D01*
X106480708Y-99798659D01*
X106579304Y-99579783D01*
X106582494Y-99571018D01*
X106647654Y-99339981D01*
X106649514Y-99330839D01*
X106680001Y-99091196D01*
X106680482Y-99084909D01*
X106682622Y-99003160D01*
X106682471Y-98996851D01*
X106664568Y-98755932D01*
X106663191Y-98746726D01*
X106610210Y-98512582D01*
X106607486Y-98503671D01*
X106520478Y-98279930D01*
X106516467Y-98271521D01*
X106397347Y-98063105D01*
X106392130Y-98055370D01*
X106364425Y-98020227D01*
X106352501Y-98011758D01*
X106340965Y-98018246D01*
X105372020Y-98987190D01*
X105364408Y-99001131D01*
X104634357Y-99001131D01*
X104635592Y-98998869D01*
X104635461Y-98997034D01*
X104631210Y-98990420D01*
X103658131Y-98017342D01*
X103644823Y-98010075D01*
X103634786Y-98017195D01*
X103633076Y-98019251D01*
X103627655Y-98026851D01*
X103503127Y-98232067D01*
X103498889Y-98240384D01*
X103406060Y-98461755D01*
X103403099Y-98470605D01*
X103344011Y-98703264D01*
X103342390Y-98712458D01*
X103318341Y-98951297D01*
X103318096Y-98960624D01*
X101680281Y-98960624D01*
X101664718Y-98751206D01*
X101609659Y-98507878D01*
X101577401Y-98424926D01*
X101571354Y-98354189D01*
X101605739Y-98290165D01*
X102249319Y-97646585D01*
X104010999Y-97646585D01*
X104015572Y-97656361D01*
X104987190Y-98627980D01*
X105001131Y-98635592D01*
X105002966Y-98635461D01*
X105009580Y-98631210D01*
X105980929Y-97659860D01*
X105987313Y-97648169D01*
X105977903Y-97636061D01*
X105857873Y-97552793D01*
X105849846Y-97548065D01*
X105634540Y-97441888D01*
X105625907Y-97438400D01*
X105397265Y-97365211D01*
X105388214Y-97363038D01*
X105151269Y-97324449D01*
X105141980Y-97323637D01*
X104901950Y-97320495D01*
X104892638Y-97321065D01*
X104654776Y-97353436D01*
X104645658Y-97355374D01*
X104415203Y-97422546D01*
X104406450Y-97425818D01*
X104188454Y-97526316D01*
X104180299Y-97530836D01*
X104020136Y-97635844D01*
X104010999Y-97646585D01*
X102249319Y-97646585D01*
X104305499Y-95590405D01*
X104367811Y-95556379D01*
X104394594Y-95553500D01*
X106400606Y-95553500D01*
X106468727Y-95573502D01*
X106503819Y-95607229D01*
X106597317Y-95740757D01*
X106613802Y-95764300D01*
X106775700Y-95926198D01*
X106780208Y-95929355D01*
X106780211Y-95929357D01*
X106826706Y-95961913D01*
X106963251Y-96057523D01*
X106968233Y-96059846D01*
X106968238Y-96059849D01*
X107165775Y-96151961D01*
X107170757Y-96154284D01*
X107176065Y-96155706D01*
X107176067Y-96155707D01*
X107386598Y-96212119D01*
X107386600Y-96212119D01*
X107391913Y-96213543D01*
X107620000Y-96233498D01*
X107848087Y-96213543D01*
X107853400Y-96212119D01*
X107853402Y-96212119D01*
X108063933Y-96155707D01*
X108063935Y-96155706D01*
X108069243Y-96154284D01*
X108074225Y-96151961D01*
X108271762Y-96059849D01*
X108271767Y-96059846D01*
X108276749Y-96057523D01*
X108413294Y-95961913D01*
X108459789Y-95929357D01*
X108459792Y-95929355D01*
X108464300Y-95926198D01*
X108626198Y-95764300D01*
X108646172Y-95735775D01*
X108684098Y-95681611D01*
X108757523Y-95576749D01*
X108759846Y-95571767D01*
X108759849Y-95571762D01*
X108851961Y-95374225D01*
X108851961Y-95374224D01*
X108854284Y-95369243D01*
X108860593Y-95345700D01*
X108912119Y-95153402D01*
X108912119Y-95153400D01*
X108913543Y-95148087D01*
X108933498Y-94920000D01*
X108913543Y-94691913D01*
X108854284Y-94470757D01*
X108844544Y-94449870D01*
X108759849Y-94268238D01*
X108759846Y-94268233D01*
X108757523Y-94263251D01*
X108644816Y-94102289D01*
X108629357Y-94080211D01*
X108629355Y-94080208D01*
X108626198Y-94075700D01*
X108464300Y-93913802D01*
X108459792Y-93910645D01*
X108459789Y-93910643D01*
X108322738Y-93814679D01*
X108276749Y-93782477D01*
X108271767Y-93780154D01*
X108271762Y-93780151D01*
X108074225Y-93688039D01*
X108074224Y-93688039D01*
X108069243Y-93685716D01*
X108063935Y-93684294D01*
X108063933Y-93684293D01*
X107853402Y-93627881D01*
X107853400Y-93627881D01*
X107848087Y-93626457D01*
X107620000Y-93606502D01*
X107391913Y-93626457D01*
X107386600Y-93627881D01*
X107386598Y-93627881D01*
X107176067Y-93684293D01*
X107176065Y-93684294D01*
X107170757Y-93685716D01*
X107165776Y-93688039D01*
X107165775Y-93688039D01*
X106968238Y-93780151D01*
X106968233Y-93780154D01*
X106963251Y-93782477D01*
X106917262Y-93814679D01*
X106780211Y-93910643D01*
X106780208Y-93910645D01*
X106775700Y-93913802D01*
X106613802Y-94075700D01*
X106610645Y-94080208D01*
X106610643Y-94080211D01*
X106503819Y-94232771D01*
X106448362Y-94277099D01*
X106400606Y-94286500D01*
X104158763Y-94286500D01*
X104147579Y-94285973D01*
X104140091Y-94284299D01*
X104132168Y-94284548D01*
X104072033Y-94286438D01*
X104068075Y-94286500D01*
X104040144Y-94286500D01*
X104036229Y-94286995D01*
X104036225Y-94286995D01*
X104036167Y-94287003D01*
X104036138Y-94287006D01*
X104024296Y-94287939D01*
X103980110Y-94289327D01*
X103962744Y-94294372D01*
X103960658Y-94294978D01*
X103941306Y-94298986D01*
X103934235Y-94299880D01*
X103921203Y-94301526D01*
X103913834Y-94304443D01*
X103913832Y-94304444D01*
X103880097Y-94317800D01*
X103868869Y-94321645D01*
X103826407Y-94333982D01*
X103819585Y-94338016D01*
X103819579Y-94338019D01*
X103808968Y-94344294D01*
X103791218Y-94352990D01*
X103779756Y-94357528D01*
X103779751Y-94357531D01*
X103772383Y-94360448D01*
X103765968Y-94365109D01*
X103736625Y-94386427D01*
X103726707Y-94392943D01*
X103708019Y-94403995D01*
X103688637Y-94415458D01*
X103674313Y-94429782D01*
X103659281Y-94442621D01*
X103642893Y-94454528D01*
X103614712Y-94488593D01*
X103606722Y-94497373D01*
X100710776Y-97393319D01*
X100648464Y-97427345D01*
X100583268Y-97424226D01*
X100578020Y-97422546D01*
X100392937Y-97363300D01*
X100388330Y-97362550D01*
X100388327Y-97362549D01*
X100187540Y-97329849D01*
X100146701Y-97323198D01*
X100025753Y-97321615D01*
X99901920Y-97319994D01*
X99901917Y-97319994D01*
X99897243Y-97319933D01*
X99650042Y-97353575D01*
X99645556Y-97354883D01*
X99645554Y-97354883D01*
X99617576Y-97363038D01*
X99410528Y-97423387D01*
X99406275Y-97425347D01*
X99406274Y-97425348D01*
X99401942Y-97427345D01*
X99183965Y-97527834D01*
X99180056Y-97530397D01*
X98979242Y-97662056D01*
X98979237Y-97662060D01*
X98975329Y-97664622D01*
X98789202Y-97830746D01*
X98629675Y-98022557D01*
X98500252Y-98235840D01*
X98498443Y-98240154D01*
X98498442Y-98240156D01*
X98477472Y-98290165D01*
X98403775Y-98465911D01*
X98402624Y-98470443D01*
X98402623Y-98470446D01*
X98394185Y-98503671D01*
X98342365Y-98707714D01*
X98317370Y-98955939D01*
X96679933Y-98955939D01*
X96664718Y-98751206D01*
X96609659Y-98507878D01*
X96595164Y-98470605D01*
X96520931Y-98279714D01*
X96520930Y-98279712D01*
X96519238Y-98275361D01*
X96494494Y-98232067D01*
X96473285Y-98194959D01*
X96395442Y-98058763D01*
X96240990Y-97862842D01*
X96059276Y-97691902D01*
X95858751Y-97552793D01*
X95858130Y-97552362D01*
X95858125Y-97552359D01*
X95854292Y-97549700D01*
X95850110Y-97547637D01*
X95850102Y-97547633D01*
X95634728Y-97441423D01*
X95634725Y-97441422D01*
X95630540Y-97439358D01*
X95392937Y-97363300D01*
X95388330Y-97362550D01*
X95388327Y-97362549D01*
X95187540Y-97329849D01*
X95146701Y-97323198D01*
X95025753Y-97321615D01*
X94901920Y-97319994D01*
X94901917Y-97319994D01*
X94897243Y-97319933D01*
X94650042Y-97353575D01*
X94645556Y-97354883D01*
X94645554Y-97354883D01*
X94617576Y-97363038D01*
X94410528Y-97423387D01*
X94406275Y-97425347D01*
X94406274Y-97425348D01*
X94401942Y-97427345D01*
X94183965Y-97527834D01*
X94180056Y-97530397D01*
X93979242Y-97662056D01*
X93979237Y-97662060D01*
X93975329Y-97664622D01*
X93789202Y-97830746D01*
X93629675Y-98022557D01*
X93500252Y-98235840D01*
X93498443Y-98240154D01*
X93498442Y-98240156D01*
X93477472Y-98290165D01*
X93403775Y-98465911D01*
X93402624Y-98470443D01*
X93402623Y-98470446D01*
X93394185Y-98503671D01*
X93342365Y-98707714D01*
X93317370Y-98955939D01*
X90008500Y-98955939D01*
X90008500Y-96190000D01*
X91066502Y-96190000D01*
X91086457Y-96418087D01*
X91145716Y-96639243D01*
X91148039Y-96644224D01*
X91148039Y-96644225D01*
X91240151Y-96841762D01*
X91240154Y-96841767D01*
X91242477Y-96846749D01*
X91373802Y-97034300D01*
X91535700Y-97196198D01*
X91540208Y-97199355D01*
X91540211Y-97199357D01*
X91618389Y-97254098D01*
X91723251Y-97327523D01*
X91728233Y-97329846D01*
X91728238Y-97329849D01*
X91925775Y-97421961D01*
X91930757Y-97424284D01*
X91936065Y-97425706D01*
X91936067Y-97425707D01*
X92146598Y-97482119D01*
X92146600Y-97482119D01*
X92151913Y-97483543D01*
X92380000Y-97503498D01*
X92608087Y-97483543D01*
X92613400Y-97482119D01*
X92613402Y-97482119D01*
X92823933Y-97425707D01*
X92823935Y-97425706D01*
X92829243Y-97424284D01*
X92834225Y-97421961D01*
X93031762Y-97329849D01*
X93031767Y-97329846D01*
X93036749Y-97327523D01*
X93141611Y-97254098D01*
X93219789Y-97199357D01*
X93219792Y-97199355D01*
X93224300Y-97196198D01*
X93386198Y-97034300D01*
X93517523Y-96846749D01*
X93519846Y-96841767D01*
X93519849Y-96841762D01*
X93611961Y-96644225D01*
X93611961Y-96644224D01*
X93614284Y-96639243D01*
X93673543Y-96418087D01*
X93693498Y-96190000D01*
X93673543Y-95961913D01*
X93621637Y-95768197D01*
X93615707Y-95746067D01*
X93615706Y-95746065D01*
X93614284Y-95740757D01*
X93611961Y-95735775D01*
X93519849Y-95538238D01*
X93519846Y-95538233D01*
X93517523Y-95533251D01*
X93444098Y-95428389D01*
X93389357Y-95350211D01*
X93389355Y-95350208D01*
X93386198Y-95345700D01*
X93224300Y-95183802D01*
X93219792Y-95180645D01*
X93219789Y-95180643D01*
X93067229Y-95073819D01*
X93022901Y-95018362D01*
X93013500Y-94970606D01*
X93013500Y-94504594D01*
X93033502Y-94436473D01*
X93050405Y-94415499D01*
X95333201Y-92132703D01*
X97890743Y-92132703D01*
X97928268Y-92417734D01*
X98004129Y-92695036D01*
X98116923Y-92959476D01*
X98264561Y-93206161D01*
X98444313Y-93430528D01*
X98652851Y-93628423D01*
X98886317Y-93796186D01*
X98890112Y-93798195D01*
X98890113Y-93798196D01*
X98911869Y-93809715D01*
X99140392Y-93930712D01*
X99164699Y-93939607D01*
X99362126Y-94011855D01*
X99410373Y-94029511D01*
X99691264Y-94090755D01*
X99719841Y-94093004D01*
X99914282Y-94108307D01*
X99914291Y-94108307D01*
X99916739Y-94108500D01*
X100072271Y-94108500D01*
X100074407Y-94108354D01*
X100074418Y-94108354D01*
X100282548Y-94094165D01*
X100282554Y-94094164D01*
X100286825Y-94093873D01*
X100291020Y-94093004D01*
X100291022Y-94093004D01*
X100472006Y-94055524D01*
X100568342Y-94035574D01*
X100839343Y-93939607D01*
X101014982Y-93848953D01*
X101091005Y-93809715D01*
X101091006Y-93809715D01*
X101094812Y-93807750D01*
X101098313Y-93805289D01*
X101098317Y-93805287D01*
X101242751Y-93703777D01*
X101330023Y-93642441D01*
X101540622Y-93446740D01*
X101722713Y-93224268D01*
X101872927Y-92979142D01*
X101988483Y-92715898D01*
X102067244Y-92439406D01*
X102107751Y-92154784D01*
X102107845Y-92136951D01*
X102109235Y-91871583D01*
X102109235Y-91871576D01*
X102109257Y-91867297D01*
X102071732Y-91582266D01*
X101995871Y-91304964D01*
X101883077Y-91040524D01*
X101735439Y-90793839D01*
X101555687Y-90569472D01*
X101347149Y-90371577D01*
X101113683Y-90203814D01*
X101091843Y-90192250D01*
X101068654Y-90179972D01*
X100859608Y-90069288D01*
X100589627Y-89970489D01*
X100308736Y-89909245D01*
X100277685Y-89906801D01*
X100085718Y-89891693D01*
X100085709Y-89891693D01*
X100083261Y-89891500D01*
X99927729Y-89891500D01*
X99925593Y-89891646D01*
X99925582Y-89891646D01*
X99717452Y-89905835D01*
X99717446Y-89905836D01*
X99713175Y-89906127D01*
X99708980Y-89906996D01*
X99708978Y-89906996D01*
X99572416Y-89935277D01*
X99431658Y-89964426D01*
X99160657Y-90060393D01*
X98905188Y-90192250D01*
X98901687Y-90194711D01*
X98901683Y-90194713D01*
X98891594Y-90201804D01*
X98669977Y-90357559D01*
X98459378Y-90553260D01*
X98277287Y-90775732D01*
X98127073Y-91020858D01*
X98011517Y-91284102D01*
X97932756Y-91560594D01*
X97892249Y-91845216D01*
X97892227Y-91849505D01*
X97892226Y-91849512D01*
X97890765Y-92128417D01*
X97890743Y-92132703D01*
X95333201Y-92132703D01*
X101083974Y-86381930D01*
X101146286Y-86347904D01*
X101217101Y-86352969D01*
X101273937Y-86395516D01*
X101294776Y-86438413D01*
X101305716Y-86479243D01*
X101308039Y-86484224D01*
X101308039Y-86484225D01*
X101400151Y-86681762D01*
X101400154Y-86681767D01*
X101402477Y-86686749D01*
X101533802Y-86874300D01*
X101695700Y-87036198D01*
X101700208Y-87039355D01*
X101700211Y-87039357D01*
X101778389Y-87094098D01*
X101883251Y-87167523D01*
X101888233Y-87169846D01*
X101888238Y-87169849D01*
X102084765Y-87261490D01*
X102090757Y-87264284D01*
X102096065Y-87265706D01*
X102096067Y-87265707D01*
X102306598Y-87322119D01*
X102306600Y-87322119D01*
X102311913Y-87323543D01*
X102540000Y-87343498D01*
X102768087Y-87323543D01*
X102773400Y-87322119D01*
X102773402Y-87322119D01*
X102983933Y-87265707D01*
X102983935Y-87265706D01*
X102989243Y-87264284D01*
X102995235Y-87261490D01*
X103191762Y-87169849D01*
X103191767Y-87169846D01*
X103196749Y-87167523D01*
X103301611Y-87094098D01*
X103379789Y-87039357D01*
X103379792Y-87039355D01*
X103384300Y-87036198D01*
X103546198Y-86874300D01*
X103677523Y-86686749D01*
X103679846Y-86681767D01*
X103679849Y-86681762D01*
X103771961Y-86484225D01*
X103771961Y-86484224D01*
X103774284Y-86479243D01*
X103809477Y-86347904D01*
X103832119Y-86263402D01*
X103832119Y-86263400D01*
X103833543Y-86258087D01*
X103853498Y-86030000D01*
X103833543Y-85801913D01*
X103823244Y-85763478D01*
X103775707Y-85586067D01*
X103775706Y-85586065D01*
X103774284Y-85580757D01*
X103771961Y-85575775D01*
X103679849Y-85378238D01*
X103679846Y-85378233D01*
X103677523Y-85373251D01*
X103604098Y-85268389D01*
X103549357Y-85190211D01*
X103549355Y-85190208D01*
X103546198Y-85185700D01*
X103479593Y-85119095D01*
X103445567Y-85056783D01*
X103450632Y-84985968D01*
X103479593Y-84940905D01*
X103546198Y-84874300D01*
X103677523Y-84686749D01*
X103679846Y-84681767D01*
X103679849Y-84681762D01*
X103771961Y-84484225D01*
X103771961Y-84484224D01*
X103774284Y-84479243D01*
X103797523Y-84392517D01*
X103832119Y-84263402D01*
X103832119Y-84263400D01*
X103833543Y-84258087D01*
X103853498Y-84030000D01*
X103833543Y-83801913D01*
X103832119Y-83796598D01*
X103775707Y-83586067D01*
X103775706Y-83586065D01*
X103774284Y-83580757D01*
X103771961Y-83575775D01*
X103679849Y-83378238D01*
X103679846Y-83378233D01*
X103677523Y-83373251D01*
X103546198Y-83185700D01*
X103384300Y-83023802D01*
X103379792Y-83020645D01*
X103379789Y-83020643D01*
X103301611Y-82965902D01*
X103196749Y-82892477D01*
X103191767Y-82890154D01*
X103191762Y-82890151D01*
X102994225Y-82798039D01*
X102994224Y-82798039D01*
X102989243Y-82795716D01*
X102983935Y-82794294D01*
X102983933Y-82794293D01*
X102773402Y-82737881D01*
X102773400Y-82737881D01*
X102768087Y-82736457D01*
X102540000Y-82716502D01*
X102311913Y-82736457D01*
X102306600Y-82737881D01*
X102306598Y-82737881D01*
X102096067Y-82794293D01*
X102096065Y-82794294D01*
X102090757Y-82795716D01*
X102085776Y-82798039D01*
X102085775Y-82798039D01*
X101888238Y-82890151D01*
X101888233Y-82890154D01*
X101883251Y-82892477D01*
X101778389Y-82965902D01*
X101700211Y-83020643D01*
X101700208Y-83020645D01*
X101695700Y-83023802D01*
X101533802Y-83185700D01*
X101402477Y-83373251D01*
X101400154Y-83378233D01*
X101400151Y-83378238D01*
X101308039Y-83575775D01*
X101305716Y-83580757D01*
X101304294Y-83586065D01*
X101304293Y-83586067D01*
X101247881Y-83796598D01*
X101246457Y-83801913D01*
X101226502Y-84030000D01*
X101246457Y-84258087D01*
X101247880Y-84263398D01*
X101247882Y-84263409D01*
X101263459Y-84321541D01*
X101261770Y-84392517D01*
X101230848Y-84443248D01*
X91987747Y-93686348D01*
X91979461Y-93693888D01*
X91972982Y-93698000D01*
X91967557Y-93703777D01*
X91926357Y-93747651D01*
X91923602Y-93750493D01*
X91903865Y-93770230D01*
X91901385Y-93773427D01*
X91893682Y-93782447D01*
X91863414Y-93814679D01*
X91859595Y-93821625D01*
X91859593Y-93821628D01*
X91853652Y-93832434D01*
X91842801Y-93848953D01*
X91830386Y-93864959D01*
X91827241Y-93872228D01*
X91827238Y-93872232D01*
X91812826Y-93905537D01*
X91807609Y-93916187D01*
X91786305Y-93954940D01*
X91784334Y-93962615D01*
X91784334Y-93962616D01*
X91781267Y-93974562D01*
X91774863Y-93993266D01*
X91766819Y-94011855D01*
X91765580Y-94019678D01*
X91765577Y-94019688D01*
X91759901Y-94055524D01*
X91757495Y-94067144D01*
X91751668Y-94089842D01*
X91746500Y-94109970D01*
X91746500Y-94130224D01*
X91744949Y-94149934D01*
X91741780Y-94169943D01*
X91742526Y-94177835D01*
X91745941Y-94213961D01*
X91746500Y-94225819D01*
X91746500Y-94970606D01*
X91726498Y-95038727D01*
X91692771Y-95073819D01*
X91540211Y-95180643D01*
X91540208Y-95180645D01*
X91535700Y-95183802D01*
X91373802Y-95345700D01*
X91370645Y-95350208D01*
X91370643Y-95350211D01*
X91315902Y-95428389D01*
X91242477Y-95533251D01*
X91240154Y-95538233D01*
X91240151Y-95538238D01*
X91148039Y-95735775D01*
X91145716Y-95740757D01*
X91144294Y-95746065D01*
X91144293Y-95746067D01*
X91138363Y-95768197D01*
X91086457Y-95961913D01*
X91066502Y-96190000D01*
X90008500Y-96190000D01*
X90008500Y-86296522D01*
X91097273Y-86296522D01*
X91144764Y-86473761D01*
X91148510Y-86484053D01*
X91240586Y-86681511D01*
X91246069Y-86691007D01*
X91371028Y-86869467D01*
X91378084Y-86877875D01*
X91532125Y-87031916D01*
X91540533Y-87038972D01*
X91718993Y-87163931D01*
X91728489Y-87169414D01*
X91925947Y-87261490D01*
X91936239Y-87265236D01*
X92108503Y-87311394D01*
X92122599Y-87311058D01*
X92126000Y-87303116D01*
X92126000Y-87297967D01*
X92634000Y-87297967D01*
X92637973Y-87311498D01*
X92646522Y-87312727D01*
X92823761Y-87265236D01*
X92834053Y-87261490D01*
X93031511Y-87169414D01*
X93041007Y-87163931D01*
X93219467Y-87038972D01*
X93227875Y-87031916D01*
X93381916Y-86877875D01*
X93388972Y-86869467D01*
X93513931Y-86691007D01*
X93519414Y-86681511D01*
X93611490Y-86484053D01*
X93615236Y-86473761D01*
X93661394Y-86301497D01*
X93661058Y-86287401D01*
X93653116Y-86284000D01*
X92652115Y-86284000D01*
X92636876Y-86288475D01*
X92635671Y-86289865D01*
X92634000Y-86297548D01*
X92634000Y-87297967D01*
X92126000Y-87297967D01*
X92126000Y-86302115D01*
X92121525Y-86286876D01*
X92120135Y-86285671D01*
X92112452Y-86284000D01*
X91112033Y-86284000D01*
X91098502Y-86287973D01*
X91097273Y-86296522D01*
X90008500Y-86296522D01*
X90008500Y-85758503D01*
X91098606Y-85758503D01*
X91098942Y-85772599D01*
X91106884Y-85776000D01*
X92107885Y-85776000D01*
X92123124Y-85771525D01*
X92124329Y-85770135D01*
X92126000Y-85762452D01*
X92126000Y-85757885D01*
X92634000Y-85757885D01*
X92638475Y-85773124D01*
X92639865Y-85774329D01*
X92647548Y-85776000D01*
X93647967Y-85776000D01*
X93661498Y-85772027D01*
X93662727Y-85763478D01*
X93615236Y-85586239D01*
X93611490Y-85575947D01*
X93519414Y-85378489D01*
X93513931Y-85368993D01*
X93388972Y-85190533D01*
X93381916Y-85182125D01*
X93227875Y-85028084D01*
X93219467Y-85021028D01*
X93041007Y-84896069D01*
X93031511Y-84890586D01*
X92834053Y-84798510D01*
X92823761Y-84794764D01*
X92651497Y-84748606D01*
X92637401Y-84748942D01*
X92634000Y-84756884D01*
X92634000Y-85757885D01*
X92126000Y-85757885D01*
X92126000Y-84762033D01*
X92122027Y-84748502D01*
X92113478Y-84747273D01*
X91936239Y-84794764D01*
X91925947Y-84798510D01*
X91728489Y-84890586D01*
X91718993Y-84896069D01*
X91540533Y-85021028D01*
X91532125Y-85028084D01*
X91378084Y-85182125D01*
X91371028Y-85190533D01*
X91246069Y-85368993D01*
X91240586Y-85378489D01*
X91148510Y-85575947D01*
X91144764Y-85586239D01*
X91098606Y-85758503D01*
X90008500Y-85758503D01*
X90008500Y-80960000D01*
X91106502Y-80960000D01*
X91126457Y-81188087D01*
X91127881Y-81193400D01*
X91127881Y-81193402D01*
X91165025Y-81332022D01*
X91185716Y-81409243D01*
X91188039Y-81414224D01*
X91188039Y-81414225D01*
X91280151Y-81611762D01*
X91280154Y-81611767D01*
X91282477Y-81616749D01*
X91413802Y-81804300D01*
X91575700Y-81966198D01*
X91580208Y-81969355D01*
X91580211Y-81969357D01*
X91658389Y-82024098D01*
X91763251Y-82097523D01*
X91768233Y-82099846D01*
X91768238Y-82099849D01*
X91964765Y-82191490D01*
X91970757Y-82194284D01*
X91976065Y-82195706D01*
X91976067Y-82195707D01*
X92186598Y-82252119D01*
X92186600Y-82252119D01*
X92191913Y-82253543D01*
X92420000Y-82273498D01*
X92648087Y-82253543D01*
X92653400Y-82252119D01*
X92653402Y-82252119D01*
X92863933Y-82195707D01*
X92863935Y-82195706D01*
X92869243Y-82194284D01*
X92875235Y-82191490D01*
X93071762Y-82099849D01*
X93071767Y-82099846D01*
X93076749Y-82097523D01*
X93181611Y-82024098D01*
X93259789Y-81969357D01*
X93259792Y-81969355D01*
X93264300Y-81966198D01*
X93426198Y-81804300D01*
X93557523Y-81616749D01*
X93559846Y-81611767D01*
X93559849Y-81611762D01*
X93651961Y-81414225D01*
X93651961Y-81414224D01*
X93654284Y-81409243D01*
X93674976Y-81332022D01*
X93712119Y-81193402D01*
X93712119Y-81193400D01*
X93713543Y-81188087D01*
X93733498Y-80960000D01*
X96106502Y-80960000D01*
X96126457Y-81188087D01*
X96127881Y-81193400D01*
X96127881Y-81193402D01*
X96165025Y-81332022D01*
X96185716Y-81409243D01*
X96188039Y-81414224D01*
X96188039Y-81414225D01*
X96280151Y-81611762D01*
X96280154Y-81611767D01*
X96282477Y-81616749D01*
X96413802Y-81804300D01*
X96575700Y-81966198D01*
X96580208Y-81969355D01*
X96580211Y-81969357D01*
X96658389Y-82024098D01*
X96763251Y-82097523D01*
X96768233Y-82099846D01*
X96768238Y-82099849D01*
X96964765Y-82191490D01*
X96970757Y-82194284D01*
X96976065Y-82195706D01*
X96976067Y-82195707D01*
X97186598Y-82252119D01*
X97186600Y-82252119D01*
X97191913Y-82253543D01*
X97420000Y-82273498D01*
X97648087Y-82253543D01*
X97653400Y-82252119D01*
X97653402Y-82252119D01*
X97863933Y-82195707D01*
X97863935Y-82195706D01*
X97869243Y-82194284D01*
X97875235Y-82191490D01*
X98071762Y-82099849D01*
X98071767Y-82099846D01*
X98076749Y-82097523D01*
X98150243Y-82046062D01*
X100588493Y-82046062D01*
X100597789Y-82058077D01*
X100648994Y-82093931D01*
X100658489Y-82099414D01*
X100855947Y-82191490D01*
X100866239Y-82195236D01*
X101076688Y-82251625D01*
X101087481Y-82253528D01*
X101304525Y-82272517D01*
X101315475Y-82272517D01*
X101532519Y-82253528D01*
X101543312Y-82251625D01*
X101753761Y-82195236D01*
X101764053Y-82191490D01*
X101961511Y-82099414D01*
X101971006Y-82093931D01*
X102023048Y-82057491D01*
X102031424Y-82047012D01*
X102024356Y-82033566D01*
X101322812Y-81332022D01*
X101308868Y-81324408D01*
X101307035Y-81324539D01*
X101300420Y-81328790D01*
X100594923Y-82034287D01*
X100588493Y-82046062D01*
X98150243Y-82046062D01*
X98181611Y-82024098D01*
X98259789Y-81969357D01*
X98259792Y-81969355D01*
X98264300Y-81966198D01*
X98426198Y-81804300D01*
X98557523Y-81616749D01*
X98559846Y-81611767D01*
X98559849Y-81611762D01*
X98651961Y-81414225D01*
X98651961Y-81414224D01*
X98654284Y-81409243D01*
X98674976Y-81332022D01*
X98712119Y-81193402D01*
X98712119Y-81193400D01*
X98713543Y-81188087D01*
X98733019Y-80965475D01*
X99997483Y-80965475D01*
X100016472Y-81182519D01*
X100018375Y-81193312D01*
X100074764Y-81403761D01*
X100078510Y-81414053D01*
X100170586Y-81611511D01*
X100176069Y-81621006D01*
X100212509Y-81673048D01*
X100222988Y-81681424D01*
X100236434Y-81674356D01*
X100937978Y-80972812D01*
X100944356Y-80961132D01*
X101674408Y-80961132D01*
X101674539Y-80962965D01*
X101678790Y-80969580D01*
X102384287Y-81675077D01*
X102396062Y-81681507D01*
X102408077Y-81672211D01*
X102443934Y-81621002D01*
X102450591Y-81609472D01*
X102501973Y-81560479D01*
X102571687Y-81547042D01*
X102637598Y-81573429D01*
X102668829Y-81609472D01*
X102670153Y-81611765D01*
X102672477Y-81616749D01*
X102803802Y-81804300D01*
X102965700Y-81966198D01*
X102970208Y-81969355D01*
X102970211Y-81969357D01*
X103048389Y-82024098D01*
X103153251Y-82097523D01*
X103158233Y-82099846D01*
X103158238Y-82099849D01*
X103354765Y-82191490D01*
X103360757Y-82194284D01*
X103366065Y-82195706D01*
X103366067Y-82195707D01*
X103576598Y-82252119D01*
X103576600Y-82252119D01*
X103581913Y-82253543D01*
X103810000Y-82273498D01*
X104038087Y-82253543D01*
X104043400Y-82252119D01*
X104043402Y-82252119D01*
X104253933Y-82195707D01*
X104253935Y-82195706D01*
X104259243Y-82194284D01*
X104265235Y-82191490D01*
X104461762Y-82099849D01*
X104461767Y-82099846D01*
X104466749Y-82097523D01*
X104571611Y-82024098D01*
X104649789Y-81969357D01*
X104649792Y-81969355D01*
X104654300Y-81966198D01*
X104816198Y-81804300D01*
X104947523Y-81616749D01*
X104949846Y-81611767D01*
X104949849Y-81611762D01*
X105041961Y-81414225D01*
X105041961Y-81414224D01*
X105044284Y-81409243D01*
X105064976Y-81332022D01*
X105102119Y-81193402D01*
X105102119Y-81193400D01*
X105103543Y-81188087D01*
X105123498Y-80960000D01*
X105103543Y-80731913D01*
X105091294Y-80686198D01*
X105045707Y-80516067D01*
X105045706Y-80516065D01*
X105044284Y-80510757D01*
X105041961Y-80505775D01*
X104949849Y-80308238D01*
X104949846Y-80308233D01*
X104947523Y-80303251D01*
X104874098Y-80198389D01*
X104819357Y-80120211D01*
X104819355Y-80120208D01*
X104816198Y-80115700D01*
X104654300Y-79953802D01*
X104649792Y-79950645D01*
X104649789Y-79950643D01*
X104523920Y-79862509D01*
X104466749Y-79822477D01*
X104461767Y-79820154D01*
X104461762Y-79820151D01*
X104264225Y-79728039D01*
X104264224Y-79728039D01*
X104259243Y-79725716D01*
X104253935Y-79724294D01*
X104253933Y-79724293D01*
X104043402Y-79667881D01*
X104043400Y-79667881D01*
X104038087Y-79666457D01*
X103810000Y-79646502D01*
X103581913Y-79666457D01*
X103576600Y-79667881D01*
X103576598Y-79667881D01*
X103366067Y-79724293D01*
X103366065Y-79724294D01*
X103360757Y-79725716D01*
X103355776Y-79728039D01*
X103355775Y-79728039D01*
X103158238Y-79820151D01*
X103158233Y-79820154D01*
X103153251Y-79822477D01*
X103096080Y-79862509D01*
X102970211Y-79950643D01*
X102970208Y-79950645D01*
X102965700Y-79953802D01*
X102803802Y-80115700D01*
X102800645Y-80120208D01*
X102800643Y-80120211D01*
X102728056Y-80223876D01*
X102672477Y-80303251D01*
X102670153Y-80308235D01*
X102668829Y-80310528D01*
X102617447Y-80359521D01*
X102547733Y-80372957D01*
X102481822Y-80346571D01*
X102450591Y-80310528D01*
X102443934Y-80298998D01*
X102407491Y-80246952D01*
X102397012Y-80238576D01*
X102383566Y-80245644D01*
X101682022Y-80947188D01*
X101674408Y-80961132D01*
X100944356Y-80961132D01*
X100945592Y-80958868D01*
X100945461Y-80957035D01*
X100941210Y-80950420D01*
X100235713Y-80244923D01*
X100223938Y-80238493D01*
X100211923Y-80247789D01*
X100176069Y-80298994D01*
X100170586Y-80308489D01*
X100078510Y-80505947D01*
X100074764Y-80516239D01*
X100018375Y-80726688D01*
X100016472Y-80737481D01*
X99997483Y-80954525D01*
X99997483Y-80965475D01*
X98733019Y-80965475D01*
X98733498Y-80960000D01*
X98713543Y-80731913D01*
X98701294Y-80686198D01*
X98655707Y-80516067D01*
X98655706Y-80516065D01*
X98654284Y-80510757D01*
X98651961Y-80505775D01*
X98559849Y-80308238D01*
X98559846Y-80308233D01*
X98557523Y-80303251D01*
X98484098Y-80198389D01*
X98429357Y-80120211D01*
X98429355Y-80120208D01*
X98426198Y-80115700D01*
X98264300Y-79953802D01*
X98259792Y-79950645D01*
X98259789Y-79950643D01*
X98148886Y-79872988D01*
X100588576Y-79872988D01*
X100595644Y-79886434D01*
X101297188Y-80587978D01*
X101311132Y-80595592D01*
X101312965Y-80595461D01*
X101319580Y-80591210D01*
X102025077Y-79885713D01*
X102031507Y-79873938D01*
X102022211Y-79861923D01*
X101971006Y-79826069D01*
X101961511Y-79820586D01*
X101764053Y-79728510D01*
X101753761Y-79724764D01*
X101543312Y-79668375D01*
X101532519Y-79666472D01*
X101315475Y-79647483D01*
X101304525Y-79647483D01*
X101087481Y-79666472D01*
X101076688Y-79668375D01*
X100866239Y-79724764D01*
X100855947Y-79728510D01*
X100658489Y-79820586D01*
X100648994Y-79826069D01*
X100596952Y-79862509D01*
X100588576Y-79872988D01*
X98148886Y-79872988D01*
X98133920Y-79862509D01*
X98076749Y-79822477D01*
X98071767Y-79820154D01*
X98071762Y-79820151D01*
X97874225Y-79728039D01*
X97874224Y-79728039D01*
X97869243Y-79725716D01*
X97863935Y-79724294D01*
X97863933Y-79724293D01*
X97653402Y-79667881D01*
X97653400Y-79667881D01*
X97648087Y-79666457D01*
X97420000Y-79646502D01*
X97191913Y-79666457D01*
X97186600Y-79667881D01*
X97186598Y-79667881D01*
X96976067Y-79724293D01*
X96976065Y-79724294D01*
X96970757Y-79725716D01*
X96965776Y-79728039D01*
X96965775Y-79728039D01*
X96768238Y-79820151D01*
X96768233Y-79820154D01*
X96763251Y-79822477D01*
X96706080Y-79862509D01*
X96580211Y-79950643D01*
X96580208Y-79950645D01*
X96575700Y-79953802D01*
X96413802Y-80115700D01*
X96410645Y-80120208D01*
X96410643Y-80120211D01*
X96355902Y-80198389D01*
X96282477Y-80303251D01*
X96280154Y-80308233D01*
X96280151Y-80308238D01*
X96188039Y-80505775D01*
X96185716Y-80510757D01*
X96184294Y-80516065D01*
X96184293Y-80516067D01*
X96138706Y-80686198D01*
X96126457Y-80731913D01*
X96106502Y-80960000D01*
X93733498Y-80960000D01*
X93713543Y-80731913D01*
X93701294Y-80686198D01*
X93655707Y-80516067D01*
X93655706Y-80516065D01*
X93654284Y-80510757D01*
X93651961Y-80505775D01*
X93559849Y-80308238D01*
X93559846Y-80308233D01*
X93557523Y-80303251D01*
X93484098Y-80198389D01*
X93429357Y-80120211D01*
X93429355Y-80120208D01*
X93426198Y-80115700D01*
X93264300Y-79953802D01*
X93259792Y-79950645D01*
X93259789Y-79950643D01*
X93133920Y-79862509D01*
X93076749Y-79822477D01*
X93071767Y-79820154D01*
X93071762Y-79820151D01*
X92874225Y-79728039D01*
X92874224Y-79728039D01*
X92869243Y-79725716D01*
X92863935Y-79724294D01*
X92863933Y-79724293D01*
X92653402Y-79667881D01*
X92653400Y-79667881D01*
X92648087Y-79666457D01*
X92420000Y-79646502D01*
X92191913Y-79666457D01*
X92186600Y-79667881D01*
X92186598Y-79667881D01*
X91976067Y-79724293D01*
X91976065Y-79724294D01*
X91970757Y-79725716D01*
X91965776Y-79728039D01*
X91965775Y-79728039D01*
X91768238Y-79820151D01*
X91768233Y-79820154D01*
X91763251Y-79822477D01*
X91706080Y-79862509D01*
X91580211Y-79950643D01*
X91580208Y-79950645D01*
X91575700Y-79953802D01*
X91413802Y-80115700D01*
X91410645Y-80120208D01*
X91410643Y-80120211D01*
X91355902Y-80198389D01*
X91282477Y-80303251D01*
X91280154Y-80308233D01*
X91280151Y-80308238D01*
X91188039Y-80505775D01*
X91185716Y-80510757D01*
X91184294Y-80516065D01*
X91184293Y-80516067D01*
X91138706Y-80686198D01*
X91126457Y-80731913D01*
X91106502Y-80960000D01*
X90008500Y-80960000D01*
X90008500Y-77150000D01*
X91066502Y-77150000D01*
X91086457Y-77378087D01*
X91087881Y-77383400D01*
X91087881Y-77383402D01*
X91141614Y-77583933D01*
X91145716Y-77599243D01*
X91148039Y-77604224D01*
X91148039Y-77604225D01*
X91240151Y-77801762D01*
X91240154Y-77801767D01*
X91242477Y-77806749D01*
X91277774Y-77857158D01*
X91369529Y-77988197D01*
X91373802Y-77994300D01*
X91535700Y-78156198D01*
X91540208Y-78159355D01*
X91540211Y-78159357D01*
X91579268Y-78186705D01*
X91723251Y-78287523D01*
X91728233Y-78289846D01*
X91728238Y-78289849D01*
X91912363Y-78375707D01*
X91930757Y-78384284D01*
X91936065Y-78385706D01*
X91936067Y-78385707D01*
X92146598Y-78442119D01*
X92146600Y-78442119D01*
X92151913Y-78443543D01*
X92380000Y-78463498D01*
X92608087Y-78443543D01*
X92613400Y-78442119D01*
X92613402Y-78442119D01*
X92823933Y-78385707D01*
X92823935Y-78385706D01*
X92829243Y-78384284D01*
X92847637Y-78375707D01*
X93031762Y-78289849D01*
X93031767Y-78289846D01*
X93036749Y-78287523D01*
X93180732Y-78186705D01*
X93219789Y-78159357D01*
X93219792Y-78159355D01*
X93224300Y-78156198D01*
X93386198Y-77994300D01*
X93389357Y-77989789D01*
X93496181Y-77837229D01*
X93551638Y-77792901D01*
X93599394Y-77783500D01*
X94365500Y-77783500D01*
X94433621Y-77803502D01*
X94480114Y-77857158D01*
X94491500Y-77909500D01*
X94491500Y-77988134D01*
X94498255Y-78050316D01*
X94549385Y-78186705D01*
X94636739Y-78303261D01*
X94753295Y-78390615D01*
X94889684Y-78441745D01*
X94951866Y-78448500D01*
X97448134Y-78448500D01*
X97510316Y-78441745D01*
X97646705Y-78390615D01*
X97763261Y-78303261D01*
X97850615Y-78186705D01*
X97901745Y-78050316D01*
X97908500Y-77988134D01*
X97908500Y-77140000D01*
X102106502Y-77140000D01*
X102126457Y-77368087D01*
X102127881Y-77373400D01*
X102127881Y-77373402D01*
X102129137Y-77378087D01*
X102185716Y-77589243D01*
X102188039Y-77594224D01*
X102188039Y-77594225D01*
X102280151Y-77791762D01*
X102280154Y-77791767D01*
X102282477Y-77796749D01*
X102324776Y-77857158D01*
X102398813Y-77962893D01*
X102413802Y-77984300D01*
X102575700Y-78146198D01*
X102580208Y-78149355D01*
X102580211Y-78149357D01*
X102589981Y-78156198D01*
X102763251Y-78277523D01*
X102768233Y-78279846D01*
X102768238Y-78279849D01*
X102965775Y-78371961D01*
X102970757Y-78374284D01*
X102976065Y-78375706D01*
X102976067Y-78375707D01*
X103186598Y-78432119D01*
X103186600Y-78432119D01*
X103191913Y-78433543D01*
X103285663Y-78441745D01*
X103360149Y-78448262D01*
X103360156Y-78448262D01*
X103362873Y-78448500D01*
X104277127Y-78448500D01*
X104279844Y-78448262D01*
X104279851Y-78448262D01*
X104354337Y-78441745D01*
X104448087Y-78433543D01*
X104453400Y-78432119D01*
X104453402Y-78432119D01*
X104663933Y-78375707D01*
X104663935Y-78375706D01*
X104669243Y-78374284D01*
X104674225Y-78371961D01*
X104871762Y-78279849D01*
X104871767Y-78279846D01*
X104876749Y-78277523D01*
X105050019Y-78156198D01*
X105059789Y-78149357D01*
X105059792Y-78149355D01*
X105064300Y-78146198D01*
X105226198Y-77984300D01*
X105241188Y-77962893D01*
X105315224Y-77857158D01*
X105357523Y-77796749D01*
X105359846Y-77791767D01*
X105359849Y-77791762D01*
X105451961Y-77594225D01*
X105451961Y-77594224D01*
X105454284Y-77589243D01*
X105494810Y-77437999D01*
X105531762Y-77377377D01*
X105595623Y-77346355D01*
X105666117Y-77354784D01*
X105705612Y-77381516D01*
X106800209Y-78476113D01*
X106834235Y-78538425D01*
X106829170Y-78609240D01*
X106784411Y-78667097D01*
X106784422Y-78667110D01*
X106784362Y-78667160D01*
X106783390Y-78668417D01*
X106780368Y-78670533D01*
X106775700Y-78673802D01*
X106613802Y-78835700D01*
X106482477Y-79023251D01*
X106480154Y-79028233D01*
X106480151Y-79028238D01*
X106388039Y-79225775D01*
X106385716Y-79230757D01*
X106326457Y-79451913D01*
X106306502Y-79680000D01*
X106326457Y-79908087D01*
X106327881Y-79913400D01*
X106327881Y-79913402D01*
X106339751Y-79957699D01*
X106385716Y-80129243D01*
X106388039Y-80134224D01*
X106388039Y-80134225D01*
X106480151Y-80331762D01*
X106480154Y-80331767D01*
X106482477Y-80336749D01*
X106507830Y-80372957D01*
X106608158Y-80516239D01*
X106613802Y-80524300D01*
X106775700Y-80686198D01*
X106780208Y-80689355D01*
X106780211Y-80689357D01*
X106858389Y-80744098D01*
X106963251Y-80817523D01*
X106968233Y-80819846D01*
X106968238Y-80819849D01*
X107128499Y-80894579D01*
X107170757Y-80914284D01*
X107176065Y-80915706D01*
X107176067Y-80915707D01*
X107386598Y-80972119D01*
X107386600Y-80972119D01*
X107391913Y-80973543D01*
X107620000Y-80993498D01*
X107848087Y-80973543D01*
X107952890Y-80945461D01*
X108023865Y-80947151D01*
X108082661Y-80986945D01*
X108110609Y-81052209D01*
X108111500Y-81067168D01*
X108111500Y-83320405D01*
X108091498Y-83388526D01*
X108074595Y-83409500D01*
X108033247Y-83450848D01*
X107970935Y-83484874D01*
X107911542Y-83483460D01*
X107848087Y-83466457D01*
X107620000Y-83446502D01*
X107391913Y-83466457D01*
X107386600Y-83467881D01*
X107386598Y-83467881D01*
X107176067Y-83524293D01*
X107176065Y-83524294D01*
X107170757Y-83525716D01*
X107165776Y-83528039D01*
X107165775Y-83528039D01*
X106968238Y-83620151D01*
X106968233Y-83620154D01*
X106963251Y-83622477D01*
X106927993Y-83647165D01*
X106780211Y-83750643D01*
X106780208Y-83750645D01*
X106775700Y-83753802D01*
X106613802Y-83915700D01*
X106482477Y-84103251D01*
X106480154Y-84108233D01*
X106480151Y-84108238D01*
X106388039Y-84305775D01*
X106385716Y-84310757D01*
X106384294Y-84316065D01*
X106384293Y-84316067D01*
X106341993Y-84473933D01*
X106326457Y-84531913D01*
X106306502Y-84760000D01*
X106326457Y-84988087D01*
X106327881Y-84993400D01*
X106327881Y-84993402D01*
X106380703Y-85190533D01*
X106385716Y-85209243D01*
X106388039Y-85214224D01*
X106388039Y-85214225D01*
X106480151Y-85411762D01*
X106480154Y-85411767D01*
X106482477Y-85416749D01*
X106485634Y-85421257D01*
X106601156Y-85586239D01*
X106613802Y-85604300D01*
X106775700Y-85766198D01*
X106780208Y-85769355D01*
X106780211Y-85769357D01*
X106826706Y-85801913D01*
X106963251Y-85897523D01*
X106968233Y-85899846D01*
X106968238Y-85899849D01*
X107165775Y-85991961D01*
X107170757Y-85994284D01*
X107176065Y-85995706D01*
X107176067Y-85995707D01*
X107386598Y-86052119D01*
X107386600Y-86052119D01*
X107391913Y-86053543D01*
X107620000Y-86073498D01*
X107848087Y-86053543D01*
X107853400Y-86052119D01*
X107853402Y-86052119D01*
X108063933Y-85995707D01*
X108063935Y-85995706D01*
X108069243Y-85994284D01*
X108074225Y-85991961D01*
X108271762Y-85899849D01*
X108271767Y-85899846D01*
X108276749Y-85897523D01*
X108413294Y-85801913D01*
X108459789Y-85769357D01*
X108459792Y-85769355D01*
X108464300Y-85766198D01*
X108626198Y-85604300D01*
X108638845Y-85586239D01*
X108754366Y-85421257D01*
X108757523Y-85416749D01*
X108759846Y-85411767D01*
X108759849Y-85411762D01*
X108851961Y-85214225D01*
X108851961Y-85214224D01*
X108854284Y-85209243D01*
X108859298Y-85190533D01*
X108912119Y-84993402D01*
X108912119Y-84993400D01*
X108913543Y-84988087D01*
X108933498Y-84760000D01*
X108913543Y-84531913D01*
X108912119Y-84526598D01*
X108912118Y-84526591D01*
X108896541Y-84468459D01*
X108898230Y-84397483D01*
X108929152Y-84346752D01*
X109137247Y-84138657D01*
X109145537Y-84131113D01*
X109152018Y-84127000D01*
X109198659Y-84077332D01*
X109201413Y-84074491D01*
X109221134Y-84054770D01*
X109223612Y-84051575D01*
X109231318Y-84042553D01*
X109256158Y-84016101D01*
X109261586Y-84010321D01*
X109271346Y-83992568D01*
X109282199Y-83976045D01*
X109289753Y-83966306D01*
X109294613Y-83960041D01*
X109312176Y-83919457D01*
X109317383Y-83908827D01*
X109338695Y-83870060D01*
X109340666Y-83862383D01*
X109340668Y-83862378D01*
X109343732Y-83850442D01*
X109350138Y-83831730D01*
X109355033Y-83820419D01*
X109358181Y-83813145D01*
X109359421Y-83805317D01*
X109359423Y-83805310D01*
X109365099Y-83769476D01*
X109367505Y-83757856D01*
X109376528Y-83722711D01*
X109376528Y-83722710D01*
X109378500Y-83715030D01*
X109378500Y-83694776D01*
X109380051Y-83675065D01*
X109381980Y-83662886D01*
X109383220Y-83655057D01*
X109379059Y-83611038D01*
X109378500Y-83599181D01*
X109378500Y-70723767D01*
X109379027Y-70712584D01*
X109380702Y-70705091D01*
X109379108Y-70654366D01*
X109378562Y-70637014D01*
X109378500Y-70633055D01*
X109378500Y-70605144D01*
X109377995Y-70601144D01*
X109377062Y-70589301D01*
X109375922Y-70553029D01*
X109375673Y-70545110D01*
X109370022Y-70525658D01*
X109366014Y-70506306D01*
X109364467Y-70494063D01*
X109363474Y-70486203D01*
X109360556Y-70478832D01*
X109347200Y-70445097D01*
X109343355Y-70433870D01*
X109342721Y-70431687D01*
X109331018Y-70391407D01*
X109326984Y-70384585D01*
X109326981Y-70384579D01*
X109320706Y-70373968D01*
X109312010Y-70356218D01*
X109307472Y-70344756D01*
X109307469Y-70344751D01*
X109304552Y-70337383D01*
X109278573Y-70301625D01*
X109272057Y-70291707D01*
X109253575Y-70260457D01*
X109249542Y-70253637D01*
X109235218Y-70239313D01*
X109222376Y-70224278D01*
X109210472Y-70207893D01*
X109176406Y-70179711D01*
X109167627Y-70171722D01*
X108929152Y-69933247D01*
X108895126Y-69870935D01*
X108896540Y-69811541D01*
X108903244Y-69786522D01*
X108913543Y-69748087D01*
X108933498Y-69520000D01*
X108913543Y-69291913D01*
X108905028Y-69260135D01*
X108855707Y-69076067D01*
X108855706Y-69076065D01*
X108854284Y-69070757D01*
X108851961Y-69065775D01*
X108759849Y-68868238D01*
X108759846Y-68868233D01*
X108757523Y-68863251D01*
X108629582Y-68680533D01*
X108629357Y-68680211D01*
X108629355Y-68680208D01*
X108626198Y-68675700D01*
X108464300Y-68513802D01*
X108459792Y-68510645D01*
X108459789Y-68510643D01*
X108381611Y-68455902D01*
X108276749Y-68382477D01*
X108271767Y-68380154D01*
X108271762Y-68380151D01*
X108074225Y-68288039D01*
X108074224Y-68288039D01*
X108069243Y-68285716D01*
X108063935Y-68284294D01*
X108063933Y-68284293D01*
X107853402Y-68227881D01*
X107853400Y-68227881D01*
X107848087Y-68226457D01*
X107620000Y-68206502D01*
X107391913Y-68226457D01*
X107386600Y-68227881D01*
X107386598Y-68227881D01*
X107176067Y-68284293D01*
X107176065Y-68284294D01*
X107170757Y-68285716D01*
X107165776Y-68288039D01*
X107165775Y-68288039D01*
X106968238Y-68380151D01*
X106968233Y-68380154D01*
X106963251Y-68382477D01*
X106858389Y-68455902D01*
X106780211Y-68510643D01*
X106780208Y-68510645D01*
X106775700Y-68513802D01*
X106613802Y-68675700D01*
X106610644Y-68680210D01*
X106610639Y-68680216D01*
X106498068Y-68840985D01*
X106442611Y-68885314D01*
X106398816Y-68894652D01*
X106346565Y-68896295D01*
X106342013Y-68896438D01*
X106338055Y-68896500D01*
X106310144Y-68896500D01*
X106306210Y-68896997D01*
X106306209Y-68896997D01*
X106306144Y-68897005D01*
X106294307Y-68897938D01*
X106262490Y-68898938D01*
X106258029Y-68899078D01*
X106250110Y-68899327D01*
X106232454Y-68904456D01*
X106230658Y-68904978D01*
X106211306Y-68908986D01*
X106204235Y-68909880D01*
X106191203Y-68911526D01*
X106183834Y-68914443D01*
X106183832Y-68914444D01*
X106150097Y-68927800D01*
X106138869Y-68931645D01*
X106096407Y-68943982D01*
X106089585Y-68948016D01*
X106089579Y-68948019D01*
X106078968Y-68954294D01*
X106061218Y-68962990D01*
X106049756Y-68967528D01*
X106049751Y-68967531D01*
X106042383Y-68970448D01*
X106035968Y-68975109D01*
X106006625Y-68996427D01*
X105996707Y-69002943D01*
X105978019Y-69013995D01*
X105958637Y-69025458D01*
X105944313Y-69039782D01*
X105929281Y-69052621D01*
X105912893Y-69064528D01*
X105903205Y-69076239D01*
X105884712Y-69098593D01*
X105876722Y-69107373D01*
X105705203Y-69278892D01*
X105642891Y-69312918D01*
X105572076Y-69307853D01*
X105515240Y-69265306D01*
X105494401Y-69222408D01*
X105455236Y-69076239D01*
X105451490Y-69065947D01*
X105359414Y-68868489D01*
X105353931Y-68858993D01*
X105228972Y-68680533D01*
X105221916Y-68672125D01*
X105067875Y-68518084D01*
X105059467Y-68511028D01*
X104881007Y-68386069D01*
X104871511Y-68380586D01*
X104674053Y-68288510D01*
X104663761Y-68284764D01*
X104453312Y-68228375D01*
X104442519Y-68226472D01*
X104279830Y-68212238D01*
X104274365Y-68212000D01*
X104092115Y-68212000D01*
X104076876Y-68216475D01*
X104075671Y-68217865D01*
X104074000Y-68225548D01*
X104074000Y-69648000D01*
X104053998Y-69716121D01*
X104000342Y-69762614D01*
X103948000Y-69774000D01*
X102152033Y-69774000D01*
X102138502Y-69777973D01*
X102137273Y-69786522D01*
X102184764Y-69963761D01*
X102188510Y-69974053D01*
X102280586Y-70171511D01*
X102286069Y-70181007D01*
X102411028Y-70359467D01*
X102418084Y-70367875D01*
X102572125Y-70521916D01*
X102580533Y-70528972D01*
X102758993Y-70653931D01*
X102768489Y-70659414D01*
X102803049Y-70675529D01*
X102856334Y-70722446D01*
X102875795Y-70790723D01*
X102855253Y-70858683D01*
X102803049Y-70903919D01*
X102768238Y-70920151D01*
X102768233Y-70920154D01*
X102763251Y-70922477D01*
X102748493Y-70932811D01*
X102580211Y-71050643D01*
X102580208Y-71050645D01*
X102575700Y-71053802D01*
X102413802Y-71215700D01*
X102282477Y-71403251D01*
X102280154Y-71408233D01*
X102280151Y-71408238D01*
X102240380Y-71493528D01*
X102185716Y-71610757D01*
X102126457Y-71831913D01*
X102106502Y-72060000D01*
X102126457Y-72288087D01*
X102185716Y-72509243D01*
X102188039Y-72514224D01*
X102188039Y-72514225D01*
X102280151Y-72711762D01*
X102280154Y-72711767D01*
X102282477Y-72716749D01*
X102413802Y-72904300D01*
X102575700Y-73066198D01*
X102580208Y-73069355D01*
X102580211Y-73069357D01*
X102658389Y-73124098D01*
X102763251Y-73197523D01*
X102768233Y-73199846D01*
X102768238Y-73199849D01*
X102802457Y-73215805D01*
X102855742Y-73262722D01*
X102875203Y-73330999D01*
X102854661Y-73398959D01*
X102802457Y-73444195D01*
X102768238Y-73460151D01*
X102768233Y-73460154D01*
X102763251Y-73462477D01*
X102658389Y-73535902D01*
X102580211Y-73590643D01*
X102580208Y-73590645D01*
X102575700Y-73593802D01*
X102413802Y-73755700D01*
X102282477Y-73943251D01*
X102280154Y-73948233D01*
X102280151Y-73948238D01*
X102188039Y-74145775D01*
X102185716Y-74150757D01*
X102126457Y-74371913D01*
X102106502Y-74600000D01*
X102126457Y-74828087D01*
X102185716Y-75049243D01*
X102188039Y-75054224D01*
X102188039Y-75054225D01*
X102280151Y-75251762D01*
X102280154Y-75251767D01*
X102282477Y-75256749D01*
X102413802Y-75444300D01*
X102575700Y-75606198D01*
X102580208Y-75609355D01*
X102580211Y-75609357D01*
X102594711Y-75619510D01*
X102763251Y-75737523D01*
X102768233Y-75739846D01*
X102768238Y-75739849D01*
X102802457Y-75755805D01*
X102855742Y-75802722D01*
X102875203Y-75870999D01*
X102854661Y-75938959D01*
X102802457Y-75984195D01*
X102768238Y-76000151D01*
X102768233Y-76000154D01*
X102763251Y-76002477D01*
X102748970Y-76012477D01*
X102580211Y-76130643D01*
X102580208Y-76130645D01*
X102575700Y-76133802D01*
X102413802Y-76295700D01*
X102410645Y-76300208D01*
X102410643Y-76300211D01*
X102406800Y-76305700D01*
X102282477Y-76483251D01*
X102280154Y-76488233D01*
X102280151Y-76488238D01*
X102188039Y-76685775D01*
X102185716Y-76690757D01*
X102184294Y-76696065D01*
X102184293Y-76696067D01*
X102127881Y-76906598D01*
X102126457Y-76911913D01*
X102106502Y-77140000D01*
X97908500Y-77140000D01*
X97908500Y-76291866D01*
X97901745Y-76229684D01*
X97850615Y-76093295D01*
X97763261Y-75976739D01*
X97646705Y-75889385D01*
X97510316Y-75838255D01*
X97499526Y-75837083D01*
X97497394Y-75836197D01*
X97494778Y-75835575D01*
X97494879Y-75835152D01*
X97433965Y-75809845D01*
X97393537Y-75751483D01*
X97391078Y-75680529D01*
X97427371Y-75619510D01*
X97436031Y-75612511D01*
X97439793Y-75609354D01*
X97444300Y-75606198D01*
X97606198Y-75444300D01*
X97737523Y-75256749D01*
X97739846Y-75251767D01*
X97739849Y-75251762D01*
X97831961Y-75054225D01*
X97831961Y-75054224D01*
X97834284Y-75049243D01*
X97893543Y-74828087D01*
X97913498Y-74600000D01*
X97893543Y-74371913D01*
X97834284Y-74150757D01*
X97831961Y-74145775D01*
X97739849Y-73948238D01*
X97739846Y-73948233D01*
X97737523Y-73943251D01*
X97606198Y-73755700D01*
X97444300Y-73593802D01*
X97439792Y-73590645D01*
X97439789Y-73590643D01*
X97361611Y-73535902D01*
X97256749Y-73462477D01*
X97251767Y-73460154D01*
X97251762Y-73460151D01*
X97216951Y-73443919D01*
X97163666Y-73397002D01*
X97144205Y-73328725D01*
X97164747Y-73260765D01*
X97216951Y-73215529D01*
X97251511Y-73199414D01*
X97261007Y-73193931D01*
X97439467Y-73068972D01*
X97447875Y-73061916D01*
X97601916Y-72907875D01*
X97608972Y-72899467D01*
X97733931Y-72721007D01*
X97739414Y-72711511D01*
X97831490Y-72514053D01*
X97835236Y-72503761D01*
X97881394Y-72331497D01*
X97881058Y-72317401D01*
X97873116Y-72314000D01*
X94532033Y-72314000D01*
X94518502Y-72317973D01*
X94517273Y-72326522D01*
X94564764Y-72503761D01*
X94568510Y-72514053D01*
X94660586Y-72711511D01*
X94666069Y-72721007D01*
X94791028Y-72899467D01*
X94798084Y-72907875D01*
X94952125Y-73061916D01*
X94960533Y-73068972D01*
X95138993Y-73193931D01*
X95148489Y-73199414D01*
X95183049Y-73215529D01*
X95236334Y-73262446D01*
X95255795Y-73330723D01*
X95235253Y-73398683D01*
X95183049Y-73443919D01*
X95148238Y-73460151D01*
X95148233Y-73460154D01*
X95143251Y-73462477D01*
X95038389Y-73535902D01*
X94960211Y-73590643D01*
X94960208Y-73590645D01*
X94955700Y-73593802D01*
X94793802Y-73755700D01*
X94662477Y-73943251D01*
X94660154Y-73948233D01*
X94660151Y-73948238D01*
X94568039Y-74145775D01*
X94565716Y-74150757D01*
X94506457Y-74371913D01*
X94486502Y-74600000D01*
X94506457Y-74828087D01*
X94565716Y-75049243D01*
X94568039Y-75054224D01*
X94568039Y-75054225D01*
X94660151Y-75251762D01*
X94660154Y-75251767D01*
X94662477Y-75256749D01*
X94793802Y-75444300D01*
X94955700Y-75606198D01*
X94960211Y-75609357D01*
X94964424Y-75612892D01*
X94963473Y-75614026D01*
X95003471Y-75664071D01*
X95010776Y-75734690D01*
X94978742Y-75798049D01*
X94917538Y-75834030D01*
X94900483Y-75837082D01*
X94889684Y-75838255D01*
X94753295Y-75889385D01*
X94636739Y-75976739D01*
X94549385Y-76093295D01*
X94498255Y-76229684D01*
X94491500Y-76291866D01*
X94491500Y-76390500D01*
X94471498Y-76458621D01*
X94417842Y-76505114D01*
X94365500Y-76516500D01*
X93599394Y-76516500D01*
X93531273Y-76496498D01*
X93496181Y-76462771D01*
X93389357Y-76310211D01*
X93389355Y-76310208D01*
X93386198Y-76305700D01*
X93224300Y-76143802D01*
X93219792Y-76140645D01*
X93219789Y-76140643D01*
X93141611Y-76085902D01*
X93036749Y-76012477D01*
X93031767Y-76010154D01*
X93031762Y-76010151D01*
X92834225Y-75918039D01*
X92834224Y-75918039D01*
X92829243Y-75915716D01*
X92823935Y-75914294D01*
X92823933Y-75914293D01*
X92613402Y-75857881D01*
X92613400Y-75857881D01*
X92608087Y-75856457D01*
X92380000Y-75836502D01*
X92151913Y-75856457D01*
X92146600Y-75857881D01*
X92146598Y-75857881D01*
X91936067Y-75914293D01*
X91936065Y-75914294D01*
X91930757Y-75915716D01*
X91925776Y-75918039D01*
X91925775Y-75918039D01*
X91728238Y-76010151D01*
X91728233Y-76010154D01*
X91723251Y-76012477D01*
X91618389Y-76085902D01*
X91540211Y-76140643D01*
X91540208Y-76140645D01*
X91535700Y-76143802D01*
X91373802Y-76305700D01*
X91242477Y-76493251D01*
X91240154Y-76498233D01*
X91240151Y-76498238D01*
X91152702Y-76685775D01*
X91145716Y-76700757D01*
X91144294Y-76706065D01*
X91144293Y-76706067D01*
X91087881Y-76916598D01*
X91086457Y-76921913D01*
X91066502Y-77150000D01*
X90008500Y-77150000D01*
X90008500Y-69520000D01*
X94486502Y-69520000D01*
X94506457Y-69748087D01*
X94507880Y-69753398D01*
X94507881Y-69753402D01*
X94523460Y-69811541D01*
X94565716Y-69969243D01*
X94568039Y-69974224D01*
X94568039Y-69974225D01*
X94660151Y-70171762D01*
X94660154Y-70171767D01*
X94662477Y-70176749D01*
X94701374Y-70232299D01*
X94790335Y-70359348D01*
X94793802Y-70364300D01*
X94955700Y-70526198D01*
X94960208Y-70529355D01*
X94960211Y-70529357D01*
X95038389Y-70584098D01*
X95143251Y-70657523D01*
X95148233Y-70659846D01*
X95148238Y-70659849D01*
X95183049Y-70676081D01*
X95236334Y-70722998D01*
X95255795Y-70791275D01*
X95235253Y-70859235D01*
X95183049Y-70904471D01*
X95148489Y-70920586D01*
X95138993Y-70926069D01*
X94960533Y-71051028D01*
X94952125Y-71058084D01*
X94798084Y-71212125D01*
X94791028Y-71220533D01*
X94666069Y-71398993D01*
X94660586Y-71408489D01*
X94568510Y-71605947D01*
X94564764Y-71616239D01*
X94518606Y-71788503D01*
X94518942Y-71802599D01*
X94526884Y-71806000D01*
X97867967Y-71806000D01*
X97881498Y-71802027D01*
X97882727Y-71793478D01*
X97835236Y-71616239D01*
X97831490Y-71605947D01*
X97739414Y-71408489D01*
X97733931Y-71398993D01*
X97608972Y-71220533D01*
X97601916Y-71212125D01*
X97447875Y-71058084D01*
X97439467Y-71051028D01*
X97261007Y-70926069D01*
X97251511Y-70920586D01*
X97216951Y-70904471D01*
X97163666Y-70857554D01*
X97144205Y-70789277D01*
X97164747Y-70721317D01*
X97216951Y-70676081D01*
X97251762Y-70659849D01*
X97251767Y-70659846D01*
X97256749Y-70657523D01*
X97361611Y-70584098D01*
X97439789Y-70529357D01*
X97439792Y-70529355D01*
X97444300Y-70526198D01*
X97606198Y-70364300D01*
X97609666Y-70359348D01*
X97698626Y-70232299D01*
X97737523Y-70176749D01*
X97739846Y-70171767D01*
X97739849Y-70171762D01*
X97831961Y-69974225D01*
X97831961Y-69974224D01*
X97834284Y-69969243D01*
X97876541Y-69811541D01*
X97892119Y-69753402D01*
X97892120Y-69753398D01*
X97893543Y-69748087D01*
X97913498Y-69520000D01*
X97893543Y-69291913D01*
X97885028Y-69260135D01*
X97881911Y-69248503D01*
X102138606Y-69248503D01*
X102138942Y-69262599D01*
X102146884Y-69266000D01*
X103547885Y-69266000D01*
X103563124Y-69261525D01*
X103564329Y-69260135D01*
X103566000Y-69252452D01*
X103566000Y-68230115D01*
X103561525Y-68214876D01*
X103560135Y-68213671D01*
X103552452Y-68212000D01*
X103365635Y-68212000D01*
X103360170Y-68212238D01*
X103197481Y-68226472D01*
X103186688Y-68228375D01*
X102976239Y-68284764D01*
X102965947Y-68288510D01*
X102768489Y-68380586D01*
X102758993Y-68386069D01*
X102580533Y-68511028D01*
X102572125Y-68518084D01*
X102418084Y-68672125D01*
X102411028Y-68680533D01*
X102286069Y-68858993D01*
X102280586Y-68868489D01*
X102188510Y-69065947D01*
X102184764Y-69076239D01*
X102138606Y-69248503D01*
X97881911Y-69248503D01*
X97835707Y-69076067D01*
X97835706Y-69076065D01*
X97834284Y-69070757D01*
X97831961Y-69065775D01*
X97739849Y-68868238D01*
X97739846Y-68868233D01*
X97737523Y-68863251D01*
X97609582Y-68680533D01*
X97609357Y-68680211D01*
X97609355Y-68680208D01*
X97606198Y-68675700D01*
X97444300Y-68513802D01*
X97439792Y-68510645D01*
X97439789Y-68510643D01*
X97361611Y-68455902D01*
X97256749Y-68382477D01*
X97251767Y-68380154D01*
X97251762Y-68380151D01*
X97054225Y-68288039D01*
X97054224Y-68288039D01*
X97049243Y-68285716D01*
X97043935Y-68284294D01*
X97043933Y-68284293D01*
X96833402Y-68227881D01*
X96833400Y-68227881D01*
X96828087Y-68226457D01*
X96728520Y-68217746D01*
X96659851Y-68211738D01*
X96659844Y-68211738D01*
X96657127Y-68211500D01*
X95742873Y-68211500D01*
X95740156Y-68211738D01*
X95740149Y-68211738D01*
X95671480Y-68217746D01*
X95571913Y-68226457D01*
X95566600Y-68227881D01*
X95566598Y-68227881D01*
X95356067Y-68284293D01*
X95356065Y-68284294D01*
X95350757Y-68285716D01*
X95345776Y-68288039D01*
X95345775Y-68288039D01*
X95148238Y-68380151D01*
X95148233Y-68380154D01*
X95143251Y-68382477D01*
X95038389Y-68455902D01*
X94960211Y-68510643D01*
X94960208Y-68510645D01*
X94955700Y-68513802D01*
X94793802Y-68675700D01*
X94790645Y-68680208D01*
X94790643Y-68680211D01*
X94790418Y-68680533D01*
X94662477Y-68863251D01*
X94660154Y-68868233D01*
X94660151Y-68868238D01*
X94568039Y-69065775D01*
X94565716Y-69070757D01*
X94564294Y-69076065D01*
X94564293Y-69076067D01*
X94514972Y-69260135D01*
X94506457Y-69291913D01*
X94486502Y-69520000D01*
X90008500Y-69520000D01*
X90008500Y-66990000D01*
X91066502Y-66990000D01*
X91086457Y-67218087D01*
X91145716Y-67439243D01*
X91148039Y-67444224D01*
X91148039Y-67444225D01*
X91240151Y-67641762D01*
X91240154Y-67641767D01*
X91242477Y-67646749D01*
X91373802Y-67834300D01*
X91535700Y-67996198D01*
X91540208Y-67999355D01*
X91540211Y-67999357D01*
X91618389Y-68054098D01*
X91723251Y-68127523D01*
X91728233Y-68129846D01*
X91728238Y-68129849D01*
X91904924Y-68212238D01*
X91930757Y-68224284D01*
X91936065Y-68225706D01*
X91936067Y-68225707D01*
X92146598Y-68282119D01*
X92146600Y-68282119D01*
X92151913Y-68283543D01*
X92380000Y-68303498D01*
X92608087Y-68283543D01*
X92613400Y-68282119D01*
X92613402Y-68282119D01*
X92823933Y-68225707D01*
X92823935Y-68225706D01*
X92829243Y-68224284D01*
X92855076Y-68212238D01*
X93031762Y-68129849D01*
X93031767Y-68129846D01*
X93036749Y-68127523D01*
X93141611Y-68054098D01*
X93219789Y-67999357D01*
X93219792Y-67999355D01*
X93224300Y-67996198D01*
X93386198Y-67834300D01*
X93517523Y-67646749D01*
X93519846Y-67641767D01*
X93519849Y-67641762D01*
X93611961Y-67444225D01*
X93611961Y-67444224D01*
X93614284Y-67439243D01*
X93673543Y-67218087D01*
X93693498Y-66990000D01*
X93673543Y-66761913D01*
X93621637Y-66568197D01*
X93615707Y-66546067D01*
X93615706Y-66546065D01*
X93614284Y-66540757D01*
X93611961Y-66535775D01*
X93519849Y-66338238D01*
X93519846Y-66338233D01*
X93517523Y-66333251D01*
X93444098Y-66228389D01*
X93389357Y-66150211D01*
X93389355Y-66150208D01*
X93386198Y-66145700D01*
X93224300Y-65983802D01*
X93219792Y-65980645D01*
X93219789Y-65980643D01*
X93141611Y-65925902D01*
X93036749Y-65852477D01*
X93031767Y-65850154D01*
X93031762Y-65850151D01*
X92834225Y-65758039D01*
X92834224Y-65758039D01*
X92829243Y-65755716D01*
X92823935Y-65754294D01*
X92823933Y-65754293D01*
X92695951Y-65720000D01*
X94916502Y-65720000D01*
X94936457Y-65948087D01*
X94937881Y-65953400D01*
X94937881Y-65953402D01*
X94989408Y-66145700D01*
X94995716Y-66169243D01*
X94998039Y-66174224D01*
X94998039Y-66174225D01*
X95090151Y-66371762D01*
X95090154Y-66371767D01*
X95092477Y-66376749D01*
X95095634Y-66381257D01*
X95203829Y-66535775D01*
X95223802Y-66564300D01*
X95385700Y-66726198D01*
X95390208Y-66729355D01*
X95390211Y-66729357D01*
X95436706Y-66761913D01*
X95573251Y-66857523D01*
X95578233Y-66859846D01*
X95578238Y-66859849D01*
X95774765Y-66951490D01*
X95780757Y-66954284D01*
X95786065Y-66955706D01*
X95786067Y-66955707D01*
X95996598Y-67012119D01*
X95996600Y-67012119D01*
X96001913Y-67013543D01*
X96230000Y-67033498D01*
X96458087Y-67013543D01*
X96463400Y-67012119D01*
X96463402Y-67012119D01*
X96673933Y-66955707D01*
X96673935Y-66955706D01*
X96679243Y-66954284D01*
X96685235Y-66951490D01*
X96881762Y-66859849D01*
X96881767Y-66859846D01*
X96886749Y-66857523D01*
X96960243Y-66806062D01*
X98008493Y-66806062D01*
X98017789Y-66818077D01*
X98068994Y-66853931D01*
X98078489Y-66859414D01*
X98275947Y-66951490D01*
X98286239Y-66955236D01*
X98496688Y-67011625D01*
X98507481Y-67013528D01*
X98724525Y-67032517D01*
X98735475Y-67032517D01*
X98952519Y-67013528D01*
X98963312Y-67011625D01*
X99173761Y-66955236D01*
X99184053Y-66951490D01*
X99381511Y-66859414D01*
X99391006Y-66853931D01*
X99443048Y-66817491D01*
X99451424Y-66807012D01*
X99444356Y-66793566D01*
X98742812Y-66092022D01*
X98728868Y-66084408D01*
X98727035Y-66084539D01*
X98720420Y-66088790D01*
X98014923Y-66794287D01*
X98008493Y-66806062D01*
X96960243Y-66806062D01*
X97023294Y-66761913D01*
X97069789Y-66729357D01*
X97069792Y-66729355D01*
X97074300Y-66726198D01*
X97236198Y-66564300D01*
X97256172Y-66535775D01*
X97364369Y-66381253D01*
X97367523Y-66376749D01*
X97369847Y-66371765D01*
X97371171Y-66369472D01*
X97422553Y-66320479D01*
X97492267Y-66307043D01*
X97558178Y-66333429D01*
X97589409Y-66369472D01*
X97596066Y-66381002D01*
X97632509Y-66433048D01*
X97642988Y-66441424D01*
X97656434Y-66434356D01*
X98357978Y-65732812D01*
X98364356Y-65721132D01*
X99094408Y-65721132D01*
X99094539Y-65722965D01*
X99098790Y-65729580D01*
X99804287Y-66435077D01*
X99816062Y-66441507D01*
X99828077Y-66432211D01*
X99863931Y-66381006D01*
X99869414Y-66371511D01*
X99961490Y-66174053D01*
X99965236Y-66163761D01*
X100021625Y-65953312D01*
X100023528Y-65942519D01*
X100042517Y-65725475D01*
X100042517Y-65720000D01*
X101266502Y-65720000D01*
X101286457Y-65948087D01*
X101287881Y-65953400D01*
X101287881Y-65953402D01*
X101339408Y-66145700D01*
X101345716Y-66169243D01*
X101348039Y-66174224D01*
X101348039Y-66174225D01*
X101440151Y-66371762D01*
X101440154Y-66371767D01*
X101442477Y-66376749D01*
X101445634Y-66381257D01*
X101553829Y-66535775D01*
X101573802Y-66564300D01*
X101735700Y-66726198D01*
X101740208Y-66729355D01*
X101740211Y-66729357D01*
X101786706Y-66761913D01*
X101923251Y-66857523D01*
X101928233Y-66859846D01*
X101928238Y-66859849D01*
X102124765Y-66951490D01*
X102130757Y-66954284D01*
X102136065Y-66955706D01*
X102136067Y-66955707D01*
X102346598Y-67012119D01*
X102346600Y-67012119D01*
X102351913Y-67013543D01*
X102580000Y-67033498D01*
X102808087Y-67013543D01*
X102813400Y-67012119D01*
X102813402Y-67012119D01*
X103023933Y-66955707D01*
X103023935Y-66955706D01*
X103029243Y-66954284D01*
X103035235Y-66951490D01*
X103231762Y-66859849D01*
X103231767Y-66859846D01*
X103236749Y-66857523D01*
X103373294Y-66761913D01*
X103419789Y-66729357D01*
X103419792Y-66729355D01*
X103424300Y-66726198D01*
X103586198Y-66564300D01*
X103606172Y-66535775D01*
X103714366Y-66381257D01*
X103717523Y-66376749D01*
X103719846Y-66371767D01*
X103719849Y-66371762D01*
X103811961Y-66174225D01*
X103811961Y-66174224D01*
X103814284Y-66169243D01*
X103820593Y-66145700D01*
X103872119Y-65953402D01*
X103872119Y-65953400D01*
X103873543Y-65948087D01*
X103893498Y-65720000D01*
X106266502Y-65720000D01*
X106286457Y-65948087D01*
X106287881Y-65953400D01*
X106287881Y-65953402D01*
X106339408Y-66145700D01*
X106345716Y-66169243D01*
X106348039Y-66174224D01*
X106348039Y-66174225D01*
X106440151Y-66371762D01*
X106440154Y-66371767D01*
X106442477Y-66376749D01*
X106445634Y-66381257D01*
X106553829Y-66535775D01*
X106573802Y-66564300D01*
X106735700Y-66726198D01*
X106740208Y-66729355D01*
X106740211Y-66729357D01*
X106786706Y-66761913D01*
X106923251Y-66857523D01*
X106928233Y-66859846D01*
X106928238Y-66859849D01*
X107124765Y-66951490D01*
X107130757Y-66954284D01*
X107136065Y-66955706D01*
X107136067Y-66955707D01*
X107346598Y-67012119D01*
X107346600Y-67012119D01*
X107351913Y-67013543D01*
X107580000Y-67033498D01*
X107808087Y-67013543D01*
X107813400Y-67012119D01*
X107813402Y-67012119D01*
X108023933Y-66955707D01*
X108023935Y-66955706D01*
X108029243Y-66954284D01*
X108035235Y-66951490D01*
X108231762Y-66859849D01*
X108231767Y-66859846D01*
X108236749Y-66857523D01*
X108373294Y-66761913D01*
X108419789Y-66729357D01*
X108419792Y-66729355D01*
X108424300Y-66726198D01*
X108586198Y-66564300D01*
X108606172Y-66535775D01*
X108714366Y-66381257D01*
X108717523Y-66376749D01*
X108719846Y-66371767D01*
X108719849Y-66371762D01*
X108811961Y-66174225D01*
X108811961Y-66174224D01*
X108814284Y-66169243D01*
X108820593Y-66145700D01*
X108872119Y-65953402D01*
X108872119Y-65953400D01*
X108873543Y-65948087D01*
X108893498Y-65720000D01*
X108873543Y-65491913D01*
X108836981Y-65355461D01*
X108815707Y-65276067D01*
X108815706Y-65276065D01*
X108814284Y-65270757D01*
X108743762Y-65119521D01*
X108719849Y-65068238D01*
X108719846Y-65068233D01*
X108717523Y-65063251D01*
X108586198Y-64875700D01*
X108424300Y-64713802D01*
X108419792Y-64710645D01*
X108419789Y-64710643D01*
X108293920Y-64622509D01*
X108236749Y-64582477D01*
X108231767Y-64580154D01*
X108231762Y-64580151D01*
X108034225Y-64488039D01*
X108034224Y-64488039D01*
X108029243Y-64485716D01*
X108023935Y-64484294D01*
X108023933Y-64484293D01*
X107813402Y-64427881D01*
X107813400Y-64427881D01*
X107808087Y-64426457D01*
X107580000Y-64406502D01*
X107351913Y-64426457D01*
X107346600Y-64427881D01*
X107346598Y-64427881D01*
X107136067Y-64484293D01*
X107136065Y-64484294D01*
X107130757Y-64485716D01*
X107125776Y-64488039D01*
X107125775Y-64488039D01*
X106928238Y-64580151D01*
X106928233Y-64580154D01*
X106923251Y-64582477D01*
X106866080Y-64622509D01*
X106740211Y-64710643D01*
X106740208Y-64710645D01*
X106735700Y-64713802D01*
X106573802Y-64875700D01*
X106442477Y-65063251D01*
X106440154Y-65068233D01*
X106440151Y-65068238D01*
X106416238Y-65119521D01*
X106345716Y-65270757D01*
X106344294Y-65276065D01*
X106344293Y-65276067D01*
X106323019Y-65355461D01*
X106286457Y-65491913D01*
X106266502Y-65720000D01*
X103893498Y-65720000D01*
X103873543Y-65491913D01*
X103836981Y-65355461D01*
X103815707Y-65276067D01*
X103815706Y-65276065D01*
X103814284Y-65270757D01*
X103743762Y-65119521D01*
X103719849Y-65068238D01*
X103719846Y-65068233D01*
X103717523Y-65063251D01*
X103586198Y-64875700D01*
X103424300Y-64713802D01*
X103419792Y-64710645D01*
X103419789Y-64710643D01*
X103293920Y-64622509D01*
X103236749Y-64582477D01*
X103231767Y-64580154D01*
X103231762Y-64580151D01*
X103034225Y-64488039D01*
X103034224Y-64488039D01*
X103029243Y-64485716D01*
X103023935Y-64484294D01*
X103023933Y-64484293D01*
X102813402Y-64427881D01*
X102813400Y-64427881D01*
X102808087Y-64426457D01*
X102580000Y-64406502D01*
X102351913Y-64426457D01*
X102346600Y-64427881D01*
X102346598Y-64427881D01*
X102136067Y-64484293D01*
X102136065Y-64484294D01*
X102130757Y-64485716D01*
X102125776Y-64488039D01*
X102125775Y-64488039D01*
X101928238Y-64580151D01*
X101928233Y-64580154D01*
X101923251Y-64582477D01*
X101866080Y-64622509D01*
X101740211Y-64710643D01*
X101740208Y-64710645D01*
X101735700Y-64713802D01*
X101573802Y-64875700D01*
X101442477Y-65063251D01*
X101440154Y-65068233D01*
X101440151Y-65068238D01*
X101416238Y-65119521D01*
X101345716Y-65270757D01*
X101344294Y-65276065D01*
X101344293Y-65276067D01*
X101323019Y-65355461D01*
X101286457Y-65491913D01*
X101266502Y-65720000D01*
X100042517Y-65720000D01*
X100042517Y-65714525D01*
X100023528Y-65497481D01*
X100021625Y-65486688D01*
X99965236Y-65276239D01*
X99961490Y-65265947D01*
X99869414Y-65068489D01*
X99863931Y-65058994D01*
X99827491Y-65006952D01*
X99817012Y-64998576D01*
X99803566Y-65005644D01*
X99102022Y-65707188D01*
X99094408Y-65721132D01*
X98364356Y-65721132D01*
X98365592Y-65718868D01*
X98365461Y-65717035D01*
X98361210Y-65710420D01*
X97655713Y-65004923D01*
X97643938Y-64998493D01*
X97631923Y-65007789D01*
X97596066Y-65058998D01*
X97589409Y-65070528D01*
X97538027Y-65119521D01*
X97468313Y-65132958D01*
X97402402Y-65106571D01*
X97371171Y-65070528D01*
X97369847Y-65068235D01*
X97367523Y-65063251D01*
X97236198Y-64875700D01*
X97074300Y-64713802D01*
X97069792Y-64710645D01*
X97069789Y-64710643D01*
X96958886Y-64632988D01*
X98008576Y-64632988D01*
X98015644Y-64646434D01*
X98717188Y-65347978D01*
X98731132Y-65355592D01*
X98732965Y-65355461D01*
X98739580Y-65351210D01*
X99445077Y-64645713D01*
X99451507Y-64633938D01*
X99442211Y-64621923D01*
X99391006Y-64586069D01*
X99381511Y-64580586D01*
X99184053Y-64488510D01*
X99173761Y-64484764D01*
X98963312Y-64428375D01*
X98952519Y-64426472D01*
X98735475Y-64407483D01*
X98724525Y-64407483D01*
X98507481Y-64426472D01*
X98496688Y-64428375D01*
X98286239Y-64484764D01*
X98275947Y-64488510D01*
X98078489Y-64580586D01*
X98068994Y-64586069D01*
X98016952Y-64622509D01*
X98008576Y-64632988D01*
X96958886Y-64632988D01*
X96943920Y-64622509D01*
X96886749Y-64582477D01*
X96881767Y-64580154D01*
X96881762Y-64580151D01*
X96684225Y-64488039D01*
X96684224Y-64488039D01*
X96679243Y-64485716D01*
X96673935Y-64484294D01*
X96673933Y-64484293D01*
X96463402Y-64427881D01*
X96463400Y-64427881D01*
X96458087Y-64426457D01*
X96230000Y-64406502D01*
X96001913Y-64426457D01*
X95996600Y-64427881D01*
X95996598Y-64427881D01*
X95786067Y-64484293D01*
X95786065Y-64484294D01*
X95780757Y-64485716D01*
X95775776Y-64488039D01*
X95775775Y-64488039D01*
X95578238Y-64580151D01*
X95578233Y-64580154D01*
X95573251Y-64582477D01*
X95516080Y-64622509D01*
X95390211Y-64710643D01*
X95390208Y-64710645D01*
X95385700Y-64713802D01*
X95223802Y-64875700D01*
X95092477Y-65063251D01*
X95090154Y-65068233D01*
X95090151Y-65068238D01*
X95066238Y-65119521D01*
X94995716Y-65270757D01*
X94994294Y-65276065D01*
X94994293Y-65276067D01*
X94973019Y-65355461D01*
X94936457Y-65491913D01*
X94916502Y-65720000D01*
X92695951Y-65720000D01*
X92613402Y-65697881D01*
X92613400Y-65697881D01*
X92608087Y-65696457D01*
X92380000Y-65676502D01*
X92151913Y-65696457D01*
X92146600Y-65697881D01*
X92146598Y-65697881D01*
X91936067Y-65754293D01*
X91936065Y-65754294D01*
X91930757Y-65755716D01*
X91925776Y-65758039D01*
X91925775Y-65758039D01*
X91728238Y-65850151D01*
X91728233Y-65850154D01*
X91723251Y-65852477D01*
X91618389Y-65925902D01*
X91540211Y-65980643D01*
X91540208Y-65980645D01*
X91535700Y-65983802D01*
X91373802Y-66145700D01*
X91370645Y-66150208D01*
X91370643Y-66150211D01*
X91315902Y-66228389D01*
X91242477Y-66333251D01*
X91240154Y-66338233D01*
X91240151Y-66338238D01*
X91148039Y-66535775D01*
X91145716Y-66540757D01*
X91144294Y-66546065D01*
X91144293Y-66546067D01*
X91138363Y-66568197D01*
X91086457Y-66761913D01*
X91066502Y-66990000D01*
X90008500Y-66990000D01*
X90008500Y-61910000D01*
X91066502Y-61910000D01*
X91086457Y-62138087D01*
X91087881Y-62143400D01*
X91087881Y-62143402D01*
X91141614Y-62343933D01*
X91145716Y-62359243D01*
X91148039Y-62364224D01*
X91148039Y-62364225D01*
X91240151Y-62561762D01*
X91240154Y-62561767D01*
X91242477Y-62566749D01*
X91245634Y-62571257D01*
X91369529Y-62748197D01*
X91373802Y-62754300D01*
X91535700Y-62916198D01*
X91540208Y-62919355D01*
X91540211Y-62919357D01*
X91618389Y-62974098D01*
X91723251Y-63047523D01*
X91728233Y-63049846D01*
X91728238Y-63049849D01*
X91912363Y-63135707D01*
X91930757Y-63144284D01*
X91936065Y-63145706D01*
X91936067Y-63145707D01*
X92146598Y-63202119D01*
X92146600Y-63202119D01*
X92151913Y-63203543D01*
X92380000Y-63223498D01*
X92608087Y-63203543D01*
X92613400Y-63202119D01*
X92613402Y-63202119D01*
X92823933Y-63145707D01*
X92823935Y-63145706D01*
X92829243Y-63144284D01*
X92847637Y-63135707D01*
X93031762Y-63049849D01*
X93031767Y-63049846D01*
X93036749Y-63047523D01*
X93141611Y-62974098D01*
X93219789Y-62919357D01*
X93219792Y-62919355D01*
X93224300Y-62916198D01*
X93386198Y-62754300D01*
X93390472Y-62748197D01*
X93514366Y-62571257D01*
X93517523Y-62566749D01*
X93519846Y-62561767D01*
X93519849Y-62561762D01*
X93611961Y-62364225D01*
X93611961Y-62364224D01*
X93614284Y-62359243D01*
X93618387Y-62343933D01*
X93672119Y-62143402D01*
X93672119Y-62143400D01*
X93673543Y-62138087D01*
X93693498Y-61910000D01*
X93692623Y-61900000D01*
X95846526Y-61900000D01*
X95866391Y-62152403D01*
X95925495Y-62398591D01*
X95927388Y-62403162D01*
X95927389Y-62403164D01*
X95997016Y-62571257D01*
X96022384Y-62632502D01*
X96154672Y-62848376D01*
X96319102Y-63040898D01*
X96511624Y-63205328D01*
X96727498Y-63337616D01*
X96732068Y-63339509D01*
X96732072Y-63339511D01*
X96956836Y-63432611D01*
X96961409Y-63434505D01*
X97046032Y-63454821D01*
X97202784Y-63492454D01*
X97202790Y-63492455D01*
X97207597Y-63493609D01*
X97460000Y-63513474D01*
X97712403Y-63493609D01*
X97717210Y-63492455D01*
X97717216Y-63492454D01*
X97873968Y-63454821D01*
X97958591Y-63434505D01*
X97963164Y-63432611D01*
X98187928Y-63339511D01*
X98187932Y-63339509D01*
X98192502Y-63337616D01*
X98408376Y-63205328D01*
X98600898Y-63040898D01*
X98765328Y-62848376D01*
X98897616Y-62632502D01*
X98922985Y-62571257D01*
X98992611Y-62403164D01*
X98992612Y-62403162D01*
X98994505Y-62398591D01*
X99053609Y-62152403D01*
X99073474Y-61900000D01*
X100926526Y-61900000D01*
X100946391Y-62152403D01*
X101005495Y-62398591D01*
X101007388Y-62403162D01*
X101007389Y-62403164D01*
X101077016Y-62571257D01*
X101102384Y-62632502D01*
X101234672Y-62848376D01*
X101399102Y-63040898D01*
X101591624Y-63205328D01*
X101807498Y-63337616D01*
X101812068Y-63339509D01*
X101812072Y-63339511D01*
X102036836Y-63432611D01*
X102041409Y-63434505D01*
X102126032Y-63454821D01*
X102282784Y-63492454D01*
X102282790Y-63492455D01*
X102287597Y-63493609D01*
X102540000Y-63513474D01*
X102792403Y-63493609D01*
X102797210Y-63492455D01*
X102797216Y-63492454D01*
X102953968Y-63454821D01*
X103038591Y-63434505D01*
X103043164Y-63432611D01*
X103267928Y-63339511D01*
X103267932Y-63339509D01*
X103272502Y-63337616D01*
X103488376Y-63205328D01*
X103680898Y-63040898D01*
X103845328Y-62848376D01*
X103977616Y-62632502D01*
X104002985Y-62571257D01*
X104072611Y-62403164D01*
X104072612Y-62403162D01*
X104074505Y-62398591D01*
X104133609Y-62152403D01*
X104153474Y-61900000D01*
X106306502Y-61900000D01*
X106326457Y-62128087D01*
X106327881Y-62133400D01*
X106327881Y-62133402D01*
X106329137Y-62138087D01*
X106385716Y-62349243D01*
X106388039Y-62354224D01*
X106388039Y-62354225D01*
X106480151Y-62551762D01*
X106480154Y-62551767D01*
X106482477Y-62556749D01*
X106613802Y-62744300D01*
X106775700Y-62906198D01*
X106780208Y-62909355D01*
X106780211Y-62909357D01*
X106789981Y-62916198D01*
X106963251Y-63037523D01*
X106968233Y-63039846D01*
X106968238Y-63039849D01*
X107165775Y-63131961D01*
X107170757Y-63134284D01*
X107176065Y-63135706D01*
X107176067Y-63135707D01*
X107386598Y-63192119D01*
X107386600Y-63192119D01*
X107391913Y-63193543D01*
X107620000Y-63213498D01*
X107848087Y-63193543D01*
X107853400Y-63192119D01*
X107853402Y-63192119D01*
X108063933Y-63135707D01*
X108063935Y-63135706D01*
X108069243Y-63134284D01*
X108074225Y-63131961D01*
X108271762Y-63039849D01*
X108271767Y-63039846D01*
X108276749Y-63037523D01*
X108450019Y-62916198D01*
X108459789Y-62909357D01*
X108459792Y-62909355D01*
X108464300Y-62906198D01*
X108626198Y-62744300D01*
X108757523Y-62556749D01*
X108759846Y-62551767D01*
X108759849Y-62551762D01*
X108851961Y-62354225D01*
X108851961Y-62354224D01*
X108854284Y-62349243D01*
X108910864Y-62138087D01*
X108912119Y-62133402D01*
X108912119Y-62133400D01*
X108913543Y-62128087D01*
X108933498Y-61900000D01*
X108913543Y-61671913D01*
X108905738Y-61642784D01*
X108855707Y-61456067D01*
X108855706Y-61456065D01*
X108854284Y-61450757D01*
X108831273Y-61401409D01*
X108759849Y-61248238D01*
X108759846Y-61248233D01*
X108757523Y-61243251D01*
X108633200Y-61065700D01*
X108629357Y-61060211D01*
X108629355Y-61060208D01*
X108626198Y-61055700D01*
X108464300Y-60893802D01*
X108459792Y-60890645D01*
X108459789Y-60890643D01*
X108291030Y-60772477D01*
X108276749Y-60762477D01*
X108271767Y-60760154D01*
X108271762Y-60760151D01*
X108074225Y-60668039D01*
X108074224Y-60668039D01*
X108069243Y-60665716D01*
X108063935Y-60664294D01*
X108063933Y-60664293D01*
X107853402Y-60607881D01*
X107853400Y-60607881D01*
X107848087Y-60606457D01*
X107620000Y-60586502D01*
X107391913Y-60606457D01*
X107386600Y-60607881D01*
X107386598Y-60607881D01*
X107176067Y-60664293D01*
X107176065Y-60664294D01*
X107170757Y-60665716D01*
X107165776Y-60668039D01*
X107165775Y-60668039D01*
X106968238Y-60760151D01*
X106968233Y-60760154D01*
X106963251Y-60762477D01*
X106948970Y-60772477D01*
X106780211Y-60890643D01*
X106780208Y-60890645D01*
X106775700Y-60893802D01*
X106613802Y-61055700D01*
X106610645Y-61060208D01*
X106610643Y-61060211D01*
X106606800Y-61065700D01*
X106482477Y-61243251D01*
X106480154Y-61248233D01*
X106480151Y-61248238D01*
X106408727Y-61401409D01*
X106385716Y-61450757D01*
X106384294Y-61456065D01*
X106384293Y-61456067D01*
X106334262Y-61642784D01*
X106326457Y-61671913D01*
X106306502Y-61900000D01*
X104153474Y-61900000D01*
X104133609Y-61647597D01*
X104074505Y-61401409D01*
X103977616Y-61167498D01*
X103845328Y-60951624D01*
X103680898Y-60759102D01*
X103488376Y-60594672D01*
X103272502Y-60462384D01*
X103267932Y-60460491D01*
X103267928Y-60460489D01*
X103043164Y-60367389D01*
X103043162Y-60367388D01*
X103038591Y-60365495D01*
X102953968Y-60345179D01*
X102797216Y-60307546D01*
X102797210Y-60307545D01*
X102792403Y-60306391D01*
X102540000Y-60286526D01*
X102287597Y-60306391D01*
X102282790Y-60307545D01*
X102282784Y-60307546D01*
X102126032Y-60345179D01*
X102041409Y-60365495D01*
X102036838Y-60367388D01*
X102036836Y-60367389D01*
X101812072Y-60460489D01*
X101812068Y-60460491D01*
X101807498Y-60462384D01*
X101591624Y-60594672D01*
X101399102Y-60759102D01*
X101234672Y-60951624D01*
X101102384Y-61167498D01*
X101005495Y-61401409D01*
X100946391Y-61647597D01*
X100926526Y-61900000D01*
X99073474Y-61900000D01*
X99053609Y-61647597D01*
X98994505Y-61401409D01*
X98897616Y-61167498D01*
X98765328Y-60951624D01*
X98600898Y-60759102D01*
X98408376Y-60594672D01*
X98192502Y-60462384D01*
X98187932Y-60460491D01*
X98187928Y-60460489D01*
X97963164Y-60367389D01*
X97963162Y-60367388D01*
X97958591Y-60365495D01*
X97873968Y-60345179D01*
X97717216Y-60307546D01*
X97717210Y-60307545D01*
X97712403Y-60306391D01*
X97460000Y-60286526D01*
X97207597Y-60306391D01*
X97202790Y-60307545D01*
X97202784Y-60307546D01*
X97046032Y-60345179D01*
X96961409Y-60365495D01*
X96956838Y-60367388D01*
X96956836Y-60367389D01*
X96732072Y-60460489D01*
X96732068Y-60460491D01*
X96727498Y-60462384D01*
X96511624Y-60594672D01*
X96319102Y-60759102D01*
X96154672Y-60951624D01*
X96022384Y-61167498D01*
X95925495Y-61401409D01*
X95866391Y-61647597D01*
X95846526Y-61900000D01*
X93692623Y-61900000D01*
X93673543Y-61681913D01*
X93672119Y-61676598D01*
X93615707Y-61466067D01*
X93615706Y-61466065D01*
X93614284Y-61460757D01*
X93586610Y-61401409D01*
X93519849Y-61258238D01*
X93519846Y-61258233D01*
X93517523Y-61253251D01*
X93386198Y-61065700D01*
X93224300Y-60903802D01*
X93219792Y-60900645D01*
X93219789Y-60900643D01*
X93141611Y-60845902D01*
X93036749Y-60772477D01*
X93031767Y-60770154D01*
X93031762Y-60770151D01*
X92834225Y-60678039D01*
X92834224Y-60678039D01*
X92829243Y-60675716D01*
X92823935Y-60674294D01*
X92823933Y-60674293D01*
X92613402Y-60617881D01*
X92613400Y-60617881D01*
X92608087Y-60616457D01*
X92380000Y-60596502D01*
X92151913Y-60616457D01*
X92146600Y-60617881D01*
X92146598Y-60617881D01*
X91936067Y-60674293D01*
X91936065Y-60674294D01*
X91930757Y-60675716D01*
X91925776Y-60678039D01*
X91925775Y-60678039D01*
X91728238Y-60770151D01*
X91728233Y-60770154D01*
X91723251Y-60772477D01*
X91618389Y-60845902D01*
X91540211Y-60900643D01*
X91540208Y-60900645D01*
X91535700Y-60903802D01*
X91373802Y-61065700D01*
X91242477Y-61253251D01*
X91240154Y-61258233D01*
X91240151Y-61258238D01*
X91173390Y-61401409D01*
X91145716Y-61460757D01*
X91144294Y-61466065D01*
X91144293Y-61466067D01*
X91087881Y-61676598D01*
X91086457Y-61681913D01*
X91066502Y-61910000D01*
X90008500Y-61910000D01*
X90008500Y-51750000D01*
X91066502Y-51750000D01*
X91086457Y-51978087D01*
X91087881Y-51983400D01*
X91087881Y-51983402D01*
X91141614Y-52183933D01*
X91145716Y-52199243D01*
X91148039Y-52204224D01*
X91148039Y-52204225D01*
X91240151Y-52401762D01*
X91240154Y-52401767D01*
X91242477Y-52406749D01*
X91277774Y-52457158D01*
X91369529Y-52588197D01*
X91373802Y-52594300D01*
X91535700Y-52756198D01*
X91540208Y-52759355D01*
X91540211Y-52759357D01*
X91618389Y-52814098D01*
X91723251Y-52887523D01*
X91728233Y-52889846D01*
X91728238Y-52889849D01*
X91912363Y-52975707D01*
X91930757Y-52984284D01*
X91936065Y-52985706D01*
X91936067Y-52985707D01*
X92146598Y-53042119D01*
X92146600Y-53042119D01*
X92151913Y-53043543D01*
X92380000Y-53063498D01*
X92608087Y-53043543D01*
X92613400Y-53042119D01*
X92613402Y-53042119D01*
X92823933Y-52985707D01*
X92823935Y-52985706D01*
X92829243Y-52984284D01*
X92847637Y-52975707D01*
X93031762Y-52889849D01*
X93031767Y-52889846D01*
X93036749Y-52887523D01*
X93141611Y-52814098D01*
X93219789Y-52759357D01*
X93219792Y-52759355D01*
X93224300Y-52756198D01*
X93386198Y-52594300D01*
X93389357Y-52589789D01*
X93496181Y-52437229D01*
X93551638Y-52392901D01*
X93599394Y-52383500D01*
X95725500Y-52383500D01*
X95793621Y-52403502D01*
X95840114Y-52457158D01*
X95851500Y-52509500D01*
X95851500Y-52888134D01*
X95858255Y-52950316D01*
X95909385Y-53086705D01*
X95996739Y-53203261D01*
X96113295Y-53290615D01*
X96249684Y-53341745D01*
X96311866Y-53348500D01*
X98608134Y-53348500D01*
X98670316Y-53341745D01*
X98806705Y-53290615D01*
X98923261Y-53203261D01*
X99010615Y-53086705D01*
X99061745Y-52950316D01*
X99068500Y-52888134D01*
X100931500Y-52888134D01*
X100938255Y-52950316D01*
X100989385Y-53086705D01*
X101076739Y-53203261D01*
X101193295Y-53290615D01*
X101329684Y-53341745D01*
X101391866Y-53348500D01*
X103688134Y-53348500D01*
X103750316Y-53341745D01*
X103886705Y-53290615D01*
X104003261Y-53203261D01*
X104090615Y-53086705D01*
X104141745Y-52950316D01*
X104148500Y-52888134D01*
X104148500Y-50591866D01*
X104141745Y-50529684D01*
X104090615Y-50393295D01*
X104003261Y-50276739D01*
X103886705Y-50189385D01*
X103750316Y-50138255D01*
X103688134Y-50131500D01*
X101391866Y-50131500D01*
X101329684Y-50138255D01*
X101193295Y-50189385D01*
X101076739Y-50276739D01*
X100989385Y-50393295D01*
X100938255Y-50529684D01*
X100931500Y-50591866D01*
X100931500Y-52888134D01*
X99068500Y-52888134D01*
X99068500Y-50591866D01*
X99061745Y-50529684D01*
X99010615Y-50393295D01*
X98923261Y-50276739D01*
X98806705Y-50189385D01*
X98670316Y-50138255D01*
X98608134Y-50131500D01*
X96311866Y-50131500D01*
X96249684Y-50138255D01*
X96113295Y-50189385D01*
X95996739Y-50276739D01*
X95909385Y-50393295D01*
X95858255Y-50529684D01*
X95851500Y-50591866D01*
X95851500Y-50990500D01*
X95831498Y-51058621D01*
X95777842Y-51105114D01*
X95725500Y-51116500D01*
X93599394Y-51116500D01*
X93531273Y-51096498D01*
X93496181Y-51062771D01*
X93389357Y-50910211D01*
X93389355Y-50910208D01*
X93386198Y-50905700D01*
X93224300Y-50743802D01*
X93219792Y-50740645D01*
X93219789Y-50740643D01*
X93141611Y-50685902D01*
X93036749Y-50612477D01*
X93031767Y-50610154D01*
X93031762Y-50610151D01*
X92834225Y-50518039D01*
X92834224Y-50518039D01*
X92829243Y-50515716D01*
X92823935Y-50514294D01*
X92823933Y-50514293D01*
X92613402Y-50457881D01*
X92613400Y-50457881D01*
X92608087Y-50456457D01*
X92380000Y-50436502D01*
X92151913Y-50456457D01*
X92146600Y-50457881D01*
X92146598Y-50457881D01*
X91936067Y-50514293D01*
X91936065Y-50514294D01*
X91930757Y-50515716D01*
X91925776Y-50518039D01*
X91925775Y-50518039D01*
X91728238Y-50610151D01*
X91728233Y-50610154D01*
X91723251Y-50612477D01*
X91618389Y-50685902D01*
X91540211Y-50740643D01*
X91540208Y-50740645D01*
X91535700Y-50743802D01*
X91373802Y-50905700D01*
X91242477Y-51093251D01*
X91240154Y-51098233D01*
X91240151Y-51098238D01*
X91152702Y-51285775D01*
X91145716Y-51300757D01*
X91144294Y-51306065D01*
X91144293Y-51306067D01*
X91087881Y-51516598D01*
X91086457Y-51521913D01*
X91066502Y-51750000D01*
X90008500Y-51750000D01*
X90008500Y-49016062D01*
X91738493Y-49016062D01*
X91747789Y-49028077D01*
X91798994Y-49063931D01*
X91808489Y-49069414D01*
X92005947Y-49161490D01*
X92016239Y-49165236D01*
X92226688Y-49221625D01*
X92237481Y-49223528D01*
X92454525Y-49242517D01*
X92465475Y-49242517D01*
X92682519Y-49223528D01*
X92693312Y-49221625D01*
X92903761Y-49165236D01*
X92914053Y-49161490D01*
X93111511Y-49069414D01*
X93121006Y-49063931D01*
X93173048Y-49027491D01*
X93181424Y-49017012D01*
X93174356Y-49003566D01*
X92472812Y-48302022D01*
X92458868Y-48294408D01*
X92457035Y-48294539D01*
X92450420Y-48298790D01*
X91744923Y-49004287D01*
X91738493Y-49016062D01*
X90008500Y-49016062D01*
X90008500Y-47935475D01*
X91147483Y-47935475D01*
X91166472Y-48152519D01*
X91168375Y-48163312D01*
X91224764Y-48373761D01*
X91228510Y-48384053D01*
X91320586Y-48581511D01*
X91326069Y-48591006D01*
X91362509Y-48643048D01*
X91372988Y-48651424D01*
X91386434Y-48644356D01*
X92087978Y-47942812D01*
X92094356Y-47931132D01*
X92824408Y-47931132D01*
X92824539Y-47932965D01*
X92828790Y-47939580D01*
X93534287Y-48645077D01*
X93546062Y-48651507D01*
X93558077Y-48642211D01*
X93593931Y-48591006D01*
X93599414Y-48581511D01*
X93691490Y-48384053D01*
X93695236Y-48373761D01*
X93751625Y-48163312D01*
X93753528Y-48152519D01*
X93772517Y-47935475D01*
X93772517Y-47930000D01*
X96146502Y-47930000D01*
X96166457Y-48158087D01*
X96167880Y-48163399D01*
X96167881Y-48163402D01*
X96205025Y-48302022D01*
X96225716Y-48379243D01*
X96228039Y-48384224D01*
X96228039Y-48384225D01*
X96320151Y-48581762D01*
X96320154Y-48581767D01*
X96322477Y-48586749D01*
X96453802Y-48774300D01*
X96615700Y-48936198D01*
X96620208Y-48939355D01*
X96620211Y-48939357D01*
X96698389Y-48994098D01*
X96803251Y-49067523D01*
X96808233Y-49069846D01*
X96808238Y-49069849D01*
X97004765Y-49161490D01*
X97010757Y-49164284D01*
X97016065Y-49165706D01*
X97016067Y-49165707D01*
X97226598Y-49222119D01*
X97226600Y-49222119D01*
X97231913Y-49223543D01*
X97460000Y-49243498D01*
X97688087Y-49223543D01*
X97693398Y-49222120D01*
X97693409Y-49222118D01*
X97751541Y-49206541D01*
X97822517Y-49208230D01*
X97873248Y-49239152D01*
X98080854Y-49446758D01*
X98088398Y-49455048D01*
X98092511Y-49461529D01*
X98098288Y-49466954D01*
X98142178Y-49508169D01*
X98145020Y-49510924D01*
X98164742Y-49530646D01*
X98167884Y-49533083D01*
X98167944Y-49533130D01*
X98176956Y-49540828D01*
X98202547Y-49564858D01*
X98209190Y-49571097D01*
X98216133Y-49574914D01*
X98226942Y-49580856D01*
X98243464Y-49591709D01*
X98259470Y-49604125D01*
X98266748Y-49607275D01*
X98266749Y-49607275D01*
X98300048Y-49621685D01*
X98310698Y-49626902D01*
X98349451Y-49648206D01*
X98357126Y-49650177D01*
X98357127Y-49650177D01*
X98369073Y-49653244D01*
X98387778Y-49659648D01*
X98406366Y-49667692D01*
X98414189Y-49668931D01*
X98414199Y-49668934D01*
X98450035Y-49674610D01*
X98461655Y-49677016D01*
X98496800Y-49686039D01*
X98504481Y-49688011D01*
X98524735Y-49688011D01*
X98544445Y-49689562D01*
X98564454Y-49692731D01*
X98572346Y-49691985D01*
X98608472Y-49688570D01*
X98620330Y-49688011D01*
X104619917Y-49688011D01*
X104688038Y-49708013D01*
X104709012Y-49724916D01*
X106310848Y-51326752D01*
X106344874Y-51389064D01*
X106343459Y-51448459D01*
X106327882Y-51506591D01*
X106327881Y-51506598D01*
X106326457Y-51511913D01*
X106306502Y-51740000D01*
X106326457Y-51968087D01*
X106327881Y-51973400D01*
X106327881Y-51973402D01*
X106329137Y-51978087D01*
X106385716Y-52189243D01*
X106388039Y-52194224D01*
X106388039Y-52194225D01*
X106480151Y-52391762D01*
X106480154Y-52391767D01*
X106482477Y-52396749D01*
X106613802Y-52584300D01*
X106775700Y-52746198D01*
X106780208Y-52749355D01*
X106780211Y-52749357D01*
X106789981Y-52756198D01*
X106963251Y-52877523D01*
X106968233Y-52879846D01*
X106968238Y-52879849D01*
X107119357Y-52950316D01*
X107170757Y-52974284D01*
X107176065Y-52975706D01*
X107176067Y-52975707D01*
X107386598Y-53032119D01*
X107386600Y-53032119D01*
X107391913Y-53033543D01*
X107620000Y-53053498D01*
X107848087Y-53033543D01*
X107853400Y-53032119D01*
X107853402Y-53032119D01*
X108063933Y-52975707D01*
X108063935Y-52975706D01*
X108069243Y-52974284D01*
X108120643Y-52950316D01*
X108271762Y-52879849D01*
X108271767Y-52879846D01*
X108276749Y-52877523D01*
X108450019Y-52756198D01*
X108459789Y-52749357D01*
X108459792Y-52749355D01*
X108464300Y-52746198D01*
X108626198Y-52584300D01*
X108757523Y-52396749D01*
X108759846Y-52391767D01*
X108759849Y-52391762D01*
X108851961Y-52194225D01*
X108851961Y-52194224D01*
X108854284Y-52189243D01*
X108910864Y-51978087D01*
X108912119Y-51973402D01*
X108912119Y-51973400D01*
X108913543Y-51968087D01*
X108933498Y-51740000D01*
X108913543Y-51511913D01*
X108912117Y-51506591D01*
X108855707Y-51296067D01*
X108855706Y-51296065D01*
X108854284Y-51290757D01*
X108851961Y-51285775D01*
X108759849Y-51088238D01*
X108759846Y-51088233D01*
X108757523Y-51083251D01*
X108633200Y-50905700D01*
X108629357Y-50900211D01*
X108629355Y-50900208D01*
X108626198Y-50895700D01*
X108464300Y-50733802D01*
X108459792Y-50730645D01*
X108459789Y-50730643D01*
X108291030Y-50612477D01*
X108276749Y-50602477D01*
X108271767Y-50600154D01*
X108271762Y-50600151D01*
X108074225Y-50508039D01*
X108074224Y-50508039D01*
X108069243Y-50505716D01*
X108063935Y-50504294D01*
X108063933Y-50504293D01*
X107853402Y-50447881D01*
X107853400Y-50447881D01*
X107848087Y-50446457D01*
X107620000Y-50426502D01*
X107391913Y-50446457D01*
X107386602Y-50447880D01*
X107386591Y-50447882D01*
X107328459Y-50463459D01*
X107257483Y-50461770D01*
X107206752Y-50430848D01*
X106341577Y-49565672D01*
X105791967Y-49016062D01*
X106858493Y-49016062D01*
X106867789Y-49028077D01*
X106918994Y-49063931D01*
X106928489Y-49069414D01*
X107125947Y-49161490D01*
X107136239Y-49165236D01*
X107346688Y-49221625D01*
X107357481Y-49223528D01*
X107574525Y-49242517D01*
X107585475Y-49242517D01*
X107802519Y-49223528D01*
X107813312Y-49221625D01*
X108023761Y-49165236D01*
X108034053Y-49161490D01*
X108231511Y-49069414D01*
X108241006Y-49063931D01*
X108293048Y-49027491D01*
X108301424Y-49017012D01*
X108294356Y-49003566D01*
X107592812Y-48302022D01*
X107578868Y-48294408D01*
X107577035Y-48294539D01*
X107570420Y-48298790D01*
X106864923Y-49004287D01*
X106858493Y-49016062D01*
X105791967Y-49016062D01*
X105438163Y-48662258D01*
X105430623Y-48653972D01*
X105426511Y-48647493D01*
X105376859Y-48600867D01*
X105374018Y-48598113D01*
X105354281Y-48578376D01*
X105351084Y-48575896D01*
X105342062Y-48568191D01*
X105315611Y-48543352D01*
X105309832Y-48537925D01*
X105302886Y-48534106D01*
X105302883Y-48534104D01*
X105292077Y-48528163D01*
X105275558Y-48517312D01*
X105275094Y-48516952D01*
X105259552Y-48504897D01*
X105252283Y-48501752D01*
X105252279Y-48501749D01*
X105218974Y-48487337D01*
X105208324Y-48482120D01*
X105169571Y-48460816D01*
X105149948Y-48455778D01*
X105131245Y-48449374D01*
X105119931Y-48444478D01*
X105119930Y-48444478D01*
X105112656Y-48441330D01*
X105104833Y-48440091D01*
X105104823Y-48440088D01*
X105068987Y-48434412D01*
X105057367Y-48432006D01*
X105022222Y-48422983D01*
X105022221Y-48422983D01*
X105014541Y-48421011D01*
X104994287Y-48421011D01*
X104974576Y-48419460D01*
X104962397Y-48417531D01*
X104954568Y-48416291D01*
X104946676Y-48417037D01*
X104910550Y-48420452D01*
X104898692Y-48421011D01*
X103967299Y-48421011D01*
X103899178Y-48401009D01*
X103852685Y-48347353D01*
X103842581Y-48277079D01*
X103845592Y-48262399D01*
X103856540Y-48221541D01*
X103873543Y-48158087D01*
X103893019Y-47935475D01*
X106267483Y-47935475D01*
X106286472Y-48152519D01*
X106288375Y-48163312D01*
X106344764Y-48373761D01*
X106348510Y-48384053D01*
X106440586Y-48581511D01*
X106446069Y-48591006D01*
X106482509Y-48643048D01*
X106492988Y-48651424D01*
X106506434Y-48644356D01*
X107207978Y-47942812D01*
X107214356Y-47931132D01*
X107944408Y-47931132D01*
X107944539Y-47932965D01*
X107948790Y-47939580D01*
X108654287Y-48645077D01*
X108666062Y-48651507D01*
X108678077Y-48642211D01*
X108713931Y-48591006D01*
X108719414Y-48581511D01*
X108811490Y-48384053D01*
X108815236Y-48373761D01*
X108871625Y-48163312D01*
X108873528Y-48152519D01*
X108892517Y-47935475D01*
X108892517Y-47924525D01*
X108873528Y-47707481D01*
X108871625Y-47696688D01*
X108815236Y-47486239D01*
X108811490Y-47475947D01*
X108719414Y-47278489D01*
X108713931Y-47268994D01*
X108677491Y-47216952D01*
X108667012Y-47208576D01*
X108653566Y-47215644D01*
X107952022Y-47917188D01*
X107944408Y-47931132D01*
X107214356Y-47931132D01*
X107215592Y-47928868D01*
X107215461Y-47927035D01*
X107211210Y-47920420D01*
X106505713Y-47214923D01*
X106493938Y-47208493D01*
X106481923Y-47217789D01*
X106446069Y-47268994D01*
X106440586Y-47278489D01*
X106348510Y-47475947D01*
X106344764Y-47486239D01*
X106288375Y-47696688D01*
X106286472Y-47707481D01*
X106267483Y-47924525D01*
X106267483Y-47935475D01*
X103893019Y-47935475D01*
X103893498Y-47930000D01*
X103873543Y-47701913D01*
X103836981Y-47565461D01*
X103815707Y-47486067D01*
X103815706Y-47486065D01*
X103814284Y-47480757D01*
X103719966Y-47278489D01*
X103719849Y-47278238D01*
X103719846Y-47278233D01*
X103717523Y-47273251D01*
X103586198Y-47085700D01*
X103424300Y-46923802D01*
X103419792Y-46920645D01*
X103419789Y-46920643D01*
X103308886Y-46842988D01*
X106858576Y-46842988D01*
X106865644Y-46856434D01*
X107567188Y-47557978D01*
X107581132Y-47565592D01*
X107582965Y-47565461D01*
X107589580Y-47561210D01*
X108295077Y-46855713D01*
X108301507Y-46843938D01*
X108292211Y-46831923D01*
X108241006Y-46796069D01*
X108231511Y-46790586D01*
X108034053Y-46698510D01*
X108023761Y-46694764D01*
X107813312Y-46638375D01*
X107802519Y-46636472D01*
X107585475Y-46617483D01*
X107574525Y-46617483D01*
X107357481Y-46636472D01*
X107346688Y-46638375D01*
X107136239Y-46694764D01*
X107125947Y-46698510D01*
X106928489Y-46790586D01*
X106918994Y-46796069D01*
X106866952Y-46832509D01*
X106858576Y-46842988D01*
X103308886Y-46842988D01*
X103293920Y-46832509D01*
X103236749Y-46792477D01*
X103231767Y-46790154D01*
X103231762Y-46790151D01*
X103034225Y-46698039D01*
X103034224Y-46698039D01*
X103029243Y-46695716D01*
X103023935Y-46694294D01*
X103023933Y-46694293D01*
X102813402Y-46637881D01*
X102813400Y-46637881D01*
X102808087Y-46636457D01*
X102580000Y-46616502D01*
X102351913Y-46636457D01*
X102346600Y-46637881D01*
X102346598Y-46637881D01*
X102136067Y-46694293D01*
X102136065Y-46694294D01*
X102130757Y-46695716D01*
X102125776Y-46698039D01*
X102125775Y-46698039D01*
X101928238Y-46790151D01*
X101928233Y-46790154D01*
X101923251Y-46792477D01*
X101866080Y-46832509D01*
X101740211Y-46920643D01*
X101740208Y-46920645D01*
X101735700Y-46923802D01*
X101573802Y-47085700D01*
X101442477Y-47273251D01*
X101440154Y-47278233D01*
X101440151Y-47278238D01*
X101440034Y-47278489D01*
X101345716Y-47480757D01*
X101344294Y-47486065D01*
X101344293Y-47486067D01*
X101323019Y-47565461D01*
X101286457Y-47701913D01*
X101266502Y-47930000D01*
X101286457Y-48158087D01*
X101303460Y-48221541D01*
X101314408Y-48262399D01*
X101312718Y-48333376D01*
X101272924Y-48392172D01*
X101207660Y-48420120D01*
X101192701Y-48421011D01*
X98899105Y-48421011D01*
X98830984Y-48401009D01*
X98810010Y-48384106D01*
X98769152Y-48343248D01*
X98735126Y-48280936D01*
X98736541Y-48221541D01*
X98752118Y-48163409D01*
X98752120Y-48163398D01*
X98753543Y-48158087D01*
X98773498Y-47930000D01*
X98753543Y-47701913D01*
X98716981Y-47565461D01*
X98695707Y-47486067D01*
X98695706Y-47486065D01*
X98694284Y-47480757D01*
X98599966Y-47278489D01*
X98599849Y-47278238D01*
X98599846Y-47278233D01*
X98597523Y-47273251D01*
X98466198Y-47085700D01*
X98304300Y-46923802D01*
X98299792Y-46920645D01*
X98299789Y-46920643D01*
X98173920Y-46832509D01*
X98116749Y-46792477D01*
X98111767Y-46790154D01*
X98111762Y-46790151D01*
X97914225Y-46698039D01*
X97914224Y-46698039D01*
X97909243Y-46695716D01*
X97903935Y-46694294D01*
X97903933Y-46694293D01*
X97693402Y-46637881D01*
X97693400Y-46637881D01*
X97688087Y-46636457D01*
X97460000Y-46616502D01*
X97231913Y-46636457D01*
X97226600Y-46637881D01*
X97226598Y-46637881D01*
X97016067Y-46694293D01*
X97016065Y-46694294D01*
X97010757Y-46695716D01*
X97005776Y-46698039D01*
X97005775Y-46698039D01*
X96808238Y-46790151D01*
X96808233Y-46790154D01*
X96803251Y-46792477D01*
X96746080Y-46832509D01*
X96620211Y-46920643D01*
X96620208Y-46920645D01*
X96615700Y-46923802D01*
X96453802Y-47085700D01*
X96322477Y-47273251D01*
X96320154Y-47278233D01*
X96320151Y-47278238D01*
X96320034Y-47278489D01*
X96225716Y-47480757D01*
X96224294Y-47486065D01*
X96224293Y-47486067D01*
X96203019Y-47565461D01*
X96166457Y-47701913D01*
X96146502Y-47930000D01*
X93772517Y-47930000D01*
X93772517Y-47924525D01*
X93753528Y-47707481D01*
X93751625Y-47696688D01*
X93695236Y-47486239D01*
X93691490Y-47475947D01*
X93599414Y-47278489D01*
X93593931Y-47268994D01*
X93557491Y-47216952D01*
X93547012Y-47208576D01*
X93533566Y-47215644D01*
X92832022Y-47917188D01*
X92824408Y-47931132D01*
X92094356Y-47931132D01*
X92095592Y-47928868D01*
X92095461Y-47927035D01*
X92091210Y-47920420D01*
X91385713Y-47214923D01*
X91373938Y-47208493D01*
X91361923Y-47217789D01*
X91326069Y-47268994D01*
X91320586Y-47278489D01*
X91228510Y-47475947D01*
X91224764Y-47486239D01*
X91168375Y-47696688D01*
X91166472Y-47707481D01*
X91147483Y-47924525D01*
X91147483Y-47935475D01*
X90008500Y-47935475D01*
X90008500Y-46842988D01*
X91738576Y-46842988D01*
X91745644Y-46856434D01*
X92447188Y-47557978D01*
X92461132Y-47565592D01*
X92462965Y-47565461D01*
X92469580Y-47561210D01*
X93175077Y-46855713D01*
X93181507Y-46843938D01*
X93172211Y-46831923D01*
X93121006Y-46796069D01*
X93111511Y-46790586D01*
X92914053Y-46698510D01*
X92903761Y-46694764D01*
X92693312Y-46638375D01*
X92682519Y-46636472D01*
X92465475Y-46617483D01*
X92454525Y-46617483D01*
X92237481Y-46636472D01*
X92226688Y-46638375D01*
X92016239Y-46694764D01*
X92005947Y-46698510D01*
X91808489Y-46790586D01*
X91798994Y-46796069D01*
X91746952Y-46832509D01*
X91738576Y-46842988D01*
X90008500Y-46842988D01*
X90008500Y-45102477D01*
X90028502Y-45034356D01*
X90082158Y-44987863D01*
X90152432Y-44977759D01*
X90217012Y-45007253D01*
X90223595Y-45013382D01*
X90297962Y-45087749D01*
X90302471Y-45090906D01*
X90302473Y-45090908D01*
X90327597Y-45108500D01*
X90478346Y-45214056D01*
X90677924Y-45307120D01*
X90890629Y-45364115D01*
X91110000Y-45383307D01*
X91329371Y-45364115D01*
X91542076Y-45307120D01*
X91741654Y-45214056D01*
X91892403Y-45108500D01*
X91917527Y-45090908D01*
X91917529Y-45090906D01*
X91922038Y-45087749D01*
X92077749Y-44932038D01*
X92164777Y-44807750D01*
X92200899Y-44756162D01*
X92200900Y-44756160D01*
X92204056Y-44751653D01*
X92206379Y-44746671D01*
X92206382Y-44746666D01*
X92261519Y-44628423D01*
X92297120Y-44552076D01*
X92354115Y-44339371D01*
X92373307Y-44120000D01*
X92354115Y-43900629D01*
X92297120Y-43687924D01*
X92253585Y-43594562D01*
X92206382Y-43493334D01*
X92206379Y-43493329D01*
X92204056Y-43488347D01*
X92169787Y-43439406D01*
X92080908Y-43312473D01*
X92080906Y-43312470D01*
X92077749Y-43307962D01*
X91922038Y-43152251D01*
X91901005Y-43137523D01*
X91894121Y-43132703D01*
X97890743Y-43132703D01*
X97891302Y-43136947D01*
X97891302Y-43136951D01*
X97903107Y-43226618D01*
X97928268Y-43417734D01*
X98004129Y-43695036D01*
X98005813Y-43698984D01*
X98094159Y-43906106D01*
X98116923Y-43959476D01*
X98264561Y-44206161D01*
X98444313Y-44430528D01*
X98652851Y-44628423D01*
X98886317Y-44796186D01*
X98890112Y-44798195D01*
X98890113Y-44798196D01*
X98911869Y-44809715D01*
X99140392Y-44930712D01*
X99410373Y-45029511D01*
X99691264Y-45090755D01*
X99719841Y-45093004D01*
X99914282Y-45108307D01*
X99914291Y-45108307D01*
X99916739Y-45108500D01*
X100072271Y-45108500D01*
X100074407Y-45108354D01*
X100074418Y-45108354D01*
X100282548Y-45094165D01*
X100282554Y-45094164D01*
X100286825Y-45093873D01*
X100291020Y-45093004D01*
X100291022Y-45093004D01*
X100427583Y-45064724D01*
X100568342Y-45035574D01*
X100839343Y-44939607D01*
X101094812Y-44807750D01*
X101098313Y-44805289D01*
X101098317Y-44805287D01*
X101212418Y-44725095D01*
X101330023Y-44642441D01*
X101427267Y-44552076D01*
X101537479Y-44449661D01*
X101537481Y-44449658D01*
X101540622Y-44446740D01*
X101722713Y-44224268D01*
X101872927Y-43979142D01*
X101988483Y-43715898D01*
X102067244Y-43439406D01*
X102107751Y-43154784D01*
X102107795Y-43146512D01*
X102109235Y-42871583D01*
X102109235Y-42871576D01*
X102109257Y-42867297D01*
X102071732Y-42582266D01*
X101995871Y-42304964D01*
X101883077Y-42040524D01*
X101735439Y-41793839D01*
X101555687Y-41569472D01*
X101347149Y-41371577D01*
X101125565Y-41212352D01*
X101117172Y-41206321D01*
X101117171Y-41206320D01*
X101113683Y-41203814D01*
X101091843Y-41192250D01*
X101020864Y-41154669D01*
X105042001Y-41154669D01*
X105042371Y-41161490D01*
X105047895Y-41212352D01*
X105051521Y-41227604D01*
X105096676Y-41348054D01*
X105105214Y-41363649D01*
X105181715Y-41465724D01*
X105194276Y-41478285D01*
X105296351Y-41554786D01*
X105311946Y-41563324D01*
X105432394Y-41608478D01*
X105447649Y-41612105D01*
X105498514Y-41617631D01*
X105505328Y-41618000D01*
X106077885Y-41618000D01*
X106093124Y-41613525D01*
X106094329Y-41612135D01*
X106096000Y-41604452D01*
X106096000Y-41599884D01*
X106604000Y-41599884D01*
X106608475Y-41615123D01*
X106609865Y-41616328D01*
X106617548Y-41617999D01*
X107194669Y-41617999D01*
X107201490Y-41617629D01*
X107252352Y-41612105D01*
X107267604Y-41608479D01*
X107388054Y-41563324D01*
X107403649Y-41554786D01*
X107505724Y-41478285D01*
X107518285Y-41465724D01*
X107594786Y-41363649D01*
X107603324Y-41348054D01*
X107648478Y-41227606D01*
X107652105Y-41212351D01*
X107657631Y-41161486D01*
X107658000Y-41154669D01*
X107658000Y-40582115D01*
X107653525Y-40566876D01*
X107652135Y-40565671D01*
X107644452Y-40564000D01*
X106622115Y-40564000D01*
X106606876Y-40568475D01*
X106605671Y-40569865D01*
X106604000Y-40577548D01*
X106604000Y-41599884D01*
X106096000Y-41599884D01*
X106096000Y-40582115D01*
X106091525Y-40566876D01*
X106090135Y-40565671D01*
X106082452Y-40564000D01*
X105060116Y-40564000D01*
X105044877Y-40568475D01*
X105043672Y-40569865D01*
X105042001Y-40577548D01*
X105042001Y-41154669D01*
X101020864Y-41154669D01*
X100859608Y-41069288D01*
X100589627Y-40970489D01*
X100308736Y-40909245D01*
X100277685Y-40906801D01*
X100085718Y-40891693D01*
X100085709Y-40891693D01*
X100083261Y-40891500D01*
X99927729Y-40891500D01*
X99925593Y-40891646D01*
X99925582Y-40891646D01*
X99717452Y-40905835D01*
X99717446Y-40905836D01*
X99713175Y-40906127D01*
X99708980Y-40906996D01*
X99708978Y-40906996D01*
X99572416Y-40935277D01*
X99431658Y-40964426D01*
X99160657Y-41060393D01*
X99156848Y-41062359D01*
X98964785Y-41161490D01*
X98905188Y-41192250D01*
X98901687Y-41194711D01*
X98901683Y-41194713D01*
X98854884Y-41227604D01*
X98669977Y-41357559D01*
X98654892Y-41371577D01*
X98479446Y-41534612D01*
X98459378Y-41553260D01*
X98277287Y-41775732D01*
X98127073Y-42020858D01*
X98011517Y-42284102D01*
X97932756Y-42560594D01*
X97892249Y-42845216D01*
X97892227Y-42849505D01*
X97892226Y-42849512D01*
X97890765Y-43128417D01*
X97890743Y-43132703D01*
X91894121Y-43132703D01*
X91842759Y-43096739D01*
X91741654Y-43025944D01*
X91542076Y-42932880D01*
X91329371Y-42875885D01*
X91110000Y-42856693D01*
X90890629Y-42875885D01*
X90677924Y-42932880D01*
X90584562Y-42976415D01*
X90483334Y-43023618D01*
X90483329Y-43023621D01*
X90478347Y-43025944D01*
X90473840Y-43029100D01*
X90473838Y-43029101D01*
X90302473Y-43149092D01*
X90302470Y-43149094D01*
X90297962Y-43152251D01*
X90223595Y-43226618D01*
X90161283Y-43260644D01*
X90090468Y-43255579D01*
X90033632Y-43213032D01*
X90008821Y-43146512D01*
X90008500Y-43137523D01*
X90008500Y-41652594D01*
X90028502Y-41584473D01*
X90082158Y-41537980D01*
X90152432Y-41527876D01*
X90178729Y-41534612D01*
X90242391Y-41558478D01*
X90257649Y-41562105D01*
X90308514Y-41567631D01*
X90315328Y-41568000D01*
X90837885Y-41568000D01*
X90853124Y-41563525D01*
X90854329Y-41562135D01*
X90856000Y-41554452D01*
X90856000Y-41549884D01*
X91364000Y-41549884D01*
X91368475Y-41565123D01*
X91369865Y-41566328D01*
X91377548Y-41567999D01*
X91904669Y-41567999D01*
X91911490Y-41567629D01*
X91962352Y-41562105D01*
X91977604Y-41558479D01*
X92098054Y-41513324D01*
X92113649Y-41504786D01*
X92215724Y-41428285D01*
X92228285Y-41415724D01*
X92304786Y-41313649D01*
X92313324Y-41298054D01*
X92358478Y-41177606D01*
X92362105Y-41162351D01*
X92367631Y-41111486D01*
X92368000Y-41104672D01*
X92368000Y-40582115D01*
X92363525Y-40566876D01*
X92362135Y-40565671D01*
X92354452Y-40564000D01*
X91382115Y-40564000D01*
X91366876Y-40568475D01*
X91365671Y-40569865D01*
X91364000Y-40577548D01*
X91364000Y-41549884D01*
X90856000Y-41549884D01*
X90856000Y-40037885D01*
X91364000Y-40037885D01*
X91368475Y-40053124D01*
X91369865Y-40054329D01*
X91377548Y-40056000D01*
X92349884Y-40056000D01*
X92365123Y-40051525D01*
X92366328Y-40050135D01*
X92367999Y-40042452D01*
X92367999Y-39515331D01*
X92367629Y-39508510D01*
X92362105Y-39457648D01*
X92358479Y-39442396D01*
X92313324Y-39321946D01*
X92304786Y-39306351D01*
X92228285Y-39204276D01*
X92215724Y-39191715D01*
X92113649Y-39115214D01*
X92098054Y-39106676D01*
X91977606Y-39061522D01*
X91962351Y-39057895D01*
X91911486Y-39052369D01*
X91904672Y-39052000D01*
X91382115Y-39052000D01*
X91366876Y-39056475D01*
X91365671Y-39057865D01*
X91364000Y-39065548D01*
X91364000Y-40037885D01*
X90856000Y-40037885D01*
X90856000Y-39070116D01*
X90851525Y-39054877D01*
X90850135Y-39053672D01*
X90842452Y-39052001D01*
X90315331Y-39052001D01*
X90308510Y-39052371D01*
X90257648Y-39057895D01*
X90242393Y-39061522D01*
X90178729Y-39085388D01*
X90107922Y-39090571D01*
X90045553Y-39056650D01*
X90011424Y-38994394D01*
X90008500Y-38967406D01*
X90008500Y-37810000D01*
X105036502Y-37810000D01*
X105056457Y-38038087D01*
X105115716Y-38259243D01*
X105118039Y-38264224D01*
X105118039Y-38264225D01*
X105210151Y-38461762D01*
X105210154Y-38461767D01*
X105212477Y-38466749D01*
X105343802Y-38654300D01*
X105489922Y-38800420D01*
X105523948Y-38862732D01*
X105518883Y-38933547D01*
X105476336Y-38990383D01*
X105439394Y-39007683D01*
X105439793Y-39008748D01*
X105311946Y-39056676D01*
X105296351Y-39065214D01*
X105194276Y-39141715D01*
X105181715Y-39154276D01*
X105105214Y-39256351D01*
X105096676Y-39271946D01*
X105051522Y-39392394D01*
X105047895Y-39407649D01*
X105042369Y-39458514D01*
X105042000Y-39465328D01*
X105042000Y-40037885D01*
X105046475Y-40053124D01*
X105047865Y-40054329D01*
X105055548Y-40056000D01*
X107639884Y-40056000D01*
X107655123Y-40051525D01*
X107656328Y-40050135D01*
X107657999Y-40042452D01*
X107657999Y-39465331D01*
X107657629Y-39458510D01*
X107652105Y-39407648D01*
X107648479Y-39392396D01*
X107603324Y-39271946D01*
X107594786Y-39256351D01*
X107518285Y-39154276D01*
X107505724Y-39141715D01*
X107403649Y-39065214D01*
X107388054Y-39056676D01*
X107260207Y-39008748D01*
X107260904Y-39006888D01*
X107208372Y-38976869D01*
X107175558Y-38913910D01*
X107181992Y-38843206D01*
X107210079Y-38800419D01*
X107356198Y-38654300D01*
X107487523Y-38466749D01*
X107489846Y-38461767D01*
X107489849Y-38461762D01*
X107581961Y-38264225D01*
X107581961Y-38264224D01*
X107584284Y-38259243D01*
X107643543Y-38038087D01*
X107663498Y-37810000D01*
X107643543Y-37581913D01*
X107612953Y-37467749D01*
X107585707Y-37366067D01*
X107585706Y-37366065D01*
X107584284Y-37360757D01*
X107581961Y-37355775D01*
X107489849Y-37158238D01*
X107489846Y-37158233D01*
X107487523Y-37153251D01*
X107356198Y-36965700D01*
X107194300Y-36803802D01*
X107189792Y-36800645D01*
X107189789Y-36800643D01*
X107065898Y-36713894D01*
X107006749Y-36672477D01*
X107001767Y-36670154D01*
X107001762Y-36670151D01*
X106804225Y-36578039D01*
X106804224Y-36578039D01*
X106799243Y-36575716D01*
X106793935Y-36574294D01*
X106793933Y-36574293D01*
X106583402Y-36517881D01*
X106583400Y-36517881D01*
X106578087Y-36516457D01*
X106350000Y-36496502D01*
X106121913Y-36516457D01*
X106116600Y-36517881D01*
X106116598Y-36517881D01*
X105906067Y-36574293D01*
X105906065Y-36574294D01*
X105900757Y-36575716D01*
X105895776Y-36578039D01*
X105895775Y-36578039D01*
X105698238Y-36670151D01*
X105698233Y-36670154D01*
X105693251Y-36672477D01*
X105634102Y-36713894D01*
X105510211Y-36800643D01*
X105510208Y-36800645D01*
X105505700Y-36803802D01*
X105343802Y-36965700D01*
X105212477Y-37153251D01*
X105210154Y-37158233D01*
X105210151Y-37158238D01*
X105118039Y-37355775D01*
X105115716Y-37360757D01*
X105114294Y-37366065D01*
X105114293Y-37366067D01*
X105087047Y-37467749D01*
X105056457Y-37581913D01*
X105036502Y-37810000D01*
X90008500Y-37810000D01*
X90008500Y-37482477D01*
X90028502Y-37414356D01*
X90082158Y-37367863D01*
X90152432Y-37357759D01*
X90217012Y-37387253D01*
X90223595Y-37393382D01*
X90297962Y-37467749D01*
X90302471Y-37470906D01*
X90302473Y-37470908D01*
X90377241Y-37523261D01*
X90478346Y-37594056D01*
X90677924Y-37687120D01*
X90890629Y-37744115D01*
X91110000Y-37763307D01*
X91329371Y-37744115D01*
X91542076Y-37687120D01*
X91741654Y-37594056D01*
X91842759Y-37523261D01*
X91917527Y-37470908D01*
X91917529Y-37470906D01*
X91922038Y-37467749D01*
X92077749Y-37312038D01*
X92192090Y-37148743D01*
X92200899Y-37136162D01*
X92200900Y-37136160D01*
X92204056Y-37131653D01*
X92206379Y-37126671D01*
X92206382Y-37126666D01*
X92294795Y-36937061D01*
X92297120Y-36932076D01*
X92354115Y-36719371D01*
X92373307Y-36500000D01*
X92354115Y-36280629D01*
X92352692Y-36275319D01*
X92352691Y-36275312D01*
X92345716Y-36249281D01*
X92347406Y-36178304D01*
X92378328Y-36127576D01*
X95145499Y-33360405D01*
X95207811Y-33326379D01*
X95234594Y-33323500D01*
X104915500Y-33323500D01*
X104983621Y-33343502D01*
X105030114Y-33397158D01*
X105041500Y-33449500D01*
X105041500Y-33538134D01*
X105048255Y-33600316D01*
X105099385Y-33736705D01*
X105186739Y-33853261D01*
X105303295Y-33940615D01*
X105439684Y-33991745D01*
X105501866Y-33998500D01*
X107198134Y-33998500D01*
X107260316Y-33991745D01*
X107396705Y-33940615D01*
X107513261Y-33853261D01*
X107600615Y-33736705D01*
X107651745Y-33600316D01*
X107658500Y-33538134D01*
X107658500Y-31841866D01*
X107651745Y-31779684D01*
X107600615Y-31643295D01*
X107513261Y-31526739D01*
X107396705Y-31439385D01*
X107260316Y-31388255D01*
X107216748Y-31383522D01*
X107201514Y-31381867D01*
X107201511Y-31381867D01*
X107198134Y-31381500D01*
X107194815Y-31381500D01*
X107127890Y-31357847D01*
X107092196Y-31311844D01*
X107090266Y-31312859D01*
X107084558Y-31302000D01*
X107084368Y-31301755D01*
X107084347Y-31301597D01*
X107064356Y-31263566D01*
X106362812Y-30562022D01*
X106348868Y-30554408D01*
X106347035Y-30554539D01*
X106340420Y-30558790D01*
X105634923Y-31264287D01*
X105612129Y-31306029D01*
X105609953Y-31316029D01*
X105559747Y-31366227D01*
X105506186Y-31381451D01*
X105505281Y-31381500D01*
X105501866Y-31381500D01*
X105498470Y-31381869D01*
X105498468Y-31381869D01*
X105486121Y-31383210D01*
X105439684Y-31388255D01*
X105303295Y-31439385D01*
X105186739Y-31526739D01*
X105099385Y-31643295D01*
X105048255Y-31779684D01*
X105041500Y-31841866D01*
X105041500Y-31930500D01*
X105021498Y-31998621D01*
X104967842Y-32045114D01*
X104915500Y-32056500D01*
X94998768Y-32056500D01*
X94987585Y-32055973D01*
X94980092Y-32054298D01*
X94972166Y-32054547D01*
X94972165Y-32054547D01*
X94912002Y-32056438D01*
X94908044Y-32056500D01*
X94880144Y-32056500D01*
X94876154Y-32057004D01*
X94864320Y-32057936D01*
X94820111Y-32059326D01*
X94812495Y-32061539D01*
X94812493Y-32061539D01*
X94800652Y-32064979D01*
X94781293Y-32068988D01*
X94779983Y-32069154D01*
X94761203Y-32071526D01*
X94753837Y-32074442D01*
X94753831Y-32074444D01*
X94720098Y-32087800D01*
X94708868Y-32091645D01*
X94674017Y-32101770D01*
X94666407Y-32103981D01*
X94659584Y-32108016D01*
X94648966Y-32114295D01*
X94631213Y-32122992D01*
X94623568Y-32126019D01*
X94612383Y-32130448D01*
X94605968Y-32135109D01*
X94576612Y-32156437D01*
X94566695Y-32162951D01*
X94528638Y-32185458D01*
X94514317Y-32199779D01*
X94499284Y-32212619D01*
X94482893Y-32224528D01*
X94477842Y-32230634D01*
X94454702Y-32258605D01*
X94446712Y-32267384D01*
X91482423Y-35231672D01*
X91420111Y-35265698D01*
X91360717Y-35264284D01*
X91334685Y-35257309D01*
X91334686Y-35257309D01*
X91329371Y-35255885D01*
X91110000Y-35236693D01*
X90890629Y-35255885D01*
X90677924Y-35312880D01*
X90584562Y-35356415D01*
X90483334Y-35403618D01*
X90483329Y-35403621D01*
X90478347Y-35405944D01*
X90473840Y-35409100D01*
X90473838Y-35409101D01*
X90302473Y-35529092D01*
X90302470Y-35529094D01*
X90297962Y-35532251D01*
X90223595Y-35606618D01*
X90161283Y-35640644D01*
X90090468Y-35635579D01*
X90033632Y-35593032D01*
X90008821Y-35526512D01*
X90008500Y-35517523D01*
X90008500Y-31061734D01*
X93547900Y-31061734D01*
X93554655Y-31123916D01*
X93605785Y-31260305D01*
X93693139Y-31376861D01*
X93809695Y-31464215D01*
X93946084Y-31515345D01*
X94008266Y-31522100D01*
X95831734Y-31522100D01*
X95893916Y-31515345D01*
X96030305Y-31464215D01*
X96146861Y-31376861D01*
X96234215Y-31260305D01*
X96257593Y-31197946D01*
X96272213Y-31158946D01*
X96314854Y-31102181D01*
X96381416Y-31077481D01*
X96450765Y-31092688D01*
X96485431Y-31120676D01*
X96496702Y-31133687D01*
X96670299Y-31277810D01*
X96674751Y-31280412D01*
X96674756Y-31280415D01*
X96848370Y-31381867D01*
X96865103Y-31391645D01*
X97075884Y-31472134D01*
X97080952Y-31473165D01*
X97080955Y-31473166D01*
X97189404Y-31495230D01*
X97296981Y-31517117D01*
X97302156Y-31517307D01*
X97302158Y-31517307D01*
X97517292Y-31525196D01*
X97517296Y-31525196D01*
X97522456Y-31525385D01*
X97527576Y-31524729D01*
X97527578Y-31524729D01*
X97622485Y-31512571D01*
X97746253Y-31496716D01*
X97751202Y-31495231D01*
X97751208Y-31495230D01*
X97957413Y-31433365D01*
X97957412Y-31433365D01*
X97962363Y-31431880D01*
X98089327Y-31369681D01*
X98160331Y-31334897D01*
X98160336Y-31334894D01*
X98164982Y-31332618D01*
X98169192Y-31329615D01*
X98169197Y-31329612D01*
X98344455Y-31204601D01*
X98344459Y-31204597D01*
X98348667Y-31201596D01*
X98480474Y-31070249D01*
X98542845Y-31036333D01*
X98569413Y-31033500D01*
X99920543Y-31033500D01*
X99940255Y-31035051D01*
X99953507Y-31037150D01*
X99960094Y-31036805D01*
X99960098Y-31036805D01*
X100019850Y-31033673D01*
X100026445Y-31033500D01*
X100046306Y-31033500D01*
X100066069Y-31031423D01*
X100072628Y-31030907D01*
X100088427Y-31030079D01*
X100132377Y-31027776D01*
X100132381Y-31027775D01*
X100138971Y-31027430D01*
X100151929Y-31023958D01*
X100171372Y-31020355D01*
X100171795Y-31020311D01*
X100184702Y-31018954D01*
X100247894Y-30998422D01*
X100254196Y-30996556D01*
X100311985Y-30981071D01*
X100318363Y-30979362D01*
X100324242Y-30976366D01*
X100324251Y-30976363D01*
X100330317Y-30973272D01*
X100348579Y-30965708D01*
X100355043Y-30963608D01*
X100355051Y-30963605D01*
X100361331Y-30961564D01*
X100367050Y-30958262D01*
X100367055Y-30958260D01*
X100418867Y-30928346D01*
X100424637Y-30925213D01*
X100483839Y-30895047D01*
X100494259Y-30886609D01*
X100510552Y-30875411D01*
X100510903Y-30875209D01*
X100522169Y-30868704D01*
X100527075Y-30864287D01*
X100527080Y-30864283D01*
X100571538Y-30824253D01*
X100576554Y-30819969D01*
X100589409Y-30809559D01*
X100589412Y-30809556D01*
X100591986Y-30807472D01*
X100606031Y-30793427D01*
X100610816Y-30788886D01*
X100655274Y-30748856D01*
X100655275Y-30748855D01*
X100660185Y-30744434D01*
X100668075Y-30733574D01*
X100680912Y-30718546D01*
X101203983Y-30195475D01*
X105037483Y-30195475D01*
X105056472Y-30412519D01*
X105058375Y-30423312D01*
X105114764Y-30633761D01*
X105118510Y-30644053D01*
X105210586Y-30841511D01*
X105216069Y-30851006D01*
X105252509Y-30903048D01*
X105262988Y-30911424D01*
X105276434Y-30904356D01*
X105977978Y-30202812D01*
X105984356Y-30191132D01*
X106714408Y-30191132D01*
X106714539Y-30192965D01*
X106718790Y-30199580D01*
X107424287Y-30905077D01*
X107436062Y-30911507D01*
X107448077Y-30902211D01*
X107483931Y-30851006D01*
X107489414Y-30841511D01*
X107581490Y-30644053D01*
X107585236Y-30633761D01*
X107641625Y-30423312D01*
X107643528Y-30412519D01*
X107662517Y-30195475D01*
X107662517Y-30184525D01*
X107643528Y-29967481D01*
X107641625Y-29956688D01*
X107585236Y-29746239D01*
X107581490Y-29735947D01*
X107489414Y-29538489D01*
X107483931Y-29528994D01*
X107447491Y-29476952D01*
X107437012Y-29468576D01*
X107423566Y-29475644D01*
X106722022Y-30177188D01*
X106714408Y-30191132D01*
X105984356Y-30191132D01*
X105985592Y-30188868D01*
X105985461Y-30187035D01*
X105981210Y-30180420D01*
X105275713Y-29474923D01*
X105263938Y-29468493D01*
X105251923Y-29477789D01*
X105216069Y-29528994D01*
X105210586Y-29538489D01*
X105118510Y-29735947D01*
X105114764Y-29746239D01*
X105058375Y-29956688D01*
X105056472Y-29967481D01*
X105037483Y-30184525D01*
X105037483Y-30195475D01*
X101203983Y-30195475D01*
X102296470Y-29102988D01*
X105628576Y-29102988D01*
X105635644Y-29116434D01*
X106337188Y-29817978D01*
X106351132Y-29825592D01*
X106352965Y-29825461D01*
X106359580Y-29821210D01*
X107065077Y-29115713D01*
X107071507Y-29103938D01*
X107062211Y-29091923D01*
X107011006Y-29056069D01*
X107001511Y-29050586D01*
X106804053Y-28958510D01*
X106793761Y-28954764D01*
X106583312Y-28898375D01*
X106572519Y-28896472D01*
X106355475Y-28877483D01*
X106344525Y-28877483D01*
X106127481Y-28896472D01*
X106116688Y-28898375D01*
X105906239Y-28954764D01*
X105895947Y-28958510D01*
X105698489Y-29050586D01*
X105688994Y-29056069D01*
X105636952Y-29092509D01*
X105628576Y-29102988D01*
X102296470Y-29102988D01*
X103414052Y-27985405D01*
X103476364Y-27951379D01*
X103503147Y-27948500D01*
X104958134Y-27948500D01*
X105020316Y-27941745D01*
X105156705Y-27890615D01*
X105273261Y-27803261D01*
X105360615Y-27686705D01*
X105411745Y-27550316D01*
X105418500Y-27488134D01*
X106451500Y-27488134D01*
X106458255Y-27550316D01*
X106509385Y-27686705D01*
X106596739Y-27803261D01*
X106713295Y-27890615D01*
X106849684Y-27941745D01*
X106911866Y-27948500D01*
X109208134Y-27948500D01*
X109270316Y-27941745D01*
X109406705Y-27890615D01*
X109523261Y-27803261D01*
X109610615Y-27686705D01*
X109661745Y-27550316D01*
X109668500Y-27488134D01*
X109668500Y-25191866D01*
X109661745Y-25129684D01*
X109610615Y-24993295D01*
X109523261Y-24876739D01*
X109406705Y-24789385D01*
X109270316Y-24738255D01*
X109208134Y-24731500D01*
X106911866Y-24731500D01*
X106849684Y-24738255D01*
X106713295Y-24789385D01*
X106596739Y-24876739D01*
X106509385Y-24993295D01*
X106458255Y-25129684D01*
X106451500Y-25191866D01*
X106451500Y-27488134D01*
X105418500Y-27488134D01*
X105418500Y-25191866D01*
X105411745Y-25129684D01*
X105360615Y-24993295D01*
X105273261Y-24876739D01*
X105156705Y-24789385D01*
X105020316Y-24738255D01*
X104958134Y-24731500D01*
X102661866Y-24731500D01*
X102599684Y-24738255D01*
X102463295Y-24789385D01*
X102346739Y-24876739D01*
X102259385Y-24993295D01*
X102208255Y-25129684D01*
X102201500Y-25191866D01*
X102201500Y-26646853D01*
X102181498Y-26714974D01*
X102164595Y-26735948D01*
X99670947Y-29229595D01*
X99608635Y-29263621D01*
X99581852Y-29266500D01*
X98566993Y-29266500D01*
X98498872Y-29246498D01*
X98473800Y-29225300D01*
X98402455Y-29146893D01*
X98402453Y-29146892D01*
X98398977Y-29143071D01*
X98394926Y-29139872D01*
X98394922Y-29139868D01*
X98225966Y-29006434D01*
X98225962Y-29006432D01*
X98221911Y-29003232D01*
X98217387Y-29000734D01*
X98217383Y-29000732D01*
X98198048Y-28990058D01*
X98148079Y-28939625D01*
X98133308Y-28870182D01*
X98158426Y-28803777D01*
X98185776Y-28777172D01*
X98344136Y-28664216D01*
X98352003Y-28657567D01*
X98504445Y-28505656D01*
X98511122Y-28497811D01*
X98636702Y-28323047D01*
X98642013Y-28314208D01*
X98737358Y-28121292D01*
X98741156Y-28111699D01*
X98803716Y-27905791D01*
X98805893Y-27895721D01*
X98807705Y-27881960D01*
X98805493Y-27867778D01*
X98792336Y-27864000D01*
X93589283Y-27864000D01*
X93575752Y-27867973D01*
X93574315Y-27877966D01*
X93605542Y-28016528D01*
X93608621Y-28026356D01*
X93689589Y-28225756D01*
X93694232Y-28234947D01*
X93806682Y-28418448D01*
X93812765Y-28426759D01*
X93953661Y-28589413D01*
X93954295Y-28590034D01*
X93954471Y-28590348D01*
X93957053Y-28593329D01*
X93956438Y-28593862D01*
X93988973Y-28651985D01*
X93984653Y-28722850D01*
X93942706Y-28780130D01*
X93910371Y-28798043D01*
X93850281Y-28820570D01*
X93809695Y-28835785D01*
X93693139Y-28923139D01*
X93605785Y-29039695D01*
X93554655Y-29176084D01*
X93547900Y-29238266D01*
X93547900Y-31061734D01*
X90008500Y-31061734D01*
X90008500Y-27343239D01*
X93570536Y-27343239D01*
X93572233Y-27352609D01*
X93584610Y-27356000D01*
X94647885Y-27356000D01*
X94663124Y-27351525D01*
X94664329Y-27350135D01*
X94666000Y-27342452D01*
X94666000Y-27337885D01*
X95174000Y-27337885D01*
X95178475Y-27353124D01*
X95179865Y-27354329D01*
X95187548Y-27356000D01*
X97187885Y-27356000D01*
X97203124Y-27351525D01*
X97204329Y-27350135D01*
X97206000Y-27342452D01*
X97206000Y-27337885D01*
X97714000Y-27337885D01*
X97718475Y-27353124D01*
X97719865Y-27354329D01*
X97727548Y-27356000D01*
X98792367Y-27356000D01*
X98805898Y-27352027D01*
X98807203Y-27342947D01*
X98764133Y-27171477D01*
X98760813Y-27161726D01*
X98674999Y-26964365D01*
X98670133Y-26955290D01*
X98553239Y-26774601D01*
X98546947Y-26766430D01*
X98402113Y-26607260D01*
X98394580Y-26600234D01*
X98225691Y-26466855D01*
X98217108Y-26461153D01*
X98197599Y-26450383D01*
X98147628Y-26399950D01*
X98132856Y-26330507D01*
X98157972Y-26264102D01*
X98185323Y-26237496D01*
X98344133Y-26124217D01*
X98352003Y-26117567D01*
X98504445Y-25965656D01*
X98511122Y-25957811D01*
X98636702Y-25783047D01*
X98642013Y-25774208D01*
X98737358Y-25581292D01*
X98741156Y-25571699D01*
X98803716Y-25365791D01*
X98805893Y-25355721D01*
X98807705Y-25341960D01*
X98805493Y-25327778D01*
X98792336Y-25324000D01*
X97732115Y-25324000D01*
X97716876Y-25328475D01*
X97715671Y-25329865D01*
X97714000Y-25337548D01*
X97714000Y-27337885D01*
X97206000Y-27337885D01*
X97206000Y-25342115D01*
X97201525Y-25326876D01*
X97200135Y-25325671D01*
X97192452Y-25324000D01*
X95192115Y-25324000D01*
X95176876Y-25328475D01*
X95175671Y-25329865D01*
X95174000Y-25337548D01*
X95174000Y-27337885D01*
X94666000Y-27337885D01*
X94666000Y-25342115D01*
X94661525Y-25326876D01*
X94660135Y-25325671D01*
X94652452Y-25324000D01*
X93589283Y-25324000D01*
X93575752Y-25327973D01*
X93574315Y-25337966D01*
X93605542Y-25476528D01*
X93608621Y-25486356D01*
X93689589Y-25685756D01*
X93694232Y-25694947D01*
X93806682Y-25878448D01*
X93812765Y-25886759D01*
X93953665Y-26049417D01*
X93961032Y-26056633D01*
X94126606Y-26194095D01*
X94135053Y-26200010D01*
X94185031Y-26229215D01*
X94233755Y-26280854D01*
X94246826Y-26350636D01*
X94220095Y-26416408D01*
X94188605Y-26444622D01*
X94182469Y-26448486D01*
X94010373Y-26577700D01*
X94002666Y-26584543D01*
X93853984Y-26740129D01*
X93847498Y-26748139D01*
X93726232Y-26925908D01*
X93721134Y-26934882D01*
X93630530Y-27130071D01*
X93626967Y-27139758D01*
X93570536Y-27343239D01*
X90008500Y-27343239D01*
X90008500Y-24803239D01*
X93570536Y-24803239D01*
X93572233Y-24812609D01*
X93584610Y-24816000D01*
X94647885Y-24816000D01*
X94663124Y-24811525D01*
X94664329Y-24810135D01*
X94666000Y-24802452D01*
X94666000Y-24797885D01*
X95174000Y-24797885D01*
X95178475Y-24813124D01*
X95179865Y-24814329D01*
X95187548Y-24816000D01*
X97187885Y-24816000D01*
X97203124Y-24811525D01*
X97204329Y-24810135D01*
X97206000Y-24802452D01*
X97206000Y-24797885D01*
X97714000Y-24797885D01*
X97718475Y-24813124D01*
X97719865Y-24814329D01*
X97727548Y-24816000D01*
X98792367Y-24816000D01*
X98805898Y-24812027D01*
X98807203Y-24802947D01*
X98764133Y-24631477D01*
X98760813Y-24621726D01*
X98674999Y-24424365D01*
X98670133Y-24415290D01*
X98553239Y-24234601D01*
X98546947Y-24226430D01*
X98402113Y-24067260D01*
X98394580Y-24060234D01*
X98225691Y-23926855D01*
X98217108Y-23921153D01*
X98197599Y-23910383D01*
X98147628Y-23859950D01*
X98132856Y-23790507D01*
X98157972Y-23724102D01*
X98185323Y-23697496D01*
X98344133Y-23584217D01*
X98352003Y-23577567D01*
X98504445Y-23425656D01*
X98511122Y-23417811D01*
X98636702Y-23243047D01*
X98642013Y-23234208D01*
X98737358Y-23041292D01*
X98741156Y-23031699D01*
X98803716Y-22825791D01*
X98805893Y-22815721D01*
X98807705Y-22801960D01*
X98805493Y-22787778D01*
X98792336Y-22784000D01*
X97732115Y-22784000D01*
X97716876Y-22788475D01*
X97715671Y-22789865D01*
X97714000Y-22797548D01*
X97714000Y-24797885D01*
X97206000Y-24797885D01*
X97206000Y-22802115D01*
X97201525Y-22786876D01*
X97200135Y-22785671D01*
X97192452Y-22784000D01*
X95192115Y-22784000D01*
X95176876Y-22788475D01*
X95175671Y-22789865D01*
X95174000Y-22797548D01*
X95174000Y-24797885D01*
X94666000Y-24797885D01*
X94666000Y-22802115D01*
X94661525Y-22786876D01*
X94660135Y-22785671D01*
X94652452Y-22784000D01*
X93589283Y-22784000D01*
X93575752Y-22787973D01*
X93574315Y-22797966D01*
X93605542Y-22936528D01*
X93608621Y-22946356D01*
X93689589Y-23145756D01*
X93694232Y-23154947D01*
X93806682Y-23338448D01*
X93812765Y-23346759D01*
X93953665Y-23509417D01*
X93961032Y-23516633D01*
X94126606Y-23654095D01*
X94135053Y-23660010D01*
X94185031Y-23689215D01*
X94233755Y-23740854D01*
X94246826Y-23810636D01*
X94220095Y-23876408D01*
X94188605Y-23904622D01*
X94182469Y-23908486D01*
X94010373Y-24037700D01*
X94002666Y-24044543D01*
X93853984Y-24200129D01*
X93847498Y-24208139D01*
X93726232Y-24385908D01*
X93721134Y-24394882D01*
X93630530Y-24590071D01*
X93626967Y-24599758D01*
X93570536Y-24803239D01*
X90008500Y-24803239D01*
X90008500Y-14634500D01*
X90028502Y-14566379D01*
X90082158Y-14519886D01*
X90134500Y-14508500D01*
X103012548Y-14508500D01*
X103080669Y-14528502D01*
G37*
G04 #@! TD.AperFunction*
G04 #@! TD*
M02*
