G04 #@! TF.GenerationSoftware,KiCad,Pcbnew,6.0.7-f9a2dced07~116~ubuntu22.04.1*
G04 #@! TF.CreationDate,2022-09-02T22:22:42-04:00*
G04 #@! TF.ProjectId,mikrokosmos-ii,6d696b72-6f6b-46f7-936d-6f732d69692e,rev?*
G04 #@! TF.SameCoordinates,Original*
G04 #@! TF.FileFunction,Legend,Bot*
G04 #@! TF.FilePolarity,Positive*
%FSLAX46Y46*%
G04 Gerber Fmt 4.6, Leading zero omitted, Abs format (unit mm)*
G04 Created by KiCad (PCBNEW 6.0.7-f9a2dced07~116~ubuntu22.04.1) date 2022-09-02 22:22:42*
%MOMM*%
%LPD*%
G01*
G04 APERTURE LIST*
%ADD10C,0.150000*%
%ADD11C,0.120000*%
%ADD12C,0.010000*%
G04 APERTURE END LIST*
D10*
X91500000Y-101500000D02*
X91500000Y-106500000D01*
X108500000Y-107000000D02*
X98000000Y-107000000D01*
X108500000Y-101500000D02*
X108500000Y-107000000D01*
X108500000Y-101500000D02*
X91500000Y-101500000D01*
X108738095Y-138000000D02*
X108819047Y-137952380D01*
X108940476Y-137952380D01*
X109061904Y-138000000D01*
X109142857Y-138095238D01*
X109183333Y-138190476D01*
X109223809Y-138380952D01*
X109223809Y-138523809D01*
X109183333Y-138714285D01*
X109142857Y-138809523D01*
X109061904Y-138904761D01*
X108940476Y-138952380D01*
X108859523Y-138952380D01*
X108738095Y-138904761D01*
X108697619Y-138857142D01*
X108697619Y-138523809D01*
X108859523Y-138523809D01*
X108333333Y-138952380D02*
X108333333Y-137952380D01*
X107847619Y-138952380D01*
X107847619Y-137952380D01*
X107442857Y-138952380D02*
X107442857Y-137952380D01*
X107240476Y-137952380D01*
X107119047Y-138000000D01*
X107038095Y-138095238D01*
X106997619Y-138190476D01*
X106957142Y-138380952D01*
X106957142Y-138523809D01*
X106997619Y-138714285D01*
X107038095Y-138809523D01*
X107119047Y-138904761D01*
X107240476Y-138952380D01*
X107442857Y-138952380D01*
X105338095Y-137904761D02*
X106066666Y-139190476D01*
X104407142Y-138952380D02*
X104407142Y-137952380D01*
X104002380Y-138952380D02*
X104002380Y-137952380D01*
X103516666Y-138952380D01*
X103516666Y-137952380D01*
X105769809Y-103080380D02*
X105769809Y-102080380D01*
X105436476Y-102794666D01*
X105103142Y-102080380D01*
X105103142Y-103080380D01*
X104626952Y-103080380D02*
X104626952Y-102080380D01*
X104150761Y-103080380D02*
X104150761Y-102080380D01*
X103579333Y-103080380D02*
X104007904Y-102508952D01*
X103579333Y-102080380D02*
X104150761Y-102651809D01*
X102579333Y-103080380D02*
X102912666Y-102604190D01*
X103150761Y-103080380D02*
X103150761Y-102080380D01*
X102769809Y-102080380D01*
X102674571Y-102128000D01*
X102626952Y-102175619D01*
X102579333Y-102270857D01*
X102579333Y-102413714D01*
X102626952Y-102508952D01*
X102674571Y-102556571D01*
X102769809Y-102604190D01*
X103150761Y-102604190D01*
X101960285Y-102080380D02*
X101769809Y-102080380D01*
X101674571Y-102128000D01*
X101579333Y-102223238D01*
X101531714Y-102413714D01*
X101531714Y-102747047D01*
X101579333Y-102937523D01*
X101674571Y-103032761D01*
X101769809Y-103080380D01*
X101960285Y-103080380D01*
X102055523Y-103032761D01*
X102150761Y-102937523D01*
X102198380Y-102747047D01*
X102198380Y-102413714D01*
X102150761Y-102223238D01*
X102055523Y-102128000D01*
X101960285Y-102080380D01*
X101103142Y-103080380D02*
X101103142Y-102080380D01*
X100531714Y-103080380D02*
X100960285Y-102508952D01*
X100531714Y-102080380D02*
X101103142Y-102651809D01*
X99912666Y-102080380D02*
X99722190Y-102080380D01*
X99626952Y-102128000D01*
X99531714Y-102223238D01*
X99484095Y-102413714D01*
X99484095Y-102747047D01*
X99531714Y-102937523D01*
X99626952Y-103032761D01*
X99722190Y-103080380D01*
X99912666Y-103080380D01*
X100007904Y-103032761D01*
X100103142Y-102937523D01*
X100150761Y-102747047D01*
X100150761Y-102413714D01*
X100103142Y-102223238D01*
X100007904Y-102128000D01*
X99912666Y-102080380D01*
X99103142Y-103032761D02*
X98960285Y-103080380D01*
X98722190Y-103080380D01*
X98626952Y-103032761D01*
X98579333Y-102985142D01*
X98531714Y-102889904D01*
X98531714Y-102794666D01*
X98579333Y-102699428D01*
X98626952Y-102651809D01*
X98722190Y-102604190D01*
X98912666Y-102556571D01*
X99007904Y-102508952D01*
X99055523Y-102461333D01*
X99103142Y-102366095D01*
X99103142Y-102270857D01*
X99055523Y-102175619D01*
X99007904Y-102128000D01*
X98912666Y-102080380D01*
X98674571Y-102080380D01*
X98531714Y-102128000D01*
X98103142Y-103080380D02*
X98103142Y-102080380D01*
X97769809Y-102794666D01*
X97436476Y-102080380D01*
X97436476Y-103080380D01*
X96769809Y-102080380D02*
X96579333Y-102080380D01*
X96484095Y-102128000D01*
X96388857Y-102223238D01*
X96341238Y-102413714D01*
X96341238Y-102747047D01*
X96388857Y-102937523D01*
X96484095Y-103032761D01*
X96579333Y-103080380D01*
X96769809Y-103080380D01*
X96865047Y-103032761D01*
X96960285Y-102937523D01*
X97007904Y-102747047D01*
X97007904Y-102413714D01*
X96960285Y-102223238D01*
X96865047Y-102128000D01*
X96769809Y-102080380D01*
X95960285Y-103032761D02*
X95817428Y-103080380D01*
X95579333Y-103080380D01*
X95484095Y-103032761D01*
X95436476Y-102985142D01*
X95388857Y-102889904D01*
X95388857Y-102794666D01*
X95436476Y-102699428D01*
X95484095Y-102651809D01*
X95579333Y-102604190D01*
X95769809Y-102556571D01*
X95865047Y-102508952D01*
X95912666Y-102461333D01*
X95960285Y-102366095D01*
X95960285Y-102270857D01*
X95912666Y-102175619D01*
X95865047Y-102128000D01*
X95769809Y-102080380D01*
X95531714Y-102080380D01*
X95388857Y-102128000D01*
X94198380Y-103080380D02*
X94198380Y-102080380D01*
X93722190Y-103080380D02*
X93722190Y-102080380D01*
X106960285Y-104690380D02*
X107293619Y-104214190D01*
X107531714Y-104690380D02*
X107531714Y-103690380D01*
X107150761Y-103690380D01*
X107055523Y-103738000D01*
X107007904Y-103785619D01*
X106960285Y-103880857D01*
X106960285Y-104023714D01*
X107007904Y-104118952D01*
X107055523Y-104166571D01*
X107150761Y-104214190D01*
X107531714Y-104214190D01*
X106531714Y-104690380D02*
X106531714Y-104023714D01*
X106531714Y-103690380D02*
X106579333Y-103738000D01*
X106531714Y-103785619D01*
X106484095Y-103738000D01*
X106531714Y-103690380D01*
X106531714Y-103785619D01*
X105626952Y-104642761D02*
X105722190Y-104690380D01*
X105912666Y-104690380D01*
X106007904Y-104642761D01*
X106055523Y-104595142D01*
X106103142Y-104499904D01*
X106103142Y-104214190D01*
X106055523Y-104118952D01*
X106007904Y-104071333D01*
X105912666Y-104023714D01*
X105722190Y-104023714D01*
X105626952Y-104071333D01*
X105198380Y-104690380D02*
X105198380Y-103690380D01*
X104769809Y-104690380D02*
X104769809Y-104166571D01*
X104817428Y-104071333D01*
X104912666Y-104023714D01*
X105055523Y-104023714D01*
X105150761Y-104071333D01*
X105198380Y-104118952D01*
X103531714Y-104690380D02*
X103531714Y-103690380D01*
X103531714Y-104166571D02*
X102960285Y-104166571D01*
X102960285Y-104690380D02*
X102960285Y-103690380D01*
X102341238Y-104690380D02*
X102436476Y-104642761D01*
X102484095Y-104595142D01*
X102531714Y-104499904D01*
X102531714Y-104214190D01*
X102484095Y-104118952D01*
X102436476Y-104071333D01*
X102341238Y-104023714D01*
X102198380Y-104023714D01*
X102103142Y-104071333D01*
X102055523Y-104118952D01*
X102007904Y-104214190D01*
X102007904Y-104499904D01*
X102055523Y-104595142D01*
X102103142Y-104642761D01*
X102198380Y-104690380D01*
X102341238Y-104690380D01*
X101436476Y-104690380D02*
X101531714Y-104642761D01*
X101579333Y-104547523D01*
X101579333Y-103690380D01*
X101055523Y-104690380D02*
X101055523Y-104023714D01*
X101055523Y-104118952D02*
X101007904Y-104071333D01*
X100912666Y-104023714D01*
X100769809Y-104023714D01*
X100674571Y-104071333D01*
X100626952Y-104166571D01*
X100626952Y-104690380D01*
X100626952Y-104166571D02*
X100579333Y-104071333D01*
X100484095Y-104023714D01*
X100341238Y-104023714D01*
X100246000Y-104071333D01*
X100198380Y-104166571D01*
X100198380Y-104690380D01*
X99341238Y-104642761D02*
X99436476Y-104690380D01*
X99626952Y-104690380D01*
X99722190Y-104642761D01*
X99769809Y-104547523D01*
X99769809Y-104166571D01*
X99722190Y-104071333D01*
X99626952Y-104023714D01*
X99436476Y-104023714D01*
X99341238Y-104071333D01*
X99293619Y-104166571D01*
X99293619Y-104261809D01*
X99769809Y-104357047D01*
X98912666Y-104642761D02*
X98817428Y-104690380D01*
X98626952Y-104690380D01*
X98531714Y-104642761D01*
X98484095Y-104547523D01*
X98484095Y-104499904D01*
X98531714Y-104404666D01*
X98626952Y-104357047D01*
X98769809Y-104357047D01*
X98865047Y-104309428D01*
X98912666Y-104214190D01*
X98912666Y-104166571D01*
X98865047Y-104071333D01*
X98769809Y-104023714D01*
X98626952Y-104023714D01*
X98531714Y-104071333D01*
X97388857Y-103690380D02*
X96722190Y-103690380D01*
X97150761Y-104690380D01*
X95626952Y-103642761D02*
X96484095Y-104928476D01*
X95341238Y-103785619D02*
X95293619Y-103738000D01*
X95198380Y-103690380D01*
X94960285Y-103690380D01*
X94865047Y-103738000D01*
X94817428Y-103785619D01*
X94769809Y-103880857D01*
X94769809Y-103976095D01*
X94817428Y-104118952D01*
X95388857Y-104690380D01*
X94769809Y-104690380D01*
X94150761Y-103690380D02*
X94055523Y-103690380D01*
X93960285Y-103738000D01*
X93912666Y-103785619D01*
X93865047Y-103880857D01*
X93817428Y-104071333D01*
X93817428Y-104309428D01*
X93865047Y-104499904D01*
X93912666Y-104595142D01*
X93960285Y-104642761D01*
X94055523Y-104690380D01*
X94150761Y-104690380D01*
X94246000Y-104642761D01*
X94293619Y-104595142D01*
X94341238Y-104499904D01*
X94388857Y-104309428D01*
X94388857Y-104071333D01*
X94341238Y-103880857D01*
X94293619Y-103785619D01*
X94246000Y-103738000D01*
X94150761Y-103690380D01*
X93436476Y-103785619D02*
X93388857Y-103738000D01*
X93293619Y-103690380D01*
X93055523Y-103690380D01*
X92960285Y-103738000D01*
X92912666Y-103785619D01*
X92865047Y-103880857D01*
X92865047Y-103976095D01*
X92912666Y-104118952D01*
X93484095Y-104690380D01*
X92865047Y-104690380D01*
X92484095Y-103785619D02*
X92436476Y-103738000D01*
X92341238Y-103690380D01*
X92103142Y-103690380D01*
X92007904Y-103738000D01*
X91960285Y-103785619D01*
X91912666Y-103880857D01*
X91912666Y-103976095D01*
X91960285Y-104118952D01*
X92531714Y-104690380D01*
X91912666Y-104690380D01*
X101984095Y-106205142D02*
X102031714Y-106252761D01*
X102174571Y-106300380D01*
X102269809Y-106300380D01*
X102412666Y-106252761D01*
X102507904Y-106157523D01*
X102555523Y-106062285D01*
X102603142Y-105871809D01*
X102603142Y-105728952D01*
X102555523Y-105538476D01*
X102507904Y-105443238D01*
X102412666Y-105348000D01*
X102269809Y-105300380D01*
X102174571Y-105300380D01*
X102031714Y-105348000D01*
X101984095Y-105395619D01*
X100984095Y-106205142D02*
X101031714Y-106252761D01*
X101174571Y-106300380D01*
X101269809Y-106300380D01*
X101412666Y-106252761D01*
X101507904Y-106157523D01*
X101555523Y-106062285D01*
X101603142Y-105871809D01*
X101603142Y-105728952D01*
X101555523Y-105538476D01*
X101507904Y-105443238D01*
X101412666Y-105348000D01*
X101269809Y-105300380D01*
X101174571Y-105300380D01*
X101031714Y-105348000D01*
X100984095Y-105395619D01*
X100365047Y-105300380D02*
X100269809Y-105300380D01*
X100174571Y-105348000D01*
X100126952Y-105395619D01*
X100079333Y-105490857D01*
X100031714Y-105681333D01*
X100031714Y-105919428D01*
X100079333Y-106109904D01*
X100126952Y-106205142D01*
X100174571Y-106252761D01*
X100269809Y-106300380D01*
X100365047Y-106300380D01*
X100460285Y-106252761D01*
X100507904Y-106205142D01*
X100555523Y-106109904D01*
X100603142Y-105919428D01*
X100603142Y-105681333D01*
X100555523Y-105490857D01*
X100507904Y-105395619D01*
X100460285Y-105348000D01*
X100365047Y-105300380D01*
X98317428Y-106300380D02*
X98888857Y-106300380D01*
X98603142Y-106300380D02*
X98603142Y-105300380D01*
X98698380Y-105443238D01*
X98793619Y-105538476D01*
X98888857Y-105586095D01*
X97888857Y-106205142D02*
X97841238Y-106252761D01*
X97888857Y-106300380D01*
X97936476Y-106252761D01*
X97888857Y-106205142D01*
X97888857Y-106300380D01*
X97222190Y-105300380D02*
X97126952Y-105300380D01*
X97031714Y-105348000D01*
X96984095Y-105395619D01*
X96936476Y-105490857D01*
X96888857Y-105681333D01*
X96888857Y-105919428D01*
X96936476Y-106109904D01*
X96984095Y-106205142D01*
X97031714Y-106252761D01*
X97126952Y-106300380D01*
X97222190Y-106300380D01*
X97317428Y-106252761D01*
X97365047Y-106205142D01*
X97412666Y-106109904D01*
X97460285Y-105919428D01*
X97460285Y-105681333D01*
X97412666Y-105490857D01*
X97365047Y-105395619D01*
X97317428Y-105348000D01*
X97222190Y-105300380D01*
X90952380Y-96728571D02*
X89952380Y-96728571D01*
X90952380Y-97092857D02*
X90428571Y-97092857D01*
X90333333Y-97052380D01*
X90285714Y-96971428D01*
X90285714Y-96850000D01*
X90333333Y-96769047D01*
X90380952Y-96728571D01*
X90285714Y-97376190D02*
X90285714Y-97700000D01*
X89952380Y-97497619D02*
X90809523Y-97497619D01*
X90904761Y-97538095D01*
X90952380Y-97619047D01*
X90952380Y-97700000D01*
X90285714Y-97861904D02*
X90285714Y-98185714D01*
X89952380Y-97983333D02*
X90809523Y-97983333D01*
X90904761Y-98023809D01*
X90952380Y-98104761D01*
X90952380Y-98185714D01*
X90285714Y-98469047D02*
X91285714Y-98469047D01*
X90333333Y-98469047D02*
X90285714Y-98550000D01*
X90285714Y-98711904D01*
X90333333Y-98792857D01*
X90380952Y-98833333D01*
X90476190Y-98873809D01*
X90761904Y-98873809D01*
X90857142Y-98833333D01*
X90904761Y-98792857D01*
X90952380Y-98711904D01*
X90952380Y-98550000D01*
X90904761Y-98469047D01*
X90904761Y-99197619D02*
X90952380Y-99278571D01*
X90952380Y-99440476D01*
X90904761Y-99521428D01*
X90809523Y-99561904D01*
X90761904Y-99561904D01*
X90666666Y-99521428D01*
X90619047Y-99440476D01*
X90619047Y-99319047D01*
X90571428Y-99238095D01*
X90476190Y-99197619D01*
X90428571Y-99197619D01*
X90333333Y-99238095D01*
X90285714Y-99319047D01*
X90285714Y-99440476D01*
X90333333Y-99521428D01*
X90857142Y-99926190D02*
X90904761Y-99966666D01*
X90952380Y-99926190D01*
X90904761Y-99885714D01*
X90857142Y-99926190D01*
X90952380Y-99926190D01*
X90333333Y-99926190D02*
X90380952Y-99966666D01*
X90428571Y-99926190D01*
X90380952Y-99885714D01*
X90333333Y-99926190D01*
X90428571Y-99926190D01*
X89904761Y-100938095D02*
X91190476Y-100209523D01*
X89904761Y-101828571D02*
X91190476Y-101100000D01*
X90285714Y-102476190D02*
X91095238Y-102476190D01*
X91190476Y-102435714D01*
X91238095Y-102395238D01*
X91285714Y-102314285D01*
X91285714Y-102192857D01*
X91238095Y-102111904D01*
X90904761Y-102476190D02*
X90952380Y-102395238D01*
X90952380Y-102233333D01*
X90904761Y-102152380D01*
X90857142Y-102111904D01*
X90761904Y-102071428D01*
X90476190Y-102071428D01*
X90380952Y-102111904D01*
X90333333Y-102152380D01*
X90285714Y-102233333D01*
X90285714Y-102395238D01*
X90333333Y-102476190D01*
X90952380Y-102880952D02*
X90285714Y-102880952D01*
X89952380Y-102880952D02*
X90000000Y-102840476D01*
X90047619Y-102880952D01*
X90000000Y-102921428D01*
X89952380Y-102880952D01*
X90047619Y-102880952D01*
X90285714Y-103164285D02*
X90285714Y-103488095D01*
X89952380Y-103285714D02*
X90809523Y-103285714D01*
X90904761Y-103326190D01*
X90952380Y-103407142D01*
X90952380Y-103488095D01*
X90952380Y-103771428D02*
X89952380Y-103771428D01*
X90952380Y-104135714D02*
X90428571Y-104135714D01*
X90333333Y-104095238D01*
X90285714Y-104014285D01*
X90285714Y-103892857D01*
X90333333Y-103811904D01*
X90380952Y-103771428D01*
X90285714Y-104904761D02*
X90952380Y-104904761D01*
X90285714Y-104540476D02*
X90809523Y-104540476D01*
X90904761Y-104580952D01*
X90952380Y-104661904D01*
X90952380Y-104783333D01*
X90904761Y-104864285D01*
X90857142Y-104904761D01*
X90952380Y-105309523D02*
X89952380Y-105309523D01*
X90333333Y-105309523D02*
X90285714Y-105390476D01*
X90285714Y-105552380D01*
X90333333Y-105633333D01*
X90380952Y-105673809D01*
X90476190Y-105714285D01*
X90761904Y-105714285D01*
X90857142Y-105673809D01*
X90904761Y-105633333D01*
X90952380Y-105552380D01*
X90952380Y-105390476D01*
X90904761Y-105309523D01*
X90857142Y-106078571D02*
X90904761Y-106119047D01*
X90952380Y-106078571D01*
X90904761Y-106038095D01*
X90857142Y-106078571D01*
X90952380Y-106078571D01*
X90904761Y-106847619D02*
X90952380Y-106766666D01*
X90952380Y-106604761D01*
X90904761Y-106523809D01*
X90857142Y-106483333D01*
X90761904Y-106442857D01*
X90476190Y-106442857D01*
X90380952Y-106483333D01*
X90333333Y-106523809D01*
X90285714Y-106604761D01*
X90285714Y-106766666D01*
X90333333Y-106847619D01*
X90952380Y-107333333D02*
X90904761Y-107252380D01*
X90857142Y-107211904D01*
X90761904Y-107171428D01*
X90476190Y-107171428D01*
X90380952Y-107211904D01*
X90333333Y-107252380D01*
X90285714Y-107333333D01*
X90285714Y-107454761D01*
X90333333Y-107535714D01*
X90380952Y-107576190D01*
X90476190Y-107616666D01*
X90761904Y-107616666D01*
X90857142Y-107576190D01*
X90904761Y-107535714D01*
X90952380Y-107454761D01*
X90952380Y-107333333D01*
X90952380Y-107980952D02*
X90285714Y-107980952D01*
X90380952Y-107980952D02*
X90333333Y-108021428D01*
X90285714Y-108102380D01*
X90285714Y-108223809D01*
X90333333Y-108304761D01*
X90428571Y-108345238D01*
X90952380Y-108345238D01*
X90428571Y-108345238D02*
X90333333Y-108385714D01*
X90285714Y-108466666D01*
X90285714Y-108588095D01*
X90333333Y-108669047D01*
X90428571Y-108709523D01*
X90952380Y-108709523D01*
X89904761Y-109721428D02*
X91190476Y-108992857D01*
X90952380Y-110004761D02*
X89952380Y-110004761D01*
X90952380Y-110369047D02*
X90428571Y-110369047D01*
X90333333Y-110328571D01*
X90285714Y-110247619D01*
X90285714Y-110126190D01*
X90333333Y-110045238D01*
X90380952Y-110004761D01*
X90952380Y-110895238D02*
X90904761Y-110814285D01*
X90857142Y-110773809D01*
X90761904Y-110733333D01*
X90476190Y-110733333D01*
X90380952Y-110773809D01*
X90333333Y-110814285D01*
X90285714Y-110895238D01*
X90285714Y-111016666D01*
X90333333Y-111097619D01*
X90380952Y-111138095D01*
X90476190Y-111178571D01*
X90761904Y-111178571D01*
X90857142Y-111138095D01*
X90904761Y-111097619D01*
X90952380Y-111016666D01*
X90952380Y-110895238D01*
X90952380Y-111664285D02*
X90904761Y-111583333D01*
X90809523Y-111542857D01*
X89952380Y-111542857D01*
X90952380Y-111988095D02*
X90285714Y-111988095D01*
X90380952Y-111988095D02*
X90333333Y-112028571D01*
X90285714Y-112109523D01*
X90285714Y-112230952D01*
X90333333Y-112311904D01*
X90428571Y-112352380D01*
X90952380Y-112352380D01*
X90428571Y-112352380D02*
X90333333Y-112392857D01*
X90285714Y-112473809D01*
X90285714Y-112595238D01*
X90333333Y-112676190D01*
X90428571Y-112716666D01*
X90952380Y-112716666D01*
X90904761Y-113445238D02*
X90952380Y-113364285D01*
X90952380Y-113202380D01*
X90904761Y-113121428D01*
X90809523Y-113080952D01*
X90428571Y-113080952D01*
X90333333Y-113121428D01*
X90285714Y-113202380D01*
X90285714Y-113364285D01*
X90333333Y-113445238D01*
X90428571Y-113485714D01*
X90523809Y-113485714D01*
X90619047Y-113080952D01*
X90904761Y-113809523D02*
X90952380Y-113890476D01*
X90952380Y-114052380D01*
X90904761Y-114133333D01*
X90809523Y-114173809D01*
X90761904Y-114173809D01*
X90666666Y-114133333D01*
X90619047Y-114052380D01*
X90619047Y-113930952D01*
X90571428Y-113850000D01*
X90476190Y-113809523D01*
X90428571Y-113809523D01*
X90333333Y-113850000D01*
X90285714Y-113930952D01*
X90285714Y-114052380D01*
X90333333Y-114133333D01*
X90952380Y-114538095D02*
X90285714Y-114538095D01*
X90476190Y-114538095D02*
X90380952Y-114578571D01*
X90333333Y-114619047D01*
X90285714Y-114700000D01*
X90285714Y-114780952D01*
X90952380Y-115064285D02*
X90285714Y-115064285D01*
X89952380Y-115064285D02*
X90000000Y-115023809D01*
X90047619Y-115064285D01*
X90000000Y-115104761D01*
X89952380Y-115064285D01*
X90047619Y-115064285D01*
X90904761Y-115833333D02*
X90952380Y-115752380D01*
X90952380Y-115590476D01*
X90904761Y-115509523D01*
X90857142Y-115469047D01*
X90761904Y-115428571D01*
X90476190Y-115428571D01*
X90380952Y-115469047D01*
X90333333Y-115509523D01*
X90285714Y-115590476D01*
X90285714Y-115752380D01*
X90333333Y-115833333D01*
X90952380Y-116197619D02*
X89952380Y-116197619D01*
X90952380Y-116561904D02*
X90428571Y-116561904D01*
X90333333Y-116521428D01*
X90285714Y-116440476D01*
X90285714Y-116319047D01*
X90333333Y-116238095D01*
X90380952Y-116197619D01*
X90952380Y-117330952D02*
X90428571Y-117330952D01*
X90333333Y-117290476D01*
X90285714Y-117209523D01*
X90285714Y-117047619D01*
X90333333Y-116966666D01*
X90904761Y-117330952D02*
X90952380Y-117250000D01*
X90952380Y-117047619D01*
X90904761Y-116966666D01*
X90809523Y-116926190D01*
X90714285Y-116926190D01*
X90619047Y-116966666D01*
X90571428Y-117047619D01*
X90571428Y-117250000D01*
X90523809Y-117330952D01*
X90952380Y-117735714D02*
X90285714Y-117735714D01*
X90476190Y-117735714D02*
X90380952Y-117776190D01*
X90333333Y-117816666D01*
X90285714Y-117897619D01*
X90285714Y-117978571D01*
X90952380Y-118626190D02*
X89952380Y-118626190D01*
X90904761Y-118626190D02*
X90952380Y-118545238D01*
X90952380Y-118383333D01*
X90904761Y-118302380D01*
X90857142Y-118261904D01*
X90761904Y-118221428D01*
X90476190Y-118221428D01*
X90380952Y-118261904D01*
X90333333Y-118302380D01*
X90285714Y-118383333D01*
X90285714Y-118545238D01*
X90333333Y-118626190D01*
X90904761Y-118990476D02*
X90952380Y-119071428D01*
X90952380Y-119233333D01*
X90904761Y-119314285D01*
X90809523Y-119354761D01*
X90761904Y-119354761D01*
X90666666Y-119314285D01*
X90619047Y-119233333D01*
X90619047Y-119111904D01*
X90571428Y-119030952D01*
X90476190Y-118990476D01*
X90428571Y-118990476D01*
X90333333Y-119030952D01*
X90285714Y-119111904D01*
X90285714Y-119233333D01*
X90333333Y-119314285D01*
X89904761Y-120326190D02*
X91190476Y-119597619D01*
X90952380Y-120609523D02*
X90285714Y-120609523D01*
X90380952Y-120609523D02*
X90333333Y-120650000D01*
X90285714Y-120730952D01*
X90285714Y-120852380D01*
X90333333Y-120933333D01*
X90428571Y-120973809D01*
X90952380Y-120973809D01*
X90428571Y-120973809D02*
X90333333Y-121014285D01*
X90285714Y-121095238D01*
X90285714Y-121216666D01*
X90333333Y-121297619D01*
X90428571Y-121338095D01*
X90952380Y-121338095D01*
X90952380Y-121742857D02*
X90285714Y-121742857D01*
X89952380Y-121742857D02*
X90000000Y-121702380D01*
X90047619Y-121742857D01*
X90000000Y-121783333D01*
X89952380Y-121742857D01*
X90047619Y-121742857D01*
X90952380Y-122147619D02*
X89952380Y-122147619D01*
X90571428Y-122228571D02*
X90952380Y-122471428D01*
X90285714Y-122471428D02*
X90666666Y-122147619D01*
X90952380Y-122835714D02*
X90285714Y-122835714D01*
X90476190Y-122835714D02*
X90380952Y-122876190D01*
X90333333Y-122916666D01*
X90285714Y-122997619D01*
X90285714Y-123078571D01*
X90952380Y-123483333D02*
X90904761Y-123402380D01*
X90857142Y-123361904D01*
X90761904Y-123321428D01*
X90476190Y-123321428D01*
X90380952Y-123361904D01*
X90333333Y-123402380D01*
X90285714Y-123483333D01*
X90285714Y-123604761D01*
X90333333Y-123685714D01*
X90380952Y-123726190D01*
X90476190Y-123766666D01*
X90761904Y-123766666D01*
X90857142Y-123726190D01*
X90904761Y-123685714D01*
X90952380Y-123604761D01*
X90952380Y-123483333D01*
X90952380Y-124130952D02*
X89952380Y-124130952D01*
X90571428Y-124211904D02*
X90952380Y-124454761D01*
X90285714Y-124454761D02*
X90666666Y-124130952D01*
X90952380Y-124940476D02*
X90904761Y-124859523D01*
X90857142Y-124819047D01*
X90761904Y-124778571D01*
X90476190Y-124778571D01*
X90380952Y-124819047D01*
X90333333Y-124859523D01*
X90285714Y-124940476D01*
X90285714Y-125061904D01*
X90333333Y-125142857D01*
X90380952Y-125183333D01*
X90476190Y-125223809D01*
X90761904Y-125223809D01*
X90857142Y-125183333D01*
X90904761Y-125142857D01*
X90952380Y-125061904D01*
X90952380Y-124940476D01*
X90904761Y-125547619D02*
X90952380Y-125628571D01*
X90952380Y-125790476D01*
X90904761Y-125871428D01*
X90809523Y-125911904D01*
X90761904Y-125911904D01*
X90666666Y-125871428D01*
X90619047Y-125790476D01*
X90619047Y-125669047D01*
X90571428Y-125588095D01*
X90476190Y-125547619D01*
X90428571Y-125547619D01*
X90333333Y-125588095D01*
X90285714Y-125669047D01*
X90285714Y-125790476D01*
X90333333Y-125871428D01*
X90952380Y-126276190D02*
X90285714Y-126276190D01*
X90380952Y-126276190D02*
X90333333Y-126316666D01*
X90285714Y-126397619D01*
X90285714Y-126519047D01*
X90333333Y-126600000D01*
X90428571Y-126640476D01*
X90952380Y-126640476D01*
X90428571Y-126640476D02*
X90333333Y-126680952D01*
X90285714Y-126761904D01*
X90285714Y-126883333D01*
X90333333Y-126964285D01*
X90428571Y-127004761D01*
X90952380Y-127004761D01*
X90952380Y-127530952D02*
X90904761Y-127450000D01*
X90857142Y-127409523D01*
X90761904Y-127369047D01*
X90476190Y-127369047D01*
X90380952Y-127409523D01*
X90333333Y-127450000D01*
X90285714Y-127530952D01*
X90285714Y-127652380D01*
X90333333Y-127733333D01*
X90380952Y-127773809D01*
X90476190Y-127814285D01*
X90761904Y-127814285D01*
X90857142Y-127773809D01*
X90904761Y-127733333D01*
X90952380Y-127652380D01*
X90952380Y-127530952D01*
X90904761Y-128138095D02*
X90952380Y-128219047D01*
X90952380Y-128380952D01*
X90904761Y-128461904D01*
X90809523Y-128502380D01*
X90761904Y-128502380D01*
X90666666Y-128461904D01*
X90619047Y-128380952D01*
X90619047Y-128259523D01*
X90571428Y-128178571D01*
X90476190Y-128138095D01*
X90428571Y-128138095D01*
X90333333Y-128178571D01*
X90285714Y-128259523D01*
X90285714Y-128380952D01*
X90333333Y-128461904D01*
X90952380Y-128866666D02*
X90285714Y-128866666D01*
X89952380Y-128866666D02*
X90000000Y-128826190D01*
X90047619Y-128866666D01*
X90000000Y-128907142D01*
X89952380Y-128866666D01*
X90047619Y-128866666D01*
X90952380Y-129271428D02*
X90285714Y-129271428D01*
X89952380Y-129271428D02*
X90000000Y-129230952D01*
X90047619Y-129271428D01*
X90000000Y-129311904D01*
X89952380Y-129271428D01*
X90047619Y-129271428D01*
X101430761Y-138000000D02*
X101511714Y-137952380D01*
X101633142Y-137952380D01*
X101754571Y-138000000D01*
X101835523Y-138095238D01*
X101876000Y-138190476D01*
X101916476Y-138380952D01*
X101916476Y-138523809D01*
X101876000Y-138714285D01*
X101835523Y-138809523D01*
X101754571Y-138904761D01*
X101633142Y-138952380D01*
X101552190Y-138952380D01*
X101430761Y-138904761D01*
X101390285Y-138857142D01*
X101390285Y-138523809D01*
X101552190Y-138523809D01*
X101026000Y-138952380D02*
X101026000Y-137952380D01*
X100540285Y-138952380D01*
X100540285Y-137952380D01*
X100135523Y-138952380D02*
X100135523Y-137952380D01*
X99933142Y-137952380D01*
X99811714Y-138000000D01*
X99730761Y-138095238D01*
X99690285Y-138190476D01*
X99649809Y-138380952D01*
X99649809Y-138523809D01*
X99690285Y-138714285D01*
X99730761Y-138809523D01*
X99811714Y-138904761D01*
X99933142Y-138952380D01*
X100135523Y-138952380D01*
X98030761Y-137904761D02*
X98759333Y-139190476D01*
X96937904Y-137952380D02*
X96776000Y-137952380D01*
X96695047Y-138000000D01*
X96614095Y-138095238D01*
X96573619Y-138285714D01*
X96573619Y-138619047D01*
X96614095Y-138809523D01*
X96695047Y-138904761D01*
X96776000Y-138952380D01*
X96937904Y-138952380D01*
X97018857Y-138904761D01*
X97099809Y-138809523D01*
X97140285Y-138619047D01*
X97140285Y-138285714D01*
X97099809Y-138095238D01*
X97018857Y-138000000D01*
X96937904Y-137952380D01*
X96209333Y-137952380D02*
X96209333Y-138761904D01*
X96168857Y-138857142D01*
X96128380Y-138904761D01*
X96047428Y-138952380D01*
X95885523Y-138952380D01*
X95804571Y-138904761D01*
X95764095Y-138857142D01*
X95723619Y-138761904D01*
X95723619Y-137952380D01*
X95440285Y-137952380D02*
X94954571Y-137952380D01*
X95197428Y-138952380D02*
X95197428Y-137952380D01*
X109285714Y-102690476D02*
X109285714Y-103071428D01*
X109952380Y-102833333D02*
X109095238Y-102833333D01*
X109000000Y-102880952D01*
X108952380Y-102976190D01*
X108952380Y-103071428D01*
X109952380Y-103404761D02*
X109285714Y-103404761D01*
X109476190Y-103404761D02*
X109380952Y-103452380D01*
X109333333Y-103500000D01*
X109285714Y-103595238D01*
X109285714Y-103690476D01*
X109952380Y-104166666D02*
X109904761Y-104071428D01*
X109857142Y-104023809D01*
X109761904Y-103976190D01*
X109476190Y-103976190D01*
X109380952Y-104023809D01*
X109333333Y-104071428D01*
X109285714Y-104166666D01*
X109285714Y-104309523D01*
X109333333Y-104404761D01*
X109380952Y-104452380D01*
X109476190Y-104500000D01*
X109761904Y-104500000D01*
X109857142Y-104452380D01*
X109904761Y-104404761D01*
X109952380Y-104309523D01*
X109952380Y-104166666D01*
X109952380Y-104928571D02*
X109285714Y-104928571D01*
X109380952Y-104928571D02*
X109333333Y-104976190D01*
X109285714Y-105071428D01*
X109285714Y-105214285D01*
X109333333Y-105309523D01*
X109428571Y-105357142D01*
X109952380Y-105357142D01*
X109428571Y-105357142D02*
X109333333Y-105404761D01*
X109285714Y-105500000D01*
X109285714Y-105642857D01*
X109333333Y-105738095D01*
X109428571Y-105785714D01*
X109952380Y-105785714D01*
X109904761Y-107452380D02*
X109952380Y-107357142D01*
X109952380Y-107166666D01*
X109904761Y-107071428D01*
X109857142Y-107023809D01*
X109761904Y-106976190D01*
X109476190Y-106976190D01*
X109380952Y-107023809D01*
X109333333Y-107071428D01*
X109285714Y-107166666D01*
X109285714Y-107357142D01*
X109333333Y-107452380D01*
X109952380Y-107880952D02*
X109285714Y-107880952D01*
X108952380Y-107880952D02*
X109000000Y-107833333D01*
X109047619Y-107880952D01*
X109000000Y-107928571D01*
X108952380Y-107880952D01*
X109047619Y-107880952D01*
X109952380Y-108357142D02*
X109285714Y-108357142D01*
X109476190Y-108357142D02*
X109380952Y-108404761D01*
X109333333Y-108452380D01*
X109285714Y-108547619D01*
X109285714Y-108642857D01*
X109904761Y-109404761D02*
X109952380Y-109309523D01*
X109952380Y-109119047D01*
X109904761Y-109023809D01*
X109857142Y-108976190D01*
X109761904Y-108928571D01*
X109476190Y-108928571D01*
X109380952Y-108976190D01*
X109333333Y-109023809D01*
X109285714Y-109119047D01*
X109285714Y-109309523D01*
X109333333Y-109404761D01*
X109285714Y-110261904D02*
X109952380Y-110261904D01*
X109285714Y-109833333D02*
X109809523Y-109833333D01*
X109904761Y-109880952D01*
X109952380Y-109976190D01*
X109952380Y-110119047D01*
X109904761Y-110214285D01*
X109857142Y-110261904D01*
X109952380Y-110738095D02*
X109285714Y-110738095D01*
X108952380Y-110738095D02*
X109000000Y-110690476D01*
X109047619Y-110738095D01*
X109000000Y-110785714D01*
X108952380Y-110738095D01*
X109047619Y-110738095D01*
X109285714Y-111071428D02*
X109285714Y-111452380D01*
X108952380Y-111214285D02*
X109809523Y-111214285D01*
X109904761Y-111261904D01*
X109952380Y-111357142D01*
X109952380Y-111452380D01*
X109952380Y-112547619D02*
X108952380Y-112547619D01*
X109333333Y-112547619D02*
X109285714Y-112642857D01*
X109285714Y-112833333D01*
X109333333Y-112928571D01*
X109380952Y-112976190D01*
X109476190Y-113023809D01*
X109761904Y-113023809D01*
X109857142Y-112976190D01*
X109904761Y-112928571D01*
X109952380Y-112833333D01*
X109952380Y-112642857D01*
X109904761Y-112547619D01*
X109285714Y-113357142D02*
X109952380Y-113595238D01*
X109285714Y-113833333D02*
X109952380Y-113595238D01*
X110190476Y-113500000D01*
X110238095Y-113452380D01*
X110285714Y-113357142D01*
X109000000Y-115500000D02*
X108952380Y-115404761D01*
X108952380Y-115261904D01*
X109000000Y-115119047D01*
X109095238Y-115023809D01*
X109190476Y-114976190D01*
X109380952Y-114928571D01*
X109523809Y-114928571D01*
X109714285Y-114976190D01*
X109809523Y-115023809D01*
X109904761Y-115119047D01*
X109952380Y-115261904D01*
X109952380Y-115357142D01*
X109904761Y-115500000D01*
X109857142Y-115547619D01*
X109523809Y-115547619D01*
X109523809Y-115357142D01*
X109857142Y-115976190D02*
X109904761Y-116023809D01*
X109952380Y-115976190D01*
X109904761Y-115928571D01*
X109857142Y-115976190D01*
X109952380Y-115976190D01*
X109571428Y-116452380D02*
X109571428Y-117214285D01*
X108952380Y-117595238D02*
X109952380Y-117833333D01*
X109238095Y-118023809D01*
X109952380Y-118214285D01*
X108952380Y-118452380D01*
X109857142Y-118833333D02*
X109904761Y-118880952D01*
X109952380Y-118833333D01*
X109904761Y-118785714D01*
X109857142Y-118833333D01*
X109952380Y-118833333D01*
X109952380Y-120642857D02*
X109476190Y-120309523D01*
X109952380Y-120071428D02*
X108952380Y-120071428D01*
X108952380Y-120452380D01*
X109000000Y-120547619D01*
X109047619Y-120595238D01*
X109142857Y-120642857D01*
X109285714Y-120642857D01*
X109380952Y-120595238D01*
X109428571Y-120547619D01*
X109476190Y-120452380D01*
X109476190Y-120071428D01*
X109952380Y-121500000D02*
X109428571Y-121500000D01*
X109333333Y-121452380D01*
X109285714Y-121357142D01*
X109285714Y-121166666D01*
X109333333Y-121071428D01*
X109904761Y-121500000D02*
X109952380Y-121404761D01*
X109952380Y-121166666D01*
X109904761Y-121071428D01*
X109809523Y-121023809D01*
X109714285Y-121023809D01*
X109619047Y-121071428D01*
X109571428Y-121166666D01*
X109571428Y-121404761D01*
X109523809Y-121500000D01*
X109904761Y-122357142D02*
X109952380Y-122261904D01*
X109952380Y-122071428D01*
X109904761Y-121976190D01*
X109809523Y-121928571D01*
X109428571Y-121928571D01*
X109333333Y-121976190D01*
X109285714Y-122071428D01*
X109285714Y-122261904D01*
X109333333Y-122357142D01*
X109428571Y-122404761D01*
X109523809Y-122404761D01*
X109619047Y-121928571D01*
X109904761Y-122785714D02*
X109952380Y-122880952D01*
X109952380Y-123071428D01*
X109904761Y-123166666D01*
X109809523Y-123214285D01*
X109761904Y-123214285D01*
X109666666Y-123166666D01*
X109619047Y-123071428D01*
X109619047Y-122928571D01*
X109571428Y-122833333D01*
X109476190Y-122785714D01*
X109428571Y-122785714D01*
X109333333Y-122833333D01*
X109285714Y-122928571D01*
X109285714Y-123071428D01*
X109333333Y-123166666D01*
G04 #@! TO.C,TP2*
X93747285Y-39363571D02*
X93747285Y-39792142D01*
X94497285Y-39577857D02*
X93747285Y-39577857D01*
X94497285Y-40042142D02*
X93747285Y-40042142D01*
X93747285Y-40327857D01*
X93783000Y-40399285D01*
X93818714Y-40435000D01*
X93890142Y-40470714D01*
X93997285Y-40470714D01*
X94068714Y-40435000D01*
X94104428Y-40399285D01*
X94140142Y-40327857D01*
X94140142Y-40042142D01*
X93818714Y-40756428D02*
X93783000Y-40792142D01*
X93747285Y-40863571D01*
X93747285Y-41042142D01*
X93783000Y-41113571D01*
X93818714Y-41149285D01*
X93890142Y-41185000D01*
X93961571Y-41185000D01*
X94068714Y-41149285D01*
X94497285Y-40720714D01*
X94497285Y-41185000D01*
X92767000Y-39738571D02*
X92731285Y-39667142D01*
X92731285Y-39560000D01*
X92767000Y-39452857D01*
X92838428Y-39381428D01*
X92909857Y-39345714D01*
X93052714Y-39310000D01*
X93159857Y-39310000D01*
X93302714Y-39345714D01*
X93374142Y-39381428D01*
X93445571Y-39452857D01*
X93481285Y-39560000D01*
X93481285Y-39631428D01*
X93445571Y-39738571D01*
X93409857Y-39774285D01*
X93159857Y-39774285D01*
X93159857Y-39631428D01*
X93481285Y-40095714D02*
X92731285Y-40095714D01*
X93481285Y-40524285D01*
X92731285Y-40524285D01*
X93481285Y-40881428D02*
X92731285Y-40881428D01*
X92731285Y-41060000D01*
X92767000Y-41167142D01*
X92838428Y-41238571D01*
X92909857Y-41274285D01*
X93052714Y-41310000D01*
X93159857Y-41310000D01*
X93302714Y-41274285D01*
X93374142Y-41238571D01*
X93445571Y-41167142D01*
X93481285Y-41060000D01*
X93481285Y-40881428D01*
G04 #@! TO.C,TP3*
X93195571Y-42798571D02*
X93195571Y-43370000D01*
X93481285Y-44120000D02*
X93481285Y-43691428D01*
X93481285Y-43905714D02*
X92731285Y-43905714D01*
X92838428Y-43834285D01*
X92909857Y-43762857D01*
X92945571Y-43691428D01*
X92802714Y-44405714D02*
X92767000Y-44441428D01*
X92731285Y-44512857D01*
X92731285Y-44691428D01*
X92767000Y-44762857D01*
X92802714Y-44798571D01*
X92874142Y-44834285D01*
X92945571Y-44834285D01*
X93052714Y-44798571D01*
X93481285Y-44370000D01*
X93481285Y-44834285D01*
X92731285Y-45048571D02*
X93481285Y-45298571D01*
X92731285Y-45548571D01*
X93747285Y-43173571D02*
X93747285Y-43602142D01*
X94497285Y-43387857D02*
X93747285Y-43387857D01*
X94497285Y-43852142D02*
X93747285Y-43852142D01*
X93747285Y-44137857D01*
X93783000Y-44209285D01*
X93818714Y-44245000D01*
X93890142Y-44280714D01*
X93997285Y-44280714D01*
X94068714Y-44245000D01*
X94104428Y-44209285D01*
X94140142Y-44137857D01*
X94140142Y-43852142D01*
X93747285Y-44530714D02*
X93747285Y-44995000D01*
X94033000Y-44745000D01*
X94033000Y-44852142D01*
X94068714Y-44923571D01*
X94104428Y-44959285D01*
X94175857Y-44995000D01*
X94354428Y-44995000D01*
X94425857Y-44959285D01*
X94461571Y-44923571D01*
X94497285Y-44852142D01*
X94497285Y-44637857D01*
X94461571Y-44566428D01*
X94425857Y-44530714D01*
G04 #@! TO.C,TP1*
X93747285Y-35807571D02*
X93747285Y-36236142D01*
X94497285Y-36021857D02*
X93747285Y-36021857D01*
X94497285Y-36486142D02*
X93747285Y-36486142D01*
X93747285Y-36771857D01*
X93783000Y-36843285D01*
X93818714Y-36879000D01*
X93890142Y-36914714D01*
X93997285Y-36914714D01*
X94068714Y-36879000D01*
X94104428Y-36843285D01*
X94140142Y-36771857D01*
X94140142Y-36486142D01*
X94497285Y-37629000D02*
X94497285Y-37200428D01*
X94497285Y-37414714D02*
X93747285Y-37414714D01*
X93854428Y-37343285D01*
X93925857Y-37271857D01*
X93961571Y-37200428D01*
X93195571Y-35686571D02*
X93195571Y-36258000D01*
X93481285Y-35972285D02*
X92909857Y-35972285D01*
X93481285Y-37008000D02*
X93481285Y-36579428D01*
X93481285Y-36793714D02*
X92731285Y-36793714D01*
X92838428Y-36722285D01*
X92909857Y-36650857D01*
X92945571Y-36579428D01*
X92802714Y-37293714D02*
X92767000Y-37329428D01*
X92731285Y-37400857D01*
X92731285Y-37579428D01*
X92767000Y-37650857D01*
X92802714Y-37686571D01*
X92874142Y-37722285D01*
X92945571Y-37722285D01*
X93052714Y-37686571D01*
X93481285Y-37258000D01*
X93481285Y-37722285D01*
X92731285Y-37936571D02*
X93481285Y-38186571D01*
X92731285Y-38436571D01*
G04 #@! TO.C,C7*
X105205000Y-46165857D02*
X105240714Y-46201571D01*
X105347857Y-46237285D01*
X105419285Y-46237285D01*
X105526428Y-46201571D01*
X105597857Y-46130142D01*
X105633571Y-46058714D01*
X105669285Y-45915857D01*
X105669285Y-45808714D01*
X105633571Y-45665857D01*
X105597857Y-45594428D01*
X105526428Y-45523000D01*
X105419285Y-45487285D01*
X105347857Y-45487285D01*
X105240714Y-45523000D01*
X105205000Y-45558714D01*
X104955000Y-45487285D02*
X104455000Y-45487285D01*
X104776428Y-46237285D01*
X105995000Y-47769285D02*
X105995000Y-48269285D01*
X106173571Y-47483571D02*
X106352142Y-48019285D01*
X105887857Y-48019285D01*
X105673571Y-47519285D02*
X105173571Y-47519285D01*
X105495000Y-48269285D01*
X104887857Y-47769285D02*
X104887857Y-48269285D01*
X104887857Y-47840714D02*
X104852142Y-47805000D01*
X104780714Y-47769285D01*
X104673571Y-47769285D01*
X104602142Y-47805000D01*
X104566428Y-47876428D01*
X104566428Y-48269285D01*
X103959285Y-47876428D02*
X104209285Y-47876428D01*
X104209285Y-48269285D02*
X104209285Y-47519285D01*
X103852142Y-47519285D01*
G04 #@! TO.C,J6*
X98980000Y-129679285D02*
X98980000Y-130215000D01*
X99015714Y-130322142D01*
X99087142Y-130393571D01*
X99194285Y-130429285D01*
X99265714Y-130429285D01*
X98301428Y-129679285D02*
X98444285Y-129679285D01*
X98515714Y-129715000D01*
X98551428Y-129750714D01*
X98622857Y-129857857D01*
X98658571Y-130000714D01*
X98658571Y-130286428D01*
X98622857Y-130357857D01*
X98587142Y-130393571D01*
X98515714Y-130429285D01*
X98372857Y-130429285D01*
X98301428Y-130393571D01*
X98265714Y-130357857D01*
X98230000Y-130286428D01*
X98230000Y-130107857D01*
X98265714Y-130036428D01*
X98301428Y-130000714D01*
X98372857Y-129965000D01*
X98515714Y-129965000D01*
X98587142Y-130000714D01*
X98622857Y-130036428D01*
X98658571Y-130107857D01*
G04 #@! TO.C,D2*
X102063285Y-17277428D02*
X101313285Y-17277428D01*
X101313285Y-17456000D01*
X101349000Y-17563142D01*
X101420428Y-17634571D01*
X101491857Y-17670285D01*
X101634714Y-17706000D01*
X101741857Y-17706000D01*
X101884714Y-17670285D01*
X101956142Y-17634571D01*
X102027571Y-17563142D01*
X102063285Y-17456000D01*
X102063285Y-17277428D01*
X101384714Y-17991714D02*
X101349000Y-18027428D01*
X101313285Y-18098857D01*
X101313285Y-18277428D01*
X101349000Y-18348857D01*
X101384714Y-18384571D01*
X101456142Y-18420285D01*
X101527571Y-18420285D01*
X101634714Y-18384571D01*
X102063285Y-17956000D01*
X102063285Y-18420285D01*
X102058285Y-19652857D02*
X102058285Y-19224285D01*
X102058285Y-19438571D02*
X101308285Y-19438571D01*
X101415428Y-19367142D01*
X101486857Y-19295714D01*
X101522571Y-19224285D01*
X102058285Y-19974285D02*
X101308285Y-19974285D01*
X102058285Y-20402857D01*
X101308285Y-20402857D01*
X101308285Y-21117142D02*
X101308285Y-20760000D01*
X101665428Y-20724285D01*
X101629714Y-20760000D01*
X101594000Y-20831428D01*
X101594000Y-21010000D01*
X101629714Y-21081428D01*
X101665428Y-21117142D01*
X101736857Y-21152857D01*
X101915428Y-21152857D01*
X101986857Y-21117142D01*
X102022571Y-21081428D01*
X102058285Y-21010000D01*
X102058285Y-20831428D01*
X102022571Y-20760000D01*
X101986857Y-20724285D01*
X101629714Y-21581428D02*
X101594000Y-21510000D01*
X101558285Y-21474285D01*
X101486857Y-21438571D01*
X101451142Y-21438571D01*
X101379714Y-21474285D01*
X101344000Y-21510000D01*
X101308285Y-21581428D01*
X101308285Y-21724285D01*
X101344000Y-21795714D01*
X101379714Y-21831428D01*
X101451142Y-21867142D01*
X101486857Y-21867142D01*
X101558285Y-21831428D01*
X101594000Y-21795714D01*
X101629714Y-21724285D01*
X101629714Y-21581428D01*
X101665428Y-21510000D01*
X101701142Y-21474285D01*
X101772571Y-21438571D01*
X101915428Y-21438571D01*
X101986857Y-21474285D01*
X102022571Y-21510000D01*
X102058285Y-21581428D01*
X102058285Y-21724285D01*
X102022571Y-21795714D01*
X101986857Y-21831428D01*
X101915428Y-21867142D01*
X101772571Y-21867142D01*
X101701142Y-21831428D01*
X101665428Y-21795714D01*
X101629714Y-21724285D01*
X102058285Y-22581428D02*
X102058285Y-22152857D01*
X102058285Y-22367142D02*
X101308285Y-22367142D01*
X101415428Y-22295714D01*
X101486857Y-22224285D01*
X101522571Y-22152857D01*
X101308285Y-22831428D02*
X101308285Y-23331428D01*
X102058285Y-23010000D01*
X102371285Y-24492571D02*
X101621285Y-24492571D01*
X102371285Y-24921142D02*
X101942714Y-24599714D01*
X101621285Y-24921142D02*
X102049857Y-24492571D01*
G04 #@! TO.C,R5*
X105589285Y-89715000D02*
X105232142Y-89465000D01*
X105589285Y-89286428D02*
X104839285Y-89286428D01*
X104839285Y-89572142D01*
X104875000Y-89643571D01*
X104910714Y-89679285D01*
X104982142Y-89715000D01*
X105089285Y-89715000D01*
X105160714Y-89679285D01*
X105196428Y-89643571D01*
X105232142Y-89572142D01*
X105232142Y-89286428D01*
X104839285Y-90393571D02*
X104839285Y-90036428D01*
X105196428Y-90000714D01*
X105160714Y-90036428D01*
X105125000Y-90107857D01*
X105125000Y-90286428D01*
X105160714Y-90357857D01*
X105196428Y-90393571D01*
X105267857Y-90429285D01*
X105446428Y-90429285D01*
X105517857Y-90393571D01*
X105553571Y-90357857D01*
X105589285Y-90286428D01*
X105589285Y-90107857D01*
X105553571Y-90036428D01*
X105517857Y-90000714D01*
X107280714Y-89322142D02*
X107245000Y-89357857D01*
X107209285Y-89429285D01*
X107209285Y-89607857D01*
X107245000Y-89679285D01*
X107280714Y-89715000D01*
X107352142Y-89750714D01*
X107423571Y-89750714D01*
X107530714Y-89715000D01*
X107959285Y-89286428D01*
X107959285Y-89750714D01*
X107959285Y-90072142D02*
X107209285Y-90072142D01*
X107673571Y-90143571D02*
X107959285Y-90357857D01*
X107459285Y-90357857D02*
X107745000Y-90072142D01*
G04 #@! TO.C,C5*
X100633000Y-65215857D02*
X100668714Y-65251571D01*
X100775857Y-65287285D01*
X100847285Y-65287285D01*
X100954428Y-65251571D01*
X101025857Y-65180142D01*
X101061571Y-65108714D01*
X101097285Y-64965857D01*
X101097285Y-64858714D01*
X101061571Y-64715857D01*
X101025857Y-64644428D01*
X100954428Y-64573000D01*
X100847285Y-64537285D01*
X100775857Y-64537285D01*
X100668714Y-64573000D01*
X100633000Y-64608714D01*
X99954428Y-64537285D02*
X100311571Y-64537285D01*
X100347285Y-64894428D01*
X100311571Y-64858714D01*
X100240142Y-64823000D01*
X100061571Y-64823000D01*
X99990142Y-64858714D01*
X99954428Y-64894428D01*
X99918714Y-64965857D01*
X99918714Y-65144428D01*
X99954428Y-65215857D01*
X99990142Y-65251571D01*
X100061571Y-65287285D01*
X100240142Y-65287285D01*
X100311571Y-65251571D01*
X100347285Y-65215857D01*
X99128714Y-67573285D02*
X99557285Y-67573285D01*
X99343000Y-67573285D02*
X99343000Y-66823285D01*
X99414428Y-66930428D01*
X99485857Y-67001857D01*
X99557285Y-67037571D01*
X98664428Y-66823285D02*
X98593000Y-66823285D01*
X98521571Y-66859000D01*
X98485857Y-66894714D01*
X98450142Y-66966142D01*
X98414428Y-67109000D01*
X98414428Y-67287571D01*
X98450142Y-67430428D01*
X98485857Y-67501857D01*
X98521571Y-67537571D01*
X98593000Y-67573285D01*
X98664428Y-67573285D01*
X98735857Y-67537571D01*
X98771571Y-67501857D01*
X98807285Y-67430428D01*
X98843000Y-67287571D01*
X98843000Y-67109000D01*
X98807285Y-66966142D01*
X98771571Y-66894714D01*
X98735857Y-66859000D01*
X98664428Y-66823285D01*
X97950142Y-66823285D02*
X97878714Y-66823285D01*
X97807285Y-66859000D01*
X97771571Y-66894714D01*
X97735857Y-66966142D01*
X97700142Y-67109000D01*
X97700142Y-67287571D01*
X97735857Y-67430428D01*
X97771571Y-67501857D01*
X97807285Y-67537571D01*
X97878714Y-67573285D01*
X97950142Y-67573285D01*
X98021571Y-67537571D01*
X98057285Y-67501857D01*
X98093000Y-67430428D01*
X98128714Y-67287571D01*
X98128714Y-67109000D01*
X98093000Y-66966142D01*
X98057285Y-66894714D01*
X98021571Y-66859000D01*
X97950142Y-66823285D01*
X97378714Y-67073285D02*
X97378714Y-67573285D01*
X97378714Y-67144714D02*
X97343000Y-67109000D01*
X97271571Y-67073285D01*
X97164428Y-67073285D01*
X97093000Y-67109000D01*
X97057285Y-67180428D01*
X97057285Y-67573285D01*
X96450142Y-67180428D02*
X96700142Y-67180428D01*
X96700142Y-67573285D02*
X96700142Y-66823285D01*
X96343000Y-66823285D01*
G04 #@! TO.C,C3*
X90473000Y-81217857D02*
X90508714Y-81253571D01*
X90615857Y-81289285D01*
X90687285Y-81289285D01*
X90794428Y-81253571D01*
X90865857Y-81182142D01*
X90901571Y-81110714D01*
X90937285Y-80967857D01*
X90937285Y-80860714D01*
X90901571Y-80717857D01*
X90865857Y-80646428D01*
X90794428Y-80575000D01*
X90687285Y-80539285D01*
X90615857Y-80539285D01*
X90508714Y-80575000D01*
X90473000Y-80610714D01*
X90223000Y-80539285D02*
X89758714Y-80539285D01*
X90008714Y-80825000D01*
X89901571Y-80825000D01*
X89830142Y-80860714D01*
X89794428Y-80896428D01*
X89758714Y-80967857D01*
X89758714Y-81146428D01*
X89794428Y-81217857D01*
X89830142Y-81253571D01*
X89901571Y-81289285D01*
X90115857Y-81289285D01*
X90187285Y-81253571D01*
X90223000Y-81217857D01*
X95406428Y-81299285D02*
X95835000Y-81299285D01*
X95620714Y-81299285D02*
X95620714Y-80549285D01*
X95692142Y-80656428D01*
X95763571Y-80727857D01*
X95835000Y-80763571D01*
X95085000Y-80799285D02*
X95085000Y-81299285D01*
X95085000Y-80870714D02*
X95049285Y-80835000D01*
X94977857Y-80799285D01*
X94870714Y-80799285D01*
X94799285Y-80835000D01*
X94763571Y-80906428D01*
X94763571Y-81299285D01*
X94156428Y-80906428D02*
X94406428Y-80906428D01*
X94406428Y-81299285D02*
X94406428Y-80549285D01*
X94049285Y-80549285D01*
G04 #@! TO.C,R2*
X90687285Y-71935000D02*
X90330142Y-71685000D01*
X90687285Y-71506428D02*
X89937285Y-71506428D01*
X89937285Y-71792142D01*
X89973000Y-71863571D01*
X90008714Y-71899285D01*
X90080142Y-71935000D01*
X90187285Y-71935000D01*
X90258714Y-71899285D01*
X90294428Y-71863571D01*
X90330142Y-71792142D01*
X90330142Y-71506428D01*
X90008714Y-72220714D02*
X89973000Y-72256428D01*
X89937285Y-72327857D01*
X89937285Y-72506428D01*
X89973000Y-72577857D01*
X90008714Y-72613571D01*
X90080142Y-72649285D01*
X90151571Y-72649285D01*
X90258714Y-72613571D01*
X90687285Y-72185000D01*
X90687285Y-72649285D01*
X92719285Y-71498571D02*
X92719285Y-71070000D01*
X92719285Y-71284285D02*
X91969285Y-71284285D01*
X92076428Y-71212857D01*
X92147857Y-71141428D01*
X92183571Y-71070000D01*
X91969285Y-71962857D02*
X91969285Y-72034285D01*
X92005000Y-72105714D01*
X92040714Y-72141428D01*
X92112142Y-72177142D01*
X92255000Y-72212857D01*
X92433571Y-72212857D01*
X92576428Y-72177142D01*
X92647857Y-72141428D01*
X92683571Y-72105714D01*
X92719285Y-72034285D01*
X92719285Y-71962857D01*
X92683571Y-71891428D01*
X92647857Y-71855714D01*
X92576428Y-71820000D01*
X92433571Y-71784285D01*
X92255000Y-71784285D01*
X92112142Y-71820000D01*
X92040714Y-71855714D01*
X92005000Y-71891428D01*
X91969285Y-71962857D01*
X92719285Y-72534285D02*
X91969285Y-72534285D01*
X92505000Y-72784285D01*
X91969285Y-73034285D01*
X92719285Y-73034285D01*
G04 #@! TO.C,D3*
X95699285Y-53686428D02*
X94949285Y-53686428D01*
X94949285Y-53865000D01*
X94985000Y-53972142D01*
X95056428Y-54043571D01*
X95127857Y-54079285D01*
X95270714Y-54115000D01*
X95377857Y-54115000D01*
X95520714Y-54079285D01*
X95592142Y-54043571D01*
X95663571Y-53972142D01*
X95699285Y-53865000D01*
X95699285Y-53686428D01*
X94949285Y-54365000D02*
X94949285Y-54829285D01*
X95235000Y-54579285D01*
X95235000Y-54686428D01*
X95270714Y-54757857D01*
X95306428Y-54793571D01*
X95377857Y-54829285D01*
X95556428Y-54829285D01*
X95627857Y-54793571D01*
X95663571Y-54757857D01*
X95699285Y-54686428D01*
X95699285Y-54472142D01*
X95663571Y-54400714D01*
X95627857Y-54365000D01*
X95699285Y-51543571D02*
X94949285Y-51543571D01*
X95699285Y-51972142D02*
X95270714Y-51650714D01*
X94949285Y-51972142D02*
X95377857Y-51543571D01*
X95699285Y-57244857D02*
X95699285Y-56816285D01*
X95699285Y-57030571D02*
X94949285Y-57030571D01*
X95056428Y-56959142D01*
X95127857Y-56887714D01*
X95163571Y-56816285D01*
X95699285Y-57566285D02*
X94949285Y-57566285D01*
X95699285Y-57994857D01*
X94949285Y-57994857D01*
X94949285Y-58709142D02*
X94949285Y-58352000D01*
X95306428Y-58316285D01*
X95270714Y-58352000D01*
X95235000Y-58423428D01*
X95235000Y-58602000D01*
X95270714Y-58673428D01*
X95306428Y-58709142D01*
X95377857Y-58744857D01*
X95556428Y-58744857D01*
X95627857Y-58709142D01*
X95663571Y-58673428D01*
X95699285Y-58602000D01*
X95699285Y-58423428D01*
X95663571Y-58352000D01*
X95627857Y-58316285D01*
X95270714Y-59173428D02*
X95235000Y-59102000D01*
X95199285Y-59066285D01*
X95127857Y-59030571D01*
X95092142Y-59030571D01*
X95020714Y-59066285D01*
X94985000Y-59102000D01*
X94949285Y-59173428D01*
X94949285Y-59316285D01*
X94985000Y-59387714D01*
X95020714Y-59423428D01*
X95092142Y-59459142D01*
X95127857Y-59459142D01*
X95199285Y-59423428D01*
X95235000Y-59387714D01*
X95270714Y-59316285D01*
X95270714Y-59173428D01*
X95306428Y-59102000D01*
X95342142Y-59066285D01*
X95413571Y-59030571D01*
X95556428Y-59030571D01*
X95627857Y-59066285D01*
X95663571Y-59102000D01*
X95699285Y-59173428D01*
X95699285Y-59316285D01*
X95663571Y-59387714D01*
X95627857Y-59423428D01*
X95556428Y-59459142D01*
X95413571Y-59459142D01*
X95342142Y-59423428D01*
X95306428Y-59387714D01*
X95270714Y-59316285D01*
X95699285Y-60173428D02*
X95699285Y-59744857D01*
X95699285Y-59959142D02*
X94949285Y-59959142D01*
X95056428Y-59887714D01*
X95127857Y-59816285D01*
X95163571Y-59744857D01*
X94949285Y-60423428D02*
X94949285Y-60923428D01*
X95699285Y-60602000D01*
G04 #@! TO.C,C4*
X105967000Y-79693857D02*
X106002714Y-79729571D01*
X106109857Y-79765285D01*
X106181285Y-79765285D01*
X106288428Y-79729571D01*
X106359857Y-79658142D01*
X106395571Y-79586714D01*
X106431285Y-79443857D01*
X106431285Y-79336714D01*
X106395571Y-79193857D01*
X106359857Y-79122428D01*
X106288428Y-79051000D01*
X106181285Y-79015285D01*
X106109857Y-79015285D01*
X106002714Y-79051000D01*
X105967000Y-79086714D01*
X105324142Y-79265285D02*
X105324142Y-79765285D01*
X105502714Y-78979571D02*
X105681285Y-79515285D01*
X105217000Y-79515285D01*
X104081714Y-79765285D02*
X104510285Y-79765285D01*
X104296000Y-79765285D02*
X104296000Y-79015285D01*
X104367428Y-79122428D01*
X104438857Y-79193857D01*
X104510285Y-79229571D01*
X103617428Y-79015285D02*
X103546000Y-79015285D01*
X103474571Y-79051000D01*
X103438857Y-79086714D01*
X103403142Y-79158142D01*
X103367428Y-79301000D01*
X103367428Y-79479571D01*
X103403142Y-79622428D01*
X103438857Y-79693857D01*
X103474571Y-79729571D01*
X103546000Y-79765285D01*
X103617428Y-79765285D01*
X103688857Y-79729571D01*
X103724571Y-79693857D01*
X103760285Y-79622428D01*
X103796000Y-79479571D01*
X103796000Y-79301000D01*
X103760285Y-79158142D01*
X103724571Y-79086714D01*
X103688857Y-79051000D01*
X103617428Y-79015285D01*
X102903142Y-79015285D02*
X102831714Y-79015285D01*
X102760285Y-79051000D01*
X102724571Y-79086714D01*
X102688857Y-79158142D01*
X102653142Y-79301000D01*
X102653142Y-79479571D01*
X102688857Y-79622428D01*
X102724571Y-79693857D01*
X102760285Y-79729571D01*
X102831714Y-79765285D01*
X102903142Y-79765285D01*
X102974571Y-79729571D01*
X103010285Y-79693857D01*
X103046000Y-79622428D01*
X103081714Y-79479571D01*
X103081714Y-79301000D01*
X103046000Y-79158142D01*
X103010285Y-79086714D01*
X102974571Y-79051000D01*
X102903142Y-79015285D01*
X102331714Y-79265285D02*
X102331714Y-79765285D01*
X102331714Y-79336714D02*
X102296000Y-79301000D01*
X102224571Y-79265285D01*
X102117428Y-79265285D01*
X102046000Y-79301000D01*
X102010285Y-79372428D01*
X102010285Y-79765285D01*
X101403142Y-79372428D02*
X101653142Y-79372428D01*
X101653142Y-79765285D02*
X101653142Y-79015285D01*
X101296000Y-79015285D01*
G04 #@! TO.C,C2*
X102553857Y-38153000D02*
X102589571Y-38117285D01*
X102625285Y-38010142D01*
X102625285Y-37938714D01*
X102589571Y-37831571D01*
X102518142Y-37760142D01*
X102446714Y-37724428D01*
X102303857Y-37688714D01*
X102196714Y-37688714D01*
X102053857Y-37724428D01*
X101982428Y-37760142D01*
X101911000Y-37831571D01*
X101875285Y-37938714D01*
X101875285Y-38010142D01*
X101911000Y-38117285D01*
X101946714Y-38153000D01*
X101946714Y-38438714D02*
X101911000Y-38474428D01*
X101875285Y-38545857D01*
X101875285Y-38724428D01*
X101911000Y-38795857D01*
X101946714Y-38831571D01*
X102018142Y-38867285D01*
X102089571Y-38867285D01*
X102196714Y-38831571D01*
X102625285Y-38403000D01*
X102625285Y-38867285D01*
X105673285Y-43062428D02*
X105673285Y-42633857D01*
X105673285Y-42848142D02*
X104923285Y-42848142D01*
X105030428Y-42776714D01*
X105101857Y-42705285D01*
X105137571Y-42633857D01*
X104923285Y-43526714D02*
X104923285Y-43598142D01*
X104959000Y-43669571D01*
X104994714Y-43705285D01*
X105066142Y-43741000D01*
X105209000Y-43776714D01*
X105387571Y-43776714D01*
X105530428Y-43741000D01*
X105601857Y-43705285D01*
X105637571Y-43669571D01*
X105673285Y-43598142D01*
X105673285Y-43526714D01*
X105637571Y-43455285D01*
X105601857Y-43419571D01*
X105530428Y-43383857D01*
X105387571Y-43348142D01*
X105209000Y-43348142D01*
X105066142Y-43383857D01*
X104994714Y-43419571D01*
X104959000Y-43455285D01*
X104923285Y-43526714D01*
X105173285Y-44419571D02*
X105673285Y-44419571D01*
X105173285Y-44098142D02*
X105566142Y-44098142D01*
X105637571Y-44133857D01*
X105673285Y-44205285D01*
X105673285Y-44312428D01*
X105637571Y-44383857D01*
X105601857Y-44419571D01*
X105280428Y-45026714D02*
X105280428Y-44776714D01*
X105673285Y-44776714D02*
X104923285Y-44776714D01*
X104923285Y-45133857D01*
G04 #@! TO.C,C8*
X109269000Y-64617857D02*
X109304714Y-64653571D01*
X109411857Y-64689285D01*
X109483285Y-64689285D01*
X109590428Y-64653571D01*
X109661857Y-64582142D01*
X109697571Y-64510714D01*
X109733285Y-64367857D01*
X109733285Y-64260714D01*
X109697571Y-64117857D01*
X109661857Y-64046428D01*
X109590428Y-63975000D01*
X109483285Y-63939285D01*
X109411857Y-63939285D01*
X109304714Y-63975000D01*
X109269000Y-64010714D01*
X108840428Y-64260714D02*
X108911857Y-64225000D01*
X108947571Y-64189285D01*
X108983285Y-64117857D01*
X108983285Y-64082142D01*
X108947571Y-64010714D01*
X108911857Y-63975000D01*
X108840428Y-63939285D01*
X108697571Y-63939285D01*
X108626142Y-63975000D01*
X108590428Y-64010714D01*
X108554714Y-64082142D01*
X108554714Y-64117857D01*
X108590428Y-64189285D01*
X108626142Y-64225000D01*
X108697571Y-64260714D01*
X108840428Y-64260714D01*
X108911857Y-64296428D01*
X108947571Y-64332142D01*
X108983285Y-64403571D01*
X108983285Y-64546428D01*
X108947571Y-64617857D01*
X108911857Y-64653571D01*
X108840428Y-64689285D01*
X108697571Y-64689285D01*
X108626142Y-64653571D01*
X108590428Y-64617857D01*
X108554714Y-64546428D01*
X108554714Y-64403571D01*
X108590428Y-64332142D01*
X108626142Y-64296428D01*
X108697571Y-64260714D01*
X108483000Y-67331285D02*
X108018714Y-67331285D01*
X108268714Y-67617000D01*
X108161571Y-67617000D01*
X108090142Y-67652714D01*
X108054428Y-67688428D01*
X108018714Y-67759857D01*
X108018714Y-67938428D01*
X108054428Y-68009857D01*
X108090142Y-68045571D01*
X108161571Y-68081285D01*
X108375857Y-68081285D01*
X108447285Y-68045571D01*
X108483000Y-68009857D01*
X107768714Y-67331285D02*
X107304428Y-67331285D01*
X107554428Y-67617000D01*
X107447285Y-67617000D01*
X107375857Y-67652714D01*
X107340142Y-67688428D01*
X107304428Y-67759857D01*
X107304428Y-67938428D01*
X107340142Y-68009857D01*
X107375857Y-68045571D01*
X107447285Y-68081285D01*
X107661571Y-68081285D01*
X107733000Y-68045571D01*
X107768714Y-68009857D01*
X106840142Y-67331285D02*
X106768714Y-67331285D01*
X106697285Y-67367000D01*
X106661571Y-67402714D01*
X106625857Y-67474142D01*
X106590142Y-67617000D01*
X106590142Y-67795571D01*
X106625857Y-67938428D01*
X106661571Y-68009857D01*
X106697285Y-68045571D01*
X106768714Y-68081285D01*
X106840142Y-68081285D01*
X106911571Y-68045571D01*
X106947285Y-68009857D01*
X106983000Y-67938428D01*
X107018714Y-67795571D01*
X107018714Y-67617000D01*
X106983000Y-67474142D01*
X106947285Y-67402714D01*
X106911571Y-67367000D01*
X106840142Y-67331285D01*
X106268714Y-67581285D02*
X106268714Y-68331285D01*
X106268714Y-67617000D02*
X106197285Y-67581285D01*
X106054428Y-67581285D01*
X105983000Y-67617000D01*
X105947285Y-67652714D01*
X105911571Y-67724142D01*
X105911571Y-67938428D01*
X105947285Y-68009857D01*
X105983000Y-68045571D01*
X106054428Y-68081285D01*
X106197285Y-68081285D01*
X106268714Y-68045571D01*
X105340142Y-67688428D02*
X105590142Y-67688428D01*
X105590142Y-68081285D02*
X105590142Y-67331285D01*
X105233000Y-67331285D01*
G04 #@! TO.C,R7*
X94751285Y-90985000D02*
X94394142Y-90735000D01*
X94751285Y-90556428D02*
X94001285Y-90556428D01*
X94001285Y-90842142D01*
X94037000Y-90913571D01*
X94072714Y-90949285D01*
X94144142Y-90985000D01*
X94251285Y-90985000D01*
X94322714Y-90949285D01*
X94358428Y-90913571D01*
X94394142Y-90842142D01*
X94394142Y-90556428D01*
X94001285Y-91235000D02*
X94001285Y-91735000D01*
X94751285Y-91413571D01*
X92219285Y-90413571D02*
X92719285Y-90413571D01*
X91933571Y-90235000D02*
X92469285Y-90056428D01*
X92469285Y-90520714D01*
X92647857Y-90806428D02*
X92683571Y-90842142D01*
X92719285Y-90806428D01*
X92683571Y-90770714D01*
X92647857Y-90806428D01*
X92719285Y-90806428D01*
X91969285Y-91092142D02*
X91969285Y-91592142D01*
X92719285Y-91270714D01*
X92719285Y-91877857D02*
X91969285Y-91877857D01*
X92433571Y-91949285D02*
X92719285Y-92163571D01*
X92219285Y-92163571D02*
X92505000Y-91877857D01*
G04 #@! TO.C,D1*
X106313285Y-17277428D02*
X105563285Y-17277428D01*
X105563285Y-17456000D01*
X105599000Y-17563142D01*
X105670428Y-17634571D01*
X105741857Y-17670285D01*
X105884714Y-17706000D01*
X105991857Y-17706000D01*
X106134714Y-17670285D01*
X106206142Y-17634571D01*
X106277571Y-17563142D01*
X106313285Y-17456000D01*
X106313285Y-17277428D01*
X106313285Y-18420285D02*
X106313285Y-17991714D01*
X106313285Y-18206000D02*
X105563285Y-18206000D01*
X105670428Y-18134571D01*
X105741857Y-18063142D01*
X105777571Y-17991714D01*
X106308285Y-19652857D02*
X106308285Y-19224285D01*
X106308285Y-19438571D02*
X105558285Y-19438571D01*
X105665428Y-19367142D01*
X105736857Y-19295714D01*
X105772571Y-19224285D01*
X106308285Y-19974285D02*
X105558285Y-19974285D01*
X106308285Y-20402857D01*
X105558285Y-20402857D01*
X105558285Y-21117142D02*
X105558285Y-20760000D01*
X105915428Y-20724285D01*
X105879714Y-20760000D01*
X105844000Y-20831428D01*
X105844000Y-21010000D01*
X105879714Y-21081428D01*
X105915428Y-21117142D01*
X105986857Y-21152857D01*
X106165428Y-21152857D01*
X106236857Y-21117142D01*
X106272571Y-21081428D01*
X106308285Y-21010000D01*
X106308285Y-20831428D01*
X106272571Y-20760000D01*
X106236857Y-20724285D01*
X105879714Y-21581428D02*
X105844000Y-21510000D01*
X105808285Y-21474285D01*
X105736857Y-21438571D01*
X105701142Y-21438571D01*
X105629714Y-21474285D01*
X105594000Y-21510000D01*
X105558285Y-21581428D01*
X105558285Y-21724285D01*
X105594000Y-21795714D01*
X105629714Y-21831428D01*
X105701142Y-21867142D01*
X105736857Y-21867142D01*
X105808285Y-21831428D01*
X105844000Y-21795714D01*
X105879714Y-21724285D01*
X105879714Y-21581428D01*
X105915428Y-21510000D01*
X105951142Y-21474285D01*
X106022571Y-21438571D01*
X106165428Y-21438571D01*
X106236857Y-21474285D01*
X106272571Y-21510000D01*
X106308285Y-21581428D01*
X106308285Y-21724285D01*
X106272571Y-21795714D01*
X106236857Y-21831428D01*
X106165428Y-21867142D01*
X106022571Y-21867142D01*
X105951142Y-21831428D01*
X105915428Y-21795714D01*
X105879714Y-21724285D01*
X106308285Y-22581428D02*
X106308285Y-22152857D01*
X106308285Y-22367142D02*
X105558285Y-22367142D01*
X105665428Y-22295714D01*
X105736857Y-22224285D01*
X105772571Y-22152857D01*
X105558285Y-22831428D02*
X105558285Y-23331428D01*
X106308285Y-23010000D01*
X106621285Y-24492571D02*
X105871285Y-24492571D01*
X106621285Y-24921142D02*
X106192714Y-24599714D01*
X105871285Y-24921142D02*
X106299857Y-24492571D01*
G04 #@! TO.C,C6*
X95299000Y-46165857D02*
X95334714Y-46201571D01*
X95441857Y-46237285D01*
X95513285Y-46237285D01*
X95620428Y-46201571D01*
X95691857Y-46130142D01*
X95727571Y-46058714D01*
X95763285Y-45915857D01*
X95763285Y-45808714D01*
X95727571Y-45665857D01*
X95691857Y-45594428D01*
X95620428Y-45523000D01*
X95513285Y-45487285D01*
X95441857Y-45487285D01*
X95334714Y-45523000D01*
X95299000Y-45558714D01*
X94656142Y-45487285D02*
X94799000Y-45487285D01*
X94870428Y-45523000D01*
X94906142Y-45558714D01*
X94977571Y-45665857D01*
X95013285Y-45808714D01*
X95013285Y-46094428D01*
X94977571Y-46165857D01*
X94941857Y-46201571D01*
X94870428Y-46237285D01*
X94727571Y-46237285D01*
X94656142Y-46201571D01*
X94620428Y-46165857D01*
X94584714Y-46094428D01*
X94584714Y-45915857D01*
X94620428Y-45844428D01*
X94656142Y-45808714D01*
X94727571Y-45773000D01*
X94870428Y-45773000D01*
X94941857Y-45808714D01*
X94977571Y-45844428D01*
X95013285Y-45915857D01*
X95795000Y-47769285D02*
X95795000Y-48269285D01*
X95973571Y-47483571D02*
X96152142Y-48019285D01*
X95687857Y-48019285D01*
X95473571Y-47519285D02*
X94973571Y-47519285D01*
X95295000Y-48269285D01*
X94687857Y-47769285D02*
X94687857Y-48269285D01*
X94687857Y-47840714D02*
X94652142Y-47805000D01*
X94580714Y-47769285D01*
X94473571Y-47769285D01*
X94402142Y-47805000D01*
X94366428Y-47876428D01*
X94366428Y-48269285D01*
X93759285Y-47876428D02*
X94009285Y-47876428D01*
X94009285Y-48269285D02*
X94009285Y-47519285D01*
X93652142Y-47519285D01*
G04 #@! TO.C,J2*
X90598000Y-24278285D02*
X90598000Y-24814000D01*
X90633714Y-24921142D01*
X90705142Y-24992571D01*
X90812285Y-25028285D01*
X90883714Y-25028285D01*
X90276571Y-24349714D02*
X90240857Y-24314000D01*
X90169428Y-24278285D01*
X89990857Y-24278285D01*
X89919428Y-24314000D01*
X89883714Y-24349714D01*
X89848000Y-24421142D01*
X89848000Y-24492571D01*
X89883714Y-24599714D01*
X90312285Y-25028285D01*
X89848000Y-25028285D01*
X102801428Y-36802380D02*
X103134761Y-36326190D01*
X103372857Y-36802380D02*
X103372857Y-35802380D01*
X102991904Y-35802380D01*
X102896666Y-35850000D01*
X102849047Y-35897619D01*
X102801428Y-35992857D01*
X102801428Y-36135714D01*
X102849047Y-36230952D01*
X102896666Y-36278571D01*
X102991904Y-36326190D01*
X103372857Y-36326190D01*
X102372857Y-36278571D02*
X102039523Y-36278571D01*
X101896666Y-36802380D02*
X102372857Y-36802380D01*
X102372857Y-35802380D01*
X101896666Y-35802380D01*
X101468095Y-36802380D02*
X101468095Y-35802380D01*
X101230000Y-35802380D01*
X101087142Y-35850000D01*
X100991904Y-35945238D01*
X100944285Y-36040476D01*
X100896666Y-36230952D01*
X100896666Y-36373809D01*
X100944285Y-36564285D01*
X100991904Y-36659523D01*
X101087142Y-36754761D01*
X101230000Y-36802380D01*
X101468095Y-36802380D01*
X99753809Y-36754761D02*
X99610952Y-36802380D01*
X99372857Y-36802380D01*
X99277619Y-36754761D01*
X99229999Y-36707142D01*
X99182380Y-36611904D01*
X99182380Y-36516666D01*
X99229999Y-36421428D01*
X99277619Y-36373809D01*
X99372857Y-36326190D01*
X99563333Y-36278571D01*
X99658571Y-36230952D01*
X99706190Y-36183333D01*
X99753809Y-36088095D01*
X99753809Y-35992857D01*
X99706190Y-35897619D01*
X99658571Y-35850000D01*
X99563333Y-35802380D01*
X99325238Y-35802380D01*
X99182380Y-35850000D01*
X98896666Y-35802380D02*
X98325238Y-35802380D01*
X98610952Y-36802380D02*
X98610952Y-35802380D01*
X97420476Y-36802380D02*
X97753809Y-36326190D01*
X97991904Y-36802380D02*
X97991904Y-35802380D01*
X97610952Y-35802380D01*
X97515714Y-35850000D01*
X97468095Y-35897619D01*
X97420476Y-35992857D01*
X97420476Y-36135714D01*
X97468095Y-36230952D01*
X97515714Y-36278571D01*
X97610952Y-36326190D01*
X97991904Y-36326190D01*
X96991904Y-36802380D02*
X96991904Y-35802380D01*
X96515714Y-36802380D02*
X96515714Y-35802380D01*
X96134761Y-35802380D01*
X96039523Y-35850000D01*
X95991904Y-35897619D01*
X95944285Y-35992857D01*
X95944285Y-36135714D01*
X95991904Y-36230952D01*
X96039523Y-36278571D01*
X96134761Y-36326190D01*
X96515714Y-36326190D01*
X95515714Y-36278571D02*
X95182380Y-36278571D01*
X95039523Y-36802380D02*
X95515714Y-36802380D01*
X95515714Y-35802380D01*
X95039523Y-35802380D01*
X90673428Y-14672095D02*
X90673428Y-15434000D01*
X91054380Y-15053047D02*
X90292476Y-15053047D01*
X91054380Y-16434000D02*
X91054380Y-15862571D01*
X91054380Y-16148285D02*
X90054380Y-16148285D01*
X90197238Y-16053047D01*
X90292476Y-15957809D01*
X90340095Y-15862571D01*
X90149619Y-16814952D02*
X90102000Y-16862571D01*
X90054380Y-16957809D01*
X90054380Y-17195904D01*
X90102000Y-17291142D01*
X90149619Y-17338761D01*
X90244857Y-17386380D01*
X90340095Y-17386380D01*
X90482952Y-17338761D01*
X91054380Y-16767333D01*
X91054380Y-17386380D01*
X90054380Y-17672095D02*
X91054380Y-18005428D01*
X90054380Y-18338761D01*
X90673428Y-30928095D02*
X90673428Y-31690000D01*
X91054380Y-32690000D02*
X91054380Y-32118571D01*
X91054380Y-32404285D02*
X90054380Y-32404285D01*
X90197238Y-32309047D01*
X90292476Y-32213809D01*
X90340095Y-32118571D01*
X90149619Y-33070952D02*
X90102000Y-33118571D01*
X90054380Y-33213809D01*
X90054380Y-33451904D01*
X90102000Y-33547142D01*
X90149619Y-33594761D01*
X90244857Y-33642380D01*
X90340095Y-33642380D01*
X90482952Y-33594761D01*
X91054380Y-33023333D01*
X91054380Y-33642380D01*
X90054380Y-33928095D02*
X91054380Y-34261428D01*
X90054380Y-34594761D01*
G04 #@! TO.C,J4*
X106600000Y-129679285D02*
X106600000Y-130215000D01*
X106635714Y-130322142D01*
X106707142Y-130393571D01*
X106814285Y-130429285D01*
X106885714Y-130429285D01*
X105921428Y-129929285D02*
X105921428Y-130429285D01*
X106100000Y-129643571D02*
X106278571Y-130179285D01*
X105814285Y-130179285D01*
G04 #@! TO.C,R1*
X102665000Y-126167285D02*
X102915000Y-125810142D01*
X103093571Y-126167285D02*
X103093571Y-125417285D01*
X102807857Y-125417285D01*
X102736428Y-125453000D01*
X102700714Y-125488714D01*
X102665000Y-125560142D01*
X102665000Y-125667285D01*
X102700714Y-125738714D01*
X102736428Y-125774428D01*
X102807857Y-125810142D01*
X103093571Y-125810142D01*
X101950714Y-126167285D02*
X102379285Y-126167285D01*
X102165000Y-126167285D02*
X102165000Y-125417285D01*
X102236428Y-125524428D01*
X102307857Y-125595857D01*
X102379285Y-125631571D01*
X102754285Y-128199285D02*
X103182857Y-128199285D01*
X102968571Y-128199285D02*
X102968571Y-127449285D01*
X103040000Y-127556428D01*
X103111428Y-127627857D01*
X103182857Y-127663571D01*
X102432857Y-128199285D02*
X102432857Y-127449285D01*
X102182857Y-127985000D01*
X101932857Y-127449285D01*
X101932857Y-128199285D01*
G04 #@! TO.C,R3*
X90687285Y-56695000D02*
X90330142Y-56445000D01*
X90687285Y-56266428D02*
X89937285Y-56266428D01*
X89937285Y-56552142D01*
X89973000Y-56623571D01*
X90008714Y-56659285D01*
X90080142Y-56695000D01*
X90187285Y-56695000D01*
X90258714Y-56659285D01*
X90294428Y-56623571D01*
X90330142Y-56552142D01*
X90330142Y-56266428D01*
X89937285Y-56945000D02*
X89937285Y-57409285D01*
X90223000Y-57159285D01*
X90223000Y-57266428D01*
X90258714Y-57337857D01*
X90294428Y-57373571D01*
X90365857Y-57409285D01*
X90544428Y-57409285D01*
X90615857Y-57373571D01*
X90651571Y-57337857D01*
X90687285Y-57266428D01*
X90687285Y-57052142D01*
X90651571Y-56980714D01*
X90615857Y-56945000D01*
X92719285Y-56740714D02*
X92719285Y-56312142D01*
X92719285Y-56526428D02*
X91969285Y-56526428D01*
X92076428Y-56455000D01*
X92147857Y-56383571D01*
X92183571Y-56312142D01*
X92719285Y-57062142D02*
X91969285Y-57062142D01*
X92433571Y-57133571D02*
X92719285Y-57347857D01*
X92219285Y-57347857D02*
X92505000Y-57062142D01*
G04 #@! TO.C,R8*
X90687285Y-132815000D02*
X90330142Y-132565000D01*
X90687285Y-132386428D02*
X89937285Y-132386428D01*
X89937285Y-132672142D01*
X89973000Y-132743571D01*
X90008714Y-132779285D01*
X90080142Y-132815000D01*
X90187285Y-132815000D01*
X90258714Y-132779285D01*
X90294428Y-132743571D01*
X90330142Y-132672142D01*
X90330142Y-132386428D01*
X90258714Y-133243571D02*
X90223000Y-133172142D01*
X90187285Y-133136428D01*
X90115857Y-133100714D01*
X90080142Y-133100714D01*
X90008714Y-133136428D01*
X89973000Y-133172142D01*
X89937285Y-133243571D01*
X89937285Y-133386428D01*
X89973000Y-133457857D01*
X90008714Y-133493571D01*
X90080142Y-133529285D01*
X90115857Y-133529285D01*
X90187285Y-133493571D01*
X90223000Y-133457857D01*
X90258714Y-133386428D01*
X90258714Y-133243571D01*
X90294428Y-133172142D01*
X90330142Y-133136428D01*
X90401571Y-133100714D01*
X90544428Y-133100714D01*
X90615857Y-133136428D01*
X90651571Y-133172142D01*
X90687285Y-133243571D01*
X90687285Y-133386428D01*
X90651571Y-133457857D01*
X90615857Y-133493571D01*
X90544428Y-133529285D01*
X90401571Y-133529285D01*
X90330142Y-133493571D01*
X90294428Y-133457857D01*
X90258714Y-133386428D01*
X92719285Y-132850714D02*
X92719285Y-132422142D01*
X92719285Y-132636428D02*
X91969285Y-132636428D01*
X92076428Y-132565000D01*
X92147857Y-132493571D01*
X92183571Y-132422142D01*
X92719285Y-133172142D02*
X91969285Y-133172142D01*
X92433571Y-133243571D02*
X92719285Y-133457857D01*
X92219285Y-133457857D02*
X92505000Y-133172142D01*
G04 #@! TO.C,C9*
X104824000Y-88329857D02*
X104859714Y-88365571D01*
X104966857Y-88401285D01*
X105038285Y-88401285D01*
X105145428Y-88365571D01*
X105216857Y-88294142D01*
X105252571Y-88222714D01*
X105288285Y-88079857D01*
X105288285Y-87972714D01*
X105252571Y-87829857D01*
X105216857Y-87758428D01*
X105145428Y-87687000D01*
X105038285Y-87651285D01*
X104966857Y-87651285D01*
X104859714Y-87687000D01*
X104824000Y-87722714D01*
X104466857Y-88401285D02*
X104324000Y-88401285D01*
X104252571Y-88365571D01*
X104216857Y-88329857D01*
X104145428Y-88222714D01*
X104109714Y-88079857D01*
X104109714Y-87794142D01*
X104145428Y-87722714D01*
X104181142Y-87687000D01*
X104252571Y-87651285D01*
X104395428Y-87651285D01*
X104466857Y-87687000D01*
X104502571Y-87722714D01*
X104538285Y-87794142D01*
X104538285Y-87972714D01*
X104502571Y-88044142D01*
X104466857Y-88079857D01*
X104395428Y-88115571D01*
X104252571Y-88115571D01*
X104181142Y-88079857D01*
X104145428Y-88044142D01*
X104109714Y-87972714D01*
X100648714Y-87468714D02*
X100613000Y-87433000D01*
X100541571Y-87397285D01*
X100363000Y-87397285D01*
X100291571Y-87433000D01*
X100255857Y-87468714D01*
X100220142Y-87540142D01*
X100220142Y-87611571D01*
X100255857Y-87718714D01*
X100684428Y-88147285D01*
X100220142Y-88147285D01*
X99898714Y-88075857D02*
X99863000Y-88111571D01*
X99898714Y-88147285D01*
X99934428Y-88111571D01*
X99898714Y-88075857D01*
X99898714Y-88147285D01*
X99577285Y-87468714D02*
X99541571Y-87433000D01*
X99470142Y-87397285D01*
X99291571Y-87397285D01*
X99220142Y-87433000D01*
X99184428Y-87468714D01*
X99148714Y-87540142D01*
X99148714Y-87611571D01*
X99184428Y-87718714D01*
X99613000Y-88147285D01*
X99148714Y-88147285D01*
X98505857Y-87647285D02*
X98505857Y-88147285D01*
X98827285Y-87647285D02*
X98827285Y-88040142D01*
X98791571Y-88111571D01*
X98720142Y-88147285D01*
X98613000Y-88147285D01*
X98541571Y-88111571D01*
X98505857Y-88075857D01*
X97898714Y-87754428D02*
X98148714Y-87754428D01*
X98148714Y-88147285D02*
X98148714Y-87397285D01*
X97791571Y-87397285D01*
G04 #@! TO.C,R6*
X109991285Y-74475000D02*
X109634142Y-74225000D01*
X109991285Y-74046428D02*
X109241285Y-74046428D01*
X109241285Y-74332142D01*
X109277000Y-74403571D01*
X109312714Y-74439285D01*
X109384142Y-74475000D01*
X109491285Y-74475000D01*
X109562714Y-74439285D01*
X109598428Y-74403571D01*
X109634142Y-74332142D01*
X109634142Y-74046428D01*
X109241285Y-75117857D02*
X109241285Y-74975000D01*
X109277000Y-74903571D01*
X109312714Y-74867857D01*
X109419857Y-74796428D01*
X109562714Y-74760714D01*
X109848428Y-74760714D01*
X109919857Y-74796428D01*
X109955571Y-74832142D01*
X109991285Y-74903571D01*
X109991285Y-75046428D01*
X109955571Y-75117857D01*
X109919857Y-75153571D01*
X109848428Y-75189285D01*
X109669857Y-75189285D01*
X109598428Y-75153571D01*
X109562714Y-75117857D01*
X109527000Y-75046428D01*
X109527000Y-74903571D01*
X109562714Y-74832142D01*
X109598428Y-74796428D01*
X109669857Y-74760714D01*
X107959285Y-73796428D02*
X107959285Y-73367857D01*
X107959285Y-73582142D02*
X107209285Y-73582142D01*
X107316428Y-73510714D01*
X107387857Y-73439285D01*
X107423571Y-73367857D01*
X107209285Y-74260714D02*
X107209285Y-74332142D01*
X107245000Y-74403571D01*
X107280714Y-74439285D01*
X107352142Y-74475000D01*
X107495000Y-74510714D01*
X107673571Y-74510714D01*
X107816428Y-74475000D01*
X107887857Y-74439285D01*
X107923571Y-74403571D01*
X107959285Y-74332142D01*
X107959285Y-74260714D01*
X107923571Y-74189285D01*
X107887857Y-74153571D01*
X107816428Y-74117857D01*
X107673571Y-74082142D01*
X107495000Y-74082142D01*
X107352142Y-74117857D01*
X107280714Y-74153571D01*
X107245000Y-74189285D01*
X107209285Y-74260714D01*
X107209285Y-74975000D02*
X107209285Y-75046428D01*
X107245000Y-75117857D01*
X107280714Y-75153571D01*
X107352142Y-75189285D01*
X107495000Y-75225000D01*
X107673571Y-75225000D01*
X107816428Y-75189285D01*
X107887857Y-75153571D01*
X107923571Y-75117857D01*
X107959285Y-75046428D01*
X107959285Y-74975000D01*
X107923571Y-74903571D01*
X107887857Y-74867857D01*
X107816428Y-74832142D01*
X107673571Y-74796428D01*
X107495000Y-74796428D01*
X107352142Y-74832142D01*
X107280714Y-74867857D01*
X107245000Y-74903571D01*
X107209285Y-74975000D01*
X107959285Y-75546428D02*
X107209285Y-75546428D01*
X107673571Y-75617857D02*
X107959285Y-75832142D01*
X107459285Y-75832142D02*
X107745000Y-75546428D01*
G04 #@! TO.C,U1*
X100581428Y-79059285D02*
X100581428Y-79666428D01*
X100545714Y-79737857D01*
X100510000Y-79773571D01*
X100438571Y-79809285D01*
X100295714Y-79809285D01*
X100224285Y-79773571D01*
X100188571Y-79737857D01*
X100152857Y-79666428D01*
X100152857Y-79059285D01*
X99402857Y-79809285D02*
X99831428Y-79809285D01*
X99617142Y-79809285D02*
X99617142Y-79059285D01*
X99688571Y-79166428D01*
X99760000Y-79237857D01*
X99831428Y-79273571D01*
X99599285Y-71740714D02*
X99599285Y-72169285D01*
X100349285Y-71955000D02*
X99599285Y-71955000D01*
X100349285Y-72776428D02*
X100349285Y-72419285D01*
X99599285Y-72419285D01*
X99599285Y-73169285D02*
X99599285Y-73240714D01*
X99635000Y-73312142D01*
X99670714Y-73347857D01*
X99742142Y-73383571D01*
X99885000Y-73419285D01*
X100063571Y-73419285D01*
X100206428Y-73383571D01*
X100277857Y-73347857D01*
X100313571Y-73312142D01*
X100349285Y-73240714D01*
X100349285Y-73169285D01*
X100313571Y-73097857D01*
X100277857Y-73062142D01*
X100206428Y-73026428D01*
X100063571Y-72990714D01*
X99885000Y-72990714D01*
X99742142Y-73026428D01*
X99670714Y-73062142D01*
X99635000Y-73097857D01*
X99599285Y-73169285D01*
X99599285Y-73669285D02*
X99599285Y-74169285D01*
X100349285Y-73847857D01*
X99670714Y-74419285D02*
X99635000Y-74455000D01*
X99599285Y-74526428D01*
X99599285Y-74705000D01*
X99635000Y-74776428D01*
X99670714Y-74812142D01*
X99742142Y-74847857D01*
X99813571Y-74847857D01*
X99920714Y-74812142D01*
X100349285Y-74383571D01*
X100349285Y-74847857D01*
G04 #@! TO.C,R4*
X105673285Y-56695000D02*
X105316142Y-56445000D01*
X105673285Y-56266428D02*
X104923285Y-56266428D01*
X104923285Y-56552142D01*
X104959000Y-56623571D01*
X104994714Y-56659285D01*
X105066142Y-56695000D01*
X105173285Y-56695000D01*
X105244714Y-56659285D01*
X105280428Y-56623571D01*
X105316142Y-56552142D01*
X105316142Y-56266428D01*
X105173285Y-57337857D02*
X105673285Y-57337857D01*
X104887571Y-57159285D02*
X105423285Y-56980714D01*
X105423285Y-57445000D01*
X107959285Y-56605714D02*
X107959285Y-56177142D01*
X107959285Y-56391428D02*
X107209285Y-56391428D01*
X107316428Y-56320000D01*
X107387857Y-56248571D01*
X107423571Y-56177142D01*
X107959285Y-56927142D02*
X107209285Y-56927142D01*
X107745000Y-57177142D01*
X107209285Y-57427142D01*
X107959285Y-57427142D01*
G04 #@! TO.C,C1*
X102553857Y-30025000D02*
X102589571Y-29989285D01*
X102625285Y-29882142D01*
X102625285Y-29810714D01*
X102589571Y-29703571D01*
X102518142Y-29632142D01*
X102446714Y-29596428D01*
X102303857Y-29560714D01*
X102196714Y-29560714D01*
X102053857Y-29596428D01*
X101982428Y-29632142D01*
X101911000Y-29703571D01*
X101875285Y-29810714D01*
X101875285Y-29882142D01*
X101911000Y-29989285D01*
X101946714Y-30025000D01*
X102625285Y-30739285D02*
X102625285Y-30310714D01*
X102625285Y-30525000D02*
X101875285Y-30525000D01*
X101982428Y-30453571D01*
X102053857Y-30382142D01*
X102089571Y-30310714D01*
X102625285Y-32648428D02*
X102625285Y-32219857D01*
X102625285Y-32434142D02*
X101875285Y-32434142D01*
X101982428Y-32362714D01*
X102053857Y-32291285D01*
X102089571Y-32219857D01*
X101875285Y-33112714D02*
X101875285Y-33184142D01*
X101911000Y-33255571D01*
X101946714Y-33291285D01*
X102018142Y-33327000D01*
X102161000Y-33362714D01*
X102339571Y-33362714D01*
X102482428Y-33327000D01*
X102553857Y-33291285D01*
X102589571Y-33255571D01*
X102625285Y-33184142D01*
X102625285Y-33112714D01*
X102589571Y-33041285D01*
X102553857Y-33005571D01*
X102482428Y-32969857D01*
X102339571Y-32934142D01*
X102161000Y-32934142D01*
X102018142Y-32969857D01*
X101946714Y-33005571D01*
X101911000Y-33041285D01*
X101875285Y-33112714D01*
X102125285Y-34005571D02*
X102625285Y-34005571D01*
X102125285Y-33684142D02*
X102518142Y-33684142D01*
X102589571Y-33719857D01*
X102625285Y-33791285D01*
X102625285Y-33898428D01*
X102589571Y-33969857D01*
X102553857Y-34005571D01*
X102232428Y-34612714D02*
X102232428Y-34362714D01*
X102625285Y-34362714D02*
X101875285Y-34362714D01*
X101875285Y-34719857D01*
G04 #@! TO.C,D4*
X100779285Y-53686428D02*
X100029285Y-53686428D01*
X100029285Y-53865000D01*
X100065000Y-53972142D01*
X100136428Y-54043571D01*
X100207857Y-54079285D01*
X100350714Y-54115000D01*
X100457857Y-54115000D01*
X100600714Y-54079285D01*
X100672142Y-54043571D01*
X100743571Y-53972142D01*
X100779285Y-53865000D01*
X100779285Y-53686428D01*
X100279285Y-54757857D02*
X100779285Y-54757857D01*
X99993571Y-54579285D02*
X100529285Y-54400714D01*
X100529285Y-54865000D01*
X100779285Y-57244857D02*
X100779285Y-56816285D01*
X100779285Y-57030571D02*
X100029285Y-57030571D01*
X100136428Y-56959142D01*
X100207857Y-56887714D01*
X100243571Y-56816285D01*
X100779285Y-57566285D02*
X100029285Y-57566285D01*
X100779285Y-57994857D01*
X100029285Y-57994857D01*
X100029285Y-58709142D02*
X100029285Y-58352000D01*
X100386428Y-58316285D01*
X100350714Y-58352000D01*
X100315000Y-58423428D01*
X100315000Y-58602000D01*
X100350714Y-58673428D01*
X100386428Y-58709142D01*
X100457857Y-58744857D01*
X100636428Y-58744857D01*
X100707857Y-58709142D01*
X100743571Y-58673428D01*
X100779285Y-58602000D01*
X100779285Y-58423428D01*
X100743571Y-58352000D01*
X100707857Y-58316285D01*
X100350714Y-59173428D02*
X100315000Y-59102000D01*
X100279285Y-59066285D01*
X100207857Y-59030571D01*
X100172142Y-59030571D01*
X100100714Y-59066285D01*
X100065000Y-59102000D01*
X100029285Y-59173428D01*
X100029285Y-59316285D01*
X100065000Y-59387714D01*
X100100714Y-59423428D01*
X100172142Y-59459142D01*
X100207857Y-59459142D01*
X100279285Y-59423428D01*
X100315000Y-59387714D01*
X100350714Y-59316285D01*
X100350714Y-59173428D01*
X100386428Y-59102000D01*
X100422142Y-59066285D01*
X100493571Y-59030571D01*
X100636428Y-59030571D01*
X100707857Y-59066285D01*
X100743571Y-59102000D01*
X100779285Y-59173428D01*
X100779285Y-59316285D01*
X100743571Y-59387714D01*
X100707857Y-59423428D01*
X100636428Y-59459142D01*
X100493571Y-59459142D01*
X100422142Y-59423428D01*
X100386428Y-59387714D01*
X100350714Y-59316285D01*
X100779285Y-60173428D02*
X100779285Y-59744857D01*
X100779285Y-59959142D02*
X100029285Y-59959142D01*
X100136428Y-59887714D01*
X100207857Y-59816285D01*
X100243571Y-59744857D01*
X100029285Y-60423428D02*
X100029285Y-60923428D01*
X100779285Y-60602000D01*
X100779285Y-51543571D02*
X100029285Y-51543571D01*
X100779285Y-51972142D02*
X100350714Y-51650714D01*
X100029285Y-51972142D02*
X100457857Y-51543571D01*
D11*
G04 #@! TO.C,C7*
X101360000Y-46560000D02*
X108800000Y-46560000D01*
X101360000Y-49300000D02*
X101360000Y-46560000D01*
X108800000Y-49300000D02*
X108800000Y-46560000D01*
X101360000Y-49300000D02*
X108800000Y-49300000D01*
G04 #@! TO.C,J6*
X98260000Y-131180000D02*
X98260000Y-131780000D01*
X97710000Y-137200000D02*
X97710000Y-136200000D01*
X98260000Y-131780000D02*
X96660000Y-131780000D01*
X96080000Y-131180000D02*
X101380000Y-131180000D01*
X100000000Y-136200000D02*
X97460000Y-136200000D01*
X96080000Y-137200000D02*
X96080000Y-131180000D01*
X96660000Y-131780000D02*
X96660000Y-131180000D01*
X101670000Y-132210000D02*
X101670000Y-136210000D01*
X99750000Y-135670000D02*
X97710000Y-135670000D01*
X101380000Y-137200000D02*
X96080000Y-137200000D01*
X99200000Y-131780000D02*
X99200000Y-131180000D01*
X100000000Y-137200000D02*
X100000000Y-136200000D01*
X101380000Y-131180000D02*
X101380000Y-137200000D01*
X97460000Y-136200000D02*
X97460000Y-137200000D01*
X100800000Y-131180000D02*
X100800000Y-131780000D01*
X97710000Y-135670000D02*
X97460000Y-136200000D01*
X100000000Y-136200000D02*
X99750000Y-135670000D01*
X99750000Y-137200000D02*
X99750000Y-136200000D01*
X100800000Y-131780000D02*
X99200000Y-131780000D01*
G04 #@! TO.C,D2*
X103810000Y-25000000D02*
X103810000Y-23980000D01*
X102340000Y-23980000D02*
X102340000Y-18540000D01*
X105280000Y-23080000D02*
X102340000Y-23080000D01*
X102340000Y-18540000D02*
X105280000Y-18540000D01*
X105280000Y-18540000D02*
X105280000Y-23980000D01*
X105280000Y-23200000D02*
X102340000Y-23200000D01*
X105280000Y-23980000D02*
X102340000Y-23980000D01*
X105280000Y-22960000D02*
X102340000Y-22960000D01*
X103810000Y-17520000D02*
X103810000Y-18540000D01*
G04 #@! TO.C,R5*
X108990000Y-93110000D02*
X106250000Y-93110000D01*
X107620000Y-93880000D02*
X107620000Y-93110000D01*
X108990000Y-86570000D02*
X108990000Y-93110000D01*
X106250000Y-93110000D02*
X106250000Y-86570000D01*
X106250000Y-86570000D02*
X108990000Y-86570000D01*
X107620000Y-85800000D02*
X107620000Y-86570000D01*
G04 #@! TO.C,C5*
X98109000Y-66640000D02*
X96851000Y-66640000D01*
X98109000Y-64800000D02*
X96851000Y-64800000D01*
G04 #@! TO.C,C3*
X91200000Y-82330000D02*
X91200000Y-79590000D01*
X98640000Y-82330000D02*
X98640000Y-79590000D01*
X91200000Y-79590000D02*
X98640000Y-79590000D01*
X91200000Y-82330000D02*
X98640000Y-82330000D01*
G04 #@! TO.C,R2*
X92380000Y-76110000D02*
X92380000Y-75340000D01*
X91010000Y-75340000D02*
X91010000Y-68800000D01*
X93750000Y-68800000D02*
X93750000Y-75340000D01*
X93750000Y-75340000D02*
X91010000Y-75340000D01*
X91010000Y-68800000D02*
X93750000Y-68800000D01*
X92380000Y-68030000D02*
X92380000Y-68800000D01*
G04 #@! TO.C,D3*
X95990000Y-59540000D02*
X95990000Y-54100000D01*
X98930000Y-54100000D02*
X98930000Y-59540000D01*
X95990000Y-55120000D02*
X98930000Y-55120000D01*
X95990000Y-55000000D02*
X98930000Y-55000000D01*
X95990000Y-54100000D02*
X98930000Y-54100000D01*
X97460000Y-60560000D02*
X97460000Y-59540000D01*
X95990000Y-54880000D02*
X98930000Y-54880000D01*
X98930000Y-59540000D02*
X95990000Y-59540000D01*
X97460000Y-53080000D02*
X97460000Y-54100000D01*
G04 #@! TO.C,C4*
X103189000Y-81880000D02*
X101931000Y-81880000D01*
X103189000Y-80040000D02*
X101931000Y-80040000D01*
G04 #@! TO.C,C2*
X105310000Y-38299000D02*
X103209000Y-38299000D01*
X105310000Y-37139000D02*
X103743000Y-37139000D01*
X109460000Y-38179000D02*
X107390000Y-38179000D01*
X109578000Y-38940000D02*
X103122000Y-38940000D01*
X109116000Y-37379000D02*
X107390000Y-37379000D01*
X109561000Y-38700000D02*
X107390000Y-38700000D01*
X105310000Y-37619000D02*
X103454000Y-37619000D01*
X105310000Y-37339000D02*
X103608000Y-37339000D01*
X109539000Y-38540000D02*
X107390000Y-38540000D01*
X105310000Y-37179000D02*
X103714000Y-37179000D01*
X108126000Y-36339000D02*
X104574000Y-36339000D01*
X108655000Y-36779000D02*
X107390000Y-36779000D01*
X108294000Y-36459000D02*
X104406000Y-36459000D01*
X105310000Y-38620000D02*
X103149000Y-38620000D01*
X109246000Y-37619000D02*
X107390000Y-37619000D01*
X109066000Y-37299000D02*
X107390000Y-37299000D01*
X105310000Y-36819000D02*
X104007000Y-36819000D01*
X108345000Y-36499000D02*
X104355000Y-36499000D01*
X109014000Y-37219000D02*
X107390000Y-37219000D01*
X109568000Y-38780000D02*
X107390000Y-38780000D01*
X109532000Y-38500000D02*
X107390000Y-38500000D01*
X105310000Y-38139000D02*
X103252000Y-38139000D01*
X109336000Y-37819000D02*
X107390000Y-37819000D01*
X105310000Y-38099000D02*
X103264000Y-38099000D01*
X108834000Y-36979000D02*
X107390000Y-36979000D01*
X109424000Y-38059000D02*
X107390000Y-38059000D01*
X105310000Y-36899000D02*
X103934000Y-36899000D01*
X107859000Y-36179000D02*
X104841000Y-36179000D01*
X109509000Y-38380000D02*
X107390000Y-38380000D01*
X105310000Y-38540000D02*
X103161000Y-38540000D01*
X105310000Y-37579000D02*
X103474000Y-37579000D01*
X107931000Y-36219000D02*
X104769000Y-36219000D01*
X106983000Y-35859000D02*
X105717000Y-35859000D01*
X105310000Y-36939000D02*
X103900000Y-36939000D01*
X109040000Y-37259000D02*
X107390000Y-37259000D01*
X105310000Y-37739000D02*
X103398000Y-37739000D01*
X107515000Y-36019000D02*
X105185000Y-36019000D01*
X105310000Y-36779000D02*
X104045000Y-36779000D01*
X109525000Y-38460000D02*
X107390000Y-38460000D01*
X109580000Y-38980000D02*
X103120000Y-38980000D01*
X109397000Y-37979000D02*
X107390000Y-37979000D01*
X109556000Y-38660000D02*
X107390000Y-38660000D01*
X108986000Y-37179000D02*
X107390000Y-37179000D01*
X109580000Y-39060000D02*
X103120000Y-39060000D01*
X109368000Y-37899000D02*
X107390000Y-37899000D01*
X108730000Y-36859000D02*
X107390000Y-36859000D01*
X109140000Y-37419000D02*
X107390000Y-37419000D01*
X105310000Y-36859000D02*
X103970000Y-36859000D01*
X105310000Y-38740000D02*
X103135000Y-38740000D01*
X105310000Y-38500000D02*
X103168000Y-38500000D01*
X105310000Y-37819000D02*
X103364000Y-37819000D01*
X105310000Y-38460000D02*
X103175000Y-38460000D01*
X108184000Y-36379000D02*
X104516000Y-36379000D01*
X105310000Y-37699000D02*
X103416000Y-37699000D01*
X105310000Y-38380000D02*
X103191000Y-38380000D01*
X108189000Y-42560241D02*
X108189000Y-41930241D01*
X105310000Y-38019000D02*
X103289000Y-38019000D01*
X109184000Y-37499000D02*
X107390000Y-37499000D01*
X105310000Y-37859000D02*
X103348000Y-37859000D01*
X109517000Y-38420000D02*
X107390000Y-38420000D01*
X109320000Y-37779000D02*
X107390000Y-37779000D01*
X109545000Y-38580000D02*
X107390000Y-38580000D01*
X105310000Y-37659000D02*
X103434000Y-37659000D01*
X109266000Y-37659000D02*
X107390000Y-37659000D01*
X105310000Y-38179000D02*
X103240000Y-38179000D01*
X109284000Y-37699000D02*
X107390000Y-37699000D01*
X108532000Y-36659000D02*
X104168000Y-36659000D01*
X108487000Y-36619000D02*
X104213000Y-36619000D01*
X105310000Y-37299000D02*
X103634000Y-37299000D01*
X107152000Y-35899000D02*
X105548000Y-35899000D01*
X105310000Y-38780000D02*
X103132000Y-38780000D01*
X108504000Y-42245241D02*
X107874000Y-42245241D01*
X109411000Y-38019000D02*
X107390000Y-38019000D01*
X109162000Y-37459000D02*
X107390000Y-37459000D01*
X105310000Y-37499000D02*
X103516000Y-37499000D01*
X108957000Y-37139000D02*
X107390000Y-37139000D01*
X105310000Y-37019000D02*
X103834000Y-37019000D01*
X109352000Y-37859000D02*
X107390000Y-37859000D01*
X107612000Y-36059000D02*
X105088000Y-36059000D01*
X108766000Y-36899000D02*
X107390000Y-36899000D01*
X105310000Y-38420000D02*
X103183000Y-38420000D01*
X109577000Y-38900000D02*
X103123000Y-38900000D01*
X109565000Y-38740000D02*
X107390000Y-38740000D01*
X108866000Y-37019000D02*
X107390000Y-37019000D01*
X105310000Y-38339000D02*
X103200000Y-38339000D01*
X105310000Y-37779000D02*
X103380000Y-37779000D01*
X108064000Y-36299000D02*
X104636000Y-36299000D01*
X105310000Y-36979000D02*
X103866000Y-36979000D01*
X107700000Y-36099000D02*
X105000000Y-36099000D01*
X105310000Y-38820000D02*
X103128000Y-38820000D01*
X107409000Y-35979000D02*
X105291000Y-35979000D01*
X109491000Y-38299000D02*
X107390000Y-38299000D01*
X105310000Y-38059000D02*
X103276000Y-38059000D01*
X109302000Y-37739000D02*
X107390000Y-37739000D01*
X105310000Y-37219000D02*
X103686000Y-37219000D01*
X105310000Y-37899000D02*
X103332000Y-37899000D01*
X105310000Y-37059000D02*
X103802000Y-37059000D01*
X109226000Y-37579000D02*
X107390000Y-37579000D01*
X106752000Y-35819000D02*
X105948000Y-35819000D01*
X105310000Y-37459000D02*
X103538000Y-37459000D01*
X109481000Y-38259000D02*
X107390000Y-38259000D01*
X105310000Y-38219000D02*
X103229000Y-38219000D01*
X108000000Y-36259000D02*
X104700000Y-36259000D01*
X107782000Y-36139000D02*
X104918000Y-36139000D01*
X109574000Y-38860000D02*
X103126000Y-38860000D01*
X108394000Y-36539000D02*
X104306000Y-36539000D01*
X105310000Y-37419000D02*
X103560000Y-37419000D01*
X105310000Y-38259000D02*
X103219000Y-38259000D01*
X108928000Y-37099000D02*
X107390000Y-37099000D01*
X105310000Y-37539000D02*
X103494000Y-37539000D01*
X105310000Y-37979000D02*
X103303000Y-37979000D01*
X109471000Y-38219000D02*
X107390000Y-38219000D01*
X109448000Y-38139000D02*
X107390000Y-38139000D01*
X109551000Y-38620000D02*
X107390000Y-38620000D01*
X108574000Y-36699000D02*
X104126000Y-36699000D01*
X105310000Y-37939000D02*
X103317000Y-37939000D01*
X108240000Y-36419000D02*
X104460000Y-36419000D01*
X105310000Y-37379000D02*
X103584000Y-37379000D01*
X107290000Y-35939000D02*
X105410000Y-35939000D01*
X108898000Y-37059000D02*
X107390000Y-37059000D01*
X108615000Y-36739000D02*
X104085000Y-36739000D01*
X105310000Y-37259000D02*
X103660000Y-37259000D01*
X109436000Y-38099000D02*
X107390000Y-38099000D01*
X109383000Y-37939000D02*
X107390000Y-37939000D01*
X109500000Y-38339000D02*
X107390000Y-38339000D01*
X105310000Y-38580000D02*
X103155000Y-38580000D01*
X109092000Y-37339000D02*
X107390000Y-37339000D01*
X108442000Y-36579000D02*
X104258000Y-36579000D01*
X105310000Y-38660000D02*
X103144000Y-38660000D01*
X108800000Y-36939000D02*
X107390000Y-36939000D01*
X105310000Y-37099000D02*
X103772000Y-37099000D01*
X109206000Y-37539000D02*
X107390000Y-37539000D01*
X109580000Y-39020000D02*
X103120000Y-39020000D01*
X109572000Y-38820000D02*
X107390000Y-38820000D01*
X108693000Y-36819000D02*
X107390000Y-36819000D01*
X105310000Y-38700000D02*
X103139000Y-38700000D01*
X109620000Y-39060000D02*
G75*
G03*
X109620000Y-39060000I-3270000J0D01*
G01*
G04 #@! TO.C,C8*
X102460000Y-67090000D02*
X102460000Y-66775000D01*
X102460000Y-64665000D02*
X102460000Y-64350000D01*
X107700000Y-67090000D02*
X107700000Y-66775000D01*
X102460000Y-64350000D02*
X107700000Y-64350000D01*
X107700000Y-64665000D02*
X107700000Y-64350000D01*
X102460000Y-67090000D02*
X107700000Y-67090000D01*
G04 #@! TO.C,R7*
X91010000Y-94380000D02*
X91010000Y-87840000D01*
X92380000Y-87070000D02*
X92380000Y-87840000D01*
X93750000Y-94380000D02*
X91010000Y-94380000D01*
X93750000Y-87840000D02*
X93750000Y-94380000D01*
X91010000Y-87840000D02*
X93750000Y-87840000D01*
X92380000Y-95150000D02*
X92380000Y-94380000D01*
G04 #@! TO.C,D1*
X106590000Y-18540000D02*
X109530000Y-18540000D01*
X109530000Y-23200000D02*
X106590000Y-23200000D01*
X109530000Y-22960000D02*
X106590000Y-22960000D01*
X108060000Y-25000000D02*
X108060000Y-23980000D01*
X109530000Y-18540000D02*
X109530000Y-23980000D01*
X109530000Y-23080000D02*
X106590000Y-23080000D01*
X106590000Y-23980000D02*
X106590000Y-18540000D01*
X109530000Y-23980000D02*
X106590000Y-23980000D01*
X108060000Y-17520000D02*
X108060000Y-18540000D01*
G04 #@! TO.C,GRAF2*
G36*
X93508941Y-108543255D02*
G01*
X93418785Y-108648434D01*
X93375094Y-108686485D01*
X93312195Y-108732095D01*
X93250600Y-108760781D01*
X93175283Y-108780705D01*
X93097329Y-108789967D01*
X92984276Y-108787619D01*
X92871941Y-108771276D01*
X92778792Y-108742706D01*
X92732924Y-108719346D01*
X92626509Y-108635342D01*
X92539289Y-108519191D01*
X92472600Y-108372964D01*
X92427779Y-108198732D01*
X92415484Y-108122356D01*
X92402482Y-107984482D01*
X92403998Y-107868802D01*
X92755697Y-107868802D01*
X92758197Y-107979843D01*
X92767250Y-108094359D01*
X92781890Y-108198223D01*
X92801151Y-108277308D01*
X92811795Y-108303909D01*
X92849099Y-108369793D01*
X92891245Y-108418962D01*
X92924571Y-108441334D01*
X92991111Y-108464004D01*
X93059708Y-108466931D01*
X93120685Y-108451658D01*
X93164366Y-108419731D01*
X93181077Y-108372694D01*
X93180629Y-108370321D01*
X93167331Y-108340360D01*
X93137760Y-108283368D01*
X93094881Y-108204798D01*
X93041656Y-108110104D01*
X92981052Y-108004738D01*
X92781027Y-107660702D01*
X92764892Y-107746889D01*
X92760716Y-107775362D01*
X92755697Y-107868802D01*
X92403998Y-107868802D01*
X92404268Y-107848178D01*
X92420570Y-107694464D01*
X92438779Y-107589883D01*
X92481128Y-107446434D01*
X92938053Y-107446434D01*
X92942125Y-107474967D01*
X92956655Y-107515906D01*
X92983835Y-107574656D01*
X93025859Y-107656619D01*
X93084921Y-107767196D01*
X93133438Y-107857263D01*
X93190124Y-107962045D01*
X93231921Y-108037164D01*
X93261189Y-108085330D01*
X93280288Y-108109254D01*
X93291578Y-108111645D01*
X93297418Y-108095212D01*
X93300167Y-108062666D01*
X93302185Y-108016716D01*
X93304146Y-107955984D01*
X93299451Y-107793686D01*
X93280163Y-107653535D01*
X93247276Y-107539397D01*
X93201785Y-107455136D01*
X93144683Y-107404617D01*
X93110564Y-107389352D01*
X93038173Y-107373645D01*
X92980080Y-107384197D01*
X92944145Y-107420389D01*
X92942246Y-107424908D01*
X92938053Y-107446434D01*
X92481128Y-107446434D01*
X92488002Y-107423151D01*
X92558347Y-107287970D01*
X92650604Y-107182996D01*
X92765562Y-107106884D01*
X92824500Y-107080197D01*
X92882567Y-107062437D01*
X92947189Y-107054741D01*
X93034539Y-107053925D01*
X93145434Y-107060819D01*
X93245519Y-107083242D01*
X93332009Y-107125584D01*
X93417492Y-107192396D01*
X93465538Y-107241506D01*
X93548214Y-107365339D01*
X93606721Y-107518138D01*
X93641312Y-107700678D01*
X93652238Y-107913731D01*
X93650805Y-107955984D01*
X93647480Y-108054041D01*
X93622836Y-108247483D01*
X93587390Y-108372694D01*
X93576807Y-108410080D01*
X93508941Y-108543255D01*
G37*
D12*
X93508941Y-108543255D02*
X93418785Y-108648434D01*
X93375094Y-108686485D01*
X93312195Y-108732095D01*
X93250600Y-108760781D01*
X93175283Y-108780705D01*
X93097329Y-108789967D01*
X92984276Y-108787619D01*
X92871941Y-108771276D01*
X92778792Y-108742706D01*
X92732924Y-108719346D01*
X92626509Y-108635342D01*
X92539289Y-108519191D01*
X92472600Y-108372964D01*
X92427779Y-108198732D01*
X92415484Y-108122356D01*
X92402482Y-107984482D01*
X92403998Y-107868802D01*
X92755697Y-107868802D01*
X92758197Y-107979843D01*
X92767250Y-108094359D01*
X92781890Y-108198223D01*
X92801151Y-108277308D01*
X92811795Y-108303909D01*
X92849099Y-108369793D01*
X92891245Y-108418962D01*
X92924571Y-108441334D01*
X92991111Y-108464004D01*
X93059708Y-108466931D01*
X93120685Y-108451658D01*
X93164366Y-108419731D01*
X93181077Y-108372694D01*
X93180629Y-108370321D01*
X93167331Y-108340360D01*
X93137760Y-108283368D01*
X93094881Y-108204798D01*
X93041656Y-108110104D01*
X92981052Y-108004738D01*
X92781027Y-107660702D01*
X92764892Y-107746889D01*
X92760716Y-107775362D01*
X92755697Y-107868802D01*
X92403998Y-107868802D01*
X92404268Y-107848178D01*
X92420570Y-107694464D01*
X92438779Y-107589883D01*
X92481128Y-107446434D01*
X92938053Y-107446434D01*
X92942125Y-107474967D01*
X92956655Y-107515906D01*
X92983835Y-107574656D01*
X93025859Y-107656619D01*
X93084921Y-107767196D01*
X93133438Y-107857263D01*
X93190124Y-107962045D01*
X93231921Y-108037164D01*
X93261189Y-108085330D01*
X93280288Y-108109254D01*
X93291578Y-108111645D01*
X93297418Y-108095212D01*
X93300167Y-108062666D01*
X93302185Y-108016716D01*
X93304146Y-107955984D01*
X93299451Y-107793686D01*
X93280163Y-107653535D01*
X93247276Y-107539397D01*
X93201785Y-107455136D01*
X93144683Y-107404617D01*
X93110564Y-107389352D01*
X93038173Y-107373645D01*
X92980080Y-107384197D01*
X92944145Y-107420389D01*
X92942246Y-107424908D01*
X92938053Y-107446434D01*
X92481128Y-107446434D01*
X92488002Y-107423151D01*
X92558347Y-107287970D01*
X92650604Y-107182996D01*
X92765562Y-107106884D01*
X92824500Y-107080197D01*
X92882567Y-107062437D01*
X92947189Y-107054741D01*
X93034539Y-107053925D01*
X93145434Y-107060819D01*
X93245519Y-107083242D01*
X93332009Y-107125584D01*
X93417492Y-107192396D01*
X93465538Y-107241506D01*
X93548214Y-107365339D01*
X93606721Y-107518138D01*
X93641312Y-107700678D01*
X93652238Y-107913731D01*
X93650805Y-107955984D01*
X93647480Y-108054041D01*
X93622836Y-108247483D01*
X93587390Y-108372694D01*
X93576807Y-108410080D01*
X93508941Y-108543255D01*
G36*
X95901087Y-107458553D02*
G01*
X96005475Y-107488928D01*
X96030117Y-107501196D01*
X96127800Y-107575078D01*
X96202905Y-107675228D01*
X96251124Y-107794486D01*
X96268154Y-107925694D01*
X96254536Y-108049345D01*
X96208881Y-108169191D01*
X96133214Y-108267141D01*
X96029723Y-108339395D01*
X95946352Y-108371937D01*
X95814419Y-108389493D01*
X95675070Y-108368792D01*
X95652973Y-108360670D01*
X95597448Y-108329947D01*
X95537639Y-108287241D01*
X95483095Y-108240399D01*
X95443365Y-108197272D01*
X95428000Y-108165709D01*
X95430706Y-108158249D01*
X95458090Y-108133301D01*
X95505444Y-108106935D01*
X95582888Y-108072013D01*
X95652663Y-108133275D01*
X95672578Y-108149406D01*
X95750451Y-108188673D01*
X95825213Y-108192845D01*
X95891937Y-108164996D01*
X95945697Y-108108197D01*
X95981565Y-108025520D01*
X95994616Y-107920038D01*
X95994177Y-107897958D01*
X95976986Y-107792618D01*
X95936310Y-107713865D01*
X95874245Y-107664534D01*
X95792890Y-107647461D01*
X95739913Y-107660854D01*
X95679678Y-107696036D01*
X95630922Y-107742783D01*
X95624361Y-107750280D01*
X95604765Y-107757991D01*
X95572758Y-107748060D01*
X95518388Y-107718323D01*
X95506859Y-107711489D01*
X95459686Y-107679572D01*
X95441227Y-107655377D01*
X95445557Y-107631874D01*
X95491953Y-107571711D01*
X95574378Y-107512970D01*
X95676240Y-107472947D01*
X95788242Y-107454017D01*
X95901087Y-107458553D01*
G37*
X95901087Y-107458553D02*
X96005475Y-107488928D01*
X96030117Y-107501196D01*
X96127800Y-107575078D01*
X96202905Y-107675228D01*
X96251124Y-107794486D01*
X96268154Y-107925694D01*
X96254536Y-108049345D01*
X96208881Y-108169191D01*
X96133214Y-108267141D01*
X96029723Y-108339395D01*
X95946352Y-108371937D01*
X95814419Y-108389493D01*
X95675070Y-108368792D01*
X95652973Y-108360670D01*
X95597448Y-108329947D01*
X95537639Y-108287241D01*
X95483095Y-108240399D01*
X95443365Y-108197272D01*
X95428000Y-108165709D01*
X95430706Y-108158249D01*
X95458090Y-108133301D01*
X95505444Y-108106935D01*
X95582888Y-108072013D01*
X95652663Y-108133275D01*
X95672578Y-108149406D01*
X95750451Y-108188673D01*
X95825213Y-108192845D01*
X95891937Y-108164996D01*
X95945697Y-108108197D01*
X95981565Y-108025520D01*
X95994616Y-107920038D01*
X95994177Y-107897958D01*
X95976986Y-107792618D01*
X95936310Y-107713865D01*
X95874245Y-107664534D01*
X95792890Y-107647461D01*
X95739913Y-107660854D01*
X95679678Y-107696036D01*
X95630922Y-107742783D01*
X95624361Y-107750280D01*
X95604765Y-107757991D01*
X95572758Y-107748060D01*
X95518388Y-107718323D01*
X95506859Y-107711489D01*
X95459686Y-107679572D01*
X95441227Y-107655377D01*
X95445557Y-107631874D01*
X95491953Y-107571711D01*
X95574378Y-107512970D01*
X95676240Y-107472947D01*
X95788242Y-107454017D01*
X95901087Y-107458553D01*
G36*
X96777332Y-107459433D02*
G01*
X96896981Y-107495047D01*
X96999280Y-107560869D01*
X97078411Y-107654898D01*
X97079931Y-107657398D01*
X97115251Y-107725936D01*
X97134911Y-107795717D01*
X97144269Y-107885501D01*
X97145597Y-107927835D01*
X97131242Y-108067736D01*
X97086464Y-108183318D01*
X97011027Y-108275034D01*
X96904695Y-108343334D01*
X96889988Y-108349916D01*
X96760244Y-108385942D01*
X96631441Y-108383801D01*
X96507914Y-108344137D01*
X96393998Y-108267592D01*
X96356081Y-108232448D01*
X96320834Y-108195078D01*
X96307231Y-108173736D01*
X96310755Y-108166796D01*
X96339096Y-108143496D01*
X96386557Y-108115786D01*
X96465883Y-108075317D01*
X96533775Y-108134928D01*
X96569904Y-108162518D01*
X96647404Y-108193549D01*
X96723933Y-108185544D01*
X96799179Y-108138499D01*
X96830231Y-108107901D01*
X96851977Y-108073001D01*
X96863588Y-108025710D01*
X96870160Y-107952687D01*
X96871949Y-107887390D01*
X96860410Y-107789778D01*
X96828338Y-107720575D01*
X96774372Y-107675847D01*
X96698889Y-107650439D01*
X96626737Y-107659519D01*
X96554507Y-107706023D01*
X96487809Y-107764585D01*
X96397679Y-107714211D01*
X96375064Y-107701299D01*
X96334257Y-107673581D01*
X96320405Y-107651461D01*
X96327191Y-107627135D01*
X96343964Y-107602844D01*
X96400173Y-107551000D01*
X96473960Y-107504771D01*
X96551462Y-107473643D01*
X96646151Y-107456030D01*
X96777332Y-107459433D01*
G37*
X96777332Y-107459433D02*
X96896981Y-107495047D01*
X96999280Y-107560869D01*
X97078411Y-107654898D01*
X97079931Y-107657398D01*
X97115251Y-107725936D01*
X97134911Y-107795717D01*
X97144269Y-107885501D01*
X97145597Y-107927835D01*
X97131242Y-108067736D01*
X97086464Y-108183318D01*
X97011027Y-108275034D01*
X96904695Y-108343334D01*
X96889988Y-108349916D01*
X96760244Y-108385942D01*
X96631441Y-108383801D01*
X96507914Y-108344137D01*
X96393998Y-108267592D01*
X96356081Y-108232448D01*
X96320834Y-108195078D01*
X96307231Y-108173736D01*
X96310755Y-108166796D01*
X96339096Y-108143496D01*
X96386557Y-108115786D01*
X96465883Y-108075317D01*
X96533775Y-108134928D01*
X96569904Y-108162518D01*
X96647404Y-108193549D01*
X96723933Y-108185544D01*
X96799179Y-108138499D01*
X96830231Y-108107901D01*
X96851977Y-108073001D01*
X96863588Y-108025710D01*
X96870160Y-107952687D01*
X96871949Y-107887390D01*
X96860410Y-107789778D01*
X96828338Y-107720575D01*
X96774372Y-107675847D01*
X96698889Y-107650439D01*
X96626737Y-107659519D01*
X96554507Y-107706023D01*
X96487809Y-107764585D01*
X96397679Y-107714211D01*
X96375064Y-107701299D01*
X96334257Y-107673581D01*
X96320405Y-107651461D01*
X96327191Y-107627135D01*
X96343964Y-107602844D01*
X96400173Y-107551000D01*
X96473960Y-107504771D01*
X96551462Y-107473643D01*
X96646151Y-107456030D01*
X96777332Y-107459433D01*
G36*
X97780239Y-108211302D02*
G01*
X97717194Y-108435250D01*
X97618401Y-108647943D01*
X97484861Y-108846473D01*
X97317575Y-109027935D01*
X97316519Y-109028922D01*
X97138932Y-109170928D01*
X96940960Y-109286903D01*
X96731147Y-109372615D01*
X96518036Y-109423835D01*
X96458831Y-109430650D01*
X96327804Y-109435540D01*
X96183661Y-109430844D01*
X96042333Y-109417312D01*
X95919751Y-109395692D01*
X95777382Y-109353904D01*
X95566450Y-109260317D01*
X95370617Y-109135128D01*
X95194345Y-108982404D01*
X95042092Y-108806212D01*
X94918320Y-108610619D01*
X94827488Y-108399692D01*
X94807101Y-108335672D01*
X94792685Y-108278855D01*
X94783274Y-108220255D01*
X94777786Y-108150550D01*
X94775141Y-108060418D01*
X94774257Y-107940538D01*
X94774456Y-107921000D01*
X95030724Y-107921000D01*
X95036085Y-108081468D01*
X95059839Y-108241154D01*
X95105983Y-108386157D01*
X95178259Y-108527814D01*
X95280407Y-108677457D01*
X95350202Y-108759415D01*
X95485642Y-108881299D01*
X95642986Y-108988240D01*
X95811852Y-109073534D01*
X95981852Y-109130472D01*
X96024637Y-109139062D01*
X96106787Y-109150448D01*
X96199045Y-109159131D01*
X96289233Y-109164264D01*
X96365174Y-109165004D01*
X96414692Y-109160505D01*
X96437304Y-109155585D01*
X96493822Y-109143939D01*
X96561231Y-109130527D01*
X96577196Y-109126990D01*
X96652608Y-109104320D01*
X96742119Y-109070895D01*
X96829640Y-109032586D01*
X96851539Y-109021816D01*
X97027307Y-108911947D01*
X97184836Y-108771554D01*
X97319427Y-108606299D01*
X97426380Y-108421843D01*
X97500995Y-108223846D01*
X97514612Y-108159052D01*
X97526389Y-108040780D01*
X97528601Y-107907371D01*
X97521631Y-107772170D01*
X97505862Y-107648521D01*
X97481676Y-107549769D01*
X97436203Y-107436098D01*
X97333892Y-107251800D01*
X97205315Y-107086015D01*
X97055038Y-106942826D01*
X96887627Y-106826315D01*
X96707649Y-106740565D01*
X96519669Y-106689657D01*
X96425944Y-106678356D01*
X96283025Y-106673684D01*
X96136736Y-106680903D01*
X96000844Y-106699184D01*
X95889114Y-106727696D01*
X95823005Y-106752773D01*
X95622439Y-106855010D01*
X95446224Y-106987010D01*
X95296477Y-107146634D01*
X95175318Y-107331739D01*
X95084866Y-107540187D01*
X95070547Y-107583980D01*
X95050761Y-107656844D01*
X95038805Y-107728322D01*
X95032764Y-107811885D01*
X95030724Y-107921000D01*
X94774456Y-107921000D01*
X94775665Y-107802287D01*
X94782892Y-107671114D01*
X94797999Y-107560067D01*
X94822951Y-107459132D01*
X94859712Y-107358295D01*
X94910249Y-107247541D01*
X94923089Y-107221844D01*
X95047589Y-107019696D01*
X95199628Y-106842729D01*
X95375636Y-106692823D01*
X95572042Y-106571861D01*
X95785275Y-106481725D01*
X96011762Y-106424295D01*
X96247934Y-106401453D01*
X96490219Y-106415081D01*
X96518752Y-106419104D01*
X96744478Y-106469158D01*
X96949837Y-106550231D01*
X97140249Y-106664935D01*
X97321132Y-106815885D01*
X97350913Y-106844940D01*
X97511439Y-107028891D01*
X97636059Y-107225919D01*
X97726541Y-107439286D01*
X97784648Y-107672252D01*
X97795080Y-107741259D01*
X97803084Y-107907371D01*
X97806535Y-107979003D01*
X97780239Y-108211302D01*
G37*
X97780239Y-108211302D02*
X97717194Y-108435250D01*
X97618401Y-108647943D01*
X97484861Y-108846473D01*
X97317575Y-109027935D01*
X97316519Y-109028922D01*
X97138932Y-109170928D01*
X96940960Y-109286903D01*
X96731147Y-109372615D01*
X96518036Y-109423835D01*
X96458831Y-109430650D01*
X96327804Y-109435540D01*
X96183661Y-109430844D01*
X96042333Y-109417312D01*
X95919751Y-109395692D01*
X95777382Y-109353904D01*
X95566450Y-109260317D01*
X95370617Y-109135128D01*
X95194345Y-108982404D01*
X95042092Y-108806212D01*
X94918320Y-108610619D01*
X94827488Y-108399692D01*
X94807101Y-108335672D01*
X94792685Y-108278855D01*
X94783274Y-108220255D01*
X94777786Y-108150550D01*
X94775141Y-108060418D01*
X94774257Y-107940538D01*
X94774456Y-107921000D01*
X95030724Y-107921000D01*
X95036085Y-108081468D01*
X95059839Y-108241154D01*
X95105983Y-108386157D01*
X95178259Y-108527814D01*
X95280407Y-108677457D01*
X95350202Y-108759415D01*
X95485642Y-108881299D01*
X95642986Y-108988240D01*
X95811852Y-109073534D01*
X95981852Y-109130472D01*
X96024637Y-109139062D01*
X96106787Y-109150448D01*
X96199045Y-109159131D01*
X96289233Y-109164264D01*
X96365174Y-109165004D01*
X96414692Y-109160505D01*
X96437304Y-109155585D01*
X96493822Y-109143939D01*
X96561231Y-109130527D01*
X96577196Y-109126990D01*
X96652608Y-109104320D01*
X96742119Y-109070895D01*
X96829640Y-109032586D01*
X96851539Y-109021816D01*
X97027307Y-108911947D01*
X97184836Y-108771554D01*
X97319427Y-108606299D01*
X97426380Y-108421843D01*
X97500995Y-108223846D01*
X97514612Y-108159052D01*
X97526389Y-108040780D01*
X97528601Y-107907371D01*
X97521631Y-107772170D01*
X97505862Y-107648521D01*
X97481676Y-107549769D01*
X97436203Y-107436098D01*
X97333892Y-107251800D01*
X97205315Y-107086015D01*
X97055038Y-106942826D01*
X96887627Y-106826315D01*
X96707649Y-106740565D01*
X96519669Y-106689657D01*
X96425944Y-106678356D01*
X96283025Y-106673684D01*
X96136736Y-106680903D01*
X96000844Y-106699184D01*
X95889114Y-106727696D01*
X95823005Y-106752773D01*
X95622439Y-106855010D01*
X95446224Y-106987010D01*
X95296477Y-107146634D01*
X95175318Y-107331739D01*
X95084866Y-107540187D01*
X95070547Y-107583980D01*
X95050761Y-107656844D01*
X95038805Y-107728322D01*
X95032764Y-107811885D01*
X95030724Y-107921000D01*
X94774456Y-107921000D01*
X94775665Y-107802287D01*
X94782892Y-107671114D01*
X94797999Y-107560067D01*
X94822951Y-107459132D01*
X94859712Y-107358295D01*
X94910249Y-107247541D01*
X94923089Y-107221844D01*
X95047589Y-107019696D01*
X95199628Y-106842729D01*
X95375636Y-106692823D01*
X95572042Y-106571861D01*
X95785275Y-106481725D01*
X96011762Y-106424295D01*
X96247934Y-106401453D01*
X96490219Y-106415081D01*
X96518752Y-106419104D01*
X96744478Y-106469158D01*
X96949837Y-106550231D01*
X97140249Y-106664935D01*
X97321132Y-106815885D01*
X97350913Y-106844940D01*
X97511439Y-107028891D01*
X97636059Y-107225919D01*
X97726541Y-107439286D01*
X97784648Y-107672252D01*
X97795080Y-107741259D01*
X97803084Y-107907371D01*
X97806535Y-107979003D01*
X97780239Y-108211302D01*
G36*
X94494098Y-108334730D02*
G01*
X94416979Y-108547239D01*
X94307960Y-108747151D01*
X94167565Y-108930450D01*
X93996318Y-109093122D01*
X93924665Y-109147800D01*
X93714814Y-109274934D01*
X93488036Y-109367757D01*
X93248701Y-109424333D01*
X93195245Y-109430587D01*
X93063718Y-109434928D01*
X92917603Y-109428309D01*
X92772088Y-109411687D01*
X92642363Y-109386024D01*
X92555193Y-109360403D01*
X92349462Y-109273963D01*
X92153535Y-109156367D01*
X91974404Y-109012903D01*
X91819060Y-108848855D01*
X91694497Y-108669509D01*
X91687923Y-108657967D01*
X91596753Y-108457409D01*
X91537660Y-108241000D01*
X91510543Y-108014698D01*
X91512503Y-107919975D01*
X91773932Y-107919975D01*
X91788905Y-108121620D01*
X91837467Y-108319686D01*
X91920299Y-108510023D01*
X92038085Y-108688478D01*
X92077618Y-108735097D01*
X92211288Y-108860843D01*
X92368582Y-108972041D01*
X92538303Y-109061458D01*
X92709253Y-109121863D01*
X92826214Y-109146598D01*
X93045243Y-109163623D01*
X93261157Y-109142992D01*
X93469936Y-109085254D01*
X93667557Y-108990958D01*
X93674876Y-108986561D01*
X93766350Y-108920920D01*
X93866572Y-108833322D01*
X93964995Y-108734314D01*
X94051076Y-108634441D01*
X94114267Y-108544249D01*
X94198679Y-108371690D01*
X94260064Y-108166751D01*
X94285198Y-107955606D01*
X94273517Y-107743433D01*
X94224456Y-107535411D01*
X94199123Y-107468282D01*
X94116390Y-107308160D01*
X94007458Y-107152978D01*
X93879615Y-107011242D01*
X93740147Y-106891458D01*
X93596339Y-106802134D01*
X93540013Y-106775950D01*
X93338769Y-106708319D01*
X93129972Y-106674993D01*
X92919455Y-106675622D01*
X92713052Y-106709856D01*
X92516595Y-106777346D01*
X92335918Y-106877741D01*
X92178983Y-107003385D01*
X92036259Y-107160647D01*
X91923710Y-107335089D01*
X91842017Y-107522558D01*
X91791863Y-107718904D01*
X91773932Y-107919975D01*
X91512503Y-107919975D01*
X91515306Y-107784459D01*
X91551850Y-107556241D01*
X91620077Y-107335999D01*
X91719888Y-107129692D01*
X91786353Y-107031982D01*
X91883359Y-106916134D01*
X91994792Y-106802493D01*
X92110068Y-106701779D01*
X92218602Y-106624708D01*
X92288761Y-106584945D01*
X92500872Y-106493319D01*
X92728551Y-106432587D01*
X92964289Y-106403853D01*
X93200579Y-106408219D01*
X93429914Y-106446788D01*
X93451476Y-106452460D01*
X93631418Y-106518626D01*
X93811551Y-106615696D01*
X93983123Y-106737554D01*
X94137384Y-106878078D01*
X94265584Y-107031151D01*
X94382833Y-107223756D01*
X94473082Y-107439025D01*
X94528808Y-107661772D01*
X94550536Y-107887982D01*
X94547016Y-107955606D01*
X94538791Y-108113639D01*
X94494098Y-108334730D01*
G37*
X94494098Y-108334730D02*
X94416979Y-108547239D01*
X94307960Y-108747151D01*
X94167565Y-108930450D01*
X93996318Y-109093122D01*
X93924665Y-109147800D01*
X93714814Y-109274934D01*
X93488036Y-109367757D01*
X93248701Y-109424333D01*
X93195245Y-109430587D01*
X93063718Y-109434928D01*
X92917603Y-109428309D01*
X92772088Y-109411687D01*
X92642363Y-109386024D01*
X92555193Y-109360403D01*
X92349462Y-109273963D01*
X92153535Y-109156367D01*
X91974404Y-109012903D01*
X91819060Y-108848855D01*
X91694497Y-108669509D01*
X91687923Y-108657967D01*
X91596753Y-108457409D01*
X91537660Y-108241000D01*
X91510543Y-108014698D01*
X91512503Y-107919975D01*
X91773932Y-107919975D01*
X91788905Y-108121620D01*
X91837467Y-108319686D01*
X91920299Y-108510023D01*
X92038085Y-108688478D01*
X92077618Y-108735097D01*
X92211288Y-108860843D01*
X92368582Y-108972041D01*
X92538303Y-109061458D01*
X92709253Y-109121863D01*
X92826214Y-109146598D01*
X93045243Y-109163623D01*
X93261157Y-109142992D01*
X93469936Y-109085254D01*
X93667557Y-108990958D01*
X93674876Y-108986561D01*
X93766350Y-108920920D01*
X93866572Y-108833322D01*
X93964995Y-108734314D01*
X94051076Y-108634441D01*
X94114267Y-108544249D01*
X94198679Y-108371690D01*
X94260064Y-108166751D01*
X94285198Y-107955606D01*
X94273517Y-107743433D01*
X94224456Y-107535411D01*
X94199123Y-107468282D01*
X94116390Y-107308160D01*
X94007458Y-107152978D01*
X93879615Y-107011242D01*
X93740147Y-106891458D01*
X93596339Y-106802134D01*
X93540013Y-106775950D01*
X93338769Y-106708319D01*
X93129972Y-106674993D01*
X92919455Y-106675622D01*
X92713052Y-106709856D01*
X92516595Y-106777346D01*
X92335918Y-106877741D01*
X92178983Y-107003385D01*
X92036259Y-107160647D01*
X91923710Y-107335089D01*
X91842017Y-107522558D01*
X91791863Y-107718904D01*
X91773932Y-107919975D01*
X91512503Y-107919975D01*
X91515306Y-107784459D01*
X91551850Y-107556241D01*
X91620077Y-107335999D01*
X91719888Y-107129692D01*
X91786353Y-107031982D01*
X91883359Y-106916134D01*
X91994792Y-106802493D01*
X92110068Y-106701779D01*
X92218602Y-106624708D01*
X92288761Y-106584945D01*
X92500872Y-106493319D01*
X92728551Y-106432587D01*
X92964289Y-106403853D01*
X93200579Y-106408219D01*
X93429914Y-106446788D01*
X93451476Y-106452460D01*
X93631418Y-106518626D01*
X93811551Y-106615696D01*
X93983123Y-106737554D01*
X94137384Y-106878078D01*
X94265584Y-107031151D01*
X94382833Y-107223756D01*
X94473082Y-107439025D01*
X94528808Y-107661772D01*
X94550536Y-107887982D01*
X94547016Y-107955606D01*
X94538791Y-108113639D01*
X94494098Y-108334730D01*
D11*
G04 #@! TO.C,C6*
X98680000Y-46560000D02*
X98680000Y-49300000D01*
X91240000Y-46560000D02*
X91240000Y-49300000D01*
X98680000Y-49300000D02*
X91240000Y-49300000D01*
X98680000Y-46560000D02*
X91240000Y-46560000D01*
G04 #@! TO.C,GRAF3*
G36*
X96355100Y-117960350D02*
G01*
X95866150Y-117960350D01*
X95866150Y-122462500D01*
X95472450Y-122462500D01*
X95472450Y-117960350D01*
X94983500Y-117960350D01*
X94983500Y-117553950D01*
X96355100Y-117553950D01*
X96355100Y-117960350D01*
G37*
D12*
X96355100Y-117960350D02*
X95866150Y-117960350D01*
X95866150Y-122462500D01*
X95472450Y-122462500D01*
X95472450Y-117960350D01*
X94983500Y-117960350D01*
X94983500Y-117553950D01*
X96355100Y-117553950D01*
X96355100Y-117960350D01*
G36*
X99434872Y-122462500D02*
G01*
X99433274Y-120641637D01*
X99431675Y-118820775D01*
X98937963Y-118819148D01*
X98444250Y-118817522D01*
X98444250Y-118411200D01*
X98837950Y-118411200D01*
X99133425Y-118411200D01*
X99196859Y-118411147D01*
X99258563Y-118410942D01*
X99309244Y-118410561D01*
X99349796Y-118409979D01*
X99381114Y-118409172D01*
X99404095Y-118408117D01*
X99419632Y-118406789D01*
X99428623Y-118405165D01*
X99431961Y-118403220D01*
X99432481Y-118398330D01*
X99433048Y-118381800D01*
X99433458Y-118355245D01*
X99433703Y-118320195D01*
X99433773Y-118278181D01*
X99433658Y-118230733D01*
X99433349Y-118179382D01*
X99431675Y-117963525D01*
X99134813Y-117961874D01*
X98837950Y-117960224D01*
X98837950Y-118411200D01*
X98444250Y-118411200D01*
X98444250Y-117553950D01*
X99822200Y-117553950D01*
X99822200Y-122462500D01*
X99434872Y-122462500D01*
G37*
X99434872Y-122462500D02*
X99433274Y-120641637D01*
X99431675Y-118820775D01*
X98937963Y-118819148D01*
X98444250Y-118817522D01*
X98444250Y-118411200D01*
X98837950Y-118411200D01*
X99133425Y-118411200D01*
X99196859Y-118411147D01*
X99258563Y-118410942D01*
X99309244Y-118410561D01*
X99349796Y-118409979D01*
X99381114Y-118409172D01*
X99404095Y-118408117D01*
X99419632Y-118406789D01*
X99428623Y-118405165D01*
X99431961Y-118403220D01*
X99432481Y-118398330D01*
X99433048Y-118381800D01*
X99433458Y-118355245D01*
X99433703Y-118320195D01*
X99433773Y-118278181D01*
X99433658Y-118230733D01*
X99433349Y-118179382D01*
X99431675Y-117963525D01*
X99134813Y-117961874D01*
X98837950Y-117960224D01*
X98837950Y-118411200D01*
X98444250Y-118411200D01*
X98444250Y-117553950D01*
X99822200Y-117553950D01*
X99822200Y-122462500D01*
X99434872Y-122462500D01*
G36*
X96355100Y-117084050D02*
G01*
X94980325Y-117084050D01*
X94981660Y-114986962D01*
X94982995Y-112889875D01*
X95323097Y-112888232D01*
X95663198Y-112886589D01*
X95661487Y-113024757D01*
X95659775Y-113162925D01*
X95515313Y-113164631D01*
X95370850Y-113166338D01*
X95370850Y-116677650D01*
X95967750Y-116677650D01*
X95967750Y-112581900D01*
X94983500Y-112581900D01*
X94983500Y-112175500D01*
X95378788Y-112175492D01*
X95409310Y-112175480D01*
X95492922Y-112175342D01*
X95580934Y-112175063D01*
X95670902Y-112174659D01*
X95760383Y-112174145D01*
X95846935Y-112173535D01*
X95928115Y-112172844D01*
X96001480Y-112172088D01*
X96064588Y-112171281D01*
X96355100Y-112167078D01*
X96355100Y-117084050D01*
G37*
X96355100Y-117084050D02*
X94980325Y-117084050D01*
X94981660Y-114986962D01*
X94982995Y-112889875D01*
X95323097Y-112888232D01*
X95663198Y-112886589D01*
X95661487Y-113024757D01*
X95659775Y-113162925D01*
X95515313Y-113164631D01*
X95370850Y-113166338D01*
X95370850Y-116677650D01*
X95967750Y-116677650D01*
X95967750Y-112581900D01*
X94983500Y-112581900D01*
X94983500Y-112175500D01*
X95378788Y-112175492D01*
X95409310Y-112175480D01*
X95492922Y-112175342D01*
X95580934Y-112175063D01*
X95670902Y-112174659D01*
X95760383Y-112174145D01*
X95846935Y-112173535D01*
X95928115Y-112172844D01*
X96001480Y-112172088D01*
X96064588Y-112171281D01*
X96355100Y-112167078D01*
X96355100Y-117084050D01*
G36*
X101555750Y-117960350D02*
G01*
X101060450Y-117960350D01*
X101060450Y-122462500D01*
X100673100Y-122462500D01*
X100673100Y-117960350D01*
X100177800Y-117960350D01*
X100177800Y-117553950D01*
X101555750Y-117553950D01*
X101555750Y-117960350D01*
G37*
X101555750Y-117960350D02*
X101060450Y-117960350D01*
X101060450Y-122462500D01*
X100673100Y-122462500D01*
X100673100Y-117960350D01*
X100177800Y-117960350D01*
X100177800Y-117553950D01*
X101555750Y-117553950D01*
X101555750Y-117960350D01*
G36*
X102298700Y-122056100D02*
G01*
X102895600Y-122056100D01*
X102895600Y-117553950D01*
X103282035Y-117553950D01*
X103284141Y-120006637D01*
X103284265Y-120153012D01*
X103284405Y-120326127D01*
X103284537Y-120495642D01*
X103284660Y-120661124D01*
X103284774Y-120822141D01*
X103284879Y-120978258D01*
X103284974Y-121129042D01*
X103285059Y-121274060D01*
X103285135Y-121412879D01*
X103285201Y-121545065D01*
X103285256Y-121670184D01*
X103285302Y-121787804D01*
X103285337Y-121897492D01*
X103285361Y-121998812D01*
X103285375Y-122091333D01*
X103285377Y-122174622D01*
X103285369Y-122248243D01*
X103285349Y-122311765D01*
X103285318Y-122364754D01*
X103285275Y-122406776D01*
X103285220Y-122437398D01*
X103285154Y-122456187D01*
X103285075Y-122462710D01*
X103285026Y-122462745D01*
X103277712Y-122463199D01*
X103258581Y-122463634D01*
X103228453Y-122464047D01*
X103188145Y-122464434D01*
X103138480Y-122464790D01*
X103080275Y-122465112D01*
X103014351Y-122465396D01*
X102941527Y-122465637D01*
X102862623Y-122465831D01*
X102778459Y-122465975D01*
X102689853Y-122466064D01*
X102597627Y-122466095D01*
X101911350Y-122466095D01*
X101911350Y-117553950D01*
X102298700Y-117553950D01*
X102298700Y-122056100D01*
G37*
X102298700Y-122056100D02*
X102895600Y-122056100D01*
X102895600Y-117553950D01*
X103282035Y-117553950D01*
X103284141Y-120006637D01*
X103284265Y-120153012D01*
X103284405Y-120326127D01*
X103284537Y-120495642D01*
X103284660Y-120661124D01*
X103284774Y-120822141D01*
X103284879Y-120978258D01*
X103284974Y-121129042D01*
X103285059Y-121274060D01*
X103285135Y-121412879D01*
X103285201Y-121545065D01*
X103285256Y-121670184D01*
X103285302Y-121787804D01*
X103285337Y-121897492D01*
X103285361Y-121998812D01*
X103285375Y-122091333D01*
X103285377Y-122174622D01*
X103285369Y-122248243D01*
X103285349Y-122311765D01*
X103285318Y-122364754D01*
X103285275Y-122406776D01*
X103285220Y-122437398D01*
X103285154Y-122456187D01*
X103285075Y-122462710D01*
X103285026Y-122462745D01*
X103277712Y-122463199D01*
X103258581Y-122463634D01*
X103228453Y-122464047D01*
X103188145Y-122464434D01*
X103138480Y-122464790D01*
X103080275Y-122465112D01*
X103014351Y-122465396D01*
X102941527Y-122465637D01*
X102862623Y-122465831D01*
X102778459Y-122465975D01*
X102689853Y-122466064D01*
X102597627Y-122466095D01*
X101911350Y-122466095D01*
X101911350Y-117553950D01*
X102298700Y-117553950D01*
X102298700Y-122056100D01*
G36*
X108009459Y-117842599D02*
G01*
X107982850Y-118155431D01*
X107944020Y-118467185D01*
X107892978Y-118777484D01*
X107829739Y-119085952D01*
X107754313Y-119392211D01*
X107666713Y-119695886D01*
X107566951Y-119996599D01*
X107455038Y-120293975D01*
X107413377Y-120396277D01*
X107286847Y-120684734D01*
X107149059Y-120968127D01*
X107000368Y-121245867D01*
X106841129Y-121517365D01*
X106671698Y-121782034D01*
X106492429Y-122039284D01*
X106303678Y-122288527D01*
X106105801Y-122529175D01*
X106037893Y-122607375D01*
X105848541Y-122815129D01*
X105650677Y-123017964D01*
X105446302Y-123213938D01*
X105237418Y-123401109D01*
X105026025Y-123577532D01*
X104971470Y-123621000D01*
X104717856Y-123813261D01*
X104457715Y-123994714D01*
X104191331Y-124165253D01*
X103918985Y-124324773D01*
X103640962Y-124473168D01*
X103357543Y-124610333D01*
X103069013Y-124736162D01*
X102775655Y-124850550D01*
X102477751Y-124953392D01*
X102175584Y-125044583D01*
X101869438Y-125124016D01*
X101559596Y-125191587D01*
X101246341Y-125247190D01*
X100929955Y-125290720D01*
X100610722Y-125322071D01*
X100288925Y-125341138D01*
X100284906Y-125341293D01*
X100245681Y-125342385D01*
X100196292Y-125343196D01*
X100138997Y-125343734D01*
X100076049Y-125344006D01*
X100009705Y-125344020D01*
X99942219Y-125343782D01*
X99875849Y-125343301D01*
X99812849Y-125342583D01*
X99755474Y-125341637D01*
X99705981Y-125340469D01*
X99666625Y-125339087D01*
X99451004Y-125326728D01*
X99130802Y-125297931D01*
X98813528Y-125256866D01*
X98499438Y-125203638D01*
X98188790Y-125138355D01*
X97881840Y-125061120D01*
X97578844Y-124972041D01*
X97280059Y-124871223D01*
X96985742Y-124758772D01*
X96696149Y-124634794D01*
X96411538Y-124499395D01*
X96132164Y-124352681D01*
X95858283Y-124194757D01*
X95590154Y-124025729D01*
X95328032Y-123845703D01*
X95072174Y-123654786D01*
X94822836Y-123453082D01*
X94580275Y-123240698D01*
X94560531Y-123222481D01*
X94521866Y-123185893D01*
X94476969Y-123142529D01*
X94427374Y-123093935D01*
X94374614Y-123041654D01*
X94320224Y-122987232D01*
X94265738Y-122932214D01*
X94212690Y-122878144D01*
X94162613Y-122826566D01*
X94117042Y-122779027D01*
X94077512Y-122737069D01*
X94045554Y-122702239D01*
X93973666Y-122621265D01*
X93765930Y-122374714D01*
X93568972Y-122121532D01*
X93382883Y-121861889D01*
X93207753Y-121595954D01*
X93043671Y-121323895D01*
X92890729Y-121045882D01*
X92749016Y-120762085D01*
X92618622Y-120472671D01*
X92499638Y-120177811D01*
X92392154Y-119877673D01*
X92296259Y-119572427D01*
X92212045Y-119262241D01*
X92160779Y-119044671D01*
X92111243Y-118801622D01*
X92069188Y-118555148D01*
X92034324Y-118303351D01*
X92006361Y-118044334D01*
X91985009Y-117776200D01*
X91984429Y-117766876D01*
X91982407Y-117723691D01*
X91980704Y-117670053D01*
X91979319Y-117607741D01*
X91978252Y-117538534D01*
X91977504Y-117464212D01*
X91977074Y-117386552D01*
X91976978Y-117319000D01*
X92059325Y-117319000D01*
X92059326Y-117322113D01*
X92059405Y-117411518D01*
X92059681Y-117490022D01*
X92060221Y-117559367D01*
X92061093Y-117621296D01*
X92062366Y-117677551D01*
X92064106Y-117729873D01*
X92066382Y-117780004D01*
X92069263Y-117829687D01*
X92072815Y-117880664D01*
X92077107Y-117934676D01*
X92082207Y-117993465D01*
X92088183Y-118058775D01*
X92094942Y-118128086D01*
X92133342Y-118442210D01*
X92184244Y-118754316D01*
X92247572Y-119064092D01*
X92323252Y-119371227D01*
X92411208Y-119675408D01*
X92511364Y-119976325D01*
X92623646Y-120273666D01*
X92654604Y-120349832D01*
X92781527Y-120640957D01*
X92919705Y-120926255D01*
X93069009Y-121205511D01*
X93229306Y-121478510D01*
X93400468Y-121745036D01*
X93582363Y-122004875D01*
X93774860Y-122257812D01*
X93977831Y-122503632D01*
X94033285Y-122567381D01*
X94214898Y-122766393D01*
X94406369Y-122962227D01*
X94605548Y-123152804D01*
X94810283Y-123336043D01*
X95018425Y-123509866D01*
X95225753Y-123671227D01*
X95481575Y-123855725D01*
X95744181Y-124029672D01*
X96013194Y-124192898D01*
X96288234Y-124345233D01*
X96568923Y-124486506D01*
X96854884Y-124616547D01*
X97145737Y-124735185D01*
X97441105Y-124842249D01*
X97740608Y-124937569D01*
X98043869Y-125020975D01*
X98350510Y-125092295D01*
X98660150Y-125151359D01*
X98788308Y-125172277D01*
X98917097Y-125191300D01*
X99044545Y-125207923D01*
X99174159Y-125222570D01*
X99309442Y-125235665D01*
X99453900Y-125247635D01*
X99482154Y-125249346D01*
X99521856Y-125251043D01*
X99570995Y-125252675D01*
X99627990Y-125254221D01*
X99691260Y-125255661D01*
X99759224Y-125256976D01*
X99830302Y-125258146D01*
X99902911Y-125259150D01*
X99975472Y-125259970D01*
X100046404Y-125260584D01*
X100114126Y-125260975D01*
X100177056Y-125261121D01*
X100233615Y-125261002D01*
X100282221Y-125260600D01*
X100321293Y-125259894D01*
X100349250Y-125258864D01*
X100367534Y-125257847D01*
X100617502Y-125240810D01*
X100858141Y-125218267D01*
X101091585Y-125189863D01*
X101319972Y-125155244D01*
X101545439Y-125114055D01*
X101770120Y-125065941D01*
X101996154Y-125010549D01*
X102225675Y-124947524D01*
X102261182Y-124937175D01*
X102541777Y-124848404D01*
X102821679Y-124747598D01*
X103099715Y-124635331D01*
X103374710Y-124512179D01*
X103645489Y-124378718D01*
X103910879Y-124235523D01*
X104169703Y-124083170D01*
X104420788Y-123922233D01*
X104662960Y-123753290D01*
X104735573Y-123699950D01*
X104871255Y-123597330D01*
X105000044Y-123495628D01*
X105124215Y-123392898D01*
X105246037Y-123287192D01*
X105367782Y-123176562D01*
X105491722Y-123059062D01*
X105620129Y-122932744D01*
X105651582Y-122901215D01*
X105725256Y-122826568D01*
X105791968Y-122757647D01*
X105853524Y-122692500D01*
X105911728Y-122629173D01*
X105968385Y-122565716D01*
X106025300Y-122500174D01*
X106084278Y-122430595D01*
X106277696Y-122190813D01*
X106466550Y-121937007D01*
X106644781Y-121676562D01*
X106812242Y-121409819D01*
X106968789Y-121137118D01*
X107114278Y-120858799D01*
X107248565Y-120575201D01*
X107371503Y-120286665D01*
X107482949Y-119993531D01*
X107582758Y-119696138D01*
X107670786Y-119394827D01*
X107746887Y-119089937D01*
X107810918Y-118781810D01*
X107862733Y-118470784D01*
X107902188Y-118157200D01*
X107904298Y-118137131D01*
X107911699Y-118064971D01*
X107918037Y-117999371D01*
X107923391Y-117938581D01*
X107927841Y-117880849D01*
X107931468Y-117824424D01*
X107934351Y-117767557D01*
X107936571Y-117708495D01*
X107938208Y-117645488D01*
X107939342Y-117576786D01*
X107940053Y-117500638D01*
X107940420Y-117415293D01*
X107940525Y-117319000D01*
X107940519Y-117292791D01*
X107940353Y-117199515D01*
X107939904Y-117116731D01*
X107939091Y-117042689D01*
X107937834Y-116975638D01*
X107936053Y-116913826D01*
X107933668Y-116855504D01*
X107930599Y-116798920D01*
X107926765Y-116742324D01*
X107922088Y-116683965D01*
X107916486Y-116622091D01*
X107909879Y-116554953D01*
X107902188Y-116480800D01*
X107884051Y-116324012D01*
X107838428Y-116011856D01*
X107780522Y-115702415D01*
X107710485Y-115396035D01*
X107628466Y-115093058D01*
X107534617Y-114793830D01*
X107429088Y-114498694D01*
X107312030Y-114207995D01*
X107183592Y-113922076D01*
X107043927Y-113641283D01*
X106893183Y-113365959D01*
X106731512Y-113096449D01*
X106559065Y-112833096D01*
X106375992Y-112576244D01*
X106182443Y-112326239D01*
X105978569Y-112083425D01*
X105915583Y-112012463D01*
X105786553Y-111873023D01*
X105649530Y-111732072D01*
X105506920Y-111591948D01*
X105361129Y-111454990D01*
X105214563Y-111323537D01*
X105069628Y-111199928D01*
X104934595Y-111090434D01*
X104685244Y-110900861D01*
X104428188Y-110721134D01*
X104163952Y-110551527D01*
X103893060Y-110392317D01*
X103616037Y-110243778D01*
X103333407Y-110106187D01*
X103045696Y-109979819D01*
X102753427Y-109864948D01*
X102457127Y-109761852D01*
X102157319Y-109670805D01*
X102108124Y-109657104D01*
X101854271Y-109591631D01*
X101600144Y-109535002D01*
X101343686Y-109486858D01*
X101082838Y-109446842D01*
X100815546Y-109414598D01*
X100539750Y-109389767D01*
X100524517Y-109388689D01*
X100469671Y-109385670D01*
X100404480Y-109383128D01*
X100330716Y-109381062D01*
X100250149Y-109379473D01*
X100164553Y-109378359D01*
X100075700Y-109377722D01*
X99985361Y-109377561D01*
X99895309Y-109377876D01*
X99807315Y-109378667D01*
X99723153Y-109379935D01*
X99644593Y-109381679D01*
X99573408Y-109383898D01*
X99511370Y-109386595D01*
X99460250Y-109389767D01*
X99351396Y-109398641D01*
X99039791Y-109431344D01*
X98734766Y-109474447D01*
X98435573Y-109528108D01*
X98141467Y-109592486D01*
X97851701Y-109667738D01*
X97565528Y-109754024D01*
X97282200Y-109851502D01*
X97201175Y-109881617D01*
X96910851Y-109997853D01*
X96625213Y-110125305D01*
X96344925Y-110263601D01*
X96070652Y-110412367D01*
X95803058Y-110571232D01*
X95542808Y-110739822D01*
X95290568Y-110917764D01*
X95047000Y-111104687D01*
X95023481Y-111123582D01*
X94779154Y-111328637D01*
X94543696Y-111542539D01*
X94317389Y-111764990D01*
X94100514Y-111995690D01*
X93893354Y-112234341D01*
X93696191Y-112480644D01*
X93509306Y-112734300D01*
X93479703Y-112776511D01*
X93304321Y-113039379D01*
X93139804Y-113308610D01*
X92986296Y-113583815D01*
X92843939Y-113864608D01*
X92712876Y-114150601D01*
X92593252Y-114441406D01*
X92485209Y-114736635D01*
X92388891Y-115035902D01*
X92304441Y-115338818D01*
X92232001Y-115644996D01*
X92171716Y-115954048D01*
X92123729Y-116265587D01*
X92088183Y-116579225D01*
X92087974Y-116581471D01*
X92082028Y-116646541D01*
X92076955Y-116705147D01*
X92072688Y-116759033D01*
X92069159Y-116809940D01*
X92066299Y-116859610D01*
X92064041Y-116909785D01*
X92062317Y-116962208D01*
X92061059Y-117018620D01*
X92060199Y-117080763D01*
X92059668Y-117150379D01*
X92059400Y-117229211D01*
X92059325Y-117319000D01*
X91976978Y-117319000D01*
X91976961Y-117307334D01*
X91977167Y-117228338D01*
X91977690Y-117151341D01*
X91978531Y-117078124D01*
X91979689Y-117010464D01*
X91981165Y-116950142D01*
X91982958Y-116898936D01*
X91985069Y-116858625D01*
X91986937Y-116830896D01*
X92001352Y-116644570D01*
X92018561Y-116466803D01*
X92038963Y-116294168D01*
X92062958Y-116123235D01*
X92090945Y-115950575D01*
X92144055Y-115672246D01*
X92215173Y-115363229D01*
X92298409Y-115057557D01*
X92393601Y-114755608D01*
X92500587Y-114457756D01*
X92619206Y-114164380D01*
X92749296Y-113875854D01*
X92890694Y-113592556D01*
X93043239Y-113314861D01*
X93206770Y-113043146D01*
X93381124Y-112777787D01*
X93566140Y-112519161D01*
X93699645Y-112345326D01*
X93898476Y-112103742D01*
X94107223Y-111869380D01*
X94325199Y-111642919D01*
X94551714Y-111425041D01*
X94786079Y-111216428D01*
X95027604Y-111017759D01*
X95275600Y-110829716D01*
X95531301Y-110651196D01*
X95799763Y-110478912D01*
X96074035Y-110317816D01*
X96353823Y-110168017D01*
X96638834Y-110029622D01*
X96928773Y-109902741D01*
X97223346Y-109787480D01*
X97522259Y-109683950D01*
X97825218Y-109592257D01*
X98131928Y-109512510D01*
X98442096Y-109444818D01*
X98755426Y-109389289D01*
X99071626Y-109346031D01*
X99390400Y-109315151D01*
X99401091Y-109314337D01*
X99609371Y-109301774D01*
X99825009Y-109294735D01*
X100044240Y-109293202D01*
X100263293Y-109297156D01*
X100478403Y-109306578D01*
X100685800Y-109321451D01*
X100970225Y-109351191D01*
X101287412Y-109396345D01*
X101601890Y-109453900D01*
X101913603Y-109523847D01*
X102222500Y-109606174D01*
X102413889Y-109663863D01*
X102715295Y-109765447D01*
X103011939Y-109878720D01*
X103303531Y-110003520D01*
X103589784Y-110139685D01*
X103870406Y-110287054D01*
X104145110Y-110445464D01*
X104413605Y-110614753D01*
X104675604Y-110794760D01*
X104930816Y-110985321D01*
X105178953Y-111186276D01*
X105419725Y-111397462D01*
X105433451Y-111410110D01*
X105468938Y-111443568D01*
X105510903Y-111483928D01*
X105557778Y-111529624D01*
X105607996Y-111579090D01*
X105659992Y-111630757D01*
X105712197Y-111683061D01*
X105763046Y-111734433D01*
X105810971Y-111783307D01*
X105854406Y-111828116D01*
X105891783Y-111867295D01*
X105921538Y-111899275D01*
X106073401Y-112070470D01*
X106277389Y-112316661D01*
X106471068Y-112570084D01*
X106654269Y-112830455D01*
X106826826Y-113097485D01*
X106988571Y-113370888D01*
X107139335Y-113650376D01*
X107278952Y-113935663D01*
X107407255Y-114226463D01*
X107524074Y-114522487D01*
X107629244Y-114823450D01*
X107696955Y-115040728D01*
X107780887Y-115346317D01*
X107852488Y-115654217D01*
X107911771Y-115964052D01*
X107958748Y-116275445D01*
X107993431Y-116588019D01*
X108015831Y-116901399D01*
X108025961Y-117215206D01*
X108025257Y-117319000D01*
X108023833Y-117529065D01*
X108009459Y-117842599D01*
G37*
X108009459Y-117842599D02*
X107982850Y-118155431D01*
X107944020Y-118467185D01*
X107892978Y-118777484D01*
X107829739Y-119085952D01*
X107754313Y-119392211D01*
X107666713Y-119695886D01*
X107566951Y-119996599D01*
X107455038Y-120293975D01*
X107413377Y-120396277D01*
X107286847Y-120684734D01*
X107149059Y-120968127D01*
X107000368Y-121245867D01*
X106841129Y-121517365D01*
X106671698Y-121782034D01*
X106492429Y-122039284D01*
X106303678Y-122288527D01*
X106105801Y-122529175D01*
X106037893Y-122607375D01*
X105848541Y-122815129D01*
X105650677Y-123017964D01*
X105446302Y-123213938D01*
X105237418Y-123401109D01*
X105026025Y-123577532D01*
X104971470Y-123621000D01*
X104717856Y-123813261D01*
X104457715Y-123994714D01*
X104191331Y-124165253D01*
X103918985Y-124324773D01*
X103640962Y-124473168D01*
X103357543Y-124610333D01*
X103069013Y-124736162D01*
X102775655Y-124850550D01*
X102477751Y-124953392D01*
X102175584Y-125044583D01*
X101869438Y-125124016D01*
X101559596Y-125191587D01*
X101246341Y-125247190D01*
X100929955Y-125290720D01*
X100610722Y-125322071D01*
X100288925Y-125341138D01*
X100284906Y-125341293D01*
X100245681Y-125342385D01*
X100196292Y-125343196D01*
X100138997Y-125343734D01*
X100076049Y-125344006D01*
X100009705Y-125344020D01*
X99942219Y-125343782D01*
X99875849Y-125343301D01*
X99812849Y-125342583D01*
X99755474Y-125341637D01*
X99705981Y-125340469D01*
X99666625Y-125339087D01*
X99451004Y-125326728D01*
X99130802Y-125297931D01*
X98813528Y-125256866D01*
X98499438Y-125203638D01*
X98188790Y-125138355D01*
X97881840Y-125061120D01*
X97578844Y-124972041D01*
X97280059Y-124871223D01*
X96985742Y-124758772D01*
X96696149Y-124634794D01*
X96411538Y-124499395D01*
X96132164Y-124352681D01*
X95858283Y-124194757D01*
X95590154Y-124025729D01*
X95328032Y-123845703D01*
X95072174Y-123654786D01*
X94822836Y-123453082D01*
X94580275Y-123240698D01*
X94560531Y-123222481D01*
X94521866Y-123185893D01*
X94476969Y-123142529D01*
X94427374Y-123093935D01*
X94374614Y-123041654D01*
X94320224Y-122987232D01*
X94265738Y-122932214D01*
X94212690Y-122878144D01*
X94162613Y-122826566D01*
X94117042Y-122779027D01*
X94077512Y-122737069D01*
X94045554Y-122702239D01*
X93973666Y-122621265D01*
X93765930Y-122374714D01*
X93568972Y-122121532D01*
X93382883Y-121861889D01*
X93207753Y-121595954D01*
X93043671Y-121323895D01*
X92890729Y-121045882D01*
X92749016Y-120762085D01*
X92618622Y-120472671D01*
X92499638Y-120177811D01*
X92392154Y-119877673D01*
X92296259Y-119572427D01*
X92212045Y-119262241D01*
X92160779Y-119044671D01*
X92111243Y-118801622D01*
X92069188Y-118555148D01*
X92034324Y-118303351D01*
X92006361Y-118044334D01*
X91985009Y-117776200D01*
X91984429Y-117766876D01*
X91982407Y-117723691D01*
X91980704Y-117670053D01*
X91979319Y-117607741D01*
X91978252Y-117538534D01*
X91977504Y-117464212D01*
X91977074Y-117386552D01*
X91976978Y-117319000D01*
X92059325Y-117319000D01*
X92059326Y-117322113D01*
X92059405Y-117411518D01*
X92059681Y-117490022D01*
X92060221Y-117559367D01*
X92061093Y-117621296D01*
X92062366Y-117677551D01*
X92064106Y-117729873D01*
X92066382Y-117780004D01*
X92069263Y-117829687D01*
X92072815Y-117880664D01*
X92077107Y-117934676D01*
X92082207Y-117993465D01*
X92088183Y-118058775D01*
X92094942Y-118128086D01*
X92133342Y-118442210D01*
X92184244Y-118754316D01*
X92247572Y-119064092D01*
X92323252Y-119371227D01*
X92411208Y-119675408D01*
X92511364Y-119976325D01*
X92623646Y-120273666D01*
X92654604Y-120349832D01*
X92781527Y-120640957D01*
X92919705Y-120926255D01*
X93069009Y-121205511D01*
X93229306Y-121478510D01*
X93400468Y-121745036D01*
X93582363Y-122004875D01*
X93774860Y-122257812D01*
X93977831Y-122503632D01*
X94033285Y-122567381D01*
X94214898Y-122766393D01*
X94406369Y-122962227D01*
X94605548Y-123152804D01*
X94810283Y-123336043D01*
X95018425Y-123509866D01*
X95225753Y-123671227D01*
X95481575Y-123855725D01*
X95744181Y-124029672D01*
X96013194Y-124192898D01*
X96288234Y-124345233D01*
X96568923Y-124486506D01*
X96854884Y-124616547D01*
X97145737Y-124735185D01*
X97441105Y-124842249D01*
X97740608Y-124937569D01*
X98043869Y-125020975D01*
X98350510Y-125092295D01*
X98660150Y-125151359D01*
X98788308Y-125172277D01*
X98917097Y-125191300D01*
X99044545Y-125207923D01*
X99174159Y-125222570D01*
X99309442Y-125235665D01*
X99453900Y-125247635D01*
X99482154Y-125249346D01*
X99521856Y-125251043D01*
X99570995Y-125252675D01*
X99627990Y-125254221D01*
X99691260Y-125255661D01*
X99759224Y-125256976D01*
X99830302Y-125258146D01*
X99902911Y-125259150D01*
X99975472Y-125259970D01*
X100046404Y-125260584D01*
X100114126Y-125260975D01*
X100177056Y-125261121D01*
X100233615Y-125261002D01*
X100282221Y-125260600D01*
X100321293Y-125259894D01*
X100349250Y-125258864D01*
X100367534Y-125257847D01*
X100617502Y-125240810D01*
X100858141Y-125218267D01*
X101091585Y-125189863D01*
X101319972Y-125155244D01*
X101545439Y-125114055D01*
X101770120Y-125065941D01*
X101996154Y-125010549D01*
X102225675Y-124947524D01*
X102261182Y-124937175D01*
X102541777Y-124848404D01*
X102821679Y-124747598D01*
X103099715Y-124635331D01*
X103374710Y-124512179D01*
X103645489Y-124378718D01*
X103910879Y-124235523D01*
X104169703Y-124083170D01*
X104420788Y-123922233D01*
X104662960Y-123753290D01*
X104735573Y-123699950D01*
X104871255Y-123597330D01*
X105000044Y-123495628D01*
X105124215Y-123392898D01*
X105246037Y-123287192D01*
X105367782Y-123176562D01*
X105491722Y-123059062D01*
X105620129Y-122932744D01*
X105651582Y-122901215D01*
X105725256Y-122826568D01*
X105791968Y-122757647D01*
X105853524Y-122692500D01*
X105911728Y-122629173D01*
X105968385Y-122565716D01*
X106025300Y-122500174D01*
X106084278Y-122430595D01*
X106277696Y-122190813D01*
X106466550Y-121937007D01*
X106644781Y-121676562D01*
X106812242Y-121409819D01*
X106968789Y-121137118D01*
X107114278Y-120858799D01*
X107248565Y-120575201D01*
X107371503Y-120286665D01*
X107482949Y-119993531D01*
X107582758Y-119696138D01*
X107670786Y-119394827D01*
X107746887Y-119089937D01*
X107810918Y-118781810D01*
X107862733Y-118470784D01*
X107902188Y-118157200D01*
X107904298Y-118137131D01*
X107911699Y-118064971D01*
X107918037Y-117999371D01*
X107923391Y-117938581D01*
X107927841Y-117880849D01*
X107931468Y-117824424D01*
X107934351Y-117767557D01*
X107936571Y-117708495D01*
X107938208Y-117645488D01*
X107939342Y-117576786D01*
X107940053Y-117500638D01*
X107940420Y-117415293D01*
X107940525Y-117319000D01*
X107940519Y-117292791D01*
X107940353Y-117199515D01*
X107939904Y-117116731D01*
X107939091Y-117042689D01*
X107937834Y-116975638D01*
X107936053Y-116913826D01*
X107933668Y-116855504D01*
X107930599Y-116798920D01*
X107926765Y-116742324D01*
X107922088Y-116683965D01*
X107916486Y-116622091D01*
X107909879Y-116554953D01*
X107902188Y-116480800D01*
X107884051Y-116324012D01*
X107838428Y-116011856D01*
X107780522Y-115702415D01*
X107710485Y-115396035D01*
X107628466Y-115093058D01*
X107534617Y-114793830D01*
X107429088Y-114498694D01*
X107312030Y-114207995D01*
X107183592Y-113922076D01*
X107043927Y-113641283D01*
X106893183Y-113365959D01*
X106731512Y-113096449D01*
X106559065Y-112833096D01*
X106375992Y-112576244D01*
X106182443Y-112326239D01*
X105978569Y-112083425D01*
X105915583Y-112012463D01*
X105786553Y-111873023D01*
X105649530Y-111732072D01*
X105506920Y-111591948D01*
X105361129Y-111454990D01*
X105214563Y-111323537D01*
X105069628Y-111199928D01*
X104934595Y-111090434D01*
X104685244Y-110900861D01*
X104428188Y-110721134D01*
X104163952Y-110551527D01*
X103893060Y-110392317D01*
X103616037Y-110243778D01*
X103333407Y-110106187D01*
X103045696Y-109979819D01*
X102753427Y-109864948D01*
X102457127Y-109761852D01*
X102157319Y-109670805D01*
X102108124Y-109657104D01*
X101854271Y-109591631D01*
X101600144Y-109535002D01*
X101343686Y-109486858D01*
X101082838Y-109446842D01*
X100815546Y-109414598D01*
X100539750Y-109389767D01*
X100524517Y-109388689D01*
X100469671Y-109385670D01*
X100404480Y-109383128D01*
X100330716Y-109381062D01*
X100250149Y-109379473D01*
X100164553Y-109378359D01*
X100075700Y-109377722D01*
X99985361Y-109377561D01*
X99895309Y-109377876D01*
X99807315Y-109378667D01*
X99723153Y-109379935D01*
X99644593Y-109381679D01*
X99573408Y-109383898D01*
X99511370Y-109386595D01*
X99460250Y-109389767D01*
X99351396Y-109398641D01*
X99039791Y-109431344D01*
X98734766Y-109474447D01*
X98435573Y-109528108D01*
X98141467Y-109592486D01*
X97851701Y-109667738D01*
X97565528Y-109754024D01*
X97282200Y-109851502D01*
X97201175Y-109881617D01*
X96910851Y-109997853D01*
X96625213Y-110125305D01*
X96344925Y-110263601D01*
X96070652Y-110412367D01*
X95803058Y-110571232D01*
X95542808Y-110739822D01*
X95290568Y-110917764D01*
X95047000Y-111104687D01*
X95023481Y-111123582D01*
X94779154Y-111328637D01*
X94543696Y-111542539D01*
X94317389Y-111764990D01*
X94100514Y-111995690D01*
X93893354Y-112234341D01*
X93696191Y-112480644D01*
X93509306Y-112734300D01*
X93479703Y-112776511D01*
X93304321Y-113039379D01*
X93139804Y-113308610D01*
X92986296Y-113583815D01*
X92843939Y-113864608D01*
X92712876Y-114150601D01*
X92593252Y-114441406D01*
X92485209Y-114736635D01*
X92388891Y-115035902D01*
X92304441Y-115338818D01*
X92232001Y-115644996D01*
X92171716Y-115954048D01*
X92123729Y-116265587D01*
X92088183Y-116579225D01*
X92087974Y-116581471D01*
X92082028Y-116646541D01*
X92076955Y-116705147D01*
X92072688Y-116759033D01*
X92069159Y-116809940D01*
X92066299Y-116859610D01*
X92064041Y-116909785D01*
X92062317Y-116962208D01*
X92061059Y-117018620D01*
X92060199Y-117080763D01*
X92059668Y-117150379D01*
X92059400Y-117229211D01*
X92059325Y-117319000D01*
X91976978Y-117319000D01*
X91976961Y-117307334D01*
X91977167Y-117228338D01*
X91977690Y-117151341D01*
X91978531Y-117078124D01*
X91979689Y-117010464D01*
X91981165Y-116950142D01*
X91982958Y-116898936D01*
X91985069Y-116858625D01*
X91986937Y-116830896D01*
X92001352Y-116644570D01*
X92018561Y-116466803D01*
X92038963Y-116294168D01*
X92062958Y-116123235D01*
X92090945Y-115950575D01*
X92144055Y-115672246D01*
X92215173Y-115363229D01*
X92298409Y-115057557D01*
X92393601Y-114755608D01*
X92500587Y-114457756D01*
X92619206Y-114164380D01*
X92749296Y-113875854D01*
X92890694Y-113592556D01*
X93043239Y-113314861D01*
X93206770Y-113043146D01*
X93381124Y-112777787D01*
X93566140Y-112519161D01*
X93699645Y-112345326D01*
X93898476Y-112103742D01*
X94107223Y-111869380D01*
X94325199Y-111642919D01*
X94551714Y-111425041D01*
X94786079Y-111216428D01*
X95027604Y-111017759D01*
X95275600Y-110829716D01*
X95531301Y-110651196D01*
X95799763Y-110478912D01*
X96074035Y-110317816D01*
X96353823Y-110168017D01*
X96638834Y-110029622D01*
X96928773Y-109902741D01*
X97223346Y-109787480D01*
X97522259Y-109683950D01*
X97825218Y-109592257D01*
X98131928Y-109512510D01*
X98442096Y-109444818D01*
X98755426Y-109389289D01*
X99071626Y-109346031D01*
X99390400Y-109315151D01*
X99401091Y-109314337D01*
X99609371Y-109301774D01*
X99825009Y-109294735D01*
X100044240Y-109293202D01*
X100263293Y-109297156D01*
X100478403Y-109306578D01*
X100685800Y-109321451D01*
X100970225Y-109351191D01*
X101287412Y-109396345D01*
X101601890Y-109453900D01*
X101913603Y-109523847D01*
X102222500Y-109606174D01*
X102413889Y-109663863D01*
X102715295Y-109765447D01*
X103011939Y-109878720D01*
X103303531Y-110003520D01*
X103589784Y-110139685D01*
X103870406Y-110287054D01*
X104145110Y-110445464D01*
X104413605Y-110614753D01*
X104675604Y-110794760D01*
X104930816Y-110985321D01*
X105178953Y-111186276D01*
X105419725Y-111397462D01*
X105433451Y-111410110D01*
X105468938Y-111443568D01*
X105510903Y-111483928D01*
X105557778Y-111529624D01*
X105607996Y-111579090D01*
X105659992Y-111630757D01*
X105712197Y-111683061D01*
X105763046Y-111734433D01*
X105810971Y-111783307D01*
X105854406Y-111828116D01*
X105891783Y-111867295D01*
X105921538Y-111899275D01*
X106073401Y-112070470D01*
X106277389Y-112316661D01*
X106471068Y-112570084D01*
X106654269Y-112830455D01*
X106826826Y-113097485D01*
X106988571Y-113370888D01*
X107139335Y-113650376D01*
X107278952Y-113935663D01*
X107407255Y-114226463D01*
X107524074Y-114522487D01*
X107629244Y-114823450D01*
X107696955Y-115040728D01*
X107780887Y-115346317D01*
X107852488Y-115654217D01*
X107911771Y-115964052D01*
X107958748Y-116275445D01*
X107993431Y-116588019D01*
X108015831Y-116901399D01*
X108025961Y-117215206D01*
X108025257Y-117319000D01*
X108023833Y-117529065D01*
X108009459Y-117842599D01*
G36*
X105022843Y-120153841D02*
G01*
X105022814Y-120326981D01*
X105022765Y-120496526D01*
X105022696Y-120662040D01*
X105022608Y-120823092D01*
X105022502Y-120979247D01*
X105022378Y-121130072D01*
X105022238Y-121275133D01*
X105022081Y-121413997D01*
X105021909Y-121546230D01*
X105021722Y-121671399D01*
X105021522Y-121789070D01*
X105021308Y-121898811D01*
X105021082Y-122000186D01*
X105020845Y-122092763D01*
X105020597Y-122176108D01*
X105020338Y-122249787D01*
X105020070Y-122313368D01*
X105019794Y-122366417D01*
X105019510Y-122408499D01*
X105019218Y-122439182D01*
X105018921Y-122458033D01*
X105018617Y-122464616D01*
X105018563Y-122464649D01*
X105011071Y-122465218D01*
X104991750Y-122465764D01*
X104961428Y-122466281D01*
X104920930Y-122466766D01*
X104871080Y-122467213D01*
X104812705Y-122467617D01*
X104746630Y-122467972D01*
X104673680Y-122468275D01*
X104594681Y-122468519D01*
X104510458Y-122468699D01*
X104421836Y-122468811D01*
X104329642Y-122468850D01*
X103644900Y-122468850D01*
X103644900Y-117960350D01*
X104032250Y-117960350D01*
X104032250Y-122056100D01*
X104629150Y-122056100D01*
X104629150Y-117960350D01*
X104032250Y-117960350D01*
X103644900Y-117960350D01*
X103644900Y-117553950D01*
X105022850Y-117553950D01*
X105022850Y-120007166D01*
X105022843Y-120153841D01*
G37*
X105022843Y-120153841D02*
X105022814Y-120326981D01*
X105022765Y-120496526D01*
X105022696Y-120662040D01*
X105022608Y-120823092D01*
X105022502Y-120979247D01*
X105022378Y-121130072D01*
X105022238Y-121275133D01*
X105022081Y-121413997D01*
X105021909Y-121546230D01*
X105021722Y-121671399D01*
X105021522Y-121789070D01*
X105021308Y-121898811D01*
X105021082Y-122000186D01*
X105020845Y-122092763D01*
X105020597Y-122176108D01*
X105020338Y-122249787D01*
X105020070Y-122313368D01*
X105019794Y-122366417D01*
X105019510Y-122408499D01*
X105019218Y-122439182D01*
X105018921Y-122458033D01*
X105018617Y-122464616D01*
X105018563Y-122464649D01*
X105011071Y-122465218D01*
X104991750Y-122465764D01*
X104961428Y-122466281D01*
X104920930Y-122466766D01*
X104871080Y-122467213D01*
X104812705Y-122467617D01*
X104746630Y-122467972D01*
X104673680Y-122468275D01*
X104594681Y-122468519D01*
X104510458Y-122468699D01*
X104421836Y-122468811D01*
X104329642Y-122468850D01*
X103644900Y-122468850D01*
X103644900Y-117960350D01*
X104032250Y-117960350D01*
X104032250Y-122056100D01*
X104629150Y-122056100D01*
X104629150Y-117960350D01*
X104032250Y-117960350D01*
X103644900Y-117960350D01*
X103644900Y-117553950D01*
X105022850Y-117553950D01*
X105022850Y-120007166D01*
X105022843Y-120153841D01*
G36*
X105017304Y-114541682D02*
G01*
X105017260Y-114710913D01*
X105017216Y-114877575D01*
X105017173Y-115041162D01*
X105017130Y-115201168D01*
X105017088Y-115357086D01*
X105017047Y-115508410D01*
X105017007Y-115654632D01*
X105016968Y-115795247D01*
X105016930Y-115929748D01*
X105016894Y-116057627D01*
X105016859Y-116178379D01*
X105016826Y-116291497D01*
X105016795Y-116396474D01*
X105016766Y-116492804D01*
X105016738Y-116579980D01*
X105016714Y-116657496D01*
X105016691Y-116724845D01*
X105016671Y-116781520D01*
X105016654Y-116827014D01*
X105016640Y-116860822D01*
X105016628Y-116882437D01*
X105016500Y-117084050D01*
X104629150Y-117084050D01*
X104629150Y-116677650D01*
X104032250Y-116677650D01*
X104032250Y-117084050D01*
X103644900Y-117084050D01*
X103644900Y-112581900D01*
X104032230Y-112581900D01*
X104033828Y-114491662D01*
X104035425Y-116401425D01*
X104332288Y-116403075D01*
X104629150Y-116404725D01*
X104629150Y-112581900D01*
X104032230Y-112581900D01*
X103644900Y-112581900D01*
X103644900Y-112171872D01*
X104331405Y-112172098D01*
X105017910Y-112172325D01*
X105017805Y-112581900D01*
X105017333Y-114426575D01*
X105017304Y-114541682D01*
G37*
X105017304Y-114541682D02*
X105017260Y-114710913D01*
X105017216Y-114877575D01*
X105017173Y-115041162D01*
X105017130Y-115201168D01*
X105017088Y-115357086D01*
X105017047Y-115508410D01*
X105017007Y-115654632D01*
X105016968Y-115795247D01*
X105016930Y-115929748D01*
X105016894Y-116057627D01*
X105016859Y-116178379D01*
X105016826Y-116291497D01*
X105016795Y-116396474D01*
X105016766Y-116492804D01*
X105016738Y-116579980D01*
X105016714Y-116657496D01*
X105016691Y-116724845D01*
X105016671Y-116781520D01*
X105016654Y-116827014D01*
X105016640Y-116860822D01*
X105016628Y-116882437D01*
X105016500Y-117084050D01*
X104629150Y-117084050D01*
X104629150Y-116677650D01*
X104032250Y-116677650D01*
X104032250Y-117084050D01*
X103644900Y-117084050D01*
X103644900Y-112581900D01*
X104032230Y-112581900D01*
X104033828Y-114491662D01*
X104035425Y-116401425D01*
X104332288Y-116403075D01*
X104629150Y-116404725D01*
X104629150Y-112581900D01*
X104032230Y-112581900D01*
X103644900Y-112581900D01*
X103644900Y-112171872D01*
X104331405Y-112172098D01*
X105017910Y-112172325D01*
X105017805Y-112581900D01*
X105017333Y-114426575D01*
X105017304Y-114541682D01*
G36*
X102598738Y-112172098D02*
G01*
X103286125Y-112172325D01*
X103286078Y-112377112D01*
X103286074Y-112390012D01*
X103286060Y-112419914D01*
X103286039Y-112461676D01*
X103286009Y-112514790D01*
X103285971Y-112578748D01*
X103285927Y-112653041D01*
X103285875Y-112737163D01*
X103285817Y-112830605D01*
X103285753Y-112932860D01*
X103285682Y-113043418D01*
X103285606Y-113161774D01*
X103285525Y-113287417D01*
X103285438Y-113419841D01*
X103285347Y-113558538D01*
X103285252Y-113702999D01*
X103285152Y-113852718D01*
X103285049Y-114007185D01*
X103284943Y-114165892D01*
X103284834Y-114328333D01*
X103284721Y-114493999D01*
X103284607Y-114662382D01*
X103284491Y-114832975D01*
X103282950Y-117084050D01*
X102895600Y-117084050D01*
X102895600Y-112581900D01*
X102298700Y-112581900D01*
X102298700Y-117084050D01*
X101911350Y-117084050D01*
X101911350Y-112171872D01*
X102598738Y-112172098D01*
G37*
X102598738Y-112172098D02*
X103286125Y-112172325D01*
X103286078Y-112377112D01*
X103286074Y-112390012D01*
X103286060Y-112419914D01*
X103286039Y-112461676D01*
X103286009Y-112514790D01*
X103285971Y-112578748D01*
X103285927Y-112653041D01*
X103285875Y-112737163D01*
X103285817Y-112830605D01*
X103285753Y-112932860D01*
X103285682Y-113043418D01*
X103285606Y-113161774D01*
X103285525Y-113287417D01*
X103285438Y-113419841D01*
X103285347Y-113558538D01*
X103285252Y-113702999D01*
X103285152Y-113852718D01*
X103285049Y-114007185D01*
X103284943Y-114165892D01*
X103284834Y-114328333D01*
X103284721Y-114493999D01*
X103284607Y-114662382D01*
X103284491Y-114832975D01*
X103282950Y-117084050D01*
X102895600Y-117084050D01*
X102895600Y-112581900D01*
X102298700Y-112581900D01*
X102298700Y-117084050D01*
X101911350Y-117084050D01*
X101911350Y-112171872D01*
X102598738Y-112172098D01*
G36*
X101555767Y-117084050D02*
G01*
X101162050Y-117084050D01*
X101162050Y-116677650D01*
X100565150Y-116677650D01*
X100565150Y-117084050D01*
X100177784Y-117084050D01*
X100179380Y-114628187D01*
X100180709Y-112581900D01*
X100565130Y-112581900D01*
X100566728Y-114491662D01*
X100568325Y-116401425D01*
X100865188Y-116403075D01*
X101162050Y-116404725D01*
X101162050Y-112581900D01*
X100565130Y-112581900D01*
X100180709Y-112581900D01*
X100180975Y-112172325D01*
X101552575Y-112172325D01*
X101552842Y-112581900D01*
X101554171Y-114628187D01*
X101555767Y-117084050D01*
G37*
X101555767Y-117084050D02*
X101162050Y-117084050D01*
X101162050Y-116677650D01*
X100565150Y-116677650D01*
X100565150Y-117084050D01*
X100177784Y-117084050D01*
X100179380Y-114628187D01*
X100180709Y-112581900D01*
X100565130Y-112581900D01*
X100566728Y-114491662D01*
X100568325Y-116401425D01*
X100865188Y-116403075D01*
X101162050Y-116404725D01*
X101162050Y-112581900D01*
X100565130Y-112581900D01*
X100180709Y-112581900D01*
X100180975Y-112172325D01*
X101552575Y-112172325D01*
X101552842Y-112581900D01*
X101554171Y-114628187D01*
X101555767Y-117084050D01*
G36*
X99822200Y-117084050D02*
G01*
X98444250Y-117084050D01*
X98444250Y-116677727D01*
X98937963Y-116676101D01*
X99431675Y-116674475D01*
X99433272Y-114424987D01*
X99434868Y-112175500D01*
X99822200Y-112175500D01*
X99822200Y-117084050D01*
G37*
X99822200Y-117084050D02*
X98444250Y-117084050D01*
X98444250Y-116677727D01*
X98937963Y-116676101D01*
X99431675Y-116674475D01*
X99433272Y-114424987D01*
X99434868Y-112175500D01*
X99822200Y-112175500D01*
X99822200Y-117084050D01*
G36*
X97104400Y-122056100D02*
G01*
X97701300Y-122056100D01*
X97701300Y-117553950D01*
X98088650Y-117553950D01*
X98088650Y-122466127D01*
X97401263Y-122465901D01*
X96713875Y-122465675D01*
X96713923Y-122260887D01*
X96713927Y-122247987D01*
X96713941Y-122218085D01*
X96713962Y-122176323D01*
X96713992Y-122123209D01*
X96714030Y-122059251D01*
X96714074Y-121984958D01*
X96714126Y-121900836D01*
X96714184Y-121807394D01*
X96714248Y-121705139D01*
X96714319Y-121594581D01*
X96714395Y-121476225D01*
X96714476Y-121350582D01*
X96714563Y-121218158D01*
X96714654Y-121079461D01*
X96714749Y-120935000D01*
X96714849Y-120785281D01*
X96714952Y-120630814D01*
X96715058Y-120472107D01*
X96715167Y-120309666D01*
X96715280Y-120144000D01*
X96715394Y-119975617D01*
X96715510Y-119805025D01*
X96717050Y-117553950D01*
X97104400Y-117553950D01*
X97104400Y-122056100D01*
G37*
X97104400Y-122056100D02*
X97701300Y-122056100D01*
X97701300Y-117553950D01*
X98088650Y-117553950D01*
X98088650Y-122466127D01*
X97401263Y-122465901D01*
X96713875Y-122465675D01*
X96713923Y-122260887D01*
X96713927Y-122247987D01*
X96713941Y-122218085D01*
X96713962Y-122176323D01*
X96713992Y-122123209D01*
X96714030Y-122059251D01*
X96714074Y-121984958D01*
X96714126Y-121900836D01*
X96714184Y-121807394D01*
X96714248Y-121705139D01*
X96714319Y-121594581D01*
X96714395Y-121476225D01*
X96714476Y-121350582D01*
X96714563Y-121218158D01*
X96714654Y-121079461D01*
X96714749Y-120935000D01*
X96714849Y-120785281D01*
X96714952Y-120630814D01*
X96715058Y-120472107D01*
X96715167Y-120309666D01*
X96715280Y-120144000D01*
X96715394Y-119975617D01*
X96715510Y-119805025D01*
X96717050Y-117553950D01*
X97104400Y-117553950D01*
X97104400Y-122056100D01*
G36*
X96710684Y-117084050D02*
G01*
X96712280Y-114628187D01*
X96713609Y-112581900D01*
X97104400Y-112581900D01*
X97104400Y-116677650D01*
X97694950Y-116677650D01*
X97694950Y-112581900D01*
X97104400Y-112581900D01*
X96713609Y-112581900D01*
X96713875Y-112172325D01*
X97401263Y-112170709D01*
X98088650Y-112169093D01*
X98088650Y-117084050D01*
X96710684Y-117084050D01*
G37*
X96710684Y-117084050D02*
X96712280Y-114628187D01*
X96713609Y-112581900D01*
X97104400Y-112581900D01*
X97104400Y-116677650D01*
X97694950Y-116677650D01*
X97694950Y-112581900D01*
X97104400Y-112581900D01*
X96713609Y-112581900D01*
X96713875Y-112172325D01*
X97401263Y-112170709D01*
X98088650Y-112169093D01*
X98088650Y-117084050D01*
X96710684Y-117084050D01*
D11*
G04 #@! TO.C,J2*
X92320000Y-27320000D02*
X92320000Y-34700000D01*
X100070000Y-34700000D02*
X100620000Y-35250000D01*
X100620000Y-14900000D02*
X91770000Y-14900000D01*
X91770000Y-35250000D02*
X100620000Y-35250000D01*
X100070000Y-34700000D02*
X100070000Y-15450000D01*
X100865000Y-35500000D02*
X100865000Y-14640000D01*
X91515000Y-35500000D02*
X100865000Y-35500000D01*
X91770000Y-35250000D02*
X92320000Y-34700000D01*
X100620000Y-35250000D02*
X100620000Y-14900000D01*
X92320000Y-34700000D02*
X100070000Y-34700000D01*
X100070000Y-15450000D02*
X92320000Y-15450000D01*
X100865000Y-14640000D02*
X91515000Y-14640000D01*
X91820000Y-27320000D02*
X92300000Y-27320000D01*
X92320000Y-15450000D02*
X91820000Y-14950000D01*
X100070000Y-15450000D02*
X100620000Y-14900000D01*
X92320000Y-15450000D02*
X92320000Y-22800000D01*
X91770000Y-14900000D02*
X91770000Y-35250000D01*
X91515000Y-14640000D02*
X91515000Y-35500000D01*
X92320000Y-22820000D02*
X91810000Y-22820000D01*
G04 #@! TO.C,J4*
X109000000Y-137200000D02*
X103700000Y-137200000D01*
X104280000Y-131780000D02*
X104280000Y-131180000D01*
X109000000Y-131180000D02*
X109000000Y-137200000D01*
X105080000Y-136200000D02*
X105080000Y-137200000D01*
X103700000Y-137200000D02*
X103700000Y-131180000D01*
X108420000Y-131780000D02*
X106820000Y-131780000D01*
X103700000Y-131180000D02*
X109000000Y-131180000D01*
X105330000Y-137200000D02*
X105330000Y-136200000D01*
X107620000Y-136200000D02*
X105080000Y-136200000D01*
X105880000Y-131180000D02*
X105880000Y-131780000D01*
X109290000Y-132210000D02*
X109290000Y-136210000D01*
X107370000Y-135670000D02*
X105330000Y-135670000D01*
X105880000Y-131780000D02*
X104280000Y-131780000D01*
X107370000Y-137200000D02*
X107370000Y-136200000D01*
X106820000Y-131780000D02*
X106820000Y-131180000D01*
X107620000Y-136200000D02*
X107370000Y-135670000D01*
X108420000Y-131180000D02*
X108420000Y-131780000D01*
X107620000Y-137200000D02*
X107620000Y-136200000D01*
X105330000Y-135670000D02*
X105080000Y-136200000D01*
G04 #@! TO.C,R1*
X105810000Y-126490000D02*
X105810000Y-129230000D01*
X99270000Y-129230000D02*
X99270000Y-126490000D01*
X99270000Y-126490000D02*
X105810000Y-126490000D01*
X98500000Y-127860000D02*
X99270000Y-127860000D01*
X105810000Y-129230000D02*
X99270000Y-129230000D01*
X106580000Y-127860000D02*
X105810000Y-127860000D01*
G04 #@! TO.C,R3*
X92380000Y-52790000D02*
X92380000Y-53560000D01*
X93750000Y-53560000D02*
X93750000Y-60100000D01*
X92380000Y-60870000D02*
X92380000Y-60100000D01*
X91010000Y-60100000D02*
X91010000Y-53560000D01*
X91010000Y-53560000D02*
X93750000Y-53560000D01*
X93750000Y-60100000D02*
X91010000Y-60100000D01*
G04 #@! TO.C,R8*
X91010000Y-136210000D02*
X91010000Y-129670000D01*
X92380000Y-128900000D02*
X92380000Y-129670000D01*
X93750000Y-136210000D02*
X91010000Y-136210000D01*
X93750000Y-129670000D02*
X93750000Y-136210000D01*
X91010000Y-129670000D02*
X93750000Y-129670000D01*
X92380000Y-136980000D02*
X92380000Y-136210000D01*
G04 #@! TO.C,C9*
X105160000Y-85030000D02*
G75*
G03*
X105160000Y-85030000I-2620000J0D01*
G01*
G04 #@! TO.C,R6*
X108990000Y-71330000D02*
X108990000Y-77870000D01*
X108990000Y-77870000D02*
X106250000Y-77870000D01*
X107620000Y-78640000D02*
X107620000Y-77870000D01*
X106250000Y-71330000D02*
X108990000Y-71330000D01*
X107620000Y-70560000D02*
X107620000Y-71330000D01*
X106250000Y-77870000D02*
X106250000Y-71330000D01*
G04 #@! TO.C,U1*
X102260000Y-68190000D02*
X102260000Y-78470000D01*
X105260000Y-68130000D02*
X105260000Y-78530000D01*
X105260000Y-78530000D02*
X94760000Y-78530000D01*
X94760000Y-68130000D02*
X105260000Y-68130000D01*
X102260000Y-78470000D02*
X101010000Y-78470000D01*
X94760000Y-78530000D02*
X94760000Y-68130000D01*
X97760000Y-78470000D02*
X97760000Y-68190000D01*
X99010000Y-78470000D02*
X97760000Y-78470000D01*
X97760000Y-68190000D02*
X102260000Y-68190000D01*
X101010000Y-78470000D02*
G75*
G03*
X99010000Y-78470000I-1000000J0D01*
G01*
G04 #@! TO.C,R4*
X108990000Y-60090000D02*
X106250000Y-60090000D01*
X107620000Y-60860000D02*
X107620000Y-60090000D01*
X108990000Y-53550000D02*
X108990000Y-60090000D01*
X106250000Y-60090000D02*
X106250000Y-53550000D01*
X106250000Y-53550000D02*
X108990000Y-53550000D01*
X107620000Y-52780000D02*
X107620000Y-53550000D01*
G04 #@! TO.C,C1*
X105310000Y-30399000D02*
X103289000Y-30399000D01*
X109545000Y-30960000D02*
X107390000Y-30960000D01*
X105310000Y-30880000D02*
X103168000Y-30880000D01*
X107515000Y-28399000D02*
X105185000Y-28399000D01*
X109500000Y-30719000D02*
X107390000Y-30719000D01*
X107612000Y-28439000D02*
X105088000Y-28439000D01*
X109066000Y-29679000D02*
X107390000Y-29679000D01*
X105310000Y-29999000D02*
X103454000Y-29999000D01*
X108957000Y-29519000D02*
X107390000Y-29519000D01*
X107152000Y-28279000D02*
X105548000Y-28279000D01*
X108898000Y-29439000D02*
X107390000Y-29439000D01*
X109572000Y-31200000D02*
X107390000Y-31200000D01*
X108189000Y-34940241D02*
X108189000Y-34310241D01*
X105310000Y-30119000D02*
X103398000Y-30119000D01*
X105310000Y-30439000D02*
X103276000Y-30439000D01*
X105310000Y-30159000D02*
X103380000Y-30159000D01*
X105310000Y-31080000D02*
X103139000Y-31080000D01*
X105310000Y-29919000D02*
X103494000Y-29919000D01*
X109580000Y-31360000D02*
X103120000Y-31360000D01*
X109580000Y-31400000D02*
X103120000Y-31400000D01*
X109551000Y-31000000D02*
X107390000Y-31000000D01*
X108730000Y-29239000D02*
X107390000Y-29239000D01*
X109525000Y-30840000D02*
X107390000Y-30840000D01*
X109577000Y-31280000D02*
X103123000Y-31280000D01*
X109574000Y-31240000D02*
X103126000Y-31240000D01*
X109561000Y-31080000D02*
X107390000Y-31080000D01*
X108294000Y-28839000D02*
X104406000Y-28839000D01*
X109568000Y-31160000D02*
X107390000Y-31160000D01*
X105310000Y-30800000D02*
X103183000Y-30800000D01*
X109226000Y-29959000D02*
X107390000Y-29959000D01*
X105310000Y-29959000D02*
X103474000Y-29959000D01*
X105310000Y-29479000D02*
X103772000Y-29479000D01*
X108615000Y-29119000D02*
X104085000Y-29119000D01*
X108532000Y-29039000D02*
X104168000Y-29039000D01*
X105310000Y-30719000D02*
X103200000Y-30719000D01*
X109162000Y-29839000D02*
X107390000Y-29839000D01*
X105310000Y-30760000D02*
X103191000Y-30760000D01*
X109578000Y-31320000D02*
X103122000Y-31320000D01*
X109368000Y-30279000D02*
X107390000Y-30279000D01*
X108504000Y-34625241D02*
X107874000Y-34625241D01*
X108064000Y-28679000D02*
X104636000Y-28679000D01*
X108834000Y-29359000D02*
X107390000Y-29359000D01*
X105310000Y-29639000D02*
X103660000Y-29639000D01*
X108866000Y-29399000D02*
X107390000Y-29399000D01*
X105310000Y-29799000D02*
X103560000Y-29799000D01*
X105310000Y-30239000D02*
X103348000Y-30239000D01*
X107290000Y-28319000D02*
X105410000Y-28319000D01*
X105310000Y-30840000D02*
X103175000Y-30840000D01*
X105310000Y-30599000D02*
X103229000Y-30599000D01*
X109397000Y-30359000D02*
X107390000Y-30359000D01*
X109246000Y-29999000D02*
X107390000Y-29999000D01*
X108655000Y-29159000D02*
X107390000Y-29159000D01*
X105310000Y-30079000D02*
X103416000Y-30079000D01*
X108693000Y-29199000D02*
X107390000Y-29199000D01*
X105310000Y-30199000D02*
X103364000Y-30199000D01*
X107931000Y-28599000D02*
X104769000Y-28599000D01*
X109491000Y-30679000D02*
X107390000Y-30679000D01*
X108766000Y-29279000D02*
X107390000Y-29279000D01*
X109565000Y-31120000D02*
X107390000Y-31120000D01*
X108126000Y-28719000D02*
X104574000Y-28719000D01*
X108240000Y-28799000D02*
X104460000Y-28799000D01*
X105310000Y-30279000D02*
X103332000Y-30279000D01*
X107700000Y-28479000D02*
X105000000Y-28479000D01*
X109411000Y-30399000D02*
X107390000Y-30399000D01*
X105310000Y-31000000D02*
X103149000Y-31000000D01*
X109517000Y-30800000D02*
X107390000Y-30800000D01*
X106752000Y-28199000D02*
X105948000Y-28199000D01*
X109336000Y-30199000D02*
X107390000Y-30199000D01*
X109352000Y-30239000D02*
X107390000Y-30239000D01*
X108184000Y-28759000D02*
X104516000Y-28759000D01*
X109448000Y-30519000D02*
X107390000Y-30519000D01*
X105310000Y-29359000D02*
X103866000Y-29359000D01*
X105310000Y-29439000D02*
X103802000Y-29439000D01*
X106983000Y-28239000D02*
X105717000Y-28239000D01*
X105310000Y-31200000D02*
X103128000Y-31200000D01*
X105310000Y-31040000D02*
X103144000Y-31040000D01*
X105310000Y-29279000D02*
X103934000Y-29279000D01*
X105310000Y-30519000D02*
X103252000Y-30519000D01*
X109539000Y-30920000D02*
X107390000Y-30920000D01*
X105310000Y-31120000D02*
X103135000Y-31120000D01*
X109460000Y-30559000D02*
X107390000Y-30559000D01*
X105310000Y-30960000D02*
X103155000Y-30960000D01*
X108394000Y-28919000D02*
X104306000Y-28919000D01*
X109383000Y-30319000D02*
X107390000Y-30319000D01*
X105310000Y-29719000D02*
X103608000Y-29719000D01*
X105310000Y-29399000D02*
X103834000Y-29399000D01*
X105310000Y-30359000D02*
X103303000Y-30359000D01*
X105310000Y-29559000D02*
X103714000Y-29559000D01*
X109556000Y-31040000D02*
X107390000Y-31040000D01*
X108442000Y-28959000D02*
X104258000Y-28959000D01*
X108487000Y-28999000D02*
X104213000Y-28999000D01*
X109580000Y-31440000D02*
X103120000Y-31440000D01*
X105310000Y-29679000D02*
X103634000Y-29679000D01*
X105310000Y-30559000D02*
X103240000Y-30559000D01*
X109424000Y-30439000D02*
X107390000Y-30439000D01*
X105310000Y-29159000D02*
X104045000Y-29159000D01*
X105310000Y-29239000D02*
X103970000Y-29239000D01*
X105310000Y-29839000D02*
X103538000Y-29839000D01*
X107859000Y-28559000D02*
X104841000Y-28559000D01*
X109184000Y-29879000D02*
X107390000Y-29879000D01*
X107782000Y-28519000D02*
X104918000Y-28519000D01*
X105310000Y-29519000D02*
X103743000Y-29519000D01*
X105310000Y-30319000D02*
X103317000Y-30319000D01*
X109284000Y-30079000D02*
X107390000Y-30079000D01*
X105310000Y-29319000D02*
X103900000Y-29319000D01*
X109140000Y-29799000D02*
X107390000Y-29799000D01*
X108928000Y-29479000D02*
X107390000Y-29479000D01*
X107409000Y-28359000D02*
X105291000Y-28359000D01*
X105310000Y-29879000D02*
X103516000Y-29879000D01*
X109481000Y-30639000D02*
X107390000Y-30639000D01*
X109014000Y-29599000D02*
X107390000Y-29599000D01*
X108574000Y-29079000D02*
X104126000Y-29079000D01*
X108800000Y-29319000D02*
X107390000Y-29319000D01*
X105310000Y-29759000D02*
X103584000Y-29759000D01*
X105310000Y-30639000D02*
X103219000Y-30639000D01*
X109509000Y-30760000D02*
X107390000Y-30760000D01*
X109471000Y-30599000D02*
X107390000Y-30599000D01*
X109532000Y-30880000D02*
X107390000Y-30880000D01*
X109320000Y-30159000D02*
X107390000Y-30159000D01*
X105310000Y-30679000D02*
X103209000Y-30679000D01*
X109116000Y-29759000D02*
X107390000Y-29759000D01*
X105310000Y-30920000D02*
X103161000Y-30920000D01*
X108000000Y-28639000D02*
X104700000Y-28639000D01*
X108986000Y-29559000D02*
X107390000Y-29559000D01*
X109092000Y-29719000D02*
X107390000Y-29719000D01*
X105310000Y-29599000D02*
X103686000Y-29599000D01*
X109266000Y-30039000D02*
X107390000Y-30039000D01*
X105310000Y-30039000D02*
X103434000Y-30039000D01*
X109206000Y-29919000D02*
X107390000Y-29919000D01*
X108345000Y-28879000D02*
X104355000Y-28879000D01*
X105310000Y-31160000D02*
X103132000Y-31160000D01*
X109302000Y-30119000D02*
X107390000Y-30119000D01*
X109040000Y-29639000D02*
X107390000Y-29639000D01*
X105310000Y-29199000D02*
X104007000Y-29199000D01*
X109436000Y-30479000D02*
X107390000Y-30479000D01*
X105310000Y-30479000D02*
X103264000Y-30479000D01*
X109620000Y-31440000D02*
G75*
G03*
X109620000Y-31440000I-3270000J0D01*
G01*
G04 #@! TO.C,D4*
X101070000Y-59540000D02*
X101070000Y-54100000D01*
X101070000Y-54880000D02*
X104010000Y-54880000D01*
X102540000Y-60560000D02*
X102540000Y-59540000D01*
X101070000Y-54100000D02*
X104010000Y-54100000D01*
X104010000Y-54100000D02*
X104010000Y-59540000D01*
X102540000Y-53080000D02*
X102540000Y-54100000D01*
X101070000Y-55120000D02*
X104010000Y-55120000D01*
X104010000Y-59540000D02*
X101070000Y-59540000D01*
X101070000Y-55000000D02*
X104010000Y-55000000D01*
G04 #@! TD*
M02*
