M48
; DRILL file {KiCad 6.0.7-f9a2dced07~116~ubuntu22.04.1} date Fri Sep  2 22:22:42 2022
; FORMAT={-:-/ absolute / metric / decimal}
; #@! TF.CreationDate,2022-09-02T22:22:42-04:00
; #@! TF.GenerationSoftware,Kicad,Pcbnew,6.0.7-f9a2dced07~116~ubuntu22.04.1
; #@! TF.FileFunction,MixedPlating,1,2
FMAT,2
METRIC
; #@! TA.AperFunction,Plated,PTH,ComponentDrill
T1C0.700
; #@! TA.AperFunction,Plated,PTH,ComponentDrill
T2C0.800
; #@! TA.AperFunction,Plated,PTH,ComponentDrill
T3C1.016
; #@! TA.AperFunction,Plated,PTH,ComponentDrill
T4C1.100
; #@! TA.AperFunction,Plated,PTH,ComponentDrill
T5C1.200
; #@! TA.AperFunction,Plated,PTH,ComponentDrill
T6C1.300
; #@! TA.AperFunction,NonPlated,NPTH,ComponentDrill
T7C3.200
%
G90
G05
T1
X91.11Y-36.5
X91.11Y-40.31
X91.11Y-44.12
T2
X92.38Y-51.75
X92.38Y-61.91
X92.38Y-66.99
X92.38Y-77.15
X92.38Y-86.03
X92.38Y-96.19
X92.38Y-127.86
X92.38Y-138.02
X92.42Y-80.96
X92.46Y-47.93
X96.2Y-69.52
X96.2Y-72.06
X96.2Y-74.6
X96.2Y-77.14
X96.23Y-65.72
X97.42Y-80.96
X97.46Y-47.93
X97.46Y-127.86
X98.73Y-65.72
X101.31Y-80.96
X102.54Y-84.03
X102.54Y-86.03
X102.58Y-47.93
X102.58Y-65.72
X103.81Y-80.96
X103.82Y-69.52
X103.82Y-72.06
X103.82Y-74.6
X103.82Y-77.14
X106.35Y-30.19
X106.35Y-32.69
X106.35Y-37.81
X106.35Y-40.31
X107.58Y-47.93
X107.58Y-65.72
X107.62Y-51.74
X107.62Y-61.9
X107.62Y-69.52
X107.62Y-79.68
X107.62Y-84.76
X107.62Y-94.92
X107.62Y-127.86
T3
X94.92Y-19.99
X94.92Y-22.53
X94.92Y-25.07
X94.92Y-27.61
X94.92Y-30.15
X97.46Y-19.99
X97.46Y-22.53
X97.46Y-25.07
X97.46Y-27.61
X97.46Y-30.15
T4
X97.46Y-51.74
X97.46Y-61.9
X102.54Y-51.74
X102.54Y-61.9
X103.81Y-16.18
X103.81Y-26.34
X108.06Y-16.18
X108.06Y-26.34
T5
X97.46Y-134.21
X100.0Y-134.21
X105.08Y-134.21
X107.62Y-134.21
T6
X95.0Y-99.0
X100.0Y-99.0
X105.0Y-99.0
T7
X100.0Y-43.0
X100.0Y-92.0
T0
M30
