G04 #@! TF.GenerationSoftware,KiCad,Pcbnew,6.0.7-f9a2dced07~116~ubuntu22.04.1*
G04 #@! TF.CreationDate,2022-09-02T22:22:42-04:00*
G04 #@! TF.ProjectId,mikrokosmos-ii,6d696b72-6f6b-46f7-936d-6f732d69692e,rev?*
G04 #@! TF.SameCoordinates,Original*
G04 #@! TF.FileFunction,Copper,L1,Top*
G04 #@! TF.FilePolarity,Positive*
%FSLAX46Y46*%
G04 Gerber Fmt 4.6, Leading zero omitted, Abs format (unit mm)*
G04 Created by KiCad (PCBNEW 6.0.7-f9a2dced07~116~ubuntu22.04.1) date 2022-09-02 22:22:42*
%MOMM*%
%LPD*%
G01*
G04 APERTURE LIST*
G04 Aperture macros list*
%AMRoundRect*
0 Rectangle with rounded corners*
0 $1 Rounding radius*
0 $2 $3 $4 $5 $6 $7 $8 $9 X,Y pos of 4 corners*
0 Add a 4 corners polygon primitive as box body*
4,1,4,$2,$3,$4,$5,$6,$7,$8,$9,$2,$3,0*
0 Add four circle primitives for the rounded corners*
1,1,$1+$1,$2,$3*
1,1,$1+$1,$4,$5*
1,1,$1+$1,$6,$7*
1,1,$1+$1,$8,$9*
0 Add four rect primitives between the rounded corners*
20,1,$1+$1,$2,$3,$4,$5,0*
20,1,$1+$1,$4,$5,$6,$7,0*
20,1,$1+$1,$6,$7,$8,$9,0*
20,1,$1+$1,$8,$9,$2,$3,0*%
G04 Aperture macros list end*
G04 #@! TA.AperFunction,ComponentPad*
%ADD10C,2.340000*%
G04 #@! TD*
G04 #@! TA.AperFunction,ComponentPad*
%ADD11R,1.500000X1.500000*%
G04 #@! TD*
G04 #@! TA.AperFunction,ComponentPad*
%ADD12C,1.500000*%
G04 #@! TD*
G04 #@! TA.AperFunction,ComponentPad*
%ADD13C,1.600000*%
G04 #@! TD*
G04 #@! TA.AperFunction,ComponentPad*
%ADD14RoundRect,0.250000X0.620000X0.850000X-0.620000X0.850000X-0.620000X-0.850000X0.620000X-0.850000X0*%
G04 #@! TD*
G04 #@! TA.AperFunction,ComponentPad*
%ADD15O,1.740000X2.200000*%
G04 #@! TD*
G04 #@! TA.AperFunction,ComponentPad*
%ADD16R,2.200000X2.200000*%
G04 #@! TD*
G04 #@! TA.AperFunction,ComponentPad*
%ADD17O,2.200000X2.200000*%
G04 #@! TD*
G04 #@! TA.AperFunction,ComponentPad*
%ADD18O,1.600000X1.600000*%
G04 #@! TD*
G04 #@! TA.AperFunction,ComponentPad*
%ADD19R,1.600000X1.600000*%
G04 #@! TD*
G04 #@! TA.AperFunction,ComponentPad*
%ADD20R,1.727200X1.727200*%
G04 #@! TD*
G04 #@! TA.AperFunction,ComponentPad*
%ADD21O,1.727200X1.727200*%
G04 #@! TD*
G04 #@! TA.AperFunction,ComponentPad*
%ADD22R,2.400000X1.600000*%
G04 #@! TD*
G04 #@! TA.AperFunction,ComponentPad*
%ADD23O,2.400000X1.600000*%
G04 #@! TD*
G04 #@! TA.AperFunction,Conductor*
%ADD24C,0.750000*%
G04 #@! TD*
G04 #@! TA.AperFunction,Conductor*
%ADD25C,0.250000*%
G04 #@! TD*
G04 APERTURE END LIST*
D10*
G04 #@! TO.P,RV1,1,1*
G04 #@! TO.N,GND*
X105000000Y-99000000D03*
G04 #@! TO.P,RV1,2,2*
G04 #@! TO.N,Net-(R5-Pad2)*
X100000000Y-99000000D03*
G04 #@! TO.P,RV1,3,3*
G04 #@! TO.N,Net-(D3-Pad1)*
X95000000Y-99000000D03*
G04 #@! TD*
D11*
G04 #@! TO.P,TP2,1,1*
G04 #@! TO.N,GND*
X91110000Y-40310000D03*
G04 #@! TD*
D12*
G04 #@! TO.P,TP3,1,1*
G04 #@! TO.N,-12V*
X91110000Y-44120000D03*
G04 #@! TD*
G04 #@! TO.P,TP1,1,1*
G04 #@! TO.N,+12V*
X91110000Y-36500000D03*
G04 #@! TD*
D13*
G04 #@! TO.P,C7,1*
G04 #@! TO.N,Net-(C7-Pad1)*
X102580000Y-47930000D03*
G04 #@! TO.P,C7,2*
G04 #@! TO.N,GND*
X107580000Y-47930000D03*
G04 #@! TD*
D14*
G04 #@! TO.P,J6,1,Pin_1*
G04 #@! TO.N,GND*
X100000000Y-134210000D03*
D15*
G04 #@! TO.P,J6,2,Pin_2*
G04 #@! TO.N,/PREAMP_OUT*
X97460000Y-134210000D03*
G04 #@! TD*
D16*
G04 #@! TO.P,D2,1,K*
G04 #@! TO.N,/-12V_INLET*
X103810000Y-26340000D03*
D17*
G04 #@! TO.P,D2,2,A*
G04 #@! TO.N,-12V*
X103810000Y-16180000D03*
G04 #@! TD*
D13*
G04 #@! TO.P,R5,1*
G04 #@! TO.N,Net-(C8-Pad2)*
X107620000Y-84760000D03*
D18*
G04 #@! TO.P,R5,2*
G04 #@! TO.N,Net-(R5-Pad2)*
X107620000Y-94920000D03*
G04 #@! TD*
D13*
G04 #@! TO.P,C5,1*
G04 #@! TO.N,GND*
X98730000Y-65720000D03*
G04 #@! TO.P,C5,2*
G04 #@! TO.N,-12V*
X96230000Y-65720000D03*
G04 #@! TD*
G04 #@! TO.P,C3,1*
G04 #@! TO.N,Net-(C3-Pad1)*
X92420000Y-80960000D03*
G04 #@! TO.P,C3,2*
G04 #@! TO.N,/PIEZO_IN*
X97420000Y-80960000D03*
G04 #@! TD*
G04 #@! TO.P,R2,1*
G04 #@! TO.N,Net-(C3-Pad1)*
X92380000Y-77150000D03*
D18*
G04 #@! TO.P,R2,2*
G04 #@! TO.N,/PIEZO_IN*
X92380000Y-66990000D03*
G04 #@! TD*
D16*
G04 #@! TO.P,D3,1,K*
G04 #@! TO.N,Net-(D3-Pad1)*
X97460000Y-51740000D03*
D17*
G04 #@! TO.P,D3,2,A*
G04 #@! TO.N,Net-(C6-Pad1)*
X97460000Y-61900000D03*
G04 #@! TD*
D13*
G04 #@! TO.P,C4,1*
G04 #@! TO.N,+12V*
X103810000Y-80960000D03*
G04 #@! TO.P,C4,2*
G04 #@! TO.N,GND*
X101310000Y-80960000D03*
G04 #@! TD*
D19*
G04 #@! TO.P,C2,1*
G04 #@! TO.N,GND*
X106350000Y-40310000D03*
D13*
G04 #@! TO.P,C2,2*
G04 #@! TO.N,-12V*
X106350000Y-37810000D03*
G04 #@! TD*
G04 #@! TO.P,C8,1*
G04 #@! TO.N,Net-(C8-Pad1)*
X102580000Y-65720000D03*
G04 #@! TO.P,C8,2*
G04 #@! TO.N,Net-(C8-Pad2)*
X107580000Y-65720000D03*
G04 #@! TD*
G04 #@! TO.P,R7,1*
G04 #@! TO.N,Net-(C9-Pad2)*
X92380000Y-96190000D03*
D18*
G04 #@! TO.P,R7,2*
G04 #@! TO.N,GND*
X92380000Y-86030000D03*
G04 #@! TD*
D16*
G04 #@! TO.P,D1,1,K*
G04 #@! TO.N,+12V*
X108060000Y-26340000D03*
D17*
G04 #@! TO.P,D1,2,A*
G04 #@! TO.N,/+12V_INLET*
X108060000Y-16180000D03*
G04 #@! TD*
D13*
G04 #@! TO.P,C6,1*
G04 #@! TO.N,Net-(C6-Pad1)*
X97460000Y-47930000D03*
G04 #@! TO.P,C6,2*
G04 #@! TO.N,GND*
X92460000Y-47930000D03*
G04 #@! TD*
D20*
G04 #@! TO.P,J2,1,-12V*
G04 #@! TO.N,/-12V_INLET*
X94920000Y-30150000D03*
D21*
G04 #@! TO.P,J2,2,-12V*
X97460000Y-30150000D03*
G04 #@! TO.P,J2,3,GND*
G04 #@! TO.N,GND*
X94920000Y-27610000D03*
G04 #@! TO.P,J2,4,GND*
X97460000Y-27610000D03*
G04 #@! TO.P,J2,5,GND*
X94920000Y-25070000D03*
G04 #@! TO.P,J2,6,GND*
X97460000Y-25070000D03*
G04 #@! TO.P,J2,7,GND*
X94920000Y-22530000D03*
G04 #@! TO.P,J2,8,GND*
X97460000Y-22530000D03*
G04 #@! TO.P,J2,9,+12V*
G04 #@! TO.N,/+12V_INLET*
X94920000Y-19990000D03*
G04 #@! TO.P,J2,10,+12V*
X97460000Y-19990000D03*
G04 #@! TD*
D14*
G04 #@! TO.P,J4,1,Pin_1*
G04 #@! TO.N,GND*
X107620000Y-134210000D03*
D15*
G04 #@! TO.P,J4,2,Pin_2*
G04 #@! TO.N,/PIEZO_IN*
X105080000Y-134210000D03*
G04 #@! TD*
D13*
G04 #@! TO.P,R1,1*
G04 #@! TO.N,/PIEZO_IN*
X97460000Y-127860000D03*
D18*
G04 #@! TO.P,R1,2*
G04 #@! TO.N,GND*
X107620000Y-127860000D03*
G04 #@! TD*
D13*
G04 #@! TO.P,R3,1*
G04 #@! TO.N,Net-(D3-Pad1)*
X92380000Y-51750000D03*
D18*
G04 #@! TO.P,R3,2*
G04 #@! TO.N,Net-(C3-Pad1)*
X92380000Y-61910000D03*
G04 #@! TD*
D13*
G04 #@! TO.P,R8,1*
G04 #@! TO.N,/PREAMP_OUT*
X92380000Y-138020000D03*
D18*
G04 #@! TO.P,R8,2*
G04 #@! TO.N,Net-(C9-Pad2)*
X92380000Y-127860000D03*
G04 #@! TD*
D13*
G04 #@! TO.P,C9,1*
G04 #@! TO.N,Net-(C8-Pad1)*
X102540000Y-86030000D03*
G04 #@! TO.P,C9,2*
G04 #@! TO.N,Net-(C9-Pad2)*
X102540000Y-84030000D03*
G04 #@! TD*
G04 #@! TO.P,R6,1*
G04 #@! TO.N,Net-(C8-Pad1)*
X107620000Y-79680000D03*
D18*
G04 #@! TO.P,R6,2*
G04 #@! TO.N,Net-(C8-Pad2)*
X107620000Y-69520000D03*
G04 #@! TD*
D22*
G04 #@! TO.P,U1,1*
G04 #@! TO.N,Net-(C3-Pad1)*
X96200000Y-77140000D03*
D23*
G04 #@! TO.P,U1,2,-*
G04 #@! TO.N,/PIEZO_IN*
X96200000Y-74600000D03*
G04 #@! TO.P,U1,3,+*
G04 #@! TO.N,GND*
X96200000Y-72060000D03*
G04 #@! TO.P,U1,4,V-*
G04 #@! TO.N,-12V*
X96200000Y-69520000D03*
G04 #@! TO.P,U1,5,+*
G04 #@! TO.N,GND*
X103820000Y-69520000D03*
G04 #@! TO.P,U1,6,-*
G04 #@! TO.N,Net-(C8-Pad2)*
X103820000Y-72060000D03*
G04 #@! TO.P,U1,7*
G04 #@! TO.N,Net-(C8-Pad1)*
X103820000Y-74600000D03*
G04 #@! TO.P,U1,8,V+*
G04 #@! TO.N,+12V*
X103820000Y-77140000D03*
G04 #@! TD*
D13*
G04 #@! TO.P,R4,1*
G04 #@! TO.N,Net-(C7-Pad1)*
X107620000Y-61900000D03*
D18*
G04 #@! TO.P,R4,2*
G04 #@! TO.N,Net-(C6-Pad1)*
X107620000Y-51740000D03*
G04 #@! TD*
D19*
G04 #@! TO.P,C1,1*
G04 #@! TO.N,+12V*
X106350000Y-32690000D03*
D13*
G04 #@! TO.P,C1,2*
G04 #@! TO.N,GND*
X106350000Y-30190000D03*
G04 #@! TD*
D16*
G04 #@! TO.P,D4,1,K*
G04 #@! TO.N,Net-(C7-Pad1)*
X102540000Y-51740000D03*
D17*
G04 #@! TO.P,D4,2,A*
G04 #@! TO.N,Net-(D3-Pad1)*
X102540000Y-61900000D03*
G04 #@! TD*
D24*
G04 #@! TO.N,+12V*
X103820000Y-77140000D02*
X108994511Y-71965489D01*
X108994511Y-35334511D02*
X106350000Y-32690000D01*
X108060000Y-30980000D02*
X108060000Y-26340000D01*
X103810000Y-80960000D02*
X103810000Y-77150000D01*
X106350000Y-32690000D02*
X108060000Y-30980000D01*
X108994511Y-71965489D02*
X108994511Y-35334511D01*
G04 #@! TO.N,-12V*
X102135489Y-33595489D02*
X103790000Y-35250000D01*
X95301000Y-64791000D02*
X96230000Y-65720000D01*
X103810000Y-16180000D02*
X102135489Y-17854511D01*
X103790000Y-35250000D02*
X106350000Y-37810000D01*
X96230000Y-65720000D02*
X96230000Y-69490000D01*
X102135489Y-17854511D02*
X102135489Y-33595489D01*
X95301000Y-44247000D02*
X95301000Y-64791000D01*
X103790000Y-35250000D02*
X95301000Y-43739000D01*
X95301000Y-43739000D02*
X95301000Y-44247000D01*
D25*
X91110000Y-44120000D02*
X95174000Y-44120000D01*
X95174000Y-44120000D02*
X95301000Y-44247000D01*
G04 #@! TO.N,Net-(C3-Pad1)*
X91255489Y-76025489D02*
X92380000Y-77150000D01*
X91255489Y-63034511D02*
X91255489Y-76025489D01*
X92380000Y-61910000D02*
X91255489Y-63034511D01*
X92380000Y-77150000D02*
X92380000Y-80920000D01*
G04 #@! TO.N,/PIEZO_IN*
X97724511Y-76124511D02*
X97724511Y-80655489D01*
X97460000Y-127860000D02*
X98730000Y-127860000D01*
X92380000Y-66990000D02*
X92380000Y-70780000D01*
X92380000Y-70780000D02*
X96200000Y-74600000D01*
X93505489Y-123905489D02*
X97460000Y-127860000D01*
X97420000Y-81879000D02*
X94550480Y-84748520D01*
X98730000Y-127860000D02*
X105080000Y-134210000D01*
X94550480Y-97335961D02*
X93505489Y-98380952D01*
X93505489Y-98380952D02*
X93505489Y-123905489D01*
X96200000Y-74600000D02*
X97724511Y-76124511D01*
X97420000Y-80960000D02*
X97420000Y-81879000D01*
X94550480Y-84760000D02*
X94550480Y-97335961D01*
G04 #@! TO.N,Net-(C6-Pad1)*
X97460000Y-61900000D02*
X96035489Y-60475489D01*
X96035489Y-49354511D02*
X97460000Y-47930000D01*
X96035489Y-60475489D02*
X96035489Y-49354511D01*
G04 #@! TO.N,Net-(C7-Pad1)*
X102540000Y-51740000D02*
X102540000Y-47970000D01*
X102540000Y-51740000D02*
X102540000Y-56820000D01*
X102540000Y-56820000D02*
X107620000Y-61900000D01*
G04 #@! TO.N,Net-(C8-Pad1)*
X105344520Y-68484520D02*
X105344520Y-73075480D01*
X102540000Y-86030000D02*
X107620000Y-80950000D01*
X102580000Y-65720000D02*
X105344520Y-68484520D01*
X107620000Y-80950000D02*
X107620000Y-79680000D01*
X105344520Y-73075480D02*
X103820000Y-74600000D01*
G04 #@! TO.N,Net-(C8-Pad2)*
X107620000Y-69530000D02*
X107620000Y-65760000D01*
G04 #@! TO.N,Net-(C9-Pad2)*
X92380000Y-96190000D02*
X92380000Y-127860000D01*
G04 #@! TO.N,Net-(D3-Pad1)*
X102540000Y-61900000D02*
X100635000Y-63805000D01*
X97460000Y-56820000D02*
X102540000Y-61900000D01*
X97460000Y-51740000D02*
X97460000Y-56820000D01*
X100635000Y-63805000D02*
X100635000Y-79335300D01*
X100635000Y-79335300D02*
X95000000Y-84970300D01*
X95000000Y-84970300D02*
X95000000Y-99000000D01*
G04 #@! TO.N,/PREAMP_OUT*
X93650000Y-138020000D02*
X97460000Y-134210000D01*
X92380000Y-138020000D02*
X93650000Y-138020000D01*
G04 #@! TD*
G04 #@! TA.AperFunction,Conductor*
G04 #@! TO.N,GND*
G36*
X94359621Y-44773502D02*
G01*
X94406114Y-44827158D01*
X94417500Y-44879500D01*
X94417500Y-64711543D01*
X94415949Y-64731255D01*
X94413850Y-64744507D01*
X94414195Y-64751094D01*
X94414195Y-64751098D01*
X94417327Y-64810850D01*
X94417500Y-64817445D01*
X94417500Y-64837306D01*
X94417844Y-64840577D01*
X94419576Y-64857059D01*
X94420093Y-64863633D01*
X94421162Y-64884021D01*
X94423570Y-64929971D01*
X94427042Y-64942929D01*
X94430645Y-64962372D01*
X94432046Y-64975702D01*
X94452578Y-65038894D01*
X94454444Y-65045196D01*
X94471638Y-65109363D01*
X94474634Y-65115242D01*
X94474637Y-65115251D01*
X94477728Y-65121317D01*
X94485292Y-65139579D01*
X94487392Y-65146043D01*
X94487395Y-65146051D01*
X94489436Y-65152331D01*
X94492738Y-65158050D01*
X94492740Y-65158055D01*
X94522654Y-65209867D01*
X94525787Y-65215637D01*
X94555953Y-65274839D01*
X94560109Y-65279971D01*
X94564391Y-65285259D01*
X94575589Y-65301552D01*
X94582296Y-65313169D01*
X94586713Y-65318075D01*
X94586717Y-65318080D01*
X94626747Y-65362538D01*
X94631031Y-65367554D01*
X94641441Y-65380409D01*
X94643528Y-65382986D01*
X94657573Y-65397031D01*
X94662114Y-65401816D01*
X94706566Y-65451185D01*
X94717426Y-65459075D01*
X94732454Y-65471912D01*
X94880107Y-65619565D01*
X94914133Y-65681877D01*
X94915869Y-65709018D01*
X94916981Y-65709018D01*
X94916981Y-65714525D01*
X94916502Y-65720000D01*
X94936457Y-65948087D01*
X94937881Y-65953400D01*
X94937881Y-65953402D01*
X94989408Y-66145700D01*
X94995716Y-66169243D01*
X94998039Y-66174224D01*
X94998039Y-66174225D01*
X95090151Y-66371762D01*
X95090154Y-66371767D01*
X95092477Y-66376749D01*
X95131641Y-66432681D01*
X95203829Y-66535775D01*
X95223802Y-66564300D01*
X95309595Y-66650093D01*
X95343621Y-66712405D01*
X95346500Y-66739188D01*
X95346500Y-68207430D01*
X95326498Y-68275551D01*
X95273749Y-68321625D01*
X95148242Y-68380149D01*
X95148239Y-68380151D01*
X95143251Y-68382477D01*
X95060137Y-68440674D01*
X94960211Y-68510643D01*
X94960208Y-68510645D01*
X94955700Y-68513802D01*
X94793802Y-68675700D01*
X94662477Y-68863251D01*
X94660154Y-68868233D01*
X94660151Y-68868238D01*
X94660034Y-68868489D01*
X94565716Y-69070757D01*
X94564294Y-69076065D01*
X94564293Y-69076067D01*
X94514972Y-69260135D01*
X94506457Y-69291913D01*
X94486502Y-69520000D01*
X94506457Y-69748087D01*
X94507881Y-69753400D01*
X94507881Y-69753402D01*
X94510350Y-69762614D01*
X94565716Y-69969243D01*
X94568039Y-69974224D01*
X94568039Y-69974225D01*
X94660151Y-70171762D01*
X94660154Y-70171767D01*
X94662477Y-70176749D01*
X94793802Y-70364300D01*
X94955700Y-70526198D01*
X94960208Y-70529355D01*
X94960211Y-70529357D01*
X94996119Y-70554500D01*
X95143251Y-70657523D01*
X95148233Y-70659846D01*
X95148238Y-70659849D01*
X95183049Y-70676081D01*
X95236334Y-70722998D01*
X95255795Y-70791275D01*
X95235253Y-70859235D01*
X95183049Y-70904471D01*
X95148489Y-70920586D01*
X95138993Y-70926069D01*
X94960533Y-71051028D01*
X94952125Y-71058084D01*
X94798084Y-71212125D01*
X94791028Y-71220533D01*
X94666069Y-71398993D01*
X94660586Y-71408489D01*
X94568510Y-71605947D01*
X94564764Y-71616239D01*
X94525598Y-71762408D01*
X94488646Y-71823031D01*
X94424785Y-71854052D01*
X94354291Y-71845624D01*
X94314798Y-71818893D01*
X93050405Y-70554500D01*
X93016379Y-70492188D01*
X93013500Y-70465405D01*
X93013500Y-68209394D01*
X93033502Y-68141273D01*
X93067229Y-68106181D01*
X93219789Y-67999357D01*
X93219792Y-67999355D01*
X93224300Y-67996198D01*
X93386198Y-67834300D01*
X93517523Y-67646749D01*
X93519846Y-67641767D01*
X93519849Y-67641762D01*
X93611961Y-67444225D01*
X93611961Y-67444224D01*
X93614284Y-67439243D01*
X93673543Y-67218087D01*
X93693498Y-66990000D01*
X93673543Y-66761913D01*
X93660277Y-66712405D01*
X93615707Y-66546067D01*
X93615706Y-66546065D01*
X93614284Y-66540757D01*
X93608291Y-66527905D01*
X93519849Y-66338238D01*
X93519846Y-66338233D01*
X93517523Y-66333251D01*
X93444098Y-66228389D01*
X93389357Y-66150211D01*
X93389355Y-66150208D01*
X93386198Y-66145700D01*
X93224300Y-65983802D01*
X93219792Y-65980645D01*
X93219789Y-65980643D01*
X93141611Y-65925902D01*
X93036749Y-65852477D01*
X93031767Y-65850154D01*
X93031762Y-65850151D01*
X92834225Y-65758039D01*
X92834224Y-65758039D01*
X92829243Y-65755716D01*
X92823935Y-65754294D01*
X92823933Y-65754293D01*
X92613402Y-65697881D01*
X92613400Y-65697881D01*
X92608087Y-65696457D01*
X92380000Y-65676502D01*
X92151913Y-65696457D01*
X92047599Y-65724408D01*
X91976624Y-65722718D01*
X91917828Y-65682924D01*
X91889880Y-65617660D01*
X91888989Y-65602701D01*
X91888989Y-63349105D01*
X91908991Y-63280984D01*
X91925894Y-63260010D01*
X91966752Y-63219152D01*
X92029064Y-63185126D01*
X92088459Y-63186541D01*
X92146591Y-63202118D01*
X92146602Y-63202120D01*
X92151913Y-63203543D01*
X92380000Y-63223498D01*
X92608087Y-63203543D01*
X92613400Y-63202119D01*
X92613402Y-63202119D01*
X92823933Y-63145707D01*
X92823935Y-63145706D01*
X92829243Y-63144284D01*
X92847637Y-63135707D01*
X93031762Y-63049849D01*
X93031767Y-63049846D01*
X93036749Y-63047523D01*
X93158303Y-62962410D01*
X93219789Y-62919357D01*
X93219792Y-62919355D01*
X93224300Y-62916198D01*
X93386198Y-62754300D01*
X93390472Y-62748197D01*
X93474685Y-62627928D01*
X93517523Y-62566749D01*
X93519846Y-62561767D01*
X93519849Y-62561762D01*
X93611961Y-62364225D01*
X93611961Y-62364224D01*
X93614284Y-62359243D01*
X93618387Y-62343933D01*
X93672119Y-62143402D01*
X93672119Y-62143400D01*
X93673543Y-62138087D01*
X93693498Y-61910000D01*
X93673543Y-61681913D01*
X93672119Y-61676598D01*
X93615707Y-61466067D01*
X93615706Y-61466065D01*
X93614284Y-61460757D01*
X93588854Y-61406221D01*
X93519849Y-61258238D01*
X93519846Y-61258233D01*
X93517523Y-61253251D01*
X93386198Y-61065700D01*
X93224300Y-60903802D01*
X93219792Y-60900645D01*
X93219789Y-60900643D01*
X93141611Y-60845902D01*
X93036749Y-60772477D01*
X93031767Y-60770154D01*
X93031762Y-60770151D01*
X92834225Y-60678039D01*
X92834224Y-60678039D01*
X92829243Y-60675716D01*
X92823935Y-60674294D01*
X92823933Y-60674293D01*
X92613402Y-60617881D01*
X92613400Y-60617881D01*
X92608087Y-60616457D01*
X92380000Y-60596502D01*
X92151913Y-60616457D01*
X92146600Y-60617881D01*
X92146598Y-60617881D01*
X91936067Y-60674293D01*
X91936065Y-60674294D01*
X91930757Y-60675716D01*
X91925776Y-60678039D01*
X91925775Y-60678039D01*
X91728238Y-60770151D01*
X91728233Y-60770154D01*
X91723251Y-60772477D01*
X91618389Y-60845902D01*
X91540211Y-60900643D01*
X91540208Y-60900645D01*
X91535700Y-60903802D01*
X91373802Y-61065700D01*
X91242477Y-61253251D01*
X91240154Y-61258233D01*
X91240151Y-61258238D01*
X91171146Y-61406221D01*
X91145716Y-61460757D01*
X91144294Y-61466065D01*
X91144293Y-61466067D01*
X91087881Y-61676598D01*
X91086457Y-61681913D01*
X91066502Y-61910000D01*
X91086457Y-62138087D01*
X91087879Y-62143392D01*
X91087881Y-62143406D01*
X91103459Y-62201539D01*
X91101771Y-62272516D01*
X91070848Y-62323248D01*
X90903696Y-62490399D01*
X90863231Y-62530864D01*
X90854952Y-62538398D01*
X90848471Y-62542511D01*
X90821477Y-62571257D01*
X90801846Y-62592162D01*
X90799091Y-62595004D01*
X90779354Y-62614741D01*
X90776874Y-62617938D01*
X90769171Y-62626958D01*
X90738903Y-62659190D01*
X90735084Y-62666136D01*
X90735082Y-62666139D01*
X90729141Y-62676945D01*
X90718290Y-62693464D01*
X90705875Y-62709470D01*
X90702730Y-62716739D01*
X90702727Y-62716743D01*
X90688315Y-62750048D01*
X90683098Y-62760698D01*
X90661794Y-62799451D01*
X90659823Y-62807126D01*
X90659823Y-62807127D01*
X90656756Y-62819073D01*
X90650352Y-62837777D01*
X90645766Y-62848376D01*
X90642308Y-62856366D01*
X90641069Y-62864189D01*
X90641066Y-62864199D01*
X90635390Y-62900035D01*
X90632984Y-62911655D01*
X90631818Y-62916198D01*
X90621989Y-62954481D01*
X90621989Y-62974735D01*
X90620438Y-62994445D01*
X90617269Y-63014454D01*
X90618015Y-63022346D01*
X90621430Y-63058472D01*
X90621989Y-63070330D01*
X90621989Y-75946722D01*
X90621462Y-75957905D01*
X90619787Y-75965398D01*
X90620036Y-75973324D01*
X90620036Y-75973325D01*
X90621927Y-76033475D01*
X90621989Y-76037434D01*
X90621989Y-76065345D01*
X90622486Y-76069279D01*
X90622486Y-76069280D01*
X90622494Y-76069345D01*
X90623427Y-76081182D01*
X90624816Y-76125378D01*
X90628396Y-76137699D01*
X90630467Y-76144828D01*
X90634476Y-76164189D01*
X90637015Y-76184286D01*
X90639934Y-76191657D01*
X90639934Y-76191659D01*
X90653293Y-76225401D01*
X90657138Y-76236631D01*
X90669471Y-76279082D01*
X90673504Y-76285901D01*
X90673506Y-76285906D01*
X90679782Y-76296517D01*
X90688477Y-76314265D01*
X90695937Y-76333106D01*
X90700599Y-76339522D01*
X90700599Y-76339523D01*
X90721925Y-76368876D01*
X90728441Y-76378796D01*
X90750947Y-76416851D01*
X90765268Y-76431172D01*
X90778108Y-76446205D01*
X90790017Y-76462596D01*
X90814985Y-76483251D01*
X90824094Y-76490787D01*
X90832873Y-76498777D01*
X91070848Y-76736752D01*
X91104874Y-76799064D01*
X91103459Y-76858459D01*
X91087882Y-76916591D01*
X91087881Y-76916598D01*
X91086457Y-76921913D01*
X91066502Y-77150000D01*
X91086457Y-77378087D01*
X91087881Y-77383400D01*
X91087881Y-77383402D01*
X91141614Y-77583933D01*
X91145716Y-77599243D01*
X91148039Y-77604224D01*
X91148039Y-77604225D01*
X91240151Y-77801762D01*
X91240154Y-77801767D01*
X91242477Y-77806749D01*
X91245634Y-77811257D01*
X91369529Y-77988197D01*
X91373802Y-77994300D01*
X91535700Y-78156198D01*
X91540208Y-78159355D01*
X91540211Y-78159357D01*
X91692771Y-78266181D01*
X91737099Y-78321638D01*
X91746500Y-78369394D01*
X91746500Y-79768615D01*
X91726498Y-79836736D01*
X91692772Y-79871827D01*
X91634457Y-79912659D01*
X91594252Y-79940812D01*
X91575700Y-79953802D01*
X91413802Y-80115700D01*
X91410645Y-80120208D01*
X91410643Y-80120211D01*
X91355902Y-80198389D01*
X91282477Y-80303251D01*
X91280154Y-80308233D01*
X91280151Y-80308238D01*
X91214542Y-80448938D01*
X91185716Y-80510757D01*
X91184294Y-80516065D01*
X91184293Y-80516067D01*
X91138706Y-80686198D01*
X91126457Y-80731913D01*
X91106502Y-80960000D01*
X91126457Y-81188087D01*
X91127881Y-81193400D01*
X91127881Y-81193402D01*
X91180807Y-81390921D01*
X91185716Y-81409243D01*
X91188039Y-81414224D01*
X91188039Y-81414225D01*
X91280151Y-81611762D01*
X91280154Y-81611767D01*
X91282477Y-81616749D01*
X91413802Y-81804300D01*
X91575700Y-81966198D01*
X91580208Y-81969355D01*
X91580211Y-81969357D01*
X91603826Y-81985892D01*
X91763251Y-82097523D01*
X91768233Y-82099846D01*
X91768238Y-82099849D01*
X91964765Y-82191490D01*
X91970757Y-82194284D01*
X91976065Y-82195706D01*
X91976067Y-82195707D01*
X92186598Y-82252119D01*
X92186600Y-82252119D01*
X92191913Y-82253543D01*
X92420000Y-82273498D01*
X92648087Y-82253543D01*
X92653400Y-82252119D01*
X92653402Y-82252119D01*
X92863933Y-82195707D01*
X92863935Y-82195706D01*
X92869243Y-82194284D01*
X92875235Y-82191490D01*
X93071762Y-82099849D01*
X93071767Y-82099846D01*
X93076749Y-82097523D01*
X93236174Y-81985892D01*
X93259789Y-81969357D01*
X93259792Y-81969355D01*
X93264300Y-81966198D01*
X93426198Y-81804300D01*
X93557523Y-81616749D01*
X93559846Y-81611767D01*
X93559849Y-81611762D01*
X93651961Y-81414225D01*
X93651961Y-81414224D01*
X93654284Y-81409243D01*
X93659194Y-81390921D01*
X93712119Y-81193402D01*
X93712119Y-81193400D01*
X93713543Y-81188087D01*
X93733498Y-80960000D01*
X93713543Y-80731913D01*
X93701294Y-80686198D01*
X93655707Y-80516067D01*
X93655706Y-80516065D01*
X93654284Y-80510757D01*
X93625458Y-80448938D01*
X93559849Y-80308238D01*
X93559846Y-80308233D01*
X93557523Y-80303251D01*
X93484098Y-80198389D01*
X93429357Y-80120211D01*
X93429355Y-80120208D01*
X93426198Y-80115700D01*
X93264300Y-79953802D01*
X93259792Y-79950645D01*
X93259789Y-79950643D01*
X93081257Y-79825633D01*
X93081253Y-79825630D01*
X93076749Y-79822477D01*
X93075599Y-79821941D01*
X93027508Y-79771508D01*
X93013500Y-79713768D01*
X93013500Y-78369394D01*
X93033502Y-78301273D01*
X93067229Y-78266181D01*
X93219789Y-78159357D01*
X93219792Y-78159355D01*
X93224300Y-78156198D01*
X93386198Y-77994300D01*
X93390472Y-77988197D01*
X93514366Y-77811257D01*
X93517523Y-77806749D01*
X93519846Y-77801767D01*
X93519849Y-77801762D01*
X93611961Y-77604225D01*
X93611961Y-77604224D01*
X93614284Y-77599243D01*
X93618387Y-77583933D01*
X93672119Y-77383402D01*
X93672119Y-77383400D01*
X93673543Y-77378087D01*
X93693498Y-77150000D01*
X93673543Y-76921913D01*
X93672117Y-76916591D01*
X93615707Y-76706067D01*
X93615706Y-76706065D01*
X93614284Y-76700757D01*
X93609621Y-76690757D01*
X93519849Y-76498238D01*
X93519846Y-76498233D01*
X93517523Y-76493251D01*
X93433799Y-76373681D01*
X93389357Y-76310211D01*
X93389355Y-76310208D01*
X93386198Y-76305700D01*
X93224300Y-76143802D01*
X93219792Y-76140645D01*
X93219789Y-76140643D01*
X93066737Y-76033475D01*
X93036749Y-76012477D01*
X93031767Y-76010154D01*
X93031762Y-76010151D01*
X92834225Y-75918039D01*
X92834224Y-75918039D01*
X92829243Y-75915716D01*
X92823935Y-75914294D01*
X92823933Y-75914293D01*
X92613402Y-75857881D01*
X92613400Y-75857881D01*
X92608087Y-75856457D01*
X92380000Y-75836502D01*
X92151913Y-75856457D01*
X92146600Y-75857881D01*
X92146598Y-75857881D01*
X92088459Y-75873459D01*
X92017482Y-75871769D01*
X91966753Y-75840847D01*
X91925894Y-75799988D01*
X91891868Y-75737676D01*
X91888989Y-75710893D01*
X91888989Y-71489083D01*
X91908991Y-71420962D01*
X91962647Y-71374469D01*
X92032921Y-71364365D01*
X92097501Y-71393859D01*
X92104083Y-71399987D01*
X93350499Y-72646404D01*
X94595280Y-73891185D01*
X94629306Y-73953497D01*
X94624241Y-74024313D01*
X94620386Y-74033517D01*
X94565716Y-74150757D01*
X94506457Y-74371913D01*
X94486502Y-74600000D01*
X94506457Y-74828087D01*
X94565716Y-75049243D01*
X94568039Y-75054224D01*
X94568039Y-75054225D01*
X94660151Y-75251762D01*
X94660154Y-75251767D01*
X94662477Y-75256749D01*
X94793802Y-75444300D01*
X94955700Y-75606198D01*
X94960211Y-75609357D01*
X94964424Y-75612892D01*
X94963473Y-75614026D01*
X95003471Y-75664071D01*
X95010776Y-75734690D01*
X94978742Y-75798049D01*
X94917538Y-75834030D01*
X94900483Y-75837082D01*
X94889684Y-75838255D01*
X94753295Y-75889385D01*
X94636739Y-75976739D01*
X94549385Y-76093295D01*
X94498255Y-76229684D01*
X94491500Y-76291866D01*
X94491500Y-77988134D01*
X94498255Y-78050316D01*
X94549385Y-78186705D01*
X94636739Y-78303261D01*
X94753295Y-78390615D01*
X94889684Y-78441745D01*
X94951866Y-78448500D01*
X96965011Y-78448500D01*
X97033132Y-78468502D01*
X97079625Y-78522158D01*
X97091011Y-78574500D01*
X97091011Y-79596811D01*
X97071009Y-79664932D01*
X97017353Y-79711425D01*
X96997619Y-79718518D01*
X96970757Y-79725716D01*
X96965776Y-79728039D01*
X96965775Y-79728039D01*
X96768238Y-79820151D01*
X96768233Y-79820154D01*
X96763251Y-79822477D01*
X96692771Y-79871828D01*
X96580211Y-79950643D01*
X96580208Y-79950645D01*
X96575700Y-79953802D01*
X96413802Y-80115700D01*
X96410645Y-80120208D01*
X96410643Y-80120211D01*
X96355902Y-80198389D01*
X96282477Y-80303251D01*
X96280154Y-80308233D01*
X96280151Y-80308238D01*
X96214542Y-80448938D01*
X96185716Y-80510757D01*
X96184294Y-80516065D01*
X96184293Y-80516067D01*
X96138706Y-80686198D01*
X96126457Y-80731913D01*
X96106502Y-80960000D01*
X96126457Y-81188087D01*
X96127881Y-81193400D01*
X96127881Y-81193402D01*
X96180807Y-81390921D01*
X96185716Y-81409243D01*
X96188039Y-81414224D01*
X96188039Y-81414225D01*
X96280151Y-81611762D01*
X96280154Y-81611767D01*
X96282477Y-81616749D01*
X96413802Y-81804300D01*
X96417698Y-81808196D01*
X96421226Y-81812400D01*
X96420227Y-81813238D01*
X96451230Y-81870014D01*
X96446165Y-81940829D01*
X96417204Y-81985892D01*
X94074345Y-84328750D01*
X94000866Y-84423479D01*
X93957609Y-84523442D01*
X93956785Y-84524940D01*
X93956703Y-84525259D01*
X93956264Y-84525822D01*
X93956529Y-84525936D01*
X93937299Y-84570375D01*
X93936059Y-84578202D01*
X93936059Y-84578203D01*
X93925637Y-84644007D01*
X93923229Y-84655631D01*
X93920396Y-84666666D01*
X93916980Y-84679970D01*
X93916980Y-84688744D01*
X93915429Y-84708454D01*
X93912260Y-84728463D01*
X93913006Y-84736355D01*
X93916421Y-84772481D01*
X93916980Y-84784339D01*
X93916980Y-85755298D01*
X93896978Y-85823419D01*
X93843322Y-85869912D01*
X93773048Y-85880016D01*
X93708468Y-85850522D01*
X93669273Y-85787909D01*
X93615236Y-85586239D01*
X93611490Y-85575947D01*
X93519414Y-85378489D01*
X93513931Y-85368993D01*
X93388972Y-85190533D01*
X93381916Y-85182125D01*
X93227875Y-85028084D01*
X93219467Y-85021028D01*
X93041007Y-84896069D01*
X93031511Y-84890586D01*
X92834053Y-84798510D01*
X92823761Y-84794764D01*
X92651497Y-84748606D01*
X92637401Y-84748942D01*
X92634000Y-84756884D01*
X92634000Y-87297967D01*
X92637973Y-87311498D01*
X92646522Y-87312727D01*
X92823761Y-87265236D01*
X92834053Y-87261490D01*
X93031511Y-87169414D01*
X93041007Y-87163931D01*
X93219467Y-87038972D01*
X93227875Y-87031916D01*
X93381916Y-86877875D01*
X93388972Y-86869467D01*
X93513931Y-86691007D01*
X93519414Y-86681511D01*
X93611490Y-86484053D01*
X93615236Y-86473761D01*
X93669273Y-86272091D01*
X93706225Y-86211468D01*
X93770085Y-86180447D01*
X93840580Y-86188875D01*
X93895327Y-86234078D01*
X93916980Y-86304702D01*
X93916980Y-95913366D01*
X93896978Y-95981487D01*
X93843322Y-96027980D01*
X93773048Y-96038084D01*
X93708468Y-96008590D01*
X93669273Y-95945977D01*
X93615707Y-95746067D01*
X93615706Y-95746065D01*
X93614284Y-95740757D01*
X93611961Y-95735775D01*
X93519849Y-95538238D01*
X93519846Y-95538233D01*
X93517523Y-95533251D01*
X93444098Y-95428389D01*
X93389357Y-95350211D01*
X93389355Y-95350208D01*
X93386198Y-95345700D01*
X93224300Y-95183802D01*
X93219792Y-95180645D01*
X93219789Y-95180643D01*
X93141611Y-95125902D01*
X93036749Y-95052477D01*
X93031767Y-95050154D01*
X93031762Y-95050151D01*
X92834225Y-94958039D01*
X92834224Y-94958039D01*
X92829243Y-94955716D01*
X92823935Y-94954294D01*
X92823933Y-94954293D01*
X92613402Y-94897881D01*
X92613400Y-94897881D01*
X92608087Y-94896457D01*
X92380000Y-94876502D01*
X92151913Y-94896457D01*
X92146600Y-94897881D01*
X92146598Y-94897881D01*
X91936067Y-94954293D01*
X91936065Y-94954294D01*
X91930757Y-94955716D01*
X91925776Y-94958039D01*
X91925775Y-94958039D01*
X91728238Y-95050151D01*
X91728233Y-95050154D01*
X91723251Y-95052477D01*
X91618389Y-95125902D01*
X91540211Y-95180643D01*
X91540208Y-95180645D01*
X91535700Y-95183802D01*
X91373802Y-95345700D01*
X91370645Y-95350208D01*
X91370643Y-95350211D01*
X91315902Y-95428389D01*
X91242477Y-95533251D01*
X91240154Y-95538233D01*
X91240151Y-95538238D01*
X91148039Y-95735775D01*
X91145716Y-95740757D01*
X91144294Y-95746065D01*
X91144293Y-95746067D01*
X91138363Y-95768197D01*
X91086457Y-95961913D01*
X91066502Y-96190000D01*
X91086457Y-96418087D01*
X91145716Y-96639243D01*
X91148039Y-96644224D01*
X91148039Y-96644225D01*
X91240151Y-96841762D01*
X91240154Y-96841767D01*
X91242477Y-96846749D01*
X91373802Y-97034300D01*
X91535700Y-97196198D01*
X91540208Y-97199355D01*
X91540211Y-97199357D01*
X91692771Y-97306181D01*
X91737099Y-97361638D01*
X91746500Y-97409394D01*
X91746500Y-126640606D01*
X91726498Y-126708727D01*
X91692771Y-126743819D01*
X91540211Y-126850643D01*
X91540208Y-126850645D01*
X91535700Y-126853802D01*
X91373802Y-127015700D01*
X91242477Y-127203251D01*
X91240154Y-127208233D01*
X91240151Y-127208238D01*
X91159409Y-127381392D01*
X91145716Y-127410757D01*
X91144294Y-127416065D01*
X91144293Y-127416067D01*
X91096756Y-127593478D01*
X91086457Y-127631913D01*
X91066502Y-127860000D01*
X91086457Y-128088087D01*
X91087881Y-128093400D01*
X91087881Y-128093402D01*
X91097031Y-128127548D01*
X91145716Y-128309243D01*
X91148039Y-128314224D01*
X91148039Y-128314225D01*
X91240151Y-128511762D01*
X91240154Y-128511767D01*
X91242477Y-128516749D01*
X91245634Y-128521257D01*
X91341494Y-128658159D01*
X91373802Y-128704300D01*
X91535700Y-128866198D01*
X91540208Y-128869355D01*
X91540211Y-128869357D01*
X91618389Y-128924098D01*
X91723251Y-128997523D01*
X91728233Y-128999846D01*
X91728238Y-128999849D01*
X91924765Y-129091490D01*
X91930757Y-129094284D01*
X91936065Y-129095706D01*
X91936067Y-129095707D01*
X92146598Y-129152119D01*
X92146600Y-129152119D01*
X92151913Y-129153543D01*
X92380000Y-129173498D01*
X92608087Y-129153543D01*
X92613400Y-129152119D01*
X92613402Y-129152119D01*
X92823933Y-129095707D01*
X92823935Y-129095706D01*
X92829243Y-129094284D01*
X92835235Y-129091490D01*
X93031762Y-128999849D01*
X93031767Y-128999846D01*
X93036749Y-128997523D01*
X93141611Y-128924098D01*
X93219789Y-128869357D01*
X93219792Y-128869355D01*
X93224300Y-128866198D01*
X93386198Y-128704300D01*
X93418507Y-128658159D01*
X93514366Y-128521257D01*
X93517523Y-128516749D01*
X93519846Y-128511767D01*
X93519849Y-128511762D01*
X93611961Y-128314225D01*
X93611961Y-128314224D01*
X93614284Y-128309243D01*
X93662970Y-128127548D01*
X93672119Y-128093402D01*
X93672119Y-128093400D01*
X93673543Y-128088087D01*
X93693498Y-127860000D01*
X93673543Y-127631913D01*
X93663244Y-127593478D01*
X93615707Y-127416067D01*
X93615706Y-127416065D01*
X93614284Y-127410757D01*
X93600591Y-127381392D01*
X93519849Y-127208238D01*
X93519846Y-127208233D01*
X93517523Y-127203251D01*
X93386198Y-127015700D01*
X93224300Y-126853802D01*
X93219792Y-126850645D01*
X93219789Y-126850643D01*
X93067229Y-126743819D01*
X93022901Y-126688362D01*
X93013500Y-126640606D01*
X93013500Y-124613594D01*
X93033502Y-124545473D01*
X93087158Y-124498980D01*
X93157432Y-124488876D01*
X93222012Y-124518370D01*
X93228595Y-124524499D01*
X96150848Y-127446752D01*
X96184874Y-127509064D01*
X96183459Y-127568459D01*
X96167882Y-127626591D01*
X96167881Y-127626598D01*
X96166457Y-127631913D01*
X96146502Y-127860000D01*
X96166457Y-128088087D01*
X96167881Y-128093400D01*
X96167881Y-128093402D01*
X96177031Y-128127548D01*
X96225716Y-128309243D01*
X96228039Y-128314224D01*
X96228039Y-128314225D01*
X96320151Y-128511762D01*
X96320154Y-128511767D01*
X96322477Y-128516749D01*
X96325634Y-128521257D01*
X96421494Y-128658159D01*
X96453802Y-128704300D01*
X96615700Y-128866198D01*
X96620208Y-128869355D01*
X96620211Y-128869357D01*
X96698389Y-128924098D01*
X96803251Y-128997523D01*
X96808233Y-128999846D01*
X96808238Y-128999849D01*
X97004765Y-129091490D01*
X97010757Y-129094284D01*
X97016065Y-129095706D01*
X97016067Y-129095707D01*
X97226598Y-129152119D01*
X97226600Y-129152119D01*
X97231913Y-129153543D01*
X97460000Y-129173498D01*
X97688087Y-129153543D01*
X97693400Y-129152119D01*
X97693402Y-129152119D01*
X97903933Y-129095707D01*
X97903935Y-129095706D01*
X97909243Y-129094284D01*
X97915235Y-129091490D01*
X98111762Y-128999849D01*
X98111767Y-128999846D01*
X98116749Y-128997523D01*
X98221611Y-128924098D01*
X98299789Y-128869357D01*
X98299792Y-128869355D01*
X98304300Y-128866198D01*
X98466198Y-128704300D01*
X98469357Y-128699789D01*
X98472892Y-128695576D01*
X98474463Y-128696894D01*
X98522941Y-128658159D01*
X98593562Y-128650864D01*
X98659769Y-128685673D01*
X103674595Y-133700500D01*
X103708621Y-133762812D01*
X103709489Y-133812016D01*
X103702656Y-133849803D01*
X103701500Y-133874316D01*
X103701500Y-134498738D01*
X103716295Y-134673102D01*
X103717633Y-134678259D01*
X103717634Y-134678262D01*
X103728166Y-134718837D01*
X103775067Y-134899540D01*
X103777259Y-134904406D01*
X103777260Y-134904409D01*
X103843864Y-135052264D01*
X103871150Y-135112837D01*
X104001798Y-135306896D01*
X104163276Y-135476168D01*
X104350965Y-135615813D01*
X104355716Y-135618229D01*
X104355720Y-135618231D01*
X104470197Y-135676434D01*
X104559500Y-135721838D01*
X104782917Y-135791210D01*
X104788204Y-135791911D01*
X104788205Y-135791911D01*
X105009545Y-135821248D01*
X105009549Y-135821248D01*
X105014829Y-135821948D01*
X105020158Y-135821748D01*
X105020160Y-135821748D01*
X105131716Y-135817560D01*
X105248604Y-135813172D01*
X105360813Y-135789628D01*
X105472332Y-135766229D01*
X105472335Y-135766228D01*
X105477559Y-135765132D01*
X105695146Y-135679203D01*
X105804860Y-135612627D01*
X105890583Y-135560609D01*
X105890586Y-135560607D01*
X105895144Y-135557841D01*
X106071834Y-135404517D01*
X106102761Y-135366799D01*
X106161421Y-135326804D01*
X106232391Y-135324873D01*
X106293139Y-135361617D01*
X106308220Y-135384157D01*
X106308906Y-135383732D01*
X106398063Y-135527807D01*
X106407099Y-135539208D01*
X106521829Y-135653739D01*
X106533240Y-135662751D01*
X106671243Y-135747816D01*
X106684424Y-135753963D01*
X106838710Y-135805138D01*
X106852086Y-135808005D01*
X106946438Y-135817672D01*
X106952854Y-135818000D01*
X107347885Y-135818000D01*
X107363124Y-135813525D01*
X107364329Y-135812135D01*
X107366000Y-135804452D01*
X107366000Y-135799884D01*
X107874000Y-135799884D01*
X107878475Y-135815123D01*
X107879865Y-135816328D01*
X107887548Y-135817999D01*
X108287095Y-135817999D01*
X108293614Y-135817662D01*
X108389206Y-135807743D01*
X108402600Y-135804851D01*
X108556784Y-135753412D01*
X108569962Y-135747239D01*
X108707807Y-135661937D01*
X108719208Y-135652901D01*
X108833739Y-135538171D01*
X108842751Y-135526760D01*
X108927816Y-135388757D01*
X108933963Y-135375576D01*
X108985138Y-135221290D01*
X108988005Y-135207914D01*
X108997672Y-135113562D01*
X108998000Y-135107145D01*
X108998000Y-134482115D01*
X108993525Y-134466876D01*
X108992135Y-134465671D01*
X108984452Y-134464000D01*
X107892115Y-134464000D01*
X107876876Y-134468475D01*
X107875671Y-134469865D01*
X107874000Y-134477548D01*
X107874000Y-135799884D01*
X107366000Y-135799884D01*
X107366000Y-133937885D01*
X107874000Y-133937885D01*
X107878475Y-133953124D01*
X107879865Y-133954329D01*
X107887548Y-133956000D01*
X108979884Y-133956000D01*
X108995123Y-133951525D01*
X108996328Y-133950135D01*
X108997999Y-133942452D01*
X108997999Y-133312905D01*
X108997662Y-133306386D01*
X108987743Y-133210794D01*
X108984851Y-133197400D01*
X108933412Y-133043216D01*
X108927239Y-133030038D01*
X108841937Y-132892193D01*
X108832901Y-132880792D01*
X108718171Y-132766261D01*
X108706760Y-132757249D01*
X108568757Y-132672184D01*
X108555576Y-132666037D01*
X108401290Y-132614862D01*
X108387914Y-132611995D01*
X108293562Y-132602328D01*
X108287145Y-132602000D01*
X107892115Y-132602000D01*
X107876876Y-132606475D01*
X107875671Y-132607865D01*
X107874000Y-132615548D01*
X107874000Y-133937885D01*
X107366000Y-133937885D01*
X107366000Y-132620116D01*
X107361525Y-132604877D01*
X107360135Y-132603672D01*
X107352452Y-132602001D01*
X106952905Y-132602001D01*
X106946386Y-132602338D01*
X106850794Y-132612257D01*
X106837400Y-132615149D01*
X106683216Y-132666588D01*
X106670038Y-132672761D01*
X106532193Y-132758063D01*
X106520792Y-132767099D01*
X106406261Y-132881829D01*
X106397249Y-132893240D01*
X106308342Y-133037475D01*
X106306245Y-133036183D01*
X106267044Y-133080692D01*
X106198764Y-133100144D01*
X106130807Y-133079593D01*
X106108614Y-133061122D01*
X105996724Y-132943832D01*
X105809035Y-132804187D01*
X105804284Y-132801771D01*
X105804280Y-132801769D01*
X105605256Y-132700580D01*
X105605255Y-132700580D01*
X105600500Y-132698162D01*
X105377083Y-132628790D01*
X105371796Y-132628089D01*
X105371795Y-132628089D01*
X105150455Y-132598752D01*
X105150451Y-132598752D01*
X105145171Y-132598052D01*
X105139842Y-132598252D01*
X105139840Y-132598252D01*
X105028283Y-132602440D01*
X104911396Y-132606828D01*
X104682441Y-132654868D01*
X104677482Y-132656826D01*
X104677480Y-132656827D01*
X104677470Y-132656831D01*
X104571760Y-132698578D01*
X104501056Y-132704996D01*
X104436385Y-132670481D01*
X99892427Y-128126522D01*
X106337273Y-128126522D01*
X106384764Y-128303761D01*
X106388510Y-128314053D01*
X106480586Y-128511511D01*
X106486069Y-128521007D01*
X106611028Y-128699467D01*
X106618084Y-128707875D01*
X106772125Y-128861916D01*
X106780533Y-128868972D01*
X106958993Y-128993931D01*
X106968489Y-128999414D01*
X107165947Y-129091490D01*
X107176239Y-129095236D01*
X107348503Y-129141394D01*
X107362599Y-129141058D01*
X107366000Y-129133116D01*
X107366000Y-129127967D01*
X107874000Y-129127967D01*
X107877973Y-129141498D01*
X107886522Y-129142727D01*
X108063761Y-129095236D01*
X108074053Y-129091490D01*
X108271511Y-128999414D01*
X108281007Y-128993931D01*
X108459467Y-128868972D01*
X108467875Y-128861916D01*
X108621916Y-128707875D01*
X108628972Y-128699467D01*
X108753931Y-128521007D01*
X108759414Y-128511511D01*
X108851490Y-128314053D01*
X108855236Y-128303761D01*
X108901394Y-128131497D01*
X108901058Y-128117401D01*
X108893116Y-128114000D01*
X107892115Y-128114000D01*
X107876876Y-128118475D01*
X107875671Y-128119865D01*
X107874000Y-128127548D01*
X107874000Y-129127967D01*
X107366000Y-129127967D01*
X107366000Y-128132115D01*
X107361525Y-128116876D01*
X107360135Y-128115671D01*
X107352452Y-128114000D01*
X106352033Y-128114000D01*
X106338502Y-128117973D01*
X106337273Y-128126522D01*
X99892427Y-128126522D01*
X99354408Y-127588503D01*
X106338606Y-127588503D01*
X106338942Y-127602599D01*
X106346884Y-127606000D01*
X107347885Y-127606000D01*
X107363124Y-127601525D01*
X107364329Y-127600135D01*
X107366000Y-127592452D01*
X107366000Y-127587885D01*
X107874000Y-127587885D01*
X107878475Y-127603124D01*
X107879865Y-127604329D01*
X107887548Y-127606000D01*
X108887967Y-127606000D01*
X108901498Y-127602027D01*
X108902727Y-127593478D01*
X108855236Y-127416239D01*
X108851490Y-127405947D01*
X108759414Y-127208489D01*
X108753931Y-127198993D01*
X108628972Y-127020533D01*
X108621916Y-127012125D01*
X108467875Y-126858084D01*
X108459467Y-126851028D01*
X108281007Y-126726069D01*
X108271511Y-126720586D01*
X108074053Y-126628510D01*
X108063761Y-126624764D01*
X107891497Y-126578606D01*
X107877401Y-126578942D01*
X107874000Y-126586884D01*
X107874000Y-127587885D01*
X107366000Y-127587885D01*
X107366000Y-126592033D01*
X107362027Y-126578502D01*
X107353478Y-126577273D01*
X107176239Y-126624764D01*
X107165947Y-126628510D01*
X106968489Y-126720586D01*
X106958993Y-126726069D01*
X106780533Y-126851028D01*
X106772125Y-126858084D01*
X106618084Y-127012125D01*
X106611028Y-127020533D01*
X106486069Y-127198993D01*
X106480586Y-127208489D01*
X106388510Y-127405947D01*
X106384764Y-127416239D01*
X106338606Y-127588503D01*
X99354408Y-127588503D01*
X99233652Y-127467747D01*
X99226112Y-127459461D01*
X99222000Y-127452982D01*
X99172348Y-127406356D01*
X99169507Y-127403602D01*
X99149770Y-127383865D01*
X99146573Y-127381385D01*
X99137551Y-127373680D01*
X99111100Y-127348841D01*
X99105321Y-127343414D01*
X99098375Y-127339595D01*
X99098372Y-127339593D01*
X99087566Y-127333652D01*
X99071047Y-127322801D01*
X99070583Y-127322441D01*
X99055041Y-127310386D01*
X99047772Y-127307241D01*
X99047768Y-127307238D01*
X99014463Y-127292826D01*
X99003813Y-127287609D01*
X98965060Y-127266305D01*
X98945437Y-127261267D01*
X98926734Y-127254863D01*
X98915420Y-127249967D01*
X98915419Y-127249967D01*
X98908145Y-127246819D01*
X98900322Y-127245580D01*
X98900312Y-127245577D01*
X98864476Y-127239901D01*
X98852856Y-127237495D01*
X98817711Y-127228472D01*
X98817710Y-127228472D01*
X98810030Y-127226500D01*
X98789776Y-127226500D01*
X98770065Y-127224949D01*
X98757886Y-127223020D01*
X98750057Y-127221780D01*
X98742165Y-127222526D01*
X98706039Y-127225941D01*
X98694181Y-127226500D01*
X98679394Y-127226500D01*
X98611273Y-127206498D01*
X98576181Y-127172771D01*
X98469357Y-127020211D01*
X98469355Y-127020208D01*
X98466198Y-127015700D01*
X98304300Y-126853802D01*
X98299792Y-126850645D01*
X98299789Y-126850643D01*
X98147228Y-126743819D01*
X98116749Y-126722477D01*
X98111767Y-126720154D01*
X98111762Y-126720151D01*
X97914225Y-126628039D01*
X97914224Y-126628039D01*
X97909243Y-126625716D01*
X97903935Y-126624294D01*
X97903933Y-126624293D01*
X97693402Y-126567881D01*
X97693400Y-126567881D01*
X97688087Y-126566457D01*
X97460000Y-126546502D01*
X97231913Y-126566457D01*
X97226602Y-126567880D01*
X97226591Y-126567882D01*
X97168459Y-126583459D01*
X97097483Y-126581770D01*
X97046752Y-126550848D01*
X94175894Y-123679989D01*
X94141868Y-123617677D01*
X94138989Y-123590894D01*
X94138989Y-100652392D01*
X94158991Y-100584271D01*
X94212647Y-100537778D01*
X94282921Y-100527674D01*
X94320295Y-100539794D01*
X94320397Y-100539560D01*
X94322811Y-100540610D01*
X94323657Y-100540884D01*
X94324680Y-100541422D01*
X94328823Y-100543602D01*
X94445281Y-100584271D01*
X94558550Y-100623826D01*
X94564354Y-100625853D01*
X94568947Y-100626725D01*
X94804867Y-100671516D01*
X94804870Y-100671516D01*
X94809456Y-100672387D01*
X94934100Y-100677285D01*
X95054075Y-100681999D01*
X95054081Y-100681999D01*
X95058743Y-100682182D01*
X95148181Y-100672387D01*
X95302087Y-100655532D01*
X95302092Y-100655531D01*
X95306740Y-100655022D01*
X95313140Y-100653337D01*
X95543476Y-100592694D01*
X95543478Y-100592693D01*
X95547999Y-100591503D01*
X95564832Y-100584271D01*
X95772924Y-100494868D01*
X95772926Y-100494867D01*
X95777218Y-100493023D01*
X95879679Y-100429618D01*
X95985391Y-100364202D01*
X95985395Y-100364199D01*
X95989364Y-100361743D01*
X96179775Y-100200548D01*
X96261316Y-100107569D01*
X96341187Y-100016494D01*
X96341191Y-100016489D01*
X96344269Y-100012979D01*
X96360803Y-99987275D01*
X96476703Y-99807087D01*
X96479231Y-99803157D01*
X96581697Y-99575691D01*
X96583015Y-99571018D01*
X96648146Y-99340082D01*
X96648147Y-99340079D01*
X96649416Y-99335578D01*
X96680900Y-99088092D01*
X96680984Y-99084909D01*
X96682243Y-99036828D01*
X96683207Y-99000000D01*
X96679933Y-98955939D01*
X98317370Y-98955939D01*
X98317594Y-98960606D01*
X98317594Y-98960611D01*
X98323355Y-99080535D01*
X98329339Y-99205131D01*
X98378010Y-99449818D01*
X98462314Y-99684622D01*
X98580398Y-99904386D01*
X98729668Y-100104283D01*
X98906844Y-100279921D01*
X98910606Y-100282679D01*
X98910609Y-100282682D01*
X99022139Y-100364458D01*
X99108036Y-100427440D01*
X99112171Y-100429616D01*
X99112175Y-100429618D01*
X99227163Y-100490116D01*
X99328823Y-100543602D01*
X99445281Y-100584271D01*
X99558550Y-100623826D01*
X99564354Y-100625853D01*
X99568947Y-100626725D01*
X99804867Y-100671516D01*
X99804870Y-100671516D01*
X99809456Y-100672387D01*
X99934100Y-100677285D01*
X100054075Y-100681999D01*
X100054081Y-100681999D01*
X100058743Y-100682182D01*
X100148181Y-100672387D01*
X100302087Y-100655532D01*
X100302092Y-100655531D01*
X100306740Y-100655022D01*
X100313140Y-100653337D01*
X100543476Y-100592694D01*
X100543478Y-100592693D01*
X100547999Y-100591503D01*
X100564832Y-100584271D01*
X100772924Y-100494868D01*
X100772926Y-100494867D01*
X100777218Y-100493023D01*
X100879679Y-100429618D01*
X100985391Y-100364202D01*
X100985395Y-100364199D01*
X100989364Y-100361743D01*
X101000997Y-100351895D01*
X104012851Y-100351895D01*
X104021563Y-100363415D01*
X104104529Y-100424249D01*
X104112444Y-100429194D01*
X104324873Y-100540959D01*
X104333447Y-100544687D01*
X104560067Y-100623826D01*
X104569077Y-100626240D01*
X104804923Y-100671017D01*
X104814180Y-100672071D01*
X105054058Y-100681497D01*
X105063372Y-100681171D01*
X105301996Y-100655038D01*
X105311173Y-100653337D01*
X105543312Y-100592220D01*
X105552132Y-100589183D01*
X105772693Y-100494423D01*
X105780965Y-100490116D01*
X105984026Y-100364458D01*
X105990751Y-100354253D01*
X105984688Y-100343899D01*
X105012810Y-99372020D01*
X104998869Y-99364408D01*
X104997034Y-99364539D01*
X104990420Y-99368790D01*
X104019509Y-100339702D01*
X104012851Y-100351895D01*
X101000997Y-100351895D01*
X101179775Y-100200548D01*
X101261316Y-100107569D01*
X101341187Y-100016494D01*
X101341191Y-100016489D01*
X101344269Y-100012979D01*
X101360803Y-99987275D01*
X101476703Y-99807087D01*
X101479231Y-99803157D01*
X101581697Y-99575691D01*
X101583015Y-99571018D01*
X101648146Y-99340082D01*
X101648147Y-99340079D01*
X101649416Y-99335578D01*
X101680900Y-99088092D01*
X101680984Y-99084909D01*
X101682243Y-99036828D01*
X101683207Y-99000000D01*
X101680281Y-98960624D01*
X103318096Y-98960624D01*
X103329614Y-99200398D01*
X103330751Y-99209658D01*
X103377581Y-99445095D01*
X103380075Y-99454088D01*
X103461189Y-99680009D01*
X103464989Y-99688544D01*
X103578607Y-99899996D01*
X103583618Y-99907863D01*
X103636609Y-99978826D01*
X103647867Y-99987275D01*
X103660286Y-99980503D01*
X104627980Y-99012810D01*
X104634357Y-99001131D01*
X105364408Y-99001131D01*
X105364539Y-99002966D01*
X105368790Y-99009580D01*
X106342024Y-99982813D01*
X106354404Y-99989573D01*
X106362745Y-99983330D01*
X106476265Y-99806843D01*
X106480708Y-99798659D01*
X106579304Y-99579783D01*
X106582494Y-99571018D01*
X106647654Y-99339981D01*
X106649514Y-99330839D01*
X106680001Y-99091196D01*
X106680482Y-99084909D01*
X106682622Y-99003160D01*
X106682471Y-98996851D01*
X106664568Y-98755932D01*
X106663191Y-98746726D01*
X106610210Y-98512582D01*
X106607486Y-98503671D01*
X106520478Y-98279930D01*
X106516467Y-98271521D01*
X106397347Y-98063105D01*
X106392130Y-98055370D01*
X106364425Y-98020227D01*
X106352501Y-98011758D01*
X106340965Y-98018246D01*
X105372020Y-98987190D01*
X105364408Y-99001131D01*
X104634357Y-99001131D01*
X104635592Y-98998869D01*
X104635461Y-98997034D01*
X104631210Y-98990420D01*
X103658131Y-98017342D01*
X103644823Y-98010075D01*
X103634786Y-98017195D01*
X103633076Y-98019251D01*
X103627655Y-98026851D01*
X103503127Y-98232067D01*
X103498889Y-98240384D01*
X103406060Y-98461755D01*
X103403099Y-98470605D01*
X103344011Y-98703264D01*
X103342390Y-98712458D01*
X103318341Y-98951297D01*
X103318096Y-98960624D01*
X101680281Y-98960624D01*
X101664718Y-98751206D01*
X101609659Y-98507878D01*
X101595164Y-98470605D01*
X101520931Y-98279714D01*
X101520930Y-98279712D01*
X101519238Y-98275361D01*
X101494494Y-98232067D01*
X101473285Y-98194959D01*
X101395442Y-98058763D01*
X101240990Y-97862842D01*
X101059276Y-97691902D01*
X100993952Y-97646585D01*
X104010999Y-97646585D01*
X104015572Y-97656361D01*
X104987190Y-98627980D01*
X105001131Y-98635592D01*
X105002966Y-98635461D01*
X105009580Y-98631210D01*
X105980929Y-97659860D01*
X105987313Y-97648169D01*
X105977903Y-97636061D01*
X105857873Y-97552793D01*
X105849846Y-97548065D01*
X105634540Y-97441888D01*
X105625907Y-97438400D01*
X105397265Y-97365211D01*
X105388214Y-97363038D01*
X105151269Y-97324449D01*
X105141980Y-97323637D01*
X104901950Y-97320495D01*
X104892638Y-97321065D01*
X104654776Y-97353436D01*
X104645658Y-97355374D01*
X104415203Y-97422546D01*
X104406450Y-97425818D01*
X104188454Y-97526316D01*
X104180299Y-97530836D01*
X104020136Y-97635844D01*
X104010999Y-97646585D01*
X100993952Y-97646585D01*
X100858751Y-97552793D01*
X100858130Y-97552362D01*
X100858125Y-97552359D01*
X100854292Y-97549700D01*
X100850110Y-97547637D01*
X100850102Y-97547633D01*
X100634728Y-97441423D01*
X100634725Y-97441422D01*
X100630540Y-97439358D01*
X100392937Y-97363300D01*
X100388330Y-97362550D01*
X100388327Y-97362549D01*
X100197737Y-97331510D01*
X100146701Y-97323198D01*
X100025753Y-97321615D01*
X99901920Y-97319994D01*
X99901917Y-97319994D01*
X99897243Y-97319933D01*
X99650042Y-97353575D01*
X99645556Y-97354883D01*
X99645554Y-97354883D01*
X99617576Y-97363038D01*
X99410528Y-97423387D01*
X99406275Y-97425347D01*
X99406274Y-97425348D01*
X99401814Y-97427404D01*
X99183965Y-97527834D01*
X99180056Y-97530397D01*
X98979242Y-97662056D01*
X98979237Y-97662060D01*
X98975329Y-97664622D01*
X98882266Y-97747684D01*
X98833844Y-97790902D01*
X98789202Y-97830746D01*
X98629675Y-98022557D01*
X98500252Y-98235840D01*
X98498443Y-98240154D01*
X98498442Y-98240156D01*
X98485290Y-98271521D01*
X98403775Y-98465911D01*
X98402624Y-98470443D01*
X98402623Y-98470446D01*
X98394185Y-98503671D01*
X98342365Y-98707714D01*
X98317370Y-98955939D01*
X96679933Y-98955939D01*
X96664718Y-98751206D01*
X96609659Y-98507878D01*
X96595164Y-98470605D01*
X96520931Y-98279714D01*
X96520930Y-98279712D01*
X96519238Y-98275361D01*
X96494494Y-98232067D01*
X96473285Y-98194959D01*
X96395442Y-98058763D01*
X96240990Y-97862842D01*
X96059276Y-97691902D01*
X95858751Y-97552793D01*
X95858130Y-97552362D01*
X95858125Y-97552359D01*
X95854292Y-97549700D01*
X95703772Y-97475472D01*
X95651523Y-97427404D01*
X95633500Y-97362466D01*
X95633500Y-94920000D01*
X106306502Y-94920000D01*
X106326457Y-95148087D01*
X106327881Y-95153400D01*
X106327881Y-95153402D01*
X106379408Y-95345700D01*
X106385716Y-95369243D01*
X106388039Y-95374224D01*
X106388039Y-95374225D01*
X106480151Y-95571762D01*
X106480154Y-95571767D01*
X106482477Y-95576749D01*
X106485634Y-95581257D01*
X106593829Y-95735775D01*
X106613802Y-95764300D01*
X106775700Y-95926198D01*
X106780208Y-95929355D01*
X106780211Y-95929357D01*
X106826706Y-95961913D01*
X106963251Y-96057523D01*
X106968233Y-96059846D01*
X106968238Y-96059849D01*
X107165775Y-96151961D01*
X107170757Y-96154284D01*
X107176065Y-96155706D01*
X107176067Y-96155707D01*
X107386598Y-96212119D01*
X107386600Y-96212119D01*
X107391913Y-96213543D01*
X107620000Y-96233498D01*
X107848087Y-96213543D01*
X107853400Y-96212119D01*
X107853402Y-96212119D01*
X108063933Y-96155707D01*
X108063935Y-96155706D01*
X108069243Y-96154284D01*
X108074225Y-96151961D01*
X108271762Y-96059849D01*
X108271767Y-96059846D01*
X108276749Y-96057523D01*
X108413294Y-95961913D01*
X108459789Y-95929357D01*
X108459792Y-95929355D01*
X108464300Y-95926198D01*
X108626198Y-95764300D01*
X108646172Y-95735775D01*
X108754366Y-95581257D01*
X108757523Y-95576749D01*
X108759846Y-95571767D01*
X108759849Y-95571762D01*
X108851961Y-95374225D01*
X108851961Y-95374224D01*
X108854284Y-95369243D01*
X108860593Y-95345700D01*
X108912119Y-95153402D01*
X108912119Y-95153400D01*
X108913543Y-95148087D01*
X108933498Y-94920000D01*
X108913543Y-94691913D01*
X108854284Y-94470757D01*
X108851961Y-94465775D01*
X108759849Y-94268238D01*
X108759846Y-94268233D01*
X108757523Y-94263251D01*
X108649030Y-94108307D01*
X108629357Y-94080211D01*
X108629355Y-94080208D01*
X108626198Y-94075700D01*
X108464300Y-93913802D01*
X108459792Y-93910645D01*
X108459789Y-93910643D01*
X108381611Y-93855902D01*
X108276749Y-93782477D01*
X108271767Y-93780154D01*
X108271762Y-93780151D01*
X108074225Y-93688039D01*
X108074224Y-93688039D01*
X108069243Y-93685716D01*
X108063935Y-93684294D01*
X108063933Y-93684293D01*
X107853402Y-93627881D01*
X107853400Y-93627881D01*
X107848087Y-93626457D01*
X107620000Y-93606502D01*
X107391913Y-93626457D01*
X107386600Y-93627881D01*
X107386598Y-93627881D01*
X107176067Y-93684293D01*
X107176065Y-93684294D01*
X107170757Y-93685716D01*
X107165776Y-93688039D01*
X107165775Y-93688039D01*
X106968238Y-93780151D01*
X106968233Y-93780154D01*
X106963251Y-93782477D01*
X106858389Y-93855902D01*
X106780211Y-93910643D01*
X106780208Y-93910645D01*
X106775700Y-93913802D01*
X106613802Y-94075700D01*
X106610645Y-94080208D01*
X106610643Y-94080211D01*
X106590970Y-94108307D01*
X106482477Y-94263251D01*
X106480154Y-94268233D01*
X106480151Y-94268238D01*
X106388039Y-94465775D01*
X106385716Y-94470757D01*
X106326457Y-94691913D01*
X106306502Y-94920000D01*
X95633500Y-94920000D01*
X95633500Y-92132703D01*
X97890743Y-92132703D01*
X97928268Y-92417734D01*
X98004129Y-92695036D01*
X98116923Y-92959476D01*
X98264561Y-93206161D01*
X98444313Y-93430528D01*
X98652851Y-93628423D01*
X98886317Y-93796186D01*
X98890112Y-93798195D01*
X98890113Y-93798196D01*
X98911869Y-93809715D01*
X99140392Y-93930712D01*
X99410373Y-94029511D01*
X99691264Y-94090755D01*
X99719841Y-94093004D01*
X99914282Y-94108307D01*
X99914291Y-94108307D01*
X99916739Y-94108500D01*
X100072271Y-94108500D01*
X100074407Y-94108354D01*
X100074418Y-94108354D01*
X100282548Y-94094165D01*
X100282554Y-94094164D01*
X100286825Y-94093873D01*
X100291020Y-94093004D01*
X100291022Y-94093004D01*
X100427584Y-94064723D01*
X100568342Y-94035574D01*
X100839343Y-93939607D01*
X101094812Y-93807750D01*
X101098313Y-93805289D01*
X101098317Y-93805287D01*
X101212418Y-93725095D01*
X101330023Y-93642441D01*
X101540622Y-93446740D01*
X101722713Y-93224268D01*
X101872927Y-92979142D01*
X101988483Y-92715898D01*
X102067244Y-92439406D01*
X102107751Y-92154784D01*
X102107845Y-92136951D01*
X102109235Y-91871583D01*
X102109235Y-91871576D01*
X102109257Y-91867297D01*
X102071732Y-91582266D01*
X101995871Y-91304964D01*
X101883077Y-91040524D01*
X101735439Y-90793839D01*
X101555687Y-90569472D01*
X101347149Y-90371577D01*
X101113683Y-90203814D01*
X101091843Y-90192250D01*
X101068654Y-90179972D01*
X100859608Y-90069288D01*
X100589627Y-89970489D01*
X100308736Y-89909245D01*
X100277685Y-89906801D01*
X100085718Y-89891693D01*
X100085709Y-89891693D01*
X100083261Y-89891500D01*
X99927729Y-89891500D01*
X99925593Y-89891646D01*
X99925582Y-89891646D01*
X99717452Y-89905835D01*
X99717446Y-89905836D01*
X99713175Y-89906127D01*
X99708980Y-89906996D01*
X99708978Y-89906996D01*
X99572416Y-89935277D01*
X99431658Y-89964426D01*
X99160657Y-90060393D01*
X98905188Y-90192250D01*
X98901687Y-90194711D01*
X98901683Y-90194713D01*
X98891594Y-90201804D01*
X98669977Y-90357559D01*
X98459378Y-90553260D01*
X98277287Y-90775732D01*
X98127073Y-91020858D01*
X98011517Y-91284102D01*
X97932756Y-91560594D01*
X97892249Y-91845216D01*
X97892227Y-91849505D01*
X97892226Y-91849512D01*
X97890765Y-92128417D01*
X97890743Y-92132703D01*
X95633500Y-92132703D01*
X95633500Y-86030000D01*
X101226502Y-86030000D01*
X101246457Y-86258087D01*
X101247881Y-86263400D01*
X101247881Y-86263402D01*
X101258948Y-86304702D01*
X101305716Y-86479243D01*
X101308039Y-86484224D01*
X101308039Y-86484225D01*
X101400151Y-86681762D01*
X101400154Y-86681767D01*
X101402477Y-86686749D01*
X101533802Y-86874300D01*
X101695700Y-87036198D01*
X101700208Y-87039355D01*
X101700211Y-87039357D01*
X101778389Y-87094098D01*
X101883251Y-87167523D01*
X101888233Y-87169846D01*
X101888238Y-87169849D01*
X102084765Y-87261490D01*
X102090757Y-87264284D01*
X102096065Y-87265706D01*
X102096067Y-87265707D01*
X102306598Y-87322119D01*
X102306600Y-87322119D01*
X102311913Y-87323543D01*
X102540000Y-87343498D01*
X102768087Y-87323543D01*
X102773400Y-87322119D01*
X102773402Y-87322119D01*
X102983933Y-87265707D01*
X102983935Y-87265706D01*
X102989243Y-87264284D01*
X102995235Y-87261490D01*
X103191762Y-87169849D01*
X103191767Y-87169846D01*
X103196749Y-87167523D01*
X103301611Y-87094098D01*
X103379789Y-87039357D01*
X103379792Y-87039355D01*
X103384300Y-87036198D01*
X103546198Y-86874300D01*
X103677523Y-86686749D01*
X103679846Y-86681767D01*
X103679849Y-86681762D01*
X103771961Y-86484225D01*
X103771961Y-86484224D01*
X103774284Y-86479243D01*
X103821053Y-86304702D01*
X103832119Y-86263402D01*
X103832119Y-86263400D01*
X103833543Y-86258087D01*
X103853498Y-86030000D01*
X103833543Y-85801913D01*
X103832119Y-85796598D01*
X103832118Y-85796591D01*
X103816541Y-85738459D01*
X103818230Y-85667483D01*
X103849152Y-85616752D01*
X104705904Y-84760000D01*
X106306502Y-84760000D01*
X106326457Y-84988087D01*
X106327881Y-84993400D01*
X106327881Y-84993402D01*
X106382114Y-85195799D01*
X106385716Y-85209243D01*
X106388039Y-85214224D01*
X106388039Y-85214225D01*
X106480151Y-85411762D01*
X106480154Y-85411767D01*
X106482477Y-85416749D01*
X106485634Y-85421257D01*
X106601156Y-85586239D01*
X106613802Y-85604300D01*
X106775700Y-85766198D01*
X106780208Y-85769355D01*
X106780211Y-85769357D01*
X106834532Y-85807393D01*
X106963251Y-85897523D01*
X106968233Y-85899846D01*
X106968238Y-85899849D01*
X107165775Y-85991961D01*
X107170757Y-85994284D01*
X107176065Y-85995706D01*
X107176067Y-85995707D01*
X107386598Y-86052119D01*
X107386600Y-86052119D01*
X107391913Y-86053543D01*
X107620000Y-86073498D01*
X107848087Y-86053543D01*
X107853400Y-86052119D01*
X107853402Y-86052119D01*
X108063933Y-85995707D01*
X108063935Y-85995706D01*
X108069243Y-85994284D01*
X108074225Y-85991961D01*
X108271762Y-85899849D01*
X108271767Y-85899846D01*
X108276749Y-85897523D01*
X108405468Y-85807393D01*
X108459789Y-85769357D01*
X108459792Y-85769355D01*
X108464300Y-85766198D01*
X108626198Y-85604300D01*
X108638845Y-85586239D01*
X108754366Y-85421257D01*
X108757523Y-85416749D01*
X108759846Y-85411767D01*
X108759849Y-85411762D01*
X108851961Y-85214225D01*
X108851961Y-85214224D01*
X108854284Y-85209243D01*
X108857887Y-85195799D01*
X108912119Y-84993402D01*
X108912119Y-84993400D01*
X108913543Y-84988087D01*
X108933498Y-84760000D01*
X108913543Y-84531913D01*
X108912119Y-84526598D01*
X108855707Y-84316067D01*
X108855706Y-84316065D01*
X108854284Y-84310757D01*
X108829724Y-84258087D01*
X108759849Y-84108238D01*
X108759846Y-84108233D01*
X108757523Y-84103251D01*
X108626198Y-83915700D01*
X108464300Y-83753802D01*
X108459792Y-83750645D01*
X108459789Y-83750643D01*
X108336741Y-83664484D01*
X108276749Y-83622477D01*
X108271767Y-83620154D01*
X108271762Y-83620151D01*
X108074225Y-83528039D01*
X108074224Y-83528039D01*
X108069243Y-83525716D01*
X108063935Y-83524294D01*
X108063933Y-83524293D01*
X107853402Y-83467881D01*
X107853400Y-83467881D01*
X107848087Y-83466457D01*
X107620000Y-83446502D01*
X107391913Y-83466457D01*
X107386600Y-83467881D01*
X107386598Y-83467881D01*
X107176067Y-83524293D01*
X107176065Y-83524294D01*
X107170757Y-83525716D01*
X107165776Y-83528039D01*
X107165775Y-83528039D01*
X106968238Y-83620151D01*
X106968233Y-83620154D01*
X106963251Y-83622477D01*
X106903259Y-83664484D01*
X106780211Y-83750643D01*
X106780208Y-83750645D01*
X106775700Y-83753802D01*
X106613802Y-83915700D01*
X106482477Y-84103251D01*
X106480154Y-84108233D01*
X106480151Y-84108238D01*
X106410276Y-84258087D01*
X106385716Y-84310757D01*
X106384294Y-84316065D01*
X106384293Y-84316067D01*
X106327881Y-84526598D01*
X106326457Y-84531913D01*
X106306502Y-84760000D01*
X104705904Y-84760000D01*
X108012253Y-81453652D01*
X108020539Y-81446112D01*
X108027018Y-81442000D01*
X108073644Y-81392348D01*
X108076398Y-81389507D01*
X108096135Y-81369770D01*
X108098615Y-81366573D01*
X108106320Y-81357551D01*
X108131159Y-81331100D01*
X108136586Y-81325321D01*
X108140405Y-81318375D01*
X108140407Y-81318372D01*
X108146348Y-81307566D01*
X108157199Y-81291047D01*
X108164758Y-81281301D01*
X108169614Y-81275041D01*
X108172759Y-81267772D01*
X108172762Y-81267768D01*
X108187174Y-81234463D01*
X108192391Y-81223813D01*
X108213695Y-81185060D01*
X108218733Y-81165437D01*
X108225137Y-81146734D01*
X108230033Y-81135420D01*
X108230033Y-81135419D01*
X108233181Y-81128145D01*
X108234420Y-81120322D01*
X108234423Y-81120312D01*
X108240099Y-81084476D01*
X108242505Y-81072856D01*
X108251528Y-81037711D01*
X108251528Y-81037710D01*
X108253500Y-81030030D01*
X108253500Y-81009776D01*
X108255051Y-80990065D01*
X108256980Y-80977886D01*
X108258220Y-80970057D01*
X108254059Y-80926038D01*
X108253500Y-80914181D01*
X108253500Y-80899394D01*
X108273502Y-80831273D01*
X108307229Y-80796181D01*
X108459789Y-80689357D01*
X108459792Y-80689355D01*
X108464300Y-80686198D01*
X108626198Y-80524300D01*
X108639170Y-80505775D01*
X108732170Y-80372957D01*
X108757523Y-80336749D01*
X108759846Y-80331767D01*
X108759849Y-80331762D01*
X108851961Y-80134225D01*
X108851961Y-80134224D01*
X108854284Y-80129243D01*
X108882992Y-80022106D01*
X108912119Y-79913402D01*
X108912119Y-79913400D01*
X108913543Y-79908087D01*
X108933498Y-79680000D01*
X108913543Y-79451913D01*
X108854284Y-79230757D01*
X108851961Y-79225775D01*
X108759849Y-79028238D01*
X108759846Y-79028233D01*
X108757523Y-79023251D01*
X108626198Y-78835700D01*
X108464300Y-78673802D01*
X108459792Y-78670645D01*
X108459789Y-78670643D01*
X108322482Y-78574500D01*
X108276749Y-78542477D01*
X108271767Y-78540154D01*
X108271762Y-78540151D01*
X108074225Y-78448039D01*
X108074224Y-78448039D01*
X108069243Y-78445716D01*
X108063935Y-78444294D01*
X108063933Y-78444293D01*
X107853402Y-78387881D01*
X107853400Y-78387881D01*
X107848087Y-78386457D01*
X107620000Y-78366502D01*
X107391913Y-78386457D01*
X107386600Y-78387881D01*
X107386598Y-78387881D01*
X107176067Y-78444293D01*
X107176065Y-78444294D01*
X107170757Y-78445716D01*
X107165776Y-78448039D01*
X107165775Y-78448039D01*
X106968238Y-78540151D01*
X106968233Y-78540154D01*
X106963251Y-78542477D01*
X106917518Y-78574500D01*
X106780211Y-78670643D01*
X106780208Y-78670645D01*
X106775700Y-78673802D01*
X106613802Y-78835700D01*
X106482477Y-79023251D01*
X106480154Y-79028233D01*
X106480151Y-79028238D01*
X106388039Y-79225775D01*
X106385716Y-79230757D01*
X106326457Y-79451913D01*
X106306502Y-79680000D01*
X106326457Y-79908087D01*
X106327881Y-79913400D01*
X106327881Y-79913402D01*
X106357009Y-80022106D01*
X106385716Y-80129243D01*
X106388039Y-80134224D01*
X106388039Y-80134225D01*
X106480151Y-80331762D01*
X106480154Y-80331767D01*
X106482477Y-80336749D01*
X106507830Y-80372957D01*
X106600831Y-80505775D01*
X106613802Y-80524300D01*
X106775700Y-80686198D01*
X106780211Y-80689357D01*
X106784424Y-80692892D01*
X106783106Y-80694463D01*
X106821841Y-80742941D01*
X106829136Y-80813562D01*
X106794327Y-80879769D01*
X103996026Y-83678070D01*
X103933714Y-83712096D01*
X103862899Y-83707031D01*
X103806063Y-83664484D01*
X103785224Y-83621586D01*
X103775707Y-83586067D01*
X103775706Y-83586065D01*
X103774284Y-83580757D01*
X103771961Y-83575775D01*
X103679849Y-83378238D01*
X103679846Y-83378233D01*
X103677523Y-83373251D01*
X103546198Y-83185700D01*
X103384300Y-83023802D01*
X103379792Y-83020645D01*
X103379789Y-83020643D01*
X103301611Y-82965902D01*
X103196749Y-82892477D01*
X103191767Y-82890154D01*
X103191762Y-82890151D01*
X102994225Y-82798039D01*
X102994224Y-82798039D01*
X102989243Y-82795716D01*
X102983935Y-82794294D01*
X102983933Y-82794293D01*
X102773402Y-82737881D01*
X102773400Y-82737881D01*
X102768087Y-82736457D01*
X102540000Y-82716502D01*
X102311913Y-82736457D01*
X102306600Y-82737881D01*
X102306598Y-82737881D01*
X102096067Y-82794293D01*
X102096065Y-82794294D01*
X102090757Y-82795716D01*
X102085776Y-82798039D01*
X102085775Y-82798039D01*
X101888238Y-82890151D01*
X101888233Y-82890154D01*
X101883251Y-82892477D01*
X101778389Y-82965902D01*
X101700211Y-83020643D01*
X101700208Y-83020645D01*
X101695700Y-83023802D01*
X101533802Y-83185700D01*
X101402477Y-83373251D01*
X101400154Y-83378233D01*
X101400151Y-83378238D01*
X101308039Y-83575775D01*
X101305716Y-83580757D01*
X101304294Y-83586065D01*
X101304293Y-83586067D01*
X101260195Y-83750643D01*
X101246457Y-83801913D01*
X101226502Y-84030000D01*
X101246457Y-84258087D01*
X101247881Y-84263400D01*
X101247881Y-84263402D01*
X101289096Y-84417215D01*
X101305716Y-84479243D01*
X101308039Y-84484224D01*
X101308039Y-84484225D01*
X101400151Y-84681762D01*
X101400154Y-84681767D01*
X101402477Y-84686749D01*
X101533802Y-84874300D01*
X101600407Y-84940905D01*
X101634433Y-85003217D01*
X101629368Y-85074032D01*
X101600407Y-85119095D01*
X101533802Y-85185700D01*
X101530645Y-85190208D01*
X101530643Y-85190211D01*
X101512044Y-85216773D01*
X101402477Y-85373251D01*
X101400154Y-85378233D01*
X101400151Y-85378238D01*
X101308039Y-85575775D01*
X101305716Y-85580757D01*
X101304294Y-85586065D01*
X101304293Y-85586067D01*
X101256027Y-85766198D01*
X101246457Y-85801913D01*
X101226502Y-86030000D01*
X95633500Y-86030000D01*
X95633500Y-85284894D01*
X95653502Y-85216773D01*
X95670405Y-85195799D01*
X98820142Y-82046062D01*
X100588493Y-82046062D01*
X100597789Y-82058077D01*
X100648994Y-82093931D01*
X100658489Y-82099414D01*
X100855947Y-82191490D01*
X100866239Y-82195236D01*
X101076688Y-82251625D01*
X101087481Y-82253528D01*
X101304525Y-82272517D01*
X101315475Y-82272517D01*
X101532519Y-82253528D01*
X101543312Y-82251625D01*
X101753761Y-82195236D01*
X101764053Y-82191490D01*
X101961511Y-82099414D01*
X101971006Y-82093931D01*
X102023048Y-82057491D01*
X102031424Y-82047012D01*
X102024356Y-82033566D01*
X101322812Y-81332022D01*
X101308868Y-81324408D01*
X101307035Y-81324539D01*
X101300420Y-81328790D01*
X100594923Y-82034287D01*
X100588493Y-82046062D01*
X98820142Y-82046062D01*
X99798633Y-81067571D01*
X99860945Y-81033545D01*
X99931760Y-81038610D01*
X99988596Y-81081157D01*
X100013249Y-81145684D01*
X100016472Y-81182520D01*
X100018375Y-81193312D01*
X100074764Y-81403761D01*
X100078510Y-81414053D01*
X100170586Y-81611511D01*
X100176069Y-81621006D01*
X100212509Y-81673048D01*
X100222988Y-81681424D01*
X100236434Y-81674356D01*
X102025077Y-79885713D01*
X102031507Y-79873938D01*
X102022211Y-79861923D01*
X101971006Y-79826069D01*
X101961511Y-79820586D01*
X101764053Y-79728510D01*
X101753761Y-79724764D01*
X101543312Y-79668375D01*
X101532520Y-79666472D01*
X101362766Y-79651620D01*
X101296648Y-79625756D01*
X101255009Y-79568253D01*
X101249299Y-79506388D01*
X101255097Y-79469782D01*
X101257504Y-79458160D01*
X101266528Y-79423011D01*
X101266528Y-79423010D01*
X101268500Y-79415330D01*
X101268500Y-79395069D01*
X101270051Y-79375358D01*
X101271979Y-79363185D01*
X101273219Y-79355357D01*
X101269059Y-79311346D01*
X101268500Y-79299489D01*
X101268500Y-69248503D01*
X102138606Y-69248503D01*
X102138942Y-69262599D01*
X102146884Y-69266000D01*
X103547885Y-69266000D01*
X103563124Y-69261525D01*
X103564329Y-69260135D01*
X103566000Y-69252452D01*
X103566000Y-68230115D01*
X103561525Y-68214876D01*
X103560135Y-68213671D01*
X103552452Y-68212000D01*
X103365635Y-68212000D01*
X103360170Y-68212238D01*
X103197481Y-68226472D01*
X103186688Y-68228375D01*
X102976239Y-68284764D01*
X102965947Y-68288510D01*
X102768489Y-68380586D01*
X102758993Y-68386069D01*
X102580533Y-68511028D01*
X102572125Y-68518084D01*
X102418084Y-68672125D01*
X102411028Y-68680533D01*
X102286069Y-68858993D01*
X102280586Y-68868489D01*
X102188510Y-69065947D01*
X102184764Y-69076239D01*
X102138606Y-69248503D01*
X101268500Y-69248503D01*
X101268500Y-66527905D01*
X101288502Y-66459784D01*
X101342158Y-66413291D01*
X101412432Y-66403187D01*
X101477012Y-66432681D01*
X101497713Y-66455634D01*
X101553829Y-66535775D01*
X101573802Y-66564300D01*
X101735700Y-66726198D01*
X101740208Y-66729355D01*
X101740211Y-66729357D01*
X101786706Y-66761913D01*
X101923251Y-66857523D01*
X101928233Y-66859846D01*
X101928238Y-66859849D01*
X102124765Y-66951490D01*
X102130757Y-66954284D01*
X102136065Y-66955706D01*
X102136067Y-66955707D01*
X102346598Y-67012119D01*
X102346600Y-67012119D01*
X102351913Y-67013543D01*
X102580000Y-67033498D01*
X102808087Y-67013543D01*
X102813398Y-67012120D01*
X102813409Y-67012118D01*
X102871541Y-66996541D01*
X102942517Y-66998230D01*
X102993248Y-67029152D01*
X104046011Y-68081915D01*
X104080037Y-68144227D01*
X104080037Y-68197791D01*
X104074000Y-68225545D01*
X104074000Y-69648000D01*
X104053998Y-69716121D01*
X104000342Y-69762614D01*
X103948000Y-69774000D01*
X102152033Y-69774000D01*
X102138502Y-69777973D01*
X102137273Y-69786522D01*
X102184764Y-69963761D01*
X102188510Y-69974053D01*
X102280586Y-70171511D01*
X102286069Y-70181007D01*
X102411028Y-70359467D01*
X102418084Y-70367875D01*
X102572125Y-70521916D01*
X102580533Y-70528972D01*
X102758993Y-70653931D01*
X102768489Y-70659414D01*
X102803049Y-70675529D01*
X102856334Y-70722446D01*
X102875795Y-70790723D01*
X102855253Y-70858683D01*
X102803049Y-70903919D01*
X102768238Y-70920151D01*
X102768233Y-70920154D01*
X102763251Y-70922477D01*
X102658389Y-70995902D01*
X102580211Y-71050643D01*
X102580208Y-71050645D01*
X102575700Y-71053802D01*
X102413802Y-71215700D01*
X102282477Y-71403251D01*
X102280154Y-71408233D01*
X102280151Y-71408238D01*
X102190950Y-71599532D01*
X102185716Y-71610757D01*
X102184294Y-71616065D01*
X102184293Y-71616067D01*
X102129946Y-71818892D01*
X102126457Y-71831913D01*
X102106502Y-72060000D01*
X102126457Y-72288087D01*
X102127881Y-72293400D01*
X102127881Y-72293402D01*
X102174520Y-72467458D01*
X102185716Y-72509243D01*
X102188039Y-72514224D01*
X102188039Y-72514225D01*
X102280151Y-72711762D01*
X102280154Y-72711767D01*
X102282477Y-72716749D01*
X102413802Y-72904300D01*
X102575700Y-73066198D01*
X102580208Y-73069355D01*
X102580211Y-73069357D01*
X102606329Y-73087645D01*
X102763251Y-73197523D01*
X102768233Y-73199846D01*
X102768238Y-73199849D01*
X102802457Y-73215805D01*
X102855742Y-73262722D01*
X102875203Y-73330999D01*
X102854661Y-73398959D01*
X102802457Y-73444195D01*
X102768238Y-73460151D01*
X102768233Y-73460154D01*
X102763251Y-73462477D01*
X102658389Y-73535902D01*
X102580211Y-73590643D01*
X102580208Y-73590645D01*
X102575700Y-73593802D01*
X102413802Y-73755700D01*
X102282477Y-73943251D01*
X102280154Y-73948233D01*
X102280151Y-73948238D01*
X102217834Y-74081879D01*
X102185716Y-74150757D01*
X102126457Y-74371913D01*
X102106502Y-74600000D01*
X102126457Y-74828087D01*
X102185716Y-75049243D01*
X102188039Y-75054224D01*
X102188039Y-75054225D01*
X102280151Y-75251762D01*
X102280154Y-75251767D01*
X102282477Y-75256749D01*
X102413802Y-75444300D01*
X102575700Y-75606198D01*
X102580208Y-75609355D01*
X102580211Y-75609357D01*
X102640009Y-75651228D01*
X102763251Y-75737523D01*
X102768233Y-75739846D01*
X102768238Y-75739849D01*
X102802457Y-75755805D01*
X102855742Y-75802722D01*
X102875203Y-75870999D01*
X102854661Y-75938959D01*
X102802457Y-75984195D01*
X102768238Y-76000151D01*
X102768233Y-76000154D01*
X102763251Y-76002477D01*
X102668515Y-76068812D01*
X102580211Y-76130643D01*
X102580208Y-76130645D01*
X102575700Y-76133802D01*
X102413802Y-76295700D01*
X102410645Y-76300208D01*
X102410643Y-76300211D01*
X102406800Y-76305700D01*
X102282477Y-76483251D01*
X102280154Y-76488233D01*
X102280151Y-76488238D01*
X102275488Y-76498238D01*
X102185716Y-76690757D01*
X102184294Y-76696065D01*
X102184293Y-76696067D01*
X102172293Y-76740851D01*
X102126457Y-76911913D01*
X102106502Y-77140000D01*
X102126457Y-77368087D01*
X102127881Y-77373400D01*
X102127881Y-77373402D01*
X102129137Y-77378087D01*
X102185716Y-77589243D01*
X102188039Y-77594224D01*
X102188039Y-77594225D01*
X102280151Y-77791762D01*
X102280154Y-77791767D01*
X102282477Y-77796749D01*
X102413802Y-77984300D01*
X102575700Y-78146198D01*
X102580208Y-78149355D01*
X102580211Y-78149357D01*
X102589981Y-78156198D01*
X102763251Y-78277523D01*
X102853751Y-78319723D01*
X102907035Y-78366640D01*
X102926500Y-78433918D01*
X102926500Y-79940812D01*
X102906498Y-80008933D01*
X102889595Y-80029907D01*
X102803802Y-80115700D01*
X102800645Y-80120208D01*
X102800643Y-80120211D01*
X102728056Y-80223876D01*
X102672477Y-80303251D01*
X102670153Y-80308235D01*
X102668829Y-80310528D01*
X102617447Y-80359521D01*
X102547733Y-80372957D01*
X102481822Y-80346571D01*
X102450591Y-80310528D01*
X102443934Y-80298998D01*
X102407491Y-80246952D01*
X102397012Y-80238576D01*
X102383566Y-80245644D01*
X101682022Y-80947188D01*
X101674408Y-80961132D01*
X101674539Y-80962965D01*
X101678790Y-80969580D01*
X102384287Y-81675077D01*
X102396062Y-81681507D01*
X102408077Y-81672211D01*
X102443934Y-81621002D01*
X102450591Y-81609472D01*
X102501973Y-81560479D01*
X102571687Y-81547042D01*
X102637598Y-81573429D01*
X102668829Y-81609472D01*
X102670153Y-81611765D01*
X102672477Y-81616749D01*
X102803802Y-81804300D01*
X102965700Y-81966198D01*
X102970208Y-81969355D01*
X102970211Y-81969357D01*
X102993826Y-81985892D01*
X103153251Y-82097523D01*
X103158233Y-82099846D01*
X103158238Y-82099849D01*
X103354765Y-82191490D01*
X103360757Y-82194284D01*
X103366065Y-82195706D01*
X103366067Y-82195707D01*
X103576598Y-82252119D01*
X103576600Y-82252119D01*
X103581913Y-82253543D01*
X103810000Y-82273498D01*
X104038087Y-82253543D01*
X104043400Y-82252119D01*
X104043402Y-82252119D01*
X104253933Y-82195707D01*
X104253935Y-82195706D01*
X104259243Y-82194284D01*
X104265235Y-82191490D01*
X104461762Y-82099849D01*
X104461767Y-82099846D01*
X104466749Y-82097523D01*
X104626174Y-81985892D01*
X104649789Y-81969357D01*
X104649792Y-81969355D01*
X104654300Y-81966198D01*
X104816198Y-81804300D01*
X104947523Y-81616749D01*
X104949846Y-81611767D01*
X104949849Y-81611762D01*
X105041961Y-81414225D01*
X105041961Y-81414224D01*
X105044284Y-81409243D01*
X105049194Y-81390921D01*
X105102119Y-81193402D01*
X105102119Y-81193400D01*
X105103543Y-81188087D01*
X105123498Y-80960000D01*
X105103543Y-80731913D01*
X105091294Y-80686198D01*
X105045707Y-80516067D01*
X105045706Y-80516065D01*
X105044284Y-80510757D01*
X105015458Y-80448938D01*
X104949849Y-80308238D01*
X104949846Y-80308233D01*
X104947523Y-80303251D01*
X104874098Y-80198389D01*
X104819357Y-80120211D01*
X104819355Y-80120208D01*
X104816198Y-80115700D01*
X104730405Y-80029907D01*
X104696379Y-79967595D01*
X104693500Y-79940812D01*
X104693500Y-78443244D01*
X104713502Y-78375123D01*
X104766251Y-78329049D01*
X104871758Y-78279851D01*
X104871764Y-78279848D01*
X104876749Y-78277523D01*
X105050019Y-78156198D01*
X105059789Y-78149357D01*
X105059792Y-78149355D01*
X105064300Y-78146198D01*
X105226198Y-77984300D01*
X105357523Y-77796749D01*
X105359846Y-77791767D01*
X105359849Y-77791762D01*
X105451961Y-77594225D01*
X105451961Y-77594224D01*
X105454284Y-77589243D01*
X105510864Y-77378087D01*
X105512119Y-77373402D01*
X105512119Y-77373400D01*
X105513543Y-77368087D01*
X105533498Y-77140000D01*
X105513543Y-76911913D01*
X105486725Y-76811827D01*
X105488415Y-76740851D01*
X105519337Y-76690121D01*
X109563053Y-72646404D01*
X109578088Y-72633563D01*
X109583595Y-72629562D01*
X109583601Y-72629557D01*
X109588945Y-72625674D01*
X109633406Y-72576295D01*
X109637947Y-72571510D01*
X109651983Y-72557474D01*
X109664480Y-72542042D01*
X109668764Y-72537027D01*
X109708794Y-72492569D01*
X109708798Y-72492564D01*
X109713215Y-72487658D01*
X109719923Y-72476040D01*
X109731118Y-72459752D01*
X109735401Y-72454463D01*
X109735402Y-72454462D01*
X109739559Y-72449328D01*
X109753233Y-72422491D01*
X109801981Y-72370875D01*
X109870896Y-72353809D01*
X109938097Y-72376709D01*
X109982250Y-72432307D01*
X109991500Y-72479693D01*
X109991500Y-139365500D01*
X109971498Y-139433621D01*
X109917842Y-139480114D01*
X109865500Y-139491500D01*
X92888882Y-139491500D01*
X92820761Y-139471498D01*
X92774268Y-139417842D01*
X92764164Y-139347568D01*
X92793658Y-139282988D01*
X92835632Y-139251305D01*
X93031762Y-139159849D01*
X93031767Y-139159846D01*
X93036749Y-139157523D01*
X93141611Y-139084098D01*
X93219789Y-139029357D01*
X93219792Y-139029355D01*
X93224300Y-139026198D01*
X93386198Y-138864300D01*
X93389357Y-138859789D01*
X93494773Y-138709240D01*
X93550230Y-138664912D01*
X93594026Y-138655573D01*
X93654856Y-138653660D01*
X93657986Y-138653562D01*
X93661945Y-138653500D01*
X93689856Y-138653500D01*
X93693791Y-138653003D01*
X93693856Y-138652995D01*
X93705693Y-138652062D01*
X93737951Y-138651048D01*
X93741970Y-138650922D01*
X93749889Y-138650673D01*
X93769343Y-138645021D01*
X93788700Y-138641013D01*
X93800930Y-138639468D01*
X93800931Y-138639468D01*
X93808797Y-138638474D01*
X93816168Y-138635555D01*
X93816170Y-138635555D01*
X93849912Y-138622196D01*
X93861142Y-138618351D01*
X93895983Y-138608229D01*
X93895984Y-138608229D01*
X93903593Y-138606018D01*
X93910412Y-138601985D01*
X93910417Y-138601983D01*
X93921028Y-138595707D01*
X93938776Y-138587012D01*
X93957617Y-138579552D01*
X93993387Y-138553564D01*
X94003307Y-138547048D01*
X94034535Y-138528580D01*
X94034538Y-138528578D01*
X94041362Y-138524542D01*
X94055683Y-138510221D01*
X94070717Y-138497380D01*
X94080694Y-138490131D01*
X94087107Y-138485472D01*
X94115298Y-138451395D01*
X94123288Y-138442616D01*
X96812890Y-135753014D01*
X96875202Y-135718988D01*
X96938652Y-135724568D01*
X96939500Y-135721838D01*
X97162917Y-135791210D01*
X97168204Y-135791911D01*
X97168205Y-135791911D01*
X97389545Y-135821248D01*
X97389549Y-135821248D01*
X97394829Y-135821948D01*
X97400158Y-135821748D01*
X97400160Y-135821748D01*
X97511716Y-135817560D01*
X97628604Y-135813172D01*
X97740813Y-135789628D01*
X97852332Y-135766229D01*
X97852335Y-135766228D01*
X97857559Y-135765132D01*
X98075146Y-135679203D01*
X98184860Y-135612627D01*
X98270583Y-135560609D01*
X98270586Y-135560607D01*
X98275144Y-135557841D01*
X98451834Y-135404517D01*
X98482761Y-135366799D01*
X98541421Y-135326804D01*
X98612391Y-135324873D01*
X98673139Y-135361617D01*
X98688220Y-135384157D01*
X98688906Y-135383732D01*
X98778063Y-135527807D01*
X98787099Y-135539208D01*
X98901829Y-135653739D01*
X98913240Y-135662751D01*
X99051243Y-135747816D01*
X99064424Y-135753963D01*
X99218710Y-135805138D01*
X99232086Y-135808005D01*
X99326438Y-135817672D01*
X99332854Y-135818000D01*
X99727885Y-135818000D01*
X99743124Y-135813525D01*
X99744329Y-135812135D01*
X99746000Y-135804452D01*
X99746000Y-135799884D01*
X100254000Y-135799884D01*
X100258475Y-135815123D01*
X100259865Y-135816328D01*
X100267548Y-135817999D01*
X100667095Y-135817999D01*
X100673614Y-135817662D01*
X100769206Y-135807743D01*
X100782600Y-135804851D01*
X100936784Y-135753412D01*
X100949962Y-135747239D01*
X101087807Y-135661937D01*
X101099208Y-135652901D01*
X101213739Y-135538171D01*
X101222751Y-135526760D01*
X101307816Y-135388757D01*
X101313963Y-135375576D01*
X101365138Y-135221290D01*
X101368005Y-135207914D01*
X101377672Y-135113562D01*
X101378000Y-135107146D01*
X101378000Y-134482115D01*
X101373525Y-134466876D01*
X101372135Y-134465671D01*
X101364452Y-134464000D01*
X100272115Y-134464000D01*
X100256876Y-134468475D01*
X100255671Y-134469865D01*
X100254000Y-134477548D01*
X100254000Y-135799884D01*
X99746000Y-135799884D01*
X99746000Y-133937885D01*
X100254000Y-133937885D01*
X100258475Y-133953124D01*
X100259865Y-133954329D01*
X100267548Y-133956000D01*
X101359884Y-133956000D01*
X101375123Y-133951525D01*
X101376328Y-133950135D01*
X101377999Y-133942452D01*
X101377999Y-133312905D01*
X101377662Y-133306386D01*
X101367743Y-133210794D01*
X101364851Y-133197400D01*
X101313412Y-133043216D01*
X101307239Y-133030038D01*
X101221937Y-132892193D01*
X101212901Y-132880792D01*
X101098171Y-132766261D01*
X101086760Y-132757249D01*
X100948757Y-132672184D01*
X100935576Y-132666037D01*
X100781290Y-132614862D01*
X100767914Y-132611995D01*
X100673562Y-132602328D01*
X100667145Y-132602000D01*
X100272115Y-132602000D01*
X100256876Y-132606475D01*
X100255671Y-132607865D01*
X100254000Y-132615548D01*
X100254000Y-133937885D01*
X99746000Y-133937885D01*
X99746000Y-132620116D01*
X99741525Y-132604877D01*
X99740135Y-132603672D01*
X99732452Y-132602001D01*
X99332905Y-132602001D01*
X99326386Y-132602338D01*
X99230794Y-132612257D01*
X99217400Y-132615149D01*
X99063216Y-132666588D01*
X99050038Y-132672761D01*
X98912193Y-132758063D01*
X98900792Y-132767099D01*
X98786261Y-132881829D01*
X98777249Y-132893240D01*
X98688342Y-133037475D01*
X98686245Y-133036183D01*
X98647044Y-133080692D01*
X98578764Y-133100144D01*
X98510807Y-133079593D01*
X98488614Y-133061122D01*
X98376724Y-132943832D01*
X98189035Y-132804187D01*
X98184284Y-132801771D01*
X98184280Y-132801769D01*
X97985256Y-132700580D01*
X97985255Y-132700580D01*
X97980500Y-132698162D01*
X97757083Y-132628790D01*
X97751796Y-132628089D01*
X97751795Y-132628089D01*
X97530455Y-132598752D01*
X97530451Y-132598752D01*
X97525171Y-132598052D01*
X97519842Y-132598252D01*
X97519840Y-132598252D01*
X97408283Y-132602440D01*
X97291396Y-132606828D01*
X97207411Y-132624450D01*
X97067668Y-132653771D01*
X97067665Y-132653772D01*
X97062441Y-132654868D01*
X96844854Y-132740797D01*
X96840290Y-132743566D01*
X96840291Y-132743566D01*
X96649417Y-132859391D01*
X96649414Y-132859393D01*
X96644856Y-132862159D01*
X96468166Y-133015483D01*
X96319835Y-133196386D01*
X96204104Y-133399695D01*
X96124284Y-133619596D01*
X96082656Y-133849803D01*
X96081500Y-133874316D01*
X96081500Y-134498738D01*
X96091712Y-134619089D01*
X96077541Y-134688657D01*
X96055258Y-134718837D01*
X93579768Y-137194327D01*
X93517456Y-137228353D01*
X93446641Y-137223288D01*
X93394582Y-137183005D01*
X93392892Y-137184424D01*
X93389357Y-137180211D01*
X93386198Y-137175700D01*
X93224300Y-137013802D01*
X93219792Y-137010645D01*
X93219789Y-137010643D01*
X93141611Y-136955902D01*
X93036749Y-136882477D01*
X93031767Y-136880154D01*
X93031762Y-136880151D01*
X92834225Y-136788039D01*
X92834224Y-136788039D01*
X92829243Y-136785716D01*
X92823935Y-136784294D01*
X92823933Y-136784293D01*
X92613402Y-136727881D01*
X92613400Y-136727881D01*
X92608087Y-136726457D01*
X92380000Y-136706502D01*
X92151913Y-136726457D01*
X92146600Y-136727881D01*
X92146598Y-136727881D01*
X91936067Y-136784293D01*
X91936065Y-136784294D01*
X91930757Y-136785716D01*
X91925776Y-136788039D01*
X91925775Y-136788039D01*
X91728238Y-136880151D01*
X91728233Y-136880154D01*
X91723251Y-136882477D01*
X91618389Y-136955902D01*
X91540211Y-137010643D01*
X91540208Y-137010645D01*
X91535700Y-137013802D01*
X91373802Y-137175700D01*
X91242477Y-137363251D01*
X91240154Y-137368233D01*
X91240151Y-137368238D01*
X91148039Y-137565775D01*
X91145716Y-137570757D01*
X91086457Y-137791913D01*
X91066502Y-138020000D01*
X91086457Y-138248087D01*
X91087881Y-138253400D01*
X91087881Y-138253402D01*
X91140934Y-138451395D01*
X91145716Y-138469243D01*
X91148039Y-138474224D01*
X91148039Y-138474225D01*
X91240151Y-138671762D01*
X91240154Y-138671767D01*
X91242477Y-138676749D01*
X91373802Y-138864300D01*
X91535700Y-139026198D01*
X91540208Y-139029355D01*
X91540211Y-139029357D01*
X91618389Y-139084098D01*
X91723251Y-139157523D01*
X91728233Y-139159846D01*
X91728238Y-139159849D01*
X91924368Y-139251305D01*
X91977653Y-139298222D01*
X91997114Y-139366499D01*
X91976572Y-139434459D01*
X91922550Y-139480525D01*
X91871118Y-139491500D01*
X90134500Y-139491500D01*
X90066379Y-139471498D01*
X90019886Y-139417842D01*
X90008500Y-139365500D01*
X90008500Y-86296522D01*
X91097273Y-86296522D01*
X91144764Y-86473761D01*
X91148510Y-86484053D01*
X91240586Y-86681511D01*
X91246069Y-86691007D01*
X91371028Y-86869467D01*
X91378084Y-86877875D01*
X91532125Y-87031916D01*
X91540533Y-87038972D01*
X91718993Y-87163931D01*
X91728489Y-87169414D01*
X91925947Y-87261490D01*
X91936239Y-87265236D01*
X92108503Y-87311394D01*
X92122599Y-87311058D01*
X92126000Y-87303116D01*
X92126000Y-86302115D01*
X92121525Y-86286876D01*
X92120135Y-86285671D01*
X92112452Y-86284000D01*
X91112033Y-86284000D01*
X91098502Y-86287973D01*
X91097273Y-86296522D01*
X90008500Y-86296522D01*
X90008500Y-85758503D01*
X91098606Y-85758503D01*
X91098942Y-85772599D01*
X91106884Y-85776000D01*
X92107885Y-85776000D01*
X92123124Y-85771525D01*
X92124329Y-85770135D01*
X92126000Y-85762452D01*
X92126000Y-84762033D01*
X92122027Y-84748502D01*
X92113478Y-84747273D01*
X91936239Y-84794764D01*
X91925947Y-84798510D01*
X91728489Y-84890586D01*
X91718993Y-84896069D01*
X91540533Y-85021028D01*
X91532125Y-85028084D01*
X91378084Y-85182125D01*
X91371028Y-85190533D01*
X91246069Y-85368993D01*
X91240586Y-85378489D01*
X91148510Y-85575947D01*
X91144764Y-85586239D01*
X91098606Y-85758503D01*
X90008500Y-85758503D01*
X90008500Y-51750000D01*
X91066502Y-51750000D01*
X91086457Y-51978087D01*
X91087881Y-51983400D01*
X91087881Y-51983402D01*
X91141614Y-52183933D01*
X91145716Y-52199243D01*
X91148039Y-52204224D01*
X91148039Y-52204225D01*
X91240151Y-52401762D01*
X91240154Y-52401767D01*
X91242477Y-52406749D01*
X91245634Y-52411257D01*
X91369529Y-52588197D01*
X91373802Y-52594300D01*
X91535700Y-52756198D01*
X91540208Y-52759355D01*
X91540211Y-52759357D01*
X91618389Y-52814098D01*
X91723251Y-52887523D01*
X91728233Y-52889846D01*
X91728238Y-52889849D01*
X91912363Y-52975707D01*
X91930757Y-52984284D01*
X91936065Y-52985706D01*
X91936067Y-52985707D01*
X92146598Y-53042119D01*
X92146600Y-53042119D01*
X92151913Y-53043543D01*
X92380000Y-53063498D01*
X92608087Y-53043543D01*
X92613400Y-53042119D01*
X92613402Y-53042119D01*
X92823933Y-52985707D01*
X92823935Y-52985706D01*
X92829243Y-52984284D01*
X92847637Y-52975707D01*
X93031762Y-52889849D01*
X93031767Y-52889846D01*
X93036749Y-52887523D01*
X93141611Y-52814098D01*
X93219789Y-52759357D01*
X93219792Y-52759355D01*
X93224300Y-52756198D01*
X93386198Y-52594300D01*
X93390472Y-52588197D01*
X93514366Y-52411257D01*
X93517523Y-52406749D01*
X93519846Y-52401767D01*
X93519849Y-52401762D01*
X93611961Y-52204225D01*
X93611961Y-52204224D01*
X93614284Y-52199243D01*
X93618387Y-52183933D01*
X93672119Y-51983402D01*
X93672119Y-51983400D01*
X93673543Y-51978087D01*
X93693498Y-51750000D01*
X93673543Y-51521913D01*
X93672119Y-51516598D01*
X93615707Y-51306067D01*
X93615706Y-51306065D01*
X93614284Y-51300757D01*
X93607298Y-51285775D01*
X93519849Y-51098238D01*
X93519846Y-51098233D01*
X93517523Y-51093251D01*
X93386198Y-50905700D01*
X93224300Y-50743802D01*
X93219792Y-50740645D01*
X93219789Y-50740643D01*
X93141611Y-50685902D01*
X93036749Y-50612477D01*
X93031767Y-50610154D01*
X93031762Y-50610151D01*
X92834225Y-50518039D01*
X92834224Y-50518039D01*
X92829243Y-50515716D01*
X92823935Y-50514294D01*
X92823933Y-50514293D01*
X92613402Y-50457881D01*
X92613400Y-50457881D01*
X92608087Y-50456457D01*
X92380000Y-50436502D01*
X92151913Y-50456457D01*
X92146600Y-50457881D01*
X92146598Y-50457881D01*
X91936067Y-50514293D01*
X91936065Y-50514294D01*
X91930757Y-50515716D01*
X91925776Y-50518039D01*
X91925775Y-50518039D01*
X91728238Y-50610151D01*
X91728233Y-50610154D01*
X91723251Y-50612477D01*
X91618389Y-50685902D01*
X91540211Y-50740643D01*
X91540208Y-50740645D01*
X91535700Y-50743802D01*
X91373802Y-50905700D01*
X91242477Y-51093251D01*
X91240154Y-51098233D01*
X91240151Y-51098238D01*
X91152702Y-51285775D01*
X91145716Y-51300757D01*
X91144294Y-51306065D01*
X91144293Y-51306067D01*
X91087881Y-51516598D01*
X91086457Y-51521913D01*
X91066502Y-51750000D01*
X90008500Y-51750000D01*
X90008500Y-49016062D01*
X91738493Y-49016062D01*
X91747789Y-49028077D01*
X91798994Y-49063931D01*
X91808489Y-49069414D01*
X92005947Y-49161490D01*
X92016239Y-49165236D01*
X92226688Y-49221625D01*
X92237481Y-49223528D01*
X92454525Y-49242517D01*
X92465475Y-49242517D01*
X92682519Y-49223528D01*
X92693312Y-49221625D01*
X92903761Y-49165236D01*
X92914053Y-49161490D01*
X93111511Y-49069414D01*
X93121006Y-49063931D01*
X93173048Y-49027491D01*
X93181424Y-49017012D01*
X93174356Y-49003566D01*
X92472812Y-48302022D01*
X92458868Y-48294408D01*
X92457035Y-48294539D01*
X92450420Y-48298790D01*
X91744923Y-49004287D01*
X91738493Y-49016062D01*
X90008500Y-49016062D01*
X90008500Y-47935475D01*
X91147483Y-47935475D01*
X91166472Y-48152519D01*
X91168375Y-48163312D01*
X91224764Y-48373761D01*
X91228510Y-48384053D01*
X91320586Y-48581511D01*
X91326069Y-48591006D01*
X91362509Y-48643048D01*
X91372988Y-48651424D01*
X91386434Y-48644356D01*
X92087978Y-47942812D01*
X92094356Y-47931132D01*
X92824408Y-47931132D01*
X92824539Y-47932965D01*
X92828790Y-47939580D01*
X93534287Y-48645077D01*
X93546062Y-48651507D01*
X93558077Y-48642211D01*
X93593931Y-48591006D01*
X93599414Y-48581511D01*
X93691490Y-48384053D01*
X93695236Y-48373761D01*
X93751625Y-48163312D01*
X93753528Y-48152519D01*
X93772517Y-47935475D01*
X93772517Y-47924525D01*
X93753528Y-47707481D01*
X93751625Y-47696688D01*
X93695236Y-47486239D01*
X93691490Y-47475947D01*
X93599414Y-47278489D01*
X93593931Y-47268994D01*
X93557491Y-47216952D01*
X93547012Y-47208576D01*
X93533566Y-47215644D01*
X92832022Y-47917188D01*
X92824408Y-47931132D01*
X92094356Y-47931132D01*
X92095592Y-47928868D01*
X92095461Y-47927035D01*
X92091210Y-47920420D01*
X91385713Y-47214923D01*
X91373938Y-47208493D01*
X91361923Y-47217789D01*
X91326069Y-47268994D01*
X91320586Y-47278489D01*
X91228510Y-47475947D01*
X91224764Y-47486239D01*
X91168375Y-47696688D01*
X91166472Y-47707481D01*
X91147483Y-47924525D01*
X91147483Y-47935475D01*
X90008500Y-47935475D01*
X90008500Y-46842988D01*
X91738576Y-46842988D01*
X91745644Y-46856434D01*
X92447188Y-47557978D01*
X92461132Y-47565592D01*
X92462965Y-47565461D01*
X92469580Y-47561210D01*
X93175077Y-46855713D01*
X93181507Y-46843938D01*
X93172211Y-46831923D01*
X93121006Y-46796069D01*
X93111511Y-46790586D01*
X92914053Y-46698510D01*
X92903761Y-46694764D01*
X92693312Y-46638375D01*
X92682519Y-46636472D01*
X92465475Y-46617483D01*
X92454525Y-46617483D01*
X92237481Y-46636472D01*
X92226688Y-46638375D01*
X92016239Y-46694764D01*
X92005947Y-46698510D01*
X91808489Y-46790586D01*
X91798994Y-46796069D01*
X91746952Y-46832509D01*
X91738576Y-46842988D01*
X90008500Y-46842988D01*
X90008500Y-45102477D01*
X90028502Y-45034356D01*
X90082158Y-44987863D01*
X90152432Y-44977759D01*
X90217012Y-45007253D01*
X90223595Y-45013382D01*
X90297962Y-45087749D01*
X90302471Y-45090906D01*
X90302473Y-45090908D01*
X90327597Y-45108500D01*
X90478346Y-45214056D01*
X90677924Y-45307120D01*
X90890629Y-45364115D01*
X91110000Y-45383307D01*
X91329371Y-45364115D01*
X91542076Y-45307120D01*
X91741654Y-45214056D01*
X91892403Y-45108500D01*
X91917527Y-45090908D01*
X91917529Y-45090906D01*
X91922038Y-45087749D01*
X92077749Y-44932038D01*
X92165142Y-44807228D01*
X92220598Y-44762901D01*
X92268354Y-44753500D01*
X94291500Y-44753500D01*
X94359621Y-44773502D01*
G37*
G04 #@! TD.AperFunction*
G04 #@! TA.AperFunction,Conductor*
G36*
X96877501Y-57100046D02*
G01*
X96900030Y-57127921D01*
X96900448Y-57127617D01*
X96926436Y-57163387D01*
X96932952Y-57173307D01*
X96955458Y-57211362D01*
X96969779Y-57225683D01*
X96982619Y-57240716D01*
X96994528Y-57257107D01*
X97000634Y-57262158D01*
X97028605Y-57285298D01*
X97037384Y-57293288D01*
X100986972Y-61242877D01*
X101020997Y-61305187D01*
X101014284Y-61380190D01*
X101007387Y-61396840D01*
X101007385Y-61396846D01*
X101005495Y-61401409D01*
X101004342Y-61406212D01*
X100972657Y-61538192D01*
X100946391Y-61647597D01*
X100926526Y-61900000D01*
X100946391Y-62152403D01*
X101005495Y-62398591D01*
X101007390Y-62403165D01*
X101014284Y-62419809D01*
X101021874Y-62490399D01*
X100986971Y-62557125D01*
X100597295Y-62946800D01*
X100242742Y-63301353D01*
X100234463Y-63308887D01*
X100227982Y-63313000D01*
X100181357Y-63362651D01*
X100178602Y-63365493D01*
X100158865Y-63385230D01*
X100156385Y-63388427D01*
X100148682Y-63397447D01*
X100118414Y-63429679D01*
X100114595Y-63436625D01*
X100114593Y-63436628D01*
X100108652Y-63447434D01*
X100097801Y-63463953D01*
X100085386Y-63479959D01*
X100082241Y-63487228D01*
X100082238Y-63487232D01*
X100067826Y-63520537D01*
X100062609Y-63531187D01*
X100041305Y-63569940D01*
X100039334Y-63577615D01*
X100039334Y-63577616D01*
X100036267Y-63589562D01*
X100029863Y-63608266D01*
X100021819Y-63626855D01*
X100020580Y-63634678D01*
X100020577Y-63634688D01*
X100014901Y-63670524D01*
X100012495Y-63682144D01*
X100001500Y-63724970D01*
X100001500Y-63745224D01*
X99999949Y-63764934D01*
X99996780Y-63784943D01*
X99997526Y-63792835D01*
X100000941Y-63828961D01*
X100001500Y-63840819D01*
X100001500Y-64884021D01*
X99981498Y-64952142D01*
X99927842Y-64998635D01*
X99857568Y-65008739D01*
X99835384Y-64999135D01*
X99819146Y-64997455D01*
X99803566Y-65005644D01*
X99102022Y-65707188D01*
X99094408Y-65721132D01*
X99094539Y-65722965D01*
X99098790Y-65729580D01*
X99804287Y-66435077D01*
X99818231Y-66442691D01*
X99833007Y-66441635D01*
X99864521Y-66429308D01*
X99934126Y-66443299D01*
X99985117Y-66492699D01*
X100001500Y-66554829D01*
X100001500Y-79020705D01*
X99981498Y-79088826D01*
X99964595Y-79109800D01*
X98751474Y-80322921D01*
X98689162Y-80356947D01*
X98618347Y-80351882D01*
X98561511Y-80309335D01*
X98557584Y-80303382D01*
X98557523Y-80303251D01*
X98512237Y-80238576D01*
X98429357Y-80120211D01*
X98429355Y-80120208D01*
X98426198Y-80115700D01*
X98394916Y-80084418D01*
X98360890Y-80022106D01*
X98358011Y-79995323D01*
X98358011Y-76203278D01*
X98358538Y-76192095D01*
X98360213Y-76184602D01*
X98358931Y-76143802D01*
X98358073Y-76116525D01*
X98358011Y-76112566D01*
X98358011Y-76084655D01*
X98357506Y-76080655D01*
X98356573Y-76068812D01*
X98356340Y-76061381D01*
X98355184Y-76024621D01*
X98349533Y-76005169D01*
X98345525Y-75985817D01*
X98343978Y-75973574D01*
X98342985Y-75965714D01*
X98335466Y-75946722D01*
X98326711Y-75924608D01*
X98322866Y-75913381D01*
X98317459Y-75894771D01*
X98310529Y-75870918D01*
X98301694Y-75855978D01*
X98300218Y-75853483D01*
X98291523Y-75835735D01*
X98284063Y-75816894D01*
X98258075Y-75781124D01*
X98251559Y-75771204D01*
X98233091Y-75739976D01*
X98233089Y-75739973D01*
X98229053Y-75733149D01*
X98214732Y-75718828D01*
X98201891Y-75703794D01*
X98194642Y-75693817D01*
X98189983Y-75687404D01*
X98183879Y-75682354D01*
X98183874Y-75682349D01*
X98155913Y-75659218D01*
X98147132Y-75651228D01*
X97804720Y-75308815D01*
X97770695Y-75246503D01*
X97775760Y-75175687D01*
X97779621Y-75166471D01*
X97831959Y-75054230D01*
X97831961Y-75054225D01*
X97834284Y-75049243D01*
X97893543Y-74828087D01*
X97913498Y-74600000D01*
X97893543Y-74371913D01*
X97834284Y-74150757D01*
X97802166Y-74081879D01*
X97739849Y-73948238D01*
X97739846Y-73948233D01*
X97737523Y-73943251D01*
X97606198Y-73755700D01*
X97444300Y-73593802D01*
X97439792Y-73590645D01*
X97439789Y-73590643D01*
X97361611Y-73535902D01*
X97256749Y-73462477D01*
X97251767Y-73460154D01*
X97251762Y-73460151D01*
X97216951Y-73443919D01*
X97163666Y-73397002D01*
X97144205Y-73328725D01*
X97164747Y-73260765D01*
X97216951Y-73215529D01*
X97251511Y-73199414D01*
X97261007Y-73193931D01*
X97439467Y-73068972D01*
X97447875Y-73061916D01*
X97601916Y-72907875D01*
X97608972Y-72899467D01*
X97733931Y-72721007D01*
X97739414Y-72711511D01*
X97831490Y-72514053D01*
X97835236Y-72503761D01*
X97881394Y-72331497D01*
X97881058Y-72317401D01*
X97873116Y-72314000D01*
X96072000Y-72314000D01*
X96003879Y-72293998D01*
X95957386Y-72240342D01*
X95946000Y-72188000D01*
X95946000Y-71932000D01*
X95966002Y-71863879D01*
X96019658Y-71817386D01*
X96072000Y-71806000D01*
X97867967Y-71806000D01*
X97881498Y-71802027D01*
X97882727Y-71793478D01*
X97835236Y-71616239D01*
X97831490Y-71605947D01*
X97739414Y-71408489D01*
X97733931Y-71398993D01*
X97608972Y-71220533D01*
X97601916Y-71212125D01*
X97447875Y-71058084D01*
X97439467Y-71051028D01*
X97261007Y-70926069D01*
X97251511Y-70920586D01*
X97216951Y-70904471D01*
X97163666Y-70857554D01*
X97144205Y-70789277D01*
X97164747Y-70721317D01*
X97216951Y-70676081D01*
X97251762Y-70659849D01*
X97251767Y-70659846D01*
X97256749Y-70657523D01*
X97403881Y-70554500D01*
X97439789Y-70529357D01*
X97439792Y-70529355D01*
X97444300Y-70526198D01*
X97606198Y-70364300D01*
X97737523Y-70176749D01*
X97739846Y-70171767D01*
X97739849Y-70171762D01*
X97831961Y-69974225D01*
X97831961Y-69974224D01*
X97834284Y-69969243D01*
X97889651Y-69762614D01*
X97892119Y-69753402D01*
X97892119Y-69753400D01*
X97893543Y-69748087D01*
X97913498Y-69520000D01*
X97893543Y-69291913D01*
X97885028Y-69260135D01*
X97835707Y-69076067D01*
X97835706Y-69076065D01*
X97834284Y-69070757D01*
X97739966Y-68868489D01*
X97739849Y-68868238D01*
X97739846Y-68868233D01*
X97737523Y-68863251D01*
X97606198Y-68675700D01*
X97444300Y-68513802D01*
X97439792Y-68510645D01*
X97439789Y-68510643D01*
X97339863Y-68440674D01*
X97256749Y-68382477D01*
X97251767Y-68380154D01*
X97251762Y-68380151D01*
X97186250Y-68349603D01*
X97132965Y-68302686D01*
X97113500Y-68235408D01*
X97113500Y-66806062D01*
X98008493Y-66806062D01*
X98017789Y-66818077D01*
X98068994Y-66853931D01*
X98078489Y-66859414D01*
X98275947Y-66951490D01*
X98286239Y-66955236D01*
X98496688Y-67011625D01*
X98507481Y-67013528D01*
X98724525Y-67032517D01*
X98735475Y-67032517D01*
X98952519Y-67013528D01*
X98963312Y-67011625D01*
X99173761Y-66955236D01*
X99184053Y-66951490D01*
X99381511Y-66859414D01*
X99391006Y-66853931D01*
X99443048Y-66817491D01*
X99451424Y-66807012D01*
X99444356Y-66793566D01*
X98742812Y-66092022D01*
X98728868Y-66084408D01*
X98727035Y-66084539D01*
X98720420Y-66088790D01*
X98014923Y-66794287D01*
X98008493Y-66806062D01*
X97113500Y-66806062D01*
X97113500Y-66739188D01*
X97133502Y-66671067D01*
X97150405Y-66650093D01*
X97236198Y-66564300D01*
X97256172Y-66535775D01*
X97364369Y-66381253D01*
X97367523Y-66376749D01*
X97369847Y-66371765D01*
X97371171Y-66369472D01*
X97422553Y-66320479D01*
X97492267Y-66307043D01*
X97558178Y-66333429D01*
X97589409Y-66369472D01*
X97596066Y-66381002D01*
X97632509Y-66433048D01*
X97642988Y-66441424D01*
X97656434Y-66434356D01*
X98357978Y-65732812D01*
X98365592Y-65718868D01*
X98365461Y-65717035D01*
X98361210Y-65710420D01*
X97655713Y-65004923D01*
X97643938Y-64998493D01*
X97631923Y-65007789D01*
X97596066Y-65058998D01*
X97589409Y-65070528D01*
X97538027Y-65119521D01*
X97468313Y-65132958D01*
X97402402Y-65106571D01*
X97371171Y-65070528D01*
X97369847Y-65068235D01*
X97367523Y-65063251D01*
X97289978Y-64952505D01*
X97239357Y-64880211D01*
X97239355Y-64880208D01*
X97236198Y-64875700D01*
X97074300Y-64713802D01*
X97069792Y-64710645D01*
X97069789Y-64710643D01*
X96958886Y-64632988D01*
X98008576Y-64632988D01*
X98015644Y-64646434D01*
X98717188Y-65347978D01*
X98731132Y-65355592D01*
X98732965Y-65355461D01*
X98739580Y-65351210D01*
X99445077Y-64645713D01*
X99451507Y-64633938D01*
X99442211Y-64621923D01*
X99391006Y-64586069D01*
X99381511Y-64580586D01*
X99184053Y-64488510D01*
X99173761Y-64484764D01*
X98963312Y-64428375D01*
X98952519Y-64426472D01*
X98735475Y-64407483D01*
X98724525Y-64407483D01*
X98507481Y-64426472D01*
X98496688Y-64428375D01*
X98286239Y-64484764D01*
X98275947Y-64488510D01*
X98078489Y-64580586D01*
X98068994Y-64586069D01*
X98016952Y-64622509D01*
X98008576Y-64632988D01*
X96958886Y-64632988D01*
X96943920Y-64622509D01*
X96886749Y-64582477D01*
X96881767Y-64580154D01*
X96881762Y-64580151D01*
X96684225Y-64488039D01*
X96684224Y-64488039D01*
X96679243Y-64485716D01*
X96673935Y-64484294D01*
X96673933Y-64484293D01*
X96463402Y-64427881D01*
X96463400Y-64427881D01*
X96458087Y-64426457D01*
X96299518Y-64412584D01*
X96233400Y-64386720D01*
X96191761Y-64329217D01*
X96184500Y-64287063D01*
X96184500Y-63199253D01*
X96204502Y-63131132D01*
X96258158Y-63084639D01*
X96328432Y-63074535D01*
X96392331Y-63103442D01*
X96430109Y-63135707D01*
X96511624Y-63205328D01*
X96727498Y-63337616D01*
X96732068Y-63339509D01*
X96732072Y-63339511D01*
X96935806Y-63423900D01*
X96961409Y-63434505D01*
X97015263Y-63447434D01*
X97202784Y-63492454D01*
X97202790Y-63492455D01*
X97207597Y-63493609D01*
X97460000Y-63513474D01*
X97712403Y-63493609D01*
X97717210Y-63492455D01*
X97717216Y-63492454D01*
X97904737Y-63447434D01*
X97958591Y-63434505D01*
X97984194Y-63423900D01*
X98187928Y-63339511D01*
X98187932Y-63339509D01*
X98192502Y-63337616D01*
X98408376Y-63205328D01*
X98600898Y-63040898D01*
X98765328Y-62848376D01*
X98897616Y-62632502D01*
X98906135Y-62611937D01*
X98992611Y-62403164D01*
X98992612Y-62403162D01*
X98994505Y-62398591D01*
X99053609Y-62152403D01*
X99073474Y-61900000D01*
X99053609Y-61647597D01*
X99027344Y-61538192D01*
X98995660Y-61406221D01*
X98994505Y-61401409D01*
X98954649Y-61305187D01*
X98899511Y-61172072D01*
X98899509Y-61172068D01*
X98897616Y-61167498D01*
X98765328Y-60951624D01*
X98600898Y-60759102D01*
X98408376Y-60594672D01*
X98192502Y-60462384D01*
X98187932Y-60460491D01*
X98187928Y-60460489D01*
X97963164Y-60367389D01*
X97963162Y-60367388D01*
X97958591Y-60365495D01*
X97873968Y-60345179D01*
X97717216Y-60307546D01*
X97717210Y-60307545D01*
X97712403Y-60306391D01*
X97460000Y-60286526D01*
X97207597Y-60306391D01*
X97202790Y-60307545D01*
X97202784Y-60307546D01*
X97046032Y-60345179D01*
X96961409Y-60365495D01*
X96940190Y-60374284D01*
X96869601Y-60381874D01*
X96802875Y-60346971D01*
X96763451Y-60307546D01*
X96705893Y-60249988D01*
X96671868Y-60187676D01*
X96668989Y-60160893D01*
X96668989Y-57195270D01*
X96688991Y-57127149D01*
X96742647Y-57080656D01*
X96812921Y-57070552D01*
X96877501Y-57100046D01*
G37*
G04 #@! TD.AperFunction*
G04 #@! TA.AperFunction,Conductor*
G36*
X107330669Y-14528502D02*
G01*
X107377162Y-14582158D01*
X107387266Y-14652432D01*
X107357772Y-14717012D01*
X107326803Y-14741250D01*
X107327498Y-14742384D01*
X107111624Y-14874672D01*
X106919102Y-15039102D01*
X106754672Y-15231624D01*
X106622384Y-15447498D01*
X106525495Y-15681409D01*
X106466391Y-15927597D01*
X106446526Y-16180000D01*
X106466391Y-16432403D01*
X106467545Y-16437210D01*
X106467546Y-16437216D01*
X106484153Y-16506389D01*
X106525495Y-16678591D01*
X106622384Y-16912502D01*
X106754672Y-17128376D01*
X106919102Y-17320898D01*
X107111624Y-17485328D01*
X107327498Y-17617616D01*
X107332068Y-17619509D01*
X107332072Y-17619511D01*
X107556836Y-17712611D01*
X107561409Y-17714505D01*
X107646032Y-17734821D01*
X107802784Y-17772454D01*
X107802790Y-17772455D01*
X107807597Y-17773609D01*
X108060000Y-17793474D01*
X108312403Y-17773609D01*
X108317210Y-17772455D01*
X108317216Y-17772454D01*
X108473968Y-17734821D01*
X108558591Y-17714505D01*
X108563164Y-17712611D01*
X108787928Y-17619511D01*
X108787932Y-17619509D01*
X108792502Y-17617616D01*
X109008376Y-17485328D01*
X109200898Y-17320898D01*
X109365328Y-17128376D01*
X109497616Y-16912502D01*
X109594505Y-16678591D01*
X109635847Y-16506389D01*
X109652454Y-16437216D01*
X109652455Y-16437210D01*
X109653609Y-16432403D01*
X109673474Y-16180000D01*
X109653609Y-15927597D01*
X109594505Y-15681409D01*
X109497616Y-15447498D01*
X109365328Y-15231624D01*
X109200898Y-15039102D01*
X109008376Y-14874672D01*
X108792502Y-14742384D01*
X108793640Y-14740527D01*
X108748630Y-14698012D01*
X108731568Y-14629096D01*
X108754473Y-14561896D01*
X108810074Y-14517747D01*
X108857452Y-14508500D01*
X109865500Y-14508500D01*
X109933621Y-14528502D01*
X109980114Y-14582158D01*
X109991500Y-14634500D01*
X109991500Y-34820308D01*
X109971498Y-34888429D01*
X109917842Y-34934922D01*
X109847568Y-34945026D01*
X109782988Y-34915532D01*
X109753234Y-34877512D01*
X109742557Y-34856558D01*
X109739558Y-34850672D01*
X109731120Y-34840252D01*
X109719922Y-34823959D01*
X109717814Y-34820308D01*
X109713215Y-34812342D01*
X109708798Y-34807436D01*
X109708794Y-34807431D01*
X109668764Y-34762973D01*
X109664480Y-34757957D01*
X109654070Y-34745102D01*
X109654067Y-34745099D01*
X109651983Y-34742525D01*
X109637938Y-34728480D01*
X109633397Y-34723695D01*
X109593367Y-34679237D01*
X109593366Y-34679236D01*
X109588945Y-34674326D01*
X109578085Y-34666436D01*
X109563057Y-34653599D01*
X107695405Y-32785947D01*
X107661379Y-32723635D01*
X107658500Y-32696852D01*
X107658500Y-32683148D01*
X107678502Y-32615027D01*
X107695405Y-32594053D01*
X108628546Y-31660912D01*
X108643574Y-31648075D01*
X108654434Y-31640185D01*
X108698886Y-31590816D01*
X108703427Y-31586031D01*
X108717472Y-31571986D01*
X108719559Y-31569409D01*
X108729969Y-31556554D01*
X108734253Y-31551538D01*
X108774283Y-31507080D01*
X108774287Y-31507075D01*
X108778704Y-31502169D01*
X108785411Y-31490552D01*
X108796609Y-31474259D01*
X108800891Y-31468971D01*
X108805047Y-31463839D01*
X108835213Y-31404637D01*
X108838346Y-31398867D01*
X108868260Y-31347055D01*
X108868262Y-31347050D01*
X108871564Y-31341331D01*
X108873605Y-31335051D01*
X108873608Y-31335043D01*
X108875708Y-31328579D01*
X108883272Y-31310317D01*
X108886363Y-31304251D01*
X108886366Y-31304242D01*
X108889362Y-31298363D01*
X108906556Y-31234196D01*
X108908422Y-31227894D01*
X108928954Y-31164702D01*
X108930355Y-31151372D01*
X108933958Y-31131929D01*
X108937430Y-31118971D01*
X108938808Y-31092688D01*
X108940906Y-31052646D01*
X108941423Y-31046071D01*
X108943156Y-31029579D01*
X108943500Y-31026306D01*
X108943500Y-31006432D01*
X108943673Y-30999838D01*
X108946804Y-30940099D01*
X108946804Y-30940095D01*
X108947149Y-30933507D01*
X108945051Y-30920260D01*
X108943500Y-30900550D01*
X108943500Y-28074500D01*
X108963502Y-28006379D01*
X109017158Y-27959886D01*
X109069500Y-27948500D01*
X109208134Y-27948500D01*
X109270316Y-27941745D01*
X109406705Y-27890615D01*
X109523261Y-27803261D01*
X109610615Y-27686705D01*
X109661745Y-27550316D01*
X109668500Y-27488134D01*
X109668500Y-25191866D01*
X109661745Y-25129684D01*
X109610615Y-24993295D01*
X109523261Y-24876739D01*
X109406705Y-24789385D01*
X109270316Y-24738255D01*
X109208134Y-24731500D01*
X106911866Y-24731500D01*
X106849684Y-24738255D01*
X106713295Y-24789385D01*
X106596739Y-24876739D01*
X106509385Y-24993295D01*
X106458255Y-25129684D01*
X106451500Y-25191866D01*
X106451500Y-27488134D01*
X106458255Y-27550316D01*
X106509385Y-27686705D01*
X106596739Y-27803261D01*
X106713295Y-27890615D01*
X106849684Y-27941745D01*
X106911866Y-27948500D01*
X107050500Y-27948500D01*
X107118621Y-27968502D01*
X107165114Y-28022158D01*
X107176500Y-28074500D01*
X107176500Y-28934405D01*
X107156498Y-29002526D01*
X107102842Y-29049019D01*
X107032568Y-29059123D01*
X106997250Y-29048600D01*
X106804053Y-28958510D01*
X106793761Y-28954764D01*
X106583312Y-28898375D01*
X106572519Y-28896472D01*
X106355475Y-28877483D01*
X106344525Y-28877483D01*
X106127481Y-28896472D01*
X106116688Y-28898375D01*
X105906239Y-28954764D01*
X105895947Y-28958510D01*
X105698489Y-29050586D01*
X105688994Y-29056069D01*
X105636952Y-29092509D01*
X105628576Y-29102988D01*
X105635644Y-29116434D01*
X106620115Y-30100905D01*
X106654141Y-30163217D01*
X106649076Y-30234032D01*
X106620115Y-30279095D01*
X105634923Y-31264287D01*
X105612129Y-31306029D01*
X105609953Y-31316029D01*
X105559747Y-31366227D01*
X105506186Y-31381451D01*
X105505281Y-31381500D01*
X105501866Y-31381500D01*
X105498470Y-31381869D01*
X105498468Y-31381869D01*
X105486121Y-31383210D01*
X105439684Y-31388255D01*
X105303295Y-31439385D01*
X105186739Y-31526739D01*
X105099385Y-31643295D01*
X105048255Y-31779684D01*
X105041500Y-31841866D01*
X105041500Y-33538134D01*
X105048255Y-33600316D01*
X105099385Y-33736705D01*
X105186739Y-33853261D01*
X105303295Y-33940615D01*
X105439684Y-33991745D01*
X105501866Y-33998500D01*
X106356852Y-33998500D01*
X106424973Y-34018502D01*
X106445947Y-34035405D01*
X108074106Y-35663564D01*
X108108132Y-35725876D01*
X108111011Y-35752659D01*
X108111011Y-46553936D01*
X108091009Y-46622057D01*
X108037353Y-46668550D01*
X107967079Y-46678654D01*
X107952400Y-46675643D01*
X107813312Y-46638375D01*
X107802519Y-46636472D01*
X107585475Y-46617483D01*
X107574525Y-46617483D01*
X107357481Y-46636472D01*
X107346688Y-46638375D01*
X107136239Y-46694764D01*
X107125947Y-46698510D01*
X106928489Y-46790586D01*
X106918994Y-46796069D01*
X106866952Y-46832509D01*
X106858576Y-46842988D01*
X106865644Y-46856434D01*
X107850115Y-47840905D01*
X107884141Y-47903217D01*
X107879076Y-47974032D01*
X107850115Y-48019095D01*
X106864923Y-49004287D01*
X106858493Y-49016062D01*
X106867789Y-49028077D01*
X106918994Y-49063931D01*
X106928489Y-49069414D01*
X107125947Y-49161490D01*
X107136239Y-49165236D01*
X107346688Y-49221625D01*
X107357481Y-49223528D01*
X107574525Y-49242517D01*
X107585475Y-49242517D01*
X107802519Y-49223528D01*
X107813312Y-49221625D01*
X107952400Y-49184357D01*
X108023376Y-49186047D01*
X108082172Y-49225841D01*
X108110120Y-49291106D01*
X108111011Y-49306064D01*
X108111011Y-50352701D01*
X108091009Y-50420822D01*
X108037353Y-50467315D01*
X107967079Y-50477419D01*
X107952407Y-50474410D01*
X107848087Y-50446457D01*
X107620000Y-50426502D01*
X107391913Y-50446457D01*
X107386600Y-50447881D01*
X107386598Y-50447881D01*
X107176067Y-50504293D01*
X107176065Y-50504294D01*
X107170757Y-50505716D01*
X107165776Y-50508039D01*
X107165775Y-50508039D01*
X106968238Y-50600151D01*
X106968233Y-50600154D01*
X106963251Y-50602477D01*
X106948970Y-50612477D01*
X106780211Y-50730643D01*
X106780208Y-50730645D01*
X106775700Y-50733802D01*
X106613802Y-50895700D01*
X106610645Y-50900208D01*
X106610643Y-50900211D01*
X106606800Y-50905700D01*
X106482477Y-51083251D01*
X106480154Y-51088233D01*
X106480151Y-51088238D01*
X106475488Y-51098238D01*
X106385716Y-51290757D01*
X106384294Y-51296065D01*
X106384293Y-51296067D01*
X106327881Y-51506598D01*
X106326457Y-51511913D01*
X106306502Y-51740000D01*
X106326457Y-51968087D01*
X106327881Y-51973400D01*
X106327881Y-51973402D01*
X106329137Y-51978087D01*
X106385716Y-52189243D01*
X106388039Y-52194224D01*
X106388039Y-52194225D01*
X106480151Y-52391762D01*
X106480154Y-52391767D01*
X106482477Y-52396749D01*
X106613802Y-52584300D01*
X106775700Y-52746198D01*
X106780208Y-52749355D01*
X106780211Y-52749357D01*
X106789981Y-52756198D01*
X106963251Y-52877523D01*
X106968233Y-52879846D01*
X106968238Y-52879849D01*
X107119357Y-52950316D01*
X107170757Y-52974284D01*
X107176065Y-52975706D01*
X107176067Y-52975707D01*
X107386598Y-53032119D01*
X107386600Y-53032119D01*
X107391913Y-53033543D01*
X107620000Y-53053498D01*
X107848087Y-53033543D01*
X107952401Y-53005592D01*
X108023376Y-53007282D01*
X108082172Y-53047076D01*
X108110120Y-53112340D01*
X108111011Y-53127299D01*
X108111011Y-60512701D01*
X108091009Y-60580822D01*
X108037353Y-60627315D01*
X107967079Y-60637419D01*
X107952407Y-60634410D01*
X107848087Y-60606457D01*
X107620000Y-60586502D01*
X107391913Y-60606457D01*
X107386602Y-60607880D01*
X107386591Y-60607882D01*
X107328459Y-60623459D01*
X107257483Y-60621770D01*
X107206752Y-60590848D01*
X103210405Y-56594500D01*
X103176379Y-56532188D01*
X103173500Y-56505405D01*
X103173500Y-53474500D01*
X103193502Y-53406379D01*
X103247158Y-53359886D01*
X103299500Y-53348500D01*
X103688134Y-53348500D01*
X103750316Y-53341745D01*
X103886705Y-53290615D01*
X104003261Y-53203261D01*
X104090615Y-53086705D01*
X104141745Y-52950316D01*
X104148500Y-52888134D01*
X104148500Y-50591866D01*
X104141745Y-50529684D01*
X104090615Y-50393295D01*
X104003261Y-50276739D01*
X103886705Y-50189385D01*
X103750316Y-50138255D01*
X103688134Y-50131500D01*
X103299500Y-50131500D01*
X103231379Y-50111498D01*
X103184886Y-50057842D01*
X103173500Y-50005500D01*
X103173500Y-49176232D01*
X103193502Y-49108111D01*
X103235422Y-49068142D01*
X103236749Y-49067523D01*
X103241253Y-49064370D01*
X103241257Y-49064367D01*
X103419789Y-48939357D01*
X103419792Y-48939355D01*
X103424300Y-48936198D01*
X103586198Y-48774300D01*
X103717523Y-48586749D01*
X103719846Y-48581767D01*
X103719849Y-48581762D01*
X103811961Y-48384225D01*
X103811961Y-48384224D01*
X103814284Y-48379243D01*
X103834976Y-48302022D01*
X103872119Y-48163402D01*
X103872119Y-48163400D01*
X103873543Y-48158087D01*
X103893019Y-47935475D01*
X106267483Y-47935475D01*
X106286472Y-48152519D01*
X106288375Y-48163312D01*
X106344764Y-48373761D01*
X106348510Y-48384053D01*
X106440586Y-48581511D01*
X106446069Y-48591006D01*
X106482509Y-48643048D01*
X106492988Y-48651424D01*
X106506434Y-48644356D01*
X107207978Y-47942812D01*
X107215592Y-47928868D01*
X107215461Y-47927035D01*
X107211210Y-47920420D01*
X106505713Y-47214923D01*
X106493938Y-47208493D01*
X106481923Y-47217789D01*
X106446069Y-47268994D01*
X106440586Y-47278489D01*
X106348510Y-47475947D01*
X106344764Y-47486239D01*
X106288375Y-47696688D01*
X106286472Y-47707481D01*
X106267483Y-47924525D01*
X106267483Y-47935475D01*
X103893019Y-47935475D01*
X103893498Y-47930000D01*
X103873543Y-47701913D01*
X103836981Y-47565461D01*
X103815707Y-47486067D01*
X103815706Y-47486065D01*
X103814284Y-47480757D01*
X103719966Y-47278489D01*
X103719849Y-47278238D01*
X103719846Y-47278233D01*
X103717523Y-47273251D01*
X103586198Y-47085700D01*
X103424300Y-46923802D01*
X103419792Y-46920645D01*
X103419789Y-46920643D01*
X103293920Y-46832509D01*
X103236749Y-46792477D01*
X103231767Y-46790154D01*
X103231762Y-46790151D01*
X103034225Y-46698039D01*
X103034224Y-46698039D01*
X103029243Y-46695716D01*
X103023935Y-46694294D01*
X103023933Y-46694293D01*
X102813402Y-46637881D01*
X102813400Y-46637881D01*
X102808087Y-46636457D01*
X102580000Y-46616502D01*
X102351913Y-46636457D01*
X102346600Y-46637881D01*
X102346598Y-46637881D01*
X102136067Y-46694293D01*
X102136065Y-46694294D01*
X102130757Y-46695716D01*
X102125776Y-46698039D01*
X102125775Y-46698039D01*
X101928238Y-46790151D01*
X101928233Y-46790154D01*
X101923251Y-46792477D01*
X101866080Y-46832509D01*
X101740211Y-46920643D01*
X101740208Y-46920645D01*
X101735700Y-46923802D01*
X101573802Y-47085700D01*
X101442477Y-47273251D01*
X101440154Y-47278233D01*
X101440151Y-47278238D01*
X101440034Y-47278489D01*
X101345716Y-47480757D01*
X101344294Y-47486065D01*
X101344293Y-47486067D01*
X101323019Y-47565461D01*
X101286457Y-47701913D01*
X101266502Y-47930000D01*
X101286457Y-48158087D01*
X101287881Y-48163400D01*
X101287881Y-48163402D01*
X101325025Y-48302022D01*
X101345716Y-48379243D01*
X101348039Y-48384224D01*
X101348039Y-48384225D01*
X101440151Y-48581762D01*
X101440154Y-48581767D01*
X101442477Y-48586749D01*
X101573802Y-48774300D01*
X101735700Y-48936198D01*
X101852772Y-49018173D01*
X101897099Y-49073629D01*
X101906500Y-49121385D01*
X101906500Y-50005500D01*
X101886498Y-50073621D01*
X101832842Y-50120114D01*
X101780500Y-50131500D01*
X101391866Y-50131500D01*
X101329684Y-50138255D01*
X101193295Y-50189385D01*
X101076739Y-50276739D01*
X100989385Y-50393295D01*
X100938255Y-50529684D01*
X100931500Y-50591866D01*
X100931500Y-52888134D01*
X100938255Y-52950316D01*
X100989385Y-53086705D01*
X101076739Y-53203261D01*
X101193295Y-53290615D01*
X101329684Y-53341745D01*
X101391866Y-53348500D01*
X101780500Y-53348500D01*
X101848621Y-53368502D01*
X101895114Y-53422158D01*
X101906500Y-53474500D01*
X101906500Y-56741233D01*
X101905973Y-56752416D01*
X101904298Y-56759909D01*
X101904547Y-56767835D01*
X101904547Y-56767836D01*
X101906438Y-56827986D01*
X101906500Y-56831945D01*
X101906500Y-56859856D01*
X101906997Y-56863790D01*
X101906997Y-56863791D01*
X101907005Y-56863856D01*
X101907938Y-56875693D01*
X101909327Y-56919889D01*
X101914978Y-56939339D01*
X101918987Y-56958700D01*
X101921526Y-56978797D01*
X101924445Y-56986168D01*
X101924445Y-56986170D01*
X101937804Y-57019912D01*
X101941649Y-57031142D01*
X101953982Y-57073593D01*
X101958015Y-57080412D01*
X101958017Y-57080417D01*
X101964293Y-57091028D01*
X101972988Y-57108776D01*
X101980448Y-57127617D01*
X101985110Y-57134033D01*
X101985110Y-57134034D01*
X102006436Y-57163387D01*
X102012952Y-57173307D01*
X102035458Y-57211362D01*
X102049779Y-57225683D01*
X102062619Y-57240716D01*
X102074528Y-57257107D01*
X102080634Y-57262158D01*
X102108605Y-57285298D01*
X102117384Y-57293288D01*
X106310848Y-61486752D01*
X106344874Y-61549064D01*
X106343459Y-61608459D01*
X106327882Y-61666591D01*
X106327880Y-61666602D01*
X106326457Y-61671913D01*
X106306502Y-61900000D01*
X106326457Y-62128087D01*
X106327881Y-62133400D01*
X106327881Y-62133402D01*
X106378751Y-62323248D01*
X106385716Y-62349243D01*
X106388039Y-62354224D01*
X106388039Y-62354225D01*
X106480151Y-62551762D01*
X106480154Y-62551767D01*
X106482477Y-62556749D01*
X106532317Y-62627928D01*
X106589414Y-62709470D01*
X106613802Y-62744300D01*
X106775700Y-62906198D01*
X106780208Y-62909355D01*
X106780211Y-62909357D01*
X106789981Y-62916198D01*
X106963251Y-63037523D01*
X106968233Y-63039846D01*
X106968238Y-63039849D01*
X107128988Y-63114807D01*
X107170757Y-63134284D01*
X107176065Y-63135706D01*
X107176067Y-63135707D01*
X107386598Y-63192119D01*
X107386600Y-63192119D01*
X107391913Y-63193543D01*
X107620000Y-63213498D01*
X107848087Y-63193543D01*
X107952401Y-63165592D01*
X108023376Y-63167282D01*
X108082172Y-63207076D01*
X108110120Y-63272340D01*
X108111011Y-63287299D01*
X108111011Y-64343419D01*
X108091009Y-64411540D01*
X108037353Y-64458033D01*
X107967079Y-64468137D01*
X107952406Y-64465127D01*
X107808087Y-64426457D01*
X107580000Y-64406502D01*
X107351913Y-64426457D01*
X107346600Y-64427881D01*
X107346598Y-64427881D01*
X107136067Y-64484293D01*
X107136065Y-64484294D01*
X107130757Y-64485716D01*
X107125776Y-64488039D01*
X107125775Y-64488039D01*
X106928238Y-64580151D01*
X106928233Y-64580154D01*
X106923251Y-64582477D01*
X106866080Y-64622509D01*
X106740211Y-64710643D01*
X106740208Y-64710645D01*
X106735700Y-64713802D01*
X106573802Y-64875700D01*
X106570645Y-64880208D01*
X106570643Y-64880211D01*
X106548318Y-64912095D01*
X106442477Y-65063251D01*
X106440154Y-65068233D01*
X106440151Y-65068238D01*
X106398269Y-65158055D01*
X106345716Y-65270757D01*
X106344294Y-65276065D01*
X106344293Y-65276067D01*
X106298686Y-65446274D01*
X106286457Y-65491913D01*
X106266502Y-65720000D01*
X106286457Y-65948087D01*
X106287881Y-65953400D01*
X106287881Y-65953402D01*
X106339408Y-66145700D01*
X106345716Y-66169243D01*
X106348039Y-66174224D01*
X106348039Y-66174225D01*
X106440151Y-66371762D01*
X106440154Y-66371767D01*
X106442477Y-66376749D01*
X106481641Y-66432681D01*
X106553829Y-66535775D01*
X106573802Y-66564300D01*
X106735700Y-66726198D01*
X106740208Y-66729355D01*
X106740211Y-66729357D01*
X106918743Y-66854367D01*
X106918747Y-66854370D01*
X106923251Y-66857523D01*
X106924401Y-66858059D01*
X106972492Y-66908492D01*
X106986500Y-66966232D01*
X106986500Y-68300606D01*
X106966498Y-68368727D01*
X106932771Y-68403819D01*
X106780211Y-68510643D01*
X106780208Y-68510645D01*
X106775700Y-68513802D01*
X106613802Y-68675700D01*
X106482477Y-68863251D01*
X106480154Y-68868233D01*
X106480151Y-68868238D01*
X106480034Y-68868489D01*
X106385716Y-69070757D01*
X106384294Y-69076065D01*
X106384293Y-69076067D01*
X106334972Y-69260135D01*
X106326457Y-69291913D01*
X106306502Y-69520000D01*
X106326457Y-69748087D01*
X106327881Y-69753400D01*
X106327881Y-69753402D01*
X106330350Y-69762614D01*
X106385716Y-69969243D01*
X106388039Y-69974224D01*
X106388039Y-69974225D01*
X106480151Y-70171762D01*
X106480154Y-70171767D01*
X106482477Y-70176749D01*
X106613802Y-70364300D01*
X106775700Y-70526198D01*
X106780208Y-70529355D01*
X106780211Y-70529357D01*
X106816119Y-70554500D01*
X106963251Y-70657523D01*
X106968233Y-70659846D01*
X106968238Y-70659849D01*
X107165775Y-70751961D01*
X107170757Y-70754284D01*
X107176065Y-70755706D01*
X107176067Y-70755707D01*
X107386598Y-70812119D01*
X107386600Y-70812119D01*
X107391913Y-70813543D01*
X107620000Y-70833498D01*
X107848087Y-70813543D01*
X107952401Y-70785592D01*
X108023376Y-70787282D01*
X108082172Y-70827076D01*
X108110120Y-70892340D01*
X108111011Y-70907299D01*
X108111011Y-71547342D01*
X108091009Y-71615463D01*
X108074106Y-71636437D01*
X105615077Y-74095465D01*
X105552765Y-74129491D01*
X105481949Y-74124426D01*
X105425114Y-74081879D01*
X105411789Y-74059624D01*
X105399622Y-74033534D01*
X105388959Y-73963342D01*
X105417936Y-73898529D01*
X105424720Y-73891185D01*
X105736773Y-73579132D01*
X105745059Y-73571592D01*
X105751538Y-73567480D01*
X105798164Y-73517828D01*
X105800918Y-73514987D01*
X105820655Y-73495250D01*
X105823135Y-73492053D01*
X105830840Y-73483031D01*
X105847177Y-73465634D01*
X105861106Y-73450801D01*
X105864925Y-73443855D01*
X105864927Y-73443852D01*
X105870868Y-73433046D01*
X105881719Y-73416527D01*
X105889278Y-73406781D01*
X105894134Y-73400521D01*
X105897279Y-73393252D01*
X105897282Y-73393248D01*
X105911694Y-73359943D01*
X105916911Y-73349293D01*
X105938215Y-73310540D01*
X105943253Y-73290917D01*
X105949657Y-73272214D01*
X105954553Y-73260900D01*
X105954553Y-73260899D01*
X105957701Y-73253625D01*
X105958940Y-73245802D01*
X105958943Y-73245792D01*
X105964619Y-73209956D01*
X105967025Y-73198336D01*
X105976048Y-73163191D01*
X105976048Y-73163190D01*
X105978020Y-73155510D01*
X105978020Y-73135256D01*
X105979571Y-73115545D01*
X105981500Y-73103366D01*
X105982740Y-73095537D01*
X105978579Y-73051518D01*
X105978020Y-73039661D01*
X105978020Y-68563288D01*
X105978547Y-68552105D01*
X105980222Y-68544612D01*
X105979167Y-68511028D01*
X105978082Y-68476522D01*
X105978020Y-68472564D01*
X105978020Y-68444664D01*
X105977516Y-68440673D01*
X105976583Y-68428831D01*
X105975443Y-68392556D01*
X105975194Y-68384631D01*
X105971419Y-68371636D01*
X105969541Y-68365172D01*
X105965532Y-68345813D01*
X105965366Y-68344503D01*
X105962994Y-68325723D01*
X105960078Y-68318357D01*
X105960076Y-68318351D01*
X105946720Y-68284618D01*
X105942875Y-68273388D01*
X105932750Y-68238537D01*
X105932750Y-68238536D01*
X105930539Y-68230927D01*
X105920225Y-68213486D01*
X105911528Y-68195733D01*
X105906992Y-68184278D01*
X105904072Y-68176903D01*
X105878083Y-68141132D01*
X105871567Y-68131212D01*
X105849062Y-68093158D01*
X105834741Y-68078837D01*
X105821900Y-68063803D01*
X105814651Y-68053826D01*
X105809992Y-68047413D01*
X105775915Y-68019222D01*
X105767136Y-68011232D01*
X103889152Y-66133248D01*
X103855126Y-66070936D01*
X103856541Y-66011541D01*
X103872118Y-65953409D01*
X103872120Y-65953398D01*
X103873543Y-65948087D01*
X103893498Y-65720000D01*
X103873543Y-65491913D01*
X103861314Y-65446274D01*
X103815707Y-65276067D01*
X103815706Y-65276065D01*
X103814284Y-65270757D01*
X103761731Y-65158055D01*
X103719849Y-65068238D01*
X103719846Y-65068233D01*
X103717523Y-65063251D01*
X103611682Y-64912095D01*
X103589357Y-64880211D01*
X103589355Y-64880208D01*
X103586198Y-64875700D01*
X103424300Y-64713802D01*
X103419792Y-64710645D01*
X103419789Y-64710643D01*
X103293920Y-64622509D01*
X103236749Y-64582477D01*
X103231767Y-64580154D01*
X103231762Y-64580151D01*
X103034225Y-64488039D01*
X103034224Y-64488039D01*
X103029243Y-64485716D01*
X103023935Y-64484294D01*
X103023933Y-64484293D01*
X102813402Y-64427881D01*
X102813400Y-64427881D01*
X102808087Y-64426457D01*
X102580000Y-64406502D01*
X102351913Y-64426457D01*
X102346600Y-64427881D01*
X102346598Y-64427881D01*
X102136067Y-64484293D01*
X102136065Y-64484294D01*
X102130757Y-64485716D01*
X102125776Y-64488039D01*
X102125775Y-64488039D01*
X101928238Y-64580151D01*
X101928233Y-64580154D01*
X101923251Y-64582477D01*
X101866080Y-64622509D01*
X101740211Y-64710643D01*
X101740208Y-64710645D01*
X101735700Y-64713802D01*
X101573802Y-64875700D01*
X101570645Y-64880208D01*
X101570643Y-64880211D01*
X101497713Y-64984366D01*
X101442256Y-65028694D01*
X101371636Y-65036003D01*
X101308276Y-65003972D01*
X101272291Y-64942771D01*
X101268500Y-64912095D01*
X101268500Y-64119594D01*
X101288502Y-64051473D01*
X101305405Y-64030499D01*
X101882875Y-63453029D01*
X101945187Y-63419003D01*
X102020188Y-63425715D01*
X102041409Y-63434505D01*
X102095263Y-63447434D01*
X102282784Y-63492454D01*
X102282790Y-63492455D01*
X102287597Y-63493609D01*
X102540000Y-63513474D01*
X102792403Y-63493609D01*
X102797210Y-63492455D01*
X102797216Y-63492454D01*
X102984737Y-63447434D01*
X103038591Y-63434505D01*
X103064194Y-63423900D01*
X103267928Y-63339511D01*
X103267932Y-63339509D01*
X103272502Y-63337616D01*
X103488376Y-63205328D01*
X103680898Y-63040898D01*
X103845328Y-62848376D01*
X103977616Y-62632502D01*
X103986135Y-62611937D01*
X104072611Y-62403164D01*
X104072612Y-62403162D01*
X104074505Y-62398591D01*
X104133609Y-62152403D01*
X104153474Y-61900000D01*
X104133609Y-61647597D01*
X104107344Y-61538192D01*
X104075660Y-61406221D01*
X104074505Y-61401409D01*
X104034649Y-61305187D01*
X103979511Y-61172072D01*
X103979509Y-61172068D01*
X103977616Y-61167498D01*
X103845328Y-60951624D01*
X103680898Y-60759102D01*
X103488376Y-60594672D01*
X103272502Y-60462384D01*
X103267932Y-60460491D01*
X103267928Y-60460489D01*
X103043164Y-60367389D01*
X103043162Y-60367388D01*
X103038591Y-60365495D01*
X102953968Y-60345179D01*
X102797216Y-60307546D01*
X102797210Y-60307545D01*
X102792403Y-60306391D01*
X102540000Y-60286526D01*
X102287597Y-60306391D01*
X102282790Y-60307545D01*
X102282784Y-60307546D01*
X102126032Y-60345179D01*
X102041409Y-60365495D01*
X102036838Y-60367388D01*
X102036836Y-60367389D01*
X102020188Y-60374285D01*
X101949598Y-60381874D01*
X101882875Y-60346971D01*
X98130405Y-56594500D01*
X98096379Y-56532188D01*
X98093500Y-56505405D01*
X98093500Y-53474500D01*
X98113502Y-53406379D01*
X98167158Y-53359886D01*
X98219500Y-53348500D01*
X98608134Y-53348500D01*
X98670316Y-53341745D01*
X98806705Y-53290615D01*
X98923261Y-53203261D01*
X99010615Y-53086705D01*
X99061745Y-52950316D01*
X99068500Y-52888134D01*
X99068500Y-50591866D01*
X99061745Y-50529684D01*
X99010615Y-50393295D01*
X98923261Y-50276739D01*
X98806705Y-50189385D01*
X98670316Y-50138255D01*
X98608134Y-50131500D01*
X96794989Y-50131500D01*
X96726868Y-50111498D01*
X96680375Y-50057842D01*
X96668989Y-50005500D01*
X96668989Y-49669105D01*
X96688991Y-49600984D01*
X96705894Y-49580010D01*
X97046752Y-49239152D01*
X97109064Y-49205126D01*
X97168459Y-49206541D01*
X97226591Y-49222118D01*
X97226602Y-49222120D01*
X97231913Y-49223543D01*
X97460000Y-49243498D01*
X97688087Y-49223543D01*
X97693400Y-49222119D01*
X97693402Y-49222119D01*
X97903933Y-49165707D01*
X97903935Y-49165706D01*
X97909243Y-49164284D01*
X98001241Y-49121385D01*
X98111762Y-49069849D01*
X98111767Y-49069846D01*
X98116749Y-49067523D01*
X98221611Y-48994098D01*
X98299789Y-48939357D01*
X98299792Y-48939355D01*
X98304300Y-48936198D01*
X98466198Y-48774300D01*
X98597523Y-48586749D01*
X98599846Y-48581767D01*
X98599849Y-48581762D01*
X98691961Y-48384225D01*
X98691961Y-48384224D01*
X98694284Y-48379243D01*
X98714976Y-48302022D01*
X98752119Y-48163402D01*
X98752119Y-48163400D01*
X98753543Y-48158087D01*
X98773498Y-47930000D01*
X98753543Y-47701913D01*
X98716981Y-47565461D01*
X98695707Y-47486067D01*
X98695706Y-47486065D01*
X98694284Y-47480757D01*
X98599966Y-47278489D01*
X98599849Y-47278238D01*
X98599846Y-47278233D01*
X98597523Y-47273251D01*
X98466198Y-47085700D01*
X98304300Y-46923802D01*
X98299792Y-46920645D01*
X98299789Y-46920643D01*
X98173920Y-46832509D01*
X98116749Y-46792477D01*
X98111767Y-46790154D01*
X98111762Y-46790151D01*
X97914225Y-46698039D01*
X97914224Y-46698039D01*
X97909243Y-46695716D01*
X97903935Y-46694294D01*
X97903933Y-46694293D01*
X97693402Y-46637881D01*
X97693400Y-46637881D01*
X97688087Y-46636457D01*
X97460000Y-46616502D01*
X97231913Y-46636457D01*
X97226600Y-46637881D01*
X97226598Y-46637881D01*
X97016067Y-46694293D01*
X97016065Y-46694294D01*
X97010757Y-46695716D01*
X97005776Y-46698039D01*
X97005775Y-46698039D01*
X96808238Y-46790151D01*
X96808233Y-46790154D01*
X96803251Y-46792477D01*
X96746080Y-46832509D01*
X96620211Y-46920643D01*
X96620208Y-46920645D01*
X96615700Y-46923802D01*
X96453802Y-47085700D01*
X96450645Y-47090208D01*
X96450643Y-47090211D01*
X96413713Y-47142953D01*
X96358256Y-47187281D01*
X96287637Y-47194590D01*
X96224276Y-47162559D01*
X96188291Y-47101358D01*
X96184500Y-47070682D01*
X96184500Y-44157148D01*
X96204502Y-44089027D01*
X96221405Y-44068053D01*
X97699538Y-42589920D01*
X97761850Y-42555894D01*
X97832665Y-42560959D01*
X97889501Y-42603506D01*
X97914312Y-42670026D01*
X97913376Y-42696767D01*
X97892249Y-42845216D01*
X97892227Y-42849505D01*
X97892226Y-42849512D01*
X97890765Y-43128417D01*
X97890743Y-43132703D01*
X97891302Y-43136947D01*
X97891302Y-43136951D01*
X97901819Y-43216831D01*
X97928268Y-43417734D01*
X98004129Y-43695036D01*
X98116923Y-43959476D01*
X98264561Y-44206161D01*
X98444313Y-44430528D01*
X98652851Y-44628423D01*
X98886317Y-44796186D01*
X98890112Y-44798195D01*
X98890113Y-44798196D01*
X98911869Y-44809715D01*
X99140392Y-44930712D01*
X99410373Y-45029511D01*
X99691264Y-45090755D01*
X99719841Y-45093004D01*
X99914282Y-45108307D01*
X99914291Y-45108307D01*
X99916739Y-45108500D01*
X100072271Y-45108500D01*
X100074407Y-45108354D01*
X100074418Y-45108354D01*
X100282548Y-45094165D01*
X100282554Y-45094164D01*
X100286825Y-45093873D01*
X100291020Y-45093004D01*
X100291022Y-45093004D01*
X100427583Y-45064724D01*
X100568342Y-45035574D01*
X100839343Y-44939607D01*
X101094812Y-44807750D01*
X101098313Y-44805289D01*
X101098317Y-44805287D01*
X101212418Y-44725095D01*
X101330023Y-44642441D01*
X101540622Y-44446740D01*
X101722713Y-44224268D01*
X101872927Y-43979142D01*
X101988483Y-43715898D01*
X102067244Y-43439406D01*
X102099461Y-43213032D01*
X102107146Y-43159036D01*
X102107146Y-43159034D01*
X102107751Y-43154784D01*
X102107779Y-43149591D01*
X102109235Y-42871583D01*
X102109235Y-42871576D01*
X102109257Y-42867297D01*
X102071732Y-42582266D01*
X102064518Y-42555894D01*
X101997003Y-42309103D01*
X101995871Y-42304964D01*
X101883077Y-42040524D01*
X101735439Y-41793839D01*
X101555687Y-41569472D01*
X101347149Y-41371577D01*
X101125565Y-41212352D01*
X101117172Y-41206321D01*
X101117171Y-41206320D01*
X101113683Y-41203814D01*
X101020864Y-41154669D01*
X105042001Y-41154669D01*
X105042371Y-41161490D01*
X105047895Y-41212352D01*
X105051521Y-41227604D01*
X105096676Y-41348054D01*
X105105214Y-41363649D01*
X105181715Y-41465724D01*
X105194276Y-41478285D01*
X105296351Y-41554786D01*
X105311946Y-41563324D01*
X105432394Y-41608478D01*
X105447649Y-41612105D01*
X105498514Y-41617631D01*
X105505328Y-41618000D01*
X106077885Y-41618000D01*
X106093124Y-41613525D01*
X106094329Y-41612135D01*
X106096000Y-41604452D01*
X106096000Y-41599884D01*
X106604000Y-41599884D01*
X106608475Y-41615123D01*
X106609865Y-41616328D01*
X106617548Y-41617999D01*
X107194669Y-41617999D01*
X107201490Y-41617629D01*
X107252352Y-41612105D01*
X107267604Y-41608479D01*
X107388054Y-41563324D01*
X107403649Y-41554786D01*
X107505724Y-41478285D01*
X107518285Y-41465724D01*
X107594786Y-41363649D01*
X107603324Y-41348054D01*
X107648478Y-41227606D01*
X107652105Y-41212351D01*
X107657631Y-41161486D01*
X107658000Y-41154669D01*
X107658000Y-40582115D01*
X107653525Y-40566876D01*
X107652135Y-40565671D01*
X107644452Y-40564000D01*
X106622115Y-40564000D01*
X106606876Y-40568475D01*
X106605671Y-40569865D01*
X106604000Y-40577548D01*
X106604000Y-41599884D01*
X106096000Y-41599884D01*
X106096000Y-40582115D01*
X106091525Y-40566876D01*
X106090135Y-40565671D01*
X106082452Y-40564000D01*
X105060116Y-40564000D01*
X105044877Y-40568475D01*
X105043672Y-40569865D01*
X105042001Y-40577548D01*
X105042001Y-41154669D01*
X101020864Y-41154669D01*
X100859608Y-41069288D01*
X100589627Y-40970489D01*
X100308736Y-40909245D01*
X100277685Y-40906801D01*
X100085718Y-40891693D01*
X100085709Y-40891693D01*
X100083261Y-40891500D01*
X99927729Y-40891500D01*
X99925593Y-40891646D01*
X99925582Y-40891646D01*
X99717452Y-40905835D01*
X99717446Y-40905836D01*
X99713175Y-40906127D01*
X99708980Y-40906996D01*
X99704723Y-40907579D01*
X99704563Y-40906413D01*
X99638990Y-40901069D01*
X99582580Y-40857961D01*
X99558430Y-40791197D01*
X99574209Y-40721976D01*
X99595097Y-40694361D01*
X103700905Y-36588553D01*
X103763217Y-36554527D01*
X103834032Y-36559592D01*
X103879095Y-36588553D01*
X105000107Y-37709564D01*
X105034132Y-37771876D01*
X105035876Y-37799019D01*
X105036981Y-37799019D01*
X105036981Y-37804525D01*
X105036502Y-37810000D01*
X105056457Y-38038087D01*
X105115716Y-38259243D01*
X105118039Y-38264224D01*
X105118039Y-38264225D01*
X105210151Y-38461762D01*
X105210154Y-38461767D01*
X105212477Y-38466749D01*
X105343802Y-38654300D01*
X105489922Y-38800420D01*
X105523948Y-38862732D01*
X105518883Y-38933547D01*
X105476336Y-38990383D01*
X105439394Y-39007683D01*
X105439793Y-39008748D01*
X105311946Y-39056676D01*
X105296351Y-39065214D01*
X105194276Y-39141715D01*
X105181715Y-39154276D01*
X105105214Y-39256351D01*
X105096676Y-39271946D01*
X105051522Y-39392394D01*
X105047895Y-39407649D01*
X105042369Y-39458514D01*
X105042000Y-39465328D01*
X105042000Y-40037885D01*
X105046475Y-40053124D01*
X105047865Y-40054329D01*
X105055548Y-40056000D01*
X107639884Y-40056000D01*
X107655123Y-40051525D01*
X107656328Y-40050135D01*
X107657999Y-40042452D01*
X107657999Y-39465331D01*
X107657629Y-39458510D01*
X107652105Y-39407648D01*
X107648479Y-39392396D01*
X107603324Y-39271946D01*
X107594786Y-39256351D01*
X107518285Y-39154276D01*
X107505724Y-39141715D01*
X107403649Y-39065214D01*
X107388054Y-39056676D01*
X107260207Y-39008748D01*
X107260904Y-39006888D01*
X107208372Y-38976869D01*
X107175558Y-38913910D01*
X107181992Y-38843206D01*
X107210079Y-38800419D01*
X107356198Y-38654300D01*
X107487523Y-38466749D01*
X107489846Y-38461767D01*
X107489849Y-38461762D01*
X107581961Y-38264225D01*
X107581961Y-38264224D01*
X107584284Y-38259243D01*
X107643543Y-38038087D01*
X107663498Y-37810000D01*
X107643543Y-37581913D01*
X107612953Y-37467749D01*
X107585707Y-37366067D01*
X107585706Y-37366065D01*
X107584284Y-37360757D01*
X107581961Y-37355775D01*
X107489849Y-37158238D01*
X107489846Y-37158233D01*
X107487523Y-37153251D01*
X107356198Y-36965700D01*
X107194300Y-36803802D01*
X107189792Y-36800645D01*
X107189789Y-36800643D01*
X107065898Y-36713894D01*
X107006749Y-36672477D01*
X107001767Y-36670154D01*
X107001762Y-36670151D01*
X106804225Y-36578039D01*
X106804224Y-36578039D01*
X106799243Y-36575716D01*
X106793935Y-36574294D01*
X106793933Y-36574293D01*
X106583402Y-36517881D01*
X106583400Y-36517881D01*
X106578087Y-36516457D01*
X106350000Y-36496502D01*
X106344525Y-36496981D01*
X106339019Y-36496981D01*
X106339019Y-36494432D01*
X106279883Y-36482463D01*
X106249564Y-36460107D01*
X105325606Y-35536148D01*
X104349067Y-34559609D01*
X104349064Y-34559607D01*
X103703309Y-33913852D01*
X103055894Y-33266436D01*
X103021868Y-33204124D01*
X103018989Y-33177341D01*
X103018989Y-30195475D01*
X105037483Y-30195475D01*
X105056472Y-30412519D01*
X105058375Y-30423312D01*
X105114764Y-30633761D01*
X105118510Y-30644053D01*
X105210586Y-30841511D01*
X105216069Y-30851006D01*
X105252509Y-30903048D01*
X105262988Y-30911424D01*
X105276434Y-30904356D01*
X105977978Y-30202812D01*
X105985592Y-30188868D01*
X105985461Y-30187035D01*
X105981210Y-30180420D01*
X105275713Y-29474923D01*
X105263938Y-29468493D01*
X105251923Y-29477789D01*
X105216069Y-29528994D01*
X105210586Y-29538489D01*
X105118510Y-29735947D01*
X105114764Y-29746239D01*
X105058375Y-29956688D01*
X105056472Y-29967481D01*
X105037483Y-30184525D01*
X105037483Y-30195475D01*
X103018989Y-30195475D01*
X103018989Y-28074500D01*
X103038991Y-28006379D01*
X103092647Y-27959886D01*
X103144989Y-27948500D01*
X104958134Y-27948500D01*
X105020316Y-27941745D01*
X105156705Y-27890615D01*
X105273261Y-27803261D01*
X105360615Y-27686705D01*
X105411745Y-27550316D01*
X105418500Y-27488134D01*
X105418500Y-25191866D01*
X105411745Y-25129684D01*
X105360615Y-24993295D01*
X105273261Y-24876739D01*
X105156705Y-24789385D01*
X105020316Y-24738255D01*
X104958134Y-24731500D01*
X103144989Y-24731500D01*
X103076868Y-24711498D01*
X103030375Y-24657842D01*
X103018989Y-24605500D01*
X103018989Y-18272659D01*
X103038991Y-18204538D01*
X103055894Y-18183564D01*
X103433715Y-17805743D01*
X103496027Y-17771717D01*
X103547802Y-17772271D01*
X103547896Y-17771679D01*
X103551909Y-17772315D01*
X103552219Y-17772318D01*
X103557597Y-17773609D01*
X103562526Y-17773997D01*
X103562533Y-17773998D01*
X103805070Y-17793086D01*
X103810000Y-17793474D01*
X104062403Y-17773609D01*
X104067210Y-17772455D01*
X104067216Y-17772454D01*
X104223968Y-17734821D01*
X104308591Y-17714505D01*
X104313164Y-17712611D01*
X104537928Y-17619511D01*
X104537932Y-17619509D01*
X104542502Y-17617616D01*
X104758376Y-17485328D01*
X104950898Y-17320898D01*
X105115328Y-17128376D01*
X105247616Y-16912502D01*
X105344505Y-16678591D01*
X105385847Y-16506389D01*
X105402454Y-16437216D01*
X105402455Y-16437210D01*
X105403609Y-16432403D01*
X105423474Y-16180000D01*
X105403609Y-15927597D01*
X105344505Y-15681409D01*
X105247616Y-15447498D01*
X105115328Y-15231624D01*
X104950898Y-15039102D01*
X104758376Y-14874672D01*
X104542502Y-14742384D01*
X104543640Y-14740527D01*
X104498630Y-14698012D01*
X104481568Y-14629096D01*
X104504473Y-14561896D01*
X104560074Y-14517747D01*
X104607452Y-14508500D01*
X107262548Y-14508500D01*
X107330669Y-14528502D01*
G37*
G04 #@! TD.AperFunction*
G04 #@! TA.AperFunction,Conductor*
G36*
X103080669Y-14528502D02*
G01*
X103127162Y-14582158D01*
X103137266Y-14652432D01*
X103107772Y-14717012D01*
X103076803Y-14741250D01*
X103077498Y-14742384D01*
X102861624Y-14874672D01*
X102669102Y-15039102D01*
X102504672Y-15231624D01*
X102372384Y-15447498D01*
X102275495Y-15681409D01*
X102216391Y-15927597D01*
X102196526Y-16180000D01*
X102196914Y-16184930D01*
X102216002Y-16427467D01*
X102216003Y-16427474D01*
X102216391Y-16432403D01*
X102217547Y-16437218D01*
X102217682Y-16437780D01*
X102217671Y-16438000D01*
X102218321Y-16442104D01*
X102217459Y-16442241D01*
X102214132Y-16508688D01*
X102184257Y-16556285D01*
X101566943Y-17173599D01*
X101551915Y-17186436D01*
X101541055Y-17194326D01*
X101536634Y-17199236D01*
X101536633Y-17199237D01*
X101496603Y-17243695D01*
X101492062Y-17248480D01*
X101478017Y-17262525D01*
X101475933Y-17265099D01*
X101475930Y-17265102D01*
X101465520Y-17277957D01*
X101461236Y-17282973D01*
X101421206Y-17327431D01*
X101421202Y-17327436D01*
X101416785Y-17332342D01*
X101410280Y-17343608D01*
X101410078Y-17343959D01*
X101398880Y-17360252D01*
X101390442Y-17370672D01*
X101360276Y-17429874D01*
X101357143Y-17435644D01*
X101327229Y-17487456D01*
X101327227Y-17487461D01*
X101323925Y-17493180D01*
X101321884Y-17499460D01*
X101321881Y-17499468D01*
X101319781Y-17505932D01*
X101312217Y-17524194D01*
X101309126Y-17530260D01*
X101309123Y-17530269D01*
X101306127Y-17536148D01*
X101304418Y-17542526D01*
X101288933Y-17600315D01*
X101287067Y-17606617D01*
X101266535Y-17669809D01*
X101265845Y-17676377D01*
X101265134Y-17683139D01*
X101261531Y-17702582D01*
X101258059Y-17715540D01*
X101255115Y-17771717D01*
X101254582Y-17781878D01*
X101254066Y-17788442D01*
X101251989Y-17808205D01*
X101251989Y-17828066D01*
X101251816Y-17834661D01*
X101248339Y-17901004D01*
X101249371Y-17907518D01*
X101250438Y-17914255D01*
X101251989Y-17933967D01*
X101251989Y-33516032D01*
X101250438Y-33535744D01*
X101248339Y-33548996D01*
X101248684Y-33555583D01*
X101248684Y-33555587D01*
X101251816Y-33615339D01*
X101251989Y-33621934D01*
X101251989Y-33641795D01*
X101252333Y-33645066D01*
X101254065Y-33661548D01*
X101254582Y-33668117D01*
X101258059Y-33734460D01*
X101261531Y-33747418D01*
X101265134Y-33766861D01*
X101266535Y-33780191D01*
X101287067Y-33843383D01*
X101288933Y-33849685D01*
X101306127Y-33913852D01*
X101309123Y-33919731D01*
X101309126Y-33919740D01*
X101312217Y-33925806D01*
X101319781Y-33944068D01*
X101321881Y-33950532D01*
X101321884Y-33950540D01*
X101323925Y-33956820D01*
X101327227Y-33962539D01*
X101327229Y-33962544D01*
X101357143Y-34014356D01*
X101360276Y-34020126D01*
X101390442Y-34079328D01*
X101394598Y-34084460D01*
X101398880Y-34089748D01*
X101410078Y-34106041D01*
X101416785Y-34117658D01*
X101421202Y-34122564D01*
X101421206Y-34122569D01*
X101461236Y-34167027D01*
X101465520Y-34172043D01*
X101475930Y-34184898D01*
X101478017Y-34187475D01*
X101492062Y-34201520D01*
X101496603Y-34206305D01*
X101541055Y-34255674D01*
X101551915Y-34263564D01*
X101566943Y-34276401D01*
X102451447Y-35160905D01*
X102485473Y-35223217D01*
X102480408Y-35294032D01*
X102451447Y-35339095D01*
X94732454Y-43058088D01*
X94717426Y-43070925D01*
X94706566Y-43078815D01*
X94702145Y-43083725D01*
X94702144Y-43083726D01*
X94662114Y-43128184D01*
X94657573Y-43132969D01*
X94643528Y-43147014D01*
X94641444Y-43149588D01*
X94641441Y-43149591D01*
X94631031Y-43162446D01*
X94626747Y-43167462D01*
X94586717Y-43211920D01*
X94586713Y-43211925D01*
X94582296Y-43216831D01*
X94576646Y-43226618D01*
X94575589Y-43228448D01*
X94564391Y-43244741D01*
X94555953Y-43255161D01*
X94525787Y-43314363D01*
X94522654Y-43320133D01*
X94492740Y-43371945D01*
X94492738Y-43371950D01*
X94489436Y-43377669D01*
X94487395Y-43383949D01*
X94487392Y-43383957D01*
X94485292Y-43390421D01*
X94477729Y-43408682D01*
X94473135Y-43417699D01*
X94424388Y-43469316D01*
X94360866Y-43486500D01*
X92268354Y-43486500D01*
X92200233Y-43466498D01*
X92165141Y-43432771D01*
X92157513Y-43421876D01*
X92118294Y-43365866D01*
X92080908Y-43312473D01*
X92080906Y-43312470D01*
X92077749Y-43307962D01*
X91922038Y-43152251D01*
X91911215Y-43144672D01*
X91805899Y-43070929D01*
X91741654Y-43025944D01*
X91542076Y-42932880D01*
X91329371Y-42875885D01*
X91110000Y-42856693D01*
X90890629Y-42875885D01*
X90677924Y-42932880D01*
X90584562Y-42976415D01*
X90483334Y-43023618D01*
X90483329Y-43023621D01*
X90478347Y-43025944D01*
X90473840Y-43029100D01*
X90473838Y-43029101D01*
X90302473Y-43149092D01*
X90302470Y-43149094D01*
X90297962Y-43152251D01*
X90223595Y-43226618D01*
X90161283Y-43260644D01*
X90090468Y-43255579D01*
X90033632Y-43213032D01*
X90008821Y-43146512D01*
X90008500Y-43137523D01*
X90008500Y-41652594D01*
X90028502Y-41584473D01*
X90082158Y-41537980D01*
X90152432Y-41527876D01*
X90178729Y-41534612D01*
X90242391Y-41558478D01*
X90257649Y-41562105D01*
X90308514Y-41567631D01*
X90315328Y-41568000D01*
X90837885Y-41568000D01*
X90853124Y-41563525D01*
X90854329Y-41562135D01*
X90856000Y-41554452D01*
X90856000Y-41549884D01*
X91364000Y-41549884D01*
X91368475Y-41565123D01*
X91369865Y-41566328D01*
X91377548Y-41567999D01*
X91904669Y-41567999D01*
X91911490Y-41567629D01*
X91962352Y-41562105D01*
X91977604Y-41558479D01*
X92098054Y-41513324D01*
X92113649Y-41504786D01*
X92215724Y-41428285D01*
X92228285Y-41415724D01*
X92304786Y-41313649D01*
X92313324Y-41298054D01*
X92358478Y-41177606D01*
X92362105Y-41162351D01*
X92367631Y-41111486D01*
X92368000Y-41104672D01*
X92368000Y-40582115D01*
X92363525Y-40566876D01*
X92362135Y-40565671D01*
X92354452Y-40564000D01*
X91382115Y-40564000D01*
X91366876Y-40568475D01*
X91365671Y-40569865D01*
X91364000Y-40577548D01*
X91364000Y-41549884D01*
X90856000Y-41549884D01*
X90856000Y-40037885D01*
X91364000Y-40037885D01*
X91368475Y-40053124D01*
X91369865Y-40054329D01*
X91377548Y-40056000D01*
X92349884Y-40056000D01*
X92365123Y-40051525D01*
X92366328Y-40050135D01*
X92367999Y-40042452D01*
X92367999Y-39515331D01*
X92367629Y-39508510D01*
X92362105Y-39457648D01*
X92358479Y-39442396D01*
X92313324Y-39321946D01*
X92304786Y-39306351D01*
X92228285Y-39204276D01*
X92215724Y-39191715D01*
X92113649Y-39115214D01*
X92098054Y-39106676D01*
X91977606Y-39061522D01*
X91962351Y-39057895D01*
X91911486Y-39052369D01*
X91904672Y-39052000D01*
X91382115Y-39052000D01*
X91366876Y-39056475D01*
X91365671Y-39057865D01*
X91364000Y-39065548D01*
X91364000Y-40037885D01*
X90856000Y-40037885D01*
X90856000Y-39070116D01*
X90851525Y-39054877D01*
X90850135Y-39053672D01*
X90842452Y-39052001D01*
X90315331Y-39052001D01*
X90308510Y-39052371D01*
X90257648Y-39057895D01*
X90242393Y-39061522D01*
X90178729Y-39085388D01*
X90107922Y-39090571D01*
X90045553Y-39056650D01*
X90011424Y-38994394D01*
X90008500Y-38967406D01*
X90008500Y-37482477D01*
X90028502Y-37414356D01*
X90082158Y-37367863D01*
X90152432Y-37357759D01*
X90217012Y-37387253D01*
X90223595Y-37393382D01*
X90297962Y-37467749D01*
X90302471Y-37470906D01*
X90302473Y-37470908D01*
X90377241Y-37523261D01*
X90478346Y-37594056D01*
X90677924Y-37687120D01*
X90890629Y-37744115D01*
X91110000Y-37763307D01*
X91329371Y-37744115D01*
X91542076Y-37687120D01*
X91741654Y-37594056D01*
X91842759Y-37523261D01*
X91917527Y-37470908D01*
X91917529Y-37470906D01*
X91922038Y-37467749D01*
X92077749Y-37312038D01*
X92192090Y-37148743D01*
X92200899Y-37136162D01*
X92200900Y-37136160D01*
X92204056Y-37131653D01*
X92206379Y-37126671D01*
X92206382Y-37126666D01*
X92294795Y-36937061D01*
X92297120Y-36932076D01*
X92354115Y-36719371D01*
X92373307Y-36500000D01*
X92354115Y-36280629D01*
X92297120Y-36067924D01*
X92253585Y-35974562D01*
X92206382Y-35873334D01*
X92206379Y-35873329D01*
X92204056Y-35868347D01*
X92200899Y-35863838D01*
X92080908Y-35692473D01*
X92080906Y-35692470D01*
X92077749Y-35687962D01*
X91922038Y-35532251D01*
X91901005Y-35517523D01*
X91842759Y-35476739D01*
X91741654Y-35405944D01*
X91542076Y-35312880D01*
X91329371Y-35255885D01*
X91110000Y-35236693D01*
X90890629Y-35255885D01*
X90677924Y-35312880D01*
X90621706Y-35339095D01*
X90483334Y-35403618D01*
X90483329Y-35403621D01*
X90478347Y-35405944D01*
X90473840Y-35409100D01*
X90473838Y-35409101D01*
X90302473Y-35529092D01*
X90302470Y-35529094D01*
X90297962Y-35532251D01*
X90223595Y-35606618D01*
X90161283Y-35640644D01*
X90090468Y-35635579D01*
X90033632Y-35593032D01*
X90008821Y-35526512D01*
X90008500Y-35517523D01*
X90008500Y-31061734D01*
X93547900Y-31061734D01*
X93554655Y-31123916D01*
X93605785Y-31260305D01*
X93693139Y-31376861D01*
X93809695Y-31464215D01*
X93946084Y-31515345D01*
X94008266Y-31522100D01*
X95831734Y-31522100D01*
X95893916Y-31515345D01*
X96030305Y-31464215D01*
X96146861Y-31376861D01*
X96234215Y-31260305D01*
X96245197Y-31231012D01*
X96272213Y-31158946D01*
X96314854Y-31102181D01*
X96381416Y-31077481D01*
X96450765Y-31092688D01*
X96485431Y-31120676D01*
X96496702Y-31133687D01*
X96670299Y-31277810D01*
X96674751Y-31280412D01*
X96674756Y-31280415D01*
X96827516Y-31369681D01*
X96865103Y-31391645D01*
X97075884Y-31472134D01*
X97080952Y-31473165D01*
X97080955Y-31473166D01*
X97189404Y-31495230D01*
X97296981Y-31517117D01*
X97302156Y-31517307D01*
X97302158Y-31517307D01*
X97517292Y-31525196D01*
X97517296Y-31525196D01*
X97522456Y-31525385D01*
X97527576Y-31524729D01*
X97527578Y-31524729D01*
X97622485Y-31512571D01*
X97746253Y-31496716D01*
X97751202Y-31495231D01*
X97751208Y-31495230D01*
X97957413Y-31433365D01*
X97957412Y-31433365D01*
X97962363Y-31431880D01*
X98089327Y-31369681D01*
X98160331Y-31334897D01*
X98160336Y-31334894D01*
X98164982Y-31332618D01*
X98169192Y-31329615D01*
X98169197Y-31329612D01*
X98344455Y-31204601D01*
X98344459Y-31204597D01*
X98348667Y-31201596D01*
X98508487Y-31042333D01*
X98640150Y-30859105D01*
X98740118Y-30656835D01*
X98805708Y-30440952D01*
X98806383Y-30435826D01*
X98834721Y-30220578D01*
X98834722Y-30220572D01*
X98835158Y-30217256D01*
X98835511Y-30202812D01*
X98836720Y-30153364D01*
X98836720Y-30153360D01*
X98836802Y-30150000D01*
X98818315Y-29925132D01*
X98763349Y-29706304D01*
X98673380Y-29499391D01*
X98550826Y-29309951D01*
X98398977Y-29143071D01*
X98394926Y-29139872D01*
X98394922Y-29139868D01*
X98225966Y-29006434D01*
X98225962Y-29006432D01*
X98221911Y-29003232D01*
X98217387Y-29000734D01*
X98217383Y-29000732D01*
X98198048Y-28990058D01*
X98148079Y-28939625D01*
X98133308Y-28870182D01*
X98158426Y-28803777D01*
X98185776Y-28777172D01*
X98344136Y-28664216D01*
X98352003Y-28657567D01*
X98504445Y-28505656D01*
X98511122Y-28497811D01*
X98636702Y-28323047D01*
X98642013Y-28314208D01*
X98737358Y-28121292D01*
X98741156Y-28111699D01*
X98803716Y-27905791D01*
X98805893Y-27895721D01*
X98807705Y-27881960D01*
X98805493Y-27867778D01*
X98792336Y-27864000D01*
X93589283Y-27864000D01*
X93575752Y-27867973D01*
X93574315Y-27877966D01*
X93605542Y-28016528D01*
X93608621Y-28026356D01*
X93689589Y-28225756D01*
X93694232Y-28234947D01*
X93806682Y-28418448D01*
X93812765Y-28426759D01*
X93953661Y-28589413D01*
X93954295Y-28590034D01*
X93954471Y-28590348D01*
X93957053Y-28593329D01*
X93956438Y-28593862D01*
X93988973Y-28651985D01*
X93984653Y-28722850D01*
X93942706Y-28780130D01*
X93910371Y-28798043D01*
X93850281Y-28820570D01*
X93809695Y-28835785D01*
X93693139Y-28923139D01*
X93605785Y-29039695D01*
X93554655Y-29176084D01*
X93547900Y-29238266D01*
X93547900Y-31061734D01*
X90008500Y-31061734D01*
X90008500Y-27343239D01*
X93570536Y-27343239D01*
X93572233Y-27352609D01*
X93584610Y-27356000D01*
X94647885Y-27356000D01*
X94663124Y-27351525D01*
X94664329Y-27350135D01*
X94666000Y-27342452D01*
X94666000Y-27337885D01*
X95174000Y-27337885D01*
X95178475Y-27353124D01*
X95179865Y-27354329D01*
X95187548Y-27356000D01*
X97187885Y-27356000D01*
X97203124Y-27351525D01*
X97204329Y-27350135D01*
X97206000Y-27342452D01*
X97206000Y-27337885D01*
X97714000Y-27337885D01*
X97718475Y-27353124D01*
X97719865Y-27354329D01*
X97727548Y-27356000D01*
X98792367Y-27356000D01*
X98805898Y-27352027D01*
X98807203Y-27342947D01*
X98764133Y-27171477D01*
X98760813Y-27161726D01*
X98674999Y-26964365D01*
X98670133Y-26955290D01*
X98553239Y-26774601D01*
X98546947Y-26766430D01*
X98402113Y-26607260D01*
X98394580Y-26600234D01*
X98225691Y-26466855D01*
X98217108Y-26461153D01*
X98197599Y-26450383D01*
X98147628Y-26399950D01*
X98132856Y-26330507D01*
X98157972Y-26264102D01*
X98185323Y-26237496D01*
X98344133Y-26124217D01*
X98352003Y-26117567D01*
X98504445Y-25965656D01*
X98511122Y-25957811D01*
X98636702Y-25783047D01*
X98642013Y-25774208D01*
X98737358Y-25581292D01*
X98741156Y-25571699D01*
X98803716Y-25365791D01*
X98805893Y-25355721D01*
X98807705Y-25341960D01*
X98805493Y-25327778D01*
X98792336Y-25324000D01*
X97732115Y-25324000D01*
X97716876Y-25328475D01*
X97715671Y-25329865D01*
X97714000Y-25337548D01*
X97714000Y-27337885D01*
X97206000Y-27337885D01*
X97206000Y-25342115D01*
X97201525Y-25326876D01*
X97200135Y-25325671D01*
X97192452Y-25324000D01*
X95192115Y-25324000D01*
X95176876Y-25328475D01*
X95175671Y-25329865D01*
X95174000Y-25337548D01*
X95174000Y-27337885D01*
X94666000Y-27337885D01*
X94666000Y-25342115D01*
X94661525Y-25326876D01*
X94660135Y-25325671D01*
X94652452Y-25324000D01*
X93589283Y-25324000D01*
X93575752Y-25327973D01*
X93574315Y-25337966D01*
X93605542Y-25476528D01*
X93608621Y-25486356D01*
X93689589Y-25685756D01*
X93694232Y-25694947D01*
X93806682Y-25878448D01*
X93812765Y-25886759D01*
X93953665Y-26049417D01*
X93961032Y-26056633D01*
X94126606Y-26194095D01*
X94135053Y-26200010D01*
X94185031Y-26229215D01*
X94233755Y-26280854D01*
X94246826Y-26350636D01*
X94220095Y-26416408D01*
X94188605Y-26444622D01*
X94182469Y-26448486D01*
X94010373Y-26577700D01*
X94002666Y-26584543D01*
X93853984Y-26740129D01*
X93847498Y-26748139D01*
X93726232Y-26925908D01*
X93721134Y-26934882D01*
X93630530Y-27130071D01*
X93626967Y-27139758D01*
X93570536Y-27343239D01*
X90008500Y-27343239D01*
X90008500Y-24803239D01*
X93570536Y-24803239D01*
X93572233Y-24812609D01*
X93584610Y-24816000D01*
X94647885Y-24816000D01*
X94663124Y-24811525D01*
X94664329Y-24810135D01*
X94666000Y-24802452D01*
X94666000Y-24797885D01*
X95174000Y-24797885D01*
X95178475Y-24813124D01*
X95179865Y-24814329D01*
X95187548Y-24816000D01*
X97187885Y-24816000D01*
X97203124Y-24811525D01*
X97204329Y-24810135D01*
X97206000Y-24802452D01*
X97206000Y-24797885D01*
X97714000Y-24797885D01*
X97718475Y-24813124D01*
X97719865Y-24814329D01*
X97727548Y-24816000D01*
X98792367Y-24816000D01*
X98805898Y-24812027D01*
X98807203Y-24802947D01*
X98764133Y-24631477D01*
X98760813Y-24621726D01*
X98674999Y-24424365D01*
X98670133Y-24415290D01*
X98553239Y-24234601D01*
X98546947Y-24226430D01*
X98402113Y-24067260D01*
X98394580Y-24060234D01*
X98225691Y-23926855D01*
X98217108Y-23921153D01*
X98197599Y-23910383D01*
X98147628Y-23859950D01*
X98132856Y-23790507D01*
X98157972Y-23724102D01*
X98185323Y-23697496D01*
X98344133Y-23584217D01*
X98352003Y-23577567D01*
X98504445Y-23425656D01*
X98511122Y-23417811D01*
X98636702Y-23243047D01*
X98642013Y-23234208D01*
X98737358Y-23041292D01*
X98741156Y-23031699D01*
X98803716Y-22825791D01*
X98805893Y-22815721D01*
X98807705Y-22801960D01*
X98805493Y-22787778D01*
X98792336Y-22784000D01*
X97732115Y-22784000D01*
X97716876Y-22788475D01*
X97715671Y-22789865D01*
X97714000Y-22797548D01*
X97714000Y-24797885D01*
X97206000Y-24797885D01*
X97206000Y-22802115D01*
X97201525Y-22786876D01*
X97200135Y-22785671D01*
X97192452Y-22784000D01*
X95192115Y-22784000D01*
X95176876Y-22788475D01*
X95175671Y-22789865D01*
X95174000Y-22797548D01*
X95174000Y-24797885D01*
X94666000Y-24797885D01*
X94666000Y-22802115D01*
X94661525Y-22786876D01*
X94660135Y-22785671D01*
X94652452Y-22784000D01*
X93589283Y-22784000D01*
X93575752Y-22787973D01*
X93574315Y-22797966D01*
X93605542Y-22936528D01*
X93608621Y-22946356D01*
X93689589Y-23145756D01*
X93694232Y-23154947D01*
X93806682Y-23338448D01*
X93812765Y-23346759D01*
X93953665Y-23509417D01*
X93961032Y-23516633D01*
X94126606Y-23654095D01*
X94135053Y-23660010D01*
X94185031Y-23689215D01*
X94233755Y-23740854D01*
X94246826Y-23810636D01*
X94220095Y-23876408D01*
X94188605Y-23904622D01*
X94182469Y-23908486D01*
X94010373Y-24037700D01*
X94002666Y-24044543D01*
X93853984Y-24200129D01*
X93847498Y-24208139D01*
X93726232Y-24385908D01*
X93721134Y-24394882D01*
X93630530Y-24590071D01*
X93626967Y-24599758D01*
X93570536Y-24803239D01*
X90008500Y-24803239D01*
X90008500Y-19956362D01*
X93543609Y-19956362D01*
X93543906Y-19961514D01*
X93543906Y-19961518D01*
X93549618Y-20060578D01*
X93556597Y-20181614D01*
X93557734Y-20186660D01*
X93557735Y-20186666D01*
X93578984Y-20280952D01*
X93606200Y-20401720D01*
X93608142Y-20406502D01*
X93608143Y-20406506D01*
X93644822Y-20496835D01*
X93691086Y-20610769D01*
X93808975Y-20803147D01*
X93956702Y-20973687D01*
X94130299Y-21117810D01*
X94134751Y-21120412D01*
X94134756Y-21120415D01*
X94184555Y-21149515D01*
X94233278Y-21201154D01*
X94246349Y-21270937D01*
X94219617Y-21336709D01*
X94188131Y-21364920D01*
X94182471Y-21368485D01*
X94010373Y-21497700D01*
X94002666Y-21504543D01*
X93853984Y-21660129D01*
X93847498Y-21668139D01*
X93726232Y-21845908D01*
X93721134Y-21854882D01*
X93630530Y-22050071D01*
X93626967Y-22059758D01*
X93570536Y-22263239D01*
X93572233Y-22272609D01*
X93584610Y-22276000D01*
X98792367Y-22276000D01*
X98805898Y-22272027D01*
X98807203Y-22262947D01*
X98764133Y-22091477D01*
X98760813Y-22081726D01*
X98674999Y-21884365D01*
X98670133Y-21875290D01*
X98553239Y-21694601D01*
X98546947Y-21686430D01*
X98402113Y-21527260D01*
X98394580Y-21520234D01*
X98225691Y-21386855D01*
X98217104Y-21381150D01*
X98198082Y-21370649D01*
X98148111Y-21320216D01*
X98133340Y-21250773D01*
X98158457Y-21184368D01*
X98185801Y-21157768D01*
X98348667Y-21041596D01*
X98508487Y-20882333D01*
X98640150Y-20699105D01*
X98740118Y-20496835D01*
X98805708Y-20280952D01*
X98835158Y-20057256D01*
X98836802Y-19990000D01*
X98818315Y-19765132D01*
X98763349Y-19546304D01*
X98673380Y-19339391D01*
X98625282Y-19265043D01*
X98553634Y-19154291D01*
X98553632Y-19154288D01*
X98550826Y-19149951D01*
X98398977Y-18983071D01*
X98394926Y-18979872D01*
X98394922Y-18979868D01*
X98225966Y-18846434D01*
X98225962Y-18846432D01*
X98221911Y-18843232D01*
X98024383Y-18734191D01*
X97811698Y-18658876D01*
X97761297Y-18649898D01*
X97594657Y-18620214D01*
X97594653Y-18620214D01*
X97589569Y-18619308D01*
X97517574Y-18618429D01*
X97369129Y-18616615D01*
X97369127Y-18616615D01*
X97363959Y-18616552D01*
X97140929Y-18650680D01*
X96926468Y-18720777D01*
X96726335Y-18824960D01*
X96722202Y-18828063D01*
X96722199Y-18828065D01*
X96697734Y-18846434D01*
X96545905Y-18960430D01*
X96390024Y-19123550D01*
X96387112Y-19127819D01*
X96387106Y-19127827D01*
X96293503Y-19265043D01*
X96238592Y-19310046D01*
X96168067Y-19318217D01*
X96104320Y-19286963D01*
X96083623Y-19262479D01*
X96013634Y-19154291D01*
X96013632Y-19154288D01*
X96010826Y-19149951D01*
X95858977Y-18983071D01*
X95854926Y-18979872D01*
X95854922Y-18979868D01*
X95685966Y-18846434D01*
X95685962Y-18846432D01*
X95681911Y-18843232D01*
X95484383Y-18734191D01*
X95271698Y-18658876D01*
X95221297Y-18649898D01*
X95054657Y-18620214D01*
X95054653Y-18620214D01*
X95049569Y-18619308D01*
X94977574Y-18618429D01*
X94829129Y-18616615D01*
X94829127Y-18616615D01*
X94823959Y-18616552D01*
X94600929Y-18650680D01*
X94386468Y-18720777D01*
X94186335Y-18824960D01*
X94182202Y-18828063D01*
X94182199Y-18828065D01*
X94157734Y-18846434D01*
X94005905Y-18960430D01*
X93850024Y-19123550D01*
X93722878Y-19309940D01*
X93720704Y-19314624D01*
X93720702Y-19314627D01*
X93649402Y-19468231D01*
X93627881Y-19514593D01*
X93567585Y-19732013D01*
X93543609Y-19956362D01*
X90008500Y-19956362D01*
X90008500Y-14634500D01*
X90028502Y-14566379D01*
X90082158Y-14519886D01*
X90134500Y-14508500D01*
X103012548Y-14508500D01*
X103080669Y-14528502D01*
G37*
G04 #@! TD.AperFunction*
G04 #@! TD*
M02*
